G04 #@! TF.GenerationSoftware,KiCad,Pcbnew,9.0.2*
G04 #@! TF.CreationDate,2026-06-17T20:08:09+05:00*
G04 #@! TF.ProjectId,ProPrj_Segun O pcb fiverr_2026-03-03,50726f50-726a-45f5-9365-67756e204f20,rev?*
G04 #@! TF.SameCoordinates,Original*
G04 #@! TF.FileFunction,Copper,L3,Inr*
G04 #@! TF.FilePolarity,Positive*
%FSLAX46Y46*%
G04 Gerber Fmt 4.6, Leading zero omitted, Abs format (unit mm)*
G04 Created by KiCad (PCBNEW 9.0.2) date 2026-06-17 20:08:09*
%MOMM*%
%LPD*%
G01*
G04 APERTURE LIST*
%ADD10C,0.150000*%
G04 #@! TA.AperFunction,ComponentPad*
%ADD11C,0.002500*%
G04 #@! TD*
G04 #@! TA.AperFunction,ComponentPad*
%ADD12C,2.400000*%
G04 #@! TD*
G04 #@! TA.AperFunction,ComponentPad*
%ADD13O,2.200000X1.000000*%
G04 #@! TD*
G04 #@! TA.AperFunction,ComponentPad*
%ADD14O,1.800000X1.000000*%
G04 #@! TD*
G04 #@! TA.AperFunction,ComponentPad*
%ADD15C,0.900000*%
G04 #@! TD*
G04 #@! TA.AperFunction,ViaPad*
%ADD16C,0.600000*%
G04 #@! TD*
G04 #@! TA.AperFunction,ViaPad*
%ADD17C,0.650000*%
G04 #@! TD*
G04 #@! TA.AperFunction,Conductor*
%ADD18C,0.300000*%
G04 #@! TD*
G04 #@! TA.AperFunction,Conductor*
%ADD19C,0.900000*%
G04 #@! TD*
G04 #@! TA.AperFunction,Conductor*
%ADD20C,1.000000*%
G04 #@! TD*
G04 #@! TA.AperFunction,Conductor*
%ADD21C,0.500000*%
G04 #@! TD*
G04 APERTURE END LIST*
D10*
G36*
X157145577Y-168518393D02*
G01*
X157127863Y-168541222D01*
X157113191Y-168569983D01*
X157103961Y-168603686D01*
X157100478Y-168650210D01*
X157104359Y-168697429D01*
X157115645Y-168739542D01*
X157133902Y-168777554D01*
X157158254Y-168810238D01*
X157191556Y-168839189D01*
X157230647Y-168859691D01*
X157273527Y-168871557D01*
X157321799Y-168875677D01*
X157372260Y-168872148D01*
X157421853Y-168861572D01*
X157468603Y-168846038D01*
X157502563Y-168830712D01*
X157502563Y-168730695D01*
X157496408Y-168730695D01*
X157459372Y-168755014D01*
X157414452Y-168775702D01*
X157367434Y-168789269D01*
X157323447Y-168793612D01*
X157297360Y-168791201D01*
X157268529Y-168783567D01*
X157241559Y-168770736D01*
X157221378Y-168753904D01*
X157204753Y-168731473D01*
X157193315Y-168707485D01*
X157186601Y-168680175D01*
X157184082Y-168643329D01*
X157186921Y-168607038D01*
X157194560Y-168579942D01*
X157207136Y-168557314D01*
X157223430Y-168540448D01*
X157243322Y-168528169D01*
X157268090Y-168520102D01*
X157294880Y-168516013D01*
X157324656Y-168514588D01*
X157361549Y-168514588D01*
X157361549Y-168435258D01*
X157332863Y-168435258D01*
X157292029Y-168431508D01*
X157259457Y-168421182D01*
X157233505Y-168405168D01*
X157217316Y-168388453D01*
X157205903Y-168368688D01*
X157198869Y-168345278D01*
X157196392Y-168317246D01*
X157198842Y-168292840D01*
X157205844Y-168272452D01*
X157217029Y-168255068D01*
X157232039Y-168240951D01*
X157250286Y-168230532D01*
X157269775Y-168223897D01*
X157290539Y-168220406D01*
X157315241Y-168219152D01*
X157354537Y-168223094D01*
X157398039Y-168235608D01*
X157440601Y-168255415D01*
X157480837Y-168282069D01*
X157484941Y-168282069D01*
X157484941Y-168182052D01*
X157453167Y-168166837D01*
X157407271Y-168151192D01*
X157358908Y-168140531D01*
X157313189Y-168137087D01*
X157269931Y-168139614D01*
X157234531Y-168146576D01*
X157201891Y-168159027D01*
X157173018Y-168176923D01*
X157146791Y-168202467D01*
X157128358Y-168231975D01*
X157117136Y-168266183D01*
X157113191Y-168307373D01*
X157117177Y-168344930D01*
X157128963Y-168378815D01*
X157149058Y-168410083D01*
X157174691Y-168435971D01*
X157202729Y-168454214D01*
X157233688Y-168465349D01*
X157233688Y-168472060D01*
X157213537Y-168477624D01*
X157188625Y-168488045D01*
X157164731Y-168502019D01*
X157145577Y-168518393D01*
G37*
D11*
X128782000Y-82189000D03*
D12*
X134779000Y-152949000D03*
D13*
X190942000Y-103103000D03*
D14*
X186942000Y-91863000D03*
X186942000Y-103103000D03*
D13*
X190942000Y-91863000D03*
D12*
X156279000Y-152949000D03*
D15*
X105780000Y-141089000D03*
X106796000Y-146169000D03*
X104764000Y-146169000D03*
D11*
X170279000Y-154689000D03*
D16*
X161490000Y-69089000D03*
X132630500Y-100510500D03*
X165297000Y-90406000D03*
X128790000Y-103291000D03*
X142590000Y-80651000D03*
X163370000Y-87611000D03*
X131790000Y-102251000D03*
X164490000Y-89959000D03*
X141391000Y-87954000D03*
X104845000Y-141159000D03*
X184579000Y-84997000D03*
X129445000Y-104946000D03*
X133345000Y-90546000D03*
X129745000Y-93846000D03*
X145745000Y-84054000D03*
X149620000Y-99629000D03*
D17*
X184344500Y-78312500D03*
D16*
X170791000Y-110314000D03*
X149170000Y-92754000D03*
X172926000Y-108560000D03*
X124045000Y-119046000D03*
X154270000Y-96134000D03*
X166570000Y-108861000D03*
X114250000Y-117097000D03*
D17*
X124772000Y-115897000D03*
D16*
X113050000Y-79297000D03*
X116684000Y-129079000D03*
X174941000Y-112258000D03*
X120699500Y-88475500D03*
X138808500Y-84696500D03*
X137499500Y-84096500D03*
X187092000Y-100907000D03*
X165819000Y-107480000D03*
X140619000Y-104180000D03*
X175811000Y-110537000D03*
X184892000Y-103407000D03*
X107891000Y-122152000D03*
X163746000Y-102299000D03*
X165646000Y-95899000D03*
X114261000Y-121415000D03*
X129830000Y-91532000D03*
X127130000Y-92732000D03*
X119050000Y-140155000D03*
X134313000Y-93332000D03*
X145646000Y-85563000D03*
X125030000Y-93632000D03*
X135813000Y-93032000D03*
X177346000Y-119570000D03*
X104829000Y-74435000D03*
X184546000Y-110708000D03*
X142695000Y-91214000D03*
X141195000Y-92714000D03*
X161046000Y-99599000D03*
X184311000Y-98906000D03*
X183601000Y-101708000D03*
X153891000Y-78604000D03*
X115925500Y-93527500D03*
X183486000Y-75261000D03*
X111770000Y-121161000D03*
X111845000Y-75427000D03*
X110345000Y-76927000D03*
X116054000Y-95199000D03*
X161646000Y-101699000D03*
X187686000Y-75261000D03*
X116350000Y-136555000D03*
X157691000Y-78904000D03*
X117125500Y-84827500D03*
X184801000Y-100808000D03*
X143910000Y-98729000D03*
X142910000Y-96829000D03*
X143910000Y-101729000D03*
X182919000Y-111687000D03*
X146426000Y-149694000D03*
X147363000Y-139531000D03*
X145570000Y-110588000D03*
X145870000Y-93188000D03*
X147363000Y-121981000D03*
X148263000Y-120481000D03*
X145340000Y-92109000D03*
X135140000Y-118790000D03*
X184692000Y-97933000D03*
X185292000Y-110758000D03*
X166565000Y-94760000D03*
X160992000Y-91633000D03*
X171411000Y-90041000D03*
X150510000Y-71661000D03*
X163437000Y-77302000D03*
X161856000Y-77245000D03*
X181056000Y-96445000D03*
X157720000Y-85129000D03*
X176140000Y-118711000D03*
X185523000Y-84391000D03*
X177792000Y-115894000D03*
X177111000Y-118802000D03*
X178011000Y-95102000D03*
X185253000Y-77455000D03*
X175855000Y-114000000D03*
X188486000Y-84031000D03*
X174920000Y-117000000D03*
X188755000Y-87600000D03*
X153188500Y-80061000D03*
X157088000Y-78261000D03*
X164586000Y-94761000D03*
X154488000Y-94034000D03*
X151188000Y-97161000D03*
X152688000Y-95809000D03*
X157815500Y-82129000D03*
X133713000Y-96632000D03*
X118638000Y-82153000D03*
X123138000Y-86653000D03*
X145338000Y-87553000D03*
X156138000Y-90853000D03*
X159700000Y-119622500D03*
X154420000Y-99822500D03*
X111007000Y-142683000D03*
X123882000Y-123209000D03*
X150882000Y-86909000D03*
X143082000Y-109109000D03*
X167604000Y-87733000D03*
X178192000Y-97033000D03*
X177620000Y-128729000D03*
X171620000Y-126629000D03*
X151220000Y-100829000D03*
X152420000Y-107429000D03*
X150713000Y-102032000D03*
X151313000Y-99632000D03*
X158999000Y-108276000D03*
X154695000Y-100730000D03*
X158399000Y-109476000D03*
X157499000Y-119676000D03*
X150100000Y-107376000D03*
X148300000Y-94176000D03*
X153120000Y-97288000D03*
X145273500Y-134431000D03*
X154262500Y-121831000D03*
X154562500Y-134431000D03*
X134515000Y-149694000D03*
X153874000Y-120251500D03*
X153620000Y-99551500D03*
X130256000Y-149694000D03*
X150786000Y-80961000D03*
X163259000Y-69664000D03*
X182886000Y-77061000D03*
X151086000Y-79161000D03*
X168867500Y-89179000D03*
X172040500Y-89260000D03*
X172086000Y-86661000D03*
X180186000Y-75261000D03*
X169140000Y-86361000D03*
X166140000Y-89961000D03*
X160920000Y-90379000D03*
X163563500Y-91659000D03*
X167440000Y-86636000D03*
X167094000Y-90261000D03*
X166786000Y-96561000D03*
X148786000Y-96261000D03*
X162617500Y-83329000D03*
X163959500Y-85008500D03*
X151715000Y-103442000D03*
X158270000Y-95987000D03*
X159770000Y-88787000D03*
X145415000Y-113942000D03*
X129515000Y-118442000D03*
X111134000Y-141413000D03*
X155915000Y-104642000D03*
X154715000Y-103442000D03*
X162170000Y-103187000D03*
X159770000Y-92987000D03*
X149382000Y-86567500D03*
X155682000Y-84767500D03*
X159758500Y-82067500D03*
X150582000Y-86209000D03*
X114882000Y-142009000D03*
X142691000Y-101700000D03*
X114874000Y-139129000D03*
X140591000Y-100200000D03*
X139391000Y-92700000D03*
X120282000Y-114109000D03*
X143510000Y-83191000D03*
X159482000Y-84529000D03*
X173469000Y-99589000D03*
X139010000Y-78691000D03*
X131880500Y-98720500D03*
X178869000Y-100483000D03*
X110060000Y-116697000D03*
X112760000Y-125697000D03*
D17*
X184530000Y-95093000D03*
X184569000Y-99893000D03*
D16*
X115810500Y-85354500D03*
X116410500Y-90224500D03*
X154723000Y-105032000D03*
X136513000Y-102632000D03*
X164923000Y-120932000D03*
X138313000Y-102332000D03*
X113038000Y-80637000D03*
X179545000Y-123536000D03*
X139682000Y-103773000D03*
X172682000Y-119673000D03*
X172713000Y-134076000D03*
X161913000Y-124176000D03*
X188158000Y-74636000D03*
X189082000Y-115230000D03*
X132560000Y-96179000D03*
X134660000Y-94679000D03*
X166392000Y-104133000D03*
X137892000Y-103833000D03*
X138792000Y-102933000D03*
X164892000Y-105633000D03*
X111492000Y-127952000D03*
X119292000Y-123333000D03*
X176345500Y-113429000D03*
X152120000Y-97229000D03*
X175086000Y-89661000D03*
X166086000Y-97761000D03*
X151386000Y-95961000D03*
X185286000Y-75261000D03*
X144070000Y-88479000D03*
X106338000Y-118549000D03*
X128770000Y-106479000D03*
X121870000Y-113379000D03*
X161586000Y-98361000D03*
X159291000Y-97009000D03*
X166186000Y-98961000D03*
X163486000Y-97161000D03*
X183551000Y-83604000D03*
X189061000Y-77361000D03*
X149982000Y-91290500D03*
X149082000Y-89790500D03*
X151828000Y-94455000D03*
X148270000Y-89021000D03*
D18*
X184761000Y-82699000D02*
X184579000Y-82881000D01*
X184344500Y-78312500D02*
X184761000Y-78729000D01*
X184761000Y-78729000D02*
X184761000Y-82699000D01*
X184579000Y-82881000D02*
X184579000Y-84997000D01*
D19*
X121781000Y-117097000D02*
X122464000Y-116414000D01*
X124402000Y-116414000D02*
X124323000Y-116335000D01*
X124323000Y-116335000D02*
X124323000Y-104878000D01*
X112989000Y-79297000D02*
X113050000Y-79297000D01*
X112075000Y-80211000D02*
X112989000Y-79297000D01*
X122464000Y-116414000D02*
X124402000Y-116414000D01*
X124323000Y-104878000D02*
X112075000Y-92630000D01*
D18*
X124772000Y-115897000D02*
X124402000Y-116267000D01*
D19*
X114250000Y-117097000D02*
X121781000Y-117097000D01*
X112075000Y-92630000D02*
X112075000Y-80211000D01*
D20*
X118183500Y-127580000D02*
X116684000Y-129079000D01*
X132319000Y-127580000D02*
X118183500Y-127580000D01*
X174941000Y-112258000D02*
X164189000Y-123010000D01*
X136889000Y-123010000D02*
X132319000Y-127580000D01*
X164189000Y-123010000D02*
X136889000Y-123010000D01*
D21*
X187092000Y-100907000D02*
X186883000Y-100907000D01*
X186883000Y-100907000D02*
X184892000Y-102898000D01*
X184892000Y-102898000D02*
X184892000Y-103407000D01*
X177792000Y-115894000D02*
X179639000Y-114047000D01*
D18*
X185253000Y-84121000D02*
X185253000Y-77455000D01*
D21*
X179639000Y-96730000D02*
X178011000Y-95102000D01*
X179639000Y-114047000D02*
X179639000Y-96730000D01*
X177792000Y-115894000D02*
X177792000Y-118121000D01*
X177792000Y-118121000D02*
X177111000Y-118802000D01*
D18*
X185523000Y-84391000D02*
X185253000Y-84121000D01*
D21*
X175855000Y-114000000D02*
X175855000Y-116065000D01*
X175855000Y-116065000D02*
X174920000Y-117000000D01*
G04 #@! TA.AperFunction,Conductor*
G36*
X145839674Y-81707674D02*
G01*
X146918000Y-82786000D01*
X162528709Y-82786000D01*
X162581035Y-82807674D01*
X162602709Y-82860000D01*
X162581035Y-82912326D01*
X162547862Y-82931478D01*
X162500510Y-82944166D01*
X162462333Y-82954395D01*
X162462329Y-82954397D01*
X162370669Y-83007317D01*
X162295817Y-83082169D01*
X162242897Y-83173829D01*
X162242895Y-83173833D01*
X162242895Y-83173834D01*
X162215500Y-83276076D01*
X162215500Y-83381924D01*
X162230480Y-83437830D01*
X162242895Y-83484166D01*
X162242897Y-83484170D01*
X162295817Y-83575830D01*
X162295818Y-83575831D01*
X162295820Y-83575834D01*
X162370666Y-83650680D01*
X162462334Y-83703605D01*
X162564576Y-83731000D01*
X162564577Y-83731000D01*
X162670423Y-83731000D01*
X162670424Y-83731000D01*
X162772666Y-83703605D01*
X162864334Y-83650680D01*
X162939180Y-83575834D01*
X162992105Y-83484166D01*
X163019500Y-83381924D01*
X163019500Y-83276076D01*
X162992105Y-83173834D01*
X162939180Y-83082166D01*
X162864334Y-83007320D01*
X162864331Y-83007318D01*
X162864330Y-83007317D01*
X162772670Y-82954397D01*
X162772666Y-82954395D01*
X162734501Y-82944169D01*
X162687138Y-82931478D01*
X162642205Y-82897000D01*
X162634812Y-82840848D01*
X162669291Y-82795914D01*
X162706291Y-82786000D01*
X163687348Y-82786000D01*
X163739674Y-82807674D01*
X165118000Y-84186000D01*
X174987348Y-84186000D01*
X175039674Y-84207674D01*
X176996326Y-86164326D01*
X177018000Y-86216652D01*
X177018000Y-89055348D01*
X176996326Y-89107674D01*
X173718000Y-92386000D01*
X173718000Y-98555348D01*
X173696326Y-98607674D01*
X169739674Y-102564326D01*
X169687348Y-102586000D01*
X164918000Y-102586000D01*
X162118000Y-105386000D01*
X162118000Y-117655348D01*
X162096326Y-117707674D01*
X161539674Y-118264326D01*
X161487348Y-118286000D01*
X159601332Y-118286000D01*
X159559637Y-118273135D01*
X158405500Y-117486000D01*
X146448652Y-117486000D01*
X146396326Y-117464326D01*
X143739674Y-114807674D01*
X143718000Y-114755348D01*
X143718000Y-113889076D01*
X145013000Y-113889076D01*
X145013000Y-113994924D01*
X145028541Y-114052924D01*
X145040395Y-114097166D01*
X145040397Y-114097170D01*
X145093317Y-114188830D01*
X145093318Y-114188831D01*
X145093320Y-114188834D01*
X145168166Y-114263680D01*
X145259834Y-114316605D01*
X145362076Y-114344000D01*
X145362077Y-114344000D01*
X145467923Y-114344000D01*
X145467924Y-114344000D01*
X145570166Y-114316605D01*
X145661834Y-114263680D01*
X145736680Y-114188834D01*
X145789605Y-114097166D01*
X145817000Y-113994924D01*
X145817000Y-113889076D01*
X145789605Y-113786834D01*
X145736680Y-113695166D01*
X145661834Y-113620320D01*
X145661831Y-113620318D01*
X145661830Y-113620317D01*
X145570170Y-113567397D01*
X145570166Y-113567395D01*
X145467924Y-113540000D01*
X145362076Y-113540000D01*
X145310955Y-113553697D01*
X145259833Y-113567395D01*
X145259829Y-113567397D01*
X145168169Y-113620317D01*
X145093317Y-113695169D01*
X145040397Y-113786829D01*
X145040395Y-113786833D01*
X145040395Y-113786834D01*
X145013000Y-113889076D01*
X143718000Y-113889076D01*
X143718000Y-110535076D01*
X145168000Y-110535076D01*
X145168000Y-110640924D01*
X145181730Y-110692166D01*
X145195395Y-110743166D01*
X145195397Y-110743170D01*
X145248317Y-110834830D01*
X145248318Y-110834831D01*
X145248320Y-110834834D01*
X145323166Y-110909680D01*
X145414834Y-110962605D01*
X145517076Y-110990000D01*
X145517077Y-110990000D01*
X145622923Y-110990000D01*
X145622924Y-110990000D01*
X145725166Y-110962605D01*
X145816834Y-110909680D01*
X145891680Y-110834834D01*
X145944605Y-110743166D01*
X145972000Y-110640924D01*
X145972000Y-110535076D01*
X145944605Y-110432834D01*
X145891680Y-110341166D01*
X145816834Y-110266320D01*
X145816831Y-110266318D01*
X145816830Y-110266317D01*
X145725170Y-110213397D01*
X145725166Y-110213395D01*
X145622924Y-110186000D01*
X145517076Y-110186000D01*
X145465955Y-110199697D01*
X145414833Y-110213395D01*
X145414829Y-110213397D01*
X145323169Y-110266317D01*
X145248317Y-110341169D01*
X145195397Y-110432829D01*
X145195395Y-110432833D01*
X145195395Y-110432834D01*
X145168000Y-110535076D01*
X143718000Y-110535076D01*
X143718000Y-109423076D01*
X157997000Y-109423076D01*
X157997000Y-109528924D01*
X158024395Y-109631166D01*
X158024397Y-109631170D01*
X158077317Y-109722830D01*
X158077318Y-109722831D01*
X158077320Y-109722834D01*
X158152166Y-109797680D01*
X158243834Y-109850605D01*
X158346076Y-109878000D01*
X158346077Y-109878000D01*
X158451923Y-109878000D01*
X158451924Y-109878000D01*
X158554166Y-109850605D01*
X158645834Y-109797680D01*
X158720680Y-109722834D01*
X158773605Y-109631166D01*
X158801000Y-109528924D01*
X158801000Y-109423076D01*
X158773605Y-109320834D01*
X158720680Y-109229166D01*
X158645834Y-109154320D01*
X158645831Y-109154318D01*
X158645830Y-109154317D01*
X158554170Y-109101397D01*
X158554166Y-109101395D01*
X158451924Y-109074000D01*
X158346076Y-109074000D01*
X158294955Y-109087697D01*
X158243833Y-109101395D01*
X158243829Y-109101397D01*
X158152169Y-109154317D01*
X158077317Y-109229169D01*
X158024397Y-109320829D01*
X158024395Y-109320833D01*
X158024395Y-109320834D01*
X157997000Y-109423076D01*
X143718000Y-109423076D01*
X143718000Y-108223076D01*
X158597000Y-108223076D01*
X158597000Y-108328924D01*
X158624395Y-108431166D01*
X158624397Y-108431170D01*
X158677317Y-108522830D01*
X158677318Y-108522831D01*
X158677320Y-108522834D01*
X158752166Y-108597680D01*
X158843834Y-108650605D01*
X158946076Y-108678000D01*
X158946077Y-108678000D01*
X159051923Y-108678000D01*
X159051924Y-108678000D01*
X159154166Y-108650605D01*
X159245834Y-108597680D01*
X159320680Y-108522834D01*
X159373605Y-108431166D01*
X159401000Y-108328924D01*
X159401000Y-108223076D01*
X159373605Y-108120834D01*
X159320680Y-108029166D01*
X159245834Y-107954320D01*
X159245831Y-107954318D01*
X159245830Y-107954317D01*
X159154170Y-107901397D01*
X159154166Y-107901395D01*
X159051924Y-107874000D01*
X158946076Y-107874000D01*
X158916219Y-107882000D01*
X158843833Y-107901395D01*
X158843829Y-107901397D01*
X158752169Y-107954317D01*
X158677317Y-108029169D01*
X158624397Y-108120829D01*
X158624395Y-108120833D01*
X158624395Y-108120834D01*
X158597000Y-108223076D01*
X143718000Y-108223076D01*
X143718000Y-107323076D01*
X149698000Y-107323076D01*
X149698000Y-107428924D01*
X149712201Y-107481924D01*
X149725395Y-107531166D01*
X149725397Y-107531170D01*
X149778317Y-107622830D01*
X149778318Y-107622831D01*
X149778320Y-107622834D01*
X149853166Y-107697680D01*
X149944834Y-107750605D01*
X150047076Y-107778000D01*
X150047077Y-107778000D01*
X150152923Y-107778000D01*
X150152924Y-107778000D01*
X150255166Y-107750605D01*
X150346834Y-107697680D01*
X150421680Y-107622834D01*
X150474605Y-107531166D01*
X150502000Y-107428924D01*
X150502000Y-107376076D01*
X152018000Y-107376076D01*
X152018000Y-107481924D01*
X152031194Y-107531166D01*
X152045395Y-107584166D01*
X152045397Y-107584170D01*
X152098317Y-107675830D01*
X152098318Y-107675831D01*
X152098320Y-107675834D01*
X152173166Y-107750680D01*
X152264834Y-107803605D01*
X152367076Y-107831000D01*
X152367077Y-107831000D01*
X152472923Y-107831000D01*
X152472924Y-107831000D01*
X152575166Y-107803605D01*
X152666834Y-107750680D01*
X152741680Y-107675834D01*
X152794605Y-107584166D01*
X152822000Y-107481924D01*
X152822000Y-107376076D01*
X152794605Y-107273834D01*
X152741680Y-107182166D01*
X152666834Y-107107320D01*
X152666831Y-107107318D01*
X152666830Y-107107317D01*
X152575170Y-107054397D01*
X152575166Y-107054395D01*
X152574875Y-107054317D01*
X152472924Y-107027000D01*
X152367076Y-107027000D01*
X152315955Y-107040697D01*
X152264833Y-107054395D01*
X152264829Y-107054397D01*
X152173169Y-107107317D01*
X152098317Y-107182169D01*
X152045397Y-107273829D01*
X152045395Y-107273833D01*
X152045395Y-107273834D01*
X152018000Y-107376076D01*
X150502000Y-107376076D01*
X150502000Y-107323076D01*
X150474605Y-107220834D01*
X150421680Y-107129166D01*
X150346834Y-107054320D01*
X150346831Y-107054318D01*
X150346830Y-107054317D01*
X150255170Y-107001397D01*
X150255166Y-107001395D01*
X150152924Y-106974000D01*
X150047076Y-106974000D01*
X149995955Y-106987697D01*
X149944833Y-107001395D01*
X149944829Y-107001397D01*
X149853169Y-107054317D01*
X149778317Y-107129169D01*
X149725397Y-107220829D01*
X149725395Y-107220833D01*
X149725395Y-107220834D01*
X149698000Y-107323076D01*
X143718000Y-107323076D01*
X143718000Y-104979076D01*
X154321000Y-104979076D01*
X154321000Y-105084924D01*
X154348395Y-105187166D01*
X154348397Y-105187170D01*
X154401317Y-105278830D01*
X154401318Y-105278831D01*
X154401320Y-105278834D01*
X154476166Y-105353680D01*
X154567834Y-105406605D01*
X154670076Y-105434000D01*
X154670077Y-105434000D01*
X154775923Y-105434000D01*
X154775924Y-105434000D01*
X154878166Y-105406605D01*
X154969834Y-105353680D01*
X155044680Y-105278834D01*
X155097605Y-105187166D01*
X155125000Y-105084924D01*
X155125000Y-104979076D01*
X155097605Y-104876834D01*
X155044680Y-104785166D01*
X154969834Y-104710320D01*
X154969831Y-104710318D01*
X154969830Y-104710317D01*
X154878170Y-104657397D01*
X154878167Y-104657395D01*
X154876452Y-104656935D01*
X154775924Y-104630000D01*
X154670076Y-104630000D01*
X154618955Y-104643697D01*
X154567833Y-104657395D01*
X154567829Y-104657397D01*
X154476169Y-104710317D01*
X154401317Y-104785169D01*
X154348397Y-104876829D01*
X154348395Y-104876833D01*
X154334697Y-104927955D01*
X154321000Y-104979076D01*
X143718000Y-104979076D01*
X143718000Y-104589076D01*
X155513000Y-104589076D01*
X155513000Y-104694924D01*
X155540395Y-104797166D01*
X155540397Y-104797170D01*
X155593317Y-104888830D01*
X155593318Y-104888831D01*
X155593320Y-104888834D01*
X155668166Y-104963680D01*
X155759834Y-105016605D01*
X155862076Y-105044000D01*
X155862077Y-105044000D01*
X155967923Y-105044000D01*
X155967924Y-105044000D01*
X156070166Y-105016605D01*
X156161834Y-104963680D01*
X156236680Y-104888834D01*
X156289605Y-104797166D01*
X156317000Y-104694924D01*
X156317000Y-104589076D01*
X156289605Y-104486834D01*
X156236680Y-104395166D01*
X156161834Y-104320320D01*
X156161831Y-104320318D01*
X156161830Y-104320317D01*
X156070170Y-104267397D01*
X156070166Y-104267395D01*
X155967924Y-104240000D01*
X155862076Y-104240000D01*
X155810955Y-104253697D01*
X155759833Y-104267395D01*
X155759829Y-104267397D01*
X155668169Y-104320317D01*
X155593317Y-104395169D01*
X155540397Y-104486829D01*
X155540395Y-104486833D01*
X155527489Y-104535000D01*
X155513000Y-104589076D01*
X143718000Y-104589076D01*
X143718000Y-103389076D01*
X151313000Y-103389076D01*
X151313000Y-103494924D01*
X151330867Y-103561605D01*
X151340395Y-103597166D01*
X151340397Y-103597170D01*
X151393317Y-103688830D01*
X151393318Y-103688831D01*
X151393320Y-103688834D01*
X151468166Y-103763680D01*
X151559834Y-103816605D01*
X151662076Y-103844000D01*
X151662077Y-103844000D01*
X151767923Y-103844000D01*
X151767924Y-103844000D01*
X151870166Y-103816605D01*
X151961834Y-103763680D01*
X152036680Y-103688834D01*
X152089605Y-103597166D01*
X152117000Y-103494924D01*
X152117000Y-103389076D01*
X154313000Y-103389076D01*
X154313000Y-103494924D01*
X154330867Y-103561605D01*
X154340395Y-103597166D01*
X154340397Y-103597170D01*
X154393317Y-103688830D01*
X154393318Y-103688831D01*
X154393320Y-103688834D01*
X154468166Y-103763680D01*
X154559834Y-103816605D01*
X154662076Y-103844000D01*
X154662077Y-103844000D01*
X154767923Y-103844000D01*
X154767924Y-103844000D01*
X154870166Y-103816605D01*
X154961834Y-103763680D01*
X155036680Y-103688834D01*
X155089605Y-103597166D01*
X155117000Y-103494924D01*
X155117000Y-103389076D01*
X155089605Y-103286834D01*
X155036680Y-103195166D01*
X154975590Y-103134076D01*
X161768000Y-103134076D01*
X161768000Y-103239924D01*
X161780568Y-103286829D01*
X161795395Y-103342166D01*
X161795397Y-103342170D01*
X161848317Y-103433830D01*
X161848318Y-103433831D01*
X161848320Y-103433834D01*
X161923166Y-103508680D01*
X162014834Y-103561605D01*
X162117076Y-103589000D01*
X162117077Y-103589000D01*
X162222923Y-103589000D01*
X162222924Y-103589000D01*
X162325166Y-103561605D01*
X162416834Y-103508680D01*
X162491680Y-103433834D01*
X162544605Y-103342166D01*
X162572000Y-103239924D01*
X162572000Y-103134076D01*
X162544605Y-103031834D01*
X162491680Y-102940166D01*
X162416834Y-102865320D01*
X162416831Y-102865318D01*
X162416830Y-102865317D01*
X162325170Y-102812397D01*
X162325166Y-102812395D01*
X162222924Y-102785000D01*
X162117076Y-102785000D01*
X162065955Y-102798697D01*
X162014833Y-102812395D01*
X162014829Y-102812397D01*
X161923169Y-102865317D01*
X161848317Y-102940169D01*
X161795397Y-103031829D01*
X161795395Y-103031833D01*
X161795395Y-103031834D01*
X161768000Y-103134076D01*
X154975590Y-103134076D01*
X154961834Y-103120320D01*
X154961831Y-103120318D01*
X154961830Y-103120317D01*
X154870170Y-103067397D01*
X154870166Y-103067395D01*
X154767924Y-103040000D01*
X154662076Y-103040000D01*
X154610955Y-103053697D01*
X154559833Y-103067395D01*
X154559829Y-103067397D01*
X154468169Y-103120317D01*
X154393317Y-103195169D01*
X154340397Y-103286829D01*
X154340395Y-103286833D01*
X154340395Y-103286834D01*
X154313000Y-103389076D01*
X152117000Y-103389076D01*
X152089605Y-103286834D01*
X152036680Y-103195166D01*
X151961834Y-103120320D01*
X151961831Y-103120318D01*
X151961830Y-103120317D01*
X151870170Y-103067397D01*
X151870166Y-103067395D01*
X151767924Y-103040000D01*
X151662076Y-103040000D01*
X151610955Y-103053697D01*
X151559833Y-103067395D01*
X151559829Y-103067397D01*
X151468169Y-103120317D01*
X151393317Y-103195169D01*
X151340397Y-103286829D01*
X151340395Y-103286833D01*
X151340395Y-103286834D01*
X151313000Y-103389076D01*
X143718000Y-103389076D01*
X143718000Y-102190173D01*
X143739674Y-102137847D01*
X143792000Y-102116173D01*
X143811151Y-102118694D01*
X143857076Y-102131000D01*
X143962923Y-102131000D01*
X143962924Y-102131000D01*
X144065166Y-102103605D01*
X144156834Y-102050680D01*
X144228438Y-101979076D01*
X150311000Y-101979076D01*
X150311000Y-102084924D01*
X150326783Y-102143828D01*
X150338395Y-102187166D01*
X150338397Y-102187170D01*
X150391317Y-102278830D01*
X150391318Y-102278831D01*
X150391320Y-102278834D01*
X150466166Y-102353680D01*
X150557834Y-102406605D01*
X150660076Y-102434000D01*
X150660077Y-102434000D01*
X150765923Y-102434000D01*
X150765924Y-102434000D01*
X150868166Y-102406605D01*
X150959834Y-102353680D01*
X151034680Y-102278834D01*
X151048147Y-102255507D01*
X151053592Y-102246076D01*
X163344000Y-102246076D01*
X163344000Y-102351924D01*
X163365992Y-102434000D01*
X163371395Y-102454166D01*
X163371397Y-102454170D01*
X163424317Y-102545830D01*
X163424318Y-102545831D01*
X163424320Y-102545834D01*
X163499166Y-102620680D01*
X163590834Y-102673605D01*
X163693076Y-102701000D01*
X163693077Y-102701000D01*
X163798923Y-102701000D01*
X163798924Y-102701000D01*
X163901166Y-102673605D01*
X163992834Y-102620680D01*
X164067680Y-102545834D01*
X164120605Y-102454166D01*
X164148000Y-102351924D01*
X164148000Y-102246076D01*
X164120605Y-102143834D01*
X164117148Y-102137847D01*
X164067682Y-102052169D01*
X164067681Y-102052168D01*
X164067680Y-102052166D01*
X163992834Y-101977320D01*
X163992831Y-101977318D01*
X163992830Y-101977317D01*
X163901170Y-101924397D01*
X163901166Y-101924395D01*
X163798924Y-101897000D01*
X163693076Y-101897000D01*
X163641955Y-101910697D01*
X163590833Y-101924395D01*
X163590829Y-101924397D01*
X163499169Y-101977317D01*
X163424317Y-102052169D01*
X163371398Y-102143828D01*
X163371395Y-102143833D01*
X163359783Y-102187170D01*
X163344000Y-102246076D01*
X151053592Y-102246076D01*
X151077756Y-102204226D01*
X151077757Y-102204225D01*
X151087601Y-102187174D01*
X151087602Y-102187170D01*
X151087605Y-102187166D01*
X151115000Y-102084924D01*
X151115000Y-101979076D01*
X151087605Y-101876834D01*
X151034680Y-101785166D01*
X150959834Y-101710320D01*
X150959831Y-101710318D01*
X150959829Y-101710316D01*
X150951162Y-101705312D01*
X150951161Y-101705312D01*
X150868170Y-101657397D01*
X150868166Y-101657395D01*
X150825922Y-101646076D01*
X161244000Y-101646076D01*
X161244000Y-101751924D01*
X161252907Y-101785166D01*
X161271395Y-101854166D01*
X161271397Y-101854170D01*
X161324317Y-101945830D01*
X161324318Y-101945831D01*
X161324320Y-101945834D01*
X161399166Y-102020680D01*
X161399168Y-102020681D01*
X161399169Y-102020682D01*
X161453701Y-102052166D01*
X161490834Y-102073605D01*
X161593076Y-102101000D01*
X161593077Y-102101000D01*
X161698923Y-102101000D01*
X161698924Y-102101000D01*
X161801166Y-102073605D01*
X161892834Y-102020680D01*
X161967680Y-101945834D01*
X162020605Y-101854166D01*
X162048000Y-101751924D01*
X162048000Y-101646076D01*
X162020605Y-101543834D01*
X162004882Y-101516601D01*
X161967682Y-101452169D01*
X161967681Y-101452168D01*
X161967680Y-101452166D01*
X161892834Y-101377320D01*
X161892831Y-101377318D01*
X161892830Y-101377317D01*
X161801170Y-101324397D01*
X161801166Y-101324395D01*
X161698924Y-101297000D01*
X161593076Y-101297000D01*
X161541955Y-101310697D01*
X161490833Y-101324395D01*
X161490829Y-101324397D01*
X161399169Y-101377317D01*
X161324317Y-101452169D01*
X161271397Y-101543829D01*
X161271395Y-101543833D01*
X161271395Y-101543834D01*
X161244000Y-101646076D01*
X150825922Y-101646076D01*
X150765924Y-101630000D01*
X150660076Y-101630000D01*
X150608955Y-101643697D01*
X150557833Y-101657395D01*
X150557829Y-101657397D01*
X150466169Y-101710317D01*
X150391317Y-101785169D01*
X150338397Y-101876829D01*
X150338395Y-101876833D01*
X150338395Y-101876834D01*
X150311000Y-101979076D01*
X144228438Y-101979076D01*
X144231680Y-101975834D01*
X144261378Y-101924397D01*
X144277195Y-101897000D01*
X144284605Y-101884166D01*
X144312000Y-101781924D01*
X144312000Y-101676076D01*
X144284605Y-101573834D01*
X144231680Y-101482166D01*
X144156834Y-101407320D01*
X144156831Y-101407318D01*
X144156830Y-101407317D01*
X144065170Y-101354397D01*
X144065166Y-101354395D01*
X143962924Y-101327000D01*
X143857076Y-101327000D01*
X143811152Y-101339305D01*
X143754999Y-101331911D01*
X143720521Y-101286978D01*
X143718000Y-101267826D01*
X143718000Y-100776076D01*
X150818000Y-100776076D01*
X150818000Y-100881924D01*
X150818869Y-100885166D01*
X150845395Y-100984166D01*
X150845397Y-100984170D01*
X150898317Y-101075830D01*
X150898318Y-101075831D01*
X150898320Y-101075834D01*
X150973166Y-101150680D01*
X151064834Y-101203605D01*
X151167076Y-101231000D01*
X151167077Y-101231000D01*
X151272923Y-101231000D01*
X151272924Y-101231000D01*
X151375166Y-101203605D01*
X151466834Y-101150680D01*
X151541680Y-101075834D01*
X151594605Y-100984166D01*
X151622000Y-100881924D01*
X151622000Y-100776076D01*
X151595474Y-100677076D01*
X154293000Y-100677076D01*
X154293000Y-100782924D01*
X154319526Y-100881922D01*
X154320395Y-100885166D01*
X154320397Y-100885170D01*
X154373317Y-100976830D01*
X154373318Y-100976831D01*
X154373320Y-100976834D01*
X154448166Y-101051680D01*
X154448168Y-101051681D01*
X154448169Y-101051682D01*
X154512601Y-101088882D01*
X154539834Y-101104605D01*
X154642076Y-101132000D01*
X154642077Y-101132000D01*
X154747923Y-101132000D01*
X154747924Y-101132000D01*
X154850166Y-101104605D01*
X154941834Y-101051680D01*
X155016680Y-100976834D01*
X155069605Y-100885166D01*
X155097000Y-100782924D01*
X155097000Y-100677076D01*
X155069605Y-100574834D01*
X155053882Y-100547601D01*
X155016682Y-100483169D01*
X155016681Y-100483168D01*
X155016680Y-100483166D01*
X154941834Y-100408320D01*
X154941831Y-100408318D01*
X154941830Y-100408317D01*
X154850170Y-100355397D01*
X154850166Y-100355395D01*
X154747924Y-100328000D01*
X154642076Y-100328000D01*
X154638308Y-100329009D01*
X154638291Y-100329014D01*
X154539834Y-100355395D01*
X154526718Y-100362967D01*
X154526710Y-100362970D01*
X154448170Y-100408316D01*
X154373317Y-100483169D01*
X154320397Y-100574829D01*
X154320395Y-100574833D01*
X154306697Y-100625955D01*
X154293000Y-100677076D01*
X151595474Y-100677076D01*
X151594605Y-100673834D01*
X151541680Y-100582166D01*
X151466834Y-100507320D01*
X151466831Y-100507318D01*
X151466830Y-100507317D01*
X151375170Y-100454397D01*
X151375166Y-100454395D01*
X151272924Y-100427000D01*
X151167076Y-100427000D01*
X151115955Y-100440697D01*
X151064833Y-100454395D01*
X151064829Y-100454397D01*
X150973169Y-100507317D01*
X150898317Y-100582169D01*
X150845397Y-100673829D01*
X150845395Y-100673833D01*
X150845395Y-100673834D01*
X150818000Y-100776076D01*
X143718000Y-100776076D01*
X143718000Y-99579076D01*
X150911000Y-99579076D01*
X150911000Y-99684924D01*
X150929553Y-99754166D01*
X150938395Y-99787166D01*
X150938397Y-99787170D01*
X150991317Y-99878830D01*
X150991318Y-99878831D01*
X150991320Y-99878834D01*
X151066166Y-99953680D01*
X151066168Y-99953681D01*
X151066169Y-99953682D01*
X151130601Y-99990882D01*
X151157834Y-100006605D01*
X151260076Y-100034000D01*
X151260077Y-100034000D01*
X151365923Y-100034000D01*
X151365924Y-100034000D01*
X151468166Y-100006605D01*
X151559834Y-99953680D01*
X151634680Y-99878834D01*
X151687605Y-99787166D01*
X151715000Y-99684924D01*
X151715000Y-99579076D01*
X151693431Y-99498576D01*
X153218000Y-99498576D01*
X153218000Y-99604424D01*
X153245395Y-99706666D01*
X153245397Y-99706670D01*
X153298317Y-99798330D01*
X153298318Y-99798331D01*
X153298320Y-99798334D01*
X153373166Y-99873180D01*
X153373168Y-99873181D01*
X153373169Y-99873182D01*
X153381925Y-99878237D01*
X153464834Y-99926105D01*
X153567076Y-99953500D01*
X153567077Y-99953500D01*
X153672923Y-99953500D01*
X153672924Y-99953500D01*
X153775166Y-99926105D01*
X153866834Y-99873180D01*
X153894951Y-99845062D01*
X153947274Y-99823389D01*
X153999600Y-99845062D01*
X154018754Y-99878237D01*
X154045395Y-99977666D01*
X154045397Y-99977670D01*
X154098317Y-100069330D01*
X154098318Y-100069331D01*
X154098320Y-100069334D01*
X154173166Y-100144180D01*
X154264834Y-100197105D01*
X154367076Y-100224500D01*
X154367077Y-100224500D01*
X154472920Y-100224500D01*
X154472924Y-100224500D01*
X154575166Y-100197105D01*
X154666834Y-100144180D01*
X154741680Y-100069334D01*
X154794605Y-99977666D01*
X154822000Y-99875424D01*
X154822000Y-99769576D01*
X154794605Y-99667334D01*
X154741680Y-99575666D01*
X154712090Y-99546076D01*
X160644000Y-99546076D01*
X160644000Y-99651924D01*
X160648128Y-99667330D01*
X160671395Y-99754166D01*
X160671397Y-99754170D01*
X160724317Y-99845830D01*
X160724318Y-99845831D01*
X160724320Y-99845834D01*
X160799166Y-99920680D01*
X160799168Y-99920681D01*
X160799169Y-99920682D01*
X160808562Y-99926105D01*
X160890834Y-99973605D01*
X160993076Y-100001000D01*
X160993077Y-100001000D01*
X161098923Y-100001000D01*
X161098924Y-100001000D01*
X161201166Y-99973605D01*
X161292834Y-99920680D01*
X161367680Y-99845834D01*
X161420605Y-99754166D01*
X161448000Y-99651924D01*
X161448000Y-99546076D01*
X161420605Y-99443834D01*
X161393180Y-99396333D01*
X161367682Y-99352169D01*
X161367681Y-99352168D01*
X161367680Y-99352166D01*
X161292834Y-99277320D01*
X161292831Y-99277318D01*
X161292830Y-99277317D01*
X161201170Y-99224397D01*
X161201166Y-99224395D01*
X161098924Y-99197000D01*
X160993076Y-99197000D01*
X160952657Y-99207830D01*
X160890833Y-99224395D01*
X160890829Y-99224397D01*
X160799169Y-99277317D01*
X160724317Y-99352169D01*
X160671397Y-99443829D01*
X160671395Y-99443833D01*
X160671395Y-99443834D01*
X160644000Y-99546076D01*
X154712090Y-99546076D01*
X154666834Y-99500820D01*
X154666831Y-99500818D01*
X154666830Y-99500817D01*
X154575170Y-99447897D01*
X154575166Y-99447895D01*
X154522688Y-99433834D01*
X154472924Y-99420500D01*
X154367076Y-99420500D01*
X154317312Y-99433834D01*
X154264833Y-99447895D01*
X154264829Y-99447897D01*
X154173169Y-99500817D01*
X154145049Y-99528937D01*
X154092723Y-99550610D01*
X154040397Y-99528935D01*
X154021246Y-99495765D01*
X153994605Y-99396334D01*
X153959541Y-99335602D01*
X153941682Y-99304669D01*
X153941681Y-99304668D01*
X153941680Y-99304666D01*
X153866834Y-99229820D01*
X153866831Y-99229818D01*
X153866830Y-99229817D01*
X153775170Y-99176897D01*
X153775166Y-99176895D01*
X153672924Y-99149500D01*
X153567076Y-99149500D01*
X153515955Y-99163197D01*
X153464833Y-99176895D01*
X153464829Y-99176897D01*
X153373169Y-99229817D01*
X153298317Y-99304669D01*
X153245397Y-99396329D01*
X153245395Y-99396333D01*
X153245395Y-99396334D01*
X153218000Y-99498576D01*
X151693431Y-99498576D01*
X151687605Y-99476834D01*
X151641128Y-99396334D01*
X151634682Y-99385169D01*
X151634681Y-99385168D01*
X151634680Y-99385166D01*
X151559834Y-99310320D01*
X151559831Y-99310318D01*
X151559830Y-99310317D01*
X151468170Y-99257397D01*
X151468166Y-99257395D01*
X151365924Y-99230000D01*
X151260076Y-99230000D01*
X151208955Y-99243697D01*
X151157833Y-99257395D01*
X151157829Y-99257397D01*
X151066169Y-99310317D01*
X150991317Y-99385169D01*
X150938397Y-99476829D01*
X150938395Y-99476833D01*
X150938395Y-99476834D01*
X150911000Y-99579076D01*
X143718000Y-99579076D01*
X143718000Y-99190173D01*
X143739674Y-99137847D01*
X143792000Y-99116173D01*
X143811151Y-99118694D01*
X143857076Y-99131000D01*
X143962923Y-99131000D01*
X143962924Y-99131000D01*
X144065166Y-99103605D01*
X144156834Y-99050680D01*
X144231680Y-98975834D01*
X144270800Y-98908076D01*
X165784000Y-98908076D01*
X165784000Y-99013924D01*
X165793849Y-99050680D01*
X165811395Y-99116166D01*
X165811397Y-99116170D01*
X165864317Y-99207830D01*
X165864318Y-99207831D01*
X165864320Y-99207834D01*
X165939166Y-99282680D01*
X165939168Y-99282681D01*
X165939169Y-99282682D01*
X165977252Y-99304669D01*
X166030834Y-99335605D01*
X166133076Y-99363000D01*
X166133077Y-99363000D01*
X166238923Y-99363000D01*
X166238924Y-99363000D01*
X166341166Y-99335605D01*
X166432834Y-99282680D01*
X166507680Y-99207834D01*
X166560605Y-99116166D01*
X166588000Y-99013924D01*
X166588000Y-98908076D01*
X166560605Y-98805834D01*
X166546800Y-98781924D01*
X166507682Y-98714169D01*
X166507681Y-98714168D01*
X166507680Y-98714166D01*
X166432834Y-98639320D01*
X166432831Y-98639318D01*
X166432830Y-98639317D01*
X166341170Y-98586397D01*
X166341166Y-98586395D01*
X166238924Y-98559000D01*
X166133076Y-98559000D01*
X166081955Y-98572697D01*
X166030833Y-98586395D01*
X166030829Y-98586397D01*
X165939169Y-98639317D01*
X165864317Y-98714169D01*
X165811398Y-98805828D01*
X165811395Y-98805833D01*
X165811395Y-98805834D01*
X165784000Y-98908076D01*
X144270800Y-98908076D01*
X144284605Y-98884166D01*
X144312000Y-98781924D01*
X144312000Y-98676076D01*
X144284605Y-98573834D01*
X144268882Y-98546601D01*
X144231682Y-98482169D01*
X144231681Y-98482168D01*
X144231680Y-98482166D01*
X144156834Y-98407320D01*
X144156831Y-98407318D01*
X144156830Y-98407317D01*
X144087539Y-98367312D01*
X144065170Y-98354397D01*
X144065166Y-98354395D01*
X143962924Y-98327000D01*
X143857076Y-98327000D01*
X143811152Y-98339305D01*
X143754999Y-98331911D01*
X143736710Y-98308076D01*
X161184000Y-98308076D01*
X161184000Y-98413924D01*
X161202285Y-98482166D01*
X161211395Y-98516166D01*
X161211397Y-98516170D01*
X161264317Y-98607830D01*
X161264318Y-98607831D01*
X161264320Y-98607834D01*
X161339166Y-98682680D01*
X161430834Y-98735605D01*
X161533076Y-98763000D01*
X161533077Y-98763000D01*
X161638923Y-98763000D01*
X161638924Y-98763000D01*
X161741166Y-98735605D01*
X161832834Y-98682680D01*
X161907680Y-98607834D01*
X161960605Y-98516166D01*
X161988000Y-98413924D01*
X161988000Y-98308076D01*
X161960605Y-98205834D01*
X161920057Y-98135604D01*
X161907682Y-98114169D01*
X161907681Y-98114168D01*
X161907680Y-98114166D01*
X161832834Y-98039320D01*
X161832831Y-98039318D01*
X161832830Y-98039317D01*
X161741170Y-97986397D01*
X161741166Y-97986395D01*
X161638924Y-97959000D01*
X161533076Y-97959000D01*
X161481955Y-97972697D01*
X161430833Y-97986395D01*
X161430829Y-97986397D01*
X161339169Y-98039317D01*
X161264317Y-98114169D01*
X161211398Y-98205828D01*
X161211395Y-98205833D01*
X161211395Y-98205834D01*
X161184000Y-98308076D01*
X143736710Y-98308076D01*
X143720521Y-98286978D01*
X143718000Y-98267826D01*
X143718000Y-97708076D01*
X165684000Y-97708076D01*
X165684000Y-97813924D01*
X165711395Y-97916166D01*
X165711397Y-97916170D01*
X165764317Y-98007830D01*
X165764318Y-98007831D01*
X165764320Y-98007834D01*
X165839166Y-98082680D01*
X165930834Y-98135605D01*
X166033076Y-98163000D01*
X166033077Y-98163000D01*
X166138923Y-98163000D01*
X166138924Y-98163000D01*
X166241166Y-98135605D01*
X166332834Y-98082680D01*
X166407680Y-98007834D01*
X166460605Y-97916166D01*
X166488000Y-97813924D01*
X166488000Y-97708076D01*
X166460605Y-97605834D01*
X166459318Y-97603605D01*
X166407682Y-97514169D01*
X166407681Y-97514168D01*
X166407680Y-97514166D01*
X166332834Y-97439320D01*
X166332831Y-97439318D01*
X166332830Y-97439317D01*
X166241170Y-97386397D01*
X166241166Y-97386395D01*
X166230753Y-97383605D01*
X166138924Y-97359000D01*
X166033076Y-97359000D01*
X165981955Y-97372697D01*
X165930833Y-97386395D01*
X165930829Y-97386397D01*
X165839169Y-97439317D01*
X165764317Y-97514169D01*
X165711398Y-97605828D01*
X165711395Y-97605833D01*
X165711395Y-97605834D01*
X165684000Y-97708076D01*
X143718000Y-97708076D01*
X143718000Y-97108076D01*
X150786000Y-97108076D01*
X150786000Y-97213924D01*
X150797678Y-97257508D01*
X150813395Y-97316166D01*
X150813397Y-97316170D01*
X150866317Y-97407830D01*
X150866318Y-97407831D01*
X150866320Y-97407834D01*
X150941166Y-97482680D01*
X151032834Y-97535605D01*
X151135076Y-97563000D01*
X151135077Y-97563000D01*
X151240923Y-97563000D01*
X151240924Y-97563000D01*
X151343166Y-97535605D01*
X151434834Y-97482680D01*
X151509680Y-97407834D01*
X151562605Y-97316166D01*
X151573540Y-97275354D01*
X151608018Y-97230422D01*
X151664170Y-97223029D01*
X151709104Y-97257508D01*
X151715880Y-97277470D01*
X151716745Y-97277239D01*
X151718000Y-97281922D01*
X151718000Y-97281924D01*
X151733808Y-97340922D01*
X151745395Y-97384166D01*
X151745397Y-97384170D01*
X151798317Y-97475830D01*
X151798318Y-97475831D01*
X151798320Y-97475834D01*
X151873166Y-97550680D01*
X151873168Y-97550681D01*
X151873169Y-97550682D01*
X151937601Y-97587882D01*
X151964834Y-97603605D01*
X152067076Y-97631000D01*
X152067077Y-97631000D01*
X152172923Y-97631000D01*
X152172924Y-97631000D01*
X152275166Y-97603605D01*
X152366834Y-97550680D01*
X152441680Y-97475834D01*
X152494605Y-97384166D01*
X152522000Y-97281924D01*
X152522000Y-97235076D01*
X152718000Y-97235076D01*
X152718000Y-97340924D01*
X152745395Y-97443166D01*
X152745397Y-97443170D01*
X152798317Y-97534830D01*
X152798318Y-97534831D01*
X152798320Y-97534834D01*
X152873166Y-97609680D01*
X152964834Y-97662605D01*
X153067076Y-97690000D01*
X153067077Y-97690000D01*
X153172923Y-97690000D01*
X153172924Y-97690000D01*
X153275166Y-97662605D01*
X153299797Y-97648383D01*
X153315809Y-97639140D01*
X153346013Y-97621700D01*
X153366834Y-97609680D01*
X153441680Y-97534834D01*
X153494605Y-97443166D01*
X153522000Y-97340924D01*
X153522000Y-97235076D01*
X153494605Y-97132834D01*
X153460541Y-97073834D01*
X153441682Y-97041169D01*
X153441681Y-97041168D01*
X153441680Y-97041166D01*
X153366834Y-96966320D01*
X153366831Y-96966318D01*
X153366830Y-96966317D01*
X153349092Y-96956076D01*
X158889000Y-96956076D01*
X158889000Y-97061924D01*
X158908000Y-97132833D01*
X158916395Y-97164166D01*
X158916397Y-97164170D01*
X158969317Y-97255830D01*
X158969318Y-97255831D01*
X158969320Y-97255834D01*
X159044166Y-97330680D01*
X159044168Y-97330681D01*
X159044169Y-97330682D01*
X159061909Y-97340924D01*
X159135834Y-97383605D01*
X159238076Y-97411000D01*
X159238077Y-97411000D01*
X159343923Y-97411000D01*
X159343924Y-97411000D01*
X159446166Y-97383605D01*
X159537834Y-97330680D01*
X159612680Y-97255834D01*
X159665605Y-97164166D01*
X159680634Y-97108076D01*
X163084000Y-97108076D01*
X163084000Y-97213924D01*
X163095678Y-97257508D01*
X163111395Y-97316166D01*
X163111397Y-97316170D01*
X163164317Y-97407830D01*
X163164318Y-97407831D01*
X163164320Y-97407834D01*
X163239166Y-97482680D01*
X163330834Y-97535605D01*
X163433076Y-97563000D01*
X163433077Y-97563000D01*
X163538923Y-97563000D01*
X163538924Y-97563000D01*
X163641166Y-97535605D01*
X163732834Y-97482680D01*
X163807680Y-97407834D01*
X163860605Y-97316166D01*
X163888000Y-97213924D01*
X163888000Y-97108076D01*
X163860605Y-97005834D01*
X163846940Y-96982166D01*
X163807682Y-96914169D01*
X163807681Y-96914168D01*
X163807680Y-96914166D01*
X163732834Y-96839320D01*
X163732831Y-96839318D01*
X163732830Y-96839317D01*
X163641170Y-96786397D01*
X163641166Y-96786395D01*
X163538924Y-96759000D01*
X163433076Y-96759000D01*
X163381955Y-96772697D01*
X163330833Y-96786395D01*
X163330829Y-96786397D01*
X163239169Y-96839317D01*
X163164317Y-96914169D01*
X163111398Y-97005828D01*
X163111395Y-97005833D01*
X163111395Y-97005834D01*
X163084000Y-97108076D01*
X159680634Y-97108076D01*
X159693000Y-97061924D01*
X159693000Y-96956076D01*
X159665605Y-96853834D01*
X159612680Y-96762166D01*
X159537834Y-96687320D01*
X159537831Y-96687318D01*
X159537830Y-96687317D01*
X159446170Y-96634397D01*
X159446166Y-96634395D01*
X159369765Y-96613924D01*
X159343924Y-96607000D01*
X159238076Y-96607000D01*
X159212235Y-96613924D01*
X159135833Y-96634395D01*
X159135829Y-96634397D01*
X159044169Y-96687317D01*
X158969317Y-96762169D01*
X158916397Y-96853829D01*
X158916395Y-96853833D01*
X158916244Y-96854397D01*
X158889000Y-96956076D01*
X153349092Y-96956076D01*
X153275170Y-96913397D01*
X153275166Y-96913395D01*
X153252482Y-96907317D01*
X153172924Y-96886000D01*
X153067076Y-96886000D01*
X153015955Y-96899697D01*
X152964833Y-96913395D01*
X152964829Y-96913397D01*
X152873169Y-96966317D01*
X152798317Y-97041169D01*
X152745397Y-97132829D01*
X152745395Y-97132833D01*
X152745395Y-97132834D01*
X152718000Y-97235076D01*
X152522000Y-97235076D01*
X152522000Y-97176076D01*
X152494605Y-97073834D01*
X152455344Y-97005833D01*
X152441682Y-96982169D01*
X152441681Y-96982168D01*
X152441680Y-96982166D01*
X152366834Y-96907320D01*
X152366831Y-96907318D01*
X152366830Y-96907317D01*
X152275170Y-96854397D01*
X152275166Y-96854395D01*
X152273054Y-96853829D01*
X152172924Y-96827000D01*
X152067076Y-96827000D01*
X152021107Y-96839317D01*
X151964833Y-96854395D01*
X151964829Y-96854397D01*
X151873169Y-96907317D01*
X151798317Y-96982169D01*
X151745397Y-97073829D01*
X151745394Y-97073837D01*
X151734459Y-97114645D01*
X151699980Y-97159578D01*
X151643827Y-97166969D01*
X151598894Y-97132490D01*
X151592122Y-97112528D01*
X151591255Y-97112761D01*
X151583570Y-97084079D01*
X151562605Y-97005834D01*
X151548940Y-96982166D01*
X151509682Y-96914169D01*
X151509681Y-96914168D01*
X151509680Y-96914166D01*
X151434834Y-96839320D01*
X151434831Y-96839318D01*
X151434830Y-96839317D01*
X151343170Y-96786397D01*
X151343166Y-96786395D01*
X151240924Y-96759000D01*
X151135076Y-96759000D01*
X151083955Y-96772697D01*
X151032833Y-96786395D01*
X151032829Y-96786397D01*
X150941169Y-96839317D01*
X150866317Y-96914169D01*
X150813398Y-97005828D01*
X150813395Y-97005833D01*
X150813395Y-97005834D01*
X150786000Y-97108076D01*
X143718000Y-97108076D01*
X143718000Y-96208076D01*
X148384000Y-96208076D01*
X148384000Y-96313924D01*
X148396775Y-96361602D01*
X148411395Y-96416166D01*
X148411397Y-96416170D01*
X148464317Y-96507830D01*
X148464318Y-96507831D01*
X148464320Y-96507834D01*
X148539166Y-96582680D01*
X148630834Y-96635605D01*
X148733076Y-96663000D01*
X148733077Y-96663000D01*
X148838923Y-96663000D01*
X148838924Y-96663000D01*
X148941166Y-96635605D01*
X149032834Y-96582680D01*
X149107680Y-96507834D01*
X149160605Y-96416166D01*
X149188000Y-96313924D01*
X149188000Y-96208076D01*
X149160605Y-96105834D01*
X149122552Y-96039924D01*
X149107682Y-96014169D01*
X149107681Y-96014168D01*
X149107680Y-96014166D01*
X149032834Y-95939320D01*
X149032831Y-95939318D01*
X149032830Y-95939317D01*
X148978719Y-95908076D01*
X150984000Y-95908076D01*
X150984000Y-96013924D01*
X151001993Y-96081076D01*
X151011395Y-96116166D01*
X151011397Y-96116170D01*
X151064317Y-96207830D01*
X151064318Y-96207831D01*
X151064320Y-96207834D01*
X151139166Y-96282680D01*
X151230834Y-96335605D01*
X151333076Y-96363000D01*
X151333077Y-96363000D01*
X151438923Y-96363000D01*
X151438924Y-96363000D01*
X151541166Y-96335605D01*
X151632834Y-96282680D01*
X151707680Y-96207834D01*
X151760605Y-96116166D01*
X151788000Y-96013924D01*
X151788000Y-95908076D01*
X151760605Y-95805834D01*
X151750439Y-95788226D01*
X151731877Y-95756076D01*
X152286000Y-95756076D01*
X152286000Y-95861924D01*
X152305333Y-95934076D01*
X152313395Y-95964166D01*
X152313397Y-95964170D01*
X152366317Y-96055830D01*
X152366318Y-96055831D01*
X152366320Y-96055834D01*
X152441166Y-96130680D01*
X152532834Y-96183605D01*
X152635076Y-96211000D01*
X152635077Y-96211000D01*
X152740923Y-96211000D01*
X152740924Y-96211000D01*
X152843166Y-96183605D01*
X152934834Y-96130680D01*
X152984438Y-96081076D01*
X153868000Y-96081076D01*
X153868000Y-96186924D01*
X153882039Y-96239320D01*
X153895395Y-96289166D01*
X153895397Y-96289170D01*
X153948317Y-96380830D01*
X153948318Y-96380831D01*
X153948320Y-96380834D01*
X154023166Y-96455680D01*
X154114834Y-96508605D01*
X154217076Y-96536000D01*
X154217077Y-96536000D01*
X154322923Y-96536000D01*
X154322924Y-96536000D01*
X154425166Y-96508605D01*
X154426082Y-96508076D01*
X166384000Y-96508076D01*
X166384000Y-96613924D01*
X166397150Y-96663000D01*
X166411395Y-96716166D01*
X166411397Y-96716170D01*
X166464317Y-96807830D01*
X166464318Y-96807831D01*
X166464320Y-96807834D01*
X166539166Y-96882680D01*
X166630834Y-96935605D01*
X166733076Y-96963000D01*
X166733077Y-96963000D01*
X166838923Y-96963000D01*
X166838924Y-96963000D01*
X166941166Y-96935605D01*
X167032834Y-96882680D01*
X167107680Y-96807834D01*
X167160605Y-96716166D01*
X167188000Y-96613924D01*
X167188000Y-96508076D01*
X167160605Y-96405834D01*
X167146171Y-96380834D01*
X167107682Y-96314169D01*
X167107681Y-96314168D01*
X167107680Y-96314166D01*
X167032834Y-96239320D01*
X167032831Y-96239318D01*
X167032830Y-96239317D01*
X166941170Y-96186397D01*
X166941166Y-96186395D01*
X166930753Y-96183605D01*
X166838924Y-96159000D01*
X166733076Y-96159000D01*
X166681955Y-96172697D01*
X166630833Y-96186395D01*
X166630829Y-96186397D01*
X166539169Y-96239317D01*
X166464317Y-96314169D01*
X166411398Y-96405828D01*
X166411395Y-96405833D01*
X166399320Y-96450900D01*
X166384000Y-96508076D01*
X154426082Y-96508076D01*
X154516834Y-96455680D01*
X154591680Y-96380834D01*
X154644605Y-96289166D01*
X154672000Y-96186924D01*
X154672000Y-96081076D01*
X154644605Y-95978834D01*
X154636136Y-95964166D01*
X154618764Y-95934076D01*
X157868000Y-95934076D01*
X157868000Y-96039924D01*
X157888430Y-96116170D01*
X157895395Y-96142166D01*
X157895397Y-96142170D01*
X157948317Y-96233830D01*
X157948318Y-96233831D01*
X157948320Y-96233834D01*
X158023166Y-96308680D01*
X158023168Y-96308681D01*
X158023169Y-96308682D01*
X158032668Y-96314166D01*
X158114834Y-96361605D01*
X158217076Y-96389000D01*
X158217077Y-96389000D01*
X158322923Y-96389000D01*
X158322924Y-96389000D01*
X158425166Y-96361605D01*
X158516834Y-96308680D01*
X158591680Y-96233834D01*
X158644605Y-96142166D01*
X158672000Y-96039924D01*
X158672000Y-95934076D01*
X158648421Y-95846076D01*
X165244000Y-95846076D01*
X165244000Y-95951924D01*
X165260678Y-96014169D01*
X165271395Y-96054166D01*
X165271397Y-96054170D01*
X165324317Y-96145830D01*
X165324318Y-96145831D01*
X165324320Y-96145834D01*
X165399166Y-96220680D01*
X165490834Y-96273605D01*
X165593076Y-96301000D01*
X165593077Y-96301000D01*
X165698923Y-96301000D01*
X165698924Y-96301000D01*
X165801166Y-96273605D01*
X165892834Y-96220680D01*
X165967680Y-96145834D01*
X166020605Y-96054166D01*
X166048000Y-95951924D01*
X166048000Y-95846076D01*
X166020605Y-95743834D01*
X165968643Y-95653834D01*
X165967682Y-95652169D01*
X165967681Y-95652168D01*
X165967680Y-95652166D01*
X165892834Y-95577320D01*
X165892831Y-95577318D01*
X165892830Y-95577317D01*
X165801170Y-95524397D01*
X165801166Y-95524395D01*
X165698924Y-95497000D01*
X165593076Y-95497000D01*
X165541955Y-95510697D01*
X165490833Y-95524395D01*
X165490829Y-95524397D01*
X165399169Y-95577317D01*
X165324317Y-95652169D01*
X165271397Y-95743829D01*
X165271395Y-95743833D01*
X165267225Y-95759397D01*
X165244000Y-95846076D01*
X158648421Y-95846076D01*
X158644605Y-95831834D01*
X158602782Y-95759395D01*
X158591682Y-95740169D01*
X158591681Y-95740168D01*
X158591680Y-95740166D01*
X158516834Y-95665320D01*
X158516831Y-95665318D01*
X158516830Y-95665317D01*
X158425170Y-95612397D01*
X158425166Y-95612395D01*
X158322924Y-95585000D01*
X158217076Y-95585000D01*
X158165955Y-95598697D01*
X158114833Y-95612395D01*
X158114829Y-95612397D01*
X158023169Y-95665317D01*
X157948317Y-95740169D01*
X157895397Y-95831829D01*
X157895395Y-95831833D01*
X157881697Y-95882955D01*
X157868000Y-95934076D01*
X154618764Y-95934076D01*
X154591682Y-95887169D01*
X154591681Y-95887168D01*
X154591680Y-95887166D01*
X154516834Y-95812320D01*
X154516831Y-95812318D01*
X154516830Y-95812317D01*
X154425170Y-95759397D01*
X154425166Y-95759395D01*
X154367071Y-95743829D01*
X154322924Y-95732000D01*
X154217076Y-95732000D01*
X154172929Y-95743829D01*
X154114833Y-95759395D01*
X154114829Y-95759397D01*
X154023169Y-95812317D01*
X153948317Y-95887169D01*
X153895397Y-95978829D01*
X153895395Y-95978833D01*
X153895395Y-95978834D01*
X153868000Y-96081076D01*
X152984438Y-96081076D01*
X153009680Y-96055834D01*
X153062605Y-95964166D01*
X153090000Y-95861924D01*
X153090000Y-95756076D01*
X153062605Y-95653834D01*
X153023669Y-95586395D01*
X153009682Y-95562169D01*
X153009681Y-95562168D01*
X153009680Y-95562166D01*
X152934834Y-95487320D01*
X152934831Y-95487318D01*
X152934830Y-95487317D01*
X152843170Y-95434397D01*
X152843166Y-95434395D01*
X152740924Y-95407000D01*
X152635076Y-95407000D01*
X152583955Y-95420697D01*
X152532833Y-95434395D01*
X152532829Y-95434397D01*
X152441169Y-95487317D01*
X152366317Y-95562169D01*
X152313397Y-95653829D01*
X152313395Y-95653833D01*
X152313395Y-95653834D01*
X152286000Y-95756076D01*
X151731877Y-95756076D01*
X151707682Y-95714169D01*
X151707681Y-95714168D01*
X151707680Y-95714166D01*
X151632834Y-95639320D01*
X151632831Y-95639318D01*
X151632830Y-95639317D01*
X151541170Y-95586397D01*
X151541166Y-95586395D01*
X151535960Y-95585000D01*
X151438924Y-95559000D01*
X151333076Y-95559000D01*
X151281955Y-95572697D01*
X151230833Y-95586395D01*
X151230829Y-95586397D01*
X151139169Y-95639317D01*
X151064317Y-95714169D01*
X151011397Y-95805829D01*
X151011395Y-95805833D01*
X151011395Y-95805834D01*
X150984000Y-95908076D01*
X148978719Y-95908076D01*
X148941170Y-95886397D01*
X148941166Y-95886395D01*
X148838924Y-95859000D01*
X148733076Y-95859000D01*
X148681955Y-95872697D01*
X148630833Y-95886395D01*
X148630829Y-95886397D01*
X148539169Y-95939317D01*
X148464317Y-96014169D01*
X148411397Y-96105829D01*
X148411395Y-96105833D01*
X148404738Y-96130680D01*
X148384000Y-96208076D01*
X143718000Y-96208076D01*
X143718000Y-94123076D01*
X147898000Y-94123076D01*
X147898000Y-94228924D01*
X147917000Y-94299833D01*
X147925395Y-94331166D01*
X147925397Y-94331170D01*
X147978317Y-94422830D01*
X147978318Y-94422831D01*
X147978320Y-94422834D01*
X148053166Y-94497680D01*
X148053168Y-94497681D01*
X148053169Y-94497682D01*
X148117601Y-94534882D01*
X148144834Y-94550605D01*
X148247076Y-94578000D01*
X148247077Y-94578000D01*
X148352923Y-94578000D01*
X148352924Y-94578000D01*
X148455166Y-94550605D01*
X148546834Y-94497680D01*
X148621680Y-94422834D01*
X148633665Y-94402076D01*
X151426000Y-94402076D01*
X151426000Y-94507924D01*
X151451965Y-94604829D01*
X151453395Y-94610166D01*
X151453397Y-94610170D01*
X151506317Y-94701830D01*
X151506318Y-94701831D01*
X151506320Y-94701834D01*
X151581166Y-94776680D01*
X151672834Y-94829605D01*
X151775076Y-94857000D01*
X151775077Y-94857000D01*
X151880923Y-94857000D01*
X151880924Y-94857000D01*
X151983166Y-94829605D01*
X152074834Y-94776680D01*
X152143438Y-94708076D01*
X164184000Y-94708076D01*
X164184000Y-94813924D01*
X164188202Y-94829605D01*
X164211395Y-94916166D01*
X164211397Y-94916170D01*
X164264317Y-95007830D01*
X164264318Y-95007831D01*
X164264320Y-95007834D01*
X164339166Y-95082680D01*
X164430834Y-95135605D01*
X164533076Y-95163000D01*
X164533077Y-95163000D01*
X164638923Y-95163000D01*
X164638924Y-95163000D01*
X164741166Y-95135605D01*
X164832834Y-95082680D01*
X164907680Y-95007834D01*
X164960605Y-94916166D01*
X164988000Y-94813924D01*
X164988000Y-94708076D01*
X164987732Y-94707076D01*
X166163000Y-94707076D01*
X166163000Y-94812924D01*
X166167470Y-94829605D01*
X166190395Y-94915166D01*
X166190397Y-94915170D01*
X166243317Y-95006830D01*
X166243318Y-95006831D01*
X166243320Y-95006834D01*
X166318166Y-95081680D01*
X166409834Y-95134605D01*
X166512076Y-95162000D01*
X166512077Y-95162000D01*
X166617923Y-95162000D01*
X166617924Y-95162000D01*
X166720166Y-95134605D01*
X166811834Y-95081680D01*
X166886680Y-95006834D01*
X166939605Y-94915166D01*
X166967000Y-94812924D01*
X166967000Y-94707076D01*
X166939605Y-94604834D01*
X166887259Y-94514169D01*
X166886682Y-94513169D01*
X166886681Y-94513168D01*
X166886680Y-94513166D01*
X166811834Y-94438320D01*
X166811831Y-94438318D01*
X166811830Y-94438317D01*
X166720170Y-94385397D01*
X166720166Y-94385395D01*
X166617924Y-94358000D01*
X166512076Y-94358000D01*
X166460955Y-94371697D01*
X166409833Y-94385395D01*
X166409829Y-94385397D01*
X166318169Y-94438317D01*
X166243317Y-94513169D01*
X166190397Y-94604829D01*
X166190395Y-94604833D01*
X166190395Y-94604834D01*
X166163000Y-94707076D01*
X164987732Y-94707076D01*
X164960605Y-94605834D01*
X164907680Y-94514166D01*
X164832834Y-94439320D01*
X164832831Y-94439318D01*
X164832830Y-94439317D01*
X164741170Y-94386397D01*
X164741166Y-94386395D01*
X164737434Y-94385395D01*
X164638924Y-94359000D01*
X164533076Y-94359000D01*
X164481955Y-94372697D01*
X164430833Y-94386395D01*
X164430829Y-94386397D01*
X164339169Y-94439317D01*
X164264317Y-94514169D01*
X164211397Y-94605829D01*
X164211395Y-94605833D01*
X164211395Y-94605834D01*
X164184000Y-94708076D01*
X152143438Y-94708076D01*
X152149680Y-94701834D01*
X152157217Y-94688778D01*
X152170239Y-94666226D01*
X152184361Y-94641764D01*
X152202605Y-94610166D01*
X152230000Y-94507924D01*
X152230000Y-94402076D01*
X152202605Y-94299834D01*
X152149680Y-94208166D01*
X152074834Y-94133320D01*
X152074831Y-94133318D01*
X152074830Y-94133317D01*
X151983170Y-94080397D01*
X151983166Y-94080395D01*
X151880924Y-94053000D01*
X151775076Y-94053000D01*
X151723955Y-94066697D01*
X151672833Y-94080395D01*
X151672829Y-94080397D01*
X151581169Y-94133317D01*
X151506317Y-94208169D01*
X151453397Y-94299829D01*
X151453395Y-94299833D01*
X151453395Y-94299834D01*
X151426000Y-94402076D01*
X148633665Y-94402076D01*
X148674605Y-94331166D01*
X148702000Y-94228924D01*
X148702000Y-94123076D01*
X148674605Y-94020834D01*
X148651651Y-93981076D01*
X154086000Y-93981076D01*
X154086000Y-94086924D01*
X154113395Y-94189166D01*
X154113397Y-94189170D01*
X154166317Y-94280830D01*
X154166318Y-94280831D01*
X154166320Y-94280834D01*
X154241166Y-94355680D01*
X154241168Y-94355681D01*
X154241169Y-94355682D01*
X154292633Y-94385395D01*
X154332834Y-94408605D01*
X154435076Y-94436000D01*
X154435077Y-94436000D01*
X154540923Y-94436000D01*
X154540924Y-94436000D01*
X154643166Y-94408605D01*
X154734834Y-94355680D01*
X154809680Y-94280834D01*
X154862605Y-94189166D01*
X154890000Y-94086924D01*
X154890000Y-93981076D01*
X154862605Y-93878834D01*
X154846882Y-93851601D01*
X154809682Y-93787169D01*
X154809681Y-93787168D01*
X154809680Y-93787166D01*
X154734834Y-93712320D01*
X154734831Y-93712318D01*
X154734830Y-93712317D01*
X154643170Y-93659397D01*
X154643166Y-93659395D01*
X154540924Y-93632000D01*
X154435076Y-93632000D01*
X154383955Y-93645697D01*
X154332833Y-93659395D01*
X154332829Y-93659397D01*
X154241169Y-93712317D01*
X154166317Y-93787169D01*
X154113397Y-93878829D01*
X154113395Y-93878833D01*
X154113395Y-93878834D01*
X154086000Y-93981076D01*
X148651651Y-93981076D01*
X148621680Y-93929166D01*
X148546834Y-93854320D01*
X148546831Y-93854318D01*
X148546830Y-93854317D01*
X148455170Y-93801397D01*
X148455166Y-93801395D01*
X148352924Y-93774000D01*
X148247076Y-93774000D01*
X148197939Y-93787166D01*
X148144833Y-93801395D01*
X148144829Y-93801397D01*
X148053169Y-93854317D01*
X147978317Y-93929169D01*
X147925397Y-94020829D01*
X147925395Y-94020833D01*
X147925395Y-94020834D01*
X147898000Y-94123076D01*
X143718000Y-94123076D01*
X143718000Y-93135076D01*
X145468000Y-93135076D01*
X145468000Y-93240924D01*
X145486155Y-93308680D01*
X145495395Y-93343166D01*
X145495397Y-93343170D01*
X145548317Y-93434830D01*
X145548318Y-93434831D01*
X145548320Y-93434834D01*
X145623166Y-93509680D01*
X145714834Y-93562605D01*
X145817076Y-93590000D01*
X145817077Y-93590000D01*
X145922923Y-93590000D01*
X145922924Y-93590000D01*
X146025166Y-93562605D01*
X146116834Y-93509680D01*
X146191680Y-93434834D01*
X146244605Y-93343166D01*
X146272000Y-93240924D01*
X146272000Y-93135076D01*
X146244605Y-93032834D01*
X146191680Y-92941166D01*
X146184590Y-92934076D01*
X159368000Y-92934076D01*
X159368000Y-93039924D01*
X159393495Y-93135076D01*
X159395395Y-93142166D01*
X159395397Y-93142170D01*
X159448317Y-93233830D01*
X159448318Y-93233831D01*
X159448320Y-93233834D01*
X159523166Y-93308680D01*
X159614834Y-93361605D01*
X159717076Y-93389000D01*
X159717077Y-93389000D01*
X159822923Y-93389000D01*
X159822924Y-93389000D01*
X159925166Y-93361605D01*
X160016834Y-93308680D01*
X160091680Y-93233834D01*
X160144605Y-93142166D01*
X160172000Y-93039924D01*
X160172000Y-92934076D01*
X160144605Y-92831834D01*
X160091680Y-92740166D01*
X160016834Y-92665320D01*
X160016831Y-92665318D01*
X160016830Y-92665317D01*
X159925170Y-92612397D01*
X159925166Y-92612395D01*
X159822924Y-92585000D01*
X159717076Y-92585000D01*
X159665955Y-92598697D01*
X159614833Y-92612395D01*
X159614829Y-92612397D01*
X159523169Y-92665317D01*
X159448317Y-92740169D01*
X159395397Y-92831829D01*
X159395395Y-92831833D01*
X159386155Y-92866320D01*
X159368000Y-92934076D01*
X146184590Y-92934076D01*
X146116834Y-92866320D01*
X146116831Y-92866318D01*
X146116830Y-92866317D01*
X146025170Y-92813397D01*
X146025166Y-92813395D01*
X145922924Y-92786000D01*
X145817076Y-92786000D01*
X145765955Y-92799697D01*
X145714833Y-92813395D01*
X145714829Y-92813397D01*
X145623169Y-92866317D01*
X145548317Y-92941169D01*
X145495397Y-93032829D01*
X145495395Y-93032833D01*
X145495395Y-93032834D01*
X145468000Y-93135076D01*
X143718000Y-93135076D01*
X143718000Y-92056076D01*
X144938000Y-92056076D01*
X144938000Y-92161924D01*
X144965395Y-92264166D01*
X144965397Y-92264170D01*
X145018317Y-92355830D01*
X145018318Y-92355831D01*
X145018320Y-92355834D01*
X145093166Y-92430680D01*
X145184834Y-92483605D01*
X145287076Y-92511000D01*
X145287077Y-92511000D01*
X145392923Y-92511000D01*
X145392924Y-92511000D01*
X145495166Y-92483605D01*
X145586834Y-92430680D01*
X145661680Y-92355834D01*
X145714605Y-92264166D01*
X145742000Y-92161924D01*
X145742000Y-92056076D01*
X145714605Y-91953834D01*
X145671881Y-91879834D01*
X145661682Y-91862169D01*
X145661681Y-91862168D01*
X145661680Y-91862166D01*
X145586834Y-91787320D01*
X145586831Y-91787318D01*
X145586830Y-91787317D01*
X145495170Y-91734397D01*
X145495166Y-91734395D01*
X145392924Y-91707000D01*
X145287076Y-91707000D01*
X145235955Y-91720697D01*
X145184833Y-91734395D01*
X145184829Y-91734397D01*
X145093169Y-91787317D01*
X145018317Y-91862169D01*
X144965397Y-91953829D01*
X144965395Y-91953833D01*
X144965395Y-91953834D01*
X144938000Y-92056076D01*
X143718000Y-92056076D01*
X143718000Y-91237576D01*
X149580000Y-91237576D01*
X149580000Y-91343424D01*
X149598419Y-91412166D01*
X149607395Y-91445666D01*
X149607397Y-91445670D01*
X149660317Y-91537330D01*
X149660318Y-91537331D01*
X149660320Y-91537334D01*
X149735166Y-91612180D01*
X149826834Y-91665105D01*
X149929076Y-91692500D01*
X149929077Y-91692500D01*
X150034923Y-91692500D01*
X150034924Y-91692500D01*
X150137166Y-91665105D01*
X150228834Y-91612180D01*
X150260938Y-91580076D01*
X160590000Y-91580076D01*
X160590000Y-91685924D01*
X160602988Y-91734397D01*
X160617395Y-91788166D01*
X160617397Y-91788170D01*
X160670317Y-91879830D01*
X160670318Y-91879831D01*
X160670320Y-91879834D01*
X160745166Y-91954680D01*
X160836834Y-92007605D01*
X160939076Y-92035000D01*
X160939077Y-92035000D01*
X161044923Y-92035000D01*
X161044924Y-92035000D01*
X161147166Y-92007605D01*
X161238834Y-91954680D01*
X161313680Y-91879834D01*
X161366605Y-91788166D01*
X161394000Y-91685924D01*
X161394000Y-91606076D01*
X163161500Y-91606076D01*
X163161500Y-91711924D01*
X163181930Y-91788170D01*
X163188895Y-91814166D01*
X163188897Y-91814170D01*
X163241817Y-91905830D01*
X163241818Y-91905831D01*
X163241820Y-91905834D01*
X163316666Y-91980680D01*
X163408334Y-92033605D01*
X163510576Y-92061000D01*
X163510577Y-92061000D01*
X163616423Y-92061000D01*
X163616424Y-92061000D01*
X163718666Y-92033605D01*
X163810334Y-91980680D01*
X163885180Y-91905834D01*
X163938105Y-91814166D01*
X163965500Y-91711924D01*
X163965500Y-91606076D01*
X163938105Y-91503834D01*
X163904524Y-91445670D01*
X163885182Y-91412169D01*
X163885181Y-91412168D01*
X163885180Y-91412166D01*
X163810334Y-91337320D01*
X163810331Y-91337318D01*
X163810330Y-91337317D01*
X163718670Y-91284397D01*
X163718666Y-91284395D01*
X163616424Y-91257000D01*
X163510576Y-91257000D01*
X163459455Y-91270697D01*
X163408333Y-91284395D01*
X163408329Y-91284397D01*
X163316669Y-91337317D01*
X163241817Y-91412169D01*
X163188897Y-91503829D01*
X163188895Y-91503833D01*
X163188895Y-91503834D01*
X163161500Y-91606076D01*
X161394000Y-91606076D01*
X161394000Y-91580076D01*
X161366605Y-91477834D01*
X161313680Y-91386166D01*
X161238834Y-91311320D01*
X161238831Y-91311318D01*
X161238830Y-91311317D01*
X161147170Y-91258397D01*
X161147166Y-91258395D01*
X161069470Y-91237577D01*
X161044924Y-91231000D01*
X160939076Y-91231000D01*
X160914530Y-91237577D01*
X160836833Y-91258395D01*
X160836829Y-91258397D01*
X160745169Y-91311317D01*
X160670317Y-91386169D01*
X160617397Y-91477829D01*
X160617395Y-91477833D01*
X160617395Y-91477834D01*
X160590000Y-91580076D01*
X150260938Y-91580076D01*
X150303680Y-91537334D01*
X150356605Y-91445666D01*
X150384000Y-91343424D01*
X150384000Y-91237576D01*
X150356605Y-91135334D01*
X150303680Y-91043666D01*
X150228834Y-90968820D01*
X150228831Y-90968818D01*
X150228830Y-90968817D01*
X150137170Y-90915897D01*
X150137166Y-90915895D01*
X150034924Y-90888500D01*
X149929076Y-90888500D01*
X149877955Y-90902197D01*
X149826833Y-90915895D01*
X149826829Y-90915897D01*
X149735169Y-90968817D01*
X149660317Y-91043669D01*
X149607397Y-91135329D01*
X149607395Y-91135333D01*
X149596852Y-91174682D01*
X149580000Y-91237576D01*
X143718000Y-91237576D01*
X143718000Y-90800076D01*
X155736000Y-90800076D01*
X155736000Y-90905924D01*
X155752852Y-90968817D01*
X155763395Y-91008166D01*
X155763397Y-91008170D01*
X155816317Y-91099830D01*
X155816318Y-91099831D01*
X155816320Y-91099834D01*
X155891166Y-91174680D01*
X155982834Y-91227605D01*
X156085076Y-91255000D01*
X156085077Y-91255000D01*
X156190923Y-91255000D01*
X156190924Y-91255000D01*
X156293166Y-91227605D01*
X156384834Y-91174680D01*
X156459680Y-91099834D01*
X156512605Y-91008166D01*
X156540000Y-90905924D01*
X156540000Y-90800076D01*
X156512605Y-90697834D01*
X156476675Y-90635602D01*
X156459682Y-90606169D01*
X156459681Y-90606168D01*
X156459680Y-90606166D01*
X156384834Y-90531320D01*
X156384831Y-90531318D01*
X156384830Y-90531317D01*
X156293170Y-90478397D01*
X156293166Y-90478395D01*
X156220497Y-90458924D01*
X156190924Y-90451000D01*
X156085076Y-90451000D01*
X156055510Y-90458922D01*
X155982833Y-90478395D01*
X155982829Y-90478397D01*
X155891169Y-90531317D01*
X155816317Y-90606169D01*
X155763397Y-90697829D01*
X155763395Y-90697833D01*
X155763395Y-90697834D01*
X155736000Y-90800076D01*
X143718000Y-90800076D01*
X143718000Y-90326076D01*
X160518000Y-90326076D01*
X160518000Y-90431924D01*
X160538340Y-90507834D01*
X160545395Y-90534166D01*
X160545397Y-90534170D01*
X160598317Y-90625830D01*
X160598318Y-90625831D01*
X160598320Y-90625834D01*
X160673166Y-90700680D01*
X160764834Y-90753605D01*
X160867076Y-90781000D01*
X160867077Y-90781000D01*
X160972923Y-90781000D01*
X160972924Y-90781000D01*
X161075166Y-90753605D01*
X161166834Y-90700680D01*
X161241680Y-90625834D01*
X161294605Y-90534166D01*
X161322000Y-90431924D01*
X161322000Y-90326076D01*
X161294605Y-90223834D01*
X161241680Y-90132166D01*
X161166834Y-90057320D01*
X161166831Y-90057318D01*
X161166830Y-90057317D01*
X161075170Y-90004397D01*
X161075166Y-90004395D01*
X161073692Y-90004000D01*
X160972924Y-89977000D01*
X160867076Y-89977000D01*
X160825739Y-89988076D01*
X160764833Y-90004395D01*
X160764829Y-90004397D01*
X160673169Y-90057317D01*
X160598317Y-90132169D01*
X160545397Y-90223829D01*
X160545395Y-90223833D01*
X160531697Y-90274955D01*
X160518000Y-90326076D01*
X143718000Y-90326076D01*
X143718000Y-89737576D01*
X148680000Y-89737576D01*
X148680000Y-89843424D01*
X148697257Y-89907830D01*
X148707395Y-89945666D01*
X148707397Y-89945670D01*
X148760317Y-90037330D01*
X148760318Y-90037331D01*
X148760320Y-90037334D01*
X148835166Y-90112180D01*
X148835168Y-90112181D01*
X148835169Y-90112182D01*
X148899601Y-90149382D01*
X148926834Y-90165105D01*
X149029076Y-90192500D01*
X149029077Y-90192500D01*
X149134923Y-90192500D01*
X149134924Y-90192500D01*
X149237166Y-90165105D01*
X149328834Y-90112180D01*
X149403680Y-90037334D01*
X149456605Y-89945666D01*
X149467213Y-89906076D01*
X164088000Y-89906076D01*
X164088000Y-90011924D01*
X164107398Y-90084320D01*
X164115395Y-90114166D01*
X164115397Y-90114170D01*
X164168317Y-90205830D01*
X164168318Y-90205831D01*
X164168320Y-90205834D01*
X164243166Y-90280680D01*
X164243168Y-90280681D01*
X164243169Y-90280682D01*
X164251911Y-90285729D01*
X164334834Y-90333605D01*
X164437076Y-90361000D01*
X164437077Y-90361000D01*
X164542923Y-90361000D01*
X164542924Y-90361000D01*
X164645166Y-90333605D01*
X164736834Y-90280680D01*
X164784109Y-90233404D01*
X164836433Y-90211730D01*
X164888759Y-90233404D01*
X164910434Y-90285729D01*
X164907913Y-90304881D01*
X164895000Y-90353076D01*
X164895000Y-90458924D01*
X164900218Y-90478397D01*
X164922395Y-90561166D01*
X164922397Y-90561170D01*
X164975317Y-90652830D01*
X164975318Y-90652831D01*
X164975320Y-90652834D01*
X165050166Y-90727680D01*
X165141834Y-90780605D01*
X165244076Y-90808000D01*
X165244077Y-90808000D01*
X165349923Y-90808000D01*
X165349924Y-90808000D01*
X165452166Y-90780605D01*
X165543834Y-90727680D01*
X165618680Y-90652834D01*
X165671605Y-90561166D01*
X165699000Y-90458924D01*
X165699000Y-90353076D01*
X165671605Y-90250834D01*
X165646919Y-90208077D01*
X165618682Y-90159169D01*
X165618681Y-90159168D01*
X165618680Y-90159166D01*
X165543834Y-90084320D01*
X165543831Y-90084318D01*
X165543830Y-90084317D01*
X165452170Y-90031397D01*
X165452166Y-90031395D01*
X165349924Y-90004000D01*
X165244076Y-90004000D01*
X165206135Y-90014166D01*
X165141833Y-90031395D01*
X165141829Y-90031397D01*
X165050168Y-90084318D01*
X165050165Y-90084320D01*
X165002890Y-90131595D01*
X164950564Y-90153269D01*
X164898239Y-90131594D01*
X164876565Y-90079268D01*
X164879087Y-90060116D01*
X164879837Y-90057317D01*
X164892000Y-90011924D01*
X164892000Y-89908076D01*
X165738000Y-89908076D01*
X165738000Y-90013924D01*
X165762625Y-90105828D01*
X165765395Y-90116166D01*
X165765397Y-90116170D01*
X165818317Y-90207830D01*
X165818318Y-90207831D01*
X165818320Y-90207834D01*
X165893166Y-90282680D01*
X165984834Y-90335605D01*
X166087076Y-90363000D01*
X166087077Y-90363000D01*
X166192923Y-90363000D01*
X166192924Y-90363000D01*
X166295166Y-90335605D01*
X166386834Y-90282680D01*
X166461438Y-90208076D01*
X166692000Y-90208076D01*
X166692000Y-90313924D01*
X166705150Y-90363000D01*
X166719395Y-90416166D01*
X166719397Y-90416170D01*
X166772317Y-90507830D01*
X166772318Y-90507831D01*
X166772320Y-90507834D01*
X166847166Y-90582680D01*
X166847168Y-90582681D01*
X166847169Y-90582682D01*
X166887850Y-90606169D01*
X166938834Y-90635605D01*
X167041076Y-90663000D01*
X167041077Y-90663000D01*
X167146923Y-90663000D01*
X167146924Y-90663000D01*
X167249166Y-90635605D01*
X167340834Y-90582680D01*
X167415680Y-90507834D01*
X167468605Y-90416166D01*
X167496000Y-90313924D01*
X167496000Y-90208076D01*
X167468605Y-90105834D01*
X167442209Y-90060116D01*
X167419179Y-90020226D01*
X167419178Y-90020224D01*
X167415683Y-90014170D01*
X167415681Y-90014168D01*
X167415680Y-90014166D01*
X167389590Y-89988076D01*
X171009000Y-89988076D01*
X171009000Y-90093924D01*
X171028373Y-90166226D01*
X171036395Y-90196166D01*
X171036397Y-90196170D01*
X171089317Y-90287830D01*
X171089318Y-90287831D01*
X171089320Y-90287834D01*
X171164166Y-90362680D01*
X171255834Y-90415605D01*
X171358076Y-90443000D01*
X171358077Y-90443000D01*
X171463923Y-90443000D01*
X171463924Y-90443000D01*
X171566166Y-90415605D01*
X171657834Y-90362680D01*
X171732680Y-90287834D01*
X171785605Y-90196166D01*
X171813000Y-90093924D01*
X171813000Y-89988076D01*
X171785605Y-89885834D01*
X171738262Y-89803834D01*
X171732682Y-89794169D01*
X171732681Y-89794168D01*
X171732680Y-89794166D01*
X171657834Y-89719320D01*
X171657831Y-89719318D01*
X171657830Y-89719317D01*
X171566170Y-89666397D01*
X171566166Y-89666395D01*
X171549763Y-89662000D01*
X171463924Y-89639000D01*
X171358076Y-89639000D01*
X171306955Y-89652697D01*
X171255833Y-89666395D01*
X171255829Y-89666397D01*
X171164169Y-89719317D01*
X171089317Y-89794169D01*
X171036397Y-89885829D01*
X171036395Y-89885833D01*
X171036244Y-89886397D01*
X171009000Y-89988076D01*
X167389590Y-89988076D01*
X167340834Y-89939320D01*
X167340831Y-89939318D01*
X167340830Y-89939317D01*
X167249170Y-89886397D01*
X167249166Y-89886395D01*
X167233039Y-89882074D01*
X167146924Y-89859000D01*
X167041076Y-89859000D01*
X166989955Y-89872697D01*
X166938833Y-89886395D01*
X166938829Y-89886397D01*
X166847169Y-89939317D01*
X166772317Y-90014169D01*
X166719398Y-90105828D01*
X166719395Y-90105833D01*
X166712339Y-90132169D01*
X166692000Y-90208076D01*
X166461438Y-90208076D01*
X166461680Y-90207834D01*
X166486351Y-90165104D01*
X166496356Y-90147772D01*
X166514605Y-90116166D01*
X166542000Y-90013924D01*
X166542000Y-89908076D01*
X166514605Y-89805834D01*
X166498882Y-89778601D01*
X166461682Y-89714169D01*
X166461681Y-89714168D01*
X166461680Y-89714166D01*
X166386834Y-89639320D01*
X166386831Y-89639318D01*
X166386830Y-89639317D01*
X166295170Y-89586397D01*
X166295166Y-89586395D01*
X166275031Y-89581000D01*
X166192924Y-89559000D01*
X166087076Y-89559000D01*
X166035955Y-89572697D01*
X165984833Y-89586395D01*
X165984829Y-89586397D01*
X165893169Y-89639317D01*
X165818317Y-89714169D01*
X165765397Y-89805829D01*
X165765395Y-89805833D01*
X165755323Y-89843424D01*
X165738000Y-89908076D01*
X164892000Y-89908076D01*
X164892000Y-89906076D01*
X164864605Y-89803834D01*
X164826351Y-89737576D01*
X164811682Y-89712169D01*
X164811681Y-89712168D01*
X164811680Y-89712166D01*
X164736834Y-89637320D01*
X164736831Y-89637318D01*
X164736830Y-89637317D01*
X164645170Y-89584397D01*
X164645166Y-89584395D01*
X164632495Y-89581000D01*
X164542924Y-89557000D01*
X164437076Y-89557000D01*
X164385955Y-89570697D01*
X164334833Y-89584395D01*
X164334829Y-89584397D01*
X164243169Y-89637317D01*
X164168317Y-89712169D01*
X164115397Y-89803829D01*
X164115395Y-89803833D01*
X164104788Y-89843422D01*
X164088000Y-89906076D01*
X149467213Y-89906076D01*
X149472486Y-89886397D01*
X149473643Y-89882079D01*
X149473644Y-89882074D01*
X149484000Y-89843424D01*
X149484000Y-89737576D01*
X149456605Y-89635334D01*
X149412533Y-89559000D01*
X149403682Y-89543669D01*
X149403681Y-89543668D01*
X149403680Y-89543666D01*
X149328834Y-89468820D01*
X149328831Y-89468818D01*
X149328830Y-89468817D01*
X149237170Y-89415897D01*
X149237166Y-89415895D01*
X149230713Y-89414166D01*
X149134924Y-89388500D01*
X149029076Y-89388500D01*
X148977955Y-89402197D01*
X148926833Y-89415895D01*
X148926829Y-89415897D01*
X148835169Y-89468817D01*
X148760317Y-89543669D01*
X148707397Y-89635329D01*
X148707395Y-89635333D01*
X148706328Y-89639317D01*
X148680000Y-89737576D01*
X143718000Y-89737576D01*
X143718000Y-88968076D01*
X147868000Y-88968076D01*
X147868000Y-89073924D01*
X147895395Y-89176166D01*
X147895397Y-89176170D01*
X147948317Y-89267830D01*
X147948318Y-89267831D01*
X147948320Y-89267834D01*
X148023166Y-89342680D01*
X148114834Y-89395605D01*
X148217076Y-89423000D01*
X148217077Y-89423000D01*
X148322923Y-89423000D01*
X148322924Y-89423000D01*
X148425166Y-89395605D01*
X148516834Y-89342680D01*
X148591680Y-89267834D01*
X148644605Y-89176166D01*
X148672000Y-89073924D01*
X148672000Y-88968076D01*
X148644605Y-88865834D01*
X148603209Y-88794134D01*
X148591684Y-88774172D01*
X148591682Y-88774169D01*
X148591680Y-88774166D01*
X148551590Y-88734076D01*
X159368000Y-88734076D01*
X159368000Y-88839924D01*
X159395395Y-88942166D01*
X159395397Y-88942170D01*
X159448317Y-89033830D01*
X159448318Y-89033831D01*
X159448320Y-89033834D01*
X159523166Y-89108680D01*
X159614834Y-89161605D01*
X159717076Y-89189000D01*
X159717077Y-89189000D01*
X159822923Y-89189000D01*
X159822924Y-89189000D01*
X159925166Y-89161605D01*
X159986704Y-89126076D01*
X168465500Y-89126076D01*
X168465500Y-89231924D01*
X168472755Y-89259000D01*
X168492895Y-89334166D01*
X168492897Y-89334170D01*
X168545817Y-89425830D01*
X168545818Y-89425831D01*
X168545820Y-89425834D01*
X168620666Y-89500680D01*
X168712334Y-89553605D01*
X168814576Y-89581000D01*
X168814577Y-89581000D01*
X168920423Y-89581000D01*
X168920424Y-89581000D01*
X169022666Y-89553605D01*
X169114334Y-89500680D01*
X169189180Y-89425834D01*
X169242105Y-89334166D01*
X169269500Y-89231924D01*
X169269500Y-89207076D01*
X171638500Y-89207076D01*
X171638500Y-89312924D01*
X171658750Y-89388500D01*
X171665895Y-89415166D01*
X171665897Y-89415170D01*
X171718817Y-89506830D01*
X171718818Y-89506831D01*
X171718820Y-89506834D01*
X171793666Y-89581680D01*
X171793668Y-89581681D01*
X171793669Y-89581682D01*
X171858101Y-89618882D01*
X171885334Y-89634605D01*
X171987576Y-89662000D01*
X171987577Y-89662000D01*
X172093423Y-89662000D01*
X172093424Y-89662000D01*
X172195666Y-89634605D01*
X172241615Y-89608076D01*
X174684000Y-89608076D01*
X174684000Y-89713924D01*
X174708091Y-89803834D01*
X174711395Y-89816166D01*
X174711397Y-89816170D01*
X174764317Y-89907830D01*
X174764318Y-89907831D01*
X174764320Y-89907834D01*
X174839166Y-89982680D01*
X174839168Y-89982681D01*
X174839169Y-89982682D01*
X174889814Y-90011922D01*
X174930834Y-90035605D01*
X175033076Y-90063000D01*
X175033077Y-90063000D01*
X175138923Y-90063000D01*
X175138924Y-90063000D01*
X175241166Y-90035605D01*
X175332834Y-89982680D01*
X175407680Y-89907834D01*
X175460605Y-89816166D01*
X175488000Y-89713924D01*
X175488000Y-89608076D01*
X175460605Y-89505834D01*
X175414414Y-89425830D01*
X175407682Y-89414169D01*
X175407681Y-89414168D01*
X175407680Y-89414166D01*
X175332834Y-89339320D01*
X175332831Y-89339318D01*
X175332830Y-89339317D01*
X175241170Y-89286397D01*
X175241166Y-89286395D01*
X175138924Y-89259000D01*
X175033076Y-89259000D01*
X174981955Y-89272697D01*
X174930833Y-89286395D01*
X174930829Y-89286397D01*
X174839169Y-89339317D01*
X174764317Y-89414169D01*
X174711397Y-89505829D01*
X174711395Y-89505833D01*
X174711395Y-89505834D01*
X174684000Y-89608076D01*
X172241615Y-89608076D01*
X172287334Y-89581680D01*
X172362180Y-89506834D01*
X172415105Y-89415166D01*
X172442500Y-89312924D01*
X172442500Y-89207076D01*
X172415105Y-89104834D01*
X172374113Y-89033834D01*
X172362182Y-89013169D01*
X172362181Y-89013168D01*
X172362180Y-89013166D01*
X172287334Y-88938320D01*
X172287331Y-88938318D01*
X172287330Y-88938317D01*
X172195670Y-88885397D01*
X172195666Y-88885395D01*
X172179263Y-88881000D01*
X172093424Y-88858000D01*
X171987576Y-88858000D01*
X171936455Y-88871697D01*
X171885333Y-88885395D01*
X171885329Y-88885397D01*
X171793669Y-88938317D01*
X171718817Y-89013169D01*
X171665897Y-89104829D01*
X171665895Y-89104833D01*
X171665895Y-89104834D01*
X171638500Y-89207076D01*
X169269500Y-89207076D01*
X169269500Y-89126076D01*
X169242105Y-89023834D01*
X169226382Y-88996601D01*
X169189182Y-88932169D01*
X169189181Y-88932168D01*
X169189180Y-88932166D01*
X169114334Y-88857320D01*
X169114331Y-88857318D01*
X169114330Y-88857317D01*
X169022670Y-88804397D01*
X169022666Y-88804395D01*
X169021371Y-88804048D01*
X168920424Y-88777000D01*
X168814576Y-88777000D01*
X168763455Y-88790697D01*
X168712333Y-88804395D01*
X168712329Y-88804397D01*
X168620669Y-88857317D01*
X168545817Y-88932169D01*
X168492897Y-89023829D01*
X168492895Y-89023833D01*
X168484451Y-89055348D01*
X168465500Y-89126076D01*
X159986704Y-89126076D01*
X160016834Y-89108680D01*
X160091680Y-89033834D01*
X160144605Y-88942166D01*
X160172000Y-88839924D01*
X160172000Y-88734076D01*
X160144605Y-88631834D01*
X160091680Y-88540166D01*
X160016834Y-88465320D01*
X160016831Y-88465318D01*
X160016830Y-88465317D01*
X159925170Y-88412397D01*
X159925166Y-88412395D01*
X159822924Y-88385000D01*
X159717076Y-88385000D01*
X159665955Y-88398697D01*
X159614833Y-88412395D01*
X159614829Y-88412397D01*
X159523169Y-88465317D01*
X159448317Y-88540169D01*
X159395397Y-88631829D01*
X159395395Y-88631833D01*
X159395395Y-88631834D01*
X159368000Y-88734076D01*
X148551590Y-88734076D01*
X148516834Y-88699320D01*
X148516831Y-88699318D01*
X148516830Y-88699317D01*
X148425170Y-88646397D01*
X148425166Y-88646395D01*
X148322924Y-88619000D01*
X148217076Y-88619000D01*
X148169196Y-88631829D01*
X148114833Y-88646395D01*
X148114829Y-88646397D01*
X148023169Y-88699317D01*
X147948317Y-88774169D01*
X147895397Y-88865829D01*
X147895395Y-88865833D01*
X147891331Y-88881000D01*
X147868000Y-88968076D01*
X143718000Y-88968076D01*
X143718000Y-88868134D01*
X143739674Y-88815808D01*
X143792000Y-88794134D01*
X143828999Y-88804047D01*
X143914834Y-88853605D01*
X144017076Y-88881000D01*
X144017077Y-88881000D01*
X144122923Y-88881000D01*
X144122924Y-88881000D01*
X144225166Y-88853605D01*
X144316834Y-88800680D01*
X144391680Y-88725834D01*
X144444605Y-88634166D01*
X144472000Y-88531924D01*
X144472000Y-88426076D01*
X144444605Y-88323834D01*
X144391680Y-88232166D01*
X144316834Y-88157320D01*
X144316831Y-88157318D01*
X144316830Y-88157317D01*
X144225170Y-88104397D01*
X144225166Y-88104395D01*
X144122924Y-88077000D01*
X144017076Y-88077000D01*
X143969062Y-88089865D01*
X143914833Y-88104395D01*
X143914829Y-88104397D01*
X143829000Y-88153951D01*
X143772847Y-88161343D01*
X143727914Y-88126865D01*
X143718000Y-88089865D01*
X143718000Y-87500076D01*
X144936000Y-87500076D01*
X144936000Y-87605924D01*
X144955869Y-87680077D01*
X144963395Y-87708166D01*
X144963397Y-87708170D01*
X145016317Y-87799830D01*
X145016318Y-87799831D01*
X145016320Y-87799834D01*
X145091166Y-87874680D01*
X145182834Y-87927605D01*
X145285076Y-87955000D01*
X145285077Y-87955000D01*
X145390923Y-87955000D01*
X145390924Y-87955000D01*
X145493166Y-87927605D01*
X145584834Y-87874680D01*
X145659680Y-87799834D01*
X145712605Y-87708166D01*
X145740000Y-87605924D01*
X145740000Y-87558076D01*
X162968000Y-87558076D01*
X162968000Y-87663924D01*
X162995395Y-87766166D01*
X162995397Y-87766170D01*
X163048317Y-87857830D01*
X163048318Y-87857831D01*
X163048320Y-87857834D01*
X163123166Y-87932680D01*
X163214834Y-87985605D01*
X163317076Y-88013000D01*
X163317077Y-88013000D01*
X163422923Y-88013000D01*
X163422924Y-88013000D01*
X163525166Y-87985605D01*
X163616834Y-87932680D01*
X163691680Y-87857834D01*
X163744605Y-87766166D01*
X163767672Y-87680076D01*
X167202000Y-87680076D01*
X167202000Y-87785924D01*
X167221267Y-87857830D01*
X167229395Y-87888166D01*
X167229397Y-87888170D01*
X167282317Y-87979830D01*
X167282318Y-87979831D01*
X167282320Y-87979834D01*
X167357166Y-88054680D01*
X167448834Y-88107605D01*
X167551076Y-88135000D01*
X167551077Y-88135000D01*
X167656923Y-88135000D01*
X167656924Y-88135000D01*
X167759166Y-88107605D01*
X167850834Y-88054680D01*
X167925680Y-87979834D01*
X167978605Y-87888166D01*
X168006000Y-87785924D01*
X168006000Y-87680076D01*
X167978605Y-87577834D01*
X167925680Y-87486166D01*
X167850834Y-87411320D01*
X167850831Y-87411318D01*
X167850830Y-87411317D01*
X167759170Y-87358397D01*
X167759166Y-87358395D01*
X167656924Y-87331000D01*
X167551076Y-87331000D01*
X167499955Y-87344697D01*
X167448833Y-87358395D01*
X167448829Y-87358397D01*
X167357169Y-87411317D01*
X167282317Y-87486169D01*
X167229397Y-87577829D01*
X167229395Y-87577833D01*
X167229395Y-87577834D01*
X167202000Y-87680076D01*
X163767672Y-87680076D01*
X163772000Y-87663924D01*
X163772000Y-87558076D01*
X163744605Y-87455834D01*
X163718903Y-87411317D01*
X163691682Y-87364169D01*
X163691681Y-87364168D01*
X163691680Y-87364166D01*
X163616834Y-87289320D01*
X163616831Y-87289318D01*
X163616830Y-87289317D01*
X163525170Y-87236397D01*
X163525166Y-87236395D01*
X163503837Y-87230680D01*
X163422924Y-87209000D01*
X163317076Y-87209000D01*
X163265955Y-87222697D01*
X163214833Y-87236395D01*
X163214829Y-87236397D01*
X163123169Y-87289317D01*
X163048317Y-87364169D01*
X162995397Y-87455829D01*
X162995395Y-87455833D01*
X162995395Y-87455834D01*
X162968000Y-87558076D01*
X145740000Y-87558076D01*
X145740000Y-87500076D01*
X145712605Y-87397834D01*
X145659680Y-87306166D01*
X145584834Y-87231320D01*
X145584831Y-87231318D01*
X145584830Y-87231317D01*
X145493170Y-87178397D01*
X145493166Y-87178395D01*
X145390924Y-87151000D01*
X145285076Y-87151000D01*
X145267050Y-87155830D01*
X145182833Y-87178395D01*
X145182829Y-87178397D01*
X145091169Y-87231317D01*
X145016317Y-87306169D01*
X144963397Y-87397829D01*
X144963395Y-87397833D01*
X144949697Y-87448955D01*
X144936000Y-87500076D01*
X143718000Y-87500076D01*
X143718000Y-86514576D01*
X148980000Y-86514576D01*
X148980000Y-86620424D01*
X148996681Y-86682680D01*
X149007395Y-86722666D01*
X149007397Y-86722670D01*
X149060317Y-86814330D01*
X149060318Y-86814331D01*
X149060320Y-86814334D01*
X149135166Y-86889180D01*
X149226834Y-86942105D01*
X149329076Y-86969500D01*
X149329077Y-86969500D01*
X149434923Y-86969500D01*
X149434924Y-86969500D01*
X149537166Y-86942105D01*
X149628834Y-86889180D01*
X149703680Y-86814334D01*
X149756605Y-86722666D01*
X149784000Y-86620424D01*
X149784000Y-86514576D01*
X149756605Y-86412334D01*
X149740882Y-86385101D01*
X149703682Y-86320669D01*
X149703681Y-86320668D01*
X149703680Y-86320666D01*
X149628834Y-86245820D01*
X149628831Y-86245818D01*
X149628830Y-86245817D01*
X149575994Y-86215312D01*
X149537170Y-86192897D01*
X149537166Y-86192895D01*
X149434924Y-86165500D01*
X149329076Y-86165500D01*
X149277955Y-86179197D01*
X149226833Y-86192895D01*
X149226829Y-86192897D01*
X149135169Y-86245817D01*
X149060317Y-86320669D01*
X149007397Y-86412329D01*
X149007395Y-86412333D01*
X148995741Y-86455830D01*
X148980000Y-86514576D01*
X143718000Y-86514576D01*
X143718000Y-86156076D01*
X150180000Y-86156076D01*
X150180000Y-86261924D01*
X150200737Y-86339317D01*
X150207395Y-86364166D01*
X150207397Y-86364170D01*
X150260317Y-86455830D01*
X150260318Y-86455831D01*
X150260320Y-86455834D01*
X150335166Y-86530680D01*
X150335168Y-86530681D01*
X150335169Y-86530682D01*
X150341604Y-86534397D01*
X150426834Y-86583605D01*
X150488564Y-86600145D01*
X150533497Y-86634622D01*
X150540890Y-86690775D01*
X150533497Y-86708623D01*
X150507397Y-86753829D01*
X150507395Y-86753833D01*
X150507395Y-86753834D01*
X150480000Y-86856076D01*
X150480000Y-86961924D01*
X150499742Y-87035604D01*
X150507395Y-87064166D01*
X150507397Y-87064170D01*
X150560317Y-87155830D01*
X150560318Y-87155831D01*
X150560320Y-87155834D01*
X150635166Y-87230680D01*
X150635168Y-87230681D01*
X150635169Y-87230682D01*
X150645068Y-87236397D01*
X150726834Y-87283605D01*
X150829076Y-87311000D01*
X150829077Y-87311000D01*
X150934923Y-87311000D01*
X150934924Y-87311000D01*
X151037166Y-87283605D01*
X151128834Y-87230680D01*
X151203680Y-87155834D01*
X151256605Y-87064166D01*
X151284000Y-86961924D01*
X151284000Y-86856076D01*
X151256605Y-86753834D01*
X151203680Y-86662166D01*
X151128834Y-86587320D01*
X151128831Y-86587318D01*
X151128830Y-86587317D01*
X151121484Y-86583076D01*
X167038000Y-86583076D01*
X167038000Y-86688924D01*
X167044698Y-86713922D01*
X167065395Y-86791166D01*
X167065397Y-86791170D01*
X167118317Y-86882830D01*
X167118318Y-86882831D01*
X167118320Y-86882834D01*
X167193166Y-86957680D01*
X167193168Y-86957681D01*
X167193169Y-86957682D01*
X167236467Y-86982680D01*
X167284834Y-87010605D01*
X167387076Y-87038000D01*
X167387077Y-87038000D01*
X167492923Y-87038000D01*
X167492924Y-87038000D01*
X167595166Y-87010605D01*
X167686834Y-86957680D01*
X167761680Y-86882834D01*
X167814605Y-86791166D01*
X167842000Y-86688924D01*
X167842000Y-86583076D01*
X167814605Y-86480834D01*
X167798882Y-86453601D01*
X167761682Y-86389169D01*
X167761681Y-86389168D01*
X167761680Y-86389166D01*
X167686834Y-86314320D01*
X167686831Y-86314318D01*
X167686830Y-86314317D01*
X167676020Y-86308076D01*
X168738000Y-86308076D01*
X168738000Y-86413924D01*
X168755927Y-86480829D01*
X168765395Y-86516166D01*
X168765397Y-86516170D01*
X168818317Y-86607830D01*
X168818318Y-86607831D01*
X168818320Y-86607834D01*
X168893166Y-86682680D01*
X168893168Y-86682681D01*
X168893169Y-86682682D01*
X168938100Y-86708623D01*
X168984834Y-86735605D01*
X169087076Y-86763000D01*
X169087077Y-86763000D01*
X169192923Y-86763000D01*
X169192924Y-86763000D01*
X169295166Y-86735605D01*
X169386834Y-86682680D01*
X169461438Y-86608076D01*
X171684000Y-86608076D01*
X171684000Y-86713924D01*
X171704698Y-86791170D01*
X171711395Y-86816166D01*
X171711397Y-86816170D01*
X171764317Y-86907830D01*
X171764318Y-86907831D01*
X171764320Y-86907834D01*
X171839166Y-86982680D01*
X171930834Y-87035605D01*
X172033076Y-87063000D01*
X172033077Y-87063000D01*
X172138923Y-87063000D01*
X172138924Y-87063000D01*
X172241166Y-87035605D01*
X172332834Y-86982680D01*
X172407680Y-86907834D01*
X172460605Y-86816166D01*
X172488000Y-86713924D01*
X172488000Y-86608076D01*
X172460605Y-86505834D01*
X172407680Y-86414166D01*
X172332834Y-86339320D01*
X172332831Y-86339318D01*
X172332830Y-86339317D01*
X172241170Y-86286397D01*
X172241166Y-86286395D01*
X172138924Y-86259000D01*
X172033076Y-86259000D01*
X171981955Y-86272697D01*
X171930833Y-86286395D01*
X171930829Y-86286397D01*
X171839169Y-86339317D01*
X171764317Y-86414169D01*
X171711397Y-86505829D01*
X171711395Y-86505833D01*
X171708174Y-86517854D01*
X171684000Y-86608076D01*
X169461438Y-86608076D01*
X169461680Y-86607834D01*
X169475669Y-86583604D01*
X169485703Y-86566226D01*
X169504080Y-86534395D01*
X169514605Y-86516166D01*
X169542000Y-86413924D01*
X169542000Y-86308076D01*
X169514605Y-86205834D01*
X169461680Y-86114166D01*
X169386834Y-86039320D01*
X169386831Y-86039318D01*
X169386830Y-86039317D01*
X169295170Y-85986397D01*
X169295166Y-85986395D01*
X169192924Y-85959000D01*
X169087076Y-85959000D01*
X169035955Y-85972697D01*
X168984833Y-85986395D01*
X168984829Y-85986397D01*
X168893169Y-86039317D01*
X168818317Y-86114169D01*
X168765397Y-86205829D01*
X168765395Y-86205833D01*
X168765395Y-86205834D01*
X168738000Y-86308076D01*
X167676020Y-86308076D01*
X167595170Y-86261397D01*
X167595166Y-86261395D01*
X167492924Y-86234000D01*
X167387076Y-86234000D01*
X167342973Y-86245817D01*
X167284833Y-86261395D01*
X167284829Y-86261397D01*
X167193169Y-86314317D01*
X167118317Y-86389169D01*
X167065397Y-86480829D01*
X167065395Y-86480833D01*
X167065395Y-86480834D01*
X167038000Y-86583076D01*
X151121484Y-86583076D01*
X151037170Y-86534397D01*
X151037161Y-86534393D01*
X150975435Y-86517854D01*
X150930502Y-86483376D01*
X150923110Y-86427223D01*
X150930503Y-86409375D01*
X150942171Y-86389166D01*
X150956605Y-86364166D01*
X150984000Y-86261924D01*
X150984000Y-86156076D01*
X150956605Y-86053834D01*
X150903680Y-85962166D01*
X150828834Y-85887320D01*
X150828831Y-85887318D01*
X150828830Y-85887317D01*
X150737170Y-85834397D01*
X150737166Y-85834395D01*
X150634924Y-85807000D01*
X150529076Y-85807000D01*
X150477955Y-85820697D01*
X150426833Y-85834395D01*
X150426829Y-85834397D01*
X150335169Y-85887317D01*
X150260317Y-85962169D01*
X150207397Y-86053829D01*
X150207395Y-86053833D01*
X150207395Y-86053834D01*
X150180000Y-86156076D01*
X143718000Y-86156076D01*
X143718000Y-85510076D01*
X145244000Y-85510076D01*
X145244000Y-85615924D01*
X145271395Y-85718166D01*
X145271397Y-85718170D01*
X145324317Y-85809830D01*
X145324318Y-85809831D01*
X145324320Y-85809834D01*
X145399166Y-85884680D01*
X145399168Y-85884681D01*
X145399169Y-85884682D01*
X145463601Y-85921882D01*
X145490834Y-85937605D01*
X145593076Y-85965000D01*
X145593077Y-85965000D01*
X145698923Y-85965000D01*
X145698924Y-85965000D01*
X145801166Y-85937605D01*
X145892834Y-85884680D01*
X145967680Y-85809834D01*
X146020605Y-85718166D01*
X146048000Y-85615924D01*
X146048000Y-85510076D01*
X146020605Y-85407834D01*
X145967680Y-85316166D01*
X145892834Y-85241320D01*
X145892831Y-85241318D01*
X145892830Y-85241317D01*
X145801170Y-85188397D01*
X145801166Y-85188395D01*
X145730647Y-85169500D01*
X145698924Y-85161000D01*
X145593076Y-85161000D01*
X145561353Y-85169500D01*
X145490833Y-85188395D01*
X145490829Y-85188397D01*
X145399169Y-85241317D01*
X145324317Y-85316169D01*
X145271397Y-85407829D01*
X145271395Y-85407833D01*
X145259915Y-85450680D01*
X145244000Y-85510076D01*
X143718000Y-85510076D01*
X143718000Y-84714576D01*
X155280000Y-84714576D01*
X155280000Y-84820424D01*
X155302288Y-84903605D01*
X155307395Y-84922666D01*
X155307397Y-84922670D01*
X155360317Y-85014330D01*
X155360318Y-85014331D01*
X155360320Y-85014334D01*
X155435166Y-85089180D01*
X155526834Y-85142105D01*
X155629076Y-85169500D01*
X155629077Y-85169500D01*
X155734923Y-85169500D01*
X155734924Y-85169500D01*
X155837166Y-85142105D01*
X155928834Y-85089180D01*
X155941938Y-85076076D01*
X157318000Y-85076076D01*
X157318000Y-85181924D01*
X157333914Y-85241317D01*
X157345395Y-85284166D01*
X157345397Y-85284170D01*
X157398317Y-85375830D01*
X157398318Y-85375831D01*
X157398320Y-85375834D01*
X157473166Y-85450680D01*
X157564834Y-85503605D01*
X157667076Y-85531000D01*
X157667077Y-85531000D01*
X157772923Y-85531000D01*
X157772924Y-85531000D01*
X157875166Y-85503605D01*
X157966834Y-85450680D01*
X158041680Y-85375834D01*
X158094605Y-85284166D01*
X158122000Y-85181924D01*
X158122000Y-85076076D01*
X158094605Y-84973834D01*
X158084064Y-84955577D01*
X158084063Y-84955576D01*
X163557500Y-84955576D01*
X163557500Y-85061424D01*
X163564937Y-85089180D01*
X163584895Y-85163666D01*
X163584897Y-85163670D01*
X163637817Y-85255330D01*
X163637818Y-85255331D01*
X163637820Y-85255334D01*
X163712666Y-85330180D01*
X163804334Y-85383105D01*
X163906576Y-85410500D01*
X163906577Y-85410500D01*
X164012423Y-85410500D01*
X164012424Y-85410500D01*
X164114666Y-85383105D01*
X164206334Y-85330180D01*
X164281180Y-85255334D01*
X164334105Y-85163666D01*
X164361500Y-85061424D01*
X164361500Y-84955576D01*
X164334105Y-84853334D01*
X164281180Y-84761666D01*
X164206334Y-84686820D01*
X164206331Y-84686818D01*
X164206330Y-84686817D01*
X164114670Y-84633897D01*
X164114666Y-84633895D01*
X164034197Y-84612334D01*
X164012424Y-84606500D01*
X163906576Y-84606500D01*
X163884803Y-84612334D01*
X163804333Y-84633895D01*
X163804329Y-84633897D01*
X163712669Y-84686817D01*
X163637817Y-84761669D01*
X163584897Y-84853329D01*
X163584895Y-84853333D01*
X163584895Y-84853334D01*
X163557500Y-84955576D01*
X158084063Y-84955576D01*
X158041682Y-84882169D01*
X158041681Y-84882168D01*
X158041680Y-84882166D01*
X157966834Y-84807320D01*
X157966831Y-84807318D01*
X157966830Y-84807317D01*
X157875170Y-84754397D01*
X157875166Y-84754395D01*
X157772924Y-84727000D01*
X157667076Y-84727000D01*
X157615955Y-84740697D01*
X157564833Y-84754395D01*
X157564829Y-84754397D01*
X157473169Y-84807317D01*
X157398317Y-84882169D01*
X157345398Y-84973828D01*
X157345395Y-84973833D01*
X157345395Y-84973834D01*
X157318000Y-85076076D01*
X155941938Y-85076076D01*
X156003680Y-85014334D01*
X156056605Y-84922666D01*
X156084000Y-84820424D01*
X156084000Y-84714576D01*
X156056605Y-84612334D01*
X156003680Y-84520666D01*
X155959090Y-84476076D01*
X159080000Y-84476076D01*
X159080000Y-84581924D01*
X159093926Y-84633897D01*
X159107395Y-84684166D01*
X159107397Y-84684170D01*
X159160317Y-84775830D01*
X159160318Y-84775831D01*
X159160320Y-84775834D01*
X159235166Y-84850680D01*
X159235168Y-84850681D01*
X159235169Y-84850682D01*
X159289701Y-84882166D01*
X159326834Y-84903605D01*
X159429076Y-84931000D01*
X159429077Y-84931000D01*
X159534923Y-84931000D01*
X159534924Y-84931000D01*
X159637166Y-84903605D01*
X159728834Y-84850680D01*
X159803680Y-84775834D01*
X159856605Y-84684166D01*
X159884000Y-84581924D01*
X159884000Y-84476076D01*
X159856605Y-84373834D01*
X159803680Y-84282166D01*
X159728834Y-84207320D01*
X159728831Y-84207318D01*
X159728830Y-84207317D01*
X159637170Y-84154397D01*
X159637166Y-84154395D01*
X159534924Y-84127000D01*
X159429076Y-84127000D01*
X159377955Y-84140697D01*
X159326833Y-84154395D01*
X159326829Y-84154397D01*
X159235169Y-84207317D01*
X159160317Y-84282169D01*
X159107397Y-84373829D01*
X159107395Y-84373833D01*
X159107395Y-84373834D01*
X159080000Y-84476076D01*
X155959090Y-84476076D01*
X155928834Y-84445820D01*
X155928831Y-84445818D01*
X155928830Y-84445817D01*
X155837170Y-84392897D01*
X155837166Y-84392895D01*
X155734924Y-84365500D01*
X155629076Y-84365500D01*
X155577955Y-84379197D01*
X155526833Y-84392895D01*
X155526829Y-84392897D01*
X155435169Y-84445817D01*
X155360317Y-84520669D01*
X155307397Y-84612329D01*
X155307395Y-84612333D01*
X155307395Y-84612334D01*
X155280000Y-84714576D01*
X143718000Y-84714576D01*
X143718000Y-83577825D01*
X143739674Y-83525499D01*
X143755002Y-83513738D01*
X143755878Y-83513231D01*
X143756834Y-83512680D01*
X143831680Y-83437834D01*
X143884605Y-83346166D01*
X143912000Y-83243924D01*
X143912000Y-83138076D01*
X143884605Y-83035834D01*
X143831680Y-82944166D01*
X143756834Y-82869320D01*
X143754993Y-82868257D01*
X143754341Y-82867407D01*
X143752988Y-82866369D01*
X143753266Y-82866006D01*
X143720520Y-82823321D01*
X143718000Y-82804175D01*
X143718000Y-82016652D01*
X143739674Y-81964326D01*
X143996326Y-81707674D01*
X144048652Y-81686000D01*
X145787348Y-81686000D01*
X145839674Y-81707674D01*
G37*
G04 #@! TD.AperFunction*
M02*
