G04 #@! TF.GenerationSoftware,KiCad,Pcbnew,9.0.2*
G04 #@! TF.CreationDate,2026-06-17T20:08:09+05:00*
G04 #@! TF.ProjectId,ProPrj_Segun O pcb fiverr_2026-03-03,50726f50-726a-45f5-9365-67756e204f20,rev?*
G04 #@! TF.SameCoordinates,Original*
G04 #@! TF.FileFunction,Legend,Bot*
G04 #@! TF.FilePolarity,Positive*
%FSLAX46Y46*%
G04 Gerber Fmt 4.6, Leading zero omitted, Abs format (unit mm)*
G04 Created by KiCad (PCBNEW 9.0.2) date 2026-06-17 20:08:09*
%MOMM*%
%LPD*%
G01*
G04 APERTURE LIST*
%ADD10C,0.254000*%
%ADD11C,0.200000*%
%ADD12C,0.300000*%
%ADD13C,0.150000*%
%ADD14C,0.152500*%
G04 APERTURE END LIST*
D10*
X121482000Y-113409000D02*
X121482000Y-112709000D01*
D11*
X160979500Y-126949000D02*
G75*
G02*
X158579500Y-126949000I-1200000J0D01*
G01*
X158579500Y-126949000D02*
G75*
G02*
X160979500Y-126949000I1200000J0D01*
G01*
X157879500Y-152949000D02*
G75*
G02*
X154679500Y-152949000I-1600000J0D01*
G01*
X154679500Y-152949000D02*
G75*
G02*
X157879500Y-152949000I1600000J0D01*
G01*
D12*
X172908000Y-142458000D02*
X190038000Y-142458000D01*
X190038000Y-149553000D01*
X172908000Y-149553000D01*
X172908000Y-142458000D01*
D10*
X123082000Y-139809000D02*
X123682000Y-139809000D01*
D11*
X136379500Y-152949000D02*
G75*
G02*
X133179500Y-152949000I-1600000J0D01*
G01*
X133179500Y-152949000D02*
G75*
G02*
X136379500Y-152949000I1600000J0D01*
G01*
X161379500Y-126949000D02*
G75*
G02*
X158179500Y-126949000I-1600000J0D01*
G01*
X158179500Y-126949000D02*
G75*
G02*
X161379500Y-126949000I1600000J0D01*
G01*
D10*
X121082000Y-112309000D02*
X121482000Y-112709000D01*
X123982000Y-139809000D02*
G75*
G02*
X122782000Y-139809000I-600000J0D01*
G01*
X122782000Y-139809000D02*
G75*
G02*
X123982000Y-139809000I600000J0D01*
G01*
D13*
G36*
X188932106Y-144082150D02*
G01*
X189044766Y-144082150D01*
X189044766Y-143924857D01*
X188932106Y-143924857D01*
X188932106Y-144082150D01*
G37*
G36*
X188718497Y-144082150D02*
G01*
X188625175Y-144082150D01*
X188625175Y-143777002D01*
X188531853Y-143777002D01*
X188481608Y-143774342D01*
X188440450Y-143767019D01*
X188406974Y-143755866D01*
X188375252Y-143739312D01*
X188346754Y-143718227D01*
X188321151Y-143692458D01*
X188295295Y-143655512D01*
X188275691Y-143612042D01*
X188263574Y-143564149D01*
X188259628Y-143513832D01*
X188356500Y-143513832D01*
X188358885Y-143548619D01*
X188365684Y-143578617D01*
X188377765Y-143606181D01*
X188397031Y-143633620D01*
X188421901Y-143655368D01*
X188454541Y-143670928D01*
X188492589Y-143679358D01*
X188546472Y-143682627D01*
X188625175Y-143682627D01*
X188625175Y-143358604D01*
X188532780Y-143358604D01*
X188490405Y-143360647D01*
X188459512Y-143365978D01*
X188431767Y-143375847D01*
X188407858Y-143390210D01*
X188385137Y-143412790D01*
X188369224Y-143440839D01*
X188359843Y-143473679D01*
X188356500Y-143513832D01*
X188259628Y-143513832D01*
X188259428Y-143511276D01*
X188262127Y-143464223D01*
X188269638Y-143425354D01*
X188281336Y-143393258D01*
X188297832Y-143364033D01*
X188318368Y-143338124D01*
X188343312Y-143315300D01*
X188379259Y-143292693D01*
X188421088Y-143276616D01*
X188467366Y-143267609D01*
X188528103Y-143264229D01*
X188718497Y-143264229D01*
X188718497Y-144082150D01*
G37*
G36*
X187814641Y-143581960D02*
G01*
X187819360Y-143581960D01*
X187857784Y-143574783D01*
X187901854Y-143572522D01*
X187941999Y-143577756D01*
X187981020Y-143593609D01*
X188018155Y-143617523D01*
X188054540Y-143648072D01*
X188054540Y-144082150D01*
X188143144Y-144082150D01*
X188143144Y-143468709D01*
X188054540Y-143468709D01*
X188054540Y-143559349D01*
X188002235Y-143515140D01*
X187961471Y-143489305D01*
X187920507Y-143473797D01*
X187879230Y-143468709D01*
X187845735Y-143470085D01*
X187814641Y-143475345D01*
X187814641Y-143581960D01*
G37*
G36*
X187580001Y-143458780D02*
G01*
X187626899Y-143475336D01*
X187667478Y-143502135D01*
X187702781Y-143539687D01*
X187730521Y-143584868D01*
X187750970Y-143638163D01*
X187763911Y-143701126D01*
X187768507Y-143775724D01*
X187763907Y-143850330D01*
X187750961Y-143913238D01*
X187730513Y-143966427D01*
X187702781Y-144011466D01*
X187667494Y-144048877D01*
X187626921Y-144075588D01*
X187580017Y-144092095D01*
X187525280Y-144097879D01*
X187471067Y-144092118D01*
X187424436Y-144075647D01*
X187383931Y-144048940D01*
X187348536Y-144011466D01*
X187320689Y-143966409D01*
X187300163Y-143913212D01*
X187287173Y-143850311D01*
X187282558Y-143775724D01*
X187373984Y-143775724D01*
X187376989Y-143834101D01*
X187385235Y-143881068D01*
X187397836Y-143918641D01*
X187414304Y-143948500D01*
X187436186Y-143973795D01*
X187461467Y-143991731D01*
X187490824Y-144002778D01*
X187525280Y-144006649D01*
X187560228Y-144002725D01*
X187589847Y-143991552D01*
X187615207Y-143973450D01*
X187637013Y-143947959D01*
X187653416Y-143917849D01*
X187665938Y-143880227D01*
X187674110Y-143833491D01*
X187677081Y-143775724D01*
X187674067Y-143715705D01*
X187665852Y-143668064D01*
X187653401Y-143630549D01*
X187637266Y-143601277D01*
X187615650Y-143576605D01*
X187590331Y-143558986D01*
X187560572Y-143548059D01*
X187525280Y-143544210D01*
X187490512Y-143548036D01*
X187461025Y-143558926D01*
X187435772Y-143576540D01*
X187414051Y-143601277D01*
X187397805Y-143630570D01*
X187385276Y-143668093D01*
X187377014Y-143715727D01*
X187373984Y-143775724D01*
X187282558Y-143775724D01*
X187287169Y-143701145D01*
X187300154Y-143638188D01*
X187320680Y-143584887D01*
X187348536Y-143539687D01*
X187383947Y-143502072D01*
X187424458Y-143475277D01*
X187471082Y-143458757D01*
X187525280Y-143452980D01*
X187580001Y-143458780D01*
G37*
G36*
X186981441Y-143364896D02*
G01*
X187081378Y-143364896D01*
X187081378Y-143257937D01*
X186981441Y-143257937D01*
X186981441Y-143364896D01*
G37*
G36*
X186987087Y-144097338D02*
G01*
X186990487Y-144151377D01*
X186999910Y-144195325D01*
X187014570Y-144231046D01*
X187034232Y-144259988D01*
X187059158Y-144283543D01*
X187087973Y-144300582D01*
X187121431Y-144311205D01*
X187160544Y-144314942D01*
X187210302Y-144310420D01*
X187261913Y-144299213D01*
X187261913Y-144198546D01*
X187257194Y-144198546D01*
X187221635Y-144212653D01*
X187199259Y-144218637D01*
X187178029Y-144220567D01*
X187145944Y-144217530D01*
X187123341Y-144209605D01*
X187105087Y-144195830D01*
X187092248Y-144176820D01*
X187083872Y-144153415D01*
X187078808Y-144124029D01*
X187075732Y-144048872D01*
X187075732Y-143556793D01*
X187185528Y-143556793D01*
X187185528Y-143468709D01*
X186987087Y-143468709D01*
X186987087Y-144097338D01*
G37*
G36*
X186650781Y-143458835D02*
G01*
X186699606Y-143475612D01*
X186742318Y-143502840D01*
X186779924Y-143541015D01*
X186809861Y-143587155D01*
X186831745Y-143641089D01*
X186845503Y-143704315D01*
X186850369Y-143778772D01*
X186847041Y-143840080D01*
X186837609Y-143892951D01*
X186822660Y-143938653D01*
X186802441Y-143978238D01*
X186776849Y-144012498D01*
X186738210Y-144047248D01*
X186692265Y-144072801D01*
X186637571Y-144088976D01*
X186572256Y-144094733D01*
X186521716Y-144090992D01*
X186474257Y-144079987D01*
X186428069Y-144063430D01*
X186382789Y-144043318D01*
X186382789Y-143931149D01*
X186387508Y-143931149D01*
X186415220Y-143952918D01*
X186465031Y-143979123D01*
X186519832Y-143997528D01*
X186573225Y-144003503D01*
X186612660Y-144000151D01*
X186647462Y-143990527D01*
X186679112Y-143974100D01*
X186705646Y-143951548D01*
X186728097Y-143921783D01*
X186745713Y-143883617D01*
X186756473Y-143839949D01*
X186760333Y-143786440D01*
X186372425Y-143786440D01*
X186372425Y-143730601D01*
X186373832Y-143707794D01*
X186458669Y-143707794D01*
X186760333Y-143707794D01*
X186752361Y-143661640D01*
X186736500Y-143621673D01*
X186712513Y-143586678D01*
X186690220Y-143565810D01*
X186664387Y-143550687D01*
X186634331Y-143541244D01*
X186599136Y-143537918D01*
X186563767Y-143541119D01*
X186535246Y-143549972D01*
X186512257Y-143563751D01*
X186493807Y-143582304D01*
X186475231Y-143614205D01*
X186463246Y-143655181D01*
X186458669Y-143707794D01*
X186373832Y-143707794D01*
X186376537Y-143663925D01*
X186388014Y-143608761D01*
X186405986Y-143563080D01*
X186430187Y-143525285D01*
X186460910Y-143494580D01*
X186497640Y-143472163D01*
X186541595Y-143458017D01*
X186594418Y-143452980D01*
X186650781Y-143458835D01*
G37*
G36*
X185848767Y-144042286D02*
G01*
X185892894Y-144064782D01*
X185932905Y-144080921D01*
X185973575Y-144091216D01*
X186017506Y-144094733D01*
X186072985Y-144089706D01*
X186122161Y-144075219D01*
X186152671Y-144059809D01*
X186179723Y-144040165D01*
X186203686Y-144016185D01*
X186224519Y-143988106D01*
X186242295Y-143955000D01*
X186256983Y-143916206D01*
X186267128Y-143875326D01*
X186273552Y-143828525D01*
X186275816Y-143774938D01*
X186270885Y-143700060D01*
X186256992Y-143637039D01*
X186234968Y-143583787D01*
X186204908Y-143538704D01*
X186167214Y-143501689D01*
X186124177Y-143475148D01*
X186074755Y-143458726D01*
X186017506Y-143452980D01*
X185972690Y-143456712D01*
X185928649Y-143467923D01*
X185886323Y-143484728D01*
X185848767Y-143504346D01*
X185848767Y-143619710D01*
X185853486Y-143619710D01*
X185895182Y-143587197D01*
X185937160Y-143563773D01*
X185980396Y-143548955D01*
X186021297Y-143544210D01*
X186058235Y-143548144D01*
X186089738Y-143559356D01*
X186116858Y-143577477D01*
X186140320Y-143602850D01*
X186158304Y-143633217D01*
X186171907Y-143670921D01*
X186180730Y-143717523D01*
X186183927Y-143774938D01*
X186180833Y-143830604D01*
X186172252Y-143876299D01*
X186158952Y-143913738D01*
X186141289Y-143944322D01*
X186118248Y-143969812D01*
X186091167Y-143988101D01*
X186059239Y-143999484D01*
X186021297Y-144003503D01*
X185994400Y-144001495D01*
X185966610Y-143995344D01*
X185939756Y-143985773D01*
X185916642Y-143974158D01*
X185880366Y-143950024D01*
X185853486Y-143928003D01*
X185848767Y-143928003D01*
X185848767Y-144042286D01*
G37*
G36*
X185461870Y-144077185D02*
G01*
X185516305Y-144089768D01*
X185568885Y-144094733D01*
X185609154Y-144091141D01*
X185642163Y-144081138D01*
X185669253Y-144065473D01*
X185691447Y-144044301D01*
X185708485Y-144017918D01*
X185721559Y-143983535D01*
X185730190Y-143939210D01*
X185733368Y-143882536D01*
X185733368Y-143556793D01*
X185793195Y-143556793D01*
X185793195Y-143468709D01*
X185733368Y-143468709D01*
X185733368Y-143292542D01*
X185644723Y-143292542D01*
X185644723Y-143468709D01*
X185461870Y-143468709D01*
X185461870Y-143556793D01*
X185644723Y-143556793D01*
X185644723Y-143835446D01*
X185642869Y-143910750D01*
X185638607Y-143936961D01*
X185629639Y-143961329D01*
X185617219Y-143980435D01*
X185601158Y-143993378D01*
X185580463Y-144000541D01*
X185545755Y-144003503D01*
X185523914Y-144001784D01*
X185500505Y-143996425D01*
X185466589Y-143984628D01*
X185461870Y-143984628D01*
X185461870Y-144077185D01*
G37*
G36*
X185347946Y-144082150D02*
G01*
X185254623Y-144082150D01*
X185254623Y-143777002D01*
X185161301Y-143777002D01*
X185111057Y-143774342D01*
X185069899Y-143767019D01*
X185036422Y-143755866D01*
X185004701Y-143739312D01*
X184976203Y-143718227D01*
X184950600Y-143692458D01*
X184924743Y-143655512D01*
X184905139Y-143612042D01*
X184893023Y-143564149D01*
X184889077Y-143513832D01*
X184985948Y-143513832D01*
X184988334Y-143548619D01*
X184995133Y-143578617D01*
X185007214Y-143606181D01*
X185026479Y-143633620D01*
X185051349Y-143655368D01*
X185083989Y-143670928D01*
X185122038Y-143679358D01*
X185175921Y-143682627D01*
X185254623Y-143682627D01*
X185254623Y-143358604D01*
X185162228Y-143358604D01*
X185119853Y-143360647D01*
X185088961Y-143365978D01*
X185061216Y-143375847D01*
X185037307Y-143390210D01*
X185014586Y-143412790D01*
X184998672Y-143440839D01*
X184989291Y-143473679D01*
X184985948Y-143513832D01*
X184889077Y-143513832D01*
X184888877Y-143511276D01*
X184891575Y-143464223D01*
X184899086Y-143425354D01*
X184910785Y-143393258D01*
X184927280Y-143364033D01*
X184947817Y-143338124D01*
X184972761Y-143315300D01*
X185008707Y-143292693D01*
X185050537Y-143276616D01*
X185096815Y-143267609D01*
X185157552Y-143264229D01*
X185347946Y-143264229D01*
X185347946Y-144082150D01*
G37*
G36*
X184223488Y-144023804D02*
G01*
X184270380Y-144048528D01*
X184325278Y-144072663D01*
X184387760Y-144090457D01*
X184422367Y-144095942D01*
X184461996Y-144097879D01*
X184512548Y-144094958D01*
X184558653Y-144086502D01*
X184600821Y-144072859D01*
X184640806Y-144052901D01*
X184676871Y-144026830D01*
X184709437Y-143994410D01*
X184736827Y-143957309D01*
X184760415Y-143913297D01*
X184780134Y-143861449D01*
X184793865Y-143806891D01*
X184802535Y-143744783D01*
X184805582Y-143674025D01*
X184802691Y-143606930D01*
X184794387Y-143546832D01*
X184781103Y-143492893D01*
X184761975Y-143441603D01*
X184738400Y-143396899D01*
X184710364Y-143358064D01*
X184678696Y-143325487D01*
X184642805Y-143298361D01*
X184602211Y-143276567D01*
X184559317Y-143261229D01*
X184512592Y-143251762D01*
X184461491Y-143248500D01*
X184405171Y-143252470D01*
X184348619Y-143264475D01*
X184291510Y-143285417D01*
X184223488Y-143320559D01*
X184223488Y-143449834D01*
X184230566Y-143449834D01*
X184270512Y-143414815D01*
X184308765Y-143387962D01*
X184345586Y-143368386D01*
X184384122Y-143354316D01*
X184424691Y-143345775D01*
X184467642Y-143342875D01*
X184519123Y-143348073D01*
X184563576Y-143362930D01*
X184603598Y-143388270D01*
X184639709Y-143425257D01*
X184659304Y-143454271D01*
X184676233Y-143488707D01*
X184690393Y-143529316D01*
X184703726Y-143595051D01*
X184708510Y-143674566D01*
X184706075Y-143731775D01*
X184699221Y-143780837D01*
X184688497Y-143822863D01*
X184664862Y-143880482D01*
X184636844Y-143923874D01*
X184601001Y-143959305D01*
X184559784Y-143984038D01*
X184514702Y-143998591D01*
X184466715Y-144003503D01*
X184422217Y-144000462D01*
X184380237Y-143991509D01*
X184340404Y-143976764D01*
X184302426Y-143956266D01*
X184265722Y-143929670D01*
X184230102Y-143896544D01*
X184223488Y-143896544D01*
X184223488Y-144023804D01*
G37*
G36*
X184091404Y-144082150D02*
G01*
X183842531Y-144082150D01*
X183772753Y-144077916D01*
X183722118Y-144066863D01*
X183676819Y-144046399D01*
X183635158Y-144015399D01*
X183605288Y-143981457D01*
X183581903Y-143938817D01*
X183571114Y-143907024D01*
X183564426Y-143871480D01*
X183562373Y-143836184D01*
X183659215Y-143836184D01*
X183662551Y-143876392D01*
X183671476Y-143905785D01*
X183686782Y-143930680D01*
X183710110Y-143953809D01*
X183737491Y-143969708D01*
X183774235Y-143980499D01*
X183816090Y-143985747D01*
X183874593Y-143987774D01*
X183998082Y-143987774D01*
X183998082Y-143688919D01*
X183851505Y-143688919D01*
X183773056Y-143692998D01*
X183742296Y-143699668D01*
X183718116Y-143710497D01*
X183688933Y-143733587D01*
X183671939Y-143759061D01*
X183662750Y-143790546D01*
X183659215Y-143836184D01*
X183562373Y-143836184D01*
X183562101Y-143831514D01*
X183566933Y-143776766D01*
X183580706Y-143730589D01*
X183603138Y-143691180D01*
X183633124Y-143659022D01*
X183670045Y-143634841D01*
X183715293Y-143618678D01*
X183715293Y-143614303D01*
X183676719Y-143584598D01*
X183647418Y-143547847D01*
X183633511Y-143519157D01*
X183624956Y-143486310D01*
X183623156Y-143463401D01*
X183719042Y-143463401D01*
X183721479Y-143497608D01*
X183728227Y-143525138D01*
X183740490Y-143548568D01*
X183759573Y-143567656D01*
X183782676Y-143581305D01*
X183807688Y-143589333D01*
X183835833Y-143593066D01*
X183877416Y-143594543D01*
X183998082Y-143594543D01*
X183998082Y-143358604D01*
X183886854Y-143358604D01*
X183808615Y-143362193D01*
X183778638Y-143368813D01*
X183754855Y-143380576D01*
X183738417Y-143395326D01*
X183727553Y-143413460D01*
X183721321Y-143435229D01*
X183719042Y-143463401D01*
X183623156Y-143463401D01*
X183621971Y-143448310D01*
X183626554Y-143399030D01*
X183639413Y-143359293D01*
X183652948Y-143336590D01*
X183671376Y-143316329D01*
X183695491Y-143298391D01*
X183731270Y-143281012D01*
X183768547Y-143270865D01*
X183811585Y-143266181D01*
X183883567Y-143264229D01*
X184091404Y-143264229D01*
X184091404Y-144082150D01*
G37*
G36*
X183429428Y-144082150D02*
G01*
X183336106Y-144082150D01*
X183336106Y-143758127D01*
X183204612Y-143758127D01*
X182969853Y-144082150D01*
X182848724Y-144082150D01*
X183112680Y-143725636D01*
X183070392Y-143701579D01*
X183035678Y-143671625D01*
X183007561Y-143635636D01*
X182986789Y-143593757D01*
X182973916Y-143544857D01*
X182969907Y-143493827D01*
X183066967Y-143493827D01*
X183069750Y-143537156D01*
X183077121Y-143568983D01*
X183089899Y-143596704D01*
X183108425Y-143621381D01*
X183133735Y-143641782D01*
X183164545Y-143654806D01*
X183198997Y-143661353D01*
X183241857Y-143663752D01*
X183336106Y-143663752D01*
X183336106Y-143358604D01*
X183226268Y-143358604D01*
X183189797Y-143360286D01*
X183160753Y-143364847D01*
X183134379Y-143373669D01*
X183112680Y-143386819D01*
X183091337Y-143407803D01*
X183077584Y-143432188D01*
X183069729Y-143460426D01*
X183066967Y-143493827D01*
X182969907Y-143493827D01*
X182969390Y-143487240D01*
X182972021Y-143444142D01*
X182979358Y-143408520D01*
X182990835Y-143379053D01*
X183016237Y-143340267D01*
X183050451Y-143308271D01*
X183086172Y-143287442D01*
X183126837Y-143273863D01*
X183171861Y-143266889D01*
X183232883Y-143264229D01*
X183429428Y-143264229D01*
X183429428Y-144082150D01*
G37*
G36*
X182626342Y-143458835D02*
G01*
X182675168Y-143475612D01*
X182717879Y-143502840D01*
X182755486Y-143541015D01*
X182785423Y-143587155D01*
X182807307Y-143641089D01*
X182821065Y-143704315D01*
X182825931Y-143778772D01*
X182822603Y-143840080D01*
X182813171Y-143892951D01*
X182798221Y-143938653D01*
X182778003Y-143978238D01*
X182752410Y-144012498D01*
X182713772Y-144047248D01*
X182667827Y-144072801D01*
X182613132Y-144088976D01*
X182547818Y-144094733D01*
X182497278Y-144090992D01*
X182449819Y-144079987D01*
X182403631Y-144063430D01*
X182358351Y-144043318D01*
X182358351Y-143931149D01*
X182363070Y-143931149D01*
X182390782Y-143952918D01*
X182440592Y-143979123D01*
X182495394Y-143997528D01*
X182548787Y-144003503D01*
X182588222Y-144000151D01*
X182623023Y-143990527D01*
X182654674Y-143974100D01*
X182681208Y-143951548D01*
X182703658Y-143921783D01*
X182721275Y-143883617D01*
X182732034Y-143839949D01*
X182735895Y-143786440D01*
X182347986Y-143786440D01*
X182347986Y-143730601D01*
X182349393Y-143707794D01*
X182434230Y-143707794D01*
X182735895Y-143707794D01*
X182727923Y-143661640D01*
X182712061Y-143621673D01*
X182688075Y-143586678D01*
X182665782Y-143565810D01*
X182639949Y-143550687D01*
X182609893Y-143541244D01*
X182574698Y-143537918D01*
X182539329Y-143541119D01*
X182510807Y-143549972D01*
X182487819Y-143563751D01*
X182469368Y-143582304D01*
X182450792Y-143614205D01*
X182438807Y-143655181D01*
X182434230Y-143707794D01*
X182349393Y-143707794D01*
X182352099Y-143663925D01*
X182363576Y-143608761D01*
X182381548Y-143563080D01*
X182405749Y-143525285D01*
X182436472Y-143494580D01*
X182473202Y-143472163D01*
X182517156Y-143458017D01*
X182569979Y-143452980D01*
X182626342Y-143458835D01*
G37*
G36*
X181758351Y-143468709D02*
G01*
X181971412Y-144082150D01*
X182060478Y-144082150D01*
X182272149Y-143468709D01*
X182176004Y-143468709D01*
X182012911Y-143956955D01*
X181851209Y-143468709D01*
X181758351Y-143468709D01*
G37*
G36*
X188932106Y-145606150D02*
G01*
X189044766Y-145606150D01*
X189044766Y-145448857D01*
X188932106Y-145448857D01*
X188932106Y-145606150D01*
G37*
G36*
X188471056Y-145606150D02*
G01*
X188748200Y-145606150D01*
X188748200Y-145521212D01*
X188656310Y-145521212D01*
X188656310Y-144873167D01*
X188748200Y-144873167D01*
X188748200Y-144788229D01*
X188471056Y-144788229D01*
X188471056Y-144873167D01*
X188562988Y-144873167D01*
X188562988Y-145521212D01*
X188471056Y-145521212D01*
X188471056Y-145606150D01*
G37*
G36*
X187878850Y-145606150D02*
G01*
X187967454Y-145606150D01*
X187967454Y-145257206D01*
X187971709Y-145177921D01*
X187978131Y-145143375D01*
X187987256Y-145120018D01*
X188001536Y-145100059D01*
X188021214Y-145085757D01*
X188045205Y-145077605D01*
X188078682Y-145074501D01*
X188114969Y-145079480D01*
X188154604Y-145095342D01*
X188193146Y-145118911D01*
X188230483Y-145148576D01*
X188230483Y-145606150D01*
X188319087Y-145606150D01*
X188319087Y-144992709D01*
X188230483Y-144992709D01*
X188230483Y-145061918D01*
X188187713Y-145025875D01*
X188144703Y-144999443D01*
X188099605Y-144982547D01*
X188053740Y-144976980D01*
X188011509Y-144981147D01*
X187976618Y-144992830D01*
X187947665Y-145011340D01*
X187923637Y-145036751D01*
X187905053Y-145067740D01*
X187891093Y-145105722D01*
X187882094Y-145152143D01*
X187878850Y-145208790D01*
X187878850Y-145606150D01*
G37*
G36*
X187369939Y-145018564D02*
G01*
X187405255Y-144999666D01*
X187437350Y-144987106D01*
X187470707Y-144979659D01*
X187510870Y-144976980D01*
X187555720Y-144982422D01*
X187599263Y-144998853D01*
X187639126Y-145025543D01*
X187673963Y-145062311D01*
X187702732Y-145108694D01*
X187725575Y-145165682D01*
X187735924Y-145206729D01*
X187742401Y-145252642D01*
X187744660Y-145304099D01*
X187740673Y-145379565D01*
X187729559Y-145442329D01*
X187712273Y-145494459D01*
X187689299Y-145537678D01*
X187658959Y-145574717D01*
X187624529Y-145600628D01*
X187585184Y-145616398D01*
X187539604Y-145621879D01*
X187492460Y-145616456D01*
X187449611Y-145600546D01*
X187409454Y-145575356D01*
X187369939Y-145540922D01*
X187369939Y-145606150D01*
X187281294Y-145606150D01*
X187281294Y-145104190D01*
X187369939Y-145104190D01*
X187369939Y-145454854D01*
X187404743Y-145482743D01*
X187442069Y-145504942D01*
X187480986Y-145519633D01*
X187518412Y-145524357D01*
X187553025Y-145520417D01*
X187580807Y-145509440D01*
X187603214Y-145492006D01*
X187621172Y-145467732D01*
X187637799Y-145428090D01*
X187648989Y-145374263D01*
X187653192Y-145302231D01*
X187650183Y-145246343D01*
X187641830Y-145200332D01*
X187628889Y-145162532D01*
X187611734Y-145131569D01*
X187589180Y-145105458D01*
X187562894Y-145086879D01*
X187532135Y-145075393D01*
X187495787Y-145071355D01*
X187463058Y-145073204D01*
X187434064Y-145078483D01*
X187405161Y-145087937D01*
X187369939Y-145104190D01*
X187281294Y-145104190D01*
X187281294Y-144750479D01*
X187369939Y-144750479D01*
X187369939Y-145018564D01*
G37*
G36*
X186944693Y-144982835D02*
G01*
X186993518Y-144999612D01*
X187036230Y-145026840D01*
X187073836Y-145065015D01*
X187103773Y-145111155D01*
X187125657Y-145165089D01*
X187139415Y-145228315D01*
X187144281Y-145302772D01*
X187140953Y-145364080D01*
X187131521Y-145416951D01*
X187116572Y-145462653D01*
X187096353Y-145502238D01*
X187070761Y-145536498D01*
X187032122Y-145571248D01*
X186986177Y-145596801D01*
X186931483Y-145612976D01*
X186866168Y-145618733D01*
X186815628Y-145614992D01*
X186768170Y-145603987D01*
X186721981Y-145587430D01*
X186676701Y-145567318D01*
X186676701Y-145455149D01*
X186681420Y-145455149D01*
X186709132Y-145476918D01*
X186758943Y-145503123D01*
X186813744Y-145521528D01*
X186867137Y-145527503D01*
X186906573Y-145524151D01*
X186941374Y-145514527D01*
X186973024Y-145498100D01*
X186999558Y-145475548D01*
X187022009Y-145445783D01*
X187039625Y-145407617D01*
X187050385Y-145363949D01*
X187054245Y-145310440D01*
X186666337Y-145310440D01*
X186666337Y-145254601D01*
X186667744Y-145231794D01*
X186752581Y-145231794D01*
X187054245Y-145231794D01*
X187046273Y-145185640D01*
X187030412Y-145145673D01*
X187006425Y-145110678D01*
X186984132Y-145089810D01*
X186958300Y-145074687D01*
X186928243Y-145065244D01*
X186893048Y-145061918D01*
X186857679Y-145065119D01*
X186829158Y-145073972D01*
X186806169Y-145087751D01*
X186787719Y-145106304D01*
X186769143Y-145138205D01*
X186757158Y-145179181D01*
X186752581Y-145231794D01*
X186667744Y-145231794D01*
X186670449Y-145187925D01*
X186681926Y-145132761D01*
X186699898Y-145087080D01*
X186724100Y-145049285D01*
X186754822Y-145018580D01*
X186791553Y-144996163D01*
X186835507Y-144982017D01*
X186888330Y-144976980D01*
X186944693Y-144982835D01*
G37*
G36*
X186076237Y-145606150D02*
G01*
X186187929Y-145606150D01*
X186337371Y-145370555D01*
X186487740Y-145606150D01*
X186590963Y-145606150D01*
X186385443Y-145300265D01*
X186589067Y-144992709D01*
X186477333Y-144992709D01*
X186328860Y-145224470D01*
X186179924Y-144992709D01*
X186076237Y-144992709D01*
X186283147Y-145294760D01*
X186076237Y-145606150D01*
G37*
G36*
X185953297Y-145606150D02*
G01*
X185859974Y-145606150D01*
X185859974Y-145301002D01*
X185766652Y-145301002D01*
X185716408Y-145298342D01*
X185675250Y-145291019D01*
X185641773Y-145279866D01*
X185610052Y-145263312D01*
X185581554Y-145242227D01*
X185555951Y-145216458D01*
X185530094Y-145179512D01*
X185510490Y-145136042D01*
X185498374Y-145088149D01*
X185494428Y-145037832D01*
X185591299Y-145037832D01*
X185593685Y-145072619D01*
X185600484Y-145102617D01*
X185612565Y-145130181D01*
X185631830Y-145157620D01*
X185656700Y-145179368D01*
X185689340Y-145194928D01*
X185727389Y-145203358D01*
X185781272Y-145206627D01*
X185859974Y-145206627D01*
X185859974Y-144882604D01*
X185767579Y-144882604D01*
X185725204Y-144884647D01*
X185694312Y-144889978D01*
X185666567Y-144899847D01*
X185642658Y-144914210D01*
X185619937Y-144936790D01*
X185604023Y-144964839D01*
X185594642Y-144997679D01*
X185591299Y-145037832D01*
X185494428Y-145037832D01*
X185494228Y-145035276D01*
X185496926Y-144988223D01*
X185504437Y-144949354D01*
X185516136Y-144917258D01*
X185532631Y-144888033D01*
X185553168Y-144862124D01*
X185578112Y-144839300D01*
X185614058Y-144816693D01*
X185655888Y-144800616D01*
X185702166Y-144791609D01*
X185762903Y-144788229D01*
X185953297Y-144788229D01*
X185953297Y-145606150D01*
G37*
G36*
X184828839Y-145547804D02*
G01*
X184875731Y-145572528D01*
X184930629Y-145596663D01*
X184993111Y-145614457D01*
X185027718Y-145619942D01*
X185067347Y-145621879D01*
X185117899Y-145618958D01*
X185164004Y-145610502D01*
X185206172Y-145596859D01*
X185246157Y-145576901D01*
X185282222Y-145550830D01*
X185314788Y-145518410D01*
X185342178Y-145481309D01*
X185365766Y-145437297D01*
X185385485Y-145385449D01*
X185399216Y-145330891D01*
X185407886Y-145268783D01*
X185410933Y-145198025D01*
X185408042Y-145130930D01*
X185399738Y-145070832D01*
X185386454Y-145016893D01*
X185367326Y-144965603D01*
X185343751Y-144920899D01*
X185315715Y-144882064D01*
X185284047Y-144849487D01*
X185248156Y-144822361D01*
X185207562Y-144800567D01*
X185164668Y-144785229D01*
X185117943Y-144775762D01*
X185066842Y-144772500D01*
X185010522Y-144776470D01*
X184953970Y-144788475D01*
X184896861Y-144809417D01*
X184828839Y-144844559D01*
X184828839Y-144973834D01*
X184835917Y-144973834D01*
X184875863Y-144938815D01*
X184914116Y-144911962D01*
X184950937Y-144892386D01*
X184989473Y-144878316D01*
X185030042Y-144869775D01*
X185072993Y-144866875D01*
X185124474Y-144872073D01*
X185168927Y-144886930D01*
X185208949Y-144912270D01*
X185245060Y-144949257D01*
X185264655Y-144978271D01*
X185281584Y-145012707D01*
X185295744Y-145053316D01*
X185309077Y-145119051D01*
X185313861Y-145198566D01*
X185311426Y-145255775D01*
X185304572Y-145304837D01*
X185293848Y-145346863D01*
X185270213Y-145404482D01*
X185242195Y-145447874D01*
X185206352Y-145483305D01*
X185165135Y-145508038D01*
X185120053Y-145522591D01*
X185072066Y-145527503D01*
X185027568Y-145524462D01*
X184985588Y-145515509D01*
X184945755Y-145500764D01*
X184907777Y-145480266D01*
X184871073Y-145453670D01*
X184835453Y-145420544D01*
X184828839Y-145420544D01*
X184828839Y-145547804D01*
G37*
G36*
X184696755Y-145606150D02*
G01*
X184447882Y-145606150D01*
X184378104Y-145601916D01*
X184327469Y-145590863D01*
X184282170Y-145570399D01*
X184240509Y-145539399D01*
X184210639Y-145505457D01*
X184187254Y-145462817D01*
X184176465Y-145431024D01*
X184169777Y-145395480D01*
X184167724Y-145360184D01*
X184264566Y-145360184D01*
X184267902Y-145400392D01*
X184276827Y-145429785D01*
X184292133Y-145454680D01*
X184315461Y-145477809D01*
X184342842Y-145493708D01*
X184379586Y-145504499D01*
X184421441Y-145509747D01*
X184479944Y-145511774D01*
X184603433Y-145511774D01*
X184603433Y-145212919D01*
X184456856Y-145212919D01*
X184378407Y-145216998D01*
X184347647Y-145223668D01*
X184323467Y-145234497D01*
X184294284Y-145257587D01*
X184277290Y-145283061D01*
X184268101Y-145314546D01*
X184264566Y-145360184D01*
X184167724Y-145360184D01*
X184167452Y-145355514D01*
X184172284Y-145300766D01*
X184186057Y-145254589D01*
X184208489Y-145215180D01*
X184238475Y-145183022D01*
X184275396Y-145158841D01*
X184320644Y-145142678D01*
X184320644Y-145138303D01*
X184282070Y-145108598D01*
X184252769Y-145071847D01*
X184238862Y-145043157D01*
X184230307Y-145010310D01*
X184228507Y-144987401D01*
X184324393Y-144987401D01*
X184326830Y-145021608D01*
X184333578Y-145049138D01*
X184345842Y-145072568D01*
X184364924Y-145091656D01*
X184388027Y-145105305D01*
X184413039Y-145113333D01*
X184441184Y-145117066D01*
X184482767Y-145118543D01*
X184603433Y-145118543D01*
X184603433Y-144882604D01*
X184492205Y-144882604D01*
X184413966Y-144886193D01*
X184383989Y-144892813D01*
X184360206Y-144904576D01*
X184343768Y-144919326D01*
X184332904Y-144937460D01*
X184326672Y-144959229D01*
X184324393Y-144987401D01*
X184228507Y-144987401D01*
X184227322Y-144972310D01*
X184231905Y-144923030D01*
X184244764Y-144883293D01*
X184258299Y-144860590D01*
X184276727Y-144840329D01*
X184300842Y-144822391D01*
X184336621Y-144805012D01*
X184373898Y-144794865D01*
X184416936Y-144790181D01*
X184488918Y-144788229D01*
X184696755Y-144788229D01*
X184696755Y-145606150D01*
G37*
G36*
X188125897Y-148090229D02*
G01*
X188308328Y-148908150D01*
X188413405Y-148908150D01*
X188560951Y-148229187D01*
X188705169Y-148908150D01*
X188807928Y-148908150D01*
X188993646Y-148090229D01*
X188897964Y-148090229D01*
X188750418Y-148770273D01*
X188605274Y-148090229D01*
X188510519Y-148090229D01*
X188363943Y-148776860D01*
X188217324Y-148090229D01*
X188125897Y-148090229D01*
G37*
G36*
X187171357Y-148090229D02*
G01*
X187353788Y-148908150D01*
X187458865Y-148908150D01*
X187606411Y-148229187D01*
X187750629Y-148908150D01*
X187853388Y-148908150D01*
X188039106Y-148090229D01*
X187943424Y-148090229D01*
X187795878Y-148770273D01*
X187650734Y-148090229D01*
X187555979Y-148090229D01*
X187409402Y-148776860D01*
X187262783Y-148090229D01*
X187171357Y-148090229D01*
G37*
G36*
X186722568Y-148052479D02*
G01*
X187060550Y-149074879D01*
X187142076Y-149074879D01*
X186805526Y-148052479D01*
X186722568Y-148052479D01*
G37*
G36*
X186098679Y-148090229D02*
G01*
X186345656Y-148549474D01*
X186345656Y-148908150D01*
X186438979Y-148908150D01*
X186438979Y-148560976D01*
X186686925Y-148090229D01*
X186583702Y-148090229D01*
X186391833Y-148456081D01*
X186198111Y-148090229D01*
X186098679Y-148090229D01*
G37*
G36*
X185504788Y-148090229D02*
G01*
X185751765Y-148549474D01*
X185751765Y-148908150D01*
X185845087Y-148908150D01*
X185845087Y-148560976D01*
X186093034Y-148090229D01*
X185989810Y-148090229D01*
X185797942Y-148456081D01*
X185604219Y-148090229D01*
X185504788Y-148090229D01*
G37*
G36*
X121218824Y-111078764D02*
G01*
X121440988Y-111790000D01*
X121549175Y-111790000D01*
X121771338Y-111078764D01*
X121684437Y-111078764D01*
X121493048Y-111704515D01*
X121301623Y-111078764D01*
X121218824Y-111078764D01*
G37*
G36*
X121126134Y-111790000D02*
G01*
X120909723Y-111790000D01*
X120849047Y-111786318D01*
X120805016Y-111776707D01*
X120765626Y-111758912D01*
X120729398Y-111731955D01*
X120703425Y-111702441D01*
X120683090Y-111665362D01*
X120673708Y-111637717D01*
X120667892Y-111606809D01*
X120666107Y-111576116D01*
X120750318Y-111576116D01*
X120753219Y-111611080D01*
X120760979Y-111636639D01*
X120774289Y-111658287D01*
X120794575Y-111678399D01*
X120818384Y-111692224D01*
X120850335Y-111701608D01*
X120886730Y-111706171D01*
X120937603Y-111707934D01*
X121044984Y-111707934D01*
X121044984Y-111448060D01*
X120917526Y-111448060D01*
X120849309Y-111451607D01*
X120822562Y-111457407D01*
X120801535Y-111466823D01*
X120776160Y-111486902D01*
X120761382Y-111509053D01*
X120753392Y-111536431D01*
X120750318Y-111576116D01*
X120666107Y-111576116D01*
X120665871Y-111572056D01*
X120670073Y-111524449D01*
X120682049Y-111484295D01*
X120701555Y-111450026D01*
X120727630Y-111422062D01*
X120759735Y-111401035D01*
X120799081Y-111386980D01*
X120799081Y-111383176D01*
X120765538Y-111357346D01*
X120740060Y-111325389D01*
X120727966Y-111300441D01*
X120720527Y-111271878D01*
X120718962Y-111251957D01*
X120802341Y-111251957D01*
X120804461Y-111281703D01*
X120810328Y-111305642D01*
X120820992Y-111326015D01*
X120837586Y-111342614D01*
X120857675Y-111354483D01*
X120879424Y-111361463D01*
X120903899Y-111364710D01*
X120940058Y-111365994D01*
X121044984Y-111365994D01*
X121044984Y-111160830D01*
X120948264Y-111160830D01*
X120880230Y-111163950D01*
X120854164Y-111169707D01*
X120833482Y-111179936D01*
X120819189Y-111192761D01*
X120809742Y-111208531D01*
X120804323Y-111227460D01*
X120802341Y-111251957D01*
X120718962Y-111251957D01*
X120717931Y-111238835D01*
X120721917Y-111195983D01*
X120733099Y-111161428D01*
X120744868Y-111141687D01*
X120760892Y-111124068D01*
X120781862Y-111108470D01*
X120812974Y-111093358D01*
X120845389Y-111084535D01*
X120882813Y-111080462D01*
X120945407Y-111078764D01*
X121126134Y-111078764D01*
X121126134Y-111790000D01*
G37*
G36*
X120621834Y-111790000D02*
G01*
X120539438Y-111790000D01*
X120479611Y-111593042D01*
X120215646Y-111593042D01*
X120155818Y-111790000D01*
X120069320Y-111790000D01*
X120156476Y-111510976D01*
X120240668Y-111510976D01*
X120455028Y-111510976D01*
X120347647Y-111161386D01*
X120240668Y-111510976D01*
X120156476Y-111510976D01*
X120291483Y-111078764D01*
X120399670Y-111078764D01*
X120621834Y-111790000D01*
G37*
G36*
X119590592Y-111163565D02*
G01*
X119808652Y-111163565D01*
X119808652Y-111790000D01*
X119889801Y-111790000D01*
X119889801Y-111163565D01*
X120107861Y-111163565D01*
X120107861Y-111078764D01*
X119590592Y-111078764D01*
X119590592Y-111163565D01*
G37*
G36*
X188932106Y-147257150D02*
G01*
X189044766Y-147257150D01*
X189044766Y-147099857D01*
X188932106Y-147099857D01*
X188932106Y-147257150D01*
G37*
G36*
X188718497Y-147257150D02*
G01*
X188625175Y-147257150D01*
X188625175Y-146952002D01*
X188531853Y-146952002D01*
X188481608Y-146949342D01*
X188440450Y-146942019D01*
X188406974Y-146930866D01*
X188375252Y-146914312D01*
X188346754Y-146893227D01*
X188321151Y-146867458D01*
X188295295Y-146830512D01*
X188275691Y-146787042D01*
X188263574Y-146739149D01*
X188259628Y-146688832D01*
X188356500Y-146688832D01*
X188358885Y-146723619D01*
X188365684Y-146753617D01*
X188377765Y-146781181D01*
X188397031Y-146808620D01*
X188421901Y-146830368D01*
X188454541Y-146845928D01*
X188492589Y-146854358D01*
X188546472Y-146857627D01*
X188625175Y-146857627D01*
X188625175Y-146533604D01*
X188532780Y-146533604D01*
X188490405Y-146535647D01*
X188459512Y-146540978D01*
X188431767Y-146550847D01*
X188407858Y-146565210D01*
X188385137Y-146587790D01*
X188369224Y-146615839D01*
X188359843Y-146648679D01*
X188356500Y-146688832D01*
X188259628Y-146688832D01*
X188259428Y-146686276D01*
X188262127Y-146639223D01*
X188269638Y-146600354D01*
X188281336Y-146568258D01*
X188297832Y-146539033D01*
X188318368Y-146513124D01*
X188343312Y-146490300D01*
X188379259Y-146467693D01*
X188421088Y-146451616D01*
X188467366Y-146442609D01*
X188528103Y-146439229D01*
X188718497Y-146439229D01*
X188718497Y-147257150D01*
G37*
G36*
X187814641Y-146756960D02*
G01*
X187819360Y-146756960D01*
X187857784Y-146749783D01*
X187901854Y-146747522D01*
X187941999Y-146752756D01*
X187981020Y-146768609D01*
X188018155Y-146792523D01*
X188054540Y-146823072D01*
X188054540Y-147257150D01*
X188143144Y-147257150D01*
X188143144Y-146643709D01*
X188054540Y-146643709D01*
X188054540Y-146734349D01*
X188002235Y-146690140D01*
X187961471Y-146664305D01*
X187920507Y-146648797D01*
X187879230Y-146643709D01*
X187845735Y-146645085D01*
X187814641Y-146650345D01*
X187814641Y-146756960D01*
G37*
G36*
X187580001Y-146633780D02*
G01*
X187626899Y-146650336D01*
X187667478Y-146677135D01*
X187702781Y-146714687D01*
X187730521Y-146759868D01*
X187750970Y-146813163D01*
X187763911Y-146876126D01*
X187768507Y-146950724D01*
X187763907Y-147025330D01*
X187750961Y-147088238D01*
X187730513Y-147141427D01*
X187702781Y-147186466D01*
X187667494Y-147223877D01*
X187626921Y-147250588D01*
X187580017Y-147267095D01*
X187525280Y-147272879D01*
X187471067Y-147267118D01*
X187424436Y-147250647D01*
X187383931Y-147223940D01*
X187348536Y-147186466D01*
X187320689Y-147141409D01*
X187300163Y-147088212D01*
X187287173Y-147025311D01*
X187282558Y-146950724D01*
X187373984Y-146950724D01*
X187376989Y-147009101D01*
X187385235Y-147056068D01*
X187397836Y-147093641D01*
X187414304Y-147123500D01*
X187436186Y-147148795D01*
X187461467Y-147166731D01*
X187490824Y-147177778D01*
X187525280Y-147181649D01*
X187560228Y-147177725D01*
X187589847Y-147166552D01*
X187615207Y-147148450D01*
X187637013Y-147122959D01*
X187653416Y-147092849D01*
X187665938Y-147055227D01*
X187674110Y-147008491D01*
X187677081Y-146950724D01*
X187674067Y-146890705D01*
X187665852Y-146843064D01*
X187653401Y-146805549D01*
X187637266Y-146776277D01*
X187615650Y-146751605D01*
X187590331Y-146733986D01*
X187560572Y-146723059D01*
X187525280Y-146719210D01*
X187490512Y-146723036D01*
X187461025Y-146733926D01*
X187435772Y-146751540D01*
X187414051Y-146776277D01*
X187397805Y-146805570D01*
X187385276Y-146843093D01*
X187377014Y-146890727D01*
X187373984Y-146950724D01*
X187282558Y-146950724D01*
X187287169Y-146876145D01*
X187300154Y-146813188D01*
X187320680Y-146759887D01*
X187348536Y-146714687D01*
X187383947Y-146677072D01*
X187424458Y-146650277D01*
X187471082Y-146633757D01*
X187525280Y-146627980D01*
X187580001Y-146633780D01*
G37*
G36*
X186981441Y-146539896D02*
G01*
X187081378Y-146539896D01*
X187081378Y-146432937D01*
X186981441Y-146432937D01*
X186981441Y-146539896D01*
G37*
G36*
X186987087Y-147272338D02*
G01*
X186990487Y-147326377D01*
X186999910Y-147370325D01*
X187014570Y-147406046D01*
X187034232Y-147434988D01*
X187059158Y-147458543D01*
X187087973Y-147475582D01*
X187121431Y-147486205D01*
X187160544Y-147489942D01*
X187210302Y-147485420D01*
X187261913Y-147474213D01*
X187261913Y-147373546D01*
X187257194Y-147373546D01*
X187221635Y-147387653D01*
X187199259Y-147393637D01*
X187178029Y-147395567D01*
X187145944Y-147392530D01*
X187123341Y-147384605D01*
X187105087Y-147370830D01*
X187092248Y-147351820D01*
X187083872Y-147328415D01*
X187078808Y-147299029D01*
X187075732Y-147223872D01*
X187075732Y-146731793D01*
X187185528Y-146731793D01*
X187185528Y-146643709D01*
X186987087Y-146643709D01*
X186987087Y-147272338D01*
G37*
G36*
X186650781Y-146633835D02*
G01*
X186699606Y-146650612D01*
X186742318Y-146677840D01*
X186779924Y-146716015D01*
X186809861Y-146762155D01*
X186831745Y-146816089D01*
X186845503Y-146879315D01*
X186850369Y-146953772D01*
X186847041Y-147015080D01*
X186837609Y-147067951D01*
X186822660Y-147113653D01*
X186802441Y-147153238D01*
X186776849Y-147187498D01*
X186738210Y-147222248D01*
X186692265Y-147247801D01*
X186637571Y-147263976D01*
X186572256Y-147269733D01*
X186521716Y-147265992D01*
X186474257Y-147254987D01*
X186428069Y-147238430D01*
X186382789Y-147218318D01*
X186382789Y-147106149D01*
X186387508Y-147106149D01*
X186415220Y-147127918D01*
X186465031Y-147154123D01*
X186519832Y-147172528D01*
X186573225Y-147178503D01*
X186612660Y-147175151D01*
X186647462Y-147165527D01*
X186679112Y-147149100D01*
X186705646Y-147126548D01*
X186728097Y-147096783D01*
X186745713Y-147058617D01*
X186756473Y-147014949D01*
X186760333Y-146961440D01*
X186372425Y-146961440D01*
X186372425Y-146905601D01*
X186373832Y-146882794D01*
X186458669Y-146882794D01*
X186760333Y-146882794D01*
X186752361Y-146836640D01*
X186736500Y-146796673D01*
X186712513Y-146761678D01*
X186690220Y-146740810D01*
X186664387Y-146725687D01*
X186634331Y-146716244D01*
X186599136Y-146712918D01*
X186563767Y-146716119D01*
X186535246Y-146724972D01*
X186512257Y-146738751D01*
X186493807Y-146757304D01*
X186475231Y-146789205D01*
X186463246Y-146830181D01*
X186458669Y-146882794D01*
X186373832Y-146882794D01*
X186376537Y-146838925D01*
X186388014Y-146783761D01*
X186405986Y-146738080D01*
X186430187Y-146700285D01*
X186460910Y-146669580D01*
X186497640Y-146647163D01*
X186541595Y-146633017D01*
X186594418Y-146627980D01*
X186650781Y-146633835D01*
G37*
G36*
X185848767Y-147217286D02*
G01*
X185892894Y-147239782D01*
X185932905Y-147255921D01*
X185973575Y-147266216D01*
X186017506Y-147269733D01*
X186072985Y-147264706D01*
X186122161Y-147250219D01*
X186152671Y-147234809D01*
X186179723Y-147215165D01*
X186203686Y-147191185D01*
X186224519Y-147163106D01*
X186242295Y-147130000D01*
X186256983Y-147091206D01*
X186267128Y-147050326D01*
X186273552Y-147003525D01*
X186275816Y-146949938D01*
X186270885Y-146875060D01*
X186256992Y-146812039D01*
X186234968Y-146758787D01*
X186204908Y-146713704D01*
X186167214Y-146676689D01*
X186124177Y-146650148D01*
X186074755Y-146633726D01*
X186017506Y-146627980D01*
X185972690Y-146631712D01*
X185928649Y-146642923D01*
X185886323Y-146659728D01*
X185848767Y-146679346D01*
X185848767Y-146794710D01*
X185853486Y-146794710D01*
X185895182Y-146762197D01*
X185937160Y-146738773D01*
X185980396Y-146723955D01*
X186021297Y-146719210D01*
X186058235Y-146723144D01*
X186089738Y-146734356D01*
X186116858Y-146752477D01*
X186140320Y-146777850D01*
X186158304Y-146808217D01*
X186171907Y-146845921D01*
X186180730Y-146892523D01*
X186183927Y-146949938D01*
X186180833Y-147005604D01*
X186172252Y-147051299D01*
X186158952Y-147088738D01*
X186141289Y-147119322D01*
X186118248Y-147144812D01*
X186091167Y-147163101D01*
X186059239Y-147174484D01*
X186021297Y-147178503D01*
X185994400Y-147176495D01*
X185966610Y-147170344D01*
X185939756Y-147160773D01*
X185916642Y-147149158D01*
X185880366Y-147125024D01*
X185853486Y-147103003D01*
X185848767Y-147103003D01*
X185848767Y-147217286D01*
G37*
G36*
X185461870Y-147252185D02*
G01*
X185516305Y-147264768D01*
X185568885Y-147269733D01*
X185609154Y-147266141D01*
X185642163Y-147256138D01*
X185669253Y-147240473D01*
X185691447Y-147219301D01*
X185708485Y-147192918D01*
X185721559Y-147158535D01*
X185730190Y-147114210D01*
X185733368Y-147057536D01*
X185733368Y-146731793D01*
X185793195Y-146731793D01*
X185793195Y-146643709D01*
X185733368Y-146643709D01*
X185733368Y-146467542D01*
X185644723Y-146467542D01*
X185644723Y-146643709D01*
X185461870Y-146643709D01*
X185461870Y-146731793D01*
X185644723Y-146731793D01*
X185644723Y-147010446D01*
X185642869Y-147085750D01*
X185638607Y-147111961D01*
X185629639Y-147136329D01*
X185617219Y-147155435D01*
X185601158Y-147168378D01*
X185580463Y-147175541D01*
X185545755Y-147178503D01*
X185523914Y-147176784D01*
X185500505Y-147171425D01*
X185466589Y-147159628D01*
X185461870Y-147159628D01*
X185461870Y-147252185D01*
G37*
G36*
X184812491Y-147257150D02*
G01*
X184927975Y-147257150D01*
X185260775Y-146525494D01*
X185260775Y-147257150D01*
X185347946Y-147257150D01*
X185347946Y-146439229D01*
X185203265Y-146439229D01*
X184899704Y-147107181D01*
X184899704Y-146439229D01*
X184812491Y-146439229D01*
X184812491Y-147257150D01*
G37*
G36*
X184196607Y-147257150D02*
G01*
X184285211Y-147257150D01*
X184285211Y-147187941D01*
X184330362Y-147225202D01*
X184370991Y-147250956D01*
X184413595Y-147267272D01*
X184461491Y-147272879D01*
X184502461Y-147268832D01*
X184536890Y-147257404D01*
X184565997Y-147239165D01*
X184590667Y-147213992D01*
X184609803Y-147183287D01*
X184624190Y-147145322D01*
X184633484Y-147098557D01*
X184636844Y-147041069D01*
X184636844Y-146643709D01*
X184548240Y-146643709D01*
X184548240Y-146992653D01*
X184544490Y-147072478D01*
X184538385Y-147103950D01*
X184528438Y-147129251D01*
X184513653Y-147150316D01*
X184495449Y-147164396D01*
X184472708Y-147172202D01*
X184436506Y-147175357D01*
X184401771Y-147170487D01*
X184361343Y-147154516D01*
X184321961Y-147130817D01*
X184285211Y-147101283D01*
X184285211Y-146643709D01*
X184196607Y-146643709D01*
X184196607Y-147257150D01*
G37*
G36*
X183254033Y-147257150D02*
G01*
X183342636Y-147257150D01*
X183342636Y-146908206D01*
X183345712Y-146831968D01*
X183350806Y-146797368D01*
X183358646Y-146773230D01*
X183371884Y-146752502D01*
X183389782Y-146737593D01*
X183412536Y-146728954D01*
X183448219Y-146725501D01*
X183484952Y-146730773D01*
X183522708Y-146747178D01*
X183559343Y-146771376D01*
X183597155Y-146802329D01*
X183594838Y-146831674D01*
X183593869Y-146864852D01*
X183593869Y-147257150D01*
X183682472Y-147257150D01*
X183682472Y-146908206D01*
X183685548Y-146831133D01*
X183690638Y-146796756D01*
X183698482Y-146772689D01*
X183711727Y-146752014D01*
X183729618Y-146737298D01*
X183752352Y-146728874D01*
X183788054Y-146725501D01*
X183823886Y-146730564D01*
X183860900Y-146746342D01*
X183896832Y-146769682D01*
X183933704Y-146799576D01*
X183933704Y-147257150D01*
X184022308Y-147257150D01*
X184022308Y-146643709D01*
X183933704Y-146643709D01*
X183933704Y-146711787D01*
X183891437Y-146676001D01*
X183851000Y-146650148D01*
X183808541Y-146633559D01*
X183763070Y-146627980D01*
X183727848Y-146631098D01*
X183697749Y-146639937D01*
X183671897Y-146654031D01*
X183648950Y-146673672D01*
X183630450Y-146697537D01*
X183616030Y-146726091D01*
X183562299Y-146679505D01*
X183517989Y-146651033D01*
X183472361Y-146633797D01*
X183423234Y-146627980D01*
X183380261Y-146632316D01*
X183345651Y-146644350D01*
X183317721Y-146663249D01*
X183295280Y-146689078D01*
X183278166Y-146720488D01*
X183265290Y-146758501D01*
X183257008Y-146804413D01*
X183254033Y-146859790D01*
X183254033Y-147257150D01*
G37*
G36*
X183083272Y-147257150D02*
G01*
X183000314Y-147257150D01*
X182994669Y-147227461D01*
X182961688Y-147246239D01*
X182928690Y-147260541D01*
X182893606Y-147269598D01*
X182850451Y-147272879D01*
X182803918Y-147267370D01*
X182762311Y-147251300D01*
X182724447Y-147224769D01*
X182688749Y-147186466D01*
X182660918Y-147140971D01*
X182638570Y-147083636D01*
X182624796Y-147019930D01*
X182620054Y-146947382D01*
X182711374Y-146947382D01*
X182714548Y-147008393D01*
X182723170Y-147056370D01*
X182736203Y-147093767D01*
X182753085Y-147122615D01*
X182775507Y-147146707D01*
X182801648Y-147163986D01*
X182832246Y-147174722D01*
X182868357Y-147178503D01*
X182901758Y-147176494D01*
X182929870Y-147170884D01*
X182957964Y-147160920D01*
X182994669Y-147143604D01*
X182994669Y-146794710D01*
X182959312Y-146766988D01*
X182921149Y-146744868D01*
X182881274Y-146730219D01*
X182842868Y-146725501D01*
X182809016Y-146729419D01*
X182781878Y-146740334D01*
X182760010Y-146757695D01*
X182742509Y-146781930D01*
X182726376Y-146821369D01*
X182715477Y-146875161D01*
X182711374Y-146947382D01*
X182620054Y-146947382D01*
X182619948Y-146945760D01*
X182623883Y-146868935D01*
X182634795Y-146805656D01*
X182651660Y-146753686D01*
X182673919Y-146711148D01*
X182703529Y-146674601D01*
X182737308Y-146649010D01*
X182776089Y-146633410D01*
X182821212Y-146627980D01*
X182871666Y-146633832D01*
X182915503Y-146650689D01*
X182956064Y-146676465D01*
X182994669Y-146708936D01*
X182994669Y-146401479D01*
X183083272Y-146401479D01*
X183083272Y-147257150D01*
G37*
G36*
X182319622Y-146633835D02*
G01*
X182368448Y-146650612D01*
X182411159Y-146677840D01*
X182448766Y-146716015D01*
X182478703Y-146762155D01*
X182500587Y-146816089D01*
X182514345Y-146879315D01*
X182519210Y-146953772D01*
X182515883Y-147015080D01*
X182506451Y-147067951D01*
X182491501Y-147113653D01*
X182471283Y-147153238D01*
X182445690Y-147187498D01*
X182407051Y-147222248D01*
X182361107Y-147247801D01*
X182306412Y-147263976D01*
X182241098Y-147269733D01*
X182190557Y-147265992D01*
X182143099Y-147254987D01*
X182096911Y-147238430D01*
X182051631Y-147218318D01*
X182051631Y-147106149D01*
X182056349Y-147106149D01*
X182084062Y-147127918D01*
X182133872Y-147154123D01*
X182188674Y-147172528D01*
X182242067Y-147178503D01*
X182281502Y-147175151D01*
X182316303Y-147165527D01*
X182347954Y-147149100D01*
X182374487Y-147126548D01*
X182396938Y-147096783D01*
X182414555Y-147058617D01*
X182425314Y-147014949D01*
X182429175Y-146961440D01*
X182041266Y-146961440D01*
X182041266Y-146905601D01*
X182042673Y-146882794D01*
X182127510Y-146882794D01*
X182429175Y-146882794D01*
X182421202Y-146836640D01*
X182405341Y-146796673D01*
X182381355Y-146761678D01*
X182359062Y-146740810D01*
X182333229Y-146725687D01*
X182303173Y-146716244D01*
X182267978Y-146712918D01*
X182232608Y-146716119D01*
X182204087Y-146724972D01*
X182181099Y-146738751D01*
X182162648Y-146757304D01*
X182144072Y-146789205D01*
X182132087Y-146830181D01*
X182127510Y-146882794D01*
X182042673Y-146882794D01*
X182045378Y-146838925D01*
X182056856Y-146783761D01*
X182074828Y-146738080D01*
X182099029Y-146700285D01*
X182129752Y-146669580D01*
X182166482Y-146647163D01*
X182210436Y-146633017D01*
X182263259Y-146627980D01*
X182319622Y-146633835D01*
G37*
G36*
X181578447Y-146756960D02*
G01*
X181583166Y-146756960D01*
X181621590Y-146749783D01*
X181665660Y-146747522D01*
X181705805Y-146752756D01*
X181744826Y-146768609D01*
X181781961Y-146792523D01*
X181818346Y-146823072D01*
X181818346Y-147257150D01*
X181906950Y-147257150D01*
X181906950Y-146643709D01*
X181818346Y-146643709D01*
X181818346Y-146734349D01*
X181766041Y-146690140D01*
X181725277Y-146664305D01*
X181684313Y-146648797D01*
X181643036Y-146643709D01*
X181609541Y-146645085D01*
X181578447Y-146650345D01*
X181578447Y-146756960D01*
G37*
D14*
X126104116Y-114769185D02*
X126790116Y-114978685D01*
X126790116Y-114978685D02*
X126104116Y-115188185D01*
X126757450Y-115367756D02*
X126790116Y-115457542D01*
X126790116Y-115457542D02*
X126790116Y-115607184D01*
X126790116Y-115607184D02*
X126757450Y-115667042D01*
X126757450Y-115667042D02*
X126724783Y-115696970D01*
X126724783Y-115696970D02*
X126659450Y-115726899D01*
X126659450Y-115726899D02*
X126594116Y-115726899D01*
X126594116Y-115726899D02*
X126528783Y-115696970D01*
X126528783Y-115696970D02*
X126496116Y-115667042D01*
X126496116Y-115667042D02*
X126463450Y-115607184D01*
X126463450Y-115607184D02*
X126430783Y-115487470D01*
X126430783Y-115487470D02*
X126398116Y-115427613D01*
X126398116Y-115427613D02*
X126365450Y-115397684D01*
X126365450Y-115397684D02*
X126300116Y-115367756D01*
X126300116Y-115367756D02*
X126234783Y-115367756D01*
X126234783Y-115367756D02*
X126169450Y-115397684D01*
X126169450Y-115397684D02*
X126136783Y-115427613D01*
X126136783Y-115427613D02*
X126104116Y-115487470D01*
X126104116Y-115487470D02*
X126104116Y-115637113D01*
X126104116Y-115637113D02*
X126136783Y-115726899D01*
X126104116Y-115936398D02*
X126790116Y-116086041D01*
X126790116Y-116086041D02*
X126300116Y-116205755D01*
X126300116Y-116205755D02*
X126790116Y-116325470D01*
X126790116Y-116325470D02*
X126104116Y-116475113D01*
X122321814Y-133431116D02*
X121962672Y-133431116D01*
X122142243Y-134117116D02*
X122142243Y-133431116D01*
X121813029Y-134117116D02*
X121483815Y-133659783D01*
X121813029Y-133659783D02*
X121483815Y-134117116D01*
X120975029Y-133659783D02*
X120975029Y-134117116D01*
X121124671Y-133398450D02*
X121274314Y-133888450D01*
X121274314Y-133888450D02*
X120885243Y-133888450D01*
X122152457Y-131431116D02*
X122152457Y-131921116D01*
X122152457Y-131921116D02*
X122182386Y-132019116D01*
X122182386Y-132019116D02*
X122242243Y-132084450D01*
X122242243Y-132084450D02*
X122332029Y-132117116D01*
X122332029Y-132117116D02*
X122391886Y-132117116D01*
X121523957Y-131463783D02*
X121583815Y-131431116D01*
X121583815Y-131431116D02*
X121673600Y-131431116D01*
X121673600Y-131431116D02*
X121763386Y-131463783D01*
X121763386Y-131463783D02*
X121823243Y-131529116D01*
X121823243Y-131529116D02*
X121853172Y-131594450D01*
X121853172Y-131594450D02*
X121883100Y-131725116D01*
X121883100Y-131725116D02*
X121883100Y-131823116D01*
X121883100Y-131823116D02*
X121853172Y-131953783D01*
X121853172Y-131953783D02*
X121823243Y-132019116D01*
X121823243Y-132019116D02*
X121763386Y-132084450D01*
X121763386Y-132084450D02*
X121673600Y-132117116D01*
X121673600Y-132117116D02*
X121613743Y-132117116D01*
X121613743Y-132117116D02*
X121523957Y-132084450D01*
X121523957Y-132084450D02*
X121494029Y-132051783D01*
X121494029Y-132051783D02*
X121494029Y-131823116D01*
X121494029Y-131823116D02*
X121613743Y-131823116D01*
X121224672Y-132117116D02*
X121224672Y-131431116D01*
X121224672Y-131431116D02*
X120865529Y-132117116D01*
X120865529Y-132117116D02*
X120865529Y-131431116D01*
X120566243Y-132117116D02*
X120566243Y-131431116D01*
X120566243Y-131431116D02*
X120416600Y-131431116D01*
X120416600Y-131431116D02*
X120326814Y-131463783D01*
X120326814Y-131463783D02*
X120266957Y-131529116D01*
X120266957Y-131529116D02*
X120237028Y-131594450D01*
X120237028Y-131594450D02*
X120207100Y-131725116D01*
X120207100Y-131725116D02*
X120207100Y-131823116D01*
X120207100Y-131823116D02*
X120237028Y-131953783D01*
X120237028Y-131953783D02*
X120266957Y-132019116D01*
X120266957Y-132019116D02*
X120326814Y-132084450D01*
X120326814Y-132084450D02*
X120416600Y-132117116D01*
X120416600Y-132117116D02*
X120566243Y-132117116D01*
X122002814Y-137463783D02*
X122062672Y-137431116D01*
X122062672Y-137431116D02*
X122152457Y-137431116D01*
X122152457Y-137431116D02*
X122242243Y-137463783D01*
X122242243Y-137463783D02*
X122302100Y-137529116D01*
X122302100Y-137529116D02*
X122332029Y-137594450D01*
X122332029Y-137594450D02*
X122361957Y-137725116D01*
X122361957Y-137725116D02*
X122361957Y-137823116D01*
X122361957Y-137823116D02*
X122332029Y-137953783D01*
X122332029Y-137953783D02*
X122302100Y-138019116D01*
X122302100Y-138019116D02*
X122242243Y-138084450D01*
X122242243Y-138084450D02*
X122152457Y-138117116D01*
X122152457Y-138117116D02*
X122092600Y-138117116D01*
X122092600Y-138117116D02*
X122002814Y-138084450D01*
X122002814Y-138084450D02*
X121972886Y-138051783D01*
X121972886Y-138051783D02*
X121972886Y-137823116D01*
X121972886Y-137823116D02*
X122092600Y-137823116D01*
X121703529Y-138117116D02*
X121703529Y-137431116D01*
X121703529Y-137431116D02*
X121344386Y-138117116D01*
X121344386Y-138117116D02*
X121344386Y-137431116D01*
X121045100Y-138117116D02*
X121045100Y-137431116D01*
X121045100Y-137431116D02*
X120895457Y-137431116D01*
X120895457Y-137431116D02*
X120805671Y-137463783D01*
X120805671Y-137463783D02*
X120745814Y-137529116D01*
X120745814Y-137529116D02*
X120715885Y-137594450D01*
X120715885Y-137594450D02*
X120685957Y-137725116D01*
X120685957Y-137725116D02*
X120685957Y-137823116D01*
X120685957Y-137823116D02*
X120715885Y-137953783D01*
X120715885Y-137953783D02*
X120745814Y-138019116D01*
X120745814Y-138019116D02*
X120805671Y-138084450D01*
X120805671Y-138084450D02*
X120895457Y-138117116D01*
X120895457Y-138117116D02*
X121045100Y-138117116D01*
X120147243Y-137659783D02*
X120147243Y-138117116D01*
X120296885Y-137398450D02*
X120446528Y-137888450D01*
X120446528Y-137888450D02*
X120057457Y-137888450D01*
X120490116Y-144358970D02*
X119804116Y-144358970D01*
X119804116Y-144358970D02*
X120294116Y-144568470D01*
X120294116Y-144568470D02*
X119804116Y-144777970D01*
X119804116Y-144777970D02*
X120490116Y-144777970D01*
X122252457Y-123431116D02*
X122252457Y-123921116D01*
X122252457Y-123921116D02*
X122282386Y-124019116D01*
X122282386Y-124019116D02*
X122342243Y-124084450D01*
X122342243Y-124084450D02*
X122432029Y-124117116D01*
X122432029Y-124117116D02*
X122491886Y-124117116D01*
X121983100Y-124084450D02*
X121893315Y-124117116D01*
X121893315Y-124117116D02*
X121743672Y-124117116D01*
X121743672Y-124117116D02*
X121683815Y-124084450D01*
X121683815Y-124084450D02*
X121653886Y-124051783D01*
X121653886Y-124051783D02*
X121623957Y-123986450D01*
X121623957Y-123986450D02*
X121623957Y-123921116D01*
X121623957Y-123921116D02*
X121653886Y-123855783D01*
X121653886Y-123855783D02*
X121683815Y-123823116D01*
X121683815Y-123823116D02*
X121743672Y-123790450D01*
X121743672Y-123790450D02*
X121863386Y-123757783D01*
X121863386Y-123757783D02*
X121923243Y-123725116D01*
X121923243Y-123725116D02*
X121953172Y-123692450D01*
X121953172Y-123692450D02*
X121983100Y-123627116D01*
X121983100Y-123627116D02*
X121983100Y-123561783D01*
X121983100Y-123561783D02*
X121953172Y-123496450D01*
X121953172Y-123496450D02*
X121923243Y-123463783D01*
X121923243Y-123463783D02*
X121863386Y-123431116D01*
X121863386Y-123431116D02*
X121713743Y-123431116D01*
X121713743Y-123431116D02*
X121623957Y-123463783D01*
X121414458Y-123431116D02*
X121264815Y-124117116D01*
X121264815Y-124117116D02*
X121145101Y-123627116D01*
X121145101Y-123627116D02*
X121025386Y-124117116D01*
X121025386Y-124117116D02*
X120875744Y-123431116D01*
X120277172Y-124051783D02*
X120307100Y-124084450D01*
X120307100Y-124084450D02*
X120396886Y-124117116D01*
X120396886Y-124117116D02*
X120456743Y-124117116D01*
X120456743Y-124117116D02*
X120546529Y-124084450D01*
X120546529Y-124084450D02*
X120606386Y-124019116D01*
X120606386Y-124019116D02*
X120636315Y-123953783D01*
X120636315Y-123953783D02*
X120666243Y-123823116D01*
X120666243Y-123823116D02*
X120666243Y-123725116D01*
X120666243Y-123725116D02*
X120636315Y-123594450D01*
X120636315Y-123594450D02*
X120606386Y-123529116D01*
X120606386Y-123529116D02*
X120546529Y-123463783D01*
X120546529Y-123463783D02*
X120456743Y-123431116D01*
X120456743Y-123431116D02*
X120396886Y-123431116D01*
X120396886Y-123431116D02*
X120307100Y-123463783D01*
X120307100Y-123463783D02*
X120277172Y-123496450D01*
X122121814Y-117431116D02*
X121912314Y-118117116D01*
X121912314Y-118117116D02*
X121702814Y-117431116D01*
X121493315Y-118117116D02*
X121493315Y-117431116D01*
X121194029Y-118117116D02*
X121194029Y-117431116D01*
X121194029Y-117431116D02*
X120834886Y-118117116D01*
X120834886Y-118117116D02*
X120834886Y-117431116D01*
X122252457Y-119531116D02*
X122252457Y-120021116D01*
X122252457Y-120021116D02*
X122282386Y-120119116D01*
X122282386Y-120119116D02*
X122342243Y-120184450D01*
X122342243Y-120184450D02*
X122432029Y-120217116D01*
X122432029Y-120217116D02*
X122491886Y-120217116D01*
X121623957Y-120217116D02*
X121983100Y-120217116D01*
X121803529Y-120217116D02*
X121803529Y-119531116D01*
X121803529Y-119531116D02*
X121863386Y-119629116D01*
X121863386Y-119629116D02*
X121923243Y-119694450D01*
X121923243Y-119694450D02*
X121983100Y-119727116D01*
X121444386Y-119531116D02*
X121234886Y-120217116D01*
X121234886Y-120217116D02*
X121025386Y-119531116D01*
X120726101Y-119825116D02*
X120785958Y-119792450D01*
X120785958Y-119792450D02*
X120815887Y-119759783D01*
X120815887Y-119759783D02*
X120845815Y-119694450D01*
X120845815Y-119694450D02*
X120845815Y-119661783D01*
X120845815Y-119661783D02*
X120815887Y-119596450D01*
X120815887Y-119596450D02*
X120785958Y-119563783D01*
X120785958Y-119563783D02*
X120726101Y-119531116D01*
X120726101Y-119531116D02*
X120606387Y-119531116D01*
X120606387Y-119531116D02*
X120546530Y-119563783D01*
X120546530Y-119563783D02*
X120516601Y-119596450D01*
X120516601Y-119596450D02*
X120486672Y-119661783D01*
X120486672Y-119661783D02*
X120486672Y-119694450D01*
X120486672Y-119694450D02*
X120516601Y-119759783D01*
X120516601Y-119759783D02*
X120546530Y-119792450D01*
X120546530Y-119792450D02*
X120606387Y-119825116D01*
X120606387Y-119825116D02*
X120726101Y-119825116D01*
X120726101Y-119825116D02*
X120785958Y-119857783D01*
X120785958Y-119857783D02*
X120815887Y-119890450D01*
X120815887Y-119890450D02*
X120845815Y-119955783D01*
X120845815Y-119955783D02*
X120845815Y-120086450D01*
X120845815Y-120086450D02*
X120815887Y-120151783D01*
X120815887Y-120151783D02*
X120785958Y-120184450D01*
X120785958Y-120184450D02*
X120726101Y-120217116D01*
X120726101Y-120217116D02*
X120606387Y-120217116D01*
X120606387Y-120217116D02*
X120546530Y-120184450D01*
X120546530Y-120184450D02*
X120516601Y-120151783D01*
X120516601Y-120151783D02*
X120486672Y-120086450D01*
X120486672Y-120086450D02*
X120486672Y-119955783D01*
X120486672Y-119955783D02*
X120516601Y-119890450D01*
X120516601Y-119890450D02*
X120546530Y-119857783D01*
X120546530Y-119857783D02*
X120606387Y-119825116D01*
X122252457Y-129531116D02*
X122252457Y-130021116D01*
X122252457Y-130021116D02*
X122282386Y-130119116D01*
X122282386Y-130119116D02*
X122342243Y-130184450D01*
X122342243Y-130184450D02*
X122432029Y-130217116D01*
X122432029Y-130217116D02*
X122491886Y-130217116D01*
X121594029Y-130217116D02*
X121803529Y-129890450D01*
X121953172Y-130217116D02*
X121953172Y-129531116D01*
X121953172Y-129531116D02*
X121713743Y-129531116D01*
X121713743Y-129531116D02*
X121653886Y-129563783D01*
X121653886Y-129563783D02*
X121623957Y-129596450D01*
X121623957Y-129596450D02*
X121594029Y-129661783D01*
X121594029Y-129661783D02*
X121594029Y-129759783D01*
X121594029Y-129759783D02*
X121623957Y-129825116D01*
X121623957Y-129825116D02*
X121653886Y-129857783D01*
X121653886Y-129857783D02*
X121713743Y-129890450D01*
X121713743Y-129890450D02*
X121953172Y-129890450D01*
X121354600Y-130184450D02*
X121264815Y-130217116D01*
X121264815Y-130217116D02*
X121115172Y-130217116D01*
X121115172Y-130217116D02*
X121055315Y-130184450D01*
X121055315Y-130184450D02*
X121025386Y-130151783D01*
X121025386Y-130151783D02*
X120995457Y-130086450D01*
X120995457Y-130086450D02*
X120995457Y-130021116D01*
X120995457Y-130021116D02*
X121025386Y-129955783D01*
X121025386Y-129955783D02*
X121055315Y-129923116D01*
X121055315Y-129923116D02*
X121115172Y-129890450D01*
X121115172Y-129890450D02*
X121234886Y-129857783D01*
X121234886Y-129857783D02*
X121294743Y-129825116D01*
X121294743Y-129825116D02*
X121324672Y-129792450D01*
X121324672Y-129792450D02*
X121354600Y-129727116D01*
X121354600Y-129727116D02*
X121354600Y-129661783D01*
X121354600Y-129661783D02*
X121324672Y-129596450D01*
X121324672Y-129596450D02*
X121294743Y-129563783D01*
X121294743Y-129563783D02*
X121234886Y-129531116D01*
X121234886Y-129531116D02*
X121085243Y-129531116D01*
X121085243Y-129531116D02*
X120995457Y-129563783D01*
X120815886Y-129531116D02*
X120456744Y-129531116D01*
X120636315Y-130217116D02*
X120636315Y-129531116D01*
X122104116Y-114769185D02*
X122790116Y-114978685D01*
X122790116Y-114978685D02*
X122104116Y-115188185D01*
X122430783Y-115607184D02*
X122463450Y-115696970D01*
X122463450Y-115696970D02*
X122496116Y-115726899D01*
X122496116Y-115726899D02*
X122561450Y-115756827D01*
X122561450Y-115756827D02*
X122659450Y-115756827D01*
X122659450Y-115756827D02*
X122724783Y-115726899D01*
X122724783Y-115726899D02*
X122757450Y-115696970D01*
X122757450Y-115696970D02*
X122790116Y-115637113D01*
X122790116Y-115637113D02*
X122790116Y-115397684D01*
X122790116Y-115397684D02*
X122104116Y-115397684D01*
X122104116Y-115397684D02*
X122104116Y-115607184D01*
X122104116Y-115607184D02*
X122136783Y-115667042D01*
X122136783Y-115667042D02*
X122169450Y-115696970D01*
X122169450Y-115696970D02*
X122234783Y-115726899D01*
X122234783Y-115726899D02*
X122300116Y-115726899D01*
X122300116Y-115726899D02*
X122365450Y-115696970D01*
X122365450Y-115696970D02*
X122398116Y-115667042D01*
X122398116Y-115667042D02*
X122430783Y-115607184D01*
X122430783Y-115607184D02*
X122430783Y-115397684D01*
X122594116Y-115996256D02*
X122594116Y-116295542D01*
X122790116Y-115936399D02*
X122104116Y-116145899D01*
X122104116Y-116145899D02*
X122790116Y-116355399D01*
X122104116Y-116475113D02*
X122104116Y-116834256D01*
X122790116Y-116654684D02*
X122104116Y-116654684D01*
X121830783Y-118268470D02*
X121863450Y-118358256D01*
X121863450Y-118358256D02*
X121896116Y-118388185D01*
X121896116Y-118388185D02*
X121961450Y-118418113D01*
X121961450Y-118418113D02*
X122059450Y-118418113D01*
X122059450Y-118418113D02*
X122124783Y-118388185D01*
X122124783Y-118388185D02*
X122157450Y-118358256D01*
X122157450Y-118358256D02*
X122190116Y-118298399D01*
X122190116Y-118298399D02*
X122190116Y-118058970D01*
X122190116Y-118058970D02*
X121504116Y-118058970D01*
X121504116Y-118058970D02*
X121504116Y-118268470D01*
X121504116Y-118268470D02*
X121536783Y-118328328D01*
X121536783Y-118328328D02*
X121569450Y-118358256D01*
X121569450Y-118358256D02*
X121634783Y-118388185D01*
X121634783Y-118388185D02*
X121700116Y-118388185D01*
X121700116Y-118388185D02*
X121765450Y-118358256D01*
X121765450Y-118358256D02*
X121798116Y-118328328D01*
X121798116Y-118328328D02*
X121830783Y-118268470D01*
X121830783Y-118268470D02*
X121830783Y-118058970D01*
X115653029Y-82447116D02*
X115653029Y-83002450D01*
X115653029Y-83002450D02*
X115623100Y-83067783D01*
X115623100Y-83067783D02*
X115593172Y-83100450D01*
X115593172Y-83100450D02*
X115533314Y-83133116D01*
X115533314Y-83133116D02*
X115413600Y-83133116D01*
X115413600Y-83133116D02*
X115353743Y-83100450D01*
X115353743Y-83100450D02*
X115323814Y-83067783D01*
X115323814Y-83067783D02*
X115293886Y-83002450D01*
X115293886Y-83002450D02*
X115293886Y-82447116D01*
X114665385Y-83133116D02*
X115024528Y-83133116D01*
X114844957Y-83133116D02*
X114844957Y-82447116D01*
X114844957Y-82447116D02*
X114904814Y-82545116D01*
X114904814Y-82545116D02*
X114964671Y-82610450D01*
X114964671Y-82610450D02*
X115024528Y-82643116D01*
X114276314Y-82447116D02*
X114216457Y-82447116D01*
X114216457Y-82447116D02*
X114156600Y-82479783D01*
X114156600Y-82479783D02*
X114126672Y-82512450D01*
X114126672Y-82512450D02*
X114096743Y-82577783D01*
X114096743Y-82577783D02*
X114066814Y-82708450D01*
X114066814Y-82708450D02*
X114066814Y-82871783D01*
X114066814Y-82871783D02*
X114096743Y-83002450D01*
X114096743Y-83002450D02*
X114126672Y-83067783D01*
X114126672Y-83067783D02*
X114156600Y-83100450D01*
X114156600Y-83100450D02*
X114216457Y-83133116D01*
X114216457Y-83133116D02*
X114276314Y-83133116D01*
X114276314Y-83133116D02*
X114336172Y-83100450D01*
X114336172Y-83100450D02*
X114366100Y-83067783D01*
X114366100Y-83067783D02*
X114396029Y-83002450D01*
X114396029Y-83002450D02*
X114425957Y-82871783D01*
X114425957Y-82871783D02*
X114425957Y-82708450D01*
X114425957Y-82708450D02*
X114396029Y-82577783D01*
X114396029Y-82577783D02*
X114366100Y-82512450D01*
X114366100Y-82512450D02*
X114336172Y-82479783D01*
X114336172Y-82479783D02*
X114276314Y-82447116D01*
X122252457Y-125531116D02*
X122252457Y-126021116D01*
X122252457Y-126021116D02*
X122282386Y-126119116D01*
X122282386Y-126119116D02*
X122342243Y-126184450D01*
X122342243Y-126184450D02*
X122432029Y-126217116D01*
X122432029Y-126217116D02*
X122491886Y-126217116D01*
X122042957Y-125531116D02*
X121683815Y-125531116D01*
X121863386Y-126217116D02*
X121863386Y-125531116D01*
X121474315Y-126217116D02*
X121474315Y-125531116D01*
X121474315Y-125531116D02*
X121324672Y-125531116D01*
X121324672Y-125531116D02*
X121234886Y-125563783D01*
X121234886Y-125563783D02*
X121175029Y-125629116D01*
X121175029Y-125629116D02*
X121145100Y-125694450D01*
X121145100Y-125694450D02*
X121115172Y-125825116D01*
X121115172Y-125825116D02*
X121115172Y-125923116D01*
X121115172Y-125923116D02*
X121145100Y-126053783D01*
X121145100Y-126053783D02*
X121175029Y-126119116D01*
X121175029Y-126119116D02*
X121234886Y-126184450D01*
X121234886Y-126184450D02*
X121324672Y-126217116D01*
X121324672Y-126217116D02*
X121474315Y-126217116D01*
X120726100Y-125531116D02*
X120606386Y-125531116D01*
X120606386Y-125531116D02*
X120546529Y-125563783D01*
X120546529Y-125563783D02*
X120486672Y-125629116D01*
X120486672Y-125629116D02*
X120456743Y-125759783D01*
X120456743Y-125759783D02*
X120456743Y-125988450D01*
X120456743Y-125988450D02*
X120486672Y-126119116D01*
X120486672Y-126119116D02*
X120546529Y-126184450D01*
X120546529Y-126184450D02*
X120606386Y-126217116D01*
X120606386Y-126217116D02*
X120726100Y-126217116D01*
X120726100Y-126217116D02*
X120785958Y-126184450D01*
X120785958Y-126184450D02*
X120845815Y-126119116D01*
X120845815Y-126119116D02*
X120875743Y-125988450D01*
X120875743Y-125988450D02*
X120875743Y-125759783D01*
X120875743Y-125759783D02*
X120845815Y-125629116D01*
X120845815Y-125629116D02*
X120785958Y-125563783D01*
X120785958Y-125563783D02*
X120726100Y-125531116D01*
X122252457Y-127431116D02*
X122252457Y-127921116D01*
X122252457Y-127921116D02*
X122282386Y-128019116D01*
X122282386Y-128019116D02*
X122342243Y-128084450D01*
X122342243Y-128084450D02*
X122432029Y-128117116D01*
X122432029Y-128117116D02*
X122491886Y-128117116D01*
X122042957Y-127431116D02*
X121683815Y-127431116D01*
X121863386Y-128117116D02*
X121863386Y-127431116D01*
X121474315Y-128117116D02*
X121474315Y-127431116D01*
X121474315Y-127431116D02*
X121324672Y-127431116D01*
X121324672Y-127431116D02*
X121234886Y-127463783D01*
X121234886Y-127463783D02*
X121175029Y-127529116D01*
X121175029Y-127529116D02*
X121145100Y-127594450D01*
X121145100Y-127594450D02*
X121115172Y-127725116D01*
X121115172Y-127725116D02*
X121115172Y-127823116D01*
X121115172Y-127823116D02*
X121145100Y-127953783D01*
X121145100Y-127953783D02*
X121175029Y-128019116D01*
X121175029Y-128019116D02*
X121234886Y-128084450D01*
X121234886Y-128084450D02*
X121324672Y-128117116D01*
X121324672Y-128117116D02*
X121474315Y-128117116D01*
X120845815Y-128117116D02*
X120845815Y-127431116D01*
X122252457Y-121431116D02*
X122252457Y-121921116D01*
X122252457Y-121921116D02*
X122282386Y-122019116D01*
X122282386Y-122019116D02*
X122342243Y-122084450D01*
X122342243Y-122084450D02*
X122432029Y-122117116D01*
X122432029Y-122117116D02*
X122491886Y-122117116D01*
X121983100Y-122084450D02*
X121893315Y-122117116D01*
X121893315Y-122117116D02*
X121743672Y-122117116D01*
X121743672Y-122117116D02*
X121683815Y-122084450D01*
X121683815Y-122084450D02*
X121653886Y-122051783D01*
X121653886Y-122051783D02*
X121623957Y-121986450D01*
X121623957Y-121986450D02*
X121623957Y-121921116D01*
X121623957Y-121921116D02*
X121653886Y-121855783D01*
X121653886Y-121855783D02*
X121683815Y-121823116D01*
X121683815Y-121823116D02*
X121743672Y-121790450D01*
X121743672Y-121790450D02*
X121863386Y-121757783D01*
X121863386Y-121757783D02*
X121923243Y-121725116D01*
X121923243Y-121725116D02*
X121953172Y-121692450D01*
X121953172Y-121692450D02*
X121983100Y-121627116D01*
X121983100Y-121627116D02*
X121983100Y-121561783D01*
X121983100Y-121561783D02*
X121953172Y-121496450D01*
X121953172Y-121496450D02*
X121923243Y-121463783D01*
X121923243Y-121463783D02*
X121863386Y-121431116D01*
X121863386Y-121431116D02*
X121713743Y-121431116D01*
X121713743Y-121431116D02*
X121623957Y-121463783D01*
X121414458Y-121431116D02*
X121264815Y-122117116D01*
X121264815Y-122117116D02*
X121145101Y-121627116D01*
X121145101Y-121627116D02*
X121025386Y-122117116D01*
X121025386Y-122117116D02*
X120875744Y-121431116D01*
X120636315Y-122117116D02*
X120636315Y-121431116D01*
X120636315Y-121431116D02*
X120486672Y-121431116D01*
X120486672Y-121431116D02*
X120396886Y-121463783D01*
X120396886Y-121463783D02*
X120337029Y-121529116D01*
X120337029Y-121529116D02*
X120307100Y-121594450D01*
X120307100Y-121594450D02*
X120277172Y-121725116D01*
X120277172Y-121725116D02*
X120277172Y-121823116D01*
X120277172Y-121823116D02*
X120307100Y-121953783D01*
X120307100Y-121953783D02*
X120337029Y-122019116D01*
X120337029Y-122019116D02*
X120396886Y-122084450D01*
X120396886Y-122084450D02*
X120486672Y-122117116D01*
X120486672Y-122117116D02*
X120636315Y-122117116D01*
X121772886Y-136117116D02*
X121982386Y-135790450D01*
X122132029Y-136117116D02*
X122132029Y-135431116D01*
X122132029Y-135431116D02*
X121892600Y-135431116D01*
X121892600Y-135431116D02*
X121832743Y-135463783D01*
X121832743Y-135463783D02*
X121802814Y-135496450D01*
X121802814Y-135496450D02*
X121772886Y-135561783D01*
X121772886Y-135561783D02*
X121772886Y-135659783D01*
X121772886Y-135659783D02*
X121802814Y-135725116D01*
X121802814Y-135725116D02*
X121832743Y-135757783D01*
X121832743Y-135757783D02*
X121892600Y-135790450D01*
X121892600Y-135790450D02*
X122132029Y-135790450D01*
X121563386Y-136117116D02*
X121234172Y-135659783D01*
X121563386Y-135659783D02*
X121234172Y-136117116D01*
X120725386Y-135659783D02*
X120725386Y-136117116D01*
X120875028Y-135398450D02*
X121024671Y-135888450D01*
X121024671Y-135888450D02*
X120635600Y-135888450D01*
X124104116Y-114769185D02*
X124790116Y-114978685D01*
X124790116Y-114978685D02*
X124104116Y-115188185D01*
X124757450Y-115367756D02*
X124790116Y-115457542D01*
X124790116Y-115457542D02*
X124790116Y-115607184D01*
X124790116Y-115607184D02*
X124757450Y-115667042D01*
X124757450Y-115667042D02*
X124724783Y-115696970D01*
X124724783Y-115696970D02*
X124659450Y-115726899D01*
X124659450Y-115726899D02*
X124594116Y-115726899D01*
X124594116Y-115726899D02*
X124528783Y-115696970D01*
X124528783Y-115696970D02*
X124496116Y-115667042D01*
X124496116Y-115667042D02*
X124463450Y-115607184D01*
X124463450Y-115607184D02*
X124430783Y-115487470D01*
X124430783Y-115487470D02*
X124398116Y-115427613D01*
X124398116Y-115427613D02*
X124365450Y-115397684D01*
X124365450Y-115397684D02*
X124300116Y-115367756D01*
X124300116Y-115367756D02*
X124234783Y-115367756D01*
X124234783Y-115367756D02*
X124169450Y-115397684D01*
X124169450Y-115397684D02*
X124136783Y-115427613D01*
X124136783Y-115427613D02*
X124104116Y-115487470D01*
X124104116Y-115487470D02*
X124104116Y-115637113D01*
X124104116Y-115637113D02*
X124136783Y-115726899D01*
X124463450Y-116115970D02*
X124790116Y-116115970D01*
X124104116Y-115906470D02*
X124463450Y-116115970D01*
X124463450Y-116115970D02*
X124104116Y-116325470D01*
X124757450Y-116505041D02*
X124790116Y-116594827D01*
X124790116Y-116594827D02*
X124790116Y-116744469D01*
X124790116Y-116744469D02*
X124757450Y-116804327D01*
X124757450Y-116804327D02*
X124724783Y-116834255D01*
X124724783Y-116834255D02*
X124659450Y-116864184D01*
X124659450Y-116864184D02*
X124594116Y-116864184D01*
X124594116Y-116864184D02*
X124528783Y-116834255D01*
X124528783Y-116834255D02*
X124496116Y-116804327D01*
X124496116Y-116804327D02*
X124463450Y-116744469D01*
X124463450Y-116744469D02*
X124430783Y-116624755D01*
X124430783Y-116624755D02*
X124398116Y-116564898D01*
X124398116Y-116564898D02*
X124365450Y-116534969D01*
X124365450Y-116534969D02*
X124300116Y-116505041D01*
X124300116Y-116505041D02*
X124234783Y-116505041D01*
X124234783Y-116505041D02*
X124169450Y-116534969D01*
X124169450Y-116534969D02*
X124136783Y-116564898D01*
X124136783Y-116564898D02*
X124104116Y-116624755D01*
X124104116Y-116624755D02*
X124104116Y-116774398D01*
X124104116Y-116774398D02*
X124136783Y-116864184D01*
D10*
X116030000Y-82971000D02*
X116030000Y-50871000D01*
X173830000Y-50871000D02*
X116030000Y-50871000D01*
X173830000Y-50871000D02*
X173830000Y-82971000D01*
X173830000Y-82971000D02*
X116030000Y-82971000D01*
M02*
