M48
; DRILL file {KiCad 9.0.2} date 2026-06-17T20:10:52+0500
; FORMAT={-:-/ absolute / metric / decimal}
; #@! TF.CreationDate,2026-06-17T20:10:52+05:00
; #@! TF.GenerationSoftware,Kicad,Pcbnew,9.0.2
; #@! TF.FileFunction,Plated,1,4,PTH
FMAT,2
METRIC
; #@! TA.AperFunction,Plated,PTH,ViaDrill
T1C0.300
; #@! TA.AperFunction,Plated,PTH,ComponentDrill
T2C0.600
; #@! TA.AperFunction,Plated,PTH,ComponentDrill
T3C0.889
; #@! TA.AperFunction,Plated,PTH,ComponentDrill
T4C1.000
; #@! TA.AperFunction,Plated,PTH,ComponentDrill
T5C3.200
%
G90
G05
T1
X104.829Y-74.435
X104.845Y-141.159
X106.338Y-118.549
X107.891Y-122.152
X110.06Y-116.697
X110.345Y-76.927
X111.007Y-142.683
X111.134Y-141.413
X111.492Y-127.952
X111.77Y-121.161
X111.845Y-75.427
X112.76Y-125.697
X113.038Y-80.637
X113.05Y-79.297
X114.25Y-117.097
X114.261Y-121.415
X114.874Y-139.129
X114.882Y-142.009
X115.81Y-85.355
X115.925Y-93.527
X116.054Y-95.199
X116.35Y-136.555
X116.41Y-90.224
X116.684Y-129.079
X117.125Y-84.828
X118.638Y-82.153
X119.05Y-140.155
X119.292Y-123.333
X120.282Y-114.109
X120.7Y-88.475
X121.87Y-113.379
X123.138Y-86.653
X123.882Y-123.209
X124.045Y-119.046
X124.772Y-115.897
X125.03Y-93.632
X127.13Y-92.732
X128.77Y-106.479
X128.79Y-103.291
X129.445Y-104.946
X129.515Y-118.442
X129.745Y-93.846
X129.83Y-91.532
X130.256Y-149.694
X131.79Y-102.251
X131.88Y-98.721
X132.56Y-96.179
X132.63Y-100.51
X133.345Y-90.546
X133.713Y-96.632
X134.313Y-93.332
X134.515Y-149.694
X134.66Y-94.679
X135.14Y-118.79
X135.813Y-93.032
X136.513Y-102.632
X137.499Y-84.096
X137.892Y-103.833
X138.313Y-102.332
X138.792Y-102.933
X138.808Y-84.697
X139.01Y-78.691
X139.391Y-92.7
X139.682Y-103.773
X140.591Y-100.2
X140.619Y-104.18
X141.195Y-92.714
X141.391Y-87.954
X142.59Y-80.651
X142.691Y-101.7
X142.695Y-91.214
X142.91Y-96.829
X143.082Y-109.109
X143.51Y-83.191
X143.91Y-98.729
X143.91Y-101.729
X144.07Y-88.479
X145.273Y-134.431
X145.338Y-87.553
X145.34Y-92.109
X145.415Y-113.942
X145.57Y-110.588
X145.646Y-85.563
X145.745Y-84.054
X145.87Y-93.188
X146.426Y-149.694
X147.363Y-121.981
X147.363Y-139.531
X148.263Y-120.481
X148.27Y-89.021
X148.3Y-94.176
X148.786Y-96.261
X149.082Y-89.79
X149.17Y-92.754
X149.382Y-86.567
X149.62Y-99.629
X149.982Y-91.29
X150.1Y-107.376
X150.51Y-71.661
X150.582Y-86.209
X150.713Y-102.032
X150.786Y-80.961
X150.882Y-86.909
X151.086Y-79.161
X151.188Y-97.161
X151.22Y-100.829
X151.313Y-99.632
X151.386Y-95.961
X151.715Y-103.442
X151.828Y-94.455
X152.12Y-97.229
X152.42Y-107.429
X152.688Y-95.809
X153.12Y-97.288
X153.189Y-80.061
X153.62Y-99.551
X153.874Y-120.251
X153.891Y-78.604
X154.262Y-121.831
X154.27Y-96.134
X154.42Y-99.822
X154.488Y-94.034
X154.562Y-134.431
X154.695Y-100.73
X154.715Y-103.442
X154.723Y-105.032
X155.682Y-84.767
X155.915Y-104.642
X156.138Y-90.853
X157.088Y-78.261
X157.499Y-119.676
X157.691Y-78.904
X157.72Y-85.129
X157.815Y-82.129
X158.27Y-95.987
X158.399Y-109.476
X158.999Y-108.276
X159.291Y-97.009
X159.482Y-84.529
X159.7Y-119.622
X159.758Y-82.067
X159.77Y-88.787
X159.77Y-92.987
X160.92Y-90.379
X160.992Y-91.633
X161.046Y-99.599
X161.49Y-69.089
X161.586Y-98.361
X161.646Y-101.699
X161.856Y-77.245
X161.913Y-124.176
X162.17Y-103.187
X162.618Y-83.329
X163.259Y-69.664
X163.37Y-87.611
X163.437Y-77.302
X163.486Y-97.161
X163.564Y-91.659
X163.746Y-102.299
X163.959Y-85.008
X164.49Y-89.959
X164.586Y-94.761
X164.892Y-105.633
X164.923Y-120.932
X165.297Y-90.406
X165.646Y-95.899
X165.819Y-107.48
X166.086Y-97.761
X166.14Y-89.961
X166.186Y-98.961
X166.392Y-104.133
X166.565Y-94.76
X166.57Y-108.861
X166.786Y-96.561
X167.094Y-90.261
X167.44Y-86.636
X167.604Y-87.733
X168.867Y-89.179
X169.14Y-86.361
X170.791Y-110.314
X171.411Y-90.041
X171.62Y-126.629
X172.04Y-89.26
X172.086Y-86.661
X172.682Y-119.673
X172.713Y-134.076
X172.926Y-108.56
X173.469Y-99.589
X174.92Y-117.0
X174.941Y-112.258
X175.086Y-89.661
X175.811Y-110.537
X175.855Y-114.0
X176.14Y-118.711
X176.345Y-113.429
X177.111Y-118.802
X177.346Y-119.57
X177.62Y-128.729
X177.792Y-115.894
X178.011Y-95.102
X178.192Y-97.033
X178.869Y-100.483
X179.545Y-123.536
X180.186Y-75.261
X181.056Y-96.445
X182.886Y-77.061
X182.919Y-111.687
X183.486Y-75.261
X183.551Y-83.604
X183.601Y-101.708
X184.311Y-98.906
X184.344Y-78.312
X184.53Y-95.093
X184.546Y-110.708
X184.569Y-99.893
X184.579Y-84.997
X184.692Y-97.933
X184.801Y-100.808
X184.892Y-103.407
X185.253Y-77.455
X185.286Y-75.261
X185.292Y-110.758
X185.523Y-84.391
X187.092Y-100.907
X187.686Y-75.261
X188.158Y-74.636
X188.486Y-84.031
X188.755Y-87.6
X189.061Y-77.361
X189.082Y-115.23
T3
X104.764Y-146.169
X105.78Y-141.089
X106.796Y-146.169
T4
X134.779Y-152.949
X156.279Y-152.949
T5
X128.782Y-82.189
X170.279Y-154.689
T2
X186.542Y-91.863G85X187.342Y-91.863
G05
X186.542Y-103.103G85X187.342Y-103.103
G05
X190.342Y-91.863G85X191.542Y-91.863
G05
X190.342Y-103.103G85X191.542Y-103.103
G05
M30
