G04 Layer_Color=61183*
%FSLAX44Y44*%
%MOMM*%
G71*
G01*
G75*
%ADD48C,0.1500*%
%ADD50C,0.2000*%
%ADD51C,0.3000*%
%ADD75C,0.0000*%
%ADD94C,0.2540*%
%ADD96C,0.1000*%
%ADD97C,0.1999*%
%ADD98C,0.1270*%
%ADD99C,0.1200*%
%ADD195C,0.2032*%
%ADD196C,0.5080*%
%ADD197C,0.1524*%
%ADD198C,0.1001*%
%ADD199C,0.0648*%
%ADD200R,0.2000X0.3000*%
%ADD201R,0.4000X0.2000*%
%ADD202R,0.2000X0.4000*%
%ADD203R,0.9000X1.6000*%
%ADD204R,0.6000X0.6500*%
%ADD205R,0.6000X0.6000*%
%ADD206R,0.6500X0.6000*%
%ADD207R,0.6000X0.6000*%
%ADD208R,1.0000X2.4000*%
%ADD209R,0.5000X0.2000*%
%ADD210R,0.5000X1.3000*%
%ADD211R,0.2000X0.2000*%
%ADD212R,0.6000X0.1000*%
%ADD213R,0.1000X0.6000*%
%ADD214R,0.7998X0.1000*%
%ADD215R,0.1000X0.7998*%
%ADD216R,1.2599X0.1000*%
%ADD217R,0.1000X1.2599*%
%ADD218R,0.3000X1.0000*%
%ADD219R,0.6740X0.8450*%
%ADD220R,0.6000X0.6500*%
%ADD221R,0.6500X0.6000*%
%ADD222R,0.4000X1.4000*%
%ADD223R,2.0000X2.4000*%
%ADD224R,0.5000X0.2000*%
%ADD225R,0.4000X0.3100*%
D48*
X544000Y360000D02*
Y380000D01*
X524000Y360000D02*
X544000D01*
X524000D02*
Y380000D01*
X544000D01*
D50*
X99814Y831355D02*
G03*
X130180Y831355I15183J5047D01*
G01*
X130171Y841476D02*
G03*
X99823Y841476I-15174J-5074D01*
G01*
X120057D02*
Y850889D01*
X109936Y841476D02*
Y850889D01*
X120057Y821914D02*
Y831355D01*
X109936Y821914D02*
Y831355D01*
X85175D02*
X109936D01*
X85175Y841476D02*
X109936D01*
X85175Y831355D02*
Y841476D01*
X120057Y831355D02*
X144819D01*
Y841476D01*
X120057D02*
X144819D01*
X563000Y751500D02*
Y762000D01*
X533000D02*
X563000D01*
X533000Y751500D02*
Y762000D01*
Y751500D02*
X563000D01*
X144000Y863000D02*
Y873500D01*
Y863000D02*
X174000D01*
Y873500D01*
X144000D02*
X174000D01*
X44000Y754000D02*
X54500D01*
X44000Y724000D02*
Y754000D01*
Y724000D02*
X54500D01*
Y754000D01*
X22001Y503001D02*
G03*
X2001Y523001I-20000J0D01*
G01*
X22001Y43000D02*
G03*
X75000Y-10000I53000J0D01*
G01*
X524999D02*
G03*
X577999Y43000I0J53000D01*
G01*
Y893000D02*
G03*
X524999Y946000I-53000J0D01*
G01*
X52000D02*
G03*
X22001Y916000I0J-30000D01*
G01*
X2001Y743001D02*
G03*
X22001Y763001I0J20000D01*
G01*
X51000Y606000D02*
G03*
X52039Y615891I0J5000D01*
G01*
X51997Y690100D02*
G03*
X51000Y700000I-997J4900D01*
G01*
X-5001Y605801D02*
X51000D01*
X-5001Y523001D02*
Y605801D01*
X52000Y615900D02*
Y690100D01*
X-5000Y700000D02*
X51000D01*
X-5001Y700001D02*
Y743001D01*
X577999Y43000D02*
Y893000D01*
X52000Y946000D02*
X524999D01*
X22001Y763001D02*
Y916000D01*
X-5000Y743001D02*
X2000D01*
X-5000Y523001D02*
X2001D01*
X22001Y43000D02*
Y503001D01*
X75000Y-10000D02*
X524999D01*
D51*
X503849Y503261D02*
G03*
X503849Y503261I-1000J0D01*
G01*
X159260Y640150D02*
G03*
X159260Y640150I-1000J0D01*
G01*
D75*
X15999Y593800D02*
G03*
X18999Y596800I0J3000D01*
G01*
D02*
G03*
X15999Y599800I-3000J0D01*
G01*
X4001D02*
G03*
X1001Y596800I0J-3000D01*
G01*
D02*
G03*
X4001Y593800I3000J0D01*
G01*
X54000Y706200D02*
G03*
X57000Y709200I0J3000D01*
G01*
D02*
G03*
X54000Y712200I-3000J0D01*
G01*
X45999D02*
G03*
X43000Y709200I0J-3000D01*
G01*
D02*
G03*
X45999Y706200I3000J0D01*
G01*
X54000Y593800D02*
G03*
X57000Y596800I0J3000D01*
G01*
D02*
G03*
X54000Y599800I-3000J0D01*
G01*
X45999D02*
G03*
X43000Y596800I0J-3000D01*
G01*
D02*
G03*
X45999Y593800I3000J0D01*
G01*
X15999Y706200D02*
G03*
X18999Y709200I0J3000D01*
G01*
D02*
G03*
X15999Y712200I-3000J0D01*
G01*
X4001D02*
G03*
X1001Y709200I0J-3000D01*
G01*
D02*
G03*
X4001Y706200I3000J0D01*
G01*
Y599800D02*
X15999D01*
X4001Y593800D02*
X15999D01*
X45999Y712200D02*
X54000D01*
X45999Y706200D02*
X54000D01*
X45999Y599800D02*
X54000D01*
X45999Y593800D02*
X54000D01*
X4001Y712200D02*
X15999D01*
X4001Y706200D02*
X15999D01*
D94*
X93828Y746500D02*
G03*
X93828Y746500I-2828J0D01*
G01*
X524414Y381000D02*
G03*
X524414Y381000I-1414J0D01*
G01*
X389000Y628000D02*
G03*
X389000Y628000I-1000J0D01*
G01*
X53000Y795000D02*
X62000D01*
D96*
X556500Y812400D02*
Y821400D01*
X561500Y812500D02*
Y821500D01*
X310500Y920400D02*
Y929400D01*
X315500Y920500D02*
Y929500D01*
X471500Y362400D02*
Y371400D01*
X476500Y362500D02*
Y371500D01*
X384500Y711400D02*
Y720400D01*
X389500Y711500D02*
Y720500D01*
X303400Y720500D02*
X312400D01*
X303500Y715500D02*
X312500D01*
X540500Y428600D02*
Y437600D01*
X535500Y428500D02*
Y437500D01*
X183400Y877500D02*
X192400D01*
X183500Y872500D02*
X192500D01*
X416400Y414500D02*
X425400D01*
X416500Y409500D02*
X425500D01*
X507400Y369500D02*
X516400D01*
X507500Y364500D02*
X516500D01*
X487500Y362600D02*
Y371600D01*
X482500Y362500D02*
Y371500D01*
X463600Y405500D02*
X472600D01*
X463500Y410500D02*
X472500D01*
X158500Y808600D02*
Y817600D01*
X153500Y808500D02*
Y817500D01*
X543600Y783500D02*
X552600D01*
X543500Y788500D02*
X552500D01*
X509600Y733500D02*
X518600D01*
X509500Y738500D02*
X518500D01*
X36600Y768500D02*
X45600D01*
X36500Y773500D02*
X45500D01*
X69600Y705500D02*
X78600D01*
X69500Y710500D02*
X78500D01*
X110500Y697400D02*
Y706400D01*
X115500Y697500D02*
Y706500D01*
X45400Y539500D02*
X54400D01*
X45500Y534500D02*
X54500D01*
X77500Y769600D02*
Y778600D01*
X72500Y769500D02*
Y778500D01*
X366500Y579400D02*
Y588400D01*
X371500Y579500D02*
Y588500D01*
X338400Y554500D02*
X347400D01*
X338500Y549500D02*
X347500D01*
X99500Y685400D02*
Y694400D01*
X104500Y685500D02*
Y694500D01*
X128600Y879500D02*
X137600D01*
X128500Y884500D02*
X137500D01*
X136400Y897500D02*
X145400D01*
X136500Y892500D02*
X145500D01*
X111500Y617600D02*
Y626600D01*
X106500Y617500D02*
Y626500D01*
X255500Y912400D02*
Y921400D01*
X260500Y912500D02*
Y921500D01*
X515500Y472600D02*
Y481600D01*
X510500Y472500D02*
Y481500D01*
X510500Y491400D02*
Y500400D01*
X515500Y491500D02*
Y500500D01*
X544600Y460500D02*
X553600D01*
X544500Y465500D02*
X553500D01*
X180400Y550500D02*
X189400D01*
X180500Y545500D02*
X189500D01*
X185500Y812400D02*
Y821400D01*
X190500Y812500D02*
Y821500D01*
X458400Y748500D02*
X467400D01*
X458500Y743500D02*
X467500D01*
X518500Y380600D02*
Y389600D01*
X513500Y380500D02*
Y389500D01*
X264500Y565400D02*
Y574400D01*
X269500Y565500D02*
Y574500D01*
X363600Y545500D02*
X372600D01*
X363500Y550500D02*
X372500D01*
X485600Y743500D02*
X494600D01*
X485500Y748500D02*
X494500D01*
X504500Y806400D02*
Y815400D01*
X509500Y806500D02*
Y815500D01*
X193500Y772600D02*
Y781600D01*
X188500Y772500D02*
Y781500D01*
X163500Y791400D02*
Y800400D01*
X168500Y791500D02*
Y800500D01*
X212500Y899600D02*
Y908600D01*
X207500Y899500D02*
Y908500D01*
X375600Y882500D02*
X384600D01*
X375500Y887500D02*
X384500D01*
X349600Y714500D02*
X358600D01*
X349500Y719500D02*
X358500D01*
X228400Y717500D02*
X237400D01*
X228500Y712500D02*
X237500D01*
X61500Y769400D02*
Y778400D01*
X66500Y769500D02*
Y778500D01*
X528500Y491600D02*
Y500600D01*
X523500Y491500D02*
Y500500D01*
X141500Y737600D02*
Y746600D01*
X136500Y737500D02*
Y746500D01*
X484400Y556500D02*
X493400D01*
X484500Y551500D02*
X493500D01*
X116500Y640400D02*
Y649400D01*
X121500Y640500D02*
Y649500D01*
X471500Y488600D02*
Y497600D01*
X466500Y488500D02*
Y497500D01*
X507500Y903600D02*
Y912600D01*
X502500Y903500D02*
Y912500D01*
X506500Y878600D02*
Y887600D01*
X501500Y878500D02*
Y887500D01*
X514400Y908900D02*
Y923400D01*
X521400Y908800D02*
Y923300D01*
X558600Y891600D02*
Y906100D01*
X551600Y891700D02*
Y906200D01*
X519900Y834600D02*
X534400D01*
X519800Y827600D02*
X534300D01*
X540600Y797600D02*
Y812100D01*
X533600Y797700D02*
Y812200D01*
X514400Y875900D02*
Y890400D01*
X521400Y875800D02*
Y890300D01*
X558600Y855600D02*
Y870100D01*
X551600Y855700D02*
Y870200D01*
X488600Y384600D02*
Y399100D01*
X481600Y384700D02*
Y399200D01*
X182600Y753600D02*
Y768100D01*
X175600Y753700D02*
Y768200D01*
X155400Y894900D02*
Y909400D01*
X162400Y894800D02*
Y909300D01*
X165200Y820500D02*
Y839300D01*
X176800Y820400D02*
Y839200D01*
X446700Y760200D02*
X465500D01*
X446800Y771800D02*
X465600D01*
X123500Y790800D02*
X142300D01*
X123400Y779200D02*
X142200D01*
X363500Y569800D02*
X382300D01*
X363400Y558200D02*
X382200D01*
X123500Y770800D02*
X142300D01*
X123400Y759200D02*
X142200D01*
X497200Y767500D02*
Y786300D01*
X508800Y767400D02*
Y786200D01*
X518500Y854800D02*
X537300D01*
X518400Y843200D02*
X537200D01*
X84200Y773500D02*
Y792300D01*
X95800Y773400D02*
Y792200D01*
X188200Y901500D02*
Y920300D01*
X199800Y901400D02*
Y920200D01*
X368200Y903500D02*
Y922300D01*
X379800Y903400D02*
Y922200D01*
X352800Y680700D02*
Y699500D01*
X341200Y680800D02*
Y699600D01*
X214700Y694200D02*
X233500D01*
X214800Y705800D02*
X233600D01*
X331800Y680700D02*
Y699500D01*
X320200Y680800D02*
Y699600D01*
X231200Y911500D02*
Y930300D01*
X242800Y911400D02*
Y930200D01*
X142500Y729800D02*
X161300D01*
X142400Y718200D02*
X161200D01*
X520500Y532800D02*
X539300D01*
X520400Y521200D02*
X539200D01*
X520500Y555800D02*
X539300D01*
X520400Y544200D02*
X539200D01*
X446700Y467200D02*
X465500D01*
X446800Y478800D02*
X465600D01*
X521800Y415700D02*
Y434500D01*
X510200Y415800D02*
Y434600D01*
X142500Y710800D02*
X161300D01*
X142400Y699200D02*
X161200D01*
X301700Y566800D02*
X310478Y571922D01*
X301000Y567200D02*
X310478Y562422D01*
X310522Y562300D02*
Y572000D01*
X292752Y558502D02*
X321252D01*
X292752D02*
Y575502D01*
X321252D01*
Y558502D02*
Y575502D01*
X301122Y562100D02*
Y571800D01*
X252522Y543078D02*
X261300Y548200D01*
X252522Y552578D02*
X262000Y547800D01*
X252478Y543000D02*
Y552700D01*
X241748Y556498D02*
X270248D01*
Y539498D02*
Y556498D01*
X241748Y539498D02*
X270248D01*
X241748D02*
Y556498D01*
X261878Y543200D02*
Y552900D01*
X68700Y811800D02*
X77478Y816922D01*
X68000Y812200D02*
X77478Y807422D01*
X77522Y807300D02*
Y817000D01*
X59752Y803502D02*
X88252D01*
X59752D02*
Y820502D01*
X88252D01*
Y803502D02*
Y820502D01*
X68122Y807100D02*
Y816800D01*
X475499Y491251D02*
X506499D01*
X475499D02*
Y508751D01*
X506499D01*
Y491251D02*
Y508751D01*
X146250Y636500D02*
Y667500D01*
X163750D01*
Y636500D02*
Y667500D01*
X146250Y636500D02*
X163750D01*
X481300Y423100D02*
X489250D01*
X480750Y419750D02*
Y432250D01*
X489250D01*
X480750Y419750D02*
X489250D01*
Y432250D01*
X36500Y791400D02*
Y800400D01*
X41500Y791500D02*
Y800500D01*
X42000Y805000D02*
X37002D01*
Y807499D01*
X37835Y808332D01*
X39501D01*
X40334Y807499D01*
Y805000D01*
Y806666D02*
X42000Y808332D01*
Y809998D02*
Y811665D01*
Y810831D01*
X37002D01*
X37835Y809998D01*
Y814164D02*
X37002Y814997D01*
Y816663D01*
X37835Y817496D01*
X41167D01*
X42000Y816663D01*
Y814997D01*
X41167Y814164D01*
X37835D01*
Y819162D02*
X37002Y819995D01*
Y821661D01*
X37835Y822494D01*
X41167D01*
X42000Y821661D01*
Y819995D01*
X41167Y819162D01*
X37835D01*
D97*
X531001Y913000D02*
G03*
X531001Y913000I-1001J0D01*
G01*
X514001Y819000D02*
G03*
X514001Y819000I-1001J0D01*
G01*
X530001Y876000D02*
G03*
X530001Y876000I-1001J0D01*
G01*
X431501Y722000D02*
G03*
X431501Y722000I-1001J0D01*
G01*
X105999Y523000D02*
X116999D01*
X135999D02*
X146999D01*
X90999Y519000D02*
X101999D01*
X105999Y523000D01*
X86999D02*
X90999Y519000D01*
X120999D02*
X131999D01*
X135999Y523000D01*
X116999D02*
X120999Y519000D01*
X82499Y523000D02*
X86999D01*
X146999D02*
X150999Y519000D01*
X165999Y523000D02*
X169499D01*
X161999Y519000D02*
X165999Y523000D01*
X150999Y519000D02*
X161999D01*
X82499Y558000D02*
X169499D01*
X82499Y523000D02*
Y558000D01*
X169499Y523000D02*
Y558000D01*
X490000Y792000D02*
Y934000D01*
X461000Y931000D02*
X464000Y934000D01*
X490000D01*
X464000Y792000D02*
X490000D01*
X461000Y795000D02*
X464000Y792000D01*
X461000Y795000D02*
Y931000D01*
D98*
X532999Y901999D02*
Y912001D01*
Y901999D02*
X543001D01*
Y912001D01*
X532999D02*
X543001D01*
X515999Y818001D02*
X526001D01*
Y807999D02*
Y818001D01*
X515999Y807999D02*
X526001D01*
X515999D02*
Y818001D01*
X531999Y864999D02*
Y875001D01*
Y864999D02*
X542001D01*
Y875001D01*
X531999D02*
X542001D01*
X334500Y571000D02*
X347500D01*
X334500Y565000D02*
X347500D01*
X334500D02*
Y571000D01*
X347500Y565000D02*
Y571000D01*
X210000Y652000D02*
X340000D01*
X311000Y602000D02*
X333000D01*
X217000Y602000D02*
X239000D01*
X213000Y641000D02*
X217000Y603000D01*
X333000Y602000D02*
X337000Y640000D01*
X239000Y601000D02*
Y641000D01*
X210000D02*
Y654000D01*
X345000D01*
Y641000D02*
Y654000D01*
X311000Y601000D02*
Y641000D01*
X239000Y601000D02*
X311000D01*
X210000Y641000D02*
X345000D01*
X546200Y666500D02*
X575200D01*
Y619500D02*
Y666500D01*
X546200Y619500D02*
X575200D01*
X577201Y651999D02*
X584201D01*
X577200Y634001D02*
X584201D01*
X546200Y619500D02*
Y666500D01*
X584201Y634001D02*
Y651999D01*
D99*
X425332Y399833D02*
Y403165D01*
X424499Y403998D01*
X422833D01*
X422000Y403165D01*
Y399833D01*
X422833Y399000D01*
X424499D01*
X423666Y400666D02*
X425332Y399000D01*
X424499D02*
X425332Y399833D01*
X429497Y399000D02*
Y403998D01*
X426998Y401499D01*
X430331D01*
X338332Y578833D02*
Y582165D01*
X337499Y582998D01*
X335833D01*
X335000Y582165D01*
Y578833D01*
X335833Y578000D01*
X337499D01*
X336666Y579666D02*
X338332Y578000D01*
X337499D02*
X338332Y578833D01*
X339998Y582165D02*
X340831Y582998D01*
X342498D01*
X343331Y582165D01*
Y581332D01*
X342498Y580499D01*
X341665D01*
X342498D01*
X343331Y579666D01*
Y578833D01*
X342498Y578000D01*
X340831D01*
X339998Y578833D01*
X534000Y920998D02*
Y916833D01*
X534833Y916000D01*
X536499D01*
X537332Y916833D01*
Y920998D01*
X538998Y916833D02*
X539831Y916000D01*
X541497D01*
X542331Y916833D01*
Y920165D01*
X541497Y920998D01*
X539831D01*
X538998Y920165D01*
Y919332D01*
X539831Y918499D01*
X542331D01*
X516000Y804998D02*
Y800833D01*
X516833Y800000D01*
X518499D01*
X519332Y800833D01*
Y804998D01*
X520998Y804165D02*
X521831Y804998D01*
X523498D01*
X524331Y804165D01*
Y803332D01*
X523498Y802499D01*
X524331Y801666D01*
Y800833D01*
X523498Y800000D01*
X521831D01*
X520998Y800833D01*
Y801666D01*
X521831Y802499D01*
X520998Y803332D01*
Y804165D01*
X521831Y802499D02*
X523498D01*
X533000Y883998D02*
Y879833D01*
X533833Y879000D01*
X535499D01*
X536332Y879833D01*
Y883998D01*
X537998Y883165D02*
X538831Y883998D01*
X540498D01*
X541331Y883165D01*
Y882332D01*
X540498Y881499D01*
X539664D01*
X540498D01*
X541331Y880666D01*
Y879833D01*
X540498Y879000D01*
X538831D01*
X537998Y879833D01*
X272933Y609997D02*
X271267D01*
X272100D01*
Y605832D01*
X271267Y604999D01*
X270434D01*
X269601Y605832D01*
X277098Y604999D02*
Y609997D01*
X274599Y607498D01*
X277931D01*
X501835Y859332D02*
X501002Y858499D01*
Y856833D01*
X501835Y856000D01*
X505167D01*
X506000Y856833D01*
Y858499D01*
X505167Y859332D01*
X501835Y860998D02*
X501002Y861831D01*
Y863498D01*
X501835Y864331D01*
X502668D01*
X503501Y863498D01*
Y862664D01*
Y863498D01*
X504334Y864331D01*
X505167D01*
X506000Y863498D01*
Y861831D01*
X505167Y860998D01*
X501835Y865997D02*
X501002Y866830D01*
Y868496D01*
X501835Y869329D01*
X505167D01*
X506000Y868496D01*
Y866830D01*
X505167Y865997D01*
X501835D01*
X506000Y874327D02*
Y870995D01*
X502668Y874327D01*
X501835D01*
X501002Y873494D01*
Y871828D01*
X501835Y870995D01*
X502835Y920332D02*
X502002Y919499D01*
Y917833D01*
X502835Y917000D01*
X506167D01*
X507000Y917833D01*
Y919499D01*
X506167Y920332D01*
X502835Y921998D02*
X502002Y922831D01*
Y924498D01*
X502835Y925331D01*
X503668D01*
X504501Y924498D01*
Y923664D01*
Y924498D01*
X505334Y925331D01*
X506167D01*
X507000Y924498D01*
Y922831D01*
X506167Y921998D01*
X502835Y926997D02*
X502002Y927830D01*
Y929496D01*
X502835Y930329D01*
X506167D01*
X507000Y929496D01*
Y927830D01*
X506167Y926997D01*
X502835D01*
Y931995D02*
X502002Y932828D01*
Y934494D01*
X502835Y935327D01*
X506167D01*
X507000Y934494D01*
Y932828D01*
X506167Y931995D01*
X502835D01*
X62000Y828998D02*
Y824000D01*
X64499D01*
X65332Y824833D01*
Y828165D01*
X64499Y828998D01*
X62000D01*
X66998Y828165D02*
X67831Y828998D01*
X69497D01*
X70331Y828165D01*
Y827332D01*
X69497Y826499D01*
X68664D01*
X69497D01*
X70331Y825666D01*
Y824833D01*
X69497Y824000D01*
X67831D01*
X66998Y824833D01*
X169332Y706165D02*
X168499Y706998D01*
X166833D01*
X166000Y706165D01*
Y702833D01*
X166833Y702000D01*
X168499D01*
X169332Y702833D01*
X170998Y702000D02*
X172665D01*
X171831D01*
Y706998D01*
X170998Y706165D01*
X502835Y424332D02*
X502002Y423499D01*
Y421833D01*
X502835Y421000D01*
X506167D01*
X507000Y421833D01*
Y423499D01*
X506167Y424332D01*
X507000Y425998D02*
Y427664D01*
Y426831D01*
X502002D01*
X502835Y425998D01*
Y430164D02*
X502002Y430997D01*
Y432663D01*
X502835Y433496D01*
X503668D01*
X504501Y432663D01*
Y431830D01*
Y432663D01*
X505334Y433496D01*
X506167D01*
X507000Y432663D01*
Y430997D01*
X506167Y430164D01*
X458835Y492332D02*
X458002Y491499D01*
Y489833D01*
X458835Y489000D01*
X462167D01*
X463000Y489833D01*
Y491499D01*
X462167Y492332D01*
X463000Y493998D02*
Y495664D01*
Y494831D01*
X458002D01*
X458835Y493998D01*
X462167Y498164D02*
X463000Y498997D01*
Y500663D01*
X462167Y501496D01*
X458835D01*
X458002Y500663D01*
Y498997D01*
X458835Y498164D01*
X459668D01*
X460501Y498997D01*
Y501496D01*
X116835Y630332D02*
X116002Y629499D01*
Y627833D01*
X116835Y627000D01*
X120167D01*
X121000Y627833D01*
Y629499D01*
X120167Y630332D01*
X121000Y635331D02*
Y631998D01*
X117668Y635331D01*
X116835D01*
X116002Y634497D01*
Y632831D01*
X116835Y631998D01*
X431332Y475165D02*
X430499Y475998D01*
X428833D01*
X428000Y475165D01*
Y471833D01*
X428833Y471000D01*
X430499D01*
X431332Y471833D01*
X436331Y471000D02*
X432998D01*
X436331Y474332D01*
Y475165D01*
X435498Y475998D01*
X433831D01*
X432998Y475165D01*
X437997Y471000D02*
X439663D01*
X438830D01*
Y475998D01*
X437997Y475165D01*
X549332Y552165D02*
X548499Y552998D01*
X546833D01*
X546000Y552165D01*
Y548833D01*
X546833Y548000D01*
X548499D01*
X549332Y548833D01*
X554331Y548000D02*
X550998D01*
X554331Y551332D01*
Y552165D01*
X553498Y552998D01*
X551831D01*
X550998Y552165D01*
X555997D02*
X556830Y552998D01*
X558496D01*
X559329Y552165D01*
Y551332D01*
X558496Y550499D01*
X557663D01*
X558496D01*
X559329Y549666D01*
Y548833D01*
X558496Y548000D01*
X556830D01*
X555997Y548833D01*
X468332Y556165D02*
X467499Y556998D01*
X465833D01*
X465000Y556165D01*
Y552833D01*
X465833Y552000D01*
X467499D01*
X468332Y552833D01*
X473331Y552000D02*
X469998D01*
X473331Y555332D01*
Y556165D01*
X472498Y556998D01*
X470831D01*
X469998Y556165D01*
X477496Y552000D02*
Y556998D01*
X474997Y554499D01*
X478329D01*
X549332Y529165D02*
X548499Y529998D01*
X546833D01*
X546000Y529165D01*
Y525833D01*
X546833Y525000D01*
X548499D01*
X549332Y525833D01*
X554331Y525000D02*
X550998D01*
X554331Y528332D01*
Y529165D01*
X553498Y529998D01*
X551831D01*
X550998Y529165D01*
X559329Y529998D02*
X555997D01*
Y527499D01*
X557663Y528332D01*
X558496D01*
X559329Y527499D01*
Y525833D01*
X558496Y525000D01*
X556830D01*
X555997Y525833D01*
X171332Y724165D02*
X170499Y724998D01*
X168833D01*
X168000Y724165D01*
Y720833D01*
X168833Y720000D01*
X170499D01*
X171332Y720833D01*
X176331Y720000D02*
X172998D01*
X176331Y723332D01*
Y724165D01*
X175497Y724998D01*
X173831D01*
X172998Y724165D01*
X181329Y724998D02*
X179663Y724165D01*
X177997Y722499D01*
Y720833D01*
X178830Y720000D01*
X180496D01*
X181329Y720833D01*
Y721666D01*
X180496Y722499D01*
X177997D01*
X145835Y741332D02*
X145002Y740499D01*
Y738833D01*
X145835Y738000D01*
X149167D01*
X150000Y738833D01*
Y740499D01*
X149167Y741332D01*
X150000Y746331D02*
Y742998D01*
X146668Y746331D01*
X145835D01*
X145002Y745498D01*
Y743831D01*
X145835Y742998D01*
X145002Y747997D02*
Y751329D01*
X145835D01*
X149167Y747997D01*
X150000D01*
X532835Y493332D02*
X532002Y492499D01*
Y490833D01*
X532835Y490000D01*
X536167D01*
X537000Y490833D01*
Y492499D01*
X536167Y493332D01*
X537000Y498331D02*
Y494998D01*
X533668Y498331D01*
X532835D01*
X532002Y497498D01*
Y495831D01*
X532835Y494998D01*
Y499997D02*
X532002Y500830D01*
Y502496D01*
X532835Y503329D01*
X533668D01*
X534501Y502496D01*
X535334Y503329D01*
X536167D01*
X537000Y502496D01*
Y500830D01*
X536167Y499997D01*
X535334D01*
X534501Y500830D01*
X533668Y499997D01*
X532835D01*
X534501Y500830D02*
Y502496D01*
X223835Y923332D02*
X223002Y922499D01*
Y920833D01*
X223835Y920000D01*
X227167D01*
X228000Y920833D01*
Y922499D01*
X227167Y923332D01*
X228000Y928331D02*
Y924998D01*
X224668Y928331D01*
X223835D01*
X223002Y927497D01*
Y925831D01*
X223835Y924998D01*
X227167Y929997D02*
X228000Y930830D01*
Y932496D01*
X227167Y933329D01*
X223835D01*
X223002Y932496D01*
Y930830D01*
X223835Y929997D01*
X224668D01*
X225501Y930830D01*
Y933329D01*
X61835Y759332D02*
X61002Y758499D01*
Y756833D01*
X61835Y756000D01*
X65167D01*
X66000Y756833D01*
Y758499D01*
X65167Y759332D01*
X61835Y760998D02*
X61002Y761831D01*
Y763498D01*
X61835Y764331D01*
X62668D01*
X63501Y763498D01*
Y762664D01*
Y763498D01*
X64334Y764331D01*
X65167D01*
X66000Y763498D01*
Y761831D01*
X65167Y760998D01*
X322835Y667332D02*
X322002Y666499D01*
Y664833D01*
X322835Y664000D01*
X326167D01*
X327000Y664833D01*
Y666499D01*
X326167Y667332D01*
X322835Y668998D02*
X322002Y669831D01*
Y671497D01*
X322835Y672331D01*
X323668D01*
X324501Y671497D01*
Y670665D01*
Y671497D01*
X325334Y672331D01*
X326167D01*
X327000Y671497D01*
Y669831D01*
X326167Y668998D01*
X322835Y673997D02*
X322002Y674830D01*
Y676496D01*
X322835Y677329D01*
X326167D01*
X327000Y676496D01*
Y674830D01*
X326167Y673997D01*
X322835D01*
X244332Y702165D02*
X243499Y702998D01*
X241833D01*
X241000Y702165D01*
Y698833D01*
X241833Y698000D01*
X243499D01*
X244332Y698833D01*
X245998Y702165D02*
X246831Y702998D01*
X248498D01*
X249331Y702165D01*
Y701332D01*
X248498Y700499D01*
X247665D01*
X248498D01*
X249331Y699666D01*
Y698833D01*
X248498Y698000D01*
X246831D01*
X245998Y698833D01*
X250997Y698000D02*
X252663D01*
X251830D01*
Y702998D01*
X250997Y702165D01*
X344835Y667332D02*
X344002Y666499D01*
Y664833D01*
X344835Y664000D01*
X348167D01*
X349000Y664833D01*
Y666499D01*
X348167Y667332D01*
X344835Y668998D02*
X344002Y669831D01*
Y671497D01*
X344835Y672331D01*
X345668D01*
X346501Y671497D01*
Y670665D01*
Y671497D01*
X347334Y672331D01*
X348167D01*
X349000Y671497D01*
Y669831D01*
X348167Y668998D01*
X349000Y677329D02*
Y673997D01*
X345668Y677329D01*
X344835D01*
X344002Y676496D01*
Y674830D01*
X344835Y673997D01*
X359835Y909332D02*
X359002Y908499D01*
Y906833D01*
X359835Y906000D01*
X363167D01*
X364000Y906833D01*
Y908499D01*
X363167Y909332D01*
X359835Y910998D02*
X359002Y911832D01*
Y913498D01*
X359835Y914331D01*
X360668D01*
X361501Y913498D01*
Y912664D01*
Y913498D01*
X362334Y914331D01*
X363167D01*
X364000Y913498D01*
Y911832D01*
X363167Y910998D01*
X359835Y915997D02*
X359002Y916830D01*
Y918496D01*
X359835Y919329D01*
X360668D01*
X361501Y918496D01*
Y917663D01*
Y918496D01*
X362334Y919329D01*
X363167D01*
X364000Y918496D01*
Y916830D01*
X363167Y915997D01*
X179835Y923332D02*
X179002Y922499D01*
Y920833D01*
X179835Y920000D01*
X183167D01*
X184000Y920833D01*
Y922499D01*
X183167Y923332D01*
X179835Y924998D02*
X179002Y925831D01*
Y927497D01*
X179835Y928331D01*
X180668D01*
X181501Y927497D01*
Y926665D01*
Y927497D01*
X182334Y928331D01*
X183167D01*
X184000Y927497D01*
Y925831D01*
X183167Y924998D01*
X184000Y932496D02*
X179002D01*
X181501Y929997D01*
Y933329D01*
X246332Y717165D02*
X245499Y717998D01*
X243833D01*
X243000Y717165D01*
Y713833D01*
X243833Y713000D01*
X245499D01*
X246332Y713833D01*
X247998Y717165D02*
X248831Y717998D01*
X250497D01*
X251331Y717165D01*
Y716332D01*
X250497Y715499D01*
X249664D01*
X250497D01*
X251331Y714666D01*
Y713833D01*
X250497Y713000D01*
X248831D01*
X247998Y713833D01*
X256329Y717998D02*
X252997D01*
Y715499D01*
X254663Y716332D01*
X255496D01*
X256329Y715499D01*
Y713833D01*
X255496Y713000D01*
X253830D01*
X252997Y713833D01*
X367332Y718165D02*
X366499Y718998D01*
X364833D01*
X364000Y718165D01*
Y714833D01*
X364833Y714000D01*
X366499D01*
X367332Y714833D01*
X368998Y718165D02*
X369831Y718998D01*
X371498D01*
X372331Y718165D01*
Y717332D01*
X371498Y716499D01*
X370664D01*
X371498D01*
X372331Y715666D01*
Y714833D01*
X371498Y714000D01*
X369831D01*
X368998Y714833D01*
X377329Y718998D02*
X375663Y718165D01*
X373997Y716499D01*
Y714833D01*
X374830Y714000D01*
X376496D01*
X377329Y714833D01*
Y715666D01*
X376496Y716499D01*
X373997D01*
X390421Y886804D02*
X389588Y887637D01*
X387921D01*
X387088Y886804D01*
Y883472D01*
X387921Y882639D01*
X389588D01*
X390421Y883472D01*
X392087Y886804D02*
X392920Y887637D01*
X394586D01*
X395419Y886804D01*
Y885971D01*
X394586Y885138D01*
X393753D01*
X394586D01*
X395419Y884305D01*
Y883472D01*
X394586Y882639D01*
X392920D01*
X392087Y883472D01*
X397085Y887637D02*
X400417D01*
Y886804D01*
X397085Y883472D01*
Y882639D01*
X208835Y918332D02*
X208002Y917499D01*
Y915833D01*
X208835Y915000D01*
X212167D01*
X213000Y915833D01*
Y917499D01*
X212167Y918332D01*
X208835Y919998D02*
X208002Y920831D01*
Y922497D01*
X208835Y923331D01*
X209668D01*
X210501Y922497D01*
Y921665D01*
Y922497D01*
X211334Y923331D01*
X212167D01*
X213000Y922497D01*
Y920831D01*
X212167Y919998D01*
X208835Y924997D02*
X208002Y925830D01*
Y927496D01*
X208835Y928329D01*
X209668D01*
X210501Y927496D01*
X211334Y928329D01*
X212167D01*
X213000Y927496D01*
Y925830D01*
X212167Y924997D01*
X211334D01*
X210501Y925830D01*
X209668Y924997D01*
X208835D01*
X210501Y925830D02*
Y927496D01*
X147835Y910332D02*
X147002Y909499D01*
Y907833D01*
X147835Y907000D01*
X151167D01*
X152000Y907833D01*
Y909499D01*
X151167Y910332D01*
X147835Y911998D02*
X147002Y912831D01*
Y914498D01*
X147835Y915331D01*
X148668D01*
X149501Y914498D01*
Y913664D01*
Y914498D01*
X150334Y915331D01*
X151167D01*
X152000Y914498D01*
Y912831D01*
X151167Y911998D01*
Y916997D02*
X152000Y917830D01*
Y919496D01*
X151167Y920329D01*
X147835D01*
X147002Y919496D01*
Y917830D01*
X147835Y916997D01*
X148668D01*
X149501Y917830D01*
Y920329D01*
X76835Y792332D02*
X76002Y791499D01*
Y789833D01*
X76835Y789000D01*
X80167D01*
X81000Y789833D01*
Y791499D01*
X80167Y792332D01*
X81000Y796497D02*
X76002D01*
X78501Y793998D01*
Y797331D01*
X163835Y776332D02*
X163002Y775499D01*
Y773833D01*
X163835Y773000D01*
X167167D01*
X168000Y773833D01*
Y775499D01*
X167167Y776332D01*
X168000Y780498D02*
X163002D01*
X165501Y777998D01*
Y781331D01*
X163835Y782997D02*
X163002Y783830D01*
Y785496D01*
X163835Y786329D01*
X167167D01*
X168000Y785496D01*
Y783830D01*
X167167Y782997D01*
X163835D01*
X177332Y748165D02*
X176499Y748998D01*
X174833D01*
X174000Y748165D01*
Y744833D01*
X174833Y744000D01*
X176499D01*
X177332Y744833D01*
X181498Y744000D02*
Y748998D01*
X178998Y746499D01*
X182331D01*
X183997Y744000D02*
X185663D01*
X184830D01*
Y748998D01*
X183997Y748165D01*
X197835Y773332D02*
X197002Y772499D01*
Y770833D01*
X197835Y770000D01*
X201167D01*
X202000Y770833D01*
Y772499D01*
X201167Y773332D01*
X202000Y777498D02*
X197002D01*
X199501Y774998D01*
Y778331D01*
X202000Y783329D02*
Y779997D01*
X198668Y783329D01*
X197835D01*
X197002Y782496D01*
Y780830D01*
X197835Y779997D01*
X543332Y849165D02*
X542499Y849998D01*
X540833D01*
X540000Y849165D01*
Y845833D01*
X540833Y845000D01*
X542499D01*
X543332Y845833D01*
X547498Y845000D02*
Y849998D01*
X544998Y847499D01*
X548331D01*
X552496Y845000D02*
Y849998D01*
X549997Y847499D01*
X553329D01*
X505835Y824332D02*
X505002Y823499D01*
Y821833D01*
X505835Y821000D01*
X509167D01*
X510000Y821833D01*
Y823499D01*
X509167Y824332D01*
X510000Y828498D02*
X505002D01*
X507501Y825998D01*
Y829331D01*
X505002Y834329D02*
Y830997D01*
X507501D01*
X506668Y832663D01*
Y833496D01*
X507501Y834329D01*
X509167D01*
X510000Y833496D01*
Y831830D01*
X509167Y830997D01*
X513835Y773332D02*
X513002Y772499D01*
Y770833D01*
X513835Y770000D01*
X517167D01*
X518000Y770833D01*
Y772499D01*
X517167Y773332D01*
X518000Y777498D02*
X513002D01*
X515501Y774998D01*
Y778331D01*
X513002Y783329D02*
X513835Y781663D01*
X515501Y779997D01*
X517167D01*
X518000Y780830D01*
Y782496D01*
X517167Y783329D01*
X516334D01*
X515501Y782496D01*
Y779997D01*
X503332Y747165D02*
X502499Y747998D01*
X500833D01*
X500000Y747165D01*
Y743833D01*
X500833Y743000D01*
X502499D01*
X503332Y743833D01*
X507497Y743000D02*
Y747998D01*
X504998Y745499D01*
X508331D01*
X509997Y747998D02*
X513329D01*
Y747165D01*
X509997Y743833D01*
Y743000D01*
X113332Y767165D02*
X112499Y767998D01*
X110833D01*
X110000Y767165D01*
Y763833D01*
X110833Y763000D01*
X112499D01*
X113332Y763833D01*
X118331Y767998D02*
X114998D01*
Y765499D01*
X116664Y766332D01*
X117498D01*
X118331Y765499D01*
Y763833D01*
X117498Y763000D01*
X115831D01*
X114998Y763833D01*
X397332Y566165D02*
X396499Y566998D01*
X394833D01*
X394000Y566165D01*
Y562833D01*
X394833Y562000D01*
X396499D01*
X397332Y562833D01*
X402331Y566998D02*
X398998D01*
Y564499D01*
X400664Y565332D01*
X401497D01*
X402331Y564499D01*
Y562833D01*
X401497Y562000D01*
X399831D01*
X398998Y562833D01*
X407329Y562000D02*
X403997D01*
X407329Y565332D01*
Y566165D01*
X406496Y566998D01*
X404830D01*
X403997Y566165D01*
X382332Y549165D02*
X381499Y549998D01*
X379833D01*
X379000Y549165D01*
Y545833D01*
X379833Y545000D01*
X381499D01*
X382332Y545833D01*
X387331Y549998D02*
X383998D01*
Y547499D01*
X385664Y548332D01*
X386498D01*
X387331Y547499D01*
Y545833D01*
X386498Y545000D01*
X384831D01*
X383998Y545833D01*
X388997Y549165D02*
X389830Y549998D01*
X391496D01*
X392329Y549165D01*
Y548332D01*
X391496Y547499D01*
X390663D01*
X391496D01*
X392329Y546666D01*
Y545833D01*
X391496Y545000D01*
X389830D01*
X388997Y545833D01*
X249332Y572165D02*
X248499Y572998D01*
X246833D01*
X246000Y572165D01*
Y568833D01*
X246833Y568000D01*
X248499D01*
X249332Y568833D01*
X254331Y572998D02*
X250998D01*
Y570499D01*
X252665Y571332D01*
X253498D01*
X254331Y570499D01*
Y568833D01*
X253498Y568000D01*
X251831D01*
X250998Y568833D01*
X258496Y568000D02*
Y572998D01*
X255997Y570499D01*
X259329D01*
X114332Y787165D02*
X113499Y787998D01*
X111833D01*
X111000Y787165D01*
Y783833D01*
X111833Y783000D01*
X113499D01*
X114332Y783833D01*
X119331Y787998D02*
X117664Y787165D01*
X115998Y785499D01*
Y783833D01*
X116831Y783000D01*
X118498D01*
X119331Y783833D01*
Y784666D01*
X118498Y785499D01*
X115998D01*
X514196Y395421D02*
X513363Y394588D01*
Y392921D01*
X514196Y392088D01*
X517528D01*
X518361Y392921D01*
Y394588D01*
X517528Y395421D01*
Y397087D02*
X518361Y397920D01*
Y399586D01*
X517528Y400419D01*
X514196D01*
X513363Y399586D01*
Y397920D01*
X514196Y397087D01*
X515029D01*
X515862Y397920D01*
Y400419D01*
X152000Y676998D02*
Y672000D01*
X154499D01*
X155332Y672833D01*
Y676165D01*
X154499Y676998D01*
X152000D01*
X156998Y672000D02*
X158665D01*
X157831D01*
Y676998D01*
X156998Y676165D01*
X24000Y562998D02*
Y558000D01*
X26499D01*
X27332Y558833D01*
Y562165D01*
X26499Y562998D01*
X24000D01*
X32331Y558000D02*
X28998D01*
X32331Y561332D01*
Y562165D01*
X31497Y562998D01*
X29831D01*
X28998Y562165D01*
X226000Y556998D02*
Y552000D01*
X228499D01*
X229332Y552833D01*
Y556165D01*
X228499Y556998D01*
X226000D01*
X234331D02*
X230998D01*
Y554499D01*
X232665Y555332D01*
X233498D01*
X234331Y554499D01*
Y552833D01*
X233498Y552000D01*
X231831D01*
X230998Y552833D01*
X485000Y500998D02*
X486666D01*
X485833D01*
Y496000D01*
X485000D01*
X486666D01*
X492498Y500165D02*
X491665Y500998D01*
X489998D01*
X489165Y500165D01*
Y496833D01*
X489998Y496000D01*
X491665D01*
X492498Y496833D01*
X497496Y496000D02*
X494164D01*
X497496Y499332D01*
Y500165D01*
X496663Y500998D01*
X494997D01*
X494164Y500165D01*
X446832Y689998D02*
X445166D01*
X445999D01*
Y685833D01*
X445166Y685000D01*
X444333D01*
X443500Y685833D01*
X451831Y685000D02*
X448498D01*
X451831Y688332D01*
Y689165D01*
X450998Y689998D01*
X449331D01*
X448498Y689165D01*
X486000Y535998D02*
Y531000D01*
X489332D01*
X490998D02*
X492664D01*
X491831D01*
Y535998D01*
X490998Y535165D01*
X38332Y737833D02*
Y741165D01*
X37499Y741998D01*
X35833D01*
X35000Y741165D01*
Y737833D01*
X35833Y737000D01*
X37499D01*
X36666Y738666D02*
X38332Y737000D01*
X37499D02*
X38332Y737833D01*
X39998Y737000D02*
X41665D01*
X40831D01*
Y741998D01*
X39998Y741165D01*
X201000Y551000D02*
Y546002D01*
X198501D01*
X197668Y546835D01*
Y548501D01*
X198501Y549334D01*
X201000D01*
X199334D02*
X197668Y551000D01*
X196002D02*
X194335D01*
X195169D01*
Y546002D01*
X196002Y546835D01*
X528000Y460000D02*
Y464998D01*
X530499D01*
X531332Y464165D01*
Y462499D01*
X530499Y461666D01*
X528000D01*
X529666D02*
X531332Y460000D01*
X532998D02*
X534664D01*
X533831D01*
Y464998D01*
X532998Y464165D01*
X537164D02*
X537997Y464998D01*
X539663D01*
X540496Y464165D01*
Y460833D01*
X539663Y460000D01*
X537997D01*
X537164Y460833D01*
Y464165D01*
X515000Y507000D02*
X510002D01*
Y509499D01*
X510835Y510332D01*
X512501D01*
X513334Y509499D01*
Y507000D01*
Y508666D02*
X515000Y510332D01*
Y511998D02*
Y513665D01*
Y512831D01*
X510002D01*
X510835Y511998D01*
Y516164D02*
X510002Y516997D01*
Y518663D01*
X510835Y519496D01*
X511668D01*
X512501Y518663D01*
Y517830D01*
Y518663D01*
X513334Y519496D01*
X514167D01*
X515000Y518663D01*
Y516997D01*
X514167Y516164D01*
X516000Y454000D02*
X511002D01*
Y456499D01*
X511835Y457332D01*
X513501D01*
X514334Y456499D01*
Y454000D01*
Y455666D02*
X516000Y457332D01*
Y458998D02*
Y460664D01*
Y459831D01*
X511002D01*
X511835Y458998D01*
X511002Y466496D02*
Y463164D01*
X513501D01*
X512668Y464830D01*
Y465663D01*
X513501Y466496D01*
X515167D01*
X516000Y465663D01*
Y463997D01*
X515167Y463164D01*
X252000Y912000D02*
X247002D01*
Y914499D01*
X247835Y915332D01*
X249501D01*
X250334Y914499D01*
Y912000D01*
Y913666D02*
X252000Y915332D01*
Y916998D02*
Y918664D01*
Y917831D01*
X247002D01*
X247835Y916998D01*
Y921164D02*
X247002Y921997D01*
Y923663D01*
X247835Y924496D01*
X248668D01*
X249501Y923663D01*
X250334Y924496D01*
X251167D01*
X252000Y923663D01*
Y921997D01*
X251167Y921164D01*
X250334D01*
X249501Y921997D01*
X248668Y921164D01*
X247835D01*
X249501Y921997D02*
Y923663D01*
X111000Y604000D02*
X106002D01*
Y606499D01*
X106835Y607332D01*
X108501D01*
X109334Y606499D01*
Y604000D01*
Y605666D02*
X111000Y607332D01*
Y612331D02*
Y608998D01*
X107668Y612331D01*
X106835D01*
X106002Y611498D01*
Y609831D01*
X106835Y608998D01*
X117000Y892000D02*
Y896998D01*
X119499D01*
X120332Y896165D01*
Y894499D01*
X119499Y893666D01*
X117000D01*
X118666D02*
X120332Y892000D01*
X125331D02*
X121998D01*
X125331Y895332D01*
Y896165D01*
X124497Y896998D01*
X122831D01*
X121998Y896165D01*
X130329Y892000D02*
X126997D01*
X130329Y895332D01*
Y896165D01*
X129496Y896998D01*
X127830D01*
X126997Y896165D01*
X109000Y879000D02*
Y883998D01*
X111499D01*
X112332Y883165D01*
Y881499D01*
X111499Y880666D01*
X109000D01*
X110666D02*
X112332Y879000D01*
X117331D02*
X113998D01*
X117331Y882332D01*
Y883165D01*
X116498Y883998D01*
X114831D01*
X113998Y883165D01*
X118997D02*
X119830Y883998D01*
X121496D01*
X122329Y883165D01*
Y882332D01*
X121496Y881499D01*
X120663D01*
X121496D01*
X122329Y880666D01*
Y879833D01*
X121496Y879000D01*
X119830D01*
X118997Y879833D01*
X104000Y671000D02*
X99002D01*
Y673499D01*
X99835Y674332D01*
X101501D01*
X102334Y673499D01*
Y671000D01*
Y672666D02*
X104000Y674332D01*
X99835Y675998D02*
X99002Y676831D01*
Y678498D01*
X99835Y679331D01*
X100668D01*
X101501Y678498D01*
Y677664D01*
Y678498D01*
X102334Y679331D01*
X103167D01*
X104000Y678498D01*
Y676831D01*
X103167Y675998D01*
X319000Y549000D02*
Y553998D01*
X321499D01*
X322332Y553165D01*
Y551499D01*
X321499Y550666D01*
X319000D01*
X320666D02*
X322332Y549000D01*
X323998Y553165D02*
X324831Y553998D01*
X326497D01*
X327331Y553165D01*
Y552332D01*
X326497Y551499D01*
X325664D01*
X326497D01*
X327331Y550666D01*
Y549833D01*
X326497Y549000D01*
X324831D01*
X323998Y549833D01*
X332329Y549000D02*
X328997D01*
X332329Y552332D01*
Y553165D01*
X331496Y553998D01*
X329830D01*
X328997Y553165D01*
X363000Y576000D02*
X358002D01*
Y578499D01*
X358835Y579332D01*
X360501D01*
X361334Y578499D01*
Y576000D01*
Y577666D02*
X363000Y579332D01*
X358835Y580998D02*
X358002Y581831D01*
Y583498D01*
X358835Y584331D01*
X359668D01*
X360501Y583498D01*
Y582664D01*
Y583498D01*
X361334Y584331D01*
X362167D01*
X363000Y583498D01*
Y581831D01*
X362167Y580998D01*
X358835Y585997D02*
X358002Y586830D01*
Y588496D01*
X358835Y589329D01*
X359668D01*
X360501Y588496D01*
Y587663D01*
Y588496D01*
X361334Y589329D01*
X362167D01*
X363000Y588496D01*
Y586830D01*
X362167Y585997D01*
X76000Y756000D02*
X71002D01*
Y758499D01*
X71835Y759332D01*
X73501D01*
X74334Y758499D01*
Y756000D01*
Y757666D02*
X76000Y759332D01*
Y763498D02*
X71002D01*
X73501Y760998D01*
Y764331D01*
X47000Y542000D02*
Y546998D01*
X49499D01*
X50332Y546165D01*
Y544499D01*
X49499Y543666D01*
X47000D01*
X48666D02*
X50332Y542000D01*
X55331Y546998D02*
X51998D01*
Y544499D01*
X53664Y545332D01*
X54498D01*
X55331Y544499D01*
Y542833D01*
X54498Y542000D01*
X52831D01*
X51998Y542833D01*
X115000Y683000D02*
X110002D01*
Y685499D01*
X110835Y686332D01*
X112501D01*
X113334Y685499D01*
Y683000D01*
Y684666D02*
X115000Y686332D01*
X110002Y691331D02*
X110835Y689665D01*
X112501Y687998D01*
X114167D01*
X115000Y688831D01*
Y690498D01*
X114167Y691331D01*
X113334D01*
X112501Y690498D01*
Y687998D01*
X57000Y706000D02*
Y710998D01*
X59499D01*
X60332Y710165D01*
Y708499D01*
X59499Y707666D01*
X57000D01*
X58666D02*
X60332Y706000D01*
X61998Y710998D02*
X65331D01*
Y710165D01*
X61998Y706833D01*
Y706000D01*
X37000Y777000D02*
Y781998D01*
X39499D01*
X40332Y781165D01*
Y779499D01*
X39499Y778666D01*
X37000D01*
X38666D02*
X40332Y777000D01*
X41998Y781165D02*
X42831Y781998D01*
X44497D01*
X45331Y781165D01*
Y780332D01*
X44497Y779499D01*
X45331Y778666D01*
Y777833D01*
X44497Y777000D01*
X42831D01*
X41998Y777833D01*
Y778666D01*
X42831Y779499D01*
X41998Y780332D01*
Y781165D01*
X42831Y779499D02*
X44497D01*
X95000Y758998D02*
Y754833D01*
X95833Y754000D01*
X97499D01*
X98332Y754833D01*
Y758998D01*
X99998Y754000D02*
X101664D01*
X100831D01*
Y758998D01*
X99998Y758165D01*
X131000Y869998D02*
Y865833D01*
X131833Y865000D01*
X133499D01*
X134332Y865833D01*
Y869998D01*
X139331D02*
X135998D01*
Y867499D01*
X137664Y868332D01*
X138497D01*
X139331Y867499D01*
Y865833D01*
X138497Y865000D01*
X136831D01*
X135998Y865833D01*
X367000Y617998D02*
Y613833D01*
X367833Y613000D01*
X369499D01*
X370332Y613833D01*
Y617998D01*
X371998D02*
X375331D01*
Y617165D01*
X371998Y613833D01*
Y613000D01*
X523000Y759998D02*
X526332D01*
X524666D01*
Y755000D01*
X527998D02*
X529664D01*
X528831D01*
Y759998D01*
X527998Y759165D01*
X524000Y734000D02*
Y738998D01*
X526499D01*
X527332Y738165D01*
Y736499D01*
X526499Y735666D01*
X524000D01*
X525666D02*
X527332Y734000D01*
X528998D02*
X530664D01*
X529831D01*
Y738998D01*
X528998Y738165D01*
X536496Y734000D02*
X533164D01*
X536496Y737332D01*
Y738165D01*
X535663Y738998D01*
X533997D01*
X533164Y738165D01*
X559000Y784000D02*
Y788998D01*
X561499D01*
X562332Y788165D01*
Y786499D01*
X561499Y785666D01*
X559000D01*
X560666D02*
X562332Y784000D01*
X563998D02*
X565664D01*
X564831D01*
Y788998D01*
X563998Y788165D01*
X570663Y784000D02*
Y788998D01*
X568164Y786499D01*
X571496D01*
X135000Y813000D02*
Y817998D01*
X137499D01*
X138332Y817165D01*
Y815499D01*
X137499Y814666D01*
X135000D01*
X136666D02*
X138332Y813000D01*
X139998D02*
X141664D01*
X140831D01*
Y817998D01*
X139998Y817165D01*
X144164Y813833D02*
X144997Y813000D01*
X146663D01*
X147496Y813833D01*
Y817165D01*
X146663Y817998D01*
X144997D01*
X144164Y817165D01*
Y816332D01*
X144997Y815499D01*
X147496D01*
X429332Y384833D02*
Y388165D01*
X428499Y388998D01*
X426833D01*
X426000Y388165D01*
Y384833D01*
X426833Y384000D01*
X428499D01*
X427666Y385666D02*
X429332Y384000D01*
X428499D02*
X429332Y384833D01*
X434331Y384000D02*
X430998D01*
X434331Y387332D01*
Y388165D01*
X433498Y388998D01*
X431831D01*
X430998Y388165D01*
X462000Y414000D02*
Y418998D01*
X464499D01*
X465332Y418165D01*
Y416499D01*
X464499Y415666D01*
X462000D01*
X463666D02*
X465332Y414000D01*
X470331D02*
X466998D01*
X470331Y417332D01*
Y418165D01*
X469497Y418998D01*
X467831D01*
X466998Y418165D01*
X471997D02*
X472830Y418998D01*
X474496D01*
X475329Y418165D01*
Y414833D01*
X474496Y414000D01*
X472830D01*
X471997Y414833D01*
Y418165D01*
X473835Y391332D02*
X473002Y390499D01*
Y388833D01*
X473835Y388000D01*
X477167D01*
X478000Y388833D01*
Y390499D01*
X477167Y391332D01*
X473835Y392998D02*
X473002Y393831D01*
Y395498D01*
X473835Y396331D01*
X474668D01*
X475501Y395498D01*
X476334Y396331D01*
X477167D01*
X478000Y395498D01*
Y393831D01*
X477167Y392998D01*
X476334D01*
X475501Y393831D01*
X474668Y392998D01*
X473835D01*
X475501Y393831D02*
Y395498D01*
X428332Y363833D02*
Y367165D01*
X427499Y367998D01*
X425833D01*
X425000Y367165D01*
Y363833D01*
X425833Y363000D01*
X427499D01*
X426666Y364666D02*
X428332Y363000D01*
X427499D02*
X428332Y363833D01*
X433331Y367998D02*
X429998D01*
Y365499D01*
X431665Y366332D01*
X432497D01*
X433331Y365499D01*
Y363833D01*
X432497Y363000D01*
X430831D01*
X429998Y363833D01*
X495000Y361000D02*
X490002D01*
Y363499D01*
X490835Y364332D01*
X492501D01*
X493334Y363499D01*
Y361000D01*
Y362666D02*
X495000Y364332D01*
Y369331D02*
Y365998D01*
X491668Y369331D01*
X490835D01*
X490002Y368498D01*
Y366831D01*
X490835Y365998D01*
X495000Y370997D02*
Y372663D01*
Y371830D01*
X490002D01*
X490835Y370997D01*
X505000Y356000D02*
Y360998D01*
X507499D01*
X508332Y360165D01*
Y358499D01*
X507499Y357666D01*
X505000D01*
X506666D02*
X508332Y356000D01*
X513331D02*
X509998D01*
X513331Y359332D01*
Y360165D01*
X512498Y360998D01*
X510831D01*
X509998Y360165D01*
X518329Y360998D02*
X516663Y360165D01*
X514997Y358499D01*
Y356833D01*
X515830Y356000D01*
X517496D01*
X518329Y356833D01*
Y357666D01*
X517496Y358499D01*
X514997D01*
X396000Y410000D02*
Y414998D01*
X398499D01*
X399332Y414165D01*
Y412499D01*
X398499Y411666D01*
X396000D01*
X397666D02*
X399332Y410000D01*
X404331D02*
X400998D01*
X404331Y413332D01*
Y414165D01*
X403498Y414998D01*
X401831D01*
X400998Y414165D01*
X405997Y414998D02*
X409329D01*
Y414165D01*
X405997Y410833D01*
Y410000D01*
X490332Y330833D02*
Y334165D01*
X489499Y334998D01*
X487833D01*
X487000Y334165D01*
Y330833D01*
X487833Y330000D01*
X489499D01*
X488666Y331666D02*
X490332Y330000D01*
X489499D02*
X490332Y330833D01*
X495331Y334998D02*
X493665Y334165D01*
X491998Y332499D01*
Y330833D01*
X492831Y330000D01*
X494497D01*
X495331Y330833D01*
Y331666D01*
X494497Y332499D01*
X491998D01*
X427332Y425833D02*
Y429165D01*
X426499Y429998D01*
X424833D01*
X424000Y429165D01*
Y425833D01*
X424833Y425000D01*
X426499D01*
X425666Y426666D02*
X427332Y425000D01*
X426499D02*
X427332Y425833D01*
X428998Y429998D02*
X432331D01*
Y429165D01*
X428998Y425833D01*
Y425000D01*
X183000Y880000D02*
Y884998D01*
X185499D01*
X186332Y884165D01*
Y882499D01*
X185499Y881666D01*
X183000D01*
X184666D02*
X186332Y880000D01*
X187998D02*
X189664D01*
X188831D01*
Y884998D01*
X187998Y884165D01*
X192164Y884998D02*
X195496D01*
Y884165D01*
X192164Y880833D01*
Y880000D01*
X281000Y559998D02*
Y555000D01*
X283499D01*
X284332Y555833D01*
Y559165D01*
X283499Y559998D01*
X281000D01*
X288498Y555000D02*
Y559998D01*
X285998Y557499D01*
X289331D01*
X541000Y415000D02*
X536002D01*
Y417499D01*
X536835Y418332D01*
X538501D01*
X539334Y417499D01*
Y415000D01*
Y416666D02*
X541000Y418332D01*
X540167Y419998D02*
X541000Y420831D01*
Y422497D01*
X540167Y423331D01*
X536835D01*
X536002Y422497D01*
Y420831D01*
X536835Y419998D01*
X537668D01*
X538501Y420831D01*
Y423331D01*
X286000Y714000D02*
Y718998D01*
X288499D01*
X289332Y718165D01*
Y716499D01*
X288499Y715666D01*
X286000D01*
X287666D02*
X289332Y714000D01*
X290998D02*
X292665D01*
X291831D01*
Y718998D01*
X290998Y718165D01*
X295164Y714000D02*
X296830D01*
X295997D01*
Y718998D01*
X295164Y718165D01*
X393000Y717000D02*
Y721998D01*
X395499D01*
X396332Y721165D01*
Y719499D01*
X395499Y718666D01*
X393000D01*
X394666D02*
X396332Y717000D01*
X401331D02*
X397998D01*
X401331Y720332D01*
Y721165D01*
X400498Y721998D01*
X398831D01*
X397998Y721165D01*
X405496Y717000D02*
Y721998D01*
X402997Y719499D01*
X406329D01*
X468000Y360000D02*
X463002D01*
Y362499D01*
X463835Y363332D01*
X465501D01*
X466334Y362499D01*
Y360000D01*
Y361666D02*
X468000Y363332D01*
Y368331D02*
Y364998D01*
X464668Y368331D01*
X463835D01*
X463002Y367497D01*
Y365831D01*
X463835Y364998D01*
X463002Y373329D02*
Y369997D01*
X465501D01*
X464668Y371663D01*
Y372496D01*
X465501Y373329D01*
X467167D01*
X468000Y372496D01*
Y370830D01*
X467167Y369997D01*
X124332Y545998D02*
X122666D01*
X123499D01*
Y541833D01*
X122666Y541000D01*
X121833D01*
X121000Y541833D01*
X129331Y545998D02*
X127664Y545165D01*
X125998Y543499D01*
Y541833D01*
X126831Y541000D01*
X128498D01*
X129331Y541833D01*
Y542666D01*
X128498Y543499D01*
X125998D01*
X466000Y924998D02*
X469332Y920000D01*
Y924998D02*
X466000Y920000D01*
X470998D02*
X472664D01*
X471831D01*
Y924998D01*
X470998Y924165D01*
X492000Y925000D02*
X493666D01*
X492833D01*
Y929998D01*
X492000Y929165D01*
X562835Y865332D02*
X562002Y864499D01*
Y862833D01*
X562835Y862000D01*
X566167D01*
X567000Y862833D01*
Y864499D01*
X566167Y865332D01*
X562002Y866998D02*
Y870331D01*
X562835D01*
X566167Y866998D01*
X567000D01*
X525835Y885332D02*
X525002Y884499D01*
Y882833D01*
X525835Y882000D01*
X529167D01*
X530000Y882833D01*
Y884499D01*
X529167Y885332D01*
X530000Y886998D02*
Y888664D01*
Y887831D01*
X525002D01*
X525835Y886998D01*
Y891164D02*
X525002Y891997D01*
Y893663D01*
X525835Y894496D01*
X529167D01*
X530000Y893663D01*
Y891997D01*
X529167Y891164D01*
X525835D01*
X545835Y804332D02*
X545002Y803499D01*
Y801833D01*
X545835Y801000D01*
X549167D01*
X550000Y801833D01*
Y803499D01*
X549167Y804332D01*
X550000Y805998D02*
Y807664D01*
Y806831D01*
X545002D01*
X545835Y805998D01*
X550000Y810164D02*
Y811830D01*
Y810997D01*
X545002D01*
X545835Y810164D01*
X543332Y833165D02*
X542499Y833998D01*
X540833D01*
X540000Y833165D01*
Y829833D01*
X540833Y829000D01*
X542499D01*
X543332Y829833D01*
X544998Y829000D02*
X546665D01*
X545831D01*
Y833998D01*
X544998Y833165D01*
X552496Y829000D02*
X549164D01*
X552496Y832332D01*
Y833165D01*
X551663Y833998D01*
X549997D01*
X549164Y833165D01*
X562835Y894332D02*
X562002Y893499D01*
Y891833D01*
X562835Y891000D01*
X566167D01*
X567000Y891833D01*
Y893499D01*
X566167Y894332D01*
X567000Y898497D02*
X562002D01*
X564501Y895998D01*
Y899331D01*
X562835Y900997D02*
X562002Y901830D01*
Y903496D01*
X562835Y904329D01*
X563668D01*
X564501Y903496D01*
X565334Y904329D01*
X566167D01*
X567000Y903496D01*
Y901830D01*
X566167Y900997D01*
X565334D01*
X564501Y901830D01*
X563668Y900997D01*
X562835D01*
X564501Y901830D02*
Y903496D01*
X515835Y930332D02*
X515002Y929499D01*
Y927833D01*
X515835Y927000D01*
X519167D01*
X520000Y927833D01*
Y929499D01*
X519167Y930332D01*
X520000Y934498D02*
X515002D01*
X517501Y931998D01*
Y935331D01*
X519167Y936997D02*
X520000Y937830D01*
Y939496D01*
X519167Y940329D01*
X515835D01*
X515002Y939496D01*
Y937830D01*
X515835Y936997D01*
X516668D01*
X517501Y937830D01*
Y940329D01*
X306000Y919000D02*
X301002D01*
Y921499D01*
X301835Y922332D01*
X303501D01*
X304334Y921499D01*
Y919000D01*
Y920666D02*
X306000Y922332D01*
Y927331D02*
Y923998D01*
X302668Y927331D01*
X301835D01*
X301002Y926497D01*
Y924831D01*
X301835Y923998D01*
Y928997D02*
X301002Y929830D01*
Y931496D01*
X301835Y932329D01*
X302668D01*
X303501Y931496D01*
X304334Y932329D01*
X305167D01*
X306000Y931496D01*
Y929830D01*
X305167Y928997D01*
X304334D01*
X303501Y929830D01*
X302668Y928997D01*
X301835D01*
X303501Y929830D02*
Y931496D01*
X569000Y810000D02*
X564002D01*
Y812499D01*
X564835Y813332D01*
X566501D01*
X567334Y812499D01*
Y810000D01*
Y811666D02*
X569000Y813332D01*
Y814998D02*
Y816665D01*
Y815831D01*
X564002D01*
X564835Y814998D01*
X564002Y822496D02*
X564835Y820830D01*
X566501Y819164D01*
X568167D01*
X569000Y819997D01*
Y821663D01*
X568167Y822496D01*
X567334D01*
X566501Y821663D01*
Y819164D01*
X254000Y837999D02*
Y833834D01*
X254834Y833001D01*
X256500D01*
X257333Y833834D01*
Y837999D01*
X261498Y833001D02*
Y837999D01*
X258999Y835500D01*
X262331D01*
X432332Y767165D02*
X431499Y767998D01*
X429833D01*
X429000Y767165D01*
Y763833D01*
X429833Y763000D01*
X431499D01*
X432332Y763833D01*
X433998Y763000D02*
X435664D01*
X434831D01*
Y767998D01*
X433998Y767165D01*
X440663Y763000D02*
Y767998D01*
X438164Y765499D01*
X441496D01*
X444332Y747165D02*
X443499Y747998D01*
X441833D01*
X441000Y747165D01*
Y743833D01*
X441833Y743000D01*
X443499D01*
X444332Y743833D01*
X445998Y743000D02*
X447664D01*
X446831D01*
Y747998D01*
X445998Y747165D01*
X453496Y747998D02*
X450164D01*
Y745499D01*
X451830Y746332D01*
X452663D01*
X453496Y745499D01*
Y743833D01*
X452663Y743000D01*
X450997D01*
X450164Y743833D01*
X193835Y813332D02*
X193002Y812499D01*
Y810833D01*
X193835Y810000D01*
X197167D01*
X198000Y810833D01*
Y812499D01*
X197167Y813332D01*
X198000Y814998D02*
Y816665D01*
Y815831D01*
X193002D01*
X193835Y814998D01*
X193002Y822496D02*
X193835Y820830D01*
X195501Y819164D01*
X197167D01*
X198000Y819997D01*
Y821663D01*
X197167Y822496D01*
X196334D01*
X195501Y821663D01*
Y819164D01*
X180835Y834332D02*
X180002Y833499D01*
Y831833D01*
X180835Y831000D01*
X184167D01*
X185000Y831833D01*
Y833499D01*
X184167Y834332D01*
X185000Y835998D02*
Y837664D01*
Y836831D01*
X180002D01*
X180835Y835998D01*
X180002Y840164D02*
Y843496D01*
X180835D01*
X184167Y840164D01*
X185000D01*
X91332Y666998D02*
X88000D01*
Y664499D01*
X89666D01*
X88000D01*
Y662000D01*
X92998D02*
X94664D01*
X93831D01*
Y666998D01*
X92998Y666165D01*
X122332Y598998D02*
X119000D01*
Y596499D01*
X120666D01*
X119000D01*
Y594000D01*
X127331D02*
X123998D01*
X127331Y597332D01*
Y598165D01*
X126498Y598998D01*
X124831D01*
X123998Y598165D01*
X530000Y388998D02*
Y384833D01*
X530833Y384000D01*
X532499D01*
X533332Y384833D01*
Y388998D01*
X538331Y384000D02*
X534998D01*
X538331Y387332D01*
Y388165D01*
X537498Y388998D01*
X535831D01*
X534998Y388165D01*
X559135Y638732D02*
X558302Y637899D01*
Y636233D01*
X559135Y635400D01*
X559968D01*
X560801Y636233D01*
Y637899D01*
X561634Y638732D01*
X562467D01*
X563300Y637899D01*
Y636233D01*
X562467Y635400D01*
X559135Y640398D02*
X558302Y641231D01*
Y642897D01*
X559135Y643731D01*
X559968D01*
X560801Y642897D01*
Y642065D01*
Y642897D01*
X561634Y643731D01*
X562467D01*
X563300Y642897D01*
Y641231D01*
X562467Y640398D01*
X482502Y439500D02*
X487500D01*
Y441999D01*
X486667Y442832D01*
X483335D01*
X482502Y441999D01*
Y439500D01*
Y447831D02*
X483335Y446165D01*
X485001Y444498D01*
X486667D01*
X487500Y445331D01*
Y446998D01*
X486667Y447831D01*
X485834D01*
X485001Y446998D01*
Y444498D01*
D195*
X5987Y565500D02*
G03*
X5987Y565500I-985J0D01*
G01*
D196*
X313999Y587000D02*
G03*
X313999Y587000I-1999J0D01*
G01*
D197*
X346674Y884121D02*
X349468D01*
Y894027D01*
X346674D02*
X349468D01*
X346674Y884121D02*
Y894027D01*
X341594Y884121D02*
X344388D01*
Y894027D01*
X341594D02*
X344388D01*
X341594Y884121D02*
Y894027D01*
X336514Y884121D02*
X339308D01*
Y894027D01*
X336514D02*
X339308D01*
X336514Y884121D02*
Y894027D01*
X331688Y884121D02*
X334482D01*
Y894027D01*
X331688D02*
X334482D01*
X331688Y884121D02*
Y894027D01*
X326608Y884121D02*
X329402D01*
Y894027D01*
X326608D02*
X329402D01*
X326608Y884121D02*
Y894027D01*
X321528Y884121D02*
X324322D01*
Y894027D01*
X321528D02*
X324322D01*
X321528Y884121D02*
Y894027D01*
X316702Y884121D02*
X319496D01*
Y894027D01*
X316702D02*
X319496D01*
X316702Y884121D02*
Y894027D01*
X311622Y884121D02*
X314416D01*
Y894027D01*
X311622D02*
X314416D01*
X311622Y884121D02*
Y894027D01*
X306542Y884121D02*
X309336D01*
Y894027D01*
X306542D02*
X309336D01*
X306542Y884121D02*
Y894027D01*
X301716Y884121D02*
X304510D01*
Y894027D01*
X301716D02*
X304510D01*
X301716Y884121D02*
Y894027D01*
X296636Y884121D02*
X299430D01*
Y894027D01*
X296636D02*
X299430D01*
X296636Y884121D02*
Y894027D01*
X291556Y884121D02*
X294350D01*
Y894027D01*
X291556D02*
X294350D01*
X291556Y884121D02*
Y894027D01*
X286476Y884121D02*
X289524D01*
X289270Y894027D02*
X289524Y884121D01*
X286476Y894027D02*
X289270D01*
X286476Y884121D02*
Y894027D01*
X281650Y884121D02*
X284444D01*
Y894027D01*
X281650D02*
X284444D01*
X281650Y884121D02*
Y894027D01*
X276570Y884121D02*
X279364D01*
Y894027D01*
X276570D02*
X279364D01*
X276570Y884121D02*
Y894027D01*
X271490Y884121D02*
X274284D01*
Y894027D01*
X271490D02*
X274284D01*
X271490Y884121D02*
Y894027D01*
X266664Y884121D02*
X269458D01*
Y894027D01*
X266664D02*
X269458D01*
X266664Y884121D02*
Y894027D01*
X261584Y884121D02*
X264378D01*
Y894027D01*
X261584D02*
X264378D01*
X261584Y884121D02*
Y894027D01*
X256504Y884121D02*
X259298D01*
Y894027D01*
X256504D02*
X259298D01*
X256504Y884121D02*
Y894027D01*
X251678Y884121D02*
X254472D01*
Y894027D01*
X251678D02*
X254472D01*
X251678Y884121D02*
Y894027D01*
X246598Y884121D02*
X249392D01*
Y894027D01*
X246598D02*
X249392D01*
X246598Y884121D02*
Y894027D01*
X241518Y884121D02*
X244312D01*
Y894027D01*
X241518D02*
X244312D01*
X241518Y884121D02*
Y894027D01*
X236692Y884121D02*
X239486D01*
Y894027D01*
X236692D02*
X239486D01*
X236692Y884121D02*
Y894027D01*
X231612Y884121D02*
X234406D01*
Y894027D01*
X231612D02*
X234406D01*
X231612Y884121D02*
Y894027D01*
X226532Y884121D02*
X229326D01*
Y894027D01*
X226532D02*
X229326D01*
X226532Y884121D02*
Y894027D01*
X216880Y871675D02*
Y874469D01*
X206974D02*
X216880D01*
X206974Y871675D02*
Y874469D01*
Y871675D02*
X216880D01*
Y866595D02*
Y869389D01*
X206974D02*
X216880D01*
X206974Y866595D02*
Y869389D01*
Y866595D02*
X216880D01*
Y861515D02*
Y864309D01*
X206974D02*
X216880D01*
X206974Y861515D02*
Y864309D01*
Y861515D02*
X216880D01*
Y856689D02*
Y859483D01*
X206974D02*
X216880D01*
X206974Y856689D02*
Y859483D01*
Y856689D02*
X216880D01*
Y851609D02*
Y854403D01*
X206974D02*
X216880D01*
X206974Y851609D02*
Y854403D01*
Y851609D02*
X216880D01*
Y846529D02*
Y849323D01*
X206974D02*
X216880D01*
X206974Y846529D02*
Y849323D01*
Y846529D02*
X216880D01*
Y841703D02*
Y844497D01*
X206974D02*
X216880D01*
X206974Y841703D02*
Y844497D01*
Y841703D02*
X216880D01*
Y836623D02*
Y839417D01*
X206974D02*
X216880D01*
X206974Y836623D02*
Y839417D01*
Y836623D02*
X216880D01*
Y831543D02*
Y834337D01*
X206974D02*
X216880D01*
X206974Y831543D02*
Y834337D01*
Y831543D02*
X216880D01*
Y826717D02*
Y829511D01*
X206974D02*
X216880D01*
X206974Y826717D02*
Y829511D01*
Y826717D02*
X216880D01*
Y821637D02*
Y824431D01*
X206974D02*
X216880D01*
X206974Y821637D02*
Y824431D01*
Y821637D02*
X216880D01*
Y816557D02*
Y819351D01*
X206974D02*
X216880D01*
X206974Y816557D02*
Y819351D01*
Y816557D02*
X216880D01*
Y811477D02*
Y814525D01*
X206974Y814271D02*
X216880Y814525D01*
X206974Y811477D02*
Y814271D01*
Y811477D02*
X216880D01*
Y806651D02*
Y809445D01*
X206974D02*
X216880D01*
X206974Y806651D02*
Y809445D01*
Y806651D02*
X216880D01*
Y801571D02*
Y804365D01*
X206974D02*
X216880D01*
X206974Y801571D02*
Y804365D01*
Y801571D02*
X216880D01*
Y796491D02*
Y799285D01*
X206974D02*
X216880D01*
X206974Y796491D02*
Y799285D01*
Y796491D02*
X216880D01*
Y791665D02*
Y794459D01*
X206974D02*
X216880D01*
X206974Y791665D02*
Y794459D01*
Y791665D02*
X216880D01*
Y786585D02*
Y789379D01*
X206974D02*
X216880D01*
X206974Y786585D02*
Y789379D01*
Y786585D02*
X216880D01*
Y781505D02*
Y784299D01*
X206974D02*
X216880D01*
X206974Y781505D02*
Y784299D01*
Y781505D02*
X216880D01*
Y776679D02*
Y779473D01*
X206974D02*
X216880D01*
X206974Y776679D02*
Y779473D01*
Y776679D02*
X216880D01*
Y771599D02*
Y774393D01*
X206974D02*
X216880D01*
X206974Y771599D02*
Y774393D01*
Y771599D02*
X216880D01*
Y766519D02*
Y769313D01*
X206974D02*
X216880D01*
X206974Y766519D02*
Y769313D01*
Y766519D02*
X216880D01*
Y761693D02*
Y764487D01*
X206974D02*
X216880D01*
X206974Y761693D02*
Y764487D01*
Y761693D02*
X216880D01*
Y756613D02*
Y759407D01*
X206974D02*
X216880D01*
X206974Y756613D02*
Y759407D01*
Y756613D02*
X216880D01*
Y751533D02*
Y754327D01*
X206974D02*
X216880D01*
X206974Y751533D02*
Y754327D01*
Y751533D02*
X216880D01*
X226532Y741881D02*
X229326D01*
X226532Y731975D02*
Y741881D01*
Y731975D02*
X229326D01*
Y741881D01*
X231612D02*
X234406D01*
X231612Y731975D02*
Y741881D01*
Y731975D02*
X234406D01*
Y741881D01*
X236692D02*
X239486D01*
X236692Y731975D02*
Y741881D01*
Y731975D02*
X239486D01*
Y741881D01*
X241518D02*
X244312D01*
X241518Y731975D02*
Y741881D01*
Y731975D02*
X244312D01*
Y741881D01*
X246598D02*
X249392D01*
X246598Y731975D02*
Y741881D01*
Y731975D02*
X249392D01*
Y741881D01*
X251678D02*
X254472D01*
X251678Y731975D02*
Y741881D01*
Y731975D02*
X254472D01*
Y741881D01*
X256504D02*
X259298D01*
X256504Y731975D02*
Y741881D01*
Y731975D02*
X259298D01*
Y741881D01*
X261584D02*
X264378D01*
X261584Y731975D02*
Y741881D01*
Y731975D02*
X264378D01*
Y741881D01*
X266664D02*
X269458D01*
X266664Y731975D02*
Y741881D01*
Y731975D02*
X269458D01*
Y741881D01*
X271490D02*
X274284D01*
X271490Y731975D02*
Y741881D01*
Y731975D02*
X274284D01*
Y741881D01*
X276570D02*
X279364D01*
X276570Y731975D02*
Y741881D01*
Y731975D02*
X279364D01*
Y741881D01*
X281650D02*
X284444D01*
X281650Y731975D02*
Y741881D01*
Y731975D02*
X284444D01*
Y741881D01*
X286476D02*
X289524D01*
X286476D02*
X286730Y731975D01*
X289524D01*
Y741881D01*
X291556D02*
X294350D01*
X291556Y731975D02*
Y741881D01*
Y731975D02*
X294350D01*
Y741881D01*
X296636D02*
X299430D01*
X296636Y731975D02*
Y741881D01*
Y731975D02*
X299430D01*
Y741881D01*
X301716D02*
X304510D01*
X301716Y731975D02*
Y741881D01*
Y731975D02*
X304510D01*
Y741881D01*
X306542D02*
X309336D01*
X306542Y731975D02*
Y741881D01*
Y731975D02*
X309336D01*
Y741881D01*
X311622D02*
X314416D01*
X311622Y731975D02*
Y741881D01*
Y731975D02*
X314416D01*
Y741881D01*
X316702D02*
X319496D01*
X316702Y731975D02*
Y741881D01*
Y731975D02*
X319496D01*
Y741881D01*
X321528D02*
X324322D01*
X321528Y731975D02*
Y741881D01*
Y731975D02*
X324322D01*
Y741881D01*
X326608D02*
X329402D01*
X326608Y731975D02*
Y741881D01*
Y731975D02*
X329402D01*
Y741881D01*
X331688D02*
X334482D01*
X331688Y731975D02*
Y741881D01*
Y731975D02*
X334482D01*
Y741881D01*
X336514D02*
X339308D01*
X336514Y731975D02*
Y741881D01*
Y731975D02*
X339308D01*
Y741881D01*
X341594D02*
X344388D01*
X341594Y731975D02*
Y741881D01*
Y731975D02*
X344388D01*
Y741881D01*
X346674D02*
X349468D01*
X346674Y731975D02*
Y741881D01*
Y731975D02*
X349468D01*
Y741881D01*
X359120Y751533D02*
Y754327D01*
Y751533D02*
X369026D01*
Y754327D01*
X359120D02*
X369026D01*
X359120Y756613D02*
Y759407D01*
Y756613D02*
X369026D01*
Y759407D01*
X359120D02*
X369026D01*
X359120Y761693D02*
Y764487D01*
Y761693D02*
X369026D01*
Y764487D01*
X359120D02*
X369026D01*
X359120Y766519D02*
Y769313D01*
Y766519D02*
X369026D01*
Y769313D01*
X359120D02*
X369026D01*
X359120Y771599D02*
Y774393D01*
Y771599D02*
X369026D01*
Y774393D01*
X359120D02*
X369026D01*
X359120Y776679D02*
Y779473D01*
Y776679D02*
X369026D01*
Y779473D01*
X359120D02*
X369026D01*
X359120Y781505D02*
Y784299D01*
Y781505D02*
X369026D01*
Y784299D01*
X359120D02*
X369026D01*
X359120Y786585D02*
Y789379D01*
Y786585D02*
X369026D01*
Y789379D01*
X359120D02*
X369026D01*
X359120Y791665D02*
Y794459D01*
Y791665D02*
X369026D01*
Y794459D01*
X359120D02*
X369026D01*
X359120Y796491D02*
Y799285D01*
Y796491D02*
X369026D01*
Y799285D01*
X359120D02*
X369026D01*
X359120Y801571D02*
Y804365D01*
Y801571D02*
X369026D01*
Y804365D01*
X359120D02*
X369026D01*
X359120Y806651D02*
Y809445D01*
Y806651D02*
X369026D01*
Y809445D01*
X359120D02*
X369026D01*
X359120Y811477D02*
Y814525D01*
Y811477D02*
X369026Y811731D01*
Y814525D01*
X359120D02*
X369026D01*
X359120Y816557D02*
Y819351D01*
Y816557D02*
X369026D01*
Y819351D01*
X359120D02*
X369026D01*
X359120Y821637D02*
Y824431D01*
Y821637D02*
X369026D01*
Y824431D01*
X359120D02*
X369026D01*
X359120Y826717D02*
Y829511D01*
Y826717D02*
X369026D01*
Y829511D01*
X359120D02*
X369026D01*
X359120Y831543D02*
Y834337D01*
Y831543D02*
X369026D01*
Y834337D01*
X359120D02*
X369026D01*
X359120Y836623D02*
Y839417D01*
Y836623D02*
X369026D01*
Y839417D01*
X359120D02*
X369026D01*
X359120Y841703D02*
Y844497D01*
Y841703D02*
X369026D01*
Y844497D01*
X359120D02*
X369026D01*
X359120Y846529D02*
Y849323D01*
Y846529D02*
X369026D01*
Y849323D01*
X359120D02*
X369026D01*
X359120Y851609D02*
Y854403D01*
Y851609D02*
X369026D01*
Y854403D01*
X359120D02*
X369026D01*
X359120Y856689D02*
Y859483D01*
Y856689D02*
X369026D01*
Y859483D01*
X359120D02*
X369026D01*
X359120Y861515D02*
Y864309D01*
Y861515D02*
X369026D01*
Y864309D01*
X359120D02*
X369026D01*
X359120Y866595D02*
Y869389D01*
Y866595D02*
X369026D01*
Y869389D01*
X359120D02*
X369026D01*
X359120Y871675D02*
Y874469D01*
Y871675D02*
X369026D01*
Y874469D01*
X359120D02*
X369026D01*
X216880Y871421D02*
X229580Y884121D01*
X216880Y741881D02*
X359120D01*
Y884121D01*
X216880D02*
X359120D01*
X216880Y741881D02*
Y884121D01*
D198*
X448000Y419999D02*
Y436001D01*
X440000D02*
X448000D01*
X440000Y419999D02*
Y436001D01*
Y419999D02*
X448000D01*
X470999Y337999D02*
X487001D01*
Y346001D01*
X470999D02*
X487001D01*
X470999Y337999D02*
Y346001D01*
X448000Y357999D02*
Y374001D01*
X440000D02*
X448000D01*
X440000Y357999D02*
Y374001D01*
Y357999D02*
X448000D01*
Y399999D02*
Y416001D01*
X440000D02*
X448000D01*
X440000Y399999D02*
Y416001D01*
Y399999D02*
X448000D01*
Y378999D02*
Y395001D01*
X440000D02*
X448000D01*
X440000Y378999D02*
Y395001D01*
Y378999D02*
X448000D01*
X113251Y590749D02*
X134749D01*
Y577251D02*
Y590749D01*
X113251Y577251D02*
X134749D01*
X113251D02*
Y590749D01*
X82251Y658749D02*
X103749D01*
Y645251D02*
Y658749D01*
X82251Y645251D02*
X103749D01*
X82251D02*
Y658749D01*
X87000Y750000D02*
X123000D01*
X87000Y716000D02*
Y750000D01*
Y716000D02*
X123000D01*
Y750000D01*
X411501Y712000D02*
X515499D01*
Y651500D02*
Y712000D01*
X411501Y651500D02*
X515499D01*
X411501D02*
Y712000D01*
X355501Y623999D02*
X386499D01*
X355501Y606001D02*
Y623999D01*
Y606001D02*
X386499D01*
Y623999D01*
X5992Y540499D02*
Y543490D01*
X10001Y547500D01*
X5992Y559510D02*
Y562501D01*
Y559510D02*
X10001Y555500D01*
X5992Y540499D02*
X18011D01*
X10001Y547500D02*
Y555500D01*
X5992Y562501D02*
X18011D01*
Y540499D02*
Y562501D01*
X477000Y524000D02*
Y544000D01*
Y524000D02*
X503000D01*
Y544000D01*
X477000D02*
X503000D01*
D199*
X202000Y886994D02*
X209195Y879799D01*
X202000D02*
X209195Y886994D01*
X202000Y883396D02*
X209195D01*
X205598Y879799D02*
Y886994D01*
D200*
X341000Y572500D02*
D03*
X337000Y563500D02*
D03*
X345000D02*
D03*
D201*
X438000Y423000D02*
D03*
Y433000D02*
D03*
X450000Y428000D02*
D03*
X438000Y361000D02*
D03*
Y371000D02*
D03*
X450000Y366000D02*
D03*
X438000Y403000D02*
D03*
Y413000D02*
D03*
X450000Y408000D02*
D03*
X438000Y382000D02*
D03*
Y392000D02*
D03*
X450000Y387000D02*
D03*
D202*
X474000Y348000D02*
D03*
X484000D02*
D03*
X479000Y336000D02*
D03*
D203*
X96499Y511000D02*
D03*
X126499D02*
D03*
X156499D02*
D03*
D204*
X538000Y765249D02*
D03*
X169000Y859751D02*
D03*
D205*
X558000Y765500D02*
D03*
X548000Y748000D02*
D03*
X149000Y859500D02*
D03*
X159000Y877000D02*
D03*
D206*
X40750Y729000D02*
D03*
D207*
X40500Y749000D02*
D03*
X58000Y739000D02*
D03*
D208*
X104000Y733000D02*
D03*
D209*
X120500Y718000D02*
D03*
Y723000D02*
D03*
X120500Y728000D02*
D03*
Y733000D02*
D03*
X120500Y738000D02*
D03*
Y743000D02*
D03*
Y748000D02*
D03*
X89500Y718000D02*
D03*
Y723000D02*
D03*
Y728000D02*
D03*
X89500Y733000D02*
D03*
Y738000D02*
D03*
X89500Y743000D02*
D03*
Y748000D02*
D03*
D210*
X533498Y369500D02*
D03*
D211*
X543000Y363000D02*
D03*
Y368000D02*
D03*
X543000Y372000D02*
D03*
Y377000D02*
D03*
X525000Y363000D02*
D03*
X525000Y368000D02*
D03*
X525000Y372000D02*
D03*
Y377000D02*
D03*
D212*
X559002Y821500D02*
D03*
X559000Y812402D02*
D03*
X313002Y929500D02*
D03*
X313000Y920402D02*
D03*
X474002Y371500D02*
D03*
X474000Y362402D02*
D03*
X387002Y720500D02*
D03*
X387000Y711402D02*
D03*
X537998Y428500D02*
D03*
X538000Y437598D02*
D03*
X484997Y362500D02*
D03*
X485000Y371596D02*
D03*
X155998Y808500D02*
D03*
X156000Y817598D02*
D03*
X113002Y706500D02*
D03*
X113000Y697402D02*
D03*
X74996Y769500D02*
D03*
X75000Y778596D02*
D03*
X369002Y588501D02*
D03*
X368998Y579402D02*
D03*
X102002Y694500D02*
D03*
X102000Y685402D02*
D03*
X108998Y617500D02*
D03*
X109000Y626598D02*
D03*
X258002Y921500D02*
D03*
X258000Y912402D02*
D03*
X512998Y472500D02*
D03*
X513000Y481598D02*
D03*
X513002Y500498D02*
D03*
X513002Y491402D02*
D03*
X188002Y821501D02*
D03*
X187999Y812402D02*
D03*
X515999Y380500D02*
D03*
X516000Y389599D02*
D03*
X267002Y574500D02*
D03*
X267000Y565402D02*
D03*
X507002Y815499D02*
D03*
X507000Y806403D02*
D03*
X190998Y772500D02*
D03*
X191000Y781597D02*
D03*
X166002Y800499D02*
D03*
X166000Y791403D02*
D03*
X209998Y899500D02*
D03*
X210000Y908597D02*
D03*
X64002Y778500D02*
D03*
X64000Y769402D02*
D03*
X525998Y491500D02*
D03*
X526000Y500597D02*
D03*
X138999Y737500D02*
D03*
X139000Y746599D02*
D03*
X119002Y649500D02*
D03*
X119000Y640403D02*
D03*
X468998Y488500D02*
D03*
X469000Y497597D02*
D03*
X504996Y903500D02*
D03*
X505000Y912596D02*
D03*
X503998Y878501D02*
D03*
X504000Y887598D02*
D03*
X39000Y800500D02*
D03*
X39000Y791400D02*
D03*
D213*
X312500Y717998D02*
D03*
X303402Y718000D02*
D03*
X192500Y874998D02*
D03*
X183402Y875000D02*
D03*
X425500Y411998D02*
D03*
X416402Y412000D02*
D03*
X516499Y366998D02*
D03*
X507402Y367000D02*
D03*
X463500Y408002D02*
D03*
X472598Y408000D02*
D03*
X543500Y786002D02*
D03*
X552598Y786000D02*
D03*
X509500Y736002D02*
D03*
X518598Y736000D02*
D03*
X36500Y771002D02*
D03*
X45598Y771000D02*
D03*
X69500Y708002D02*
D03*
X78598Y708000D02*
D03*
X54500Y536998D02*
D03*
X45402Y537000D02*
D03*
X347500Y551998D02*
D03*
X338402Y552000D02*
D03*
X128500Y882002D02*
D03*
X137598Y882000D02*
D03*
X145500Y894998D02*
D03*
X136402Y895000D02*
D03*
X544500Y463002D02*
D03*
X553598Y463000D02*
D03*
X189500Y547998D02*
D03*
X180402Y548000D02*
D03*
X467500Y745998D02*
D03*
X458403Y746000D02*
D03*
X363500Y548002D02*
D03*
X372598Y548000D02*
D03*
X485500Y746002D02*
D03*
X494598Y746000D02*
D03*
X375500Y885002D02*
D03*
X384598Y885000D02*
D03*
X349500Y717002D02*
D03*
X358598Y717000D02*
D03*
X237500Y714998D02*
D03*
X228403Y715000D02*
D03*
X493500Y553998D02*
D03*
X484403Y554000D02*
D03*
D214*
X517904Y908601D02*
D03*
X517904Y923601D02*
D03*
X555096Y906399D02*
D03*
X555096Y891399D02*
D03*
X537096Y812399D02*
D03*
X537096Y797399D02*
D03*
X517904Y875601D02*
D03*
X517904Y890601D02*
D03*
X555098Y870399D02*
D03*
X555098Y855399D02*
D03*
X485096Y399399D02*
D03*
X485096Y384399D02*
D03*
X179097Y768399D02*
D03*
X179097Y753399D02*
D03*
X158904Y894603D02*
D03*
X158904Y909602D02*
D03*
D215*
X519601Y831096D02*
D03*
X534601D02*
D03*
D216*
X170999Y839401D02*
D03*
X170999Y820401D02*
D03*
X502999Y786401D02*
D03*
X502999Y767401D02*
D03*
X89999Y792401D02*
D03*
X89999Y773401D02*
D03*
X193999Y920401D02*
D03*
X193999Y901401D02*
D03*
X373999Y922401D02*
D03*
X373999Y903401D02*
D03*
X347001Y680600D02*
D03*
X347001Y699599D02*
D03*
X326001Y680600D02*
D03*
X326001Y699599D02*
D03*
X236999Y930401D02*
D03*
X236999Y911401D02*
D03*
X516001Y415600D02*
D03*
X516001Y434599D02*
D03*
D217*
X446600Y765999D02*
D03*
X465599D02*
D03*
X142401Y785001D02*
D03*
X123401D02*
D03*
X382401Y564001D02*
D03*
X363401D02*
D03*
X142401Y765001D02*
D03*
X123401D02*
D03*
X537401Y849001D02*
D03*
X518401D02*
D03*
X214600Y699999D02*
D03*
X233599D02*
D03*
X161401Y724001D02*
D03*
X142401D02*
D03*
X539401Y527001D02*
D03*
X520401D02*
D03*
X539401Y550001D02*
D03*
X520401D02*
D03*
X446600Y472999D02*
D03*
X465599D02*
D03*
X161401Y705001D02*
D03*
X142401D02*
D03*
D218*
X436000Y717000D02*
D03*
X441000D02*
D03*
X446000D02*
D03*
X451000D02*
D03*
X471000D02*
D03*
X466000D02*
D03*
X461000D02*
D03*
X456000D02*
D03*
X491000D02*
D03*
X486000D02*
D03*
X481000D02*
D03*
X476000D02*
D03*
D219*
X322262Y567006D02*
D03*
X292012Y567007D02*
D03*
X240738Y547993D02*
D03*
X270988Y547993D02*
D03*
X89261Y812007D02*
D03*
X59012Y812007D02*
D03*
D220*
X500499Y489792D02*
D03*
X481499Y489752D02*
D03*
X481510Y510161D02*
D03*
X490999Y510191D02*
D03*
X500509Y510221D02*
D03*
D221*
X144790Y642500D02*
D03*
X144750Y661500D02*
D03*
X165160Y661490D02*
D03*
X165190Y652000D02*
D03*
X165220Y642490D02*
D03*
D222*
X250000Y594000D02*
D03*
X260000D02*
D03*
X270000D02*
D03*
X279999D02*
D03*
X290000D02*
D03*
X300000D02*
D03*
D223*
X229000Y615999D02*
D03*
X321000D02*
D03*
D224*
X492000Y920500D02*
D03*
X492000Y915500D02*
D03*
X492000Y905500D02*
D03*
X492000Y910500D02*
D03*
Y895500D02*
D03*
X492000Y900500D02*
D03*
Y885500D02*
D03*
X492000Y890500D02*
D03*
X492000Y850500D02*
D03*
Y845500D02*
D03*
Y860500D02*
D03*
Y855500D02*
D03*
Y870500D02*
D03*
X492000Y865500D02*
D03*
X492000Y875500D02*
D03*
X492000Y880500D02*
D03*
X492000Y810500D02*
D03*
Y805500D02*
D03*
Y820500D02*
D03*
Y815500D02*
D03*
Y830500D02*
D03*
Y825500D02*
D03*
Y835500D02*
D03*
Y840500D02*
D03*
D225*
X484900Y432449D02*
D03*
X485100Y419549D02*
D03*
M02*
