G04 Layer_Physical_Order=1*
G04 Layer_Color=255*
%FSLAX44Y44*%
%MOMM*%
G71*
G01*
G75*
%ADD10P,0.7353X4X90.0*%
%ADD11R,0.1001X0.1001*%
%ADD12C,1.0000*%
%ADD13R,0.4001X0.5999*%
%ADD14R,0.5001X0.5999*%
%ADD15R,1.4732X0.2794*%
%ADD16R,0.2794X1.4732*%
%ADD17R,0.6000X0.3600*%
%ADD18R,0.3600X0.6000*%
%ADD19R,1.0000X1.5001*%
%ADD20R,2.4501X1.1999*%
%ADD21R,1.7501X2.0800*%
%ADD22R,0.5900X1.3000*%
%ADD23R,1.3000X0.5900*%
%ADD24R,0.7000X0.2499*%
%ADD25R,1.7000X3.3000*%
G04:AMPARAMS|DCode=26|XSize=1.8001mm|YSize=1.0399mm|CornerRadius=0.0104mm|HoleSize=0mm|Usage=FLASHONLY|Rotation=270.000|XOffset=0mm|YOffset=0mm|HoleType=Round|Shape=RoundedRectangle|*
%AMROUNDEDRECTD26*
21,1,1.8001,1.0191,0,0,270.0*
21,1,1.7793,1.0399,0,0,270.0*
1,1,0.0208,-0.5095,-0.8897*
1,1,0.0208,-0.5095,0.8897*
1,1,0.0208,0.5095,0.8897*
1,1,0.0208,0.5095,-0.8897*
%
%ADD26ROUNDEDRECTD26*%
%ADD27R,0.1801X0.2301*%
%ADD28R,0.6000X0.5900*%
%ADD29R,0.5900X0.6000*%
%ADD30R,0.9300X0.8900*%
%ADD31R,0.8900X0.9300*%
%ADD32R,1.4200X1.0800*%
%ADD33R,1.0800X1.4200*%
%ADD34R,0.3000X1.3000*%
%ADD35R,1.8001X2.1999*%
%ADD36R,0.9000X0.9500*%
%ADD37R,0.5999X1.4001*%
%ADD38R,0.8001X0.7000*%
%ADD39R,0.5900X1.2100*%
%ADD40R,1.2100X0.5900*%
%ADD41R,0.8500X2.2000*%
%ADD42R,0.6000X1.8000*%
%ADD43R,2.6000X3.0000*%
%ADD44R,0.8000X0.4000*%
%ADD45R,0.8000X0.3000*%
%ADD46R,0.6000X1.1500*%
%ADD47R,0.8000X0.6000*%
%ADD48C,0.1500*%
%ADD49C,0.2500*%
%ADD50C,0.2000*%
%ADD51C,0.3000*%
%ADD52C,1.0000*%
%ADD53C,0.4000*%
%ADD54C,1.5000*%
%ADD55C,1.2000*%
%ADD56R,1.2000X2.8000*%
%ADD57R,1.9000X0.5000*%
%ADD58R,1.1000X4.0000*%
%ADD59R,2.8000X3.8000*%
%ADD60R,3.2000X0.9000*%
%ADD61R,2.0000X3.0000*%
%ADD62R,1.1000X0.8000*%
%ADD63R,2.9000X0.9000*%
%ADD64R,1.1000X3.0000*%
%ADD65R,1.3000X4.1000*%
%ADD66R,2.7000X0.7000*%
%ADD67R,1.7000X2.7000*%
%ADD68R,1.3000X5.2000*%
%ADD69R,1.7000X2.4000*%
%ADD70R,2.2000X1.5000*%
%ADD71R,2.5000X1.7000*%
%ADD72R,3.8000X0.7000*%
%ADD73R,1.4000X1.2000*%
%ADD74R,1.3000X4.6000*%
%ADD75C,0.0000*%
%ADD76C,0.9000*%
%ADD77O,2.2000X1.0000*%
%ADD78O,1.8000X1.0000*%
%ADD79C,0.5000*%
%ADD80C,2.4000*%
%ADD81C,0.5500*%
%ADD82C,0.6500*%
G36*
X524004Y942938D02*
X524949D01*
X528215Y942831D01*
X534740Y941972D01*
X541049Y940282D01*
X547083Y937782D01*
X552739Y934517D01*
X557921Y930540D01*
X562539Y925922D01*
X566515Y920741D01*
X569781Y915084D01*
X572280Y909050D01*
X573971Y902741D01*
X574830Y896216D01*
X574937Y892943D01*
X574937Y892943D01*
X574937Y892922D01*
X574938Y892918D01*
X574938Y892916D01*
X574937Y892915D01*
Y892908D01*
X574937Y892907D01*
X574937Y892889D01*
Y671789D01*
X574000Y671000D01*
X556239D01*
Y683355D01*
X558578Y685695D01*
X560000Y685412D01*
X561756Y685761D01*
X563244Y686756D01*
X564239Y688244D01*
X564588Y690000D01*
X564239Y691756D01*
X563244Y693244D01*
X561756Y694239D01*
X560000Y694588D01*
X558244Y694239D01*
X556756Y693244D01*
X555761Y691756D01*
X555412Y690000D01*
X555695Y688578D01*
X552758Y685642D01*
X552316Y684980D01*
X552161Y684200D01*
Y671000D01*
X548000D01*
Y669750D01*
X547950D01*
Y655750D01*
X548000D01*
Y646164D01*
X547255Y645048D01*
X546847Y643000D01*
X547255Y640952D01*
X548000Y639836D01*
Y631001D01*
X542000Y625001D01*
X535883Y625001D01*
X535442Y625442D01*
X534780Y625884D01*
X534000Y626039D01*
X424845D01*
X397039Y653845D01*
Y745000D01*
X396884Y745780D01*
X396442Y746442D01*
X396442Y746442D01*
X379000Y763884D01*
Y768803D01*
X379039Y769000D01*
X379039Y769000D01*
X385000D01*
X390961Y763039D01*
Y761000D01*
X390961Y761000D01*
X391116Y760220D01*
X391558Y759558D01*
X392558Y758558D01*
X393220Y758116D01*
X394000Y757961D01*
X396039D01*
X400961Y753039D01*
Y753000D01*
X400961Y753000D01*
X401116Y752220D01*
X401558Y751558D01*
X402558Y750558D01*
X403220Y750116D01*
X404000Y749961D01*
X407000D01*
X407197Y750000D01*
X413803D01*
X414000Y749961D01*
X417000D01*
X417197Y750000D01*
X423803D01*
X424000Y749961D01*
X427000D01*
X427780Y750116D01*
X428442Y750558D01*
X429442Y751558D01*
X429442Y751558D01*
X429884Y752220D01*
X430039Y753000D01*
Y763000D01*
X430039Y763000D01*
Y779155D01*
X430845Y779961D01*
X452000D01*
X452780Y780116D01*
X453442Y780558D01*
X457192Y784308D01*
X457192Y784308D01*
X457634Y784970D01*
X457789Y785750D01*
X457789Y785750D01*
Y792789D01*
X478461Y813461D01*
X486750D01*
Y802750D01*
X497250D01*
Y807750D01*
Y817750D01*
Y827750D01*
Y837750D01*
Y848250D01*
X486750D01*
Y847539D01*
X486500D01*
X485720Y847384D01*
X485058Y846942D01*
X481270Y843154D01*
X480000Y843316D01*
Y853000D01*
X480010Y853187D01*
X480192Y853308D01*
X480345Y853461D01*
X486750D01*
Y852750D01*
X497250D01*
Y853000D01*
X500647D01*
Y816000D01*
X501043Y815043D01*
X502000Y814647D01*
X502750D01*
Y811350D01*
X511250D01*
Y813686D01*
X514618D01*
X514951Y813548D01*
X517421D01*
X518378Y813944D01*
X519906Y815472D01*
X520302Y816429D01*
Y817599D01*
X519906Y818555D01*
X519463Y818739D01*
X519292Y819152D01*
X518377Y820065D01*
X516353Y821414D01*
Y825100D01*
X525000D01*
Y836900D01*
X516353D01*
Y840650D01*
X525700D01*
Y857350D01*
X516353D01*
Y862000D01*
X515957Y862957D01*
X515000Y863353D01*
Y869600D01*
X523900D01*
Y872951D01*
X529444D01*
X529598Y872797D01*
Y871901D01*
X529994Y870945D01*
X530951Y870548D01*
X533421D01*
X534378Y870945D01*
X535906Y872472D01*
X536302Y873429D01*
Y874599D01*
X535906Y875555D01*
X534949Y875952D01*
X533653D01*
X532302Y877302D01*
X531475Y877855D01*
X530500Y878049D01*
X523900D01*
Y881000D01*
X512100D01*
Y881000D01*
X509000D01*
X508250Y881750D01*
Y882650D01*
X499750D01*
Y882000D01*
X497250D01*
Y887750D01*
Y900635D01*
X497422Y900859D01*
X498520Y901546D01*
X499000Y901451D01*
X500750D01*
Y899250D01*
X506760D01*
X506761Y899244D01*
X507756Y897756D01*
X509244Y896761D01*
X511000Y896412D01*
X512756Y896761D01*
X514244Y897756D01*
X514709Y898451D01*
X516000D01*
X516976Y898645D01*
X517802Y899198D01*
X519056Y900451D01*
X520000D01*
X520975Y900645D01*
X521802Y901198D01*
X522355Y902025D01*
X522469Y902600D01*
X523900D01*
Y907451D01*
X533000D01*
X533488Y907548D01*
X534421D01*
X535378Y907944D01*
X536906Y909472D01*
X537302Y910429D01*
Y911599D01*
X536906Y912555D01*
X535949Y912952D01*
X531951D01*
X530994Y912555D01*
X530992Y912549D01*
X523900D01*
Y914000D01*
X512100D01*
Y906370D01*
X511118Y905565D01*
X511000Y905588D01*
X510232Y905435D01*
X509250Y906241D01*
Y907650D01*
X500750D01*
Y907650D01*
X499480Y907125D01*
X499302Y907302D01*
X498475Y907855D01*
X497500Y908049D01*
X497250D01*
Y913250D01*
X486750D01*
X486500Y912539D01*
X485720Y912384D01*
X485058Y911942D01*
X482994Y909878D01*
X482439Y909768D01*
X481116Y908884D01*
X480232Y907561D01*
X479922Y906000D01*
X480232Y904439D01*
X480738Y903682D01*
X480733Y903366D01*
X480424Y902227D01*
X480356Y902141D01*
X480058Y901942D01*
X479996Y901880D01*
X479000Y902078D01*
X477439Y901768D01*
X476116Y900884D01*
X475232Y899561D01*
X474922Y898000D01*
X475232Y896439D01*
X476116Y895116D01*
X477439Y894232D01*
X477533Y894213D01*
X477952Y892835D01*
X475755Y890638D01*
X475561Y890768D01*
X474000Y891078D01*
X472439Y890768D01*
X471116Y889884D01*
X470232Y888561D01*
X469922Y887000D01*
X470232Y885439D01*
X471116Y884116D01*
X472439Y883232D01*
X472533Y883213D01*
X472952Y881835D01*
X463155Y872039D01*
X448448D01*
X447884Y872884D01*
X446561Y873768D01*
X445000Y874078D01*
X443439Y873768D01*
X443315Y873685D01*
X433000Y884000D01*
X431197D01*
X431000Y884039D01*
X427000D01*
X427000Y884039D01*
X426803Y884000D01*
X420197D01*
X420000Y884039D01*
X417000D01*
X416803Y884000D01*
X405543D01*
X405057Y885173D01*
X411442Y891558D01*
X411884Y892220D01*
X412039Y893000D01*
Y895950D01*
X413244Y896756D01*
X414239Y898244D01*
X414588Y900000D01*
X414239Y901756D01*
X413244Y903244D01*
X411756Y904239D01*
X410000Y904588D01*
X408244Y904239D01*
X406756Y903244D01*
X405761Y901756D01*
X405412Y900000D01*
X405761Y898244D01*
X406756Y896756D01*
X407961Y895950D01*
Y893845D01*
X379116Y865000D01*
X373832D01*
Y865648D01*
X359000D01*
Y870353D01*
X373832D01*
Y873228D01*
X375802Y875197D01*
X376355Y876024D01*
X376549Y877000D01*
Y880750D01*
X379650D01*
Y889250D01*
X379000D01*
Y897400D01*
X382350D01*
Y910700D01*
X383512Y910961D01*
X395155D01*
X397558Y908558D01*
X397558Y908558D01*
X398220Y908116D01*
X399000Y907961D01*
X399000Y907961D01*
X459349D01*
X460439Y907232D01*
X462000Y906922D01*
X463561Y907232D01*
X464884Y908116D01*
X465768Y909439D01*
X466078Y911000D01*
X465768Y912561D01*
X464884Y913884D01*
X463561Y914768D01*
X462000Y915078D01*
X460439Y914768D01*
X459116Y913884D01*
X458232Y912561D01*
X458128Y912039D01*
X399845D01*
X397442Y914442D01*
X396780Y914884D01*
X396000Y915039D01*
X320000D01*
X320000Y915039D01*
X319220Y914884D01*
X319158Y914843D01*
X317250Y916750D01*
Y924650D01*
X308750D01*
Y916250D01*
X310962D01*
Y906002D01*
Y898833D01*
X285038D01*
Y901001D01*
X285038Y901001D01*
X284883Y901781D01*
X284847Y901836D01*
X285078Y903000D01*
X284768Y904561D01*
X283884Y905884D01*
X282561Y906768D01*
X281000Y907078D01*
X279439Y906768D01*
X278116Y905884D01*
X277232Y904561D01*
X276922Y903000D01*
X277232Y901439D01*
X278116Y900116D01*
X278136Y900103D01*
X277751Y898833D01*
X260040D01*
Y908250D01*
X262250D01*
Y916650D01*
X253750D01*
Y916000D01*
X247000D01*
X245350Y917650D01*
Y918700D01*
X228650D01*
Y905400D01*
X235452D01*
Y898833D01*
X235354D01*
Y881601D01*
X250960D01*
Y869001D01*
X251115Y868220D01*
X251557Y867559D01*
X254558Y864558D01*
X254558Y864558D01*
X255220Y864116D01*
X256000Y863961D01*
X256000Y863961D01*
X278552D01*
X279116Y863116D01*
X280439Y862232D01*
X282000Y861922D01*
X283561Y862232D01*
X284884Y863116D01*
X285768Y864439D01*
X286078Y866000D01*
X285768Y867561D01*
X285681Y867691D01*
X286360Y868961D01*
X291128D01*
X291232Y868439D01*
X292116Y867116D01*
X293439Y866232D01*
X295000Y865922D01*
X296561Y866232D01*
X297884Y867116D01*
X298768Y868439D01*
X299078Y870000D01*
X298768Y871561D01*
X297884Y872884D01*
X296561Y873768D01*
X295000Y874078D01*
X293439Y873768D01*
X292349Y873039D01*
X270515D01*
X270364Y873250D01*
X270674Y874976D01*
X270884Y875116D01*
X271768Y876439D01*
X272078Y878000D01*
X271768Y879561D01*
X271254Y880331D01*
X271923Y881601D01*
X273516D01*
X274186Y880331D01*
X273922Y879000D01*
X274232Y877439D01*
X275116Y876116D01*
X276439Y875232D01*
X278000Y874922D01*
X279561Y875232D01*
X280884Y876116D01*
X281768Y877439D01*
X282078Y879000D01*
X281814Y880331D01*
X282484Y881601D01*
X320399D01*
X324558Y877442D01*
X324116Y876780D01*
X323961Y876000D01*
Y868000D01*
X323961Y867998D01*
Y804448D01*
X323116Y803884D01*
X322232Y802561D01*
X321922Y801000D01*
X322232Y799439D01*
X323116Y798116D01*
X324439Y797232D01*
X326000Y796922D01*
X327561Y797232D01*
X328691Y797987D01*
X329439Y797768D01*
X329961Y797442D01*
Y784845D01*
X314155Y769039D01*
X238717D01*
X237937Y768884D01*
X237276Y768442D01*
X237276Y768442D01*
X232990Y764157D01*
X231976Y764464D01*
X231700Y764662D01*
X230884Y765884D01*
X229561Y766768D01*
X228000Y767078D01*
X226439Y766768D01*
X226309Y766681D01*
X225039Y767360D01*
Y768552D01*
X225884Y769116D01*
X226768Y770439D01*
X227078Y772000D01*
X226768Y773561D01*
X225884Y774884D01*
X224561Y775768D01*
X223000Y776078D01*
X221439Y775768D01*
X220670Y775254D01*
X219400Y775648D01*
Y775648D01*
X202168D01*
Y775353D01*
X195250D01*
Y776650D01*
X186750D01*
Y775353D01*
X173659D01*
X169506Y779506D01*
X167439Y780887D01*
X165000Y781373D01*
X162561Y780887D01*
X160494Y779506D01*
X159113Y777439D01*
X158628Y775000D01*
X159113Y772561D01*
X160494Y770494D01*
X166794Y764194D01*
X168861Y762813D01*
X171300Y762328D01*
X179000D01*
X181439Y762813D01*
X181719Y763000D01*
X184900D01*
Y765647D01*
X202168D01*
Y760177D01*
X200999Y760039D01*
X200219Y759883D01*
X199557Y759441D01*
X198558Y758442D01*
X198116Y757780D01*
X197961Y757000D01*
Y743000D01*
X198116Y742220D01*
X198558Y741558D01*
X203558Y736558D01*
X204220Y736116D01*
X205000Y735961D01*
X205000Y735961D01*
X205039D01*
X213935Y727065D01*
X213922Y727000D01*
X214232Y725439D01*
X215116Y724116D01*
X216439Y723232D01*
X218000Y722922D01*
X219561Y723232D01*
X220884Y724116D01*
X221768Y725439D01*
X222078Y727000D01*
X228000D01*
Y727169D01*
X230648D01*
Y744401D01*
X230040D01*
Y749156D01*
X237245Y756362D01*
X237439Y756232D01*
X239000Y755922D01*
X240561Y756232D01*
X241884Y757116D01*
X242768Y758439D01*
X243078Y760000D01*
X242768Y761561D01*
X241884Y762884D01*
X241674Y763024D01*
X241364Y764750D01*
X241515Y764961D01*
X315000D01*
X315780Y765116D01*
X316442Y765558D01*
X333442Y782558D01*
X333884Y783220D01*
X334039Y784000D01*
X334039Y784000D01*
Y836000D01*
X344569D01*
X344779Y835856D01*
X345507Y834730D01*
X345461Y834500D01*
Y750722D01*
X345616Y749941D01*
X346000Y749367D01*
Y744401D01*
X345353D01*
Y727169D01*
X345451D01*
Y721250D01*
X345250D01*
Y713575D01*
X344756Y713244D01*
X343761Y711756D01*
X343412Y710000D01*
X343761Y708244D01*
X344679Y706870D01*
X344548Y706323D01*
X344199Y705600D01*
X338650D01*
Y692300D01*
X355350D01*
Y705600D01*
X351801D01*
X351452Y706323D01*
X351321Y706870D01*
X352239Y708244D01*
X352588Y710000D01*
X352294Y711480D01*
X352986Y712750D01*
X353650D01*
Y721250D01*
X350549D01*
Y727169D01*
X350647D01*
Y731000D01*
X364338D01*
X370461Y724877D01*
Y652345D01*
X360558Y642442D01*
X360116Y641780D01*
X359961Y641000D01*
Y635750D01*
X357251D01*
Y619249D01*
X357833D01*
X358512Y617979D01*
X358232Y617561D01*
X357922Y616000D01*
X358232Y614439D01*
X359116Y613116D01*
X360439Y612232D01*
X361501Y612021D01*
X361376Y610751D01*
X357251D01*
Y607283D01*
X357169Y606879D01*
X356000Y606078D01*
X354439Y605768D01*
X353116Y604884D01*
X352232Y603561D01*
X351922Y602000D01*
X352232Y600439D01*
X353116Y599116D01*
X354439Y598232D01*
X356000Y597922D01*
X356269Y597975D01*
X357251Y597169D01*
Y594250D01*
X362000D01*
Y581804D01*
X343539D01*
X343244Y582244D01*
X341756Y583239D01*
X340000Y583588D01*
X338244Y583239D01*
X336756Y582244D01*
X335761Y580756D01*
X335514Y579514D01*
X329546Y573546D01*
X328502Y573002D01*
X317002D01*
Y561002D01*
X321196D01*
Y559000D01*
X321410Y557927D01*
X322017Y557017D01*
X329017Y550017D01*
X329927Y549409D01*
X331000Y549196D01*
X334250D01*
Y547750D01*
X342650D01*
Y547750D01*
X343350Y547750D01*
Y547750D01*
X344647D01*
Y542000D01*
X345043Y541043D01*
X346000Y540647D01*
X346818D01*
X347439Y540232D01*
X349000Y539922D01*
X350561Y540232D01*
X351182Y540647D01*
X363000D01*
X363957Y541043D01*
X364353Y542000D01*
Y543750D01*
X367650D01*
Y552250D01*
X364353D01*
Y555650D01*
X370700D01*
Y572350D01*
X370000D01*
Y575250D01*
X373250D01*
Y576196D01*
X374000D01*
X375073Y576410D01*
X375983Y577017D01*
X382983Y584017D01*
X383590Y584927D01*
X383804Y586000D01*
Y594250D01*
X384749D01*
Y610751D01*
X383148D01*
X382622Y612021D01*
X386941Y616340D01*
X386941Y616340D01*
X387383Y617001D01*
X387538Y617782D01*
Y644390D01*
X387539Y644390D01*
X387383Y645170D01*
X386941Y645832D01*
X386941Y645832D01*
X380039Y652734D01*
Y698000D01*
X392961D01*
Y653000D01*
X393116Y652220D01*
X393558Y651558D01*
X422558Y622558D01*
X422558Y622558D01*
X423220Y622116D01*
X424000Y621961D01*
X533155D01*
X553961Y601155D01*
Y467250D01*
X549350D01*
Y458750D01*
X553961D01*
Y416177D01*
X552691Y415651D01*
X542250Y426091D01*
Y432080D01*
X542250Y432650D01*
X542250D01*
X542250Y433350D01*
X542250D01*
Y441750D01*
X540039D01*
Y448623D01*
X541000Y449412D01*
X542756Y449761D01*
X544244Y450756D01*
X545239Y452244D01*
X545588Y454000D01*
X545239Y455756D01*
X544244Y457244D01*
X542756Y458239D01*
X541000Y458588D01*
X539244Y458239D01*
X537756Y457244D01*
X536761Y455756D01*
X536412Y454000D01*
X536531Y453401D01*
X536116Y452780D01*
X535961Y452000D01*
Y441750D01*
X533750D01*
Y436251D01*
X532577Y435765D01*
X529171Y439171D01*
X527656Y440333D01*
X525893Y441063D01*
X524000Y441313D01*
X514029D01*
X486313Y469029D01*
Y487000D01*
X486063Y488893D01*
X485699Y489772D01*
Y494752D01*
X477299D01*
Y494089D01*
X477107Y494063D01*
X475344Y493333D01*
X474504Y492688D01*
X473250Y492650D01*
Y492650D01*
X464750D01*
Y492650D01*
X463542Y492799D01*
X463244Y493244D01*
X461756Y494239D01*
X460000Y494588D01*
X458244Y494239D01*
X457309Y493614D01*
X456039Y494284D01*
Y500552D01*
X456884Y501116D01*
X457768Y502439D01*
X458078Y504000D01*
X457768Y505561D01*
X456884Y506884D01*
X455561Y507768D01*
X454000Y508078D01*
X452439Y507768D01*
X451116Y506884D01*
X450232Y505561D01*
X449922Y504000D01*
X450232Y502439D01*
X451116Y501116D01*
X451961Y500552D01*
Y485330D01*
X452116Y484549D01*
X452558Y483888D01*
X454961Y481485D01*
Y464671D01*
X454961Y464670D01*
Y432233D01*
X454750Y431050D01*
X447029D01*
X446884Y431780D01*
X446442Y432442D01*
X444441Y434443D01*
X443779Y434885D01*
X442999Y435041D01*
X441750D01*
Y436051D01*
X433250D01*
Y429951D01*
X441750D01*
X441750Y429951D01*
X442961Y429808D01*
Y424000D01*
X443116Y423220D01*
X443558Y422558D01*
X446961Y419155D01*
Y411050D01*
X446250D01*
Y404950D01*
X454750D01*
X454961Y403767D01*
Y391233D01*
X454750Y390050D01*
X446250D01*
Y383950D01*
X454750D01*
Y384961D01*
X456000D01*
X456780Y385116D01*
X457442Y385558D01*
X458442Y386558D01*
X458884Y387220D01*
X459039Y388000D01*
Y402567D01*
X459250Y403750D01*
X467080D01*
X467650Y403750D01*
X468920Y403750D01*
X476750D01*
Y405961D01*
X478062D01*
X479100Y405400D01*
Y394000D01*
X490900D01*
Y405400D01*
X486039D01*
Y407000D01*
X486039Y407000D01*
X486039Y407000D01*
Y408155D01*
X486442Y408558D01*
X486442Y408558D01*
X486884Y409220D01*
X487039Y410000D01*
X487039Y410000D01*
Y413250D01*
X490250D01*
Y421750D01*
X479750D01*
Y413250D01*
X482961D01*
Y410845D01*
X482558Y410442D01*
X482289Y410039D01*
X476750D01*
Y412250D01*
X468920D01*
X468350Y412250D01*
X467080Y412250D01*
X459750D01*
X458000Y414000D01*
Y427000D01*
X458442Y427558D01*
X458884Y428220D01*
X459039Y429000D01*
X459039Y429000D01*
Y464650D01*
X460647D01*
Y461000D01*
X461043Y460043D01*
X462000Y459647D01*
X475011D01*
X505829Y428829D01*
X507344Y427667D01*
X507650Y427540D01*
Y427300D01*
X508230D01*
X509107Y426937D01*
X511000Y426687D01*
X520971D01*
X528604Y419054D01*
X540687Y406971D01*
Y384098D01*
X540647Y384000D01*
Y379901D01*
X540348D01*
Y375100D01*
X540348D01*
X540348Y374900D01*
X540348Y374900D01*
Y370099D01*
X544649D01*
Y370460D01*
X552499D01*
X553280Y370615D01*
X553941Y371057D01*
X555537Y372654D01*
X556711Y372168D01*
Y351595D01*
X549905Y344789D01*
X509332D01*
X508846Y345962D01*
X513884Y351000D01*
X526116D01*
X526558Y350558D01*
X526558Y350558D01*
X527220Y350116D01*
X528000Y349961D01*
X530619D01*
X530756Y349756D01*
X532244Y348761D01*
X534000Y348412D01*
X535756Y348761D01*
X537244Y349756D01*
X538239Y351244D01*
X538588Y353000D01*
X538239Y354756D01*
X537244Y356244D01*
X535756Y357239D01*
X534000Y357588D01*
X532244Y357239D01*
X530756Y356244D01*
X529796Y354808D01*
X529708Y354745D01*
X528410Y354474D01*
X527540Y355344D01*
Y360099D01*
X527652D01*
Y364900D01*
X527652D01*
Y365100D01*
X527652D01*
Y369901D01*
X527652D01*
Y370099D01*
X527652D01*
Y374900D01*
X527652Y374900D01*
Y375100D01*
X527652D01*
X527652Y376170D01*
Y379901D01*
X527353D01*
Y384000D01*
X526957Y384957D01*
X526000Y385353D01*
X497000D01*
X496043Y384957D01*
X495647Y384000D01*
Y380182D01*
X495412Y379000D01*
X495647Y377818D01*
Y375000D01*
X496043Y374043D01*
X497000Y373647D01*
X498706D01*
Y367000D01*
X498881Y366122D01*
X499378Y365378D01*
X500378Y364378D01*
X501000Y363962D01*
Y360000D01*
X496000Y355000D01*
X486660D01*
X486154Y356270D01*
X486442Y356558D01*
X486884Y357220D01*
X487039Y358000D01*
Y358250D01*
X489250D01*
Y366080D01*
X489250Y366650D01*
X489250Y367920D01*
Y375750D01*
X487039D01*
Y378600D01*
X490900D01*
Y390000D01*
X479100D01*
Y385540D01*
X463501D01*
X462721Y385385D01*
X462059Y384943D01*
X457558Y380442D01*
X457116Y379780D01*
X456961Y379000D01*
Y368845D01*
X456155Y368039D01*
X454750D01*
Y369050D01*
X446250D01*
Y362950D01*
X454750D01*
Y363961D01*
X457000D01*
X457780Y364116D01*
X458442Y364558D01*
X460442Y366558D01*
X460884Y367220D01*
X461039Y368000D01*
Y378155D01*
X464346Y381462D01*
X479100D01*
Y378600D01*
X482961D01*
Y375750D01*
X480750D01*
Y367920D01*
X480750Y367350D01*
X480750Y366080D01*
Y358250D01*
X479567Y358039D01*
X479433D01*
X478250Y358250D01*
Y366650D01*
X469750D01*
Y358250D01*
X470961D01*
Y358000D01*
X471116Y357220D01*
X471558Y356558D01*
X473558Y354558D01*
X474220Y354116D01*
X475000Y353961D01*
X480808D01*
X480951Y352750D01*
X480951D01*
Y346026D01*
X480750Y344789D01*
X479970Y344634D01*
X479308Y344192D01*
X479308Y344192D01*
X477558Y342442D01*
X477116Y341780D01*
X476961Y341000D01*
Y339750D01*
X475950D01*
Y331250D01*
X482050D01*
Y339750D01*
X482797Y340711D01*
X550750D01*
X551530Y340866D01*
X552192Y341308D01*
X560192Y349308D01*
X560192Y349308D01*
X560634Y349970D01*
X560789Y350750D01*
X560789Y350750D01*
Y513807D01*
X562059Y514486D01*
X562439Y514232D01*
X564000Y513922D01*
X565561Y514232D01*
X566884Y515116D01*
X567768Y516439D01*
X567798Y516591D01*
X567884Y516720D01*
X568039Y517500D01*
X568039Y517500D01*
Y517803D01*
X568078Y518000D01*
X568039Y518197D01*
Y542000D01*
X567884Y542780D01*
X567442Y543442D01*
X567442Y543442D01*
X566239Y544645D01*
Y605000D01*
X574937D01*
Y502965D01*
X573164Y502114D01*
X569164Y499114D01*
X568859Y498774D01*
X568480Y498520D01*
X568034Y497854D01*
X567499Y497257D01*
X567347Y496826D01*
X567094Y496446D01*
X566937Y495660D01*
X566671Y494904D01*
X566696Y494448D01*
X566607Y494000D01*
Y466000D01*
X566696Y465552D01*
X566671Y465096D01*
X566937Y464340D01*
X567094Y463554D01*
X567347Y463174D01*
X567499Y462743D01*
X568034Y462146D01*
X568480Y461480D01*
X568859Y461226D01*
X569164Y460886D01*
X573164Y457886D01*
X574937Y457035D01*
Y43111D01*
X574937Y43093D01*
X574937Y43092D01*
Y43085D01*
X574938Y43084D01*
X574938Y43082D01*
X574937Y43079D01*
X574937Y43057D01*
X574937Y43057D01*
X574830Y39784D01*
X573971Y33259D01*
X572280Y26950D01*
X569781Y20916D01*
X566515Y15260D01*
X562539Y10078D01*
X557921Y5459D01*
X552739Y1484D01*
X547083Y-1782D01*
X541049Y-4281D01*
X534740Y-5972D01*
X528215Y-6831D01*
X524949Y-6938D01*
X524004D01*
X523986Y-6941D01*
X76018D01*
X76000Y-6938D01*
X75055D01*
X71789Y-6831D01*
X65264Y-5972D01*
X58955Y-4281D01*
X52921Y-1782D01*
X47264Y1484D01*
X42083Y5460D01*
X37464Y10078D01*
X33489Y15260D01*
X30223Y20916D01*
X27724Y26950D01*
X26033Y33259D01*
X25174Y39784D01*
X25067Y43057D01*
X25067Y43057D01*
X25067Y43079D01*
X25066Y43082D01*
X25066Y43084D01*
X25066Y43085D01*
Y43092D01*
X25067Y43093D01*
X25066Y43109D01*
Y457517D01*
X25836Y457886D01*
X29836Y460886D01*
X30141Y461226D01*
X30520Y461480D01*
X30966Y462146D01*
X31501Y462743D01*
X31653Y463174D01*
X31906Y463554D01*
X32063Y464340D01*
X32329Y465096D01*
X32304Y465552D01*
X32393Y466000D01*
Y494000D01*
X32304Y494448D01*
X32329Y494904D01*
X32063Y495660D01*
X31906Y496446D01*
X31653Y496826D01*
X31501Y497257D01*
X30966Y497854D01*
X30520Y498520D01*
X30141Y498774D01*
X29836Y499114D01*
X25836Y502114D01*
X25063Y502485D01*
Y502907D01*
X25063Y502921D01*
X25063Y502922D01*
Y502926D01*
X25062Y502928D01*
X25063Y502930D01*
X25063Y502948D01*
X25062Y502954D01*
X25063Y502961D01*
X25063Y502979D01*
X25062Y502986D01*
X25063Y502992D01*
Y504972D01*
X25004Y505267D01*
Y505568D01*
X24236Y509433D01*
X24120Y509711D01*
X24062Y510007D01*
X22554Y513647D01*
X22386Y513898D01*
X22271Y514176D01*
X20082Y517452D01*
X19869Y517665D01*
X19701Y517916D01*
X16915Y520702D01*
X16665Y520869D01*
X16452Y521082D01*
X13175Y523272D01*
X12897Y523387D01*
X12646Y523554D01*
X9006Y525062D01*
X8711Y525121D01*
X8432Y525236D01*
X4568Y526005D01*
X4266D01*
X3971Y526064D01*
X1987D01*
X1977Y526062D01*
X1967Y526064D01*
X1939Y526064D01*
X1932Y526062D01*
X1925Y526063D01*
X1897Y526063D01*
X1892Y526062D01*
X1889Y526063D01*
X1883D01*
X1881Y526063D01*
X1859Y526063D01*
X-1937D01*
Y602742D01*
X51000D01*
X51981Y602937D01*
X51995D01*
X53166Y603170D01*
X55005Y603932D01*
X55997Y604595D01*
X57405Y606003D01*
X58068Y606995D01*
X58830Y608834D01*
X59063Y610005D01*
Y611865D01*
X58961Y612376D01*
X58885Y612891D01*
X58305Y614520D01*
X58038Y614967D01*
X57793Y615427D01*
X56700Y616767D01*
X56298Y617099D01*
X55914Y617450D01*
X55097Y617944D01*
X55063Y682762D01*
Y688035D01*
X55914Y688550D01*
X56298Y688901D01*
X56700Y689233D01*
X57793Y690573D01*
X58038Y691033D01*
X58305Y691480D01*
X58885Y693109D01*
X58961Y693624D01*
X59063Y694135D01*
Y695995D01*
X58830Y697166D01*
X58068Y699005D01*
X57405Y699997D01*
X55997Y701405D01*
X55005Y702068D01*
X53166Y702830D01*
X51995Y703063D01*
X-1937D01*
Y739937D01*
X2012D01*
X2019Y739939D01*
X2025Y739938D01*
X2050Y739938D01*
X2059Y739939D01*
X2069Y739938D01*
X2093Y739938D01*
X2100Y739939D01*
X2106Y739938D01*
X2131Y739938D01*
X2131Y739939D01*
X4078Y739948D01*
X4372Y740008D01*
X4673Y740009D01*
X8522Y740792D01*
X8799Y740908D01*
X9093Y740968D01*
X12716Y742485D01*
X12966Y742653D01*
X13243Y742768D01*
X16502Y744961D01*
X16714Y745173D01*
X16963Y745341D01*
X19734Y748125D01*
X19900Y748375D01*
X20112Y748588D01*
X22288Y751858D01*
X22403Y752136D01*
X22569Y752386D01*
X24068Y756017D01*
X24126Y756311D01*
X24241Y756589D01*
X25005Y760442D01*
X25004Y760742D01*
X25063Y761037D01*
Y763010D01*
X25062Y763016D01*
X25063Y763023D01*
X25063Y763041D01*
X25062Y763047D01*
X25063Y763054D01*
X25063Y763072D01*
X25062Y763074D01*
X25063Y763075D01*
Y763080D01*
X25063Y763081D01*
X25063Y763095D01*
Y915936D01*
X25121Y917712D01*
X25587Y921254D01*
X26499Y924657D01*
X27847Y927911D01*
X29608Y930962D01*
X31753Y933757D01*
X34244Y936248D01*
X37039Y938392D01*
X40089Y940154D01*
X43344Y941502D01*
X46747Y942414D01*
X50289Y942880D01*
X52051Y942938D01*
X52996D01*
X53015Y942942D01*
X523986D01*
X524004Y942938D01*
D02*
G37*
G36*
X534949Y873429D02*
X533421Y871901D01*
X530951D01*
Y874599D01*
X534949D01*
Y873429D01*
D02*
G37*
G36*
X518949Y816429D02*
X517421Y814901D01*
X514951D01*
Y817599D01*
X518949D01*
Y816429D01*
D02*
G37*
G36*
X535949Y910429D02*
X534421Y908901D01*
X531951D01*
Y911599D01*
X535949D01*
Y910429D01*
D02*
G37*
G36*
X377961Y645155D02*
Y635750D01*
X376250D01*
Y620587D01*
X376232Y620561D01*
X375922Y619000D01*
X376232Y617439D01*
X377116Y616116D01*
X377119Y616114D01*
X377188Y615803D01*
X377032Y614645D01*
X376729Y614442D01*
X376729Y614442D01*
X368326Y606039D01*
X365750D01*
Y610751D01*
X362624D01*
X362499Y612021D01*
X363561Y612232D01*
X364884Y613116D01*
X365768Y614439D01*
X366078Y616000D01*
X365768Y617561D01*
X365488Y617979D01*
X365750Y619249D01*
X365750D01*
X365750Y619249D01*
Y635750D01*
X364039D01*
Y640155D01*
X372646Y648762D01*
X373808Y649308D01*
X377961Y645155D01*
D02*
G37*
%LPC*%
G36*
X485000Y547353D02*
X474000D01*
X473043Y546957D01*
X472647Y546000D01*
Y506000D01*
X473043Y505043D01*
X474000Y504647D01*
X485000D01*
X485957Y505043D01*
X486353Y506000D01*
Y521750D01*
X487250D01*
Y546250D01*
X486249D01*
X485957Y546957D01*
X485000Y547353D01*
D02*
G37*
G36*
X123000Y596000D02*
X97000D01*
X82000Y581000D01*
Y562000D01*
X79000D01*
Y541000D01*
X82000D01*
Y523000D01*
X77000Y518000D01*
X64000D01*
X54000Y508000D01*
X52000D01*
Y506000D01*
X46000Y500000D01*
Y495000D01*
X51000Y490000D01*
X64000D01*
X66000Y492000D01*
X68000D01*
Y494000D01*
X72000Y498000D01*
X96000D01*
X110000Y512000D01*
Y524000D01*
X115999D01*
Y523350D01*
X135999D01*
Y544149D01*
X139500D01*
Y558648D01*
X114000D01*
Y562000D01*
X108000D01*
Y569000D01*
X111000Y572000D01*
X123000D01*
Y596000D01*
D02*
G37*
G36*
X520000Y560353D02*
X492000D01*
X491043Y559957D01*
X490647Y559000D01*
Y558250D01*
X489350D01*
Y549750D01*
X490647D01*
Y521000D01*
X491043Y520043D01*
X492000Y519647D01*
X496299D01*
Y505252D01*
X496681D01*
X497607Y503982D01*
X497412Y503000D01*
X497761Y501244D01*
X498756Y499756D01*
X500244Y498761D01*
X502000Y498412D01*
X503756Y498761D01*
X505244Y499756D01*
X506239Y501244D01*
X506588Y503000D01*
X506239Y504756D01*
X505244Y506244D01*
X504699Y506609D01*
Y519647D01*
X514400D01*
Y518650D01*
X516451D01*
Y505353D01*
X510000D01*
X509043Y504957D01*
X508958Y504750D01*
X508750D01*
Y504249D01*
X508647Y504000D01*
Y499000D01*
X508750Y498751D01*
X508750Y496350D01*
X508750Y495080D01*
Y492353D01*
X504699D01*
Y494752D01*
X496299D01*
Y492063D01*
X496043Y491957D01*
X495647Y491000D01*
Y482000D01*
X496043Y481043D01*
X496299Y480937D01*
Y480151D01*
X504699D01*
Y480647D01*
X508750D01*
Y477350D01*
X517250D01*
Y480647D01*
X529000D01*
X529957Y481043D01*
X530353Y482000D01*
Y491000D01*
X530250Y491249D01*
Y495080D01*
X530250Y495650D01*
X530250Y496920D01*
Y498751D01*
X530353Y499000D01*
Y504000D01*
X530250Y504249D01*
Y504750D01*
X530042D01*
X529957Y504957D01*
X529000Y505353D01*
X521549D01*
Y518650D01*
X527700D01*
Y535350D01*
X521353D01*
Y541650D01*
X527700D01*
Y558350D01*
X521353D01*
Y559000D01*
X520957Y559957D01*
X520000Y560353D01*
D02*
G37*
G36*
X262000Y615078D02*
X260439Y614768D01*
X259116Y613884D01*
X258552Y613039D01*
X254000D01*
X254000Y613039D01*
X253220Y612884D01*
X252558Y612442D01*
X248956Y608840D01*
X248514Y608179D01*
X248359Y607398D01*
Y603250D01*
X245751D01*
Y582750D01*
X254251D01*
Y603250D01*
X252437D01*
Y606554D01*
X254845Y608961D01*
X258552D01*
X259116Y608116D01*
X260439Y607232D01*
X262000Y606922D01*
X263561Y607232D01*
X264884Y608116D01*
X265768Y609439D01*
X266078Y611000D01*
X265768Y612561D01*
X264884Y613884D01*
X263561Y614768D01*
X262000Y615078D01*
D02*
G37*
G36*
X440000Y457588D02*
X438244Y457239D01*
X436756Y456244D01*
X436461Y455804D01*
X384539D01*
X384244Y456244D01*
X382756Y457239D01*
X381000Y457588D01*
X379244Y457239D01*
X377756Y456244D01*
X376761Y454756D01*
X376412Y453000D01*
X376761Y451244D01*
X377756Y449756D01*
X379244Y448761D01*
X381000Y448412D01*
X382756Y448761D01*
X384244Y449756D01*
X384539Y450196D01*
X436461D01*
X436756Y449756D01*
X438244Y448761D01*
X440000Y448412D01*
X441756Y448761D01*
X443244Y449756D01*
X444239Y451244D01*
X444588Y453000D01*
X444239Y454756D01*
X443244Y456244D01*
X441756Y457239D01*
X440000Y457588D01*
D02*
G37*
G36*
X60000Y484588D02*
X58244Y484239D01*
X56756Y483244D01*
X55761Y481756D01*
X55412Y480000D01*
X55761Y478244D01*
X56756Y476756D01*
X58244Y475761D01*
X60000Y475412D01*
X61756Y475761D01*
X63244Y476756D01*
X64239Y478244D01*
X64588Y480000D01*
X64239Y481756D01*
X63244Y483244D01*
X61756Y484239D01*
X60000Y484588D01*
D02*
G37*
G36*
X264251Y603250D02*
X255751D01*
Y582750D01*
X257196D01*
Y581161D01*
X256839Y580804D01*
X221987D01*
X221426Y580972D01*
X221244Y581244D01*
X219756Y582239D01*
X218000Y582588D01*
X216244Y582239D01*
X215887Y582000D01*
X202000D01*
X200000Y580000D01*
X199778Y579377D01*
X199232Y578561D01*
X198922Y577000D01*
X198924Y576987D01*
X195530Y567483D01*
X195000Y567588D01*
X193244Y567239D01*
X191756Y566244D01*
X190761Y564756D01*
X190412Y563000D01*
X190761Y561244D01*
X191756Y559756D01*
X193244Y558761D01*
X195000Y558412D01*
X195000Y557142D01*
X195000Y538000D01*
X193252Y536908D01*
X192756Y537239D01*
X191000Y537588D01*
X189244Y537239D01*
X187756Y536244D01*
X186761Y534756D01*
X186412Y533000D01*
X186761Y531244D01*
X187000Y530887D01*
Y512549D01*
X176709D01*
X176244Y513244D01*
X174756Y514239D01*
X173000Y514588D01*
X171244Y514239D01*
X169756Y513244D01*
X168761Y511756D01*
X168412Y510000D01*
X168761Y508244D01*
X169756Y506756D01*
X171244Y505761D01*
X173000Y505412D01*
X174756Y505761D01*
X176244Y506756D01*
X176709Y507451D01*
X187000D01*
Y506000D01*
X183579Y487184D01*
X157944Y461549D01*
X150000D01*
X149702Y461490D01*
X64292D01*
X64239Y461756D01*
X63244Y463244D01*
X61756Y464239D01*
X60000Y464588D01*
X58244Y464239D01*
X56756Y463244D01*
X55761Y461756D01*
X55412Y460000D01*
X55761Y458244D01*
X56756Y456756D01*
X58244Y455761D01*
X60000Y455412D01*
X61756Y455761D01*
X62700Y456392D01*
X150000D01*
X150298Y456451D01*
X159000D01*
X159976Y456645D01*
X160802Y457198D01*
X184302Y480698D01*
X189451Y475549D01*
Y419056D01*
X184944Y414549D01*
X181709D01*
X181244Y415244D01*
X179756Y416239D01*
X178000Y416588D01*
X176244Y416239D01*
X174756Y415244D01*
X173761Y413756D01*
X173412Y412000D01*
X173761Y410244D01*
X174756Y408756D01*
X176244Y407761D01*
X178000Y407412D01*
X179756Y407761D01*
X181244Y408756D01*
X181709Y409451D01*
X186000D01*
X186975Y409645D01*
X187802Y410198D01*
X189329Y411725D01*
X195961Y405817D01*
Y354000D01*
X196116Y353220D01*
X196428Y352753D01*
X195761Y351756D01*
X195412Y350000D01*
X195761Y348244D01*
X196756Y346756D01*
X197961Y345950D01*
Y226050D01*
X196756Y225244D01*
X195761Y223756D01*
X195412Y222000D01*
X195761Y220244D01*
X196756Y218756D01*
X197961Y217950D01*
Y94050D01*
X196756Y93244D01*
X195761Y91756D01*
X195412Y90000D01*
X195761Y88244D01*
X196756Y86756D01*
X198244Y85761D01*
X200000Y85412D01*
X201756Y85761D01*
X203244Y86756D01*
X204239Y88244D01*
X204588Y90000D01*
X204239Y91756D01*
X203244Y93244D01*
X202039Y94050D01*
Y217950D01*
X203244Y218756D01*
X204239Y220244D01*
X204588Y222000D01*
X204239Y223756D01*
X203244Y225244D01*
X202039Y226050D01*
Y345950D01*
X203244Y346756D01*
X204239Y348244D01*
X204588Y350000D01*
X204239Y351756D01*
X203244Y353244D01*
X201756Y354239D01*
X200369Y354515D01*
X200039Y354845D01*
Y460039D01*
X209772Y469772D01*
X211244Y470756D01*
X211350Y470766D01*
X327211Y354905D01*
Y350087D01*
X327000Y350000D01*
X327000Y350000D01*
Y338000D01*
X341211Y321125D01*
Y285642D01*
X340000Y284588D01*
X338244Y284239D01*
X336756Y283244D01*
X335761Y281756D01*
X335412Y280000D01*
X335761Y278244D01*
X336756Y276756D01*
X338000Y275924D01*
Y270000D01*
X338514Y269486D01*
X338761Y268244D01*
X339756Y266756D01*
X341244Y265761D01*
X342486Y265514D01*
X346961Y261039D01*
Y200845D01*
X342996Y196880D01*
X342000Y197078D01*
X340439Y196768D01*
X339116Y195884D01*
X338232Y194561D01*
X337922Y193000D01*
X338232Y191439D01*
X339116Y190116D01*
X340439Y189232D01*
X342000Y188922D01*
X343561Y189232D01*
X343685Y189315D01*
X349000Y184000D01*
X349961D01*
Y67845D01*
X349383Y67267D01*
X349244Y67239D01*
X347756Y66244D01*
X346761Y64756D01*
X346412Y63000D01*
X346761Y61244D01*
X347756Y59756D01*
X349244Y58761D01*
X351000Y58412D01*
X352756Y58761D01*
X354244Y59756D01*
X355239Y61244D01*
X355588Y63000D01*
X355239Y64756D01*
X354244Y66244D01*
X353931Y66454D01*
X354039Y67000D01*
Y349556D01*
X353884Y350337D01*
X353442Y350998D01*
X353442Y350998D01*
X348043Y356397D01*
X347942Y356549D01*
X345064Y359426D01*
X344942Y359609D01*
X255568Y448983D01*
X256041Y450306D01*
X256366Y450338D01*
X256756Y449756D01*
X258244Y448761D01*
X260000Y448412D01*
X261756Y448761D01*
X263244Y449756D01*
X264239Y451244D01*
X264588Y453000D01*
X264239Y454756D01*
X263244Y456244D01*
X261756Y457239D01*
X260000Y457588D01*
X258244Y457239D01*
X256756Y456244D01*
X255950Y455039D01*
X253401D01*
X231039Y477401D01*
Y539039D01*
X233451Y541451D01*
X234498Y541998D01*
Y541998D01*
X234498Y541998D01*
X245998D01*
Y553998D01*
X234498D01*
X234039Y555078D01*
Y560998D01*
X233884Y561779D01*
X233442Y562440D01*
X233442Y562440D01*
X232000Y563882D01*
Y575000D01*
X232081Y575196D01*
X257898D01*
X258017Y575017D01*
X260467Y572567D01*
X261377Y571960D01*
X262450Y571746D01*
X262750D01*
Y570350D01*
X271250D01*
Y571196D01*
X273793D01*
X274756Y569756D01*
X276244Y568761D01*
X278000Y568412D01*
X279756Y568761D01*
X281244Y569756D01*
X282239Y571244D01*
X282588Y573000D01*
X282239Y574756D01*
X281244Y576244D01*
X279756Y577239D01*
X278000Y577588D01*
X276244Y577239D01*
X275593Y576804D01*
X271250D01*
Y578750D01*
X262804D01*
Y582750D01*
X264251D01*
Y603250D01*
D02*
G37*
G36*
X271000Y620078D02*
X269439Y619768D01*
X268116Y618884D01*
X267232Y617561D01*
X266922Y616000D01*
X267232Y614439D01*
X268116Y613116D01*
X268359Y612954D01*
Y603250D01*
X265751D01*
Y582750D01*
X274251D01*
Y603250D01*
X272437D01*
Y612208D01*
X272561Y612232D01*
X273884Y613116D01*
X274768Y614439D01*
X275078Y616000D01*
X274768Y617561D01*
X273884Y618884D01*
X272561Y619768D01*
X271000Y620078D01*
D02*
G37*
G36*
X281000Y614078D02*
X279439Y613768D01*
X278116Y612884D01*
X277232Y611561D01*
X276922Y610000D01*
X277232Y608439D01*
X278116Y607116D01*
X278361Y606952D01*
Y603250D01*
X275751D01*
Y582750D01*
X284251D01*
Y603250D01*
X282440D01*
Y606208D01*
X282561Y606232D01*
X283884Y607116D01*
X284768Y608439D01*
X285078Y610000D01*
X284768Y611561D01*
X283884Y612884D01*
X282561Y613768D01*
X281000Y614078D01*
D02*
G37*
G36*
X183000Y562588D02*
X181244Y562239D01*
X179756Y561244D01*
X179284Y560539D01*
X177500D01*
X176720Y560384D01*
X176058Y559942D01*
X176058Y559942D01*
X174558Y558442D01*
X174116Y557780D01*
X173961Y557000D01*
Y549000D01*
X174116Y548220D01*
X174558Y547558D01*
X175558Y546558D01*
X176220Y546116D01*
X176250Y546110D01*
Y543750D01*
X184650D01*
Y552250D01*
X183638Y552562D01*
X183638Y552562D01*
X183638D01*
X183544Y553520D01*
X183675Y553546D01*
X184756Y553761D01*
X186244Y554756D01*
X187239Y556244D01*
X187588Y558000D01*
X187239Y559756D01*
X186244Y561244D01*
X184756Y562239D01*
X183000Y562588D01*
D02*
G37*
G36*
X18372Y541749D02*
X7871D01*
Y532249D01*
X10451D01*
Y531000D01*
X10645Y530024D01*
X11198Y529198D01*
X13198Y527198D01*
X14024Y526645D01*
X15000Y526451D01*
X22000D01*
X22975Y526645D01*
X23802Y527198D01*
X26802Y530198D01*
X27355Y531025D01*
X27549Y532000D01*
Y532944D01*
X29056Y534451D01*
X41250D01*
Y532750D01*
X49080D01*
X49650Y532750D01*
X50920Y532750D01*
X58750D01*
Y534451D01*
X62291D01*
X62756Y533756D01*
X64244Y532761D01*
X66000Y532412D01*
X67756Y532761D01*
X69244Y533756D01*
X70239Y535244D01*
X70588Y537000D01*
X70239Y538756D01*
X69244Y540244D01*
X67756Y541239D01*
X66000Y541588D01*
X64244Y541239D01*
X62756Y540244D01*
X62291Y539549D01*
X58750D01*
Y541250D01*
X50920D01*
X50350Y541250D01*
X49080Y541250D01*
X41250D01*
Y539549D01*
X28000D01*
X27025Y539355D01*
X26198Y538802D01*
X23198Y535802D01*
X22645Y534976D01*
X22451Y534000D01*
Y533056D01*
X20944Y531549D01*
X19352D01*
X18372Y532249D01*
Y541749D01*
D02*
G37*
G36*
X277498Y553998D02*
X265998D01*
Y541998D01*
X277498D01*
Y543002D01*
X278768Y543680D01*
X279439Y543232D01*
X281000Y542922D01*
X282561Y543232D01*
X283884Y544116D01*
X284768Y545439D01*
X285078Y547000D01*
X284768Y548561D01*
X283884Y549884D01*
X282561Y550768D01*
X281000Y551078D01*
X279439Y550768D01*
X278768Y550320D01*
X277498Y550881D01*
Y553998D01*
D02*
G37*
G36*
X146000Y601588D02*
X144818Y601353D01*
X137182D01*
X136000Y601588D01*
X134818Y601353D01*
X133000D01*
X132043Y600957D01*
X131647Y600000D01*
Y598182D01*
X131412Y597000D01*
X131647Y595818D01*
Y592751D01*
X128751D01*
Y575249D01*
X131958D01*
X132043Y575043D01*
X133000Y574647D01*
X150000D01*
X150957Y575043D01*
X151353Y576000D01*
Y600000D01*
X150957Y600957D01*
X150000Y601353D01*
X147182D01*
X146000Y601588D01*
D02*
G37*
G36*
X60000Y444588D02*
X58244Y444239D01*
X56756Y443244D01*
X55761Y441756D01*
X55412Y440000D01*
X55761Y438244D01*
X56756Y436756D01*
X58244Y435761D01*
X60000Y435412D01*
X61756Y435761D01*
X63244Y436756D01*
X64239Y438244D01*
X64588Y440000D01*
X64239Y441756D01*
X63244Y443244D01*
X61756Y444239D01*
X60000Y444588D01*
D02*
G37*
G36*
X331000Y231588D02*
X329244Y231239D01*
X327756Y230244D01*
X326761Y228756D01*
X326412Y227000D01*
X326761Y225244D01*
X327756Y223756D01*
X328196Y223461D01*
Y103539D01*
X327756Y103244D01*
X326761Y101756D01*
X326412Y100000D01*
X326761Y98244D01*
X327756Y96756D01*
X329244Y95761D01*
X331000Y95412D01*
X332756Y95761D01*
X334244Y96756D01*
X335239Y98244D01*
X335588Y100000D01*
X335239Y101756D01*
X334244Y103244D01*
X333804Y103539D01*
Y223461D01*
X334244Y223756D01*
X335239Y225244D01*
X335588Y227000D01*
X335239Y228756D01*
X334244Y230244D01*
X332756Y231239D01*
X331000Y231588D01*
D02*
G37*
G36*
X60000Y304588D02*
X58244Y304239D01*
X56756Y303244D01*
X55761Y301756D01*
X55412Y300000D01*
X55761Y298244D01*
X56756Y296756D01*
X58244Y295761D01*
X60000Y295412D01*
X61756Y295761D01*
X63244Y296756D01*
X64239Y298244D01*
X64588Y300000D01*
X64239Y301756D01*
X63244Y303244D01*
X61756Y304239D01*
X60000Y304588D01*
D02*
G37*
G36*
Y324588D02*
X58244Y324239D01*
X56756Y323244D01*
X55761Y321756D01*
X55412Y320000D01*
X55761Y318244D01*
X56756Y316756D01*
X58244Y315761D01*
X60000Y315412D01*
X61756Y315761D01*
X63244Y316756D01*
X64239Y318244D01*
X64588Y320000D01*
X64239Y321756D01*
X63244Y323244D01*
X61756Y324239D01*
X60000Y324588D01*
D02*
G37*
G36*
X529970Y128533D02*
X526588Y128200D01*
X523337Y127214D01*
X520340Y125612D01*
X517713Y123457D01*
X515558Y120830D01*
X513956Y117833D01*
X512970Y114582D01*
X512636Y111200D01*
X512970Y107818D01*
X513956Y104567D01*
X515558Y101570D01*
X517713Y98943D01*
X520340Y96788D01*
X523337Y95186D01*
X526588Y94200D01*
X529970Y93867D01*
X533352Y94200D01*
X536603Y95186D01*
X539600Y96788D01*
X542227Y98943D01*
X544382Y101570D01*
X545984Y104567D01*
X546970Y107818D01*
X547304Y111200D01*
X546970Y114582D01*
X545984Y117833D01*
X544382Y120830D01*
X542227Y123457D01*
X539600Y125612D01*
X536603Y127214D01*
X533352Y128200D01*
X529970Y128533D01*
D02*
G37*
G36*
X410000Y28000D02*
X362000D01*
Y10000D01*
X410000D01*
Y28000D01*
D02*
G37*
G36*
X49978Y39999D02*
X49069Y39953D01*
X48179Y39837D01*
X47682Y39724D01*
X47111Y39570D01*
X46686Y39429D01*
X46092Y39207D01*
X45517Y38934D01*
X44980Y38657D01*
X44397Y38280D01*
X43892Y37926D01*
X43297Y37422D01*
X42687Y36812D01*
X42242Y36308D01*
X41834Y35777D01*
X41553Y35375D01*
X41361Y35038D01*
X41142Y34653D01*
X40975Y34318D01*
X40800Y33914D01*
X40601Y33407D01*
X40322Y32562D01*
X40214Y32068D01*
X40125Y31572D01*
X40053Y31056D01*
X40001Y30339D01*
X40024Y29390D01*
X40094Y28618D01*
X40172Y28149D01*
X40297Y27538D01*
X40430Y27106D01*
X40594Y26573D01*
X40764Y26161D01*
X41163Y25296D01*
X41388Y24901D01*
X41648Y24490D01*
X41952Y24051D01*
X42280Y23641D01*
X42687Y23180D01*
X43091Y22775D01*
X43701Y22220D01*
X44248Y21818D01*
X44631Y21556D01*
X45035Y21317D01*
X45678Y20978D01*
X46160Y20765D01*
X46752Y20539D01*
X47352Y20357D01*
X47847Y20234D01*
X48997Y20054D01*
X49344Y20015D01*
X49907Y19992D01*
X51055Y20054D01*
X51680Y20133D01*
X52606Y20337D01*
X53007Y20447D01*
X53680Y20706D01*
X53980Y20822D01*
X54408Y21019D01*
X54966Y21317D01*
X55372Y21556D01*
X55803Y21856D01*
X56076Y22046D01*
X56624Y22516D01*
X57013Y22873D01*
X57429Y23290D01*
X57924Y23894D01*
X58170Y24223D01*
X58474Y24689D01*
X58732Y25121D01*
X58966Y25578D01*
X59302Y26317D01*
X59451Y26734D01*
X59681Y27472D01*
X59763Y27832D01*
X59833Y28247D01*
X59905Y28637D01*
X59983Y29307D01*
X59997Y30086D01*
X59928Y31256D01*
X59850Y31745D01*
X59763Y32206D01*
X59479Y33195D01*
X59328Y33618D01*
X59091Y34170D01*
X58848Y34652D01*
X58596Y35116D01*
X58402Y35407D01*
X58170Y35777D01*
X57570Y36540D01*
X57013Y37126D01*
X56326Y37752D01*
X55990Y38010D01*
X55577Y38301D01*
X54857Y38761D01*
X54480Y38934D01*
X54005Y39167D01*
X53418Y39397D01*
X52799Y39603D01*
X52338Y39724D01*
X51467Y39902D01*
X50699Y39976D01*
X49978Y39999D01*
D02*
G37*
G36*
X539978D02*
X539069Y39953D01*
X538179Y39837D01*
X537682Y39724D01*
X537111Y39570D01*
X536686Y39429D01*
X536092Y39207D01*
X535517Y38934D01*
X534980Y38657D01*
X534397Y38280D01*
X533892Y37926D01*
X533297Y37422D01*
X532687Y36812D01*
X532242Y36308D01*
X531834Y35777D01*
X531553Y35375D01*
X531361Y35038D01*
X531142Y34653D01*
X530975Y34318D01*
X530800Y33914D01*
X530601Y33407D01*
X530322Y32562D01*
X530214Y32068D01*
X530126Y31572D01*
X530053Y31056D01*
X530001Y30339D01*
X530024Y29390D01*
X530094Y28618D01*
X530172Y28149D01*
X530297Y27538D01*
X530430Y27106D01*
X530594Y26573D01*
X530764Y26161D01*
X531163Y25296D01*
X531388Y24901D01*
X531648Y24490D01*
X531952Y24051D01*
X532280Y23641D01*
X532687Y23180D01*
X533091Y22775D01*
X533701Y22220D01*
X534248Y21818D01*
X534631Y21556D01*
X535035Y21317D01*
X535678Y20978D01*
X536160Y20765D01*
X536752Y20539D01*
X537352Y20357D01*
X537847Y20234D01*
X538997Y20054D01*
X539344Y20015D01*
X539908Y19992D01*
X541055Y20054D01*
X541680Y20133D01*
X542606Y20337D01*
X543007Y20447D01*
X543680Y20706D01*
X543980Y20822D01*
X544408Y21019D01*
X544966Y21317D01*
X545372Y21556D01*
X545803Y21856D01*
X546076Y22046D01*
X546624Y22516D01*
X547013Y22873D01*
X547429Y23290D01*
X547924Y23894D01*
X548170Y24223D01*
X548474Y24689D01*
X548732Y25121D01*
X548966Y25578D01*
X549302Y26317D01*
X549451Y26734D01*
X549681Y27472D01*
X549763Y27832D01*
X549833Y28247D01*
X549905Y28637D01*
X549983Y29307D01*
X549997Y30086D01*
X549928Y31256D01*
X549850Y31745D01*
X549763Y32206D01*
X549479Y33195D01*
X549328Y33618D01*
X549091Y34170D01*
X548848Y34652D01*
X548596Y35116D01*
X548402Y35407D01*
X548170Y35777D01*
X547570Y36540D01*
X547013Y37126D01*
X546326Y37752D01*
X545990Y38010D01*
X545577Y38301D01*
X544857Y38761D01*
X544480Y38934D01*
X544005Y39167D01*
X543418Y39397D01*
X542799Y39603D01*
X542338Y39724D01*
X541467Y39902D01*
X540699Y39976D01*
X539978Y39999D01*
D02*
G37*
G36*
X60000Y364588D02*
X58244Y364239D01*
X56756Y363244D01*
X55761Y361756D01*
X55412Y360000D01*
X55761Y358244D01*
X56756Y356756D01*
X58244Y355761D01*
X60000Y355412D01*
X61756Y355761D01*
X63244Y356756D01*
X64239Y358244D01*
X64588Y360000D01*
X64239Y361756D01*
X63244Y363244D01*
X61756Y364239D01*
X60000Y364588D01*
D02*
G37*
G36*
Y424588D02*
X58244Y424239D01*
X56756Y423244D01*
X55761Y421756D01*
X55412Y420000D01*
X55761Y418244D01*
X56756Y416756D01*
X58244Y415761D01*
X60000Y415412D01*
X61756Y415761D01*
X63244Y416756D01*
X64239Y418244D01*
X64588Y420000D01*
X64239Y421756D01*
X63244Y423244D01*
X61756Y424239D01*
X60000Y424588D01*
D02*
G37*
G36*
X294251Y603250D02*
X285751D01*
Y582750D01*
X287962D01*
Y573002D01*
X285502D01*
Y561002D01*
X287962D01*
Y557999D01*
X288117Y557218D01*
X288559Y556557D01*
X290558Y554558D01*
X290558Y554558D01*
X291220Y554116D01*
X292000Y553961D01*
X296552D01*
X297116Y553116D01*
X298439Y552232D01*
X300000Y551922D01*
X301561Y552232D01*
X302884Y553116D01*
X303448Y553961D01*
X314155D01*
X344961Y523155D01*
Y440000D01*
X345116Y439220D01*
X345558Y438558D01*
X354558Y429558D01*
X354558Y429558D01*
X355220Y429116D01*
X356000Y428961D01*
X356000Y428961D01*
X414155D01*
X422961Y420155D01*
Y417148D01*
X422063Y416250D01*
X421350D01*
X420080Y416250D01*
X412250D01*
X412250Y416250D01*
Y416250D01*
X410980Y416089D01*
X410756Y416239D01*
X409000Y416588D01*
X407244Y416239D01*
X405756Y415244D01*
X404761Y413756D01*
X404412Y412000D01*
X404761Y410244D01*
X405756Y408756D01*
X407244Y407761D01*
X409000Y407412D01*
X410756Y407761D01*
X410980Y407911D01*
X412250Y407750D01*
Y407750D01*
X412250Y407750D01*
X420080D01*
X420650Y407750D01*
X421441Y407750D01*
X422711Y406808D01*
Y395250D01*
Y374250D01*
X422866Y373470D01*
X423308Y372808D01*
X426558Y369558D01*
X426558Y369558D01*
X427220Y369116D01*
X428000Y368961D01*
X433250D01*
Y367951D01*
X441750D01*
Y374051D01*
X441000D01*
Y388951D01*
X441750D01*
Y395051D01*
X441000D01*
Y399949D01*
X441750D01*
Y406049D01*
X441000D01*
Y409951D01*
X441750D01*
Y416051D01*
X433250D01*
Y416000D01*
X429750D01*
Y416250D01*
X427039D01*
Y421000D01*
X427039Y421000D01*
X426884Y421780D01*
X426442Y422442D01*
X416442Y432442D01*
X415780Y432884D01*
X415000Y433039D01*
X356845D01*
X349039Y440845D01*
Y524000D01*
X349039Y524000D01*
X348884Y524780D01*
X348442Y525442D01*
X348442Y525442D01*
X316442Y557442D01*
X315780Y557884D01*
X315000Y558039D01*
X303448D01*
X302884Y558884D01*
X301561Y559768D01*
X300000Y560078D01*
X298439Y559768D01*
X297116Y558884D01*
X296552Y558039D01*
X292845D01*
X292040Y558843D01*
Y561002D01*
X297002D01*
Y573002D01*
X292040D01*
Y582750D01*
X294251D01*
Y603250D01*
D02*
G37*
G36*
X172788Y433000D02*
X171212D01*
X169667Y432693D01*
X168211Y432090D01*
X166900Y431214D01*
X165786Y430100D01*
X164911Y428789D01*
X164307Y427333D01*
X164000Y425788D01*
Y424212D01*
X164307Y422667D01*
X164911Y421211D01*
X165786Y419900D01*
X166900Y418786D01*
X168211Y417910D01*
X169667Y417307D01*
X171212Y417000D01*
X172788D01*
X174333Y417307D01*
X175789Y417910D01*
X177100Y418786D01*
X178214Y419900D01*
X179090Y421211D01*
X179693Y422667D01*
X180000Y424212D01*
Y425788D01*
X179693Y427333D01*
X179090Y428789D01*
X178214Y430100D01*
X177100Y431214D01*
X175789Y432090D01*
X174333Y432693D01*
X172788Y433000D01*
D02*
G37*
G36*
X60000Y404588D02*
X58244Y404239D01*
X56756Y403244D01*
X55761Y401756D01*
X55412Y400000D01*
X55761Y398244D01*
X56756Y396756D01*
X58244Y395761D01*
X60000Y395412D01*
X61756Y395761D01*
X63244Y396756D01*
X64239Y398244D01*
X64588Y400000D01*
X64239Y401756D01*
X63244Y403244D01*
X61756Y404239D01*
X60000Y404588D01*
D02*
G37*
G36*
X162628Y382200D02*
X161052D01*
X159507Y381893D01*
X158051Y381289D01*
X156740Y380414D01*
X155626Y379300D01*
X154750Y377989D01*
X154147Y376534D01*
X153840Y374988D01*
Y373412D01*
X154147Y371866D01*
X154750Y370410D01*
X155626Y369100D01*
X156740Y367986D01*
X158051Y367110D01*
X159507Y366507D01*
X161052Y366200D01*
X162628D01*
X164174Y366507D01*
X165629Y367110D01*
X166940Y367986D01*
X168054Y369100D01*
X168930Y370410D01*
X169533Y371866D01*
X169840Y373412D01*
Y374988D01*
X169533Y376534D01*
X168930Y377989D01*
X168054Y379300D01*
X166940Y380414D01*
X165629Y381289D01*
X164174Y381893D01*
X162628Y382200D01*
D02*
G37*
G36*
X182948D02*
X181372D01*
X179827Y381893D01*
X178371Y381289D01*
X177060Y380414D01*
X175946Y379300D01*
X175070Y377989D01*
X174467Y376534D01*
X174160Y374988D01*
Y373412D01*
X174467Y371866D01*
X175070Y370410D01*
X175946Y369100D01*
X177060Y367986D01*
X178371Y367110D01*
X179827Y366507D01*
X181372Y366200D01*
X182948D01*
X184494Y366507D01*
X185949Y367110D01*
X187260Y367986D01*
X188374Y369100D01*
X189249Y370410D01*
X189853Y371866D01*
X190160Y373412D01*
Y374988D01*
X189853Y376534D01*
X189249Y377989D01*
X188374Y379300D01*
X187260Y380414D01*
X185949Y381289D01*
X184494Y381893D01*
X182948Y382200D01*
D02*
G37*
G36*
X60000Y384588D02*
X58244Y384239D01*
X56756Y383244D01*
X55761Y381756D01*
X55412Y380000D01*
X55761Y378244D01*
X56756Y376756D01*
X58244Y375761D01*
X60000Y375412D01*
X61756Y375761D01*
X63244Y376756D01*
X64239Y378244D01*
X64588Y380000D01*
X64239Y381756D01*
X63244Y383244D01*
X61756Y384239D01*
X60000Y384588D01*
D02*
G37*
G36*
X115000Y853533D02*
X111618Y853200D01*
X108367Y852214D01*
X105370Y850612D01*
X102743Y848457D01*
X100588Y845830D01*
X98986Y842833D01*
X98000Y839582D01*
X97667Y836200D01*
X98000Y832818D01*
X98986Y829567D01*
X100588Y826570D01*
X102743Y823943D01*
X105370Y821788D01*
X108367Y820186D01*
X111618Y819200D01*
X115000Y818867D01*
X118382Y819200D01*
X121633Y820186D01*
X124630Y821788D01*
X127257Y823943D01*
X129412Y826570D01*
X131014Y829567D01*
X132000Y832818D01*
X132333Y836200D01*
X132000Y839582D01*
X131014Y842833D01*
X129412Y845830D01*
X127257Y848457D01*
X124630Y850612D01*
X121633Y852214D01*
X118382Y853200D01*
X115000Y853533D01*
D02*
G37*
G36*
X554000Y830039D02*
X553220Y829884D01*
X552558Y829442D01*
X552558Y829442D01*
X550558Y827442D01*
X550116Y826780D01*
X549961Y826000D01*
Y824244D01*
X548691Y823451D01*
X548000Y823588D01*
X546818Y823353D01*
X537000D01*
X536043Y822957D01*
X535647Y822000D01*
Y818800D01*
X527415D01*
X527049Y818952D01*
X523051D01*
X522094Y818555D01*
X521698Y817599D01*
Y816429D01*
X522094Y815472D01*
X523622Y813944D01*
X524369Y813635D01*
X524393Y813501D01*
Y812499D01*
X524369Y812365D01*
X523622Y812056D01*
X522094Y810528D01*
X521698Y809571D01*
Y808401D01*
X522094Y807445D01*
X523051Y807048D01*
X526068D01*
X528643Y804473D01*
X528643Y804473D01*
X528643Y804473D01*
X529558Y803558D01*
X529558Y803558D01*
X530220Y803116D01*
X531000Y802961D01*
X531000Y802961D01*
X557000D01*
X557780Y803116D01*
X558442Y803558D01*
X560442Y805558D01*
X560442Y805558D01*
X560884Y806220D01*
X561039Y807000D01*
X561039Y807000D01*
Y808250D01*
X563250D01*
Y816650D01*
X563250D01*
X563250Y817350D01*
X563250D01*
Y825750D01*
X561039D01*
Y826000D01*
X560884Y826780D01*
X560442Y827442D01*
X558442Y829442D01*
X557780Y829884D01*
X557000Y830039D01*
X554000D01*
X554000Y830039D01*
D02*
G37*
G36*
X119978Y931000D02*
X119069Y930953D01*
X118179Y930837D01*
X117682Y930724D01*
X117111Y930570D01*
X116686Y930428D01*
X116092Y930207D01*
X115517Y929934D01*
X114980Y929657D01*
X114396Y929280D01*
X113892Y928926D01*
X113297Y928422D01*
X112687Y927812D01*
X112242Y927308D01*
X111834Y926777D01*
X111553Y926375D01*
X111361Y926038D01*
X111142Y925652D01*
X110975Y925318D01*
X110800Y924914D01*
X110601Y924407D01*
X110322Y923562D01*
X110214Y923068D01*
X110126Y922571D01*
X110053Y922056D01*
X110001Y921339D01*
X110024Y920390D01*
X110094Y919618D01*
X110172Y919149D01*
X110297Y918538D01*
X110430Y918106D01*
X110594Y917573D01*
X110764Y917161D01*
X111163Y916296D01*
X111388Y915901D01*
X111648Y915490D01*
X111952Y915051D01*
X112280Y914641D01*
X112687Y914180D01*
X113091Y913775D01*
X113701Y913220D01*
X114248Y912818D01*
X114631Y912556D01*
X115035Y912317D01*
X115678Y911978D01*
X116160Y911765D01*
X116752Y911539D01*
X117352Y911357D01*
X117847Y911235D01*
X118997Y911054D01*
X119344Y911014D01*
X119908Y910992D01*
X121055Y911054D01*
X121680Y911133D01*
X122606Y911337D01*
X123007Y911447D01*
X123680Y911706D01*
X123980Y911822D01*
X124408Y912019D01*
X124966Y912317D01*
X125372Y912556D01*
X125803Y912856D01*
X126076Y913046D01*
X126623Y913516D01*
X127013Y913873D01*
X127429Y914290D01*
X127924Y914894D01*
X128170Y915223D01*
X128474Y915689D01*
X128732Y916121D01*
X128967Y916578D01*
X129302Y917317D01*
X129451Y917734D01*
X129681Y918472D01*
X129763Y918832D01*
X129833Y919248D01*
X129905Y919637D01*
X129983Y920307D01*
X129997Y921086D01*
X129928Y922257D01*
X129850Y922745D01*
X129763Y923206D01*
X129479Y924195D01*
X129328Y924618D01*
X129091Y925170D01*
X128848Y925652D01*
X128596Y926116D01*
X128402Y926407D01*
X128170Y926777D01*
X127570Y927540D01*
X127013Y928126D01*
X126326Y928752D01*
X125990Y929010D01*
X125577Y929302D01*
X124857Y929761D01*
X124480Y929934D01*
X124005Y930167D01*
X123418Y930397D01*
X122799Y930603D01*
X122338Y930724D01*
X121467Y930902D01*
X120699Y930976D01*
X119978Y931000D01*
D02*
G37*
G36*
X129000Y795353D02*
X116000D01*
X115043Y794957D01*
X114647Y794000D01*
Y792454D01*
X113377Y791513D01*
X113000Y791588D01*
X111818Y791353D01*
X104000D01*
X103043Y790957D01*
X102647Y790000D01*
Y782182D01*
X102412Y781000D01*
X102647Y779818D01*
Y773000D01*
X103043Y772043D01*
X104000Y771647D01*
X111818D01*
X113000Y771412D01*
X113377Y771487D01*
X114647Y770546D01*
Y742000D01*
X114751Y741749D01*
Y739250D01*
X114647Y739000D01*
Y732000D01*
X114751Y731750D01*
X114751Y730500D01*
X114751D01*
Y730498D01*
X114751D01*
Y721768D01*
X114751Y720500D01*
X114751D01*
Y720498D01*
X114751D01*
Y715499D01*
X115000D01*
Y710750D01*
X108750D01*
Y710289D01*
X82750D01*
Y712250D01*
X74350D01*
Y703750D01*
X82750D01*
Y706211D01*
X108750D01*
Y702920D01*
X108750Y702350D01*
X108750Y701080D01*
Y693250D01*
X108750Y693250D01*
X108618Y692035D01*
X108412Y691000D01*
X108761Y689244D01*
X109756Y687756D01*
X111244Y686761D01*
X113000Y686412D01*
X113599Y686531D01*
X114000Y686451D01*
X114976Y686645D01*
X115802Y687198D01*
X116120Y687672D01*
X116244Y687756D01*
X117239Y689244D01*
X117588Y691000D01*
X117382Y692035D01*
X117250Y693250D01*
X117250Y693250D01*
X117250Y693250D01*
Y701080D01*
X117250Y701650D01*
X117250Y702920D01*
Y704898D01*
X117610Y705210D01*
X118520Y705706D01*
X120000Y705412D01*
X121756Y705761D01*
X123181Y706713D01*
X123536Y706640D01*
X124451Y706276D01*
Y689056D01*
X117395Y682000D01*
X115879D01*
X115768Y682561D01*
X114884Y683884D01*
X113561Y684768D01*
X112000Y685078D01*
X110439Y684768D01*
X109116Y683884D01*
X108232Y682561D01*
X108122Y682005D01*
X108116Y682000D01*
X106250D01*
Y689650D01*
X97750D01*
Y681250D01*
X98000D01*
Y666339D01*
X97198Y665802D01*
X94198Y662802D01*
X93645Y661975D01*
X93451Y661000D01*
Y618056D01*
X51944Y576549D01*
X15000D01*
X14024Y576355D01*
X13198Y575802D01*
X11198Y573802D01*
X10645Y572976D01*
X10451Y572000D01*
Y570751D01*
X7871D01*
Y561251D01*
X18372D01*
Y570751D01*
X19352Y571451D01*
X53000D01*
X53976Y571645D01*
X54802Y572198D01*
X97802Y615198D01*
X98355Y616025D01*
X98549Y617000D01*
Y643249D01*
X110251D01*
Y645628D01*
X114750D01*
Y645350D01*
X123250D01*
Y645628D01*
X126117D01*
X126764Y644358D01*
X126232Y643561D01*
X125922Y642000D01*
X126232Y640439D01*
X127116Y639116D01*
X128439Y638232D01*
X130000Y637922D01*
X131561Y638232D01*
X132884Y639116D01*
X133278Y639706D01*
X135150D01*
Y638300D01*
X149750D01*
Y639706D01*
X160250D01*
Y638300D01*
X174850D01*
Y639706D01*
X178000D01*
X178878Y639881D01*
X179622Y640378D01*
X181470Y642226D01*
X183000Y641922D01*
X184561Y642232D01*
X185884Y643116D01*
X186768Y644439D01*
X187078Y646000D01*
X186768Y647561D01*
X185884Y648884D01*
X184561Y649768D01*
X183000Y650078D01*
X181439Y649768D01*
X180116Y648884D01*
X179232Y647561D01*
X178963Y646207D01*
X177050Y644294D01*
X174850D01*
Y646700D01*
X160250D01*
Y644294D01*
X149750D01*
Y646700D01*
X149750Y646700D01*
Y647800D01*
X149750D01*
X149750Y647970D01*
Y656030D01*
X149750Y656200D01*
X149750D01*
Y657300D01*
X149750D01*
Y659205D01*
X160250D01*
Y657300D01*
X174850D01*
Y659206D01*
X176500D01*
X177378Y659380D01*
X178122Y659878D01*
X181470Y663226D01*
X183000Y662922D01*
X184561Y663232D01*
X185884Y664116D01*
X186768Y665439D01*
X187078Y667000D01*
X186768Y668561D01*
X185884Y669884D01*
X184561Y670768D01*
X183000Y671078D01*
X181439Y670768D01*
X180116Y669884D01*
X179232Y668561D01*
X178963Y667207D01*
X176120Y664364D01*
X174850Y664890D01*
Y665700D01*
X160250D01*
Y663794D01*
X149750D01*
Y665700D01*
X135150D01*
Y663794D01*
X132944D01*
X132884Y663884D01*
X131561Y664768D01*
X130000Y665078D01*
X129804Y665039D01*
X128414Y666058D01*
X128380Y666368D01*
X134506Y672494D01*
X140506Y678494D01*
X141887Y680561D01*
X142373Y683000D01*
Y696647D01*
X143000D01*
X143007Y696650D01*
X149700D01*
Y713350D01*
X144353D01*
Y715650D01*
X149700D01*
Y732350D01*
X144353D01*
Y739000D01*
X143957Y739957D01*
X143250Y740249D01*
Y741650D01*
X134750D01*
Y740353D01*
X130926D01*
X130197Y741623D01*
X130353Y742000D01*
Y756650D01*
X130700D01*
Y773350D01*
X130353D01*
Y776650D01*
X130700D01*
Y793350D01*
X130353D01*
Y794000D01*
X129957Y794957D01*
X129000Y795353D01*
D02*
G37*
G36*
X497250Y923250D02*
X486750D01*
Y917750D01*
X497250D01*
Y923250D01*
D02*
G37*
G36*
X38978Y851000D02*
X38069Y850953D01*
X37179Y850837D01*
X36682Y850724D01*
X36111Y850570D01*
X35686Y850428D01*
X35092Y850207D01*
X34517Y849934D01*
X33980Y849657D01*
X33396Y849280D01*
X32892Y848926D01*
X32297Y848422D01*
X31687Y847812D01*
X31242Y847308D01*
X30834Y846777D01*
X30553Y846375D01*
X30361Y846038D01*
X30142Y845652D01*
X29975Y845318D01*
X29800Y844914D01*
X29601Y844407D01*
X29322Y843562D01*
X29214Y843068D01*
X29125Y842571D01*
X29053Y842056D01*
X29001Y841339D01*
X29024Y840390D01*
X29094Y839618D01*
X29172Y839149D01*
X29297Y838538D01*
X29430Y838106D01*
X29594Y837573D01*
X29764Y837161D01*
X30163Y836296D01*
X30388Y835901D01*
X30648Y835490D01*
X30952Y835051D01*
X31280Y834641D01*
X31687Y834180D01*
X32091Y833775D01*
X32701Y833220D01*
X33248Y832818D01*
X33631Y832556D01*
X34035Y832317D01*
X34678Y831978D01*
X35160Y831765D01*
X35752Y831539D01*
X36352Y831357D01*
X36847Y831235D01*
X37997Y831054D01*
X38344Y831014D01*
X38907Y830992D01*
X40055Y831054D01*
X40680Y831133D01*
X41606Y831337D01*
X42007Y831447D01*
X42680Y831706D01*
X42980Y831822D01*
X43408Y832019D01*
X43966Y832317D01*
X44372Y832556D01*
X44803Y832856D01*
X45076Y833046D01*
X45624Y833516D01*
X46013Y833873D01*
X46429Y834290D01*
X46924Y834894D01*
X47170Y835223D01*
X47474Y835689D01*
X47732Y836121D01*
X47966Y836578D01*
X48302Y837317D01*
X48451Y837734D01*
X48681Y838472D01*
X48763Y838832D01*
X48833Y839248D01*
X48905Y839637D01*
X48983Y840307D01*
X48997Y841086D01*
X48928Y842256D01*
X48850Y842745D01*
X48763Y843206D01*
X48479Y844195D01*
X48328Y844618D01*
X48091Y845170D01*
X47848Y845652D01*
X47596Y846116D01*
X47402Y846407D01*
X47170Y846777D01*
X46570Y847540D01*
X46013Y848126D01*
X45326Y848752D01*
X44990Y849010D01*
X44577Y849302D01*
X43857Y849761D01*
X43480Y849934D01*
X43005Y850167D01*
X42418Y850397D01*
X41799Y850603D01*
X41338Y850724D01*
X40467Y850902D01*
X39699Y850976D01*
X38978Y851000D01*
D02*
G37*
G36*
X164900Y900000D02*
X153100D01*
Y899000D01*
X149750D01*
Y899250D01*
X141920D01*
X141350Y899250D01*
Y899250D01*
X140650Y899250D01*
Y899250D01*
X132250D01*
Y896039D01*
X131000D01*
X130220Y895884D01*
X129558Y895442D01*
X129558Y895442D01*
X125558Y891442D01*
X125116Y890780D01*
X124961Y890000D01*
Y886250D01*
X124250D01*
Y877750D01*
X124961D01*
Y875000D01*
X125116Y874220D01*
X125558Y873558D01*
X127558Y871558D01*
X128220Y871116D01*
X129000Y870961D01*
X139155D01*
X145300Y864816D01*
Y850000D01*
X172700D01*
Y853700D01*
X173000Y854000D01*
X180961D01*
Y853000D01*
X181116Y852220D01*
X181558Y851558D01*
X186556Y846560D01*
X187218Y846118D01*
X187998Y845963D01*
X189000D01*
Y835884D01*
X186155Y833039D01*
X151000D01*
X150220Y832884D01*
X149558Y832442D01*
X149558Y832442D01*
X133157Y816041D01*
X95502D01*
Y818002D01*
X84002D01*
Y806002D01*
X95502D01*
Y811962D01*
X134002D01*
X134782Y812118D01*
X135443Y812560D01*
X151845Y828961D01*
X154000D01*
Y823507D01*
X153645Y822975D01*
X153451Y822000D01*
Y821750D01*
X151750D01*
Y813920D01*
X151750Y813350D01*
X151750D01*
X151750Y812650D01*
X151750D01*
Y804385D01*
X151301Y803166D01*
X150346Y803192D01*
X149884Y803884D01*
X148561Y804768D01*
X147000Y805078D01*
X145439Y804768D01*
X144116Y803884D01*
X143232Y802561D01*
X142922Y801000D01*
X143232Y799439D01*
X144116Y798116D01*
X145439Y797232D01*
X147000Y796922D01*
X148561Y797232D01*
X149884Y798116D01*
X150448Y798961D01*
X157228D01*
X157670Y798666D01*
X158450Y798511D01*
X161750D01*
Y796350D01*
X170250D01*
Y798961D01*
X194000D01*
X194780Y799116D01*
X195442Y799558D01*
X200898Y805014D01*
X202168Y804489D01*
Y795352D01*
Y785352D01*
X219400D01*
Y789075D01*
X220670Y789746D01*
X221439Y789232D01*
X223000Y788922D01*
X224561Y789232D01*
X225884Y790116D01*
X226768Y791439D01*
X227078Y793000D01*
X226768Y794561D01*
X225884Y795884D01*
X226599Y796926D01*
X226884Y797116D01*
X227768Y798439D01*
X228078Y800000D01*
X227937Y800711D01*
X227986Y801667D01*
X228859Y802091D01*
X229560Y802231D01*
X230883Y803114D01*
X231768Y804438D01*
X232078Y805998D01*
X231768Y807559D01*
X230883Y808882D01*
X229560Y809766D01*
X227999Y810077D01*
X226439Y809766D01*
X225116Y808882D01*
X224551Y808038D01*
X222999D01*
X222998Y808038D01*
X222218Y807882D01*
X221556Y807440D01*
X221556Y807440D01*
X220670Y806554D01*
X219400Y807080D01*
Y815355D01*
Y825648D01*
X202168D01*
Y825550D01*
X192250D01*
Y825750D01*
X190000D01*
Y831000D01*
X194000Y835000D01*
X202168D01*
Y830354D01*
X218958D01*
X219116Y830116D01*
X220439Y829232D01*
X222000Y828922D01*
X223561Y829232D01*
X224884Y830116D01*
X225768Y831439D01*
X226078Y833000D01*
X225768Y834561D01*
X224884Y835884D01*
X225599Y836926D01*
X225884Y837116D01*
X226768Y838439D01*
X227078Y840000D01*
X226768Y841561D01*
X225884Y842884D01*
X224561Y843768D01*
X223000Y844078D01*
X221439Y843768D01*
X220670Y843254D01*
X219400Y843925D01*
Y855355D01*
Y865355D01*
Y875648D01*
X202168D01*
Y870353D01*
Y860353D01*
Y850041D01*
X188843D01*
X185039Y853845D01*
Y870750D01*
X187650D01*
Y879250D01*
X185039D01*
Y881000D01*
X184884Y881780D01*
X184442Y882442D01*
X184442Y882442D01*
X170442Y896442D01*
X169780Y896884D01*
X169000Y897039D01*
X164900D01*
Y900000D01*
D02*
G37*
G36*
X547000Y916588D02*
X545244Y916239D01*
X543756Y915244D01*
X543134Y914314D01*
X543000D01*
X541732Y914061D01*
X540657Y913343D01*
X540395Y912952D01*
X540051D01*
X539094Y912555D01*
X538698Y911599D01*
Y910429D01*
X539094Y909472D01*
X540622Y907944D01*
X541369Y907635D01*
X541393Y907501D01*
Y906499D01*
X541369Y906365D01*
X540622Y906056D01*
X539094Y904528D01*
X538698Y903571D01*
Y903282D01*
X536558Y901142D01*
X536116Y900480D01*
X535961Y899700D01*
Y899448D01*
X535116Y898884D01*
X534232Y897561D01*
X533922Y896000D01*
X534232Y894439D01*
X535116Y893116D01*
X536439Y892232D01*
X538000Y891922D01*
X539561Y892232D01*
X540884Y893116D01*
X541768Y894439D01*
X542078Y896000D01*
X541768Y897561D01*
X540884Y898884D01*
X540811Y899627D01*
X542232Y901048D01*
X544049D01*
X545006Y901445D01*
X545402Y902401D01*
Y905099D01*
X545006Y906056D01*
X545122Y907382D01*
X545428Y907686D01*
X545620D01*
X547000Y907412D01*
X547830Y907577D01*
X549100Y906756D01*
Y901000D01*
X560900D01*
Y912400D01*
X558973D01*
X558343Y913343D01*
X557268Y914061D01*
X556000Y914314D01*
X550866D01*
X550244Y915244D01*
X548756Y916239D01*
X547000Y916588D01*
D02*
G37*
G36*
X104000Y882078D02*
X102439Y881768D01*
X101116Y880884D01*
X100232Y879561D01*
X99922Y878000D01*
X100030Y877454D01*
X99026Y876954D01*
X98843Y876911D01*
X97561Y877768D01*
X96000Y878078D01*
X94439Y877768D01*
X93116Y876884D01*
X92232Y875561D01*
X91922Y874000D01*
X90900Y872900D01*
X90078Y873000D01*
X89768Y874561D01*
X88884Y875884D01*
X87561Y876768D01*
X86000Y877078D01*
X84439Y876768D01*
X83116Y875884D01*
X82232Y874561D01*
X82165Y874223D01*
X80754Y873639D01*
X80561Y873768D01*
X79000Y874078D01*
X77439Y873768D01*
X76116Y872884D01*
X75232Y871561D01*
X74922Y870000D01*
X75232Y868439D01*
X76009Y867277D01*
X76009Y867262D01*
X75798Y866506D01*
X75525Y865984D01*
X74439Y865768D01*
X73116Y864884D01*
X72232Y863561D01*
X71922Y862000D01*
X72232Y860439D01*
X73116Y859116D01*
X74439Y858232D01*
X76000Y857922D01*
X77561Y858232D01*
X78884Y859116D01*
X79768Y860439D01*
X80078Y862000D01*
X79768Y863561D01*
X78991Y864724D01*
X78991Y864738D01*
X79202Y865494D01*
X79475Y866016D01*
X80561Y866232D01*
X81884Y867116D01*
X82768Y868439D01*
X82835Y868777D01*
X84246Y869361D01*
X84439Y869232D01*
X85817Y868958D01*
X86266Y868691D01*
X86927Y868029D01*
X86922Y868000D01*
X87232Y866439D01*
X88116Y865116D01*
X89439Y864232D01*
X91000Y863922D01*
X92561Y864232D01*
X93884Y865116D01*
X94768Y866439D01*
X95078Y868000D01*
X94911Y868843D01*
X95928Y869936D01*
X96000Y869922D01*
X97561Y870232D01*
X98884Y871116D01*
X99768Y872439D01*
X100078Y874000D01*
X99970Y874546D01*
X100974Y875045D01*
X101157Y875089D01*
X102439Y874232D01*
X104000Y873922D01*
X105561Y874232D01*
X106884Y875116D01*
X107768Y876439D01*
X108078Y878000D01*
X107768Y879561D01*
X106884Y880884D01*
X105561Y881768D01*
X104000Y882078D01*
D02*
G37*
G36*
X546000Y878588D02*
X544244Y878239D01*
X542859Y877314D01*
X542000D01*
X540732Y877061D01*
X539657Y876343D01*
X539395Y875952D01*
X539051D01*
X538094Y875555D01*
X537698Y874599D01*
Y873429D01*
X538094Y872472D01*
X539622Y870945D01*
X540369Y870635D01*
X540393Y870501D01*
Y869499D01*
X540369Y869365D01*
X539622Y869055D01*
X538094Y867528D01*
X537698Y866571D01*
Y865401D01*
X537733Y865317D01*
X537439Y864768D01*
X536116Y863884D01*
X535232Y862561D01*
X534922Y861000D01*
X535232Y859439D01*
X536116Y858116D01*
X537439Y857232D01*
X539000Y856922D01*
X540561Y857232D01*
X541884Y858116D01*
X542768Y859439D01*
X543078Y861000D01*
X542847Y862164D01*
X542884Y862220D01*
X543039Y863000D01*
Y864048D01*
X543049D01*
X544006Y864445D01*
X544402Y865401D01*
Y868099D01*
X544250Y868465D01*
X545137Y869584D01*
X546000Y869412D01*
X547756Y869761D01*
X547980Y869911D01*
X549100Y869312D01*
Y865000D01*
X560900D01*
Y876400D01*
X556258D01*
X555268Y877061D01*
X554000Y877314D01*
X549141D01*
X547756Y878239D01*
X546000Y878588D01*
D02*
G37*
G36*
X202350Y908700D02*
X185650D01*
Y905053D01*
X184380Y904314D01*
X183000Y904588D01*
X181244Y904239D01*
X179756Y903244D01*
X178761Y901756D01*
X178412Y900000D01*
X178761Y898244D01*
X179756Y896756D01*
X181244Y895761D01*
X183000Y895412D01*
X184380Y895686D01*
X185650Y895400D01*
Y895400D01*
X202350D01*
Y897451D01*
X205750D01*
Y895250D01*
X214250D01*
Y897451D01*
X216944D01*
X225354Y889042D01*
Y881601D01*
X230648D01*
Y898833D01*
X225354D01*
Y897911D01*
X224180Y897425D01*
X219802Y901802D01*
X218976Y902355D01*
X218000Y902549D01*
X214250D01*
Y903650D01*
X205750D01*
Y902549D01*
X202350D01*
Y908700D01*
D02*
G37*
G36*
X64002Y818002D02*
X52502D01*
Y806002D01*
X55706D01*
Y775000D01*
X49750D01*
Y775250D01*
X41350D01*
X40789Y776288D01*
Y787250D01*
X43250D01*
Y795650D01*
X34750D01*
Y787250D01*
X36711D01*
Y775250D01*
X32250D01*
Y766750D01*
X33000D01*
Y752700D01*
X31000D01*
Y744300D01*
X46500D01*
X46500Y744300D01*
Y744300D01*
X47429Y743571D01*
X51500Y739500D01*
Y734800D01*
X55706D01*
Y732000D01*
X55881Y731122D01*
X56378Y730378D01*
X65378Y721378D01*
X66122Y720881D01*
X67000Y720706D01*
X85749D01*
Y720500D01*
X95249D01*
Y729230D01*
X95249Y730498D01*
X95249D01*
Y730500D01*
X95249D01*
Y735500D01*
X85749D01*
Y735039D01*
X83845D01*
X75039Y743845D01*
Y758155D01*
X76442Y759558D01*
X76884Y760220D01*
X77039Y761000D01*
Y765250D01*
X79250D01*
Y773650D01*
X70750D01*
Y773000D01*
X68250D01*
Y773650D01*
X60294D01*
Y806002D01*
X64002D01*
Y818002D01*
D02*
G37*
G36*
X74000Y683372D02*
X68000D01*
X65561Y682887D01*
X63494Y681506D01*
X62113Y679439D01*
X62068Y679215D01*
X61761Y678756D01*
X61412Y677000D01*
X61761Y675244D01*
X62000Y674887D01*
Y632767D01*
X61113Y631439D01*
X60627Y629000D01*
X61113Y626561D01*
X62494Y624494D01*
X64561Y623113D01*
X67000Y622628D01*
X73000D01*
X75439Y623113D01*
X77506Y624494D01*
X85506Y632494D01*
X86887Y634561D01*
X87372Y637000D01*
Y643249D01*
X88249D01*
Y660751D01*
X87372D01*
Y670000D01*
X86887Y672439D01*
X85506Y674506D01*
X78506Y681506D01*
X76439Y682887D01*
X74000Y683372D01*
D02*
G37*
G36*
X427251Y697249D02*
X406750D01*
Y672750D01*
X427251D01*
Y697249D01*
D02*
G37*
G36*
X520250D02*
X499749D01*
Y672750D01*
X520250D01*
Y697249D01*
D02*
G37*
G36*
X404000Y624588D02*
X402244Y624239D01*
X400756Y623244D01*
X399761Y621756D01*
X399412Y620000D01*
X399761Y618244D01*
X400756Y616756D01*
X402244Y615761D01*
X404000Y615412D01*
X405756Y615761D01*
X407244Y616756D01*
X408239Y618244D01*
X408588Y620000D01*
X408239Y621756D01*
X407244Y623244D01*
X405756Y624239D01*
X404000Y624588D01*
D02*
G37*
G36*
X420000Y616060D02*
X420000Y616060D01*
X418030Y616060D01*
X417735Y616001D01*
X417433D01*
X413569Y615232D01*
X413291Y615117D01*
X412996Y615058D01*
X409356Y613551D01*
X409105Y613383D01*
X408827Y613268D01*
X405551Y611079D01*
X405338Y610866D01*
X405088Y610699D01*
X402302Y607913D01*
X402135Y607663D01*
X401922Y607450D01*
X399733Y604174D01*
X399618Y603896D01*
X399450Y603645D01*
X397943Y600005D01*
X397884Y599710D01*
X397769Y599432D01*
X397000Y595568D01*
Y595266D01*
X396941Y594971D01*
Y591031D01*
X397000Y590736D01*
Y590434D01*
X397769Y586571D01*
X397884Y586292D01*
X397943Y585997D01*
X399450Y582357D01*
X399618Y582107D01*
X399733Y581828D01*
X401922Y578553D01*
X402135Y578339D01*
X402302Y578089D01*
X405088Y575303D01*
X405338Y575136D01*
X405551Y574923D01*
X408827Y572734D01*
X409105Y572619D01*
X409356Y572451D01*
X412996Y570944D01*
X413291Y570885D01*
X413569Y570770D01*
X417433Y570001D01*
X417735D01*
X418030Y569942D01*
X420000Y569942D01*
X508000D01*
X508000Y569942D01*
X509970Y569942D01*
X510265Y570001D01*
X510566D01*
X514431Y570770D01*
X514709Y570885D01*
X515004Y570944D01*
X518644Y572451D01*
X518895Y572619D01*
X519173Y572734D01*
X522449Y574923D01*
X522662Y575136D01*
X522912Y575303D01*
X525698Y578089D01*
X525865Y578340D01*
X526078Y578553D01*
X528267Y581828D01*
X528382Y582107D01*
X528550Y582357D01*
X530057Y585997D01*
X530116Y586292D01*
X530231Y586571D01*
X531000Y590434D01*
Y590736D01*
X531059Y591031D01*
X531059Y594971D01*
X531000Y595266D01*
Y595568D01*
X530231Y599432D01*
X530116Y599710D01*
X530057Y600005D01*
X528550Y603645D01*
X528382Y603896D01*
X528267Y604174D01*
X526078Y607450D01*
X525865Y607663D01*
X525698Y607913D01*
X522912Y610699D01*
X522662Y610866D01*
X522449Y611079D01*
X519173Y613268D01*
X518895Y613383D01*
X518644Y613551D01*
X515004Y615058D01*
X514709Y615117D01*
X514431Y615232D01*
X510567Y616001D01*
X510265D01*
X509970Y616060D01*
X508000D01*
X420000Y616060D01*
D02*
G37*
G36*
X112000Y637078D02*
X110439Y636768D01*
X109116Y635884D01*
X108232Y634561D01*
X107922Y633000D01*
X108120Y632004D01*
X107558Y631442D01*
X107116Y630780D01*
X107110Y630750D01*
X104750D01*
Y622350D01*
X113250D01*
Y629170D01*
X113561Y629232D01*
X114884Y630116D01*
X115768Y631439D01*
X116078Y633000D01*
X115768Y634561D01*
X114884Y635884D01*
X113561Y636768D01*
X112000Y637078D01*
D02*
G37*
G36*
X98350Y780700D02*
X81650D01*
Y767400D01*
X82647D01*
Y744000D01*
X83043Y743043D01*
X84000Y742647D01*
X85749D01*
Y740500D01*
X95249D01*
Y742750D01*
X95957Y743043D01*
X96353Y744000D01*
Y750647D01*
X102818D01*
X104000Y750412D01*
X105182Y750647D01*
X107000D01*
X107957Y751043D01*
X108353Y752000D01*
Y753818D01*
X108588Y755000D01*
X108353Y756182D01*
Y767000D01*
X107957Y767957D01*
X107000Y768353D01*
X98350D01*
Y780700D01*
D02*
G37*
G36*
X337000Y761078D02*
X335439Y760768D01*
X334116Y759884D01*
X333232Y758561D01*
X332922Y757000D01*
X333232Y755439D01*
X333762Y754646D01*
X331560Y752443D01*
X331118Y751782D01*
X330962Y751002D01*
Y744401D01*
X265066D01*
X261903Y749145D01*
X262768Y750439D01*
X263078Y752000D01*
X262768Y753561D01*
X261884Y754884D01*
X260561Y755768D01*
X259000Y756078D01*
X257439Y755768D01*
X256290Y755000D01*
X250474D01*
X249884Y755884D01*
X248561Y756768D01*
X247000Y757078D01*
X245439Y756768D01*
X244116Y755884D01*
X243232Y754561D01*
X242922Y753000D01*
X243232Y751439D01*
X243362Y751245D01*
X241557Y749441D01*
X241115Y748780D01*
X240960Y747999D01*
Y747960D01*
X237401Y744401D01*
X235354D01*
Y727169D01*
X235452D01*
Y719250D01*
X233350D01*
Y710750D01*
X234177D01*
X234807Y709554D01*
X234370Y708350D01*
X226300D01*
Y691650D01*
X234647D01*
Y681000D01*
X235043Y680043D01*
X236000Y679647D01*
X248000D01*
X248957Y680043D01*
X249353Y681000D01*
Y709000D01*
X248957Y709957D01*
X248000Y710353D01*
X242856D01*
X241750Y710750D01*
Y719250D01*
X240550D01*
Y727169D01*
X245961D01*
Y727000D01*
X246117Y726219D01*
X246559Y725558D01*
X249762Y722354D01*
X249232Y721561D01*
X248922Y720000D01*
X249232Y718439D01*
X250116Y717116D01*
X251439Y716232D01*
X253000Y715922D01*
X253899Y716100D01*
X256935Y713065D01*
X256922Y713000D01*
X257232Y711439D01*
X258116Y710116D01*
X259439Y709232D01*
X260817Y708958D01*
X261266Y708691D01*
X261928Y708029D01*
X261922Y708000D01*
X262232Y706439D01*
X263116Y705116D01*
X264439Y704232D01*
X265817Y703958D01*
X266266Y703691D01*
X266928Y703029D01*
X266922Y703000D01*
X267232Y701439D01*
X268116Y700116D01*
X269439Y699232D01*
X271000Y698922D01*
X271712Y699063D01*
X272668Y699012D01*
X273092Y698141D01*
X273232Y697438D01*
X274116Y696115D01*
X275439Y695231D01*
X276999Y694920D01*
X277029Y694926D01*
X277689Y694266D01*
X277958Y693816D01*
X278232Y692439D01*
X279116Y691116D01*
X280439Y690232D01*
X282000Y689922D01*
X283561Y690232D01*
X284884Y691116D01*
X285768Y692439D01*
X285807Y692638D01*
X287000Y693000D01*
X317650D01*
Y692300D01*
X334350D01*
Y705600D01*
X328549D01*
Y712944D01*
X339803Y724198D01*
X340355Y725025D01*
X340549Y726000D01*
Y727169D01*
X340647D01*
Y744401D01*
X335041D01*
Y750157D01*
X338005Y753122D01*
X338561Y753232D01*
X339884Y754116D01*
X340768Y755439D01*
X341078Y757000D01*
X340768Y758561D01*
X339884Y759884D01*
X338561Y760768D01*
X337000Y761078D01*
D02*
G37*
G36*
X511350Y774700D02*
X494650D01*
Y774000D01*
X471600D01*
Y774350D01*
X458300D01*
Y757650D01*
X463000D01*
Y746000D01*
X456850Y739849D01*
X456439Y739768D01*
X455116Y738884D01*
X454526Y738000D01*
X445710D01*
X444561Y738768D01*
X443000Y739078D01*
X441439Y738768D01*
X440116Y737884D01*
X439232Y736561D01*
X438922Y735000D01*
X439041Y734400D01*
X438961Y734001D01*
Y725249D01*
X438251D01*
Y709749D01*
X453750D01*
Y710000D01*
X458251D01*
Y709749D01*
X488749D01*
Y723749D01*
X491000Y726000D01*
Y726451D01*
X544000D01*
X544975Y726645D01*
X545802Y727198D01*
X549802Y731198D01*
X550355Y732025D01*
X550549Y733000D01*
Y739000D01*
X552200D01*
Y754500D01*
X543800D01*
Y744800D01*
X539000Y740000D01*
X528113D01*
X527756Y740239D01*
X526000Y740588D01*
X524244Y740239D01*
X524020Y740089D01*
X522750Y740250D01*
Y740250D01*
X514350D01*
Y740250D01*
X513650Y740250D01*
Y740250D01*
X505250D01*
Y738549D01*
X494451D01*
X493000Y740000D01*
Y760000D01*
X493704Y760704D01*
X494650Y761400D01*
Y761400D01*
X494650Y761400D01*
X509288D01*
X510244Y760761D01*
X512000Y760412D01*
X513756Y760761D01*
X515244Y761756D01*
X516239Y763244D01*
X516588Y765000D01*
X516239Y766756D01*
X515244Y768244D01*
X513756Y769239D01*
X512000Y769588D01*
X511350Y770122D01*
Y774700D01*
D02*
G37*
G36*
X559978Y719999D02*
X559069Y719953D01*
X558179Y719837D01*
X557682Y719724D01*
X557111Y719570D01*
X556686Y719428D01*
X556092Y719206D01*
X555517Y718934D01*
X554980Y718657D01*
X554397Y718280D01*
X553892Y717926D01*
X553297Y717422D01*
X552687Y716812D01*
X552242Y716308D01*
X551834Y715777D01*
X551553Y715375D01*
X551361Y715038D01*
X551142Y714652D01*
X550975Y714318D01*
X550800Y713914D01*
X550601Y713407D01*
X550322Y712562D01*
X550214Y712068D01*
X550126Y711572D01*
X550053Y711056D01*
X550001Y710339D01*
X550024Y709390D01*
X550094Y708618D01*
X550172Y708149D01*
X550297Y707538D01*
X550430Y707106D01*
X550594Y706573D01*
X550764Y706161D01*
X551163Y705296D01*
X551388Y704901D01*
X551648Y704491D01*
X551952Y704051D01*
X552280Y703641D01*
X552687Y703180D01*
X553091Y702775D01*
X553701Y702220D01*
X554248Y701818D01*
X554631Y701556D01*
X555035Y701317D01*
X555678Y700978D01*
X556160Y700765D01*
X556752Y700539D01*
X557352Y700357D01*
X557847Y700235D01*
X558997Y700054D01*
X559344Y700014D01*
X559907Y699992D01*
X561055Y700054D01*
X561680Y700133D01*
X562606Y700337D01*
X563007Y700447D01*
X563680Y700706D01*
X563980Y700822D01*
X564408Y701019D01*
X564966Y701317D01*
X565372Y701556D01*
X565803Y701856D01*
X566076Y702046D01*
X566624Y702516D01*
X567013Y702873D01*
X567429Y703290D01*
X567924Y703894D01*
X568170Y704223D01*
X568474Y704689D01*
X568732Y705121D01*
X568966Y705578D01*
X569302Y706317D01*
X569451Y706734D01*
X569681Y707472D01*
X569763Y707832D01*
X569833Y708248D01*
X569905Y708637D01*
X569983Y709307D01*
X569997Y710086D01*
X569928Y711256D01*
X569850Y711745D01*
X569763Y712206D01*
X569479Y713195D01*
X569328Y713618D01*
X569091Y714170D01*
X568848Y714652D01*
X568596Y715116D01*
X568402Y715407D01*
X568170Y715777D01*
X567570Y716540D01*
X567013Y717126D01*
X566326Y717752D01*
X565990Y718010D01*
X565577Y718301D01*
X564857Y718761D01*
X564480Y718934D01*
X564005Y719167D01*
X563418Y719397D01*
X562799Y719603D01*
X562338Y719724D01*
X561467Y719902D01*
X560699Y719976D01*
X559978Y719999D01*
D02*
G37*
G36*
X556750Y790250D02*
X548350D01*
Y781750D01*
X555961D01*
Y775000D01*
X553300D01*
Y759500D01*
X555961D01*
Y733845D01*
X545155Y723039D01*
X533448D01*
X532884Y723884D01*
X531561Y724768D01*
X530000Y725078D01*
X528439Y724768D01*
X527116Y723884D01*
X526232Y722561D01*
X525922Y721000D01*
X526232Y719439D01*
X527116Y718116D01*
X528439Y717232D01*
X530000Y716922D01*
X531561Y717232D01*
X532884Y718116D01*
X533448Y718961D01*
X546000D01*
X546780Y719116D01*
X547442Y719558D01*
X559442Y731558D01*
X559442Y731558D01*
X559884Y732220D01*
X560039Y733000D01*
Y759500D01*
X561700D01*
Y775000D01*
X560039D01*
Y785000D01*
X560039Y785000D01*
X559884Y785780D01*
X559442Y786442D01*
X559442Y786442D01*
X558442Y787442D01*
X557780Y787884D01*
X557000Y788039D01*
X556750D01*
Y790250D01*
D02*
G37*
%LPD*%
G36*
X527049Y814901D02*
X524579D01*
X523051Y816429D01*
Y817599D01*
X527049D01*
Y814901D01*
D02*
G37*
G36*
Y808401D02*
X523051D01*
Y809571D01*
X524579Y811099D01*
X527049D01*
Y808401D01*
D02*
G37*
G36*
X202168Y810039D02*
X200999D01*
X200219Y809883D01*
X199557Y809441D01*
X193155Y803039D01*
X172000D01*
Y814400D01*
X179350D01*
Y816947D01*
X180620Y817686D01*
X182000Y817412D01*
X183348Y817680D01*
X183750Y817350D01*
Y817350D01*
X192250D01*
Y820452D01*
X202168D01*
Y810039D01*
D02*
G37*
G36*
X544049Y908901D02*
X541579D01*
X540051Y910429D01*
Y911599D01*
X544049D01*
Y908901D01*
D02*
G37*
G36*
Y902401D02*
X540051D01*
Y903571D01*
X541579Y905099D01*
X544049D01*
Y902401D01*
D02*
G37*
G36*
X543049Y871901D02*
X540579D01*
X539051Y873429D01*
Y874599D01*
X543049D01*
Y871901D01*
D02*
G37*
G36*
Y865401D02*
X539051D01*
Y866571D01*
X540579Y868099D01*
X543049D01*
Y865401D01*
D02*
G37*
D10*
X538000Y907000D02*
D03*
X521000Y813000D02*
D03*
X537000Y870000D02*
D03*
D11*
X533951Y910251D02*
D03*
Y903749D02*
D03*
X542049D02*
D03*
Y910251D02*
D03*
X525049Y816251D02*
D03*
Y809749D02*
D03*
X516951D02*
D03*
Y816251D02*
D03*
X532951Y873251D02*
D03*
Y866749D02*
D03*
X541049D02*
D03*
Y873251D02*
D03*
D12*
X39000Y841000D02*
D03*
X540000Y30000D02*
D03*
X120000Y921000D02*
D03*
X50000Y30000D02*
D03*
X560000Y710000D02*
D03*
D13*
X337000Y563999D02*
D03*
X345000D02*
D03*
D14*
X341000Y572001D02*
D03*
D15*
X210784Y873000D02*
D03*
Y868002D02*
D03*
Y863000D02*
D03*
Y858002D02*
D03*
Y853001D02*
D03*
Y848002D02*
D03*
Y843001D02*
D03*
Y838002D02*
D03*
Y833001D02*
D03*
Y828002D02*
D03*
Y823001D02*
D03*
Y818002D02*
D03*
Y813001D02*
D03*
Y807999D02*
D03*
Y803001D02*
D03*
Y797999D02*
D03*
Y793001D02*
D03*
Y787999D02*
D03*
Y783001D02*
D03*
Y777999D02*
D03*
Y773001D02*
D03*
Y767999D02*
D03*
Y763001D02*
D03*
Y757999D02*
D03*
Y753001D02*
D03*
X365216D02*
D03*
Y757999D02*
D03*
Y763001D02*
D03*
Y767999D02*
D03*
Y773001D02*
D03*
Y777999D02*
D03*
Y783001D02*
D03*
Y787999D02*
D03*
Y793001D02*
D03*
Y797999D02*
D03*
Y803001D02*
D03*
Y807999D02*
D03*
Y813001D02*
D03*
Y818002D02*
D03*
Y823001D02*
D03*
Y828002D02*
D03*
Y833001D02*
D03*
Y838002D02*
D03*
Y843001D02*
D03*
Y848002D02*
D03*
Y853001D02*
D03*
Y858002D02*
D03*
Y863000D02*
D03*
Y868002D02*
D03*
Y873000D02*
D03*
D16*
X228001Y735785D02*
D03*
X232999D02*
D03*
X238001D02*
D03*
X242999D02*
D03*
X248001D02*
D03*
X252999D02*
D03*
X258001D02*
D03*
X262999D02*
D03*
X268001D02*
D03*
X272999D02*
D03*
X278000D02*
D03*
X282999D02*
D03*
X288000D02*
D03*
X293002D02*
D03*
X298000D02*
D03*
X303002D02*
D03*
X308000D02*
D03*
X313002D02*
D03*
X318000D02*
D03*
X323002D02*
D03*
X328000D02*
D03*
X333002D02*
D03*
X338000D02*
D03*
X343002D02*
D03*
X348000D02*
D03*
Y890217D02*
D03*
X343002D02*
D03*
X338000D02*
D03*
X333002D02*
D03*
X328000D02*
D03*
X323002D02*
D03*
X318000D02*
D03*
X313002D02*
D03*
X308000D02*
D03*
X303002D02*
D03*
X298000D02*
D03*
X293002D02*
D03*
X288000D02*
D03*
X282999D02*
D03*
X278000D02*
D03*
X272999D02*
D03*
X268001D02*
D03*
X262999D02*
D03*
X258001D02*
D03*
X252999D02*
D03*
X248001D02*
D03*
X242999D02*
D03*
X238001D02*
D03*
X232999D02*
D03*
X228001D02*
D03*
D17*
X437500Y433001D02*
D03*
Y422999D02*
D03*
X450500Y428000D02*
D03*
X437500Y371001D02*
D03*
Y360999D02*
D03*
X450500Y366000D02*
D03*
X437500Y413001D02*
D03*
Y402999D02*
D03*
X450500Y408000D02*
D03*
X437500Y392001D02*
D03*
Y381999D02*
D03*
X450500Y387000D02*
D03*
D18*
X484001Y348500D02*
D03*
X473999D02*
D03*
X479000Y335500D02*
D03*
D19*
X112999Y584000D02*
D03*
X135001D02*
D03*
X81999Y652000D02*
D03*
X104001D02*
D03*
D20*
X95999Y551398D02*
D03*
X125999D02*
D03*
X155999D02*
D03*
D21*
X95999Y535000D02*
D03*
X125999D02*
D03*
X155999D02*
D03*
D22*
X548000Y746750D02*
D03*
X557500Y767250D02*
D03*
X538500D02*
D03*
X159000Y878250D02*
D03*
X149500Y857750D02*
D03*
X168500D02*
D03*
D23*
X59250Y739000D02*
D03*
X38750Y748500D02*
D03*
Y729500D02*
D03*
D24*
X119501Y748001D02*
D03*
Y743000D02*
D03*
Y738001D02*
D03*
Y733000D02*
D03*
Y727999D02*
D03*
Y723000D02*
D03*
Y717999D02*
D03*
X90499D02*
D03*
Y723000D02*
D03*
Y727999D02*
D03*
Y748001D02*
D03*
Y743000D02*
D03*
Y738001D02*
D03*
Y733000D02*
D03*
D25*
X105000D02*
D03*
D26*
X534000Y370000D02*
D03*
D27*
X542499Y377501D02*
D03*
Y372499D02*
D03*
Y367501D02*
D03*
Y362499D02*
D03*
X525501D02*
D03*
Y367501D02*
D03*
Y372499D02*
D03*
Y377501D02*
D03*
D28*
X559000Y812450D02*
D03*
X559000Y821550D02*
D03*
X313000Y920450D02*
D03*
X313000Y929550D02*
D03*
X474000Y362450D02*
D03*
X474000Y371550D02*
D03*
X387000Y711450D02*
D03*
X387000Y720550D02*
D03*
X538000Y437550D02*
D03*
X538000Y428450D02*
D03*
X485000Y371550D02*
D03*
X485000Y362450D02*
D03*
X156000Y817550D02*
D03*
X156000Y808450D02*
D03*
X113000Y697450D02*
D03*
X113000Y706550D02*
D03*
X75000Y778550D02*
D03*
X75000Y769450D02*
D03*
X369000Y579450D02*
D03*
X369000Y588550D02*
D03*
X102000Y685450D02*
D03*
X102000Y694550D02*
D03*
X109000Y626550D02*
D03*
X109000Y617450D02*
D03*
X258000Y912450D02*
D03*
X258000Y921550D02*
D03*
X513000Y481550D02*
D03*
X513000Y472450D02*
D03*
X513000Y491450D02*
D03*
X513000Y500550D02*
D03*
X188000Y812450D02*
D03*
X188000Y821550D02*
D03*
X516000Y389550D02*
D03*
X516000Y380450D02*
D03*
X267000Y565450D02*
D03*
X267000Y574550D02*
D03*
X507000Y806450D02*
D03*
X507000Y815550D02*
D03*
X191000Y781550D02*
D03*
X191000Y772450D02*
D03*
X166000Y791450D02*
D03*
X166000Y800550D02*
D03*
X210000Y908550D02*
D03*
X210000Y899450D02*
D03*
X64000Y769450D02*
D03*
X64000Y778550D02*
D03*
X526000Y500550D02*
D03*
X526000Y491450D02*
D03*
X139000Y746550D02*
D03*
X139000Y737450D02*
D03*
X119000Y640450D02*
D03*
X119000Y649550D02*
D03*
X469000Y497550D02*
D03*
X469000Y488450D02*
D03*
X505000Y912550D02*
D03*
X505000Y903450D02*
D03*
X504000Y887550D02*
D03*
X504000Y878450D02*
D03*
X39000Y791450D02*
D03*
X39000Y800550D02*
D03*
D29*
X303450Y718000D02*
D03*
X312550Y718000D02*
D03*
X183450Y875000D02*
D03*
X192550Y875000D02*
D03*
X416450Y412000D02*
D03*
X425550Y412000D02*
D03*
X507450Y367000D02*
D03*
X516550Y367000D02*
D03*
X472550Y408000D02*
D03*
X463450Y408000D02*
D03*
X552550Y786000D02*
D03*
X543450Y786000D02*
D03*
X518550Y736000D02*
D03*
X509450Y736000D02*
D03*
X45550Y771000D02*
D03*
X36450Y771000D02*
D03*
X78550Y708000D02*
D03*
X69450Y708000D02*
D03*
X45450Y537000D02*
D03*
X54550Y537000D02*
D03*
X338450Y552000D02*
D03*
X347550Y552000D02*
D03*
X137550Y882000D02*
D03*
X128450Y882000D02*
D03*
X136450Y895000D02*
D03*
X145550Y895000D02*
D03*
X553550Y463000D02*
D03*
X544450Y463000D02*
D03*
X180450Y548000D02*
D03*
X189550Y548000D02*
D03*
X458450Y746000D02*
D03*
X467550Y746000D02*
D03*
X372550Y548000D02*
D03*
X363450Y548000D02*
D03*
X494550Y746000D02*
D03*
X485450Y746000D02*
D03*
X384550Y885000D02*
D03*
X375450Y885000D02*
D03*
X358550Y717000D02*
D03*
X349450Y717000D02*
D03*
X228450Y715000D02*
D03*
X237550Y715000D02*
D03*
X484450Y554000D02*
D03*
X493550Y554000D02*
D03*
D30*
X518000Y923700D02*
D03*
X518000Y908300D02*
D03*
X555000Y891300D02*
D03*
X555000Y906700D02*
D03*
X537000Y797300D02*
D03*
X537000Y812700D02*
D03*
X518000Y890700D02*
D03*
X518000Y875300D02*
D03*
X555000Y855300D02*
D03*
X555000Y870700D02*
D03*
X485000Y384300D02*
D03*
X485000Y399700D02*
D03*
X179000Y753300D02*
D03*
X179000Y768700D02*
D03*
X159000Y909700D02*
D03*
X159000Y894300D02*
D03*
D31*
X534700Y831000D02*
D03*
X519300Y831000D02*
D03*
D32*
X171000Y838950D02*
D03*
X171000Y821050D02*
D03*
X503000Y785950D02*
D03*
X503000Y768050D02*
D03*
X90000Y791950D02*
D03*
X90000Y774050D02*
D03*
X194000Y919950D02*
D03*
X194000Y902050D02*
D03*
X374000Y921950D02*
D03*
X374000Y904050D02*
D03*
X347000Y681050D02*
D03*
X347000Y698950D02*
D03*
X326000Y681050D02*
D03*
X326000Y698950D02*
D03*
X237000Y929950D02*
D03*
X237000Y912050D02*
D03*
X516000Y416050D02*
D03*
X516000Y433950D02*
D03*
D33*
X447050Y766000D02*
D03*
X464950Y766000D02*
D03*
X141950Y785000D02*
D03*
X124050Y785000D02*
D03*
X381950Y564000D02*
D03*
X364050Y564000D02*
D03*
X141950Y765000D02*
D03*
X124050Y765000D02*
D03*
X536950Y849000D02*
D03*
X519050Y849000D02*
D03*
X215050Y700000D02*
D03*
X232950Y700000D02*
D03*
X160950Y724000D02*
D03*
X143050Y724000D02*
D03*
X538950Y527000D02*
D03*
X521050Y527000D02*
D03*
X538950Y550000D02*
D03*
X521050Y550000D02*
D03*
X447050Y473000D02*
D03*
X464950Y473000D02*
D03*
X160950Y705000D02*
D03*
X143050Y705000D02*
D03*
D34*
X435999Y717499D02*
D03*
X441001D02*
D03*
X445999D02*
D03*
X451001D02*
D03*
X455999D02*
D03*
X461001D02*
D03*
X465999D02*
D03*
X471001D02*
D03*
X475999D02*
D03*
X481001D02*
D03*
X485999D02*
D03*
X491001D02*
D03*
D35*
X417000Y685000D02*
D03*
X510000D02*
D03*
D36*
X322752Y567002D02*
D03*
X291252D02*
D03*
X240248Y547998D02*
D03*
X271748D02*
D03*
X89752Y812002D02*
D03*
X58252D02*
D03*
D37*
X380500Y602501D02*
D03*
X361500D02*
D03*
Y627499D02*
D03*
X371000D02*
D03*
X380500D02*
D03*
D38*
X13122Y566001D02*
D03*
Y536999D02*
D03*
D39*
X500499Y512551D02*
D03*
X490999D02*
D03*
X481499D02*
D03*
Y487452D02*
D03*
X500499D02*
D03*
D40*
X142450Y652000D02*
D03*
X167550Y642500D02*
D03*
Y652000D02*
D03*
Y661500D02*
D03*
X142450D02*
D03*
Y642500D02*
D03*
D41*
X498250Y534000D02*
D03*
X481750D02*
D03*
D42*
X250001Y593000D02*
D03*
X260001D02*
D03*
X270001D02*
D03*
X280001D02*
D03*
X290001D02*
D03*
X300001D02*
D03*
D43*
X323500Y614700D02*
D03*
X226500D02*
D03*
D44*
X467000Y795500D02*
D03*
Y930500D02*
D03*
D45*
X492000Y805500D02*
D03*
Y810500D02*
D03*
Y815500D02*
D03*
Y820500D02*
D03*
Y825500D02*
D03*
Y830500D02*
D03*
Y835500D02*
D03*
Y840500D02*
D03*
Y845500D02*
D03*
Y850500D02*
D03*
Y855500D02*
D03*
Y860500D02*
D03*
Y920500D02*
D03*
Y915500D02*
D03*
Y910500D02*
D03*
Y905500D02*
D03*
Y900500D02*
D03*
Y895500D02*
D03*
Y890500D02*
D03*
Y885500D02*
D03*
Y880500D02*
D03*
Y875500D02*
D03*
Y870500D02*
D03*
Y865500D02*
D03*
D46*
X570200Y662750D02*
D03*
X552200D02*
D03*
Y623250D02*
D03*
X570200D02*
D03*
D47*
X485000Y417500D02*
D03*
Y434500D02*
D03*
D48*
X110000Y681000D02*
X112000D01*
X106000Y677000D02*
X110000Y681000D01*
X103000Y677000D02*
X106000D01*
X346000Y273000D02*
Y335000D01*
X329250Y345000D02*
Y355750D01*
X343250Y280250D02*
Y331000D01*
X329250Y345000D02*
X343250Y331000D01*
X332000Y349000D02*
X346000Y335000D01*
X349000Y200000D02*
Y348667D01*
X343000Y270000D02*
X346000Y273000D01*
X342000Y193000D02*
X349000Y200000D01*
X343750Y353917D02*
X349000Y348667D01*
X350000Y65000D02*
X352000Y67000D01*
X346500Y355056D02*
X352000Y349556D01*
X201000Y479536D02*
Y576000D01*
X204000Y481000D02*
Y567999D01*
X176000Y557000D02*
X177500Y558500D01*
X176000Y549000D02*
Y557000D01*
Y549000D02*
X177000Y548000D01*
X177500Y558500D02*
X182500D01*
X177000Y548000D02*
X180450D01*
X109000Y630000D02*
X112000Y633000D01*
X119501Y710501D02*
Y717999D01*
X151000Y831000D02*
X187000D01*
X91752Y814002D02*
X134002D01*
X151000Y831000D01*
X102000Y678000D02*
Y685450D01*
Y678000D02*
X103000Y677000D01*
X396000Y913000D02*
X399000Y910000D01*
X320000Y913000D02*
X396000D01*
X445000Y424000D02*
X449000Y420000D01*
X445000Y424000D02*
Y431000D01*
X395000Y653000D02*
X424000Y624000D01*
X538000Y896000D02*
Y899700D01*
Y895000D02*
Y896000D01*
Y899700D02*
X542049Y903749D01*
X221999Y833001D02*
X222000Y833000D01*
X210784Y833001D02*
X221999D01*
X187000Y831000D02*
X199001Y843001D01*
X554200Y684200D02*
X560000Y690000D01*
X221002Y838002D02*
X223000Y840000D01*
X210784Y838002D02*
X221002D01*
X290001Y557999D02*
X292000Y556000D01*
X158000Y801000D02*
X158450Y800550D01*
X156000Y803000D02*
X158000Y801000D01*
X147000D02*
X158000D01*
X156000Y803000D02*
Y807000D01*
X158450Y800550D02*
X166000D01*
X435000Y875000D02*
X438000D01*
X432000Y878000D02*
X435000Y875000D01*
X432000Y878000D02*
Y881000D01*
X438250Y854750D02*
X478750D01*
X433000Y860000D02*
X438250Y854750D01*
X433000Y860000D02*
Y867000D01*
X421000Y858000D02*
X422000Y859000D01*
X421000Y854000D02*
Y858000D01*
Y854000D02*
X422000Y853000D01*
X428000D01*
X422000Y859000D02*
X427000D01*
X431000Y869000D02*
X433000Y867000D01*
X423000Y869000D02*
X431000D01*
X409000Y873000D02*
X411000D01*
X406000Y870000D02*
X409000Y873000D01*
X406000Y849750D02*
Y870000D01*
X462000Y803000D02*
X464000D01*
X455750Y796750D02*
X462000Y803000D01*
X455750Y785750D02*
Y796750D01*
X464000Y803000D02*
X466000Y805000D01*
X430000Y782000D02*
X452000D01*
X455750Y785750D01*
X428000Y780000D02*
X430000Y782000D01*
X428000Y763000D02*
Y780000D01*
X453000Y789000D02*
Y804000D01*
X450000Y786000D02*
X453000Y789000D01*
X448000Y786000D02*
X450000D01*
X447000Y787000D02*
X448000Y786000D01*
X447000Y787000D02*
Y790000D01*
X455250Y806250D02*
X463361D01*
X453000Y804000D02*
X455250Y806250D01*
X446000Y791000D02*
X447000Y790000D01*
X463361Y806250D02*
X477611Y820500D01*
X462222Y809000D02*
X478722Y825500D01*
X452000Y809000D02*
X462222D01*
X442000Y795000D02*
X445000D01*
X440000Y797000D02*
X442000Y795000D01*
X440000Y797000D02*
Y814000D01*
X445000Y795000D02*
X447000Y797000D01*
Y804000D01*
X452000Y809000D01*
X461000Y815000D02*
Y820000D01*
X459000Y813000D02*
X461000Y815000D01*
X455000Y813000D02*
X459000D01*
X454000Y814000D02*
X455000Y813000D01*
X454000Y814000D02*
Y824000D01*
X462500Y835500D02*
X492000D01*
X458000Y831000D02*
X462500Y835500D01*
X450000Y831000D02*
X458000D01*
X440000Y841000D02*
X450000Y831000D01*
X471500Y830500D02*
X492000D01*
X461000Y820000D02*
X471500Y830500D01*
X422000Y847000D02*
Y848000D01*
X444000Y841000D02*
X482000D01*
X438000Y847000D02*
X444000Y841000D01*
X482000D02*
X486500Y845500D01*
X492000D01*
X478750Y854750D02*
X479500Y855500D01*
X475250Y860250D02*
X480500Y865500D01*
X454750Y860250D02*
X475250D01*
X451000Y864000D02*
X454750Y860250D01*
X477611Y857500D02*
X480611Y860500D01*
X446500Y857500D02*
X477611D01*
X439000Y865000D02*
X446500Y857500D01*
X480611Y860500D02*
X492000D01*
X479500Y855500D02*
X492000D01*
X480500Y865500D02*
X492000D01*
X439000Y865000D02*
Y874000D01*
X473000Y866000D02*
Y867000D01*
X486500Y880500D01*
X492000D01*
X464000Y865000D02*
X479500Y880500D01*
X473000Y874000D02*
X484500Y885500D01*
X492000D01*
X464000Y870000D02*
X484500Y890500D01*
X445000Y870000D02*
X464000D01*
X484500Y890500D02*
X492000D01*
X474000Y887000D02*
X475000D01*
X483500Y895500D01*
X492000D01*
X481500Y900500D02*
X492000D01*
X479000Y898000D02*
X481500Y900500D01*
X484000Y907000D02*
Y908000D01*
X486500Y910500D01*
X492000D01*
X456250Y838250D02*
X485000D01*
X487250Y840500D01*
X492000D01*
X406000Y849750D02*
X414875Y840875D01*
X415000Y841000D02*
X440000D01*
X478722Y825500D02*
X492000D01*
X477611Y820500D02*
X492000D01*
X466000Y805000D02*
X471500Y810500D01*
X471000Y810000D02*
X476500Y815500D01*
X492000D01*
X369170Y588829D02*
Y604000D01*
X375250Y650750D02*
X380000Y646000D01*
X347500Y750722D02*
X372500Y725722D01*
Y651500D02*
Y725722D01*
X362000Y641000D02*
X372500Y651500D01*
X350250Y751861D02*
X375250Y726861D01*
Y650750D02*
Y726861D01*
X353000Y753000D02*
X378000Y728000D01*
Y651889D02*
Y728000D01*
Y651889D02*
X385499Y644390D01*
X380718Y613000D02*
X385499Y617782D01*
X378171Y613000D02*
X380718D01*
X369170Y604000D02*
X378171Y613000D01*
X385499Y617782D02*
Y644390D01*
X395000Y653000D02*
Y745000D01*
X343002Y890217D02*
Y898998D01*
X342000Y900000D02*
X343002Y898998D01*
X332000Y900000D02*
X342000D01*
X313002Y906002D02*
X320000Y913000D01*
X109000Y626550D02*
Y630000D01*
X541000Y863000D02*
Y866000D01*
X210784Y803001D02*
X214000D01*
X222998Y805998D02*
X227999D01*
X214000Y803000D02*
X220000D01*
X222998Y805998D01*
X281000Y903000D02*
X282999Y901001D01*
Y890217D02*
Y901001D01*
X330000Y902000D02*
X332000Y900000D01*
X410000Y893000D02*
Y900000D01*
X375002Y858002D02*
X410000Y893000D01*
X365216Y858002D02*
X375002D01*
X450501Y387000D02*
X456000D01*
X442999Y433001D02*
X445000Y431000D01*
X437500Y433001D02*
X442999D01*
X457000Y429000D02*
Y464671D01*
X456000Y428000D02*
X457000Y429000D01*
X450500Y428000D02*
X456000D01*
X387000Y720550D02*
Y749111D01*
Y720000D02*
Y720550D01*
X148750Y857750D02*
X149000Y858000D01*
X140000Y873000D02*
X148500Y864500D01*
X129000Y873000D02*
X140000D01*
X127000Y875000D02*
X129000Y873000D01*
X148500Y858000D02*
Y864500D01*
X131000Y894000D02*
X134000D01*
X127000Y890000D02*
X131000Y894000D01*
X169000Y895000D02*
X183000Y881000D01*
X199001Y843001D02*
X210784D01*
X415000Y431000D02*
X425000Y421000D01*
Y415000D02*
Y421000D01*
X200000Y350000D02*
X201000Y351000D01*
X200000Y222000D02*
Y350000D01*
X248001Y727000D02*
X252000Y723000D01*
X248001Y727000D02*
Y735785D01*
X278000Y700000D02*
Y735785D01*
X277000Y699000D02*
X278000Y700000D01*
X271000Y703000D02*
X272999Y704999D01*
X268001Y708000D02*
Y735785D01*
X268000Y708000D02*
X268001Y708000D01*
X266000Y708000D02*
X268000D01*
X261000Y713000D02*
X262000D01*
X272999Y704999D02*
Y735785D01*
X262000Y713000D02*
X262999Y713999D01*
Y735785D01*
X205000Y738000D02*
X218000D01*
X200000Y743000D02*
X205000Y738000D01*
X200000Y743000D02*
Y757000D01*
X218000Y727000D02*
X223000Y732000D01*
Y751283D01*
X238717Y767000D01*
X221999Y797999D02*
X224000Y800000D01*
X210784Y797999D02*
X221999D01*
X210784Y793001D02*
X221001D01*
X200000Y757000D02*
X201000Y757999D01*
X223000Y766000D02*
Y772000D01*
X220001Y763001D02*
X223000Y766000D01*
X210784Y763001D02*
X220001D01*
X74000Y768000D02*
X75000Y767000D01*
X70250Y740750D02*
Y758750D01*
X64000Y765000D02*
X70250Y758750D01*
X75000Y761000D02*
Y767000D01*
X73000Y759000D02*
X75000Y761000D01*
X73000Y743000D02*
Y759000D01*
X70250Y740750D02*
X83001Y727999D01*
X73000Y743000D02*
X83000Y733000D01*
X64000Y765000D02*
Y769000D01*
X258001Y890217D02*
Y912001D01*
X333002Y735785D02*
Y751002D01*
X187998Y848002D02*
X210784D01*
X183000Y853000D02*
X187998Y848002D01*
X454000Y485330D02*
Y504000D01*
Y485330D02*
X457000Y482330D01*
X194000Y801000D02*
X200999Y807999D01*
X210784D01*
X457000Y482329D02*
X457000Y482330D01*
X457000Y464671D02*
X457000Y464671D01*
X457000Y464671D02*
Y482329D01*
X518000Y367500D02*
X525500D01*
X542499Y372499D02*
X552499D01*
X463501Y383501D02*
X485000D01*
X459000Y379000D02*
X463501Y383501D01*
X459000Y368000D02*
Y379000D01*
X452000Y366000D02*
X457000D01*
X459000Y368000D01*
X424750Y374250D02*
Y395250D01*
Y374250D02*
X428000Y371000D01*
X424750Y395250D02*
X427999Y392001D01*
X424750Y395250D02*
Y408750D01*
X428000Y371000D02*
X437000D01*
X428000Y412000D02*
X437000D01*
X427999Y392001D02*
X435499D01*
X485000Y372001D02*
Y383000D01*
X483000Y356000D02*
X485000Y358000D01*
Y361999D01*
X473000Y358000D02*
Y360000D01*
Y358000D02*
X475000Y356000D01*
X483000D01*
X484001Y354999D01*
Y349501D02*
Y354999D01*
X483000Y408000D02*
X484000Y407000D01*
X473001Y408000D02*
X483000D01*
X458000Y407000D02*
X459000Y408000D01*
X457000Y406000D02*
X458000Y407000D01*
X459000Y408000D02*
X460000D01*
X457000Y388000D02*
Y406000D01*
X456000Y387000D02*
X457000Y388000D01*
X83001Y727999D02*
X90499D01*
X83000Y733000D02*
X90499D01*
X333002Y874998D02*
Y890217D01*
Y874998D02*
X333998D01*
X262000Y874000D02*
Y880485D01*
X294000Y871000D02*
X295000Y870000D01*
X265000Y871000D02*
X294000D01*
X262000Y874000D02*
X265000Y871000D01*
X339000Y861000D02*
Y877000D01*
X338000Y878000D02*
X339000Y877000D01*
X338000Y878000D02*
Y890217D01*
X332000Y784000D02*
Y854000D01*
X238717Y767000D02*
X315000D01*
X332000Y784000D01*
Y854000D02*
X339000Y861000D01*
X328000Y878000D02*
Y890217D01*
X326000Y876000D02*
X328000Y878000D01*
X326000Y868000D02*
Y876000D01*
X248000Y753000D02*
X249000D01*
X247000D02*
X248000D01*
X248500Y753500D01*
X249000Y753000D01*
X242999Y735785D02*
Y747999D01*
X252999Y745999D02*
X259000Y752000D01*
X218001Y753001D02*
X228000Y763000D01*
X210784Y753001D02*
X218001D01*
X228001Y735785D02*
Y750001D01*
X252999Y735785D02*
Y745999D01*
X254000Y611000D02*
X262000D01*
X250398Y607398D02*
X254000Y611000D01*
X250398Y595000D02*
Y607398D01*
X280401Y609401D02*
X281000Y610000D01*
X280401Y595000D02*
Y609401D01*
X270398Y595000D02*
Y615398D01*
X271000Y616000D01*
X347500Y750722D02*
Y834500D01*
X356001Y843001D01*
X365216D01*
X350250Y751861D02*
Y817250D01*
X356001Y823001D01*
X365216D01*
X353000Y753000D02*
Y810000D01*
X356001Y813001D01*
X365216D01*
X337000Y757000D02*
X339000D01*
X366000Y753000D02*
X378000D01*
X282000Y866000D02*
X283000D01*
X256000D02*
X282000D01*
X252999Y869001D02*
Y890217D01*
Y869001D02*
X256000Y866000D01*
X262000Y880485D02*
X262999Y881485D01*
Y890217D01*
X268001Y878000D02*
Y890217D01*
X278000Y879000D02*
Y890217D01*
X258001Y726000D02*
Y735785D01*
X201000Y757999D02*
X210784D01*
X452000Y836000D02*
X452500Y835500D01*
X326000Y801000D02*
Y868000D01*
X546000Y721000D02*
X558000Y733000D01*
X530000Y721000D02*
X546000D01*
X553001Y786000D02*
X557000D01*
X558000Y785000D01*
X526000Y810000D02*
X530085Y805915D01*
X530085D01*
X531000Y805000D01*
X557000D02*
X559000Y807000D01*
Y811000D01*
X531000Y805000D02*
X557000D01*
X557000Y828000D02*
X559000Y826000D01*
X554000Y828000D02*
X557000D01*
X552000Y826000D02*
X554000Y828000D01*
X552000Y822000D02*
Y826000D01*
X549000Y819000D02*
X552000Y822000D01*
X559000Y823000D02*
Y826000D01*
X546000Y874000D02*
X547000D01*
X439000Y815000D02*
X440000Y814000D01*
X436000Y815000D02*
X439000D01*
X365216Y833001D02*
X376000D01*
X389000Y815000D02*
X390000Y814000D01*
X386000Y815000D02*
X389000D01*
X385000Y814000D02*
X386000Y815000D01*
X383500Y806500D02*
X385000Y808000D01*
X380500Y806500D02*
X383500D01*
X379000Y808000D02*
X380500Y806500D01*
X435000Y807000D02*
Y814000D01*
X395000Y814000D02*
X396000Y815000D01*
X399000D01*
X391000Y804000D02*
X394000D01*
X395000Y805000D01*
X395000Y805000D02*
Y808000D01*
X405000Y805000D02*
Y808000D01*
X404000Y804000D02*
X405000Y805000D01*
X401000Y804000D02*
X404000D01*
X406000Y815000D02*
X409000D01*
X405000Y814000D02*
X406000Y815000D01*
X399000D02*
X400000Y814000D01*
X415000Y795000D02*
Y808000D01*
X414000Y794000D02*
X415000Y795000D01*
X411000Y794000D02*
X414000D01*
X415000Y814000D02*
X416000Y815000D01*
X409000D02*
X410000Y814000D01*
X425000Y795000D02*
Y808000D01*
X424000Y794000D02*
X425000Y795000D01*
X421000Y794000D02*
X424000D01*
X426000Y815000D02*
X429000D01*
X425000Y814000D02*
X426000Y815000D01*
X419000D02*
X420000Y814000D01*
X416000Y815000D02*
X419000D01*
X419000D01*
X435000Y795000D02*
Y808000D01*
X434000Y794000D02*
X435000Y795000D01*
X431000Y794000D02*
X434000D01*
X429000Y815000D02*
X430000Y814000D01*
X435000D02*
X435000Y814000D01*
X436000Y815000D01*
X435000Y808000D02*
Y814000D01*
X390000Y805000D02*
X390000Y805000D01*
X391000Y804000D01*
X400000Y805000D02*
X400000Y805000D01*
X401000Y804000D01*
X410000Y795000D02*
X411000Y794000D01*
X420000Y795000D02*
X421000Y794000D01*
X430000Y795000D02*
X431000Y794000D01*
X418000Y775000D02*
X419000Y774000D01*
X408000Y775000D02*
X409000Y774000D01*
X395000Y787000D02*
X396000Y786000D01*
X385000Y787000D02*
X386000Y786000D01*
X417000Y791000D02*
X417000D01*
X414000D02*
X417000D01*
X418000Y790000D01*
X423000Y790000D02*
X424000Y791000D01*
X427000D01*
X423000Y775000D02*
Y790000D01*
X419000Y774000D02*
X422000D01*
X423000Y775000D01*
X404000Y801000D02*
X405000Y800000D01*
X413000Y790000D02*
X414000Y791000D01*
X413000Y775000D02*
Y790000D01*
X409000Y774000D02*
X412000D01*
X413000Y775000D01*
X395000Y787000D02*
Y800000D01*
X394000Y801000D02*
X395000Y800000D01*
X400000Y800000D02*
X401000Y801000D01*
X404000D01*
X400000Y787000D02*
Y800000D01*
X396000Y786000D02*
X399000D01*
X400000Y787000D01*
X389000Y786000D02*
X390000Y787000D01*
X386000Y786000D02*
X389000D01*
X390000Y787000D02*
Y800000D01*
X391000Y801000D02*
X394000D01*
X390000Y800000D02*
X391000Y801000D01*
X380000Y800000D02*
X381000Y801000D01*
X384000D01*
X385000Y800000D01*
Y787000D02*
Y800000D01*
X379000Y786000D02*
X380000Y787000D01*
Y787000D02*
Y787000D01*
Y800000D01*
X376000Y786000D02*
X379000D01*
X419000Y770000D02*
X422000D01*
X427000Y752000D02*
X428000Y753000D01*
X424000Y752000D02*
X427000D01*
X422000Y770000D02*
X423000Y769000D01*
X423000Y753000D02*
X424000Y752000D01*
X423000Y753000D02*
Y769000D01*
X418000Y753000D02*
Y769000D01*
X413000Y753000D02*
Y769000D01*
X413000Y753000D02*
X414000Y752000D01*
X412000Y770000D02*
X413000Y769000D01*
X418000Y769000D02*
X419000Y770000D01*
X414000Y752000D02*
X417000D01*
X418000Y753000D01*
X408000D02*
Y769000D01*
X403000Y753000D02*
X404000Y752000D01*
X408000Y769000D02*
X409000Y770000D01*
X404000Y752000D02*
X407000D01*
X408000Y753000D01*
X409000Y770000D02*
X409000D01*
X412000D01*
X393000Y761000D02*
X394000Y760000D01*
X392000Y783000D02*
X393000Y782000D01*
X398000Y780000D02*
X399000Y781000D01*
X394000Y760000D02*
X397000D01*
X398000Y761000D01*
X389000Y783000D02*
X392000D01*
X383000Y773000D02*
X384000Y772000D01*
X382000Y783000D02*
X383000Y782000D01*
X388000Y782000D02*
X389000Y783000D01*
X384000Y772000D02*
X387000D01*
X388000Y773000D01*
X378000Y783000D02*
X382000D01*
X377000Y782000D02*
X378000Y783000D01*
X376000Y768000D02*
X377000Y769000D01*
X370000Y768000D02*
X376000D01*
X428000Y753000D02*
Y763000D01*
X386000Y820000D02*
X387000Y819000D01*
X385000Y843000D02*
X386000Y842000D01*
X387000Y819000D02*
X390000D01*
X391000Y820000D01*
Y842000D02*
X392000Y843000D01*
X395000D01*
X396000Y842000D01*
Y820000D02*
X397000Y819000D01*
X400000D01*
X401000Y820000D01*
X402000Y781000D02*
X403000Y780000D01*
X399000Y781000D02*
X402000D01*
X393000Y761000D02*
Y782000D01*
X377000Y769000D02*
Y782000D01*
X383000Y773000D02*
Y782000D01*
X388000Y773000D02*
Y782000D01*
X403000Y753000D02*
Y780000D01*
X398000Y761000D02*
Y780000D01*
X428000Y786000D02*
X429000Y785000D01*
X428000Y786000D02*
Y790000D01*
X427000Y791000D02*
X428000Y790000D01*
X365216Y818002D02*
X373998D01*
X375000Y787000D02*
Y817000D01*
X373998Y818002D02*
X375000Y817000D01*
Y787000D02*
X376000Y786000D01*
X405000Y786000D02*
Y800000D01*
Y786000D02*
X408000Y783000D01*
X408000Y775000D02*
Y783000D01*
X443000Y791000D02*
X446000D01*
X442000Y790000D02*
X443000Y791000D01*
X441000Y785000D02*
X442000Y786000D01*
X442000D02*
Y790000D01*
X432000Y786000D02*
Y790000D01*
X431000Y785000D02*
X432000Y786000D01*
X432000Y790000D02*
X433000Y791000D01*
X436000D01*
X437000Y786000D02*
X438000Y785000D01*
X437000Y786000D02*
Y790000D01*
X436000Y791000D02*
X437000Y790000D01*
X429000Y785000D02*
X431000D01*
X438000D02*
X441000D01*
X418000Y775000D02*
Y790000D01*
Y790000D01*
X365216Y828002D02*
X374998D01*
X379000Y824000D01*
Y808000D02*
Y824000D01*
X390000Y805000D02*
Y814000D01*
X400000Y805000D02*
Y814000D01*
X410000Y795000D02*
Y814000D01*
X385000Y808000D02*
Y814000D01*
X395000Y808000D02*
Y814000D01*
X405000Y808000D02*
Y814000D01*
X420000Y795000D02*
Y814000D01*
X430000Y795000D02*
Y814000D01*
X415000Y808000D02*
Y814000D01*
X425000Y808000D02*
Y814000D01*
X436000Y829000D02*
X436000Y829000D01*
X430000Y819000D02*
X431000Y820000D01*
X427000Y819000D02*
X430000D01*
X431000Y826000D02*
Y829000D01*
X426000Y820000D02*
X427000Y819000D01*
X426000Y829000D02*
X426000Y829000D01*
X425000Y830000D02*
X426000Y829000D01*
Y820000D02*
Y829000D01*
X431000Y820000D02*
Y826000D01*
X431000Y829000D02*
X432000Y830000D01*
X435000D01*
X436000Y829000D01*
X422000Y830000D02*
X425000D01*
X420000Y819000D02*
X421000Y820000D01*
X417000Y819000D02*
X420000D01*
X421000Y829000D02*
X422000Y830000D01*
X421000Y826000D02*
Y829000D01*
X416000Y820000D02*
X417000Y819000D01*
X416000Y829000D02*
X416000Y829000D01*
X415000Y830000D02*
X416000Y829000D01*
Y820000D02*
Y829000D01*
X421000Y820000D02*
Y826000D01*
X401000Y842000D02*
X402000Y843000D01*
X405000D01*
X406000Y842000D01*
Y820000D02*
X407000Y819000D01*
X411000Y820000D02*
Y826000D01*
X411000Y826000D02*
Y829000D01*
X411000Y829000D02*
X412000Y830000D01*
X410000Y819000D02*
X411000Y820000D01*
X412000Y830000D02*
X415000D01*
X444000Y811000D02*
X445000Y810000D01*
X448000D01*
X449000Y811000D01*
Y824000D01*
X450000Y825000D01*
X453000D01*
X454000Y824000D01*
X367000Y838000D02*
X379000D01*
X381000Y842000D02*
X382000Y843000D01*
X385000D01*
X379000Y838000D02*
X381000Y840000D01*
X391000Y820000D02*
Y842000D01*
X386000Y820000D02*
Y842000D01*
X396000Y820000D02*
Y842000D01*
X406000Y820000D02*
Y842000D01*
X401000Y820000D02*
Y842000D01*
X381000Y840000D02*
Y842000D01*
X407000Y819000D02*
X410000D01*
X410000D01*
X436000Y820000D02*
Y829000D01*
Y820000D02*
X437000Y819000D01*
X442000D01*
X444000Y817000D01*
Y811000D02*
Y817000D01*
X415750Y880750D02*
X417000Y882000D01*
X420000D01*
X421000Y881000D01*
Y877000D02*
X422000Y876000D01*
X425000D01*
X426000Y877000D01*
Y881000D02*
X427000Y882000D01*
X431000D01*
X432000Y881000D01*
X438000Y875000D02*
X439000Y874000D01*
X426000Y877000D02*
Y881000D01*
X421000Y877000D02*
Y881000D01*
X412000Y852000D02*
Y866000D01*
X415750Y869750D01*
Y880750D01*
X428000Y853000D02*
X429000Y852000D01*
X427000Y859000D02*
X428000Y860000D01*
X426000Y864000D02*
X428000Y862000D01*
X422000Y865000D02*
X423000Y864000D01*
X422000Y865000D02*
Y868000D01*
X423000Y869000D01*
X428000Y860000D02*
Y862000D01*
X423000Y864000D02*
X426000D01*
X368000Y763000D02*
X377000D01*
X395000Y745000D01*
X378000Y753000D02*
X383111D01*
X387000Y749111D01*
X313000Y718000D02*
X325000D01*
X333002Y726002D01*
Y735785D01*
X347000Y440000D02*
X356000Y431000D01*
X415000D01*
X525501Y354499D02*
Y362499D01*
X552499Y372499D02*
X556000Y376000D01*
X500499Y504501D02*
Y512501D01*
Y504501D02*
X502000Y503000D01*
X351000Y63000D02*
Y65000D01*
X222000Y544000D02*
X224000D01*
X212000Y554000D02*
X213000Y555000D01*
X313002Y890217D02*
Y906002D01*
Y919998D01*
X538000Y437550D02*
Y452000D01*
X424000Y624000D02*
X534000D01*
X556000Y602000D01*
X479000Y335500D02*
Y341000D01*
X480750Y342750D01*
X503000Y343000D02*
X518000Y358000D01*
X480750Y342750D02*
X550750D01*
X346500Y355056D02*
Y355107D01*
X343500Y358107D02*
X346500Y355107D01*
X343750Y353917D02*
Y353968D01*
X340967Y356750D02*
X343750Y353968D01*
X340917Y356750D02*
X340967D01*
X340750Y356917D02*
X340917Y356750D01*
X198000Y475000D02*
Y476536D01*
Y354000D02*
Y475000D01*
Y476536D02*
X201000Y479536D01*
X204000Y567999D02*
X208000Y571999D01*
X208250Y563250D02*
X210000Y565000D01*
X340750Y356917D02*
Y357028D01*
X343500Y358107D02*
Y358167D01*
X224000Y477667D02*
Y542000D01*
Y477667D02*
X343500Y358167D01*
X217000Y480778D02*
Y549000D01*
Y480778D02*
X340750Y357028D01*
X212000Y481889D02*
Y554000D01*
Y481889D02*
X338000Y355889D01*
X208250Y481750D02*
Y563250D01*
Y481750D02*
X332000Y358000D01*
X338000Y351000D02*
Y355889D01*
X332000Y349000D02*
Y358000D01*
X219000Y560000D02*
X229000Y550000D01*
Y476556D02*
Y550000D01*
Y476556D02*
X252556Y453000D01*
X260000D01*
X222000Y570999D02*
X232000Y560998D01*
Y550000D02*
Y560998D01*
Y550000D02*
X235000Y547000D01*
X550750Y342750D02*
X558750Y350750D01*
X564000Y518000D02*
X565500D01*
X564750Y613750D02*
X568200Y617201D01*
X271748Y547998D02*
X280002D01*
X565500Y518000D02*
X566000Y517500D01*
X315000Y556000D02*
X347000Y524000D01*
Y440000D02*
Y524000D01*
X525501Y354499D02*
X528000Y352000D01*
X533250D01*
X533500Y352250D01*
X558750Y530750D02*
X561000Y533000D01*
X558750Y350750D02*
Y530750D01*
X441001Y717499D02*
Y734001D01*
X442000Y735000D01*
X445999Y717499D02*
Y727999D01*
X447000Y729000D01*
X448000Y730000D01*
X451001Y717499D02*
Y724001D01*
X457000Y730000D01*
X461001Y717499D02*
Y728001D01*
X462000Y729000D01*
X564200Y659200D02*
X567000Y662000D01*
X569000D01*
X555000Y663000D02*
X561000Y657000D01*
X554200Y663000D02*
X555000D01*
X554200D02*
Y684200D01*
Y612800D02*
X561000Y606000D01*
Y533000D02*
Y606000D01*
Y657000D01*
X564200Y543800D02*
X566000Y542000D01*
X564200Y543800D02*
Y659200D01*
X485000Y410000D02*
Y416500D01*
X484000Y409000D02*
X485000Y410000D01*
X484000Y402000D02*
Y407000D01*
Y409000D01*
X200000Y90000D02*
Y222000D01*
X352000Y67000D02*
Y349556D01*
X252000Y720000D02*
Y723000D01*
X558000Y733000D02*
Y767250D01*
Y785000D01*
X348000Y890217D02*
Y902000D01*
Y903000D01*
X222000Y544000D02*
X223000Y543000D01*
X224000Y542000D01*
X282999Y693001D02*
Y694000D01*
Y735785D01*
X228001Y750001D02*
X238500Y760500D01*
X239000Y761000D01*
X556000Y376000D02*
Y463000D01*
Y602000D01*
X409000Y412000D02*
X416450D01*
X418000D01*
X457000Y730000D02*
Y736000D01*
X362000Y615000D02*
Y616000D01*
Y627499D01*
Y641000D01*
X380000Y619000D02*
Y627499D01*
Y646000D01*
X355000Y602000D02*
X355500Y602500D01*
X357000Y604000D01*
X361500D01*
X369170D01*
X453000Y835000D02*
X456250Y838250D01*
X333002Y751002D02*
X338000Y756000D01*
X339000Y757000D01*
X242999Y747999D02*
X247500Y752500D01*
X248000Y753000D01*
X422000Y847000D02*
X438000D01*
X312000Y921000D02*
X312775Y920225D01*
X313002Y919998D01*
X399000Y910000D02*
X462000D01*
X538000Y452000D02*
X540500Y454500D01*
X541000Y455000D01*
X290001Y557999D02*
Y567002D01*
Y593000D01*
X290401D02*
Y595000D01*
X292000Y556000D02*
X300000D01*
X315000D01*
X425000Y415000D02*
X426775Y413225D01*
X427000Y413000D01*
X424750Y408750D02*
X426775Y410775D01*
X428000Y412000D01*
X485000Y383501D02*
X485399Y383901D01*
X486499Y385000D01*
X518000Y358000D02*
Y367000D01*
Y367500D01*
X554200Y612800D02*
Y623250D01*
X552000Y663000D02*
X552200D01*
X554200D01*
X235000Y547000D02*
X240248D01*
X241000D01*
X436499Y432001D02*
X437500D01*
X449000Y407000D02*
X450500D01*
X458000D01*
X449000Y408000D02*
Y420000D01*
X566000Y517500D02*
Y518000D01*
Y542000D01*
X568200Y617201D02*
Y623250D01*
X158000Y878000D02*
Y878250D01*
Y894000D01*
X146000Y895000D02*
X159000D01*
X169000D01*
X183000Y853000D02*
Y875000D01*
Y881000D01*
X81000Y708250D02*
X113000D01*
X117250D01*
X119500Y710500D01*
X119501Y710501D01*
X38750Y748500D02*
Y771000D01*
Y790250D01*
X38000Y791000D02*
X38275Y790725D01*
X38750Y790250D01*
X127000Y875000D02*
Y882000D01*
Y890000D01*
X166000Y801000D02*
X194000D01*
X198000Y354000D02*
X201000Y351000D01*
X204000Y481000D02*
X209500Y475500D01*
X329250Y355750D01*
X341000Y278000D02*
X341500Y278500D01*
X343250Y280250D01*
D49*
X191000Y533000D02*
X192000D01*
X194000Y531000D01*
X197750Y497750D02*
Y560250D01*
X194000Y513000D02*
Y531000D01*
X173000Y510000D02*
X191000D01*
X194000Y513000D01*
X178000Y412000D02*
X186000D01*
X127000Y688000D02*
Y720000D01*
X511000Y901000D02*
X516000D01*
X518000Y903000D01*
X15000Y574000D02*
X53000D01*
X156000Y822000D02*
X157000Y823000D01*
X158000D01*
X156000Y817550D02*
Y822000D01*
X500500Y870500D02*
X504000Y867000D01*
X492000Y870500D02*
X500500D01*
X497500Y905500D02*
X499000Y904000D01*
X530500Y875500D02*
X532500Y873500D01*
X492000Y905500D02*
X497500D01*
X113000Y690000D02*
Y691000D01*
Y690000D02*
X114000Y689000D01*
X113000Y691000D02*
Y695999D01*
X548000Y746750D02*
Y749000D01*
Y733000D02*
Y746750D01*
X520000Y903000D02*
Y908000D01*
X387000Y703000D02*
Y710999D01*
Y702000D02*
Y703000D01*
X139000Y882000D02*
X145000D01*
X148000Y871000D02*
Y879000D01*
Y871000D02*
X151000Y868000D01*
X164000D01*
X167500Y864500D01*
Y858000D02*
Y864500D01*
X52000Y764000D02*
Y768000D01*
X49000Y771000D02*
X52000Y768000D01*
X46001Y771000D02*
X49000D01*
X124000Y723000D02*
X127000Y720000D01*
X119501Y723000D02*
X124000D01*
X297000Y718000D02*
X302999D01*
X227783Y890217D02*
X228001D01*
X218000Y900000D02*
X227783Y890217D01*
X371000Y874000D02*
X374000Y877000D01*
X519000Y503000D02*
Y522000D01*
X544000Y729000D02*
X548000Y733000D01*
X487000Y736000D02*
X508000D01*
X491000Y729000D02*
X544000D01*
X468000Y754000D02*
Y764000D01*
X547000Y750000D02*
X548000Y749000D01*
X13000Y572000D02*
X15000Y574000D01*
X13000Y567000D02*
Y572000D01*
Y531000D02*
X15000Y529000D01*
X13000Y531000D02*
Y536000D01*
X57000Y537000D02*
X66000D01*
X15000Y529000D02*
X22000D01*
X25000Y532000D01*
Y534000D01*
X28000Y537000D01*
X45000D01*
X521000Y910000D02*
X533000D01*
X520000Y909000D02*
X521000Y910000D01*
X326000Y702000D02*
Y714000D01*
X338000Y726000D01*
Y735785D01*
X485000Y761000D02*
X489000Y765000D01*
X512000D02*
X513000D01*
X355999Y863000D02*
X365216D01*
X355000Y864000D02*
X355999Y863000D01*
X355000Y864000D02*
Y907000D01*
X60000Y460000D02*
X61059Y458941D01*
X159000Y459000D02*
X197750Y497750D01*
X150000Y459000D02*
X159000D01*
X61059Y458941D02*
X150000D01*
X96000Y617000D02*
Y661000D01*
X53000Y574000D02*
X96000Y617000D01*
X99000Y664000D02*
X103000D01*
X96000Y661000D02*
X99000Y664000D01*
X103000D02*
X127000Y688000D01*
X195000Y563000D02*
X197750Y560250D01*
X186000Y412000D02*
X192000Y418000D01*
X197750Y483750D02*
Y497750D01*
X192000Y418000D02*
Y478000D01*
X197750Y483750D01*
X471001Y717499D02*
Y734999D01*
X468000Y738000D02*
X471001Y734999D01*
X475999Y717499D02*
Y731999D01*
X485000Y741000D01*
X481001Y717499D02*
Y730001D01*
X487000Y736000D01*
X430000Y401999D02*
X437500D01*
X437501D01*
X508000Y736000D02*
X508725Y735275D01*
X509000Y735000D01*
X485000Y741000D02*
Y746000D01*
Y761000D01*
X489000Y765000D02*
X503000D01*
X512000D01*
X520001Y735999D02*
X526000D01*
X527501D01*
X525049Y816251D02*
X537000D01*
X546749D01*
X499000Y904000D02*
X505000D01*
X507000D01*
X518000Y903000D02*
X520000D01*
X492000Y875500D02*
X504000D01*
X510000D01*
X518000D01*
X530500D01*
X50000Y762000D02*
X50500Y762500D01*
X52000Y764000D01*
X113000Y695999D02*
X113726Y696724D01*
X114000Y696999D01*
X238001Y887217D02*
Y890217D01*
Y909000D01*
X238001Y699000D02*
Y735785D01*
X177450Y821550D02*
X188000D01*
X158000Y823001D02*
X171000D01*
X188000D02*
X210784D01*
X183000Y900000D02*
X218000D01*
X348000Y700000D02*
Y735785D01*
X468000Y738000D02*
Y754000D01*
X504000Y844000D02*
Y867000D01*
X374000Y877000D02*
Y903000D01*
X367000Y14000D02*
X370332D01*
X368666D01*
Y23997D01*
X367000Y22331D01*
D50*
X167550Y661500D02*
X176500D01*
X183000Y646000D02*
Y647000D01*
X350000Y853001D02*
X365216D01*
X355000Y848002D02*
X365216D01*
X67000Y723000D02*
X89000D01*
X58000Y732000D02*
X67000Y723000D01*
X89000Y723000D02*
X90499D01*
X501000Y367000D02*
Y375000D01*
X502000Y366000D02*
X506000D01*
X501000Y367000D02*
X502000Y366000D01*
X130000Y661000D02*
X130500Y661500D01*
X485999Y717499D02*
Y726999D01*
X488000Y729000D01*
X491000D01*
X130500Y661500D02*
X142450D01*
X167550D01*
X176500Y661500D02*
X182500Y667500D01*
X183000Y668000D01*
X347000Y850000D02*
X347500Y850500D01*
X350000Y853001D01*
X58000Y732000D02*
Y739000D01*
Y812002D01*
Y814000D01*
X71000Y645000D02*
Y656000D01*
X130000Y642000D02*
X142450D01*
X167550D01*
X178000D01*
X182500Y646500D01*
X183000Y647000D01*
X22001Y503001D02*
G03*
X2001Y523001I-20000J0D01*
G01*
X22001Y43000D02*
G03*
X75000Y-10000I53000J0D01*
G01*
X524999D02*
G03*
X577999Y43000I0J53000D01*
G01*
Y893000D02*
G03*
X524999Y946000I-53000J0D01*
G01*
X52000D02*
G03*
X22001Y916000I0J-30000D01*
G01*
X2001Y743001D02*
G03*
X22001Y763001I0J20000D01*
G01*
X51000Y606000D02*
G03*
X52039Y615891I0J5000D01*
G01*
X51997Y690100D02*
G03*
X51000Y700000I-997J4900D01*
G01*
X-5001Y605801D02*
X51000D01*
X-5001Y523001D02*
Y605801D01*
X52000Y615900D02*
Y690100D01*
X-5000Y700000D02*
X51000D01*
X-5001Y700001D02*
Y743001D01*
X577999Y43000D02*
Y893000D01*
X52000Y946000D02*
X524999D01*
X22001Y763001D02*
Y916000D01*
X-5000Y743001D02*
X2000D01*
X-5000Y523001D02*
X2001D01*
X22001Y43000D02*
Y503001D01*
X75000Y-10000D02*
X524999D01*
D51*
X437500Y381999D02*
X443001D01*
X260000Y580000D02*
Y589000D01*
Y577000D02*
Y580000D01*
Y577000D02*
X262450Y574550D01*
X267000D01*
X258000Y578000D02*
X260000Y580000D01*
X277000Y574000D02*
X278000Y573000D01*
X218000Y578000D02*
X258000D01*
X331000Y552000D02*
X338450D01*
X324000Y559000D02*
X331000Y552000D01*
X324000Y559000D02*
Y567000D01*
X326001Y563999D02*
X337000D01*
X381000Y586000D02*
Y602000D01*
X374000Y579000D02*
X381000Y586000D01*
X463000Y356000D02*
X464000D01*
X454000D02*
X463000D01*
X464000D02*
X470499Y349501D01*
X463000Y356000D02*
X465000Y358000D01*
Y375000D01*
X468000Y378000D01*
X472000D01*
X474000Y376000D01*
Y372001D02*
Y376000D01*
X87001Y738001D02*
X90499D01*
X331000Y100000D02*
Y227000D01*
X381000Y453000D02*
X440000D01*
X455999Y706001D02*
Y717499D01*
X267000Y574000D02*
X277000D01*
X341000Y572001D02*
Y579000D01*
X369000D01*
X374000D01*
X470499Y349501D02*
X473999D01*
D52*
X165000Y775000D02*
X171300Y768700D01*
X179000D01*
X60000Y501000D02*
X67000Y508000D01*
X85000D01*
X94000Y517000D01*
X68000Y677000D02*
X74000D01*
X142450Y652000D02*
X142501D01*
X67000Y629000D02*
X73000D01*
X74000Y677000D02*
X81000Y670000D01*
X73000Y629000D02*
X73500Y629500D01*
X81000Y637000D01*
Y652000D01*
Y670000D01*
X107000Y652000D02*
Y654000D01*
X130000Y677000D01*
X136000Y683000D01*
X107000Y652000D02*
X119000D01*
X142450D01*
X136000Y683000D02*
Y705000D01*
Y706000D01*
D53*
X542000Y874000D02*
X546000D01*
X547000D02*
X554000D01*
X510000Y817000D02*
X516000D01*
X511000Y821000D02*
X516539Y817308D01*
X543000Y911000D02*
X547000D01*
X549000D01*
X550000D02*
X555000D01*
X556000D01*
D54*
X102000Y584000D02*
X110000D01*
X94000Y576000D02*
X102000Y584000D01*
X94000Y517000D02*
Y535000D01*
Y551398D01*
Y576000D01*
D55*
X548000Y382501D02*
Y410000D01*
X479000Y466000D02*
Y487000D01*
Y466000D02*
X511000Y434000D01*
X516000D01*
X524000D01*
X533775Y424225D01*
X548000Y410000D01*
D56*
X242000Y695000D02*
D03*
D57*
X519500Y501500D02*
D03*
D58*
X479500Y526000D02*
D03*
D59*
X506000Y540000D02*
D03*
D60*
X513000Y486500D02*
D03*
D61*
X472000Y476000D02*
D03*
D62*
X547500Y380000D02*
D03*
D63*
X511500Y379500D02*
D03*
D64*
X89500Y759000D02*
D03*
D65*
X136500Y718500D02*
D03*
D66*
X129500Y735500D02*
D03*
D67*
X354500Y555500D02*
D03*
D68*
X122500Y768000D02*
D03*
D69*
X141500Y588000D02*
D03*
D70*
X96000Y759500D02*
D03*
D71*
X116500Y781500D02*
D03*
D72*
X188000Y770500D02*
D03*
D73*
X544000Y816000D02*
D03*
D74*
X508500Y839000D02*
D03*
D75*
X15999Y593800D02*
G03*
X18999Y596800I0J3000D01*
G01*
D02*
G03*
X15999Y599800I-3000J0D01*
G01*
X4001D02*
G03*
X1001Y596800I0J-3000D01*
G01*
D02*
G03*
X4001Y593800I3000J0D01*
G01*
X54000Y706200D02*
G03*
X57000Y709200I0J3000D01*
G01*
D02*
G03*
X54000Y712200I-3000J0D01*
G01*
X45999D02*
G03*
X43000Y709200I0J-3000D01*
G01*
D02*
G03*
X45999Y706200I3000J0D01*
G01*
X54000Y593800D02*
G03*
X57000Y596800I0J3000D01*
G01*
D02*
G03*
X54000Y599800I-3000J0D01*
G01*
X45999D02*
G03*
X43000Y596800I0J-3000D01*
G01*
D02*
G03*
X45999Y593800I3000J0D01*
G01*
X15999Y706200D02*
G03*
X18999Y709200I0J3000D01*
G01*
D02*
G03*
X15999Y712200I-3000J0D01*
G01*
X4001D02*
G03*
X1001Y709200I0J-3000D01*
G01*
D02*
G03*
X4001Y706200I3000J0D01*
G01*
Y599800D02*
X15999D01*
X4001Y593800D02*
X15999D01*
X45999Y712200D02*
X54000D01*
X45999Y706200D02*
X54000D01*
X45999Y599800D02*
X54000D01*
X45999Y593800D02*
X54000D01*
X4001Y712200D02*
X15999D01*
X4001Y706200D02*
X15999D01*
D76*
X172000Y425000D02*
D03*
X161840Y374200D02*
D03*
X182160D02*
D03*
D77*
X10000Y596800D02*
D03*
Y709200D02*
D03*
D78*
X50000D02*
D03*
Y596800D02*
D03*
D79*
X577000Y492000D02*
D03*
Y484000D02*
D03*
Y476000D02*
D03*
Y468000D02*
D03*
X22000D02*
D03*
Y476000D02*
D03*
Y484000D02*
D03*
Y492000D02*
D03*
D80*
X174970Y128600D02*
D03*
X389970D02*
D03*
D81*
X112000Y681000D02*
D03*
Y633000D02*
D03*
X300000Y556000D02*
D03*
X72000Y656000D02*
D03*
X71000Y645000D02*
D03*
X183000Y646000D02*
D03*
Y667000D02*
D03*
X347000Y851000D02*
D03*
X355000Y848000D02*
D03*
X362000Y616000D02*
D03*
X104000Y878000D02*
D03*
X96000Y874000D02*
D03*
X222000Y833000D02*
D03*
X223000Y840000D02*
D03*
X147000Y801000D02*
D03*
X349000Y544000D02*
D03*
X356000Y550000D02*
D03*
X91000Y868000D02*
D03*
X76000Y862000D02*
D03*
X86000Y873000D02*
D03*
X79000Y870000D02*
D03*
X422000Y848000D02*
D03*
X479000Y898000D02*
D03*
X380000Y619000D02*
D03*
X356000Y602000D02*
D03*
X348000Y902000D02*
D03*
X462000Y911000D02*
D03*
X484000Y906000D02*
D03*
X539000Y861000D02*
D03*
X227999Y805998D02*
D03*
X281000Y903000D02*
D03*
X330000D02*
D03*
X276999Y698999D02*
D03*
X271000Y703000D02*
D03*
X266000Y708000D02*
D03*
X261000Y713000D02*
D03*
X282000Y694000D02*
D03*
X253000Y720000D02*
D03*
X218000Y727000D02*
D03*
Y738000D02*
D03*
X224000Y800000D02*
D03*
X223000Y793000D02*
D03*
Y772000D02*
D03*
X454000Y504000D02*
D03*
X530000Y721000D02*
D03*
X258000Y725000D02*
D03*
X334000Y874000D02*
D03*
X295000Y870000D02*
D03*
X474000Y887000D02*
D03*
X259000Y752000D02*
D03*
X247000Y753000D02*
D03*
X228000Y763000D02*
D03*
X239000Y760000D02*
D03*
X262000Y611000D02*
D03*
X271000Y616000D02*
D03*
X281000Y610000D02*
D03*
X337000Y757000D02*
D03*
X378000Y753000D02*
D03*
X282000Y866000D02*
D03*
X429000Y852000D02*
D03*
X268000Y878000D02*
D03*
X278000Y879000D02*
D03*
X458000Y736000D02*
D03*
X463000Y730000D02*
D03*
X447000Y729000D02*
D03*
X443000Y735000D02*
D03*
X464000Y865000D02*
D03*
X473000Y866000D02*
D03*
X452000Y836000D02*
D03*
X483000Y849000D02*
D03*
X130000Y661000D02*
D03*
Y642000D02*
D03*
X538000Y896000D02*
D03*
X376000Y833000D02*
D03*
X411000Y873000D02*
D03*
X451000Y864000D02*
D03*
X445000Y870000D02*
D03*
X412000Y852000D02*
D03*
X326000Y801000D02*
D03*
X203000Y577000D02*
D03*
X224000Y544000D02*
D03*
X213000Y555000D02*
D03*
X217000Y549000D02*
D03*
X342000Y193000D02*
D03*
X210000Y565000D02*
D03*
X208000Y571999D02*
D03*
X222000Y570999D02*
D03*
X219000Y560000D02*
D03*
X564000Y518000D02*
D03*
X281000Y547000D02*
D03*
X561000Y533000D02*
D03*
D82*
X138000Y324000D02*
D03*
X519000Y200000D02*
D03*
X507000Y31000D02*
D03*
X313000Y41000D02*
D03*
X312000Y171000D02*
D03*
X321000Y197000D02*
D03*
X319000Y345000D02*
D03*
X285000D02*
D03*
X208000Y474000D02*
D03*
X340000Y280000D02*
D03*
X191000Y542000D02*
D03*
Y533000D02*
D03*
X183000Y558000D02*
D03*
X173000Y510000D02*
D03*
X144000Y587000D02*
D03*
X136000Y597000D02*
D03*
X146000D02*
D03*
X120000Y710000D02*
D03*
X89000Y420000D02*
D03*
X62000Y430000D02*
D03*
X81000Y407000D02*
D03*
X178000Y412000D02*
D03*
X407000Y937000D02*
D03*
X165000Y775000D02*
D03*
X511000Y901000D02*
D03*
X387000Y907000D02*
D03*
X30000Y435000D02*
D03*
X523000Y617000D02*
D03*
X60000Y280000D02*
D03*
X560000Y690000D02*
D03*
X195000Y563000D02*
D03*
X320000Y749000D02*
D03*
X332000Y767000D02*
D03*
X240000Y800000D02*
D03*
X223000Y812000D02*
D03*
X126000Y903000D02*
D03*
X120000Y885000D02*
D03*
X103000Y859000D02*
D03*
X101000Y807000D02*
D03*
X60000Y300000D02*
D03*
Y320000D02*
D03*
Y500000D02*
D03*
X119000Y412000D02*
D03*
X76000Y466000D02*
D03*
X60000Y480000D02*
D03*
Y340000D02*
D03*
X182000Y822000D02*
D03*
X30000Y370000D02*
D03*
X510000Y875000D02*
D03*
X504000Y895000D02*
D03*
X404000Y620000D02*
D03*
X278000Y573000D02*
D03*
X340000Y579000D02*
D03*
X371000Y616000D02*
D03*
X292000Y533000D02*
D03*
X355000Y907000D02*
D03*
X70000Y495000D02*
D03*
X74000Y448000D02*
D03*
X60000Y460000D02*
D03*
Y360000D02*
D03*
Y380000D02*
D03*
Y400000D02*
D03*
Y420000D02*
D03*
Y440000D02*
D03*
X428000Y901000D02*
D03*
X470000Y902000D02*
D03*
X104000Y755000D02*
D03*
X100000Y763000D02*
D03*
X113000Y691000D02*
D03*
X74000Y677000D02*
D03*
X374000Y893000D02*
D03*
X410000Y900000D02*
D03*
X183000D02*
D03*
X387000Y703000D02*
D03*
X256000Y828000D02*
D03*
X193000Y858000D02*
D03*
X171000Y930000D02*
D03*
X146000Y880000D02*
D03*
X351000Y63000D02*
D03*
X381000Y453000D02*
D03*
X428000Y426000D02*
D03*
X200000Y90000D02*
D03*
Y222000D02*
D03*
Y350000D02*
D03*
X236000Y676000D02*
D03*
X245000Y722000D02*
D03*
X244000Y688000D02*
D03*
X100000Y720000D02*
D03*
X152000Y845000D02*
D03*
X98000Y821000D02*
D03*
X79000Y745000D02*
D03*
X129000Y678000D02*
D03*
X70000Y785000D02*
D03*
X139000Y809000D02*
D03*
X106000Y795000D02*
D03*
X191000Y714000D02*
D03*
X155000Y693000D02*
D03*
X183000Y658000D02*
D03*
X155000Y652000D02*
D03*
Y668000D02*
D03*
X184000Y636000D02*
D03*
X155000Y580000D02*
D03*
X154000Y621000D02*
D03*
X186000Y590000D02*
D03*
X250000Y620000D02*
D03*
X295000Y626000D02*
D03*
X241000Y591000D02*
D03*
X316000Y594000D02*
D03*
X326000Y635000D02*
D03*
X359000Y588000D02*
D03*
X300000Y580000D02*
D03*
X200000Y674000D02*
D03*
X257000Y688000D02*
D03*
X233000Y877000D02*
D03*
X296000Y718000D02*
D03*
X348000Y710000D02*
D03*
X342000Y749000D02*
D03*
X224000Y903000D02*
D03*
X211000Y890000D02*
D03*
X460000Y490000D02*
D03*
X197000Y793000D02*
D03*
X175000Y789000D02*
D03*
X193000Y752000D02*
D03*
X199000Y781000D02*
D03*
X178000Y808000D02*
D03*
X196000Y816000D02*
D03*
X197000Y830000D02*
D03*
X185000Y839000D02*
D03*
X177000Y851000D02*
D03*
X511000Y513000D02*
D03*
X537000D02*
D03*
X505000Y550000D02*
D03*
X511000Y546000D02*
D03*
Y555000D02*
D03*
X550000Y550000D02*
D03*
X490000Y564000D02*
D03*
X510000D02*
D03*
X528000Y565000D02*
D03*
X468000Y545000D02*
D03*
X469000Y527000D02*
D03*
X468000Y506000D02*
D03*
X491000Y502000D02*
D03*
X522000Y472000D02*
D03*
X501000Y415000D02*
D03*
X548000Y365000D02*
D03*
X500000Y379000D02*
D03*
X533000Y408000D02*
D03*
X504000Y390000D02*
D03*
X496000Y362000D02*
D03*
X453000Y356000D02*
D03*
X469000Y398000D02*
D03*
X451000D02*
D03*
X409000Y412000D02*
D03*
X430000Y402000D02*
D03*
X51000Y762000D02*
D03*
Y779000D02*
D03*
X33000Y780000D02*
D03*
X122000Y631000D02*
D03*
X105000Y703000D02*
D03*
X148000Y745000D02*
D03*
X74000Y629000D02*
D03*
X66000D02*
D03*
Y677000D02*
D03*
X526000Y736000D02*
D03*
X434000Y748000D02*
D03*
X383000Y766000D02*
D03*
X516000Y776000D02*
D03*
X515000Y754000D02*
D03*
X502000Y745000D02*
D03*
X500000Y717000D02*
D03*
X492000Y706000D02*
D03*
X430000Y718000D02*
D03*
X457000Y754000D02*
D03*
X468000D02*
D03*
X540000Y935000D02*
D03*
X510000Y937000D02*
D03*
X547000Y912000D02*
D03*
X200000Y693000D02*
D03*
X221000Y699000D02*
D03*
X367000Y655000D02*
D03*
X345000Y625000D02*
D03*
X337000Y671000D02*
D03*
X314000Y680000D02*
D03*
X360000D02*
D03*
X341000Y720000D02*
D03*
X360000Y708000D02*
D03*
Y725000D02*
D03*
X237000Y748000D02*
D03*
X232000Y723000D02*
D03*
X110000Y746000D02*
D03*
X100000D02*
D03*
X105000Y733000D02*
D03*
X110000Y720000D02*
D03*
X95000Y756000D02*
D03*
X113000Y776000D02*
D03*
Y787000D02*
D03*
X107000Y781000D02*
D03*
X67000Y827000D02*
D03*
X152000Y778000D02*
D03*
X66000Y537000D02*
D03*
X548000Y819000D02*
D03*
X567000Y900000D02*
D03*
X559000Y844000D02*
D03*
X508000Y851000D02*
D03*
Y842000D02*
D03*
Y859000D02*
D03*
X522000Y865000D02*
D03*
X530000Y889000D02*
D03*
X511000Y917000D02*
D03*
X482000Y916000D02*
D03*
X546000Y874000D02*
D03*
X508000Y379000D02*
D03*
X534000D02*
D03*
Y361000D02*
D03*
Y370000D02*
D03*
X396000Y752000D02*
D03*
X434000Y774000D02*
D03*
X267000Y748000D02*
D03*
X274000Y760000D02*
D03*
X317000Y810000D02*
D03*
X296000Y788000D02*
D03*
X231000Y771000D02*
D03*
X249000Y774000D02*
D03*
X283000Y806000D02*
D03*
X317000Y833000D02*
D03*
X339000D02*
D03*
X320000Y852000D02*
D03*
X294000D02*
D03*
X259000Y851000D02*
D03*
X246000Y877000D02*
D03*
X267000Y904000D02*
D03*
X313000Y874000D02*
D03*
X394000Y887000D02*
D03*
X414000Y888000D02*
D03*
X454000Y880000D02*
D03*
X435000Y938000D02*
D03*
X403000Y917000D02*
D03*
X434000Y916000D02*
D03*
X530000Y917000D02*
D03*
X360000Y937000D02*
D03*
X305000D02*
D03*
X260000D02*
D03*
X210000D02*
D03*
X145000Y938000D02*
D03*
X94000Y939000D02*
D03*
X60000Y937000D02*
D03*
X33000Y910000D02*
D03*
Y860000D02*
D03*
Y810000D02*
D03*
X24000Y744000D02*
D03*
X4000Y730000D02*
D03*
X136000Y866000D02*
D03*
X70000Y846000D02*
D03*
X137000Y826000D02*
D03*
X112000Y607000D02*
D03*
X111000Y566000D02*
D03*
X154000D02*
D03*
X130000D02*
D03*
X166000Y520000D02*
D03*
X145000D02*
D03*
X114000D02*
D03*
X40000Y470000D02*
D03*
X24000Y552000D02*
D03*
X70000Y580000D02*
D03*
X69000Y551000D02*
D03*
Y522000D02*
D03*
X26000D02*
D03*
X30000Y405000D02*
D03*
Y330000D02*
D03*
Y290000D02*
D03*
Y240000D02*
D03*
Y190000D02*
D03*
Y140000D02*
D03*
Y90000D02*
D03*
X32000Y40000D02*
D03*
X54000Y4000D02*
D03*
X90000Y0D02*
D03*
X140000Y3000D02*
D03*
X240000Y0D02*
D03*
X190000D02*
D03*
X290000D02*
D03*
X490000D02*
D03*
X390000D02*
D03*
X440000Y4000D02*
D03*
X340000Y0D02*
D03*
X570000Y100000D02*
D03*
X560000Y20000D02*
D03*
X570000Y50000D02*
D03*
X540000Y0D02*
D03*
X570000Y300000D02*
D03*
Y200000D02*
D03*
Y250000D02*
D03*
Y150000D02*
D03*
Y505000D02*
D03*
Y400000D02*
D03*
Y450000D02*
D03*
X522000Y452000D02*
D03*
X570000Y680000D02*
D03*
Y600000D02*
D03*
Y550000D02*
D03*
Y880000D02*
D03*
Y780000D02*
D03*
Y830000D02*
D03*
Y730000D02*
D03*
X530000Y680000D02*
D03*
X470000Y670000D02*
D03*
X414000Y644000D02*
D03*
X386000Y693000D02*
D03*
X387000Y655000D02*
D03*
X460000Y630000D02*
D03*
X527000Y632000D02*
D03*
X371000Y640000D02*
D03*
X365000Y532000D02*
D03*
X323000Y537000D02*
D03*
X277000Y530000D02*
D03*
X241000Y531000D02*
D03*
X201000Y590000D02*
D03*
X241000Y500000D02*
D03*
X260000Y470000D02*
D03*
X290000Y500000D02*
D03*
X340000D02*
D03*
X357000D02*
D03*
X393000Y462000D02*
D03*
X446000Y485000D02*
D03*
X435000Y465000D02*
D03*
X418000Y485000D02*
D03*
X407000Y500000D02*
D03*
X445000D02*
D03*
X410000Y560000D02*
D03*
X356000Y440000D02*
D03*
X436000Y444000D02*
D03*
X394000Y423000D02*
D03*
X341000Y445000D02*
D03*
X310000Y410000D02*
D03*
X411000Y392000D02*
D03*
X426000Y360000D02*
D03*
X439000Y330000D02*
D03*
X359000Y328000D02*
D03*
X360000Y279000D02*
D03*
X439000Y314000D02*
D03*
X436000Y257000D02*
D03*
X465000Y278000D02*
D03*
X508000Y283000D02*
D03*
X517000Y348000D02*
D03*
X550000Y424000D02*
D03*
X549000Y486000D02*
D03*
X502000Y503000D02*
D03*
X270000Y400000D02*
D03*
X212000Y432000D02*
D03*
X240000Y415000D02*
D03*
X210000Y334000D02*
D03*
X147000Y342000D02*
D03*
X265000Y340000D02*
D03*
X260000Y310000D02*
D03*
X210000D02*
D03*
X190000D02*
D03*
X184000Y442000D02*
D03*
X118000Y503000D02*
D03*
X80000Y320000D02*
D03*
Y270000D02*
D03*
Y210000D02*
D03*
X120000Y240000D02*
D03*
X190000Y230000D02*
D03*
X165000Y205000D02*
D03*
X190000Y180000D02*
D03*
X80000Y160000D02*
D03*
Y111000D02*
D03*
Y50000D02*
D03*
X189000Y100000D02*
D03*
X140000Y140000D02*
D03*
X158000Y82000D02*
D03*
X260000Y75000D02*
D03*
X210000Y50000D02*
D03*
X319000Y99000D02*
D03*
X317000Y155000D02*
D03*
X240000Y130000D02*
D03*
X260000Y180000D02*
D03*
Y210000D02*
D03*
X240000Y260000D02*
D03*
X302000Y274000D02*
D03*
X218000Y578000D02*
D03*
X260000Y453000D02*
D03*
X400000Y295000D02*
D03*
X365000Y258000D02*
D03*
X341000Y260000D02*
D03*
X363000Y199000D02*
D03*
X339000Y180000D02*
D03*
X362000Y181000D02*
D03*
X436000Y200000D02*
D03*
Y183000D02*
D03*
X498000Y229000D02*
D03*
X517000Y267000D02*
D03*
X516000Y218000D02*
D03*
X515000Y160000D02*
D03*
X512000Y128000D02*
D03*
X521000Y84000D02*
D03*
X535000Y225000D02*
D03*
Y275000D02*
D03*
X534000Y334000D02*
D03*
X570000Y350000D02*
D03*
X535000Y180000D02*
D03*
X436000Y72000D02*
D03*
X415000Y50000D02*
D03*
X340000D02*
D03*
X337000Y81000D02*
D03*
X372000Y74000D02*
D03*
X403000Y105000D02*
D03*
X439000Y140000D02*
D03*
X340000Y380000D02*
D03*
X512000Y765000D02*
D03*
X106000Y374000D02*
D03*
X75000Y394000D02*
D03*
X541000Y454000D02*
D03*
X100000Y488000D02*
D03*
X359000Y345000D02*
D03*
X158000Y469000D02*
D03*
X331000Y100000D02*
D03*
Y227000D02*
D03*
X198000Y475000D02*
D03*
X338000Y351000D02*
D03*
X343000Y270000D02*
D03*
X243000Y559000D02*
D03*
X550000Y527000D02*
D03*
X385000Y520000D02*
D03*
X440000Y453000D02*
D03*
X384000Y373000D02*
D03*
X398000Y232000D02*
D03*
X497000Y100000D02*
D03*
X284000Y579000D02*
D03*
X208000Y378000D02*
D03*
X192000Y409000D02*
D03*
X311000Y365000D02*
D03*
X534000Y353000D02*
D03*
X141000Y101000D02*
D03*
X318000Y230000D02*
D03*
X339000Y216000D02*
D03*
X333000Y284000D02*
D03*
X519000Y335000D02*
D03*
X143000Y357000D02*
D03*
X145000Y483000D02*
D03*
X467000Y416000D02*
D03*
X456000Y706000D02*
D03*
M02*
