M48
;Layer_Color=9474304
;FILE_FORMAT=4:4
METRIC,LZ
;TYPE=PLATED
T1F00S00C0.2000
T2F00S00C0.3000
T4F00S00C1.0000
%
T01
X00342Y00193
X00224Y00544
X00217Y00549
X00213Y00555
X00219Y0056
X00222Y00570999
X00208Y00571999
X0021Y00565
X00203Y00577
X00183Y00646
X0013Y00642
Y00661
X00112Y00633
X00074Y00629
X00066
X00071Y00645
X00072Y00656
X00262Y00611
X00271Y00616
X00281Y0061
Y00547
X003Y00556
X00349Y00544
X00356Y0055
Y00602
X00362Y00616
X0038Y00619
X00454Y00504
X00564Y00518
X00561Y00533
X0053Y00721
X00463Y0073
X00458Y00736
X00443Y00735
X00447Y00729
X00378Y00753
X00337Y00757
X00326Y00801
X00347Y00851
X00355Y00848
X00376Y00833
X00412Y00852
X00422Y00848
X00429Y00852
X00451Y00864
X00445Y0087
X00464Y00865
X00473Y00866
X00474Y00887
X00479Y00898
X00484Y00906
X00462Y00911
X00483Y00849
X00452Y00836
X00411Y00873
X00334Y00874
X0033Y00903
X00348Y00902
X00281Y00903
X00278Y00879
X00268Y00878
X00282Y00866
X00295Y0087
X00259Y00752
X00247Y00753
X00239Y0076
X00253Y0072
X00258Y00725
X00261Y00713
X00266Y00708
X00271Y00703
X00276999Y00698999
X00282Y00694
X00539Y00861
X00538Y00896
X00223Y0084
X00222Y00833
X00227999Y00805998
X00224Y008
X00223Y00793
Y00772
X00228Y00763
X00218Y00738
Y00727
X00183Y00667
X00112Y00681
X00074Y00677
X00066
X00076Y00862
X00079Y0087
X00086Y00873
X00091Y00868
X00096Y00874
X00104Y00878
X00147Y00801
T02
X0024Y0
X0029
X0034
X0039
X0044Y00004
X0049Y0
X00507Y00031
X0056Y0002
X0057Y0005
Y001
Y0015
Y002
Y0025
X00535Y00225
X00516Y00218
X00519Y002
X00535Y0018
X00515Y0016
X00512Y00128
X00497Y001
X00521Y00084
X00436Y00072
X00415Y0005
X00403Y00105
X00372Y00074
X00351Y00063
X0034Y0005
X00337Y00081
X00331Y001
X00319Y00099
X00317Y00155
X00312Y00171
X00321Y00197
X00339Y0018
X00362Y00181
X00363Y00199
X00339Y00216
X00331Y00227
X00318Y0023
X00341Y0026
X00365Y00258
X00398Y00232
X00436Y00257
Y002
Y00183
X00439Y0014
X00498Y00229
X00517Y00267
X0024Y0026
X0026Y0021
Y0018
X0024Y0013
X0026Y00075
X00313Y00041
X0054Y0
X0019
X0014Y00003
X0009Y0
X00054Y00004
X00032Y0004
X0003Y0009
Y0014
Y0019
Y0024
X0008Y0021
Y0016
Y00111
Y0005
X00158Y00082
X00141Y00101
X0014Y0014
X00189Y001
X002Y0009
X0021Y0005
X0019Y0018
Y0023
X002Y00222
X00165Y00205
X0012Y0024
X0008Y0027
X0006Y0028
Y003
Y0032
Y0034
Y0036
Y0038
Y004
Y0042
X00062Y0043
X0006Y0044
Y0046
Y0048
Y005
X0007Y00495
X00069Y00522
X00066Y00537
X00069Y00551
X0007Y0058
X00111Y00566
X0013
X00154
X00155Y0058
X00144Y00587
X00146Y00597
X00136
X00112Y00607
X00122Y00631
X00154Y00621
X00155Y00652
X00183Y00658
X00184Y00636
X00186Y0059
X00201
X00218Y00578
X00195Y00563
X00183Y00558
X00191Y00542
Y00533
X00166Y0052
X00173Y0051
X00145Y0052
X00114
X00118Y00503
X001Y00488
X00076Y00466
X00074Y00448
X00089Y0042
X00081Y00407
X00075Y00394
X00106Y00374
X00119Y00412
X00178
X00192Y00409
X00184Y00442
X00212Y00432
X00208Y00474
X00198Y00475
X00158Y00469
X00145Y00483
X0004Y0047
X0003Y00435
Y00405
Y0037
Y0033
Y0029
X0008Y0032
X00138Y00324
X00147Y00342
X00143Y00357
X002Y0035
X0021Y00334
Y0031
X0019
X00208Y00378
X00026Y00522
X00024Y00552
X00243Y00559
X00241Y00531
Y005
X0026Y0047
Y00453
X0024Y00415
X0027Y004
X0031Y0041
X00311Y00365
X00319Y00345
X00338Y00351
X00359Y00345
Y00328
X0036Y00279
X0034Y0028
X00333Y00284
X00343Y0027
X00302Y00274
X0026Y0031
X00265Y0034
X00285Y00345
X0034Y0038
X00384Y00373
X00411Y00392
X00409Y00412
X00394Y00423
X00428Y00426
X00436Y00444
X0044Y00453
X00435Y00465
X00446Y00485
X00445Y005
X0046Y0049
X00468Y00506
X00469Y00527
X00468Y00545
X0049Y00564
X0051
X00511Y00555
Y00546
X00505Y0055
X00528Y00565
X0055Y0055
X0057
X0055Y00527
X00537Y00513
X00511
X00502Y00503
X00491Y00502
X00522Y00472
Y00452
X00541Y00454
X0057Y0045
X0055Y00424
X00533Y00408
X00534Y00379
Y0037
Y00361
Y00353
Y00334
X00519Y00335
X00517Y00348
X00496Y00362
X005Y00379
X00508Y00379
X00504Y0039
X00501Y00415
X00467Y00416
X00469Y00398
X00451
X0043Y00402
X00426Y0036
X00453Y00356
X00439Y0033
Y00314
X004Y00295
X00465Y00278
X00508Y00283
X00535Y00275
X0057Y003
Y0035
X00548Y00365
X0057Y004
Y00505
X00549Y00486
X00418Y00485
X00407Y005
X00385Y0052
X00365Y00532
X00357Y005
X0034
X0029
X00292Y00533
X00277Y0053
X00278Y00573
X00284Y00579
X003Y0058
X00316Y00594
X0034Y00579
X00359Y00588
X00371Y00616
Y0064
X00367Y00655
X00387
X00414Y00644
X00404Y0062
X00345Y00625
X00326Y00635
X00295Y00626
X0025Y0062
X00241Y00591
X00323Y00537
X0041Y0056
X00393Y00462
X00381Y00453
X00356Y0044
X00341Y00445
X0046Y0063
X00527Y00632
X00523Y00617
X0057Y006
Y0068
X0056Y0069
X0053Y0068
X00526Y00736
X00515Y00754
X00512Y00765
X00516Y00776
X00502Y00745
X005Y00717
X00492Y00706
X00456
X0043Y00718
X00434Y00748
Y00774
X00457Y00754
X00468
X00396Y00752
X00383Y00766
X00332Y00767
X00342Y00749
X0032
X00341Y0072
X00348Y0071
X0036Y00708
Y00725
Y0068
X00337Y00671
X00314Y0068
X00296Y00718
X00245Y00722
X00232Y00723
X00237Y00748
X00231Y00771
X00249Y00774
X0024Y008
X00256Y00828
X00259Y00851
X00294Y00852
X0032
X00317Y00833
X00339
X00317Y0081
X00283Y00806
X00296Y00788
X00274Y0076
X00267Y00748
X00257Y00688
X00244
X00236Y00676
X00386Y00693
X00387Y00703
X0047Y0067
X0057Y0073
Y0078
Y0083
X00559Y00844
X00548Y00819
X00546Y00874
X0057Y0088
X00567Y009
X00547Y00912
X0053Y00917
X00511
Y00901
X00504Y00895
X0051Y00875
X00508Y00859
Y00851
Y00842
X00522Y00865
X0053Y00889
X0054Y00935
X0051Y00937
X00482Y00916
X0047Y00902
X00454Y0088
X00428Y00901
X0041Y009
X00414Y00888
X00394Y00887
X00374Y00893
X00387Y00907
X00403Y00917
X00407Y00937
X00435Y00938
X00434Y00916
X00355Y00907
X0036Y00937
X00305
X0026
X00267Y00904
X00246Y00877
X00233
X00313Y00874
X00224Y00903
X00211Y0089
X00183Y009
X00171Y0093
X00145Y00938
X00094Y00939
X0006Y00937
X00033Y0091
Y0086
Y0081
Y0078
X00051Y00779
Y00762
X0007Y00785
X00107Y00781
X00113Y00776
Y00787
X00106Y00795
X00101Y00807
X00098Y00821
X00067Y00827
X0007Y00846
X00103Y00859
X00136Y00866
X00146Y0088
X0012Y00885
X00126Y00903
X00152Y00845
X00177Y00851
X00185Y00839
X00182Y00822
X00178Y00808
X00175Y00789
X00165Y00775
X00152Y00778
X00148Y00745
X0011Y00746
X001
X00104Y00755
X00095Y00756
X001Y00763
X00105Y00733
X001Y0072
X0011
X0012Y0071
X00105Y00703
X00113Y00691
X00129Y00678
X00155Y00668
Y00693
X002
Y00674
X00221Y00699
X00191Y00714
X00193Y00752
X00199Y00781
X00197Y00793
X00196Y00816
X00197Y0083
X00193Y00858
X00223Y00812
X00139Y00809
X00137Y00826
X00079Y00745
X00024Y00744
X00004Y0073
X0021Y00937
T04
X0038997Y001286
X0017497
M30
