G04 Layer_Color=8388736*
%FSLAX44Y44*%
%MOMM*%
G71*
G01*
G75*
%ADD10P,0.7353X4X90.0*%
%ADD11R,0.1001X0.1001*%
%ADD50C,0.2000*%
%ADD75C,0.0000*%
%ADD79C,0.5000*%
%ADD138R,0.2500X1.4900*%
%ADD139R,0.2500X1.5000*%
%ADD140R,1.6800X12.4800*%
%ADD141R,12.4800X1.6800*%
%ADD142R,6.0000X1.5000*%
%ADD143R,1.0000X12.0000*%
%ADD144C,1.8000*%
%ADD145R,0.5501X0.7500*%
%ADD146R,0.6501X0.7500*%
%ADD147R,1.6232X0.4294*%
%ADD148R,0.4294X1.6232*%
%ADD149R,0.7500X0.5100*%
%ADD150R,0.5100X0.7500*%
%ADD151R,1.1500X1.6501*%
%ADD152R,2.6001X1.3499*%
%ADD153R,1.9001X2.2300*%
%ADD154R,0.7300X1.4400*%
%ADD155R,1.4400X0.7300*%
%ADD156R,0.8500X0.3999*%
%ADD157R,1.8500X3.4500*%
G04:AMPARAMS|DCode=158|XSize=1.9501mm|YSize=1.1899mm|CornerRadius=0.0854mm|HoleSize=0mm|Usage=FLASHONLY|Rotation=270.000|XOffset=0mm|YOffset=0mm|HoleType=Round|Shape=RoundedRectangle|*
%AMROUNDEDRECTD158*
21,1,1.9501,1.0191,0,0,270.0*
21,1,1.7793,1.1899,0,0,270.0*
1,1,0.1708,-0.5095,-0.8897*
1,1,0.1708,-0.5095,0.8897*
1,1,0.1708,0.5095,0.8897*
1,1,0.1708,0.5095,-0.8897*
%
%ADD158ROUNDEDRECTD158*%
%ADD159R,0.3301X0.3801*%
%ADD160R,0.7500X0.7400*%
%ADD161R,0.7400X0.7500*%
%ADD162R,1.0800X1.0400*%
%ADD163R,1.0400X1.0800*%
%ADD164R,1.5700X1.2300*%
%ADD165R,1.2300X1.5700*%
%ADD166R,0.4500X1.4500*%
%ADD167R,1.9501X2.3499*%
%ADD168R,1.0500X1.1000*%
%ADD169R,0.7500X1.5501*%
%ADD170R,0.9501X0.8500*%
%ADD171R,0.7300X1.3500*%
%ADD172R,1.3500X0.7300*%
%ADD173R,1.0000X2.3500*%
%ADD174R,0.7500X1.9500*%
%ADD175R,2.7500X3.1500*%
%ADD176R,0.9500X0.5500*%
%ADD177R,0.9500X0.4500*%
%ADD178R,0.7500X1.3000*%
%ADD179R,0.9500X0.7500*%
%ADD180C,1.0500*%
%ADD181C,0.1500*%
%ADD182O,2.3500X1.1500*%
%ADD183O,1.9500X1.1500*%
%ADD184C,2.5500*%
G36*
X544167Y912342D02*
X544282Y912314D01*
X544316Y912300D01*
X544800D01*
Y911615D01*
X544801Y911599D01*
Y908901D01*
X544800Y908884D01*
Y905116D01*
X544801Y905099D01*
Y902401D01*
X544800Y902385D01*
Y901700D01*
X544316D01*
X544282Y901686D01*
X544167Y901658D01*
X544049Y901649D01*
X540051D01*
X539933Y901658D01*
X539819Y901686D01*
X539784Y901700D01*
X536216D01*
X536181Y901686D01*
X536067Y901658D01*
X535949Y901649D01*
X531951D01*
X531833Y901658D01*
X531718Y901686D01*
X531684Y901700D01*
X531200D01*
Y902385D01*
X531199Y902401D01*
Y905099D01*
X531200Y905116D01*
Y908884D01*
X531199Y908901D01*
Y911599D01*
X531200Y911615D01*
Y912300D01*
X531684D01*
X531718Y912314D01*
X531833Y912342D01*
X531951Y912351D01*
X535949D01*
X536067Y912342D01*
X536181Y912314D01*
X536216Y912300D01*
X539784D01*
X539819Y912314D01*
X539933Y912342D01*
X540051Y912351D01*
X544049D01*
X544167Y912342D01*
D02*
G37*
G36*
X543167Y875342D02*
X543282Y875314D01*
X543316Y875300D01*
X543800D01*
Y874615D01*
X543801Y874599D01*
Y871901D01*
X543800Y871884D01*
Y868116D01*
X543801Y868099D01*
Y865401D01*
X543800Y865385D01*
Y864700D01*
X543316D01*
X543282Y864686D01*
X543167Y864658D01*
X543049Y864649D01*
X539051D01*
X538933Y864658D01*
X538819Y864686D01*
X538784Y864700D01*
X535216D01*
X535181Y864686D01*
X535067Y864658D01*
X534949Y864649D01*
X530951D01*
X530833Y864658D01*
X530718Y864686D01*
X530684Y864700D01*
X530200D01*
Y865385D01*
X530199Y865401D01*
Y868099D01*
X530200Y868116D01*
Y871884D01*
X530199Y871901D01*
Y874599D01*
X530200Y874615D01*
Y875300D01*
X530684D01*
X530718Y875314D01*
X530833Y875342D01*
X530951Y875351D01*
X534949D01*
X535067Y875342D01*
X535181Y875314D01*
X535216Y875300D01*
X538784D01*
X538819Y875314D01*
X538933Y875342D01*
X539051Y875351D01*
X543049D01*
X543167Y875342D01*
D02*
G37*
G36*
X527167Y818342D02*
X527281Y818314D01*
X527316Y818300D01*
X527800D01*
Y817615D01*
X527801Y817599D01*
Y814901D01*
X527800Y814884D01*
Y811116D01*
X527801Y811099D01*
Y808401D01*
X527800Y808385D01*
Y807700D01*
X527316D01*
X527281Y807686D01*
X527167Y807658D01*
X527049Y807649D01*
X523051D01*
X522933Y807658D01*
X522819Y807686D01*
X522784Y807700D01*
X519216D01*
X519181Y807686D01*
X519067Y807658D01*
X518949Y807649D01*
X514951D01*
X514833Y807658D01*
X514719Y807686D01*
X514684Y807700D01*
X514200D01*
Y808385D01*
X514199Y808401D01*
Y811099D01*
X514200Y811116D01*
Y814884D01*
X514199Y814901D01*
Y817599D01*
X514200Y817615D01*
Y818300D01*
X514684D01*
X514719Y818314D01*
X514833Y818342D01*
X514951Y818351D01*
X518949D01*
X519067Y818342D01*
X519181Y818314D01*
X519216Y818300D01*
X522784D01*
X522819Y818314D01*
X522933Y818342D01*
X523051Y818351D01*
X527049D01*
X527167Y818342D01*
D02*
G37*
G36*
X57427Y714328D02*
X59128Y712626D01*
X60049Y710403D01*
Y709200D01*
Y707997D01*
X59128Y705773D01*
X57427Y704072D01*
X55204Y703151D01*
X44796D01*
X42573Y704072D01*
X40871Y705773D01*
X39950Y707997D01*
Y709200D01*
Y710403D01*
X40871Y712626D01*
X42573Y714328D01*
X44796Y715249D01*
X55204D01*
X57427Y714328D01*
D02*
G37*
G36*
X19426D02*
X21128Y712626D01*
X22048Y710403D01*
Y709200D01*
Y707997D01*
X21128Y705773D01*
X19426Y704072D01*
X17203Y703151D01*
X2797D01*
X574Y704072D01*
X-1128Y705773D01*
X-2049Y707997D01*
Y709200D01*
Y710403D01*
X-1128Y712626D01*
X574Y714328D01*
X2797Y715249D01*
X17203D01*
X19426Y714328D01*
D02*
G37*
G36*
X57427Y601928D02*
X59128Y600226D01*
X60049Y598003D01*
Y596800D01*
Y595597D01*
X59128Y593373D01*
X57427Y591672D01*
X55204Y590751D01*
X44796D01*
X42573Y591672D01*
X40871Y593373D01*
X39950Y595597D01*
Y596800D01*
Y598003D01*
X40871Y600226D01*
X42573Y601928D01*
X44796Y602849D01*
X55204D01*
X57427Y601928D01*
D02*
G37*
G36*
X19426D02*
X21128Y600226D01*
X22048Y598003D01*
Y596800D01*
Y595597D01*
X21128Y593373D01*
X19426Y591672D01*
X17203Y590751D01*
X2797D01*
X574Y591672D01*
X-1128Y593373D01*
X-2049Y595597D01*
Y596800D01*
Y598003D01*
X-1128Y600226D01*
X574Y601928D01*
X2797Y602849D01*
X17203D01*
X19426Y601928D01*
D02*
G37*
D10*
X538000Y907000D02*
D03*
X521000Y813000D02*
D03*
X537000Y870000D02*
D03*
D11*
X533951Y910251D02*
D03*
Y903749D02*
D03*
X542049D02*
D03*
Y910251D02*
D03*
X525049Y816251D02*
D03*
Y809749D02*
D03*
X516951D02*
D03*
Y816251D02*
D03*
X532951Y873251D02*
D03*
Y866749D02*
D03*
X541049D02*
D03*
Y873251D02*
D03*
D50*
X22001Y503001D02*
G03*
X2001Y523001I-20000J0D01*
G01*
X22001Y43000D02*
G03*
X75000Y-10000I53000J0D01*
G01*
X524999D02*
G03*
X577999Y43000I0J53000D01*
G01*
Y893000D02*
G03*
X524999Y946000I-53000J0D01*
G01*
X52000D02*
G03*
X22001Y916000I0J-30000D01*
G01*
X2001Y743001D02*
G03*
X22001Y763001I0J20000D01*
G01*
X51000Y606000D02*
G03*
X52039Y615891I0J5000D01*
G01*
X51997Y690100D02*
G03*
X51000Y700000I-997J4900D01*
G01*
X-5001Y605801D02*
X51000D01*
X-5001Y523001D02*
Y605801D01*
X52000Y615900D02*
Y690100D01*
X-5000Y700000D02*
X51000D01*
X-5001Y700001D02*
Y743001D01*
X577999Y43000D02*
Y893000D01*
X52000Y946000D02*
X524999D01*
X22001Y763001D02*
Y916000D01*
X-5000Y743001D02*
X2000D01*
X-5000Y523001D02*
X2001D01*
X22001Y43000D02*
Y503001D01*
X75000Y-10000D02*
X524999D01*
D75*
X15999Y593800D02*
G03*
X18999Y596800I0J3000D01*
G01*
D02*
G03*
X15999Y599800I-3000J0D01*
G01*
X4001D02*
G03*
X1001Y596800I0J-3000D01*
G01*
D02*
G03*
X4001Y593800I3000J0D01*
G01*
X54000Y706200D02*
G03*
X57000Y709200I0J3000D01*
G01*
D02*
G03*
X54000Y712200I-3000J0D01*
G01*
X45999D02*
G03*
X43000Y709200I0J-3000D01*
G01*
D02*
G03*
X45999Y706200I3000J0D01*
G01*
X54000Y593800D02*
G03*
X57000Y596800I0J3000D01*
G01*
D02*
G03*
X54000Y599800I-3000J0D01*
G01*
X45999D02*
G03*
X43000Y596800I0J-3000D01*
G01*
D02*
G03*
X45999Y593800I3000J0D01*
G01*
X15999Y706200D02*
G03*
X18999Y709200I0J3000D01*
G01*
D02*
G03*
X15999Y712200I-3000J0D01*
G01*
X4001D02*
G03*
X1001Y709200I0J-3000D01*
G01*
D02*
G03*
X4001Y706200I3000J0D01*
G01*
Y599800D02*
X15999D01*
X4001Y593800D02*
X15999D01*
X45999Y712200D02*
X54000D01*
X45999Y706200D02*
X54000D01*
X45999Y599800D02*
X54000D01*
X45999Y593800D02*
X54000D01*
X4001Y712200D02*
X15999D01*
X4001Y706200D02*
X15999D01*
D79*
X577000Y492000D02*
D03*
Y484000D02*
D03*
Y476000D02*
D03*
Y468000D02*
D03*
X22000D02*
D03*
Y476000D02*
D03*
Y484000D02*
D03*
Y492000D02*
D03*
D138*
X338750Y567550D02*
D03*
D139*
X343250Y567500D02*
D03*
D140*
X365200Y813001D02*
D03*
X210800Y813001D02*
D03*
D141*
X288001Y735801D02*
D03*
X288000Y890201D02*
D03*
D142*
X463500Y717500D02*
D03*
D143*
X492002Y863000D02*
D03*
D144*
X39000Y841000D02*
D03*
X540000Y30000D02*
D03*
X120000Y921000D02*
D03*
X50000Y30000D02*
D03*
X560000Y710000D02*
D03*
D145*
X337000Y563999D02*
D03*
X345000D02*
D03*
D146*
X341000Y572001D02*
D03*
D147*
X210784Y873000D02*
D03*
Y868002D02*
D03*
Y863000D02*
D03*
Y858002D02*
D03*
Y853001D02*
D03*
Y848002D02*
D03*
Y843001D02*
D03*
Y838002D02*
D03*
Y833001D02*
D03*
Y828002D02*
D03*
Y823001D02*
D03*
Y818002D02*
D03*
Y813001D02*
D03*
Y807999D02*
D03*
Y803001D02*
D03*
Y797999D02*
D03*
Y793001D02*
D03*
Y787999D02*
D03*
Y783001D02*
D03*
Y777999D02*
D03*
Y773001D02*
D03*
Y767999D02*
D03*
Y763001D02*
D03*
Y757999D02*
D03*
Y753001D02*
D03*
X365216D02*
D03*
Y757999D02*
D03*
Y763001D02*
D03*
Y767999D02*
D03*
Y773001D02*
D03*
Y777999D02*
D03*
Y783001D02*
D03*
Y787999D02*
D03*
Y793001D02*
D03*
Y797999D02*
D03*
Y803001D02*
D03*
Y807999D02*
D03*
Y813001D02*
D03*
Y818002D02*
D03*
Y823001D02*
D03*
Y828002D02*
D03*
Y833001D02*
D03*
Y838002D02*
D03*
Y843001D02*
D03*
Y848002D02*
D03*
Y853001D02*
D03*
Y858002D02*
D03*
Y863000D02*
D03*
Y868002D02*
D03*
Y873000D02*
D03*
D148*
X228001Y735785D02*
D03*
X232999D02*
D03*
X238001D02*
D03*
X242999D02*
D03*
X248001D02*
D03*
X252999D02*
D03*
X258001D02*
D03*
X262999D02*
D03*
X268001D02*
D03*
X272999D02*
D03*
X278000D02*
D03*
X282999D02*
D03*
X288000D02*
D03*
X293002D02*
D03*
X298000D02*
D03*
X303002D02*
D03*
X308000D02*
D03*
X313002D02*
D03*
X318000D02*
D03*
X323002D02*
D03*
X328000D02*
D03*
X333002D02*
D03*
X338000D02*
D03*
X343002D02*
D03*
X348000D02*
D03*
Y890217D02*
D03*
X343002D02*
D03*
X338000D02*
D03*
X333002D02*
D03*
X328000D02*
D03*
X323002D02*
D03*
X318000D02*
D03*
X313002D02*
D03*
X308000D02*
D03*
X303002D02*
D03*
X298000D02*
D03*
X293002D02*
D03*
X288000D02*
D03*
X282999D02*
D03*
X278000D02*
D03*
X272999D02*
D03*
X268001D02*
D03*
X262999D02*
D03*
X258001D02*
D03*
X252999D02*
D03*
X248001D02*
D03*
X242999D02*
D03*
X238001D02*
D03*
X232999D02*
D03*
X228001D02*
D03*
D149*
X437500Y433001D02*
D03*
Y422999D02*
D03*
X450500Y428000D02*
D03*
X437500Y371001D02*
D03*
Y360999D02*
D03*
X450500Y366000D02*
D03*
X437500Y413001D02*
D03*
Y402999D02*
D03*
X450500Y408000D02*
D03*
X437500Y392001D02*
D03*
Y381999D02*
D03*
X450500Y387000D02*
D03*
D150*
X484001Y348500D02*
D03*
X473999D02*
D03*
X479000Y335500D02*
D03*
D151*
X112999Y584000D02*
D03*
X135001D02*
D03*
X81999Y652000D02*
D03*
X104001D02*
D03*
D152*
X95999Y551398D02*
D03*
X125999D02*
D03*
X155999D02*
D03*
D153*
X95999Y535000D02*
D03*
X125999D02*
D03*
X155999D02*
D03*
D154*
X548000Y746750D02*
D03*
X557500Y767250D02*
D03*
X538500D02*
D03*
X159000Y878250D02*
D03*
X149500Y857750D02*
D03*
X168500D02*
D03*
D155*
X59250Y739000D02*
D03*
X38750Y748500D02*
D03*
Y729500D02*
D03*
D156*
X119501Y748001D02*
D03*
Y743000D02*
D03*
Y738001D02*
D03*
Y733000D02*
D03*
Y727999D02*
D03*
Y723000D02*
D03*
Y717999D02*
D03*
X90499D02*
D03*
Y723000D02*
D03*
Y727999D02*
D03*
Y748001D02*
D03*
Y743000D02*
D03*
Y738001D02*
D03*
Y733000D02*
D03*
D157*
X105000D02*
D03*
D158*
X534000Y370000D02*
D03*
D159*
X542499Y377501D02*
D03*
Y372499D02*
D03*
Y367501D02*
D03*
Y362499D02*
D03*
X525501D02*
D03*
Y367501D02*
D03*
Y372499D02*
D03*
Y377501D02*
D03*
D160*
X559000Y812450D02*
D03*
X559000Y821550D02*
D03*
X313000Y920450D02*
D03*
X313000Y929550D02*
D03*
X474000Y362450D02*
D03*
X474000Y371550D02*
D03*
X387000Y711450D02*
D03*
X387000Y720550D02*
D03*
X538000Y437550D02*
D03*
X538000Y428450D02*
D03*
X485000Y371550D02*
D03*
X485000Y362450D02*
D03*
X156000Y817550D02*
D03*
X156000Y808450D02*
D03*
X113000Y697450D02*
D03*
X113000Y706550D02*
D03*
X75000Y778550D02*
D03*
X75000Y769450D02*
D03*
X369000Y579450D02*
D03*
X369000Y588550D02*
D03*
X102000Y685450D02*
D03*
X102000Y694550D02*
D03*
X109000Y626550D02*
D03*
X109000Y617450D02*
D03*
X258000Y912450D02*
D03*
X258000Y921550D02*
D03*
X513000Y481550D02*
D03*
X513000Y472450D02*
D03*
X513000Y491450D02*
D03*
X513000Y500550D02*
D03*
X188000Y812450D02*
D03*
X188000Y821550D02*
D03*
X516000Y389550D02*
D03*
X516000Y380450D02*
D03*
X267000Y565450D02*
D03*
X267000Y574550D02*
D03*
X507000Y806450D02*
D03*
X507000Y815550D02*
D03*
X191000Y781550D02*
D03*
X191000Y772450D02*
D03*
X166000Y791450D02*
D03*
X166000Y800550D02*
D03*
X210000Y908550D02*
D03*
X210000Y899450D02*
D03*
X64000Y769450D02*
D03*
X64000Y778550D02*
D03*
X526000Y500550D02*
D03*
X526000Y491450D02*
D03*
X139000Y746550D02*
D03*
X139000Y737450D02*
D03*
X119000Y640450D02*
D03*
X119000Y649550D02*
D03*
X469000Y497550D02*
D03*
X469000Y488450D02*
D03*
X505000Y912550D02*
D03*
X505000Y903450D02*
D03*
X504000Y887550D02*
D03*
X504000Y878450D02*
D03*
X39000Y791450D02*
D03*
X39000Y800550D02*
D03*
D161*
X303450Y718000D02*
D03*
X312550Y718000D02*
D03*
X183450Y875000D02*
D03*
X192550Y875000D02*
D03*
X416450Y412000D02*
D03*
X425550Y412000D02*
D03*
X507450Y367000D02*
D03*
X516550Y367000D02*
D03*
X472550Y408000D02*
D03*
X463450Y408000D02*
D03*
X552550Y786000D02*
D03*
X543450Y786000D02*
D03*
X518550Y736000D02*
D03*
X509450Y736000D02*
D03*
X45550Y771000D02*
D03*
X36450Y771000D02*
D03*
X78550Y708000D02*
D03*
X69450Y708000D02*
D03*
X45450Y537000D02*
D03*
X54550Y537000D02*
D03*
X338450Y552000D02*
D03*
X347550Y552000D02*
D03*
X137550Y882000D02*
D03*
X128450Y882000D02*
D03*
X136450Y895000D02*
D03*
X145550Y895000D02*
D03*
X553550Y463000D02*
D03*
X544450Y463000D02*
D03*
X180450Y548000D02*
D03*
X189550Y548000D02*
D03*
X458450Y746000D02*
D03*
X467550Y746000D02*
D03*
X372550Y548000D02*
D03*
X363450Y548000D02*
D03*
X494550Y746000D02*
D03*
X485450Y746000D02*
D03*
X384550Y885000D02*
D03*
X375450Y885000D02*
D03*
X358550Y717000D02*
D03*
X349450Y717000D02*
D03*
X228450Y715000D02*
D03*
X237550Y715000D02*
D03*
X484450Y554000D02*
D03*
X493550Y554000D02*
D03*
D162*
X518000Y923700D02*
D03*
X518000Y908300D02*
D03*
X555000Y891300D02*
D03*
X555000Y906700D02*
D03*
X537000Y797300D02*
D03*
X537000Y812700D02*
D03*
X518000Y890700D02*
D03*
X518000Y875300D02*
D03*
X555000Y855300D02*
D03*
X555000Y870700D02*
D03*
X485000Y384300D02*
D03*
X485000Y399700D02*
D03*
X179000Y753300D02*
D03*
X179000Y768700D02*
D03*
X159000Y909700D02*
D03*
X159000Y894300D02*
D03*
D163*
X534700Y831000D02*
D03*
X519300Y831000D02*
D03*
D164*
X171000Y838950D02*
D03*
X171000Y821050D02*
D03*
X503000Y785950D02*
D03*
X503000Y768050D02*
D03*
X90000Y791950D02*
D03*
X90000Y774050D02*
D03*
X194000Y919950D02*
D03*
X194000Y902050D02*
D03*
X374000Y921950D02*
D03*
X374000Y904050D02*
D03*
X347000Y681050D02*
D03*
X347000Y698950D02*
D03*
X326000Y681050D02*
D03*
X326000Y698950D02*
D03*
X237000Y929950D02*
D03*
X237000Y912050D02*
D03*
X516000Y416050D02*
D03*
X516000Y433950D02*
D03*
D165*
X447050Y766000D02*
D03*
X464950Y766000D02*
D03*
X141950Y785000D02*
D03*
X124050Y785000D02*
D03*
X381950Y564000D02*
D03*
X364050Y564000D02*
D03*
X141950Y765000D02*
D03*
X124050Y765000D02*
D03*
X536950Y849000D02*
D03*
X519050Y849000D02*
D03*
X215050Y700000D02*
D03*
X232950Y700000D02*
D03*
X160950Y724000D02*
D03*
X143050Y724000D02*
D03*
X538950Y527000D02*
D03*
X521050Y527000D02*
D03*
X538950Y550000D02*
D03*
X521050Y550000D02*
D03*
X447050Y473000D02*
D03*
X464950Y473000D02*
D03*
X160950Y705000D02*
D03*
X143050Y705000D02*
D03*
D166*
X435999Y717499D02*
D03*
X441001D02*
D03*
X445999D02*
D03*
X451001D02*
D03*
X455999D02*
D03*
X461001D02*
D03*
X465999D02*
D03*
X471001D02*
D03*
X475999D02*
D03*
X481001D02*
D03*
X485999D02*
D03*
X491001D02*
D03*
D167*
X417000Y685000D02*
D03*
X510000D02*
D03*
D168*
X322752Y567002D02*
D03*
X291252D02*
D03*
X240248Y547998D02*
D03*
X271748D02*
D03*
X89752Y812002D02*
D03*
X58252D02*
D03*
D169*
X380500Y602501D02*
D03*
X361500D02*
D03*
Y627499D02*
D03*
X371000D02*
D03*
X380500D02*
D03*
D170*
X13122Y566001D02*
D03*
Y536999D02*
D03*
D171*
X500499Y512551D02*
D03*
X490999D02*
D03*
X481499D02*
D03*
Y487452D02*
D03*
X500499D02*
D03*
D172*
X142450Y652000D02*
D03*
X167550Y642500D02*
D03*
Y652000D02*
D03*
Y661500D02*
D03*
X142450D02*
D03*
Y642500D02*
D03*
D173*
X498250Y534000D02*
D03*
X481750D02*
D03*
D174*
X250001Y593000D02*
D03*
X260001D02*
D03*
X270001D02*
D03*
X280001D02*
D03*
X290001D02*
D03*
X300001D02*
D03*
D175*
X323500Y614700D02*
D03*
X226500D02*
D03*
D176*
X467000Y795500D02*
D03*
Y930500D02*
D03*
D177*
X492000Y805500D02*
D03*
Y810500D02*
D03*
Y815500D02*
D03*
Y820500D02*
D03*
Y825500D02*
D03*
Y830500D02*
D03*
Y835500D02*
D03*
Y840500D02*
D03*
Y845500D02*
D03*
Y850500D02*
D03*
Y855500D02*
D03*
Y860500D02*
D03*
Y920500D02*
D03*
Y915500D02*
D03*
Y910500D02*
D03*
Y905500D02*
D03*
Y900500D02*
D03*
Y895500D02*
D03*
Y890500D02*
D03*
Y885500D02*
D03*
Y880500D02*
D03*
Y875500D02*
D03*
Y870500D02*
D03*
Y865500D02*
D03*
D178*
X570200Y662750D02*
D03*
X552200D02*
D03*
Y623250D02*
D03*
X570200D02*
D03*
D179*
X485000Y417500D02*
D03*
Y434500D02*
D03*
D180*
X172000Y425000D02*
D03*
X161840Y374200D02*
D03*
X182160D02*
D03*
D181*
X529970Y111200D02*
D03*
X115000Y836200D02*
D03*
X464000Y593000D02*
D03*
D182*
X10000Y596800D02*
D03*
Y709200D02*
D03*
D183*
X50000D02*
D03*
Y596800D02*
D03*
D184*
X174970Y128600D02*
D03*
X389970D02*
D03*
M02*
