G04 Layer_Color=16776960*
%FSLAX44Y44*%
%MOMM*%
G71*
G01*
G75*
%ADD48C,0.1500*%
%ADD50C,0.2000*%
%ADD75C,0.0000*%
%ADD94C,0.2540*%
%ADD99C,0.1200*%
%ADD228R,0.5000X0.4000*%
%ADD229R,0.5000X0.4000*%
%ADD230R,1.1000X0.4000*%
%ADD231R,1.1000X0.4000*%
%ADD232R,1.1000X0.3000*%
%ADD233R,1.3000X1.1000*%
%ADD234R,1.0000X0.9000*%
D48*
X469999Y49941D02*
X489999D01*
X469999Y76941D02*
X489999D01*
X479999Y68941D02*
Y76941D01*
Y68941D02*
X483999Y57941D01*
X479999Y49941D02*
Y57941D01*
X459999Y56941D02*
Y68941D01*
X464999Y73941D01*
Y81941D01*
X494999D01*
X459999Y56941D02*
X464999Y51941D01*
Y43941D02*
Y51941D01*
X494999Y73941D02*
Y81941D01*
Y73941D02*
X499999Y68941D01*
X464999Y43941D02*
X494999D01*
Y51941D01*
X499999Y56941D01*
Y68941D01*
X289999Y75941D02*
X309999D01*
X289999Y48941D02*
X309999D01*
X299999Y48941D02*
Y56941D01*
X295999Y67941D02*
X299999Y56941D01*
Y67941D02*
Y75941D01*
X319999Y56941D02*
Y68941D01*
X314999Y51941D02*
X319999Y56941D01*
X314999Y43941D02*
Y51941D01*
X284999Y43941D02*
X314999D01*
Y73941D02*
X319999Y68941D01*
X314999Y73941D02*
Y81941D01*
X284999Y43941D02*
Y51941D01*
X279999Y56941D02*
X284999Y51941D01*
Y81941D02*
X314999D01*
X284999Y73941D02*
Y81941D01*
X279999Y68941D02*
X284999Y73941D01*
X279999Y56941D02*
Y68941D01*
X110000Y75941D02*
X130000D01*
X110000Y48941D02*
X130000D01*
X120000Y48941D02*
Y56941D01*
X116000Y67941D02*
X120000Y56941D01*
Y67941D02*
Y75941D01*
X140000Y56941D02*
Y68941D01*
X135000Y51941D02*
X140000Y56941D01*
X135000Y43941D02*
Y51941D01*
X105000Y43941D02*
X135000D01*
Y73941D02*
X140000Y68941D01*
X135000Y73941D02*
Y81941D01*
X105000Y43941D02*
Y51941D01*
X100000Y56941D02*
X105000Y51941D01*
Y81941D02*
X135000D01*
X105000Y73941D02*
Y81941D01*
X100000Y68941D02*
X105000Y73941D01*
X100000Y56941D02*
Y68941D01*
X110000Y205940D02*
X130000D01*
X110000Y178940D02*
X130000D01*
X120000Y178940D02*
Y186940D01*
X116000Y197940D02*
X120000Y186940D01*
Y197940D02*
Y205940D01*
X140000Y186940D02*
Y198940D01*
X135000Y181940D02*
X140000Y186940D01*
X135000Y173940D02*
Y181940D01*
X105000Y173940D02*
X135000D01*
Y203940D02*
X140000Y198940D01*
X135000Y203940D02*
Y211940D01*
X105000Y173940D02*
Y181940D01*
X100000Y186940D02*
X105000Y181940D01*
Y211940D02*
X135000D01*
X105000Y203940D02*
Y211940D01*
X100000Y198940D02*
X105000Y203940D01*
X100000Y186940D02*
Y198940D01*
X290000Y205940D02*
X310000D01*
X290000Y178940D02*
X310000D01*
X300000Y178940D02*
Y186940D01*
X296000Y197940D02*
X300000Y186940D01*
Y197940D02*
Y205940D01*
X320000Y186940D02*
Y198940D01*
X315000Y181940D02*
X320000Y186940D01*
X315000Y173940D02*
Y181940D01*
X285000Y173940D02*
X315000D01*
Y203940D02*
X320000Y198940D01*
X315000Y203940D02*
Y211940D01*
X285000Y173940D02*
Y181940D01*
X280000Y186940D02*
X285000Y181940D01*
Y211940D02*
X315000D01*
X285000Y203940D02*
Y211940D01*
X280000Y198940D02*
X285000Y203940D01*
X280000Y186940D02*
Y198940D01*
X470201Y205940D02*
X490201D01*
X470201Y178940D02*
X490201D01*
X480201Y178940D02*
Y186940D01*
X476201Y197940D02*
X480201Y186940D01*
Y197940D02*
Y205940D01*
X500201Y186940D02*
Y198940D01*
X495201Y181940D02*
X500201Y186940D01*
X495201Y173940D02*
Y181940D01*
X465201Y173940D02*
X495201D01*
Y203940D02*
X500201Y198940D01*
X495201Y203940D02*
Y211940D01*
X465201Y173940D02*
Y181940D01*
X460201Y186940D02*
X465201Y181940D01*
Y211940D02*
X495201D01*
X465201Y203940D02*
Y211940D01*
X460201Y198940D02*
X465201Y203940D01*
X460201Y186940D02*
Y198940D01*
X469000Y309940D02*
X489000D01*
X469000Y336940D02*
X489000D01*
X479000Y328940D02*
Y336940D01*
Y328940D02*
X483000Y317940D01*
X479000Y309940D02*
Y317940D01*
X459000Y316940D02*
Y328940D01*
X464000Y333940D01*
Y341940D01*
X494000D01*
X459000Y316940D02*
X464000Y311940D01*
Y303940D02*
Y311940D01*
X494000Y333940D02*
Y341940D01*
Y333940D02*
X499000Y328940D01*
X464000Y303940D02*
X494000D01*
Y311940D01*
X499000Y316940D01*
Y328940D01*
X290000Y335940D02*
X310000D01*
X290000Y308940D02*
X310000D01*
X300000Y308940D02*
Y316940D01*
X296000Y327940D02*
X300000Y316940D01*
Y327940D02*
Y335940D01*
X320000Y316940D02*
Y328940D01*
X315000Y311940D02*
X320000Y316940D01*
X315000Y303940D02*
Y311940D01*
X285000Y303940D02*
X315000D01*
Y333940D02*
X320000Y328940D01*
X315000Y333940D02*
Y341940D01*
X285000Y303940D02*
Y311940D01*
X280000Y316940D02*
X285000Y311940D01*
Y341940D02*
X315000D01*
X285000Y333940D02*
Y341940D01*
X280000Y328940D02*
X285000Y333940D01*
X280000Y316940D02*
Y328940D01*
X110000Y335940D02*
X130000D01*
X110000Y308940D02*
X130000D01*
X120000Y308940D02*
Y316940D01*
X116000Y327940D02*
X120000Y316940D01*
Y327940D02*
Y335940D01*
X140000Y316940D02*
Y328940D01*
X135000Y311940D02*
X140000Y316940D01*
X135000Y303940D02*
Y311940D01*
X105000Y303940D02*
X135000D01*
Y333940D02*
X140000Y328940D01*
X135000Y333940D02*
Y341940D01*
X105000Y303940D02*
Y311940D01*
X100000Y316940D02*
X105000Y311940D01*
Y341940D02*
X135000D01*
X105000Y333940D02*
Y341940D01*
X100000Y328940D02*
X105000Y333940D01*
X100000Y316940D02*
Y328940D01*
X470000Y439940D02*
X490000D01*
X470000Y466940D02*
X490000D01*
X480000Y466940D02*
X480000Y458940D01*
X484000Y447940D01*
X480000Y447940D02*
X480000Y439940D01*
X460000Y458940D02*
X460000Y446940D01*
X460000Y458940D02*
X465000Y463940D01*
X465000Y471940D01*
X495000D01*
X460000Y446940D02*
X465000Y441940D01*
Y433940D02*
Y441940D01*
X495000Y463940D02*
Y471940D01*
Y463940D02*
X500000Y458940D01*
X465000Y433940D02*
X495000Y433940D01*
Y441940D01*
X500000Y446940D01*
X500000Y458940D02*
X500000Y446940D01*
X290000Y439940D02*
X310000D01*
X290000Y466940D02*
X310000D01*
X300000Y458940D02*
Y466940D01*
Y458940D02*
X304000Y447940D01*
X300000Y439940D02*
Y447940D01*
X280000Y446940D02*
Y458940D01*
X285000Y463940D01*
Y471940D01*
X315000D01*
X280000Y446940D02*
X285000Y441940D01*
Y433940D02*
Y441940D01*
X315000Y463940D02*
Y471940D01*
Y463940D02*
X320000Y458940D01*
X285000Y433940D02*
X315000D01*
Y441940D01*
X320000Y446940D01*
Y458940D01*
X110000Y465940D02*
X130000D01*
X110000Y438940D02*
X130000D01*
X120000Y438940D02*
Y446940D01*
X116000Y457940D02*
X120000Y446940D01*
Y457940D02*
Y465940D01*
X140000Y446940D02*
Y458940D01*
X135000Y441940D02*
X140000Y446940D01*
X135000Y433940D02*
Y441940D01*
X105000Y433940D02*
X135000D01*
Y463940D02*
X140000Y458940D01*
X135000Y463940D02*
Y471940D01*
X105000Y433940D02*
Y441940D01*
X100000Y446940D02*
X105000Y441940D01*
Y471940D02*
X135000D01*
X105000Y463940D02*
Y471940D01*
X100000Y458940D02*
X105000Y463940D01*
X100000Y446940D02*
Y458940D01*
D50*
X169045Y412375D02*
G03*
X169045Y412375I-3220J0D01*
G01*
X168895Y399425D02*
G03*
X168895Y399425I-3220J0D01*
G01*
X168870Y386875D02*
G03*
X168870Y386875I-3220J0D01*
G01*
X181520Y412350D02*
G03*
X181520Y412350I-3220J0D01*
G01*
X181470Y399550D02*
G03*
X181470Y399550I-3220J0D01*
G01*
X181695Y386900D02*
G03*
X181695Y386900I-3220J0D01*
G01*
X49544Y256000D02*
G03*
X49544Y256000I-8544J0D01*
G01*
X50544Y505000D02*
G03*
X50544Y505000I-8544J0D01*
G01*
X155490Y367850D02*
X188510Y367850D01*
X155490Y367850D02*
Y431350D01*
X188510Y367850D02*
X188510Y431350D01*
X155490Y431350D02*
X188510Y431350D01*
X22001Y503001D02*
G03*
X2001Y523001I-20000J0D01*
G01*
X22001Y43000D02*
G03*
X75000Y-10000I53000J0D01*
G01*
X524999D02*
G03*
X577999Y43000I0J53000D01*
G01*
Y893000D02*
G03*
X524999Y946000I-53000J0D01*
G01*
X52000D02*
G03*
X22001Y916000I0J-30000D01*
G01*
X2001Y743001D02*
G03*
X22001Y763001I0J20000D01*
G01*
X51000Y606000D02*
G03*
X52039Y615891I0J5000D01*
G01*
X51997Y690100D02*
G03*
X51000Y700000I-997J4900D01*
G01*
X-5001Y605801D02*
X51000D01*
X-5001Y523001D02*
Y605801D01*
X52000Y615900D02*
Y690100D01*
X-5000Y700000D02*
X51000D01*
X-5001Y700001D02*
Y743001D01*
X577999Y43000D02*
Y893000D01*
X52000Y946000D02*
X524999D01*
X22001Y763001D02*
Y916000D01*
X-5000Y743001D02*
X2000D01*
X-5000Y523001D02*
X2001D01*
X22001Y43000D02*
Y503001D01*
X75000Y-10000D02*
X524999D01*
D75*
X15999Y593800D02*
G03*
X18999Y596800I0J3000D01*
G01*
D02*
G03*
X15999Y599800I-3000J0D01*
G01*
X4001D02*
G03*
X1001Y596800I0J-3000D01*
G01*
D02*
G03*
X4001Y593800I3000J0D01*
G01*
X54000Y706200D02*
G03*
X57000Y709200I0J3000D01*
G01*
D02*
G03*
X54000Y712200I-3000J0D01*
G01*
X45999D02*
G03*
X43000Y709200I0J-3000D01*
G01*
D02*
G03*
X45999Y706200I3000J0D01*
G01*
X54000Y593800D02*
G03*
X57000Y596800I0J3000D01*
G01*
D02*
G03*
X54000Y599800I-3000J0D01*
G01*
X45999D02*
G03*
X43000Y596800I0J-3000D01*
G01*
D02*
G03*
X45999Y593800I3000J0D01*
G01*
X15999Y706200D02*
G03*
X18999Y709200I0J3000D01*
G01*
D02*
G03*
X15999Y712200I-3000J0D01*
G01*
X4001D02*
G03*
X1001Y709200I0J-3000D01*
G01*
D02*
G03*
X4001Y706200I3000J0D01*
G01*
Y599800D02*
X15999D01*
X4001Y593800D02*
X15999D01*
X45999Y712200D02*
X54000D01*
X45999Y706200D02*
X54000D01*
X45999Y599800D02*
X54000D01*
X45999Y593800D02*
X54000D01*
X4001Y712200D02*
X15999D01*
X4001Y706200D02*
X15999D01*
D94*
X54000Y606000D02*
Y700000D01*
X-10000D02*
X54000D01*
X-10000Y606000D02*
Y700000D01*
Y606000D02*
X54000D01*
D99*
X447834Y72609D02*
X447001Y73442D01*
Y75108D01*
X447834Y75941D01*
X448667D01*
X449500Y75108D01*
Y73442D01*
X450333Y72609D01*
X451166D01*
X451999Y73442D01*
Y75108D01*
X451166Y75941D01*
X451999Y70943D02*
Y69277D01*
Y70110D01*
X447001D01*
X447834Y70943D01*
X451999Y64278D02*
X447001D01*
X449500Y66778D01*
Y63445D01*
X332165Y53273D02*
X332998Y52440D01*
Y50774D01*
X332165Y49941D01*
X331332D01*
X330499Y50774D01*
Y52440D01*
X329665Y53273D01*
X328832D01*
X327999Y52440D01*
Y50774D01*
X328832Y49941D01*
X327999Y54939D02*
Y56606D01*
Y55773D01*
X332998D01*
X332165Y54939D01*
Y59105D02*
X332998Y59938D01*
Y61604D01*
X332165Y62437D01*
X328832D01*
X327999Y61604D01*
Y59938D01*
X328832Y59105D01*
X332165D01*
X152165Y53273D02*
X152998Y52440D01*
Y50774D01*
X152165Y49941D01*
X151332D01*
X150499Y50774D01*
Y52440D01*
X149666Y53273D01*
X148833D01*
X148000Y52440D01*
Y50774D01*
X148833Y49941D01*
X152998Y58272D02*
X152165Y56606D01*
X150499Y54939D01*
X148833D01*
X148000Y55773D01*
Y57439D01*
X148833Y58272D01*
X149666D01*
X150499Y57439D01*
Y54939D01*
X152165Y183272D02*
X152998Y182439D01*
Y180773D01*
X152165Y179940D01*
X151332D01*
X150499Y180773D01*
Y182439D01*
X149666Y183272D01*
X148833D01*
X148000Y182439D01*
Y180773D01*
X148833Y179940D01*
X152998Y188271D02*
Y184938D01*
X150499D01*
X151332Y186604D01*
Y187437D01*
X150499Y188271D01*
X148833D01*
X148000Y187437D01*
Y185771D01*
X148833Y184938D01*
X332165Y183272D02*
X332998Y182439D01*
Y180773D01*
X332165Y179940D01*
X331332D01*
X330499Y180773D01*
Y182439D01*
X329666Y183272D01*
X328833D01*
X328000Y182439D01*
Y180773D01*
X328833Y179940D01*
Y184938D02*
X328000Y185771D01*
Y187437D01*
X328833Y188271D01*
X332165D01*
X332998Y187437D01*
Y185771D01*
X332165Y184938D01*
X331332D01*
X330499Y185771D01*
Y188271D01*
X512366Y183272D02*
X513200Y182439D01*
Y180773D01*
X512366Y179940D01*
X511533D01*
X510700Y180773D01*
Y182439D01*
X509867Y183272D01*
X509034D01*
X508201Y182439D01*
Y180773D01*
X509034Y179940D01*
X508201Y184938D02*
Y186604D01*
Y185771D01*
X513200D01*
X512366Y184938D01*
Y189104D02*
X513200Y189937D01*
Y191603D01*
X512366Y192436D01*
X511533D01*
X510700Y191603D01*
Y190770D01*
Y191603D01*
X509867Y192436D01*
X509034D01*
X508201Y191603D01*
Y189937D01*
X509034Y189104D01*
X446835Y332608D02*
X446002Y333441D01*
Y335107D01*
X446835Y335940D01*
X447668D01*
X448501Y335107D01*
Y333441D01*
X449334Y332608D01*
X450167D01*
X451000Y333441D01*
Y335107D01*
X450167Y335940D01*
X451000Y330942D02*
Y329276D01*
Y330109D01*
X446002D01*
X446835Y330942D01*
X451000Y323444D02*
Y326776D01*
X447668Y323444D01*
X446835D01*
X446002Y324277D01*
Y325943D01*
X446835Y326776D01*
X332165Y313272D02*
X332998Y312439D01*
Y310773D01*
X332165Y309940D01*
X331332D01*
X330499Y310773D01*
Y312439D01*
X329666Y313272D01*
X328833D01*
X328000Y312439D01*
Y310773D01*
X328833Y309940D01*
X332165Y314938D02*
X332998Y315771D01*
Y317437D01*
X332165Y318271D01*
X331332D01*
X330499Y317437D01*
X329666Y318271D01*
X328833D01*
X328000Y317437D01*
Y315771D01*
X328833Y314938D01*
X329666D01*
X330499Y315771D01*
X331332Y314938D01*
X332165D01*
X330499Y315771D02*
Y317437D01*
X152165Y313272D02*
X152998Y312439D01*
Y310773D01*
X152165Y309940D01*
X151332D01*
X150499Y310773D01*
Y312439D01*
X149666Y313272D01*
X148833D01*
X148000Y312439D01*
Y310773D01*
X148833Y309940D01*
X148000Y318271D02*
Y314938D01*
X151332Y318271D01*
X152165D01*
X152998Y317437D01*
Y315771D01*
X152165Y314938D01*
X447835Y462608D02*
X447002Y463441D01*
Y465107D01*
X447835Y465940D01*
X448668D01*
X449501Y465107D01*
Y463441D01*
X450334Y462608D01*
X451167D01*
X452000Y463441D01*
Y465107D01*
X451167Y465940D01*
X452000Y460942D02*
Y459276D01*
Y460109D01*
X447002D01*
X447835Y460942D01*
X452000Y456776D02*
Y455110D01*
Y455943D01*
X447002D01*
X447835Y456776D01*
X267835Y462608D02*
X267002Y463441D01*
Y465107D01*
X267835Y465940D01*
X268668D01*
X269501Y465107D01*
Y463441D01*
X270334Y462608D01*
X271167D01*
X272000Y463441D01*
Y465107D01*
X271167Y465940D01*
X267002Y460942D02*
Y457609D01*
X267835D01*
X271167Y460942D01*
X272000D01*
X152165Y443272D02*
X152998Y442439D01*
Y440773D01*
X152165Y439940D01*
X151332D01*
X150499Y440773D01*
Y442439D01*
X149666Y443272D01*
X148833D01*
X148000Y442439D01*
Y440773D01*
X148833Y439940D01*
X148000Y444938D02*
Y446604D01*
Y445771D01*
X152998D01*
X152165Y444938D01*
X190970Y383940D02*
X195968D01*
Y386439D01*
X195135Y387272D01*
X193469D01*
X192636Y386439D01*
Y383940D01*
X190970Y392271D02*
Y388938D01*
X194302Y392271D01*
X195135D01*
X195968Y391437D01*
Y389771D01*
X195135Y388938D01*
X190970Y393937D02*
Y395603D01*
Y394770D01*
X195968D01*
X195135Y393937D01*
Y398102D02*
X195968Y398935D01*
Y400601D01*
X195135Y401434D01*
X191803D01*
X190970Y400601D01*
Y398935D01*
X191803Y398102D01*
X195135D01*
X35002Y677668D02*
Y679334D01*
Y678501D01*
X39167D01*
X40000Y679334D01*
Y680167D01*
X39167Y681000D01*
X35835Y676002D02*
X35002Y675169D01*
Y673502D01*
X35835Y672669D01*
X36668D01*
X37501Y673502D01*
X38334Y672669D01*
X39167D01*
X40000Y673502D01*
Y675169D01*
X39167Y676002D01*
X38334D01*
X37501Y675169D01*
X36668Y676002D01*
X35835D01*
X37501Y675169D02*
Y673502D01*
D228*
X497498Y76940D02*
D03*
X497498Y48942D02*
D03*
X317499Y48942D02*
D03*
X317499Y76940D02*
D03*
X137499Y48942D02*
D03*
X137499Y76940D02*
D03*
X137500Y178941D02*
D03*
X137500Y206939D02*
D03*
X317500Y178941D02*
D03*
X317500Y206939D02*
D03*
X497701Y178941D02*
D03*
X497701Y206939D02*
D03*
X496499Y336939D02*
D03*
X496499Y308941D02*
D03*
X317499Y308941D02*
D03*
Y336939D02*
D03*
X137500Y308941D02*
D03*
X137500Y336939D02*
D03*
X497500Y466939D02*
D03*
X497500Y438941D02*
D03*
X317500Y466939D02*
D03*
Y438941D02*
D03*
X137500Y438940D02*
D03*
Y466940D02*
D03*
D229*
X462500Y76940D02*
D03*
X462499Y48942D02*
D03*
X282500Y48942D02*
D03*
X282500Y76940D02*
D03*
X102500Y48942D02*
D03*
X102500Y76940D02*
D03*
X102501Y178941D02*
D03*
X102501Y206939D02*
D03*
X282501Y178941D02*
D03*
X282501Y206939D02*
D03*
X462702Y178941D02*
D03*
X462702Y206939D02*
D03*
X461501Y336939D02*
D03*
X461500Y308941D02*
D03*
X282501Y308941D02*
D03*
Y336939D02*
D03*
X102501Y308941D02*
D03*
X102501Y336939D02*
D03*
X462501Y466939D02*
D03*
X462500Y438941D02*
D03*
X282500Y466939D02*
D03*
Y438941D02*
D03*
X102500Y438940D02*
D03*
Y466940D02*
D03*
D230*
X58499Y621001D02*
D03*
X59499Y676999D02*
D03*
Y684999D02*
D03*
D231*
X58499Y629000D02*
D03*
D232*
X58499Y635501D02*
D03*
Y640500D02*
D03*
Y645500D02*
D03*
X58499Y650500D02*
D03*
X59499Y655500D02*
D03*
X59499Y660499D02*
D03*
Y665499D02*
D03*
Y670499D02*
D03*
D233*
X9500Y705499D02*
D03*
Y601501D02*
D03*
D234*
X49999Y704500D02*
D03*
Y600500D02*
D03*
M02*
