G04 Layer_Color=16711935*
%FSLAX44Y44*%
%MOMM*%
G71*
G01*
G75*
%ADD50C,0.2000*%
%ADD75C,0.0000*%
%ADD79C,0.5000*%
%ADD144C,1.8000*%
%ADD180C,1.0500*%
%ADD181C,0.1500*%
%ADD182O,2.3500X1.1500*%
%ADD183O,1.9500X1.1500*%
%ADD184C,2.5500*%
%ADD185R,1.3000X7.2000*%
%ADD186R,0.8500X0.8000*%
%ADD187C,0.9500*%
G04:AMPARAMS|DCode=188|XSize=3.2032mm|YSize=1.7032mm|CornerRadius=0.4766mm|HoleSize=0mm|Usage=FLASHONLY|Rotation=90.000|XOffset=0mm|YOffset=0mm|HoleType=Round|Shape=RoundedRectangle|*
%AMROUNDEDRECTD188*
21,1,3.2032,0.7500,0,0,90.0*
21,1,2.2500,1.7032,0,0,90.0*
1,1,0.9532,0.3750,1.1250*
1,1,0.9532,0.3750,-1.1250*
1,1,0.9532,-0.3750,-1.1250*
1,1,0.9532,-0.3750,1.1250*
%
%ADD188ROUNDEDRECTD188*%
%ADD189C,1.2000*%
%ADD190R,1.2501X0.7500*%
%ADD191R,1.2501X0.4500*%
G36*
X57427Y601928D02*
X59128Y600226D01*
X60049Y598003D01*
Y596800D01*
Y595597D01*
X59128Y593373D01*
X57427Y591672D01*
X55204Y590751D01*
X44796D01*
X42573Y591672D01*
X40871Y593373D01*
X39950Y595597D01*
Y596800D01*
Y598003D01*
X40871Y600226D01*
X42573Y601928D01*
X44796Y602849D01*
X55204D01*
X57427Y601928D01*
D02*
G37*
G36*
X19426D02*
X21128Y600226D01*
X22048Y598003D01*
Y596800D01*
Y595597D01*
X21128Y593373D01*
X19426Y591672D01*
X17203Y590751D01*
X2797D01*
X574Y591672D01*
X-1128Y593373D01*
X-2049Y595597D01*
Y596800D01*
Y598003D01*
X-1128Y600226D01*
X574Y601928D01*
X2797Y602849D01*
X17203D01*
X19426Y601928D01*
D02*
G37*
G36*
X57427Y714328D02*
X59128Y712626D01*
X60049Y710403D01*
Y709200D01*
Y707997D01*
X59128Y705773D01*
X57427Y704072D01*
X55204Y703151D01*
X44796D01*
X42573Y704072D01*
X40871Y705773D01*
X39950Y707997D01*
Y709200D01*
Y710403D01*
X40871Y712626D01*
X42573Y714328D01*
X44796Y715249D01*
X55204D01*
X57427Y714328D01*
D02*
G37*
G36*
X19426D02*
X21128Y712626D01*
X22048Y710403D01*
Y709200D01*
Y707997D01*
X21128Y705773D01*
X19426Y704072D01*
X17203Y703151D01*
X2797D01*
X574Y704072D01*
X-1128Y705773D01*
X-2049Y707997D01*
Y709200D01*
Y710403D01*
X-1128Y712626D01*
X574Y714328D01*
X2797Y715249D01*
X17203D01*
X19426Y714328D01*
D02*
G37*
D50*
X22001Y503001D02*
G03*
X2001Y523001I-20000J0D01*
G01*
X22001Y43000D02*
G03*
X75000Y-10000I53000J0D01*
G01*
X524999D02*
G03*
X577999Y43000I0J53000D01*
G01*
Y893000D02*
G03*
X524999Y946000I-53000J0D01*
G01*
X52000D02*
G03*
X22001Y916000I0J-30000D01*
G01*
X2001Y743001D02*
G03*
X22001Y763001I0J20000D01*
G01*
X51000Y606000D02*
G03*
X52039Y615891I0J5000D01*
G01*
X51997Y690100D02*
G03*
X51000Y700000I-997J4900D01*
G01*
X-5001Y605801D02*
X51000D01*
X-5001Y523001D02*
Y605801D01*
X52000Y615900D02*
Y690100D01*
X-5000Y700000D02*
X51000D01*
X-5001Y700001D02*
Y743001D01*
X577999Y43000D02*
Y893000D01*
X52000Y946000D02*
X524999D01*
X22001Y763001D02*
Y916000D01*
X-5000Y743001D02*
X2000D01*
X-5000Y523001D02*
X2001D01*
X22001Y43000D02*
Y503001D01*
X75000Y-10000D02*
X524999D01*
D75*
X15999Y593800D02*
G03*
X18999Y596800I0J3000D01*
G01*
D02*
G03*
X15999Y599800I-3000J0D01*
G01*
X4001D02*
G03*
X1001Y596800I0J-3000D01*
G01*
D02*
G03*
X4001Y593800I3000J0D01*
G01*
X54000Y706200D02*
G03*
X57000Y709200I0J3000D01*
G01*
D02*
G03*
X54000Y712200I-3000J0D01*
G01*
X45999D02*
G03*
X43000Y709200I0J-3000D01*
G01*
D02*
G03*
X45999Y706200I3000J0D01*
G01*
X54000Y593800D02*
G03*
X57000Y596800I0J3000D01*
G01*
D02*
G03*
X54000Y599800I-3000J0D01*
G01*
X45999D02*
G03*
X43000Y596800I0J-3000D01*
G01*
D02*
G03*
X45999Y593800I3000J0D01*
G01*
X15999Y706200D02*
G03*
X18999Y709200I0J3000D01*
G01*
D02*
G03*
X15999Y712200I-3000J0D01*
G01*
X4001D02*
G03*
X1001Y709200I0J-3000D01*
G01*
D02*
G03*
X4001Y706200I3000J0D01*
G01*
Y599800D02*
X15999D01*
X4001Y593800D02*
X15999D01*
X45999Y712200D02*
X54000D01*
X45999Y706200D02*
X54000D01*
X45999Y599800D02*
X54000D01*
X45999Y593800D02*
X54000D01*
X4001Y712200D02*
X15999D01*
X4001Y706200D02*
X15999D01*
D79*
X577000Y492000D02*
D03*
Y484000D02*
D03*
Y476000D02*
D03*
Y468000D02*
D03*
X22000D02*
D03*
Y476000D02*
D03*
Y484000D02*
D03*
Y492000D02*
D03*
D144*
X540000Y30000D02*
D03*
X49998Y920000D02*
D03*
Y30000D02*
D03*
X560000Y710000D02*
D03*
D180*
X172000Y425000D02*
D03*
X161840Y374200D02*
D03*
X182160D02*
D03*
D181*
X529970Y111200D02*
D03*
X115000Y836200D02*
D03*
X464000Y593000D02*
D03*
D182*
X10000Y596800D02*
D03*
Y709200D02*
D03*
D183*
X50000D02*
D03*
Y596800D02*
D03*
D184*
X174970Y128600D02*
D03*
X389970D02*
D03*
D185*
X61500Y653000D02*
D03*
D186*
X463499Y76691D02*
D03*
X496499D02*
D03*
Y49191D02*
D03*
X463499D02*
D03*
X316499Y49191D02*
D03*
X283499D02*
D03*
Y76691D02*
D03*
X316499D02*
D03*
X136500Y49191D02*
D03*
X103500D02*
D03*
Y76691D02*
D03*
X136500D02*
D03*
X136500Y179190D02*
D03*
X103500D02*
D03*
Y206690D02*
D03*
X136500D02*
D03*
X316500Y179190D02*
D03*
X283500D02*
D03*
Y206690D02*
D03*
X316500D02*
D03*
X496701Y179190D02*
D03*
X463701D02*
D03*
Y206690D02*
D03*
X496701D02*
D03*
X462500Y336690D02*
D03*
X495500D02*
D03*
Y309190D02*
D03*
X462500D02*
D03*
X316500Y309190D02*
D03*
X283500D02*
D03*
Y336690D02*
D03*
X316500D02*
D03*
X136500Y309190D02*
D03*
X103500D02*
D03*
Y336690D02*
D03*
X136500D02*
D03*
X463500Y466690D02*
D03*
X496500D02*
D03*
Y439190D02*
D03*
X463500D02*
D03*
X283500Y466690D02*
D03*
X316500D02*
D03*
Y439190D02*
D03*
X283500D02*
D03*
X136500Y439190D02*
D03*
X103500D02*
D03*
Y466690D02*
D03*
X136500D02*
D03*
D187*
X165650Y399600D02*
D03*
X178350Y386900D02*
D03*
X178350Y399600D02*
D03*
X165650Y412300D02*
D03*
X178350D02*
D03*
X165650Y386900D02*
D03*
D188*
X41000Y256000D02*
D03*
X42000Y505000D02*
D03*
D189*
X515000Y875000D02*
D03*
Y855000D02*
D03*
Y895000D02*
D03*
X60000Y280000D02*
D03*
X515000Y835000D02*
D03*
X60000Y460000D02*
D03*
Y340000D02*
D03*
Y360000D02*
D03*
Y420000D02*
D03*
Y440000D02*
D03*
Y380000D02*
D03*
Y400000D02*
D03*
Y300000D02*
D03*
X515000Y795000D02*
D03*
X60000Y320000D02*
D03*
X515000Y815000D02*
D03*
X60000Y500000D02*
D03*
Y480000D02*
D03*
X100000Y500000D02*
D03*
X80000D02*
D03*
X300000Y556000D02*
D03*
D190*
X61501Y621001D02*
D03*
Y628999D02*
D03*
Y677000D02*
D03*
Y684999D02*
D03*
D191*
Y635499D02*
D03*
Y640501D02*
D03*
Y645499D02*
D03*
Y650501D02*
D03*
Y655499D02*
D03*
Y660501D02*
D03*
Y665499D02*
D03*
Y670501D02*
D03*
M02*
