G04 Layer_Color=65535*
%FSLAX44Y44*%
%MOMM*%
G71*
G01*
G75*
%ADD48C,0.1500*%
%ADD50C,0.2000*%
%ADD51C,0.3000*%
%ADD53C,0.4000*%
%ADD75C,0.0000*%
%ADD94C,0.2540*%
%ADD95C,0.6000*%
%ADD96C,0.1000*%
%ADD97C,0.1999*%
%ADD98C,0.1270*%
%ADD99C,0.1200*%
%ADD100R,6.0000X6.0000*%
%ADD101R,0.9000X1.7000*%
G36*
X290722Y446740D02*
X291435Y446536D01*
X292250Y446332D01*
X293166Y445925D01*
X293981Y445416D01*
X294897Y444703D01*
X294999Y444601D01*
X295203Y444398D01*
X295712Y443889D01*
X295814Y443787D01*
X295916Y443583D01*
X296323Y442972D01*
X327075Y389716D01*
X327177Y389614D01*
X327279Y389308D01*
X327482Y388697D01*
X327788Y387985D01*
X327992Y387170D01*
X328093Y386152D01*
Y385133D01*
X327992Y384013D01*
Y383911D01*
X327890Y383708D01*
X327788Y383301D01*
X327686Y382893D01*
Y382791D01*
X327584Y382588D01*
X327381Y382282D01*
X327177Y381773D01*
X327075D01*
X326973Y381671D01*
X326770Y381366D01*
X326464Y380857D01*
X325955Y380347D01*
X325344Y379737D01*
X324631Y379126D01*
X323715Y378616D01*
X322696Y378209D01*
X322595D01*
X322289Y378107D01*
X321882Y378005D01*
X321474D01*
X321373Y377904D01*
X320965D01*
X320456Y377802D01*
X258443D01*
X257832Y377904D01*
X257119Y378107D01*
X256202Y378311D01*
X255286Y378718D01*
X254370Y379227D01*
X253453Y379940D01*
X253351Y380042D01*
X253148Y380246D01*
X252638Y380755D01*
X252537Y380857D01*
X252435Y381060D01*
X252027Y381773D01*
X251926Y381875D01*
X251824Y382180D01*
X251620Y382690D01*
X251315Y383402D01*
X251111Y384217D01*
X251009Y385133D01*
Y386152D01*
X251111Y387272D01*
Y387374D01*
X251213Y387679D01*
X251315Y388086D01*
X251416Y388392D01*
Y388494D01*
X251518Y388697D01*
X251722Y389003D01*
X251926Y389410D01*
Y389512D01*
Y389614D01*
X252027D01*
X282678Y442768D01*
Y442870D01*
X282882Y443074D01*
X283289Y443685D01*
X284103Y444601D01*
X285020Y445416D01*
X285224Y445518D01*
X285631Y445721D01*
X285733Y445823D01*
X285936Y445925D01*
X286344Y446129D01*
X286751Y446332D01*
X287362Y446536D01*
X288075Y446638D01*
X288788Y446842D01*
X290111D01*
X290722Y446740D01*
D02*
G37*
G36*
X155955Y125601D02*
X137068Y106899D01*
X134105Y72273D01*
X155955Y50701D01*
Y49127D01*
Y48572D01*
Y46442D01*
X133827Y68385D01*
X133642Y66440D01*
X133735D01*
X133827Y66348D01*
X134476Y65977D01*
X135216Y65329D01*
X136142Y64496D01*
X136975Y63292D01*
X137623Y61904D01*
X137809Y61070D01*
X137901Y60237D01*
Y59219D01*
X137809Y58200D01*
Y58108D01*
X137716Y57923D01*
Y57645D01*
X137531Y57275D01*
X137161Y56349D01*
X136512Y55238D01*
X135679Y54127D01*
X134476Y53108D01*
X133735Y52738D01*
X132994Y52368D01*
X132069Y52090D01*
X131050Y51905D01*
X130124D01*
X129106Y51997D01*
X127902Y52275D01*
X126606Y52738D01*
X125958Y53201D01*
X125310Y53664D01*
X124662Y54219D01*
X124106Y54868D01*
X123551Y55701D01*
X123088Y56627D01*
X107441D01*
Y54127D01*
Y54034D01*
Y53756D01*
X107349Y53386D01*
X107164Y53016D01*
X106886Y52553D01*
X106423Y52183D01*
X105868Y51905D01*
X105034Y51812D01*
X104664D01*
X104294Y51905D01*
X103923Y52090D01*
X103460Y52368D01*
X103090Y52831D01*
X102812Y53386D01*
X102720Y54127D01*
Y56627D01*
X101053D01*
X99942Y70051D01*
X77907Y48201D01*
Y52368D01*
X99572Y73847D01*
X96980Y105048D01*
X77907Y123934D01*
Y128008D01*
X96517Y109584D01*
X95961Y115695D01*
X93461D01*
Y118842D01*
X95776D01*
Y118935D01*
X95869Y119305D01*
X96054Y119861D01*
X96331Y120416D01*
X96702Y121157D01*
X97165Y121898D01*
X97905Y122638D01*
X98739Y123379D01*
X99294Y123842D01*
X99387D01*
X99479Y123934D01*
X99757Y124027D01*
X100035Y124212D01*
X100498Y124397D01*
X101053Y124675D01*
X101701Y124860D01*
X102442Y125138D01*
X103275Y125323D01*
X104201Y125601D01*
X105219Y125879D01*
X106330Y126064D01*
X107534Y126249D01*
X108923Y126434D01*
X110311Y126619D01*
X111885Y126712D01*
Y128378D01*
X124569D01*
Y126712D01*
X125310D01*
X125958Y126619D01*
X126606Y126527D01*
X127439Y126434D01*
X129291Y126249D01*
X131328Y125786D01*
X133457Y125231D01*
X135587Y124490D01*
X137531Y123471D01*
X138642D01*
X139290Y123379D01*
X140031Y123101D01*
X140679Y122546D01*
X141234Y121805D01*
X141604Y120787D01*
Y120601D01*
X141697Y120231D01*
X141604Y119676D01*
X141512Y119028D01*
X141327Y118287D01*
X140864Y117546D01*
X140123Y116991D01*
X139105Y116528D01*
Y115695D01*
X137809D01*
X137438Y111436D01*
X155955Y129767D01*
Y125601D01*
D02*
G37*
G36*
X137068Y37277D02*
X95961D01*
Y43202D01*
X137068D01*
Y37277D01*
D02*
G37*
G36*
X234828Y133285D02*
X235384D01*
X236865Y133193D01*
X238624Y132915D01*
X240661Y132637D01*
X242975Y132174D01*
X245475Y131526D01*
X248160Y130786D01*
X250938Y129860D01*
X253808Y128656D01*
X256770Y127267D01*
X259733Y125601D01*
X262696Y123657D01*
X265566Y121435D01*
X268343Y118842D01*
X268528Y118657D01*
X268991Y118194D01*
X269732Y117361D01*
X270658Y116250D01*
X271676Y114861D01*
X272972Y113195D01*
X274268Y111250D01*
X275657Y109029D01*
X276953Y106621D01*
X278249Y103937D01*
X279546Y101066D01*
X280657Y98011D01*
X281583Y94678D01*
X282231Y91253D01*
X282694Y87642D01*
X282879Y83846D01*
Y83753D01*
Y83661D01*
Y83291D01*
Y82920D01*
X282786Y82457D01*
Y81902D01*
X282694Y80420D01*
X282416Y78661D01*
X282138Y76624D01*
X281675Y74310D01*
X281027Y71810D01*
X280286Y69125D01*
X279361Y66255D01*
X278157Y63385D01*
X276768Y60423D01*
X275102Y57460D01*
X273157Y54497D01*
X270935Y51627D01*
X268343Y48850D01*
X268158Y48664D01*
X267695Y48201D01*
X266862Y47553D01*
X265751Y46628D01*
X264362Y45517D01*
X262696Y44313D01*
X260751Y43017D01*
X258529Y41628D01*
X256122Y40239D01*
X253437Y38943D01*
X250567Y37740D01*
X247512Y36629D01*
X244272Y35703D01*
X240846Y35055D01*
X237235Y34592D01*
X233439Y34407D01*
X232514D01*
X232051Y34499D01*
X231495D01*
X230014Y34592D01*
X228255Y34870D01*
X226218Y35147D01*
X223903Y35610D01*
X221311Y36258D01*
X218626Y36999D01*
X215849Y37925D01*
X212978Y39128D01*
X209923Y40517D01*
X206961Y42184D01*
X203998Y44128D01*
X201128Y46350D01*
X198350Y48850D01*
X198165Y49035D01*
X197702Y49498D01*
X197054Y50331D01*
X196128Y51442D01*
X195017Y52831D01*
X193814Y54497D01*
X192518Y56441D01*
X191129Y58663D01*
X189740Y61070D01*
X188444Y63755D01*
X187240Y66625D01*
X186129Y69681D01*
X185204Y73014D01*
X184555Y76439D01*
X184093Y80050D01*
X183907Y83846D01*
Y83939D01*
Y84124D01*
Y84402D01*
Y84772D01*
X184000Y85235D01*
Y85883D01*
X184093Y87271D01*
X184370Y89031D01*
X184648Y91160D01*
X185111Y93382D01*
X185759Y95974D01*
X186500Y98659D01*
X187426Y101437D01*
X188629Y104307D01*
X190018Y107269D01*
X191684Y110232D01*
X193629Y113195D01*
X195851Y116065D01*
X198350Y118842D01*
X198535Y119028D01*
X198998Y119490D01*
X199832Y120231D01*
X200943Y121157D01*
X202331Y122175D01*
X203998Y123471D01*
X205942Y124768D01*
X208164Y126156D01*
X210664Y127453D01*
X213349Y128749D01*
X216219Y130045D01*
X219274Y131156D01*
X222607Y132082D01*
X226033Y132730D01*
X229643Y133193D01*
X233439Y133378D01*
X234365D01*
X234828Y133285D01*
D02*
G37*
G36*
X156765Y442823D02*
X154177D01*
Y443059D01*
X153941D01*
Y442823D01*
X153706D01*
Y443059D01*
X153471D01*
Y442823D01*
X150647D01*
Y442588D01*
X149471D01*
Y442353D01*
X148294D01*
Y442118D01*
X147588D01*
Y441882D01*
X146882D01*
Y441647D01*
X146177D01*
Y441412D01*
X145706D01*
Y441176D01*
X145235D01*
Y440941D01*
X144529D01*
Y440706D01*
X144294D01*
Y440471D01*
X143823D01*
Y440235D01*
X143353D01*
Y440000D01*
X142882D01*
Y439765D01*
X142647D01*
Y439529D01*
X142176D01*
Y439294D01*
X141941D01*
Y439059D01*
X141471D01*
Y438824D01*
X141235D01*
Y438588D01*
X141000D01*
Y438353D01*
X140529D01*
Y438118D01*
X140294D01*
Y437882D01*
X140059D01*
Y437647D01*
X139824D01*
Y437412D01*
X139588D01*
Y437177D01*
X139353D01*
Y436941D01*
X139118D01*
Y436706D01*
X138882D01*
Y436471D01*
X138647D01*
Y436235D01*
X138412D01*
Y436000D01*
X138176D01*
Y435765D01*
X137941D01*
Y435529D01*
X137706D01*
Y435059D01*
X137471D01*
Y434823D01*
X137235D01*
Y434588D01*
X137000D01*
Y434118D01*
X136765D01*
Y433882D01*
X136529D01*
Y433647D01*
X136294D01*
Y433176D01*
X136059D01*
Y432706D01*
X135823D01*
Y432471D01*
X135588D01*
Y432000D01*
X135353D01*
Y431529D01*
X135118D01*
Y431059D01*
X134882D01*
Y430353D01*
X134647D01*
Y429882D01*
X134412D01*
Y429176D01*
X134177D01*
Y428471D01*
X133941D01*
Y427765D01*
X133706D01*
Y426588D01*
X150882D01*
Y417882D01*
X133706D01*
Y417647D01*
X133471D01*
Y417412D01*
X133706D01*
Y416706D01*
X133941D01*
Y415765D01*
X134177D01*
Y415059D01*
X134412D01*
Y414588D01*
X134647D01*
Y413882D01*
X134882D01*
Y413412D01*
X135118D01*
Y412941D01*
X135353D01*
Y412471D01*
X135588D01*
Y412000D01*
X135823D01*
Y411765D01*
X136059D01*
Y411294D01*
X136294D01*
Y410824D01*
X136529D01*
Y410588D01*
X136765D01*
Y410353D01*
X137000D01*
Y409882D01*
X137235D01*
Y409647D01*
X137471D01*
Y409412D01*
X137706D01*
Y408941D01*
X137941D01*
Y408706D01*
X138176D01*
Y408471D01*
X138412D01*
Y408235D01*
X138647D01*
Y408000D01*
X138882D01*
Y407765D01*
X139118D01*
Y407529D01*
X139353D01*
Y407294D01*
X139588D01*
Y407059D01*
X139824D01*
Y406824D01*
X140059D01*
Y406588D01*
X140294D01*
Y406353D01*
X140529D01*
Y406118D01*
X141000D01*
Y405882D01*
X141235D01*
Y405647D01*
X141471D01*
Y405412D01*
X141941D01*
Y405177D01*
X142176D01*
Y404941D01*
X142647D01*
Y404706D01*
X142882D01*
Y404471D01*
X143353D01*
Y404235D01*
X143823D01*
Y404000D01*
X144059D01*
Y403765D01*
X144529D01*
Y403529D01*
X145000D01*
Y403294D01*
X145706D01*
Y403059D01*
X146177D01*
Y402823D01*
X146882D01*
Y402588D01*
X147588D01*
Y402353D01*
X148294D01*
Y402118D01*
X149235D01*
Y401882D01*
X150647D01*
Y401647D01*
X152765D01*
Y401412D01*
X154647D01*
Y401647D01*
X156765D01*
Y392706D01*
X150412D01*
Y392941D01*
X148765D01*
Y393176D01*
X147588D01*
Y393412D01*
X146412D01*
Y393647D01*
X145706D01*
Y393882D01*
X144765D01*
Y394118D01*
X144059D01*
Y394353D01*
X143353D01*
Y394588D01*
X142882D01*
Y394823D01*
X142176D01*
Y395059D01*
X141706D01*
Y395294D01*
X141235D01*
Y395529D01*
X140765D01*
Y395765D01*
X140294D01*
Y396000D01*
X139824D01*
Y396235D01*
X139353D01*
Y396471D01*
X138882D01*
Y396706D01*
X138647D01*
Y396941D01*
X138176D01*
Y397177D01*
X137706D01*
Y397412D01*
X137471D01*
Y397647D01*
X137000D01*
Y397882D01*
X136765D01*
Y398118D01*
X136529D01*
Y398353D01*
X136059D01*
Y398588D01*
X135823D01*
Y398824D01*
X135588D01*
Y399059D01*
X135118D01*
Y399294D01*
X134882D01*
Y399529D01*
X134647D01*
Y399765D01*
X134412D01*
Y400000D01*
X134177D01*
Y400235D01*
X133941D01*
Y400471D01*
X133471D01*
Y400706D01*
X133235D01*
Y400941D01*
X133000D01*
Y401176D01*
X132765D01*
Y401412D01*
X132529D01*
Y401647D01*
X132294D01*
Y401882D01*
X132059D01*
Y402353D01*
X131824D01*
Y402588D01*
X131588D01*
Y402823D01*
X131353D01*
Y403059D01*
X131118D01*
Y403294D01*
X130882D01*
Y403529D01*
X130647D01*
Y404000D01*
X130412D01*
Y404235D01*
X130176D01*
Y404471D01*
X129941D01*
Y404941D01*
X129706D01*
Y405177D01*
X129471D01*
Y405412D01*
X129235D01*
Y405882D01*
X129000D01*
Y406118D01*
X128765D01*
Y406588D01*
X128529D01*
Y407059D01*
X128294D01*
Y407294D01*
X128059D01*
Y407765D01*
X127823D01*
Y408235D01*
X127588D01*
Y408706D01*
X127353D01*
Y409176D01*
X127118D01*
Y409647D01*
X126882D01*
Y410118D01*
X126647D01*
Y410588D01*
X126412D01*
Y411294D01*
X126177D01*
Y411765D01*
X125941D01*
Y412471D01*
X125706D01*
Y413176D01*
X125471D01*
Y413882D01*
X125235D01*
Y414823D01*
X125000D01*
Y415765D01*
X124765D01*
Y416941D01*
X124529D01*
Y418353D01*
X124294D01*
Y421412D01*
X124059D01*
Y422823D01*
X124294D01*
Y426118D01*
X124529D01*
Y427529D01*
X124765D01*
Y428706D01*
X125000D01*
Y429647D01*
X125235D01*
Y430588D01*
X125471D01*
Y431294D01*
X125706D01*
Y432000D01*
X125941D01*
Y432706D01*
X126177D01*
Y433176D01*
X126412D01*
Y433882D01*
X126647D01*
Y434353D01*
X126882D01*
Y434823D01*
X127118D01*
Y435294D01*
X127353D01*
Y435765D01*
X127588D01*
Y436235D01*
X127823D01*
Y436706D01*
X128059D01*
Y437177D01*
X128294D01*
Y437412D01*
X128529D01*
Y437882D01*
X128765D01*
Y438353D01*
X129000D01*
Y438588D01*
X129235D01*
Y439059D01*
X129471D01*
Y439294D01*
X129706D01*
Y439529D01*
X129941D01*
Y440000D01*
X130176D01*
Y440235D01*
X130412D01*
Y440471D01*
X130647D01*
Y440941D01*
X130882D01*
Y441176D01*
X131118D01*
Y441412D01*
X131353D01*
Y441647D01*
X131588D01*
Y441882D01*
X131824D01*
Y442118D01*
X132059D01*
Y442353D01*
X132294D01*
Y442823D01*
X132529D01*
Y443059D01*
X132765D01*
Y443294D01*
X133000D01*
Y443529D01*
X133471D01*
Y443765D01*
X133706D01*
Y444000D01*
X133941D01*
Y444235D01*
X134177D01*
Y444471D01*
X134412D01*
Y444706D01*
X134647D01*
Y444941D01*
X134882D01*
Y445177D01*
X135353D01*
Y445412D01*
X135588D01*
Y445647D01*
X135823D01*
Y445882D01*
X136059D01*
Y446118D01*
X136529D01*
Y446353D01*
X136765D01*
Y446588D01*
X137235D01*
Y446824D01*
X137471D01*
Y447059D01*
X137941D01*
Y447294D01*
X138176D01*
Y447529D01*
X138647D01*
Y447765D01*
X139118D01*
Y448000D01*
X139353D01*
Y448235D01*
X139824D01*
Y448471D01*
X140294D01*
Y448706D01*
X140765D01*
Y448941D01*
X141235D01*
Y449176D01*
X141706D01*
Y449412D01*
X142412D01*
Y449647D01*
X142882D01*
Y449882D01*
X143588D01*
Y450118D01*
X144294D01*
Y450353D01*
X145000D01*
Y450588D01*
X145706D01*
Y450824D01*
X146647D01*
Y451059D01*
X147588D01*
Y451294D01*
X148765D01*
Y451529D01*
X150647D01*
Y451765D01*
X156765D01*
Y442823D01*
D02*
G37*
G36*
X106412Y451529D02*
X106647D01*
Y442823D01*
X103823D01*
Y443059D01*
X103118D01*
Y442823D01*
X100294D01*
Y442588D01*
X99118D01*
Y442353D01*
X98176D01*
Y442118D01*
X97235D01*
Y441882D01*
X96529D01*
Y441647D01*
X95823D01*
Y441412D01*
X95353D01*
Y441176D01*
X94882D01*
Y440941D01*
X94412D01*
Y440706D01*
X93941D01*
Y440471D01*
X93471D01*
Y440235D01*
X93000D01*
Y440000D01*
X92529D01*
Y439765D01*
X92294D01*
Y439529D01*
X91824D01*
Y439294D01*
X91588D01*
Y439059D01*
X91118D01*
Y438824D01*
X90882D01*
Y438588D01*
X90647D01*
Y438353D01*
X90176D01*
Y438118D01*
X89941D01*
Y437882D01*
X89706D01*
Y437647D01*
X89471D01*
Y437412D01*
X89235D01*
Y437177D01*
X89000D01*
Y436941D01*
X88765D01*
Y436706D01*
X88529D01*
Y436471D01*
X88294D01*
Y436235D01*
X88059D01*
Y436000D01*
X87823D01*
Y435765D01*
X87588D01*
Y435529D01*
X87353D01*
Y435059D01*
X87118D01*
Y434823D01*
X86882D01*
Y434588D01*
X86647D01*
Y434118D01*
X86412D01*
Y433882D01*
X86177D01*
Y433412D01*
X85941D01*
Y433176D01*
X85706D01*
Y432706D01*
X85471D01*
Y432235D01*
X85235D01*
Y432000D01*
X85000D01*
Y431529D01*
X84765D01*
Y431059D01*
X84529D01*
Y430353D01*
X84294D01*
Y429882D01*
X84059D01*
Y429176D01*
X83823D01*
Y428471D01*
X83588D01*
Y427765D01*
X83353D01*
Y426824D01*
X83118D01*
Y425647D01*
X82882D01*
Y423529D01*
X82647D01*
Y420941D01*
X82882D01*
Y418824D01*
X83118D01*
Y417647D01*
X83353D01*
Y416706D01*
X83588D01*
Y416000D01*
X83823D01*
Y415294D01*
X84059D01*
Y414588D01*
X84294D01*
Y414118D01*
X84529D01*
Y413412D01*
X84765D01*
Y412941D01*
X85000D01*
Y412471D01*
X85235D01*
Y412235D01*
X85471D01*
Y411765D01*
X85706D01*
Y411294D01*
X85941D01*
Y411059D01*
X86177D01*
Y410588D01*
X86412D01*
Y410353D01*
X86647D01*
Y410118D01*
Y409882D01*
X86882D01*
Y409647D01*
X87118D01*
Y409412D01*
X87353D01*
Y408941D01*
X87588D01*
Y408706D01*
X87823D01*
Y408471D01*
X88059D01*
Y408235D01*
X88294D01*
Y408000D01*
X88529D01*
Y407765D01*
X88765D01*
Y407529D01*
X89000D01*
Y407294D01*
X89235D01*
Y407059D01*
X89471D01*
Y406824D01*
X89706D01*
Y406588D01*
X89941D01*
Y406353D01*
X90176D01*
Y406118D01*
X90647D01*
Y405882D01*
X90882D01*
Y405647D01*
X91118D01*
Y405412D01*
X91588D01*
Y405177D01*
X91824D01*
Y404941D01*
X92294D01*
Y404706D01*
X92529D01*
Y404471D01*
X93000D01*
Y404235D01*
X93471D01*
Y404000D01*
X93706D01*
Y403765D01*
X94177D01*
Y403529D01*
X94647D01*
Y403294D01*
X95353D01*
Y403059D01*
X95823D01*
Y402823D01*
X96529D01*
Y402588D01*
X97235D01*
Y402353D01*
X97941D01*
Y402118D01*
X98882D01*
Y401882D01*
X100294D01*
Y401647D01*
X102412D01*
Y401412D01*
X104294D01*
Y401647D01*
X106647D01*
Y392706D01*
X100059D01*
Y392941D01*
X98412D01*
Y393176D01*
X97235D01*
Y393412D01*
X96059D01*
Y393647D01*
X95353D01*
Y393882D01*
X94412D01*
Y394118D01*
X93706D01*
Y394353D01*
X93235D01*
Y394588D01*
X92529D01*
Y394823D01*
X92059D01*
Y395059D01*
X91353D01*
Y395294D01*
X90882D01*
Y395529D01*
X90412D01*
Y395765D01*
X89941D01*
Y396000D01*
X89471D01*
Y396235D01*
X89000D01*
Y396471D01*
X88765D01*
Y396706D01*
X88294D01*
Y396941D01*
X87823D01*
Y397177D01*
X87588D01*
Y397412D01*
X87118D01*
Y397647D01*
X86882D01*
Y397882D01*
X86412D01*
Y398118D01*
X86177D01*
Y398353D01*
X85706D01*
Y398588D01*
X85471D01*
Y398824D01*
X85235D01*
Y399059D01*
X84765D01*
Y399294D01*
X84529D01*
Y399529D01*
X84294D01*
Y399765D01*
X84059D01*
Y400000D01*
X83823D01*
Y400235D01*
X83588D01*
Y400471D01*
X83353D01*
Y400706D01*
X82882D01*
Y400941D01*
X82647D01*
Y401176D01*
X82412D01*
Y401412D01*
X82177D01*
Y401882D01*
X81941D01*
Y402118D01*
X81706D01*
Y402353D01*
X81471D01*
Y402588D01*
X81235D01*
Y402823D01*
X81000D01*
Y403059D01*
X80765D01*
Y403294D01*
X80529D01*
Y403529D01*
X80294D01*
Y404000D01*
X80059D01*
Y404235D01*
X79823D01*
Y404471D01*
X79588D01*
Y404941D01*
X79353D01*
Y405177D01*
X79118D01*
Y405412D01*
X78882D01*
Y405882D01*
X78647D01*
Y406118D01*
X78412D01*
Y406588D01*
X78176D01*
Y407059D01*
X77941D01*
Y407294D01*
X77706D01*
Y407765D01*
X77471D01*
Y408235D01*
X77235D01*
Y408706D01*
X77000D01*
Y409176D01*
X76765D01*
Y409647D01*
X76529D01*
Y410118D01*
X76294D01*
Y410588D01*
X76059D01*
Y411294D01*
X75823D01*
Y411765D01*
X75588D01*
Y412471D01*
X75353D01*
Y413176D01*
X75118D01*
Y413882D01*
X74882D01*
Y414823D01*
X74647D01*
Y415765D01*
X74412D01*
Y416941D01*
X74177D01*
Y418588D01*
X73941D01*
Y425882D01*
X74177D01*
Y427529D01*
X74412D01*
Y428706D01*
X74647D01*
Y429647D01*
X74882D01*
Y430353D01*
X75118D01*
Y431294D01*
X75353D01*
Y432000D01*
X75588D01*
Y432471D01*
X75823D01*
Y433176D01*
X76059D01*
Y433882D01*
X76294D01*
Y434353D01*
X76529D01*
Y434823D01*
X76765D01*
Y435294D01*
X77000D01*
Y435765D01*
X77235D01*
Y436235D01*
X77471D01*
Y436706D01*
X77706D01*
Y436941D01*
X77941D01*
Y437412D01*
X78176D01*
Y437882D01*
X78412D01*
Y438118D01*
X78647D01*
Y438588D01*
X78882D01*
Y438824D01*
X79118D01*
Y439294D01*
X79353D01*
Y439529D01*
X79588D01*
Y440000D01*
X79823D01*
Y440235D01*
X80059D01*
Y440471D01*
X80294D01*
Y440706D01*
X80529D01*
Y441176D01*
X80765D01*
Y441412D01*
X81000D01*
Y441647D01*
X81235D01*
Y441882D01*
X81471D01*
Y442118D01*
X81706D01*
Y442353D01*
X81941D01*
Y442588D01*
X82177D01*
Y442823D01*
X82412D01*
Y443294D01*
X82882D01*
Y443529D01*
X83118D01*
Y443765D01*
X83353D01*
Y444000D01*
X83588D01*
Y444235D01*
X83823D01*
Y444471D01*
X84059D01*
Y444706D01*
X84294D01*
Y444941D01*
X84529D01*
Y445177D01*
X85000D01*
Y445412D01*
X85235D01*
Y445647D01*
X85471D01*
Y445882D01*
X85706D01*
Y446118D01*
X86177D01*
Y446353D01*
X86412D01*
Y446588D01*
X86882D01*
Y446824D01*
X87118D01*
Y447059D01*
X87588D01*
Y447294D01*
X87823D01*
Y447529D01*
X88294D01*
Y447765D01*
X88765D01*
Y448000D01*
X89000D01*
Y448235D01*
X89471D01*
Y448471D01*
X89941D01*
Y448706D01*
X90412D01*
Y448941D01*
X90882D01*
Y449176D01*
X91353D01*
Y449412D01*
X92059D01*
Y449647D01*
X92529D01*
Y449882D01*
X93235D01*
Y450118D01*
X93941D01*
Y450353D01*
X94647D01*
Y450588D01*
X95353D01*
Y450824D01*
X96294D01*
Y451059D01*
X97235D01*
Y451294D01*
X98647D01*
Y451529D01*
X100294D01*
Y451765D01*
X106412D01*
Y451529D01*
D02*
G37*
%LPC*%
G36*
X270357Y412627D02*
X256610Y388901D01*
Y388799D01*
Y388697D01*
X256508Y388596D01*
X256406Y388188D01*
X256304Y388086D01*
X256202Y387577D01*
Y387476D01*
Y387272D01*
X256101Y386966D01*
Y386559D01*
X256202Y385643D01*
X256610Y384624D01*
X256712D01*
X256813Y384421D01*
X257017Y384115D01*
X257119Y384013D01*
X257424Y383606D01*
X257526D01*
X257628Y383402D01*
X258239Y383097D01*
X259155Y382690D01*
X259766Y382588D01*
X260377Y382486D01*
X318827D01*
Y382588D01*
X319540D01*
X319743Y382690D01*
X320151D01*
X320456Y382893D01*
X321169Y383301D01*
X297036Y397251D01*
X296934Y397149D01*
X296730Y396945D01*
X296323Y396640D01*
X295916Y396233D01*
X296017Y396131D01*
X296221Y396029D01*
X296628Y395622D01*
X297138Y395113D01*
X297239Y395011D01*
X297341Y394909D01*
X297545Y394604D01*
X297647Y394094D01*
X297749Y393585D01*
Y393483D01*
X297647Y393178D01*
X297545Y392771D01*
X297443Y392261D01*
X297341Y392160D01*
X297239Y391854D01*
X297138Y391752D01*
X296730Y391549D01*
X296119Y391243D01*
X295203Y391141D01*
X294694D01*
Y391040D01*
X294795Y390734D01*
Y390225D01*
X294694Y389716D01*
Y389614D01*
Y389512D01*
X294592Y389207D01*
X294490Y389003D01*
X294286Y388799D01*
X294184Y388697D01*
X294083Y388596D01*
X293981Y388494D01*
X293573Y388188D01*
X292962Y387985D01*
X292148Y387883D01*
X291944D01*
X291537Y387985D01*
X290926Y388188D01*
X290315Y388596D01*
X290213Y388494D01*
X289908Y388086D01*
X289500Y387577D01*
X288991Y387170D01*
X288889D01*
X288788Y386966D01*
X288482Y386865D01*
X288075Y386661D01*
X287973D01*
X287769Y386559D01*
X287057Y386355D01*
X285733D01*
X285325Y386457D01*
X284816Y386661D01*
X284409Y386966D01*
Y387068D01*
X284205Y387170D01*
X284002Y387476D01*
X283798Y387781D01*
X283594Y388290D01*
X283391Y388901D01*
X283289Y389512D01*
X283187Y390327D01*
Y390429D01*
Y390530D01*
Y390632D01*
Y390734D01*
Y391141D01*
X283289Y391650D01*
X283391Y392261D01*
X283289Y392363D01*
X283085Y392567D01*
X282576Y392872D01*
X282474Y392974D01*
X282372Y393076D01*
X281965Y393280D01*
Y393178D01*
X282067Y392872D01*
X282271Y392363D01*
X282372Y391752D01*
X282576Y390530D01*
X282678Y389919D01*
Y389512D01*
Y389410D01*
Y389308D01*
X282474Y388596D01*
X282067Y387781D01*
X281761Y387374D01*
X281354Y386966D01*
X281252Y386865D01*
X281049Y386763D01*
X280336Y386355D01*
X280234D01*
X279928Y386254D01*
X279521Y386152D01*
X278910D01*
X278503Y386355D01*
X277790Y386661D01*
X277179Y387272D01*
X277077Y387476D01*
X276874Y387679D01*
X276772Y387985D01*
X276466Y388392D01*
X276263Y388901D01*
X275957Y389614D01*
X275652Y390429D01*
Y390530D01*
Y390632D01*
X275550Y390734D01*
Y390836D01*
Y390938D01*
X275448Y391141D01*
X275244Y391650D01*
X275041Y391956D01*
X274837Y392465D01*
Y392567D01*
X274735Y392669D01*
X274532Y393280D01*
X274328Y393891D01*
X274124Y394502D01*
Y394604D01*
X273921Y395113D01*
X273819Y395520D01*
Y395927D01*
X273717Y396538D01*
X273615Y397251D01*
Y397353D01*
Y397556D01*
X273513Y397862D01*
X273411Y398269D01*
X273310Y399186D01*
X273106Y400000D01*
Y400102D01*
Y400204D01*
X273004Y400306D01*
X272902Y400713D01*
X272801Y401120D01*
Y401222D01*
X272699Y401528D01*
X272597Y402037D01*
X272495Y402648D01*
X272291Y403870D01*
Y404481D01*
X272393Y404990D01*
Y405092D01*
X272597Y405499D01*
X272902Y406212D01*
X273310Y407128D01*
Y407230D01*
X273411Y407434D01*
X273615Y407841D01*
X273819Y408248D01*
X274124Y409369D01*
X274328Y410387D01*
X270357Y412627D01*
D02*
G37*
G36*
X285020Y404175D02*
Y404073D01*
X284816Y403972D01*
X284511Y403361D01*
Y403259D01*
Y403055D01*
X284409Y402648D01*
Y402241D01*
Y402139D01*
Y401935D01*
Y401324D01*
Y400713D01*
Y400509D01*
Y400408D01*
Y400204D01*
Y399797D01*
X284511Y399288D01*
X284613Y398778D01*
Y398677D01*
X284714Y398371D01*
X284816Y398167D01*
X284918Y397964D01*
Y397862D01*
X285122Y397556D01*
X285325Y397047D01*
X285733Y396436D01*
Y396538D01*
X285835Y396640D01*
X285936Y396742D01*
X286038Y396844D01*
X286242Y397047D01*
X286649Y397455D01*
X287260Y398066D01*
X287973Y398677D01*
X287871Y398778D01*
X287769Y398982D01*
X287464Y399491D01*
X287158Y400102D01*
X287057Y400306D01*
Y400408D01*
X286955Y400713D01*
X286853Y401120D01*
X286751Y401630D01*
Y401731D01*
Y402037D01*
X286853Y402546D01*
X286955Y403055D01*
X285020Y404175D01*
D02*
G37*
G36*
X282271Y405703D02*
Y405601D01*
X282169Y405194D01*
X281863Y404583D01*
X281354Y403768D01*
X281252Y403666D01*
X281049Y403259D01*
X280743Y402750D01*
X280641Y402342D01*
Y402241D01*
Y401833D01*
X280743Y401222D01*
X280845Y400713D01*
X281049Y400102D01*
Y400000D01*
X281150Y399797D01*
X281252Y399491D01*
X281354Y399084D01*
X281558Y398167D01*
Y397862D01*
Y397556D01*
Y397353D01*
X281456Y396945D01*
X281354Y396233D01*
Y395418D01*
Y395214D01*
X281456Y395113D01*
X281558D01*
X281660Y395011D01*
X281863Y394909D01*
X282067Y394705D01*
X282169D01*
X282271Y394604D01*
X282474Y394400D01*
X282576Y394298D01*
X282780Y394094D01*
X283187Y393891D01*
X283289D01*
X283391Y393687D01*
X283798Y393483D01*
X283900Y393687D01*
X284103Y394094D01*
X284409Y394705D01*
X284918Y395520D01*
X284816Y395724D01*
X284613Y396131D01*
X284205Y396742D01*
X283900Y397455D01*
Y397556D01*
X283798Y397760D01*
X283696Y397964D01*
X283594D01*
Y398066D01*
Y398167D01*
X283493Y398473D01*
Y398575D01*
Y398677D01*
X283391Y398982D01*
X283289Y399593D01*
Y400408D01*
Y400509D01*
Y400713D01*
Y401222D01*
Y401324D01*
Y401528D01*
Y402241D01*
Y402342D01*
Y402750D01*
Y403157D01*
X283391Y403666D01*
Y403768D01*
X283594Y404073D01*
X284002Y404786D01*
X282271Y405703D01*
D02*
G37*
G36*
X294999Y395622D02*
X294897D01*
X294795Y395520D01*
X294388Y395316D01*
X293981Y395011D01*
X293675Y394807D01*
X293573Y394705D01*
X293268Y394400D01*
X292861Y393891D01*
X292453Y393280D01*
Y393178D01*
X292352Y393076D01*
Y392974D01*
X292453D01*
X292555Y392872D01*
X293064Y392567D01*
X293268D01*
X293675Y392465D01*
X294286Y392363D01*
X295101Y392261D01*
X295610D01*
X296017Y392363D01*
X296323Y392567D01*
Y392669D01*
Y392771D01*
X296425Y393076D01*
X296527Y393382D01*
Y393585D01*
Y393687D01*
Y393789D01*
Y393993D01*
X296323Y394196D01*
Y394298D01*
X296221D01*
Y394400D01*
Y394502D01*
X296017Y394604D01*
X295712Y395011D01*
X295203Y395418D01*
X294999Y395622D01*
D02*
G37*
G36*
X289602Y441648D02*
X289398D01*
X288889Y441546D01*
X288177Y441445D01*
X287362Y441037D01*
X287260Y440936D01*
X287158Y440834D01*
X287057D01*
X286955Y440732D01*
X286649Y440426D01*
X286242Y440019D01*
X285835Y439408D01*
X272088Y415580D01*
X276568Y413034D01*
X276670Y413136D01*
X276874Y413442D01*
X277383Y413849D01*
X277994Y414358D01*
X278096Y414460D01*
X278503Y414664D01*
X279012Y415071D01*
X279725Y415478D01*
X279827Y415580D01*
X280132Y415784D01*
X280234D01*
X280336Y415886D01*
X280641Y416089D01*
X280743D01*
X280845Y416191D01*
X281252Y416497D01*
X281761Y416802D01*
X282067Y417006D01*
X282169Y417108D01*
X282474Y417311D01*
X282983Y417617D01*
X283696Y418024D01*
X285224Y418941D01*
X286038Y419348D01*
X286853Y419653D01*
X286955D01*
X287260Y419755D01*
X287769Y419959D01*
X288380Y420061D01*
X289093Y420162D01*
X290009Y420264D01*
X291028Y420366D01*
X292250D01*
X292759Y420264D01*
X294592D01*
X295508Y420162D01*
X297341D01*
X297749Y420264D01*
X298665Y420468D01*
X299785Y420773D01*
X303247Y422199D01*
X293268Y439510D01*
X293166D01*
X293064Y439612D01*
X292861Y440019D01*
Y440121D01*
X292657Y440223D01*
X292453Y440426D01*
X292352Y440528D01*
X292250Y440630D01*
X291639Y441037D01*
X290722Y441343D01*
X290213Y441546D01*
X289602D01*
Y441648D01*
D02*
G37*
G36*
X303756Y421181D02*
X300192Y419755D01*
X300091D01*
X299887Y419653D01*
X299581Y419552D01*
X299174Y419348D01*
X298156Y419144D01*
X296934Y418941D01*
X295814D01*
X294795Y419042D01*
X293472Y419144D01*
X290315D01*
X288788Y418941D01*
X287260Y418635D01*
X287158D01*
X286955Y418533D01*
X286547Y418330D01*
X285936Y418024D01*
X285325Y417719D01*
X284511Y417311D01*
X283696Y416700D01*
X282780Y416089D01*
X282678Y415988D01*
X282372Y415886D01*
X281965Y415580D01*
X281252Y415071D01*
X281049Y414969D01*
X280743Y414867D01*
X280336Y414562D01*
X280234Y414460D01*
X279827Y414256D01*
X279317Y413849D01*
X278706Y413442D01*
X278605Y413340D01*
X278299Y413136D01*
X277994Y412831D01*
X277586Y412424D01*
X299581Y399695D01*
X299683D01*
X299989Y399797D01*
X300396Y400000D01*
X301007Y400306D01*
X301720Y400713D01*
X302534Y401324D01*
X303451Y402139D01*
X304469Y403055D01*
X304571Y403157D01*
X304673Y403259D01*
X305182Y403870D01*
X305284Y403972D01*
X305386Y404073D01*
X305793Y404583D01*
X305895Y404684D01*
X305997Y404990D01*
X306302Y405601D01*
X306709Y406517D01*
Y406619D01*
X306811Y406721D01*
X307015Y407332D01*
X307218Y407943D01*
X307524Y408656D01*
X307626Y408859D01*
X307931Y409267D01*
X308339Y409776D01*
X308848Y410387D01*
X308950Y410489D01*
X309153Y410591D01*
X309662Y410998D01*
X303756Y421181D01*
D02*
G37*
G36*
X287973Y402444D02*
Y402342D01*
Y402139D01*
X287871Y401935D01*
Y401731D01*
Y401630D01*
Y401426D01*
X288075Y400815D01*
Y400713D01*
X288177Y400509D01*
X288278Y400408D01*
X288380Y400102D01*
X288584Y399695D01*
X288788Y399389D01*
X288889D01*
X288991Y399593D01*
X289500Y399898D01*
X290111Y400408D01*
X290722Y400917D01*
X287973Y402444D01*
D02*
G37*
G36*
X289297Y392160D02*
X288991D01*
X288380Y392058D01*
X287973D01*
X287464Y391956D01*
X287057Y391854D01*
X286649D01*
X286547Y391752D01*
X286344D01*
X286242Y391650D01*
X285936Y391549D01*
X285529Y391243D01*
X285122Y390938D01*
X285020Y390734D01*
X284816Y390429D01*
X284613Y389919D01*
X284511Y389818D01*
X284409Y389308D01*
Y389105D01*
X284613Y388697D01*
X284816Y388188D01*
X285122Y387781D01*
X285325Y387679D01*
X285529Y387577D01*
X285936Y387476D01*
X287158D01*
X287566Y387679D01*
X287769Y387781D01*
X287973Y387883D01*
X288278Y388086D01*
X288380Y388188D01*
X288686Y388494D01*
X289093Y388901D01*
X289704Y389716D01*
Y389818D01*
X289806Y389919D01*
X290213Y390429D01*
X290519Y391040D01*
X290722Y391650D01*
X290620Y391752D01*
X290417Y391854D01*
X289908Y391956D01*
X289297Y392160D01*
D02*
G37*
G36*
X277586Y391243D02*
X277077D01*
X276772Y391141D01*
X276670D01*
X276772Y390734D01*
Y390632D01*
X276874Y390429D01*
X277077Y390021D01*
X277179Y389614D01*
X277586Y388697D01*
X277790Y388290D01*
X277994Y387985D01*
X278096Y387883D01*
X278299Y387679D01*
X278706Y387476D01*
X279216Y387272D01*
X279623D01*
X279725Y387374D01*
Y387476D01*
Y387679D01*
Y387781D01*
X279827Y387883D01*
Y388188D01*
Y388290D01*
Y388392D01*
Y388494D01*
X279725Y388596D01*
Y388697D01*
X279623Y388901D01*
X279317Y389512D01*
Y389614D01*
X279216Y389716D01*
X279114Y389818D01*
X279012Y390021D01*
Y390123D01*
X278910Y390225D01*
X278503Y390632D01*
X277892Y391040D01*
X277586Y391243D01*
D02*
G37*
G36*
X310273Y410081D02*
X310172D01*
X310070Y409878D01*
X309662Y409572D01*
X309561Y409470D01*
X309357Y409165D01*
X308950Y408758D01*
X308542Y408045D01*
X308440Y407943D01*
X308339Y407637D01*
X308033Y407026D01*
X307728Y406110D01*
Y406008D01*
X307626Y405906D01*
X307422Y405295D01*
X307117Y404583D01*
X306709Y403972D01*
Y403870D01*
X306506Y403666D01*
X306098Y403157D01*
X305997Y403055D01*
X305793Y402852D01*
X305284Y402241D01*
X305182Y402139D01*
X304876Y401833D01*
X304367Y401426D01*
X303858Y400917D01*
X302433Y399898D01*
X301618Y399389D01*
X300905Y398982D01*
X323002Y386152D01*
Y386355D01*
Y386763D01*
Y386865D01*
Y387170D01*
Y387374D01*
X322900Y387781D01*
X322696Y388290D01*
X322391Y388901D01*
Y389003D01*
X310273Y410081D01*
D02*
G37*
G36*
X291842Y400306D02*
X291639Y400204D01*
X291130Y399797D01*
X290417Y399186D01*
X289398Y398473D01*
X289297D01*
X289195Y398269D01*
X288584Y397760D01*
X287769Y397047D01*
X286955Y396131D01*
X286853Y396029D01*
X286547Y395622D01*
X286140Y395113D01*
X285733Y394400D01*
X285224Y393585D01*
X284816Y392669D01*
X284511Y391752D01*
X284422Y390950D01*
X284409Y390938D01*
Y390836D01*
X284422Y390950D01*
X284511Y391040D01*
X284613Y391243D01*
X284714Y391345D01*
X284816Y391447D01*
X285122Y391650D01*
X285631Y391956D01*
X286242Y392261D01*
X286344D01*
X286446Y392363D01*
X286751D01*
X286853Y392465D01*
X286955D01*
X287158Y392567D01*
X287362D01*
X287973Y392669D01*
X289398D01*
X289500Y392567D01*
X289908Y392465D01*
X290213D01*
X290824Y392261D01*
Y392363D01*
X290926Y392465D01*
X291028Y392771D01*
Y392872D01*
X291130Y392974D01*
X291231Y393382D01*
X291435Y393789D01*
Y393891D01*
X291537Y393993D01*
X291842Y394400D01*
X292352Y395011D01*
X292962Y395622D01*
X293064D01*
X293268Y395825D01*
X293675Y396131D01*
X294286Y396538D01*
X294388D01*
X294490Y396640D01*
X294999Y397047D01*
X295508Y397455D01*
X296017Y397862D01*
X291842Y400306D01*
D02*
G37*
G36*
X291944Y391854D02*
Y391752D01*
X291842Y391345D01*
Y391243D01*
X291639Y390836D01*
X291435Y390225D01*
X291028Y389512D01*
X291130Y389410D01*
X291333Y389308D01*
X291741Y389207D01*
X292250Y389105D01*
X292657D01*
X292962Y389207D01*
X293268Y389410D01*
X293370D01*
X293472Y389512D01*
Y389716D01*
X293573Y389818D01*
Y390021D01*
Y390123D01*
Y390429D01*
Y390836D01*
X293268Y391345D01*
X293166D01*
X293064Y391447D01*
X292861D01*
X292759Y391549D01*
X292657D01*
X292453Y391650D01*
X292148Y391752D01*
X291944Y391854D01*
D02*
G37*
G36*
X275448Y409776D02*
Y409674D01*
Y409572D01*
X275244Y408961D01*
X274939Y407943D01*
X274328Y406721D01*
Y406619D01*
X274226Y406517D01*
X273921Y405906D01*
X273717Y405194D01*
X273513Y404684D01*
Y404481D01*
X273411Y404277D01*
Y403972D01*
X273513Y403462D01*
Y402953D01*
X273717Y402241D01*
X273921Y401426D01*
Y401324D01*
X274022Y401019D01*
X274124Y400713D01*
X274226Y400408D01*
Y400306D01*
Y400102D01*
X274328Y399593D01*
X274532Y398677D01*
X274735Y397353D01*
Y397251D01*
Y397149D01*
X274837Y396436D01*
X274939Y395724D01*
X275142Y394909D01*
X275244Y394705D01*
X275346Y394298D01*
X275652Y393687D01*
X275957Y392974D01*
X276059Y392872D01*
X276161Y392465D01*
X276263Y392058D01*
X276466Y391650D01*
X276670D01*
X276772Y391752D01*
X277383D01*
X277994Y391549D01*
X278401Y391345D01*
X278808Y391141D01*
X279114Y390734D01*
X279521Y390225D01*
X279623Y390021D01*
X279827Y389818D01*
X279928Y389716D01*
X280030Y389512D01*
X280336Y388799D01*
Y388596D01*
Y388188D01*
Y388086D01*
Y387985D01*
Y387781D01*
Y387679D01*
X280438Y387781D01*
X280641Y387883D01*
X280743Y387985D01*
X281049Y388392D01*
X281354Y388901D01*
X281558Y389614D01*
Y389818D01*
Y390021D01*
X281456Y390327D01*
Y390836D01*
X281252Y391549D01*
X281049Y392363D01*
X280743Y393382D01*
X280641Y393483D01*
Y393687D01*
X280539Y394094D01*
X280438Y394196D01*
Y394400D01*
X280336Y394705D01*
Y394807D01*
X280234Y395011D01*
Y395113D01*
Y395418D01*
Y395520D01*
Y395622D01*
Y396233D01*
Y396945D01*
X280438Y397862D01*
Y397964D01*
Y398167D01*
X280336Y398778D01*
X280234Y399186D01*
X280030Y399695D01*
Y399797D01*
X279928Y400000D01*
X279827Y400408D01*
X279725Y400815D01*
X279521Y401731D01*
X279419Y402241D01*
Y402546D01*
Y402648D01*
X279623Y403055D01*
X279928Y403666D01*
X280438Y404379D01*
Y404481D01*
X280539Y404583D01*
X280845Y405092D01*
X281150Y405805D01*
X281252Y406416D01*
X275448Y409776D01*
D02*
G37*
G36*
X116052Y86068D02*
X102257Y72366D01*
X103368Y59126D01*
X122532D01*
Y59219D01*
Y59311D01*
Y59774D01*
Y59867D01*
Y59960D01*
Y60423D01*
Y60515D01*
X122625Y60885D01*
X122718Y61348D01*
X122903Y61996D01*
X123181Y62737D01*
X123551Y63478D01*
X124106Y64311D01*
X124754Y65052D01*
X124847D01*
X124940Y65144D01*
Y65237D01*
X125125Y65329D01*
X125588Y65700D01*
X126328Y66255D01*
X127347Y66811D01*
X127439D01*
X127625Y66903D01*
X127995Y66996D01*
X128458Y67088D01*
X129013Y67181D01*
X131143D01*
X131513Y70792D01*
X116052Y86068D01*
D02*
G37*
G36*
X130957Y63941D02*
X130032D01*
X129569Y63848D01*
X128828Y63755D01*
X127995Y63385D01*
X127162Y62922D01*
X126514Y62089D01*
X125958Y61070D01*
X125865Y60330D01*
X125773Y59589D01*
Y59497D01*
Y59404D01*
X125865Y58941D01*
X126051Y58200D01*
X126328Y57367D01*
X126884Y56534D01*
X127625Y55886D01*
X128736Y55330D01*
X129476Y55238D01*
X130217Y55145D01*
X130402D01*
X130957Y55238D01*
X131606Y55423D01*
X132439Y55701D01*
X133272Y56256D01*
X134013Y56997D01*
X134476Y58108D01*
X134568Y58849D01*
X134661Y59589D01*
Y59682D01*
Y59774D01*
X134568Y60237D01*
X134476Y60978D01*
X134105Y61811D01*
X133550Y62552D01*
X132809Y63292D01*
X131698Y63755D01*
X130957Y63941D01*
D02*
G37*
G36*
X111885Y124120D02*
X111145D01*
X110589Y124027D01*
X109941Y123934D01*
X109293D01*
X107627Y123749D01*
X105775Y123379D01*
X103923Y123009D01*
X102257Y122546D01*
X101516Y122268D01*
X100868Y121898D01*
X100220Y121527D01*
X100127Y121435D01*
X99942Y121342D01*
X99387Y120787D01*
X98739Y119953D01*
X98461Y119398D01*
X98368Y118842D01*
X135587D01*
Y118935D01*
X135494Y119028D01*
X135309Y119583D01*
X135124Y119953D01*
X134753Y120324D01*
X134383Y120787D01*
X133920Y121250D01*
X133272Y121712D01*
X132531Y122083D01*
X131606Y122546D01*
X130587Y122916D01*
X129384Y123286D01*
X127995Y123564D01*
X126328Y123842D01*
X124569Y123934D01*
Y122823D01*
X111885D01*
Y124120D01*
D02*
G37*
G36*
X135309Y115695D02*
X98553D01*
X99294Y106806D01*
X116052Y90234D01*
X124199Y98289D01*
X112256D01*
Y103566D01*
X127532D01*
Y101622D01*
X134753Y108658D01*
X135309Y115695D01*
D02*
G37*
G36*
X134291Y104122D02*
X118181Y88105D01*
X131791Y74588D01*
X134291Y104122D01*
D02*
G37*
G36*
X99664Y102270D02*
X101979Y76162D01*
X114015Y88105D01*
X99664Y102270D01*
D02*
G37*
G36*
X233439Y131063D02*
X232606D01*
X232143Y130971D01*
X231495D01*
X230199Y130878D01*
X228440Y130600D01*
X226496Y130323D01*
X224274Y129860D01*
X221866Y129304D01*
X219367Y128563D01*
X216682Y127638D01*
X213904Y126527D01*
X211034Y125231D01*
X208257Y123657D01*
X205387Y121805D01*
X202702Y119583D01*
X200017Y117176D01*
X199832Y116991D01*
X199461Y116528D01*
X198721Y115787D01*
X197887Y114676D01*
X196776Y113380D01*
X195665Y111806D01*
X194369Y109954D01*
X193166Y107825D01*
X191870Y105510D01*
X190573Y103011D01*
X189462Y100233D01*
X188351Y97270D01*
X187518Y94215D01*
X186777Y90882D01*
X186407Y87457D01*
X186222Y83846D01*
Y83753D01*
Y83661D01*
Y83383D01*
Y83013D01*
X186315Y82550D01*
Y81994D01*
X186407Y80606D01*
X186685Y78939D01*
X186963Y76902D01*
X187426Y74773D01*
X187981Y72366D01*
X188722Y69773D01*
X189555Y67088D01*
X190666Y64311D01*
X192055Y61533D01*
X193629Y58663D01*
X195480Y55886D01*
X197610Y53108D01*
X200017Y50423D01*
X200202Y50238D01*
X200665Y49868D01*
X201406Y49127D01*
X202517Y48294D01*
X203813Y47183D01*
X205387Y46072D01*
X207238Y44776D01*
X209368Y43572D01*
X211682Y42276D01*
X214275Y40980D01*
X216959Y39869D01*
X219922Y38758D01*
X223070Y37925D01*
X226403Y37184D01*
X229829Y36814D01*
X233439Y36629D01*
X234273D01*
X234736Y36721D01*
X235291D01*
X236680Y36814D01*
X238439Y37092D01*
X240383Y37369D01*
X242512Y37832D01*
X244920Y38388D01*
X247512Y39128D01*
X250197Y39962D01*
X252974Y41073D01*
X255752Y42461D01*
X258529Y44035D01*
X261399Y45887D01*
X264084Y48016D01*
X266769Y50423D01*
X266954Y50609D01*
X267325Y51072D01*
X268065Y51812D01*
X268899Y52923D01*
X270010Y54219D01*
X271121Y55886D01*
X272417Y57738D01*
X273713Y59774D01*
X274916Y62182D01*
X276213Y64681D01*
X277324Y67459D01*
X278435Y70421D01*
X279268Y73477D01*
X280009Y76810D01*
X280379Y80235D01*
X280564Y83846D01*
Y83939D01*
Y84031D01*
Y84309D01*
Y84679D01*
X280471Y85142D01*
Y85698D01*
X280379Y87086D01*
X280101Y88845D01*
X279823Y90790D01*
X279453Y92919D01*
X278805Y95326D01*
X278157Y97919D01*
X277231Y100604D01*
X276120Y103381D01*
X274731Y106159D01*
X273157Y108936D01*
X271306Y111806D01*
X269176Y114491D01*
X266769Y117176D01*
X266584Y117361D01*
X266121Y117731D01*
X265380Y118472D01*
X264269Y119305D01*
X262973Y120416D01*
X261399Y121527D01*
X259548Y122823D01*
X257418Y124120D01*
X255104Y125416D01*
X252604Y126712D01*
X249827Y127823D01*
X246864Y128934D01*
X243809Y129767D01*
X240476Y130508D01*
X237050Y130878D01*
X233439Y131063D01*
D02*
G37*
%LPD*%
G36*
X261677Y65977D02*
X262973Y65700D01*
X263621Y65422D01*
X264177Y65144D01*
X264269D01*
X264362Y64959D01*
X264918Y64496D01*
X265473Y63663D01*
X265936Y62552D01*
X262696Y61996D01*
X262603Y62089D01*
X262510Y62459D01*
X262233Y62737D01*
X261862Y63107D01*
X261770Y63200D01*
X261399Y63385D01*
X260844Y63478D01*
X260103Y63570D01*
X259270D01*
X258622Y63385D01*
X258344Y63292D01*
X258159Y63200D01*
X258066Y63107D01*
X257974Y63015D01*
X257881Y62737D01*
X257789Y62459D01*
Y62367D01*
X257881Y62274D01*
X257974Y61996D01*
X258159Y61811D01*
X258252Y61719D01*
X258437Y61626D01*
X258715Y61533D01*
X259177Y61441D01*
X259733Y61256D01*
X260473Y61070D01*
X261399Y60793D01*
X261492D01*
X261862Y60700D01*
X262325Y60515D01*
X262973Y60330D01*
X264177Y59867D01*
X264825Y59589D01*
X265288Y59219D01*
X265380D01*
X265473Y59034D01*
X265843Y58571D01*
X266214Y57738D01*
X266399Y57182D01*
Y56627D01*
Y56534D01*
Y56349D01*
X266306Y55978D01*
X266214Y55516D01*
X266028Y55053D01*
X265751Y54497D01*
X265380Y54034D01*
X264918Y53479D01*
X264825Y53386D01*
X264640Y53294D01*
X264269Y53108D01*
X263806Y52831D01*
X263158Y52553D01*
X262325Y52368D01*
X261399Y52275D01*
X260381Y52183D01*
X259918D01*
X259455Y52275D01*
X258807Y52368D01*
X257418Y52646D01*
X256678Y52923D01*
X256030Y53294D01*
X255937Y53386D01*
X255752Y53479D01*
X255474Y53756D01*
X255196Y54127D01*
X254456Y55053D01*
X254178Y55608D01*
X253993Y56256D01*
X257511Y56812D01*
X257603Y56627D01*
X257696Y56256D01*
X258066Y55701D01*
X258437Y55238D01*
X258529Y55145D01*
X258992Y54960D01*
X259548Y54775D01*
X260381Y54682D01*
X260566D01*
X261122Y54775D01*
X261770Y54960D01*
X262418Y55238D01*
X262510Y55330D01*
X262696Y55423D01*
X262788Y55793D01*
X262881Y56164D01*
Y56256D01*
Y56441D01*
X262788Y56627D01*
X262603Y56812D01*
X262510D01*
X262325Y56904D01*
X262048Y57090D01*
X261492Y57275D01*
X261307D01*
X260844Y57460D01*
X260103Y57645D01*
X259177Y57830D01*
X258252Y58108D01*
X257418Y58386D01*
X256585Y58663D01*
X256030Y58941D01*
X255937Y59034D01*
X255844Y59126D01*
X255567Y59404D01*
X255289Y59774D01*
X254826Y60700D01*
X254641Y61348D01*
X254548Y61996D01*
Y62089D01*
Y62274D01*
X254641Y62552D01*
X254733Y63015D01*
X255104Y63941D01*
X255382Y64496D01*
X255844Y64959D01*
X255937Y65052D01*
X256122Y65144D01*
X256400Y65329D01*
X256863Y65514D01*
X257511Y65700D01*
X258252Y65885D01*
X259085Y66070D01*
X261029D01*
X261677Y65977D01*
D02*
G37*
G36*
X251400Y52553D02*
X247697D01*
Y60515D01*
X240476D01*
Y52553D01*
X236772D01*
Y70884D01*
X240476D01*
Y63663D01*
X247697D01*
Y70884D01*
X251400D01*
Y52553D01*
D02*
G37*
G36*
X251493Y123286D02*
X251771Y117546D01*
X252697Y111991D01*
X254270Y106436D01*
X255382Y103751D01*
X251586Y100418D01*
X244549Y93197D01*
X238161Y85420D01*
X232421Y77087D01*
X229921Y72736D01*
X226959Y75606D01*
X220570Y80883D01*
X213719Y85420D01*
X206405Y89216D01*
X202609Y90882D01*
X214460Y100974D01*
X216589Y99678D01*
X220478Y96715D01*
X223996Y93104D01*
X227051Y89216D01*
X228347Y86994D01*
X229921Y92641D01*
X234458Y103196D01*
X240383Y113010D01*
X247419Y122083D01*
X251586Y126156D01*
X251493Y123286D01*
D02*
G37*
G36*
X212053Y70792D02*
X213441Y70699D01*
X214090Y70607D01*
X214645Y70421D01*
X214737D01*
X214830Y70329D01*
X215386Y69959D01*
X216126Y69403D01*
X216774Y68662D01*
Y68570D01*
X216867Y68477D01*
X217052Y68199D01*
X217237Y67829D01*
X217515Y66903D01*
X217608Y65700D01*
Y65607D01*
Y65329D01*
X217515Y64959D01*
X217423Y64496D01*
X217145Y63385D01*
X216774Y62830D01*
X216404Y62367D01*
X216311Y62274D01*
X216126Y62089D01*
X215849Y61904D01*
X215478Y61626D01*
X214923Y61256D01*
X214367Y60978D01*
X213626Y60793D01*
X212793Y60608D01*
X212886D01*
X212978Y60515D01*
X213534Y60145D01*
X214090Y59682D01*
X214737Y59126D01*
Y59034D01*
X214923Y58941D01*
X215108Y58663D01*
X215386Y58293D01*
X216034Y57367D01*
X216867Y56071D01*
X219089Y52553D01*
X214645D01*
X212053Y56534D01*
X211960Y56627D01*
X211868Y56812D01*
X211590Y57182D01*
X211312Y57552D01*
X210664Y58478D01*
X210386Y58849D01*
X210108Y59219D01*
X210016Y59311D01*
X209738Y59497D01*
X208997Y59960D01*
X208905D01*
X208535Y60052D01*
X207886Y60145D01*
X206313D01*
Y52553D01*
X202609D01*
Y70884D01*
X211405D01*
X212053Y70792D01*
D02*
G37*
G36*
X228162Y65977D02*
X228810Y65792D01*
X229643Y65607D01*
X230477Y65237D01*
X231310Y64774D01*
X232051Y64126D01*
X232143Y64033D01*
X232328Y63755D01*
X232699Y63292D01*
X233069Y62737D01*
X233347Y61996D01*
X233717Y61163D01*
X233902Y60237D01*
X233995Y59219D01*
Y59126D01*
Y58756D01*
X233902Y58108D01*
X233717Y57460D01*
X233532Y56627D01*
X233162Y55793D01*
X232699Y54960D01*
X232051Y54127D01*
X231958Y54034D01*
X231680Y53849D01*
X231310Y53479D01*
X230754Y53201D01*
X230014Y52831D01*
X229181Y52460D01*
X228162Y52275D01*
X227144Y52183D01*
X226866D01*
X226496Y52275D01*
X226033D01*
X224922Y52553D01*
X223626Y53016D01*
X223533D01*
X223348Y53201D01*
X223070Y53386D01*
X222700Y53664D01*
X221866Y54405D01*
X221126Y55423D01*
Y55516D01*
X221033Y55701D01*
X220848Y56071D01*
X220755Y56534D01*
X220570Y57090D01*
X220385Y57738D01*
X220292Y59311D01*
Y59404D01*
Y59589D01*
X220385Y59960D01*
Y60330D01*
X220663Y61441D01*
X221126Y62737D01*
Y62830D01*
X221311Y63015D01*
X221496Y63292D01*
X221774Y63663D01*
X222514Y64496D01*
X223626Y65237D01*
X223718D01*
X223903Y65329D01*
X224181Y65514D01*
X224644Y65700D01*
X225662Y65977D01*
X227051Y66070D01*
X227607D01*
X228162Y65977D01*
D02*
G37*
%LPC*%
G36*
X210479Y67829D02*
X206313D01*
Y63107D01*
X210479D01*
X211590Y63200D01*
X212053D01*
X212423Y63292D01*
X212516Y63385D01*
X212793Y63478D01*
X213441Y64033D01*
X213534Y64126D01*
X213626Y64404D01*
X213719Y64866D01*
X213812Y65422D01*
Y65514D01*
Y65607D01*
X213719Y65977D01*
X213626Y66533D01*
X213349Y66996D01*
X213256Y67088D01*
X212978Y67274D01*
X212516Y67551D01*
X211960Y67644D01*
X211868D01*
X211682Y67737D01*
X211034D01*
X210479Y67829D01*
D02*
G37*
G36*
X227607Y63200D02*
X226959D01*
X226310Y63107D01*
X225570Y62737D01*
X225199Y62552D01*
X224829Y62182D01*
Y62089D01*
X224644Y61996D01*
X224551Y61719D01*
X224366Y61348D01*
X224088Y60423D01*
X223903Y59126D01*
Y59034D01*
Y58756D01*
X223996Y58478D01*
Y58015D01*
X224274Y56997D01*
X224551Y56534D01*
X224829Y56164D01*
X225014Y55978D01*
X225477Y55608D01*
X226218Y55238D01*
X226681Y55145D01*
X227144Y55053D01*
X227329D01*
X227884Y55238D01*
X228625Y55516D01*
X229088Y55793D01*
X229458Y56164D01*
X229643Y56349D01*
X229736Y56534D01*
X229921Y56904D01*
X230106Y57275D01*
X230199Y57830D01*
X230384Y58386D01*
Y59126D01*
Y59219D01*
Y59497D01*
Y59774D01*
X230292Y60237D01*
X230014Y61256D01*
X229458Y62182D01*
Y62274D01*
X229273Y62367D01*
X228810Y62737D01*
X228069Y63015D01*
X227607Y63200D01*
D02*
G37*
%LPD*%
D48*
X335000Y573000D02*
X337000D01*
X345000D02*
X347000D01*
X340500Y563000D02*
X341500D01*
X438000Y427000D02*
Y429000D01*
X450000Y433000D02*
Y438000D01*
X443000D02*
X450000D01*
X443000Y418000D02*
X450000D01*
Y423000D01*
X478000Y348000D02*
X480000D01*
X484000Y336000D02*
X489000D01*
Y343000D01*
X469000Y336000D02*
Y343000D01*
Y336000D02*
X474000D01*
X438000Y365000D02*
Y367000D01*
X450000Y371000D02*
Y376000D01*
X443000D02*
X450000D01*
X443000Y356000D02*
X450000D01*
Y361000D01*
X438000Y407000D02*
Y409000D01*
X450000Y413000D02*
Y418000D01*
X443000D02*
X450000D01*
X443000Y398000D02*
X450000D01*
Y403000D01*
X438000Y386000D02*
Y388000D01*
X450000Y392000D02*
Y397000D01*
X443000D02*
X450000D01*
X443000Y377000D02*
X450000D01*
Y382000D01*
X524600Y930300D02*
X524600Y901700D01*
X511400Y930300D02*
X524600Y930300D01*
X511400Y901700D02*
Y930300D01*
Y901700D02*
X524600D01*
X548400Y913300D02*
X548400Y884700D01*
X561600Y884700D01*
Y913300D01*
X548400D02*
X561600D01*
X512700Y824400D02*
X541300Y824400D01*
X541300Y837600D02*
X541300Y824400D01*
X512700Y837600D02*
X541300D01*
X512700Y824400D02*
Y837600D01*
X530400Y819300D02*
X530400Y790700D01*
X543600Y790700D01*
Y819300D01*
X530400D02*
X543600D01*
X524600Y897300D02*
X524600Y868700D01*
X511400Y897300D02*
X524600Y897300D01*
X511400Y868700D02*
Y897300D01*
Y868700D02*
X524600D01*
X548400Y877300D02*
X548400Y848700D01*
X561600Y848700D01*
Y877300D01*
X548400D02*
X561600D01*
X478400Y406300D02*
X478400Y377700D01*
X491600Y377700D01*
Y406300D01*
X478400D02*
X491600D01*
X172400Y775300D02*
X172400Y746700D01*
X185600Y746700D01*
Y775300D01*
X172400D02*
X185600D01*
X165600Y916300D02*
X165600Y887700D01*
X152400Y916300D02*
X165600Y916300D01*
X152400Y887700D02*
Y916300D01*
Y887700D02*
X165600D01*
X179900Y846100D02*
X179900Y813900D01*
X162200Y846100D02*
X179900Y846100D01*
X162200Y813900D02*
Y846100D01*
Y813900D02*
X179900D01*
X439900Y774900D02*
X472100Y774900D01*
X439900Y774900D02*
X439900Y757200D01*
X472100D01*
Y774900D01*
X116900Y776100D02*
X149100Y776100D01*
X149100Y793800D02*
X149100Y776100D01*
X116900Y793800D02*
X149100D01*
X116900Y776100D02*
Y793800D01*
X356900Y555100D02*
X389100Y555100D01*
X389100Y572800D02*
X389100Y555100D01*
X356900Y572800D02*
X389100D01*
X356900Y555100D02*
Y572800D01*
X116900Y756100D02*
X149100Y756100D01*
X149100Y773800D02*
X149100Y756100D01*
X116900Y773800D02*
X149100D01*
X116900Y756100D02*
Y773800D01*
X511900Y793100D02*
X511900Y760900D01*
X494200Y793100D02*
X511900Y793100D01*
X494200Y760900D02*
Y793100D01*
Y760900D02*
X511900D01*
Y840100D02*
X544100Y840100D01*
X544100Y857800D02*
X544100Y840100D01*
X511900Y857800D02*
X544100D01*
X511900Y840100D02*
Y857800D01*
X98900Y799100D02*
X98900Y766900D01*
X81200Y799100D02*
X98900Y799100D01*
X81200Y766900D02*
Y799100D01*
Y766900D02*
X98900D01*
X202900Y927100D02*
X202900Y894900D01*
X185200Y927100D02*
X202900Y927100D01*
X185200Y894900D02*
Y927100D01*
Y894900D02*
X202900D01*
X382900Y929100D02*
X382900Y896900D01*
X365200Y929100D02*
X382900Y929100D01*
X365200Y896900D02*
Y929100D01*
Y896900D02*
X382900D01*
X338100Y706100D02*
X338100Y673900D01*
X355800Y673900D01*
Y706100D01*
X338100D02*
X355800D01*
X207900Y708900D02*
X240100Y708900D01*
X207900Y708900D02*
X207900Y691200D01*
X240100D01*
Y708900D01*
X317100Y706100D02*
X317100Y673900D01*
X334800Y673900D01*
Y706100D01*
X317100D02*
X334800D01*
X245900Y937100D02*
X245900Y904900D01*
X228200Y937100D02*
X245900Y937100D01*
X228200Y904900D02*
Y937100D01*
Y904900D02*
X245900D01*
X135900Y715100D02*
X168100Y715100D01*
X168100Y732800D02*
X168100Y715100D01*
X135900Y732800D02*
X168100D01*
X135900Y715100D02*
Y732800D01*
X513900Y518100D02*
X546100Y518100D01*
X546100Y535800D02*
X546100Y518100D01*
X513900Y535800D02*
X546100D01*
X513900Y518100D02*
Y535800D01*
Y541100D02*
X546100Y541100D01*
X546100Y558800D02*
X546100Y541100D01*
X513900Y558800D02*
X546100D01*
X513900Y541100D02*
Y558800D01*
X439900Y481900D02*
X472100Y481900D01*
X439900Y481900D02*
X439900Y464200D01*
X472100D01*
Y481900D01*
X507100Y441100D02*
X507100Y408900D01*
X524800Y408900D01*
Y441100D01*
X507100D02*
X524800D01*
X135900Y696100D02*
X168100Y696100D01*
X168100Y713800D02*
X168100Y696100D01*
X135900Y713800D02*
X168100D01*
X135900Y696100D02*
Y713800D01*
X385000Y625000D02*
X388000D01*
X385000Y605000D02*
X388000D01*
Y625000D01*
X354000Y605000D02*
Y625000D01*
X357000D01*
X354000Y605000D02*
X357000D01*
X366000D02*
X375000D01*
X3002Y547500D02*
Y555500D01*
X20001Y539500D02*
Y564500D01*
X474999Y520001D02*
X475999D01*
X474999Y480102D02*
Y520001D01*
X486999Y480102D02*
X494999D01*
X506969D02*
Y520001D01*
X504999Y480102D02*
X506999D01*
X474999Y479902D02*
X476999D01*
X175000Y667000D02*
Y668000D01*
X135100D02*
X175000D01*
X135100Y648000D02*
Y656000D01*
Y636030D02*
X175000D01*
X135100Y636000D02*
Y638000D01*
X134900Y666000D02*
Y668000D01*
X71000Y834997D02*
Y827000D01*
X74999D01*
X76332Y828333D01*
Y833664D01*
X74999Y834997D01*
X71000D01*
X78997Y833664D02*
X80330Y834997D01*
X82996D01*
X84329Y833664D01*
Y832332D01*
X82996Y830999D01*
X81663D01*
X82996D01*
X84329Y829666D01*
Y828333D01*
X82996Y827000D01*
X80330D01*
X78997Y828333D01*
X430332Y884665D02*
X428999Y885997D01*
X426333D01*
X425000Y884665D01*
Y879333D01*
X426333Y878000D01*
X428999D01*
X430332Y879333D01*
X432997Y884665D02*
X434330Y885997D01*
X436996D01*
X438329Y884665D01*
Y883332D01*
X436996Y881999D01*
X435663D01*
X436996D01*
X438329Y880666D01*
Y879333D01*
X436996Y878000D01*
X434330D01*
X432997Y879333D01*
X440995Y884665D02*
X442328Y885997D01*
X444994D01*
X446326Y884665D01*
Y879333D01*
X444994Y878000D01*
X442328D01*
X440995Y879333D01*
Y884665D01*
X454324Y878000D02*
X448992D01*
X454324Y883332D01*
Y884665D01*
X452991Y885997D01*
X450325D01*
X448992Y884665D01*
X431332Y915665D02*
X429999Y916997D01*
X427333D01*
X426000Y915665D01*
Y910333D01*
X427333Y909000D01*
X429999D01*
X431332Y910333D01*
X433997Y915665D02*
X435330Y916997D01*
X437996D01*
X439329Y915665D01*
Y914332D01*
X437996Y912999D01*
X436663D01*
X437996D01*
X439329Y911666D01*
Y910333D01*
X437996Y909000D01*
X435330D01*
X433997Y910333D01*
X441995Y915665D02*
X443328Y916997D01*
X445994D01*
X447327Y915665D01*
Y910333D01*
X445994Y909000D01*
X443328D01*
X441995Y910333D01*
Y915665D01*
X449992D02*
X451325Y916997D01*
X453991D01*
X455324Y915665D01*
Y910333D01*
X453991Y909000D01*
X451325D01*
X449992Y910333D01*
Y915665D01*
X178332Y707664D02*
X176999Y708997D01*
X174333D01*
X173000Y707664D01*
Y702333D01*
X174333Y701000D01*
X176999D01*
X178332Y702333D01*
X180997Y701000D02*
X183663D01*
X182330D01*
Y708997D01*
X180997Y707664D01*
X534332Y424664D02*
X532999Y425997D01*
X530333D01*
X529000Y424664D01*
Y419333D01*
X530333Y418000D01*
X532999D01*
X534332Y419333D01*
X536997Y418000D02*
X539663D01*
X538330D01*
Y425997D01*
X536997Y424664D01*
X543662D02*
X544995Y425997D01*
X547661D01*
X548994Y424664D01*
Y423332D01*
X547661Y421999D01*
X546328D01*
X547661D01*
X548994Y420666D01*
Y419333D01*
X547661Y418000D01*
X544995D01*
X543662Y419333D01*
X447332Y496665D02*
X445999Y497997D01*
X443333D01*
X442000Y496665D01*
Y491333D01*
X443333Y490000D01*
X445999D01*
X447332Y491333D01*
X449997Y490000D02*
X452663D01*
X451330D01*
Y497997D01*
X449997Y496665D01*
X456662Y491333D02*
X457995Y490000D01*
X460661D01*
X461994Y491333D01*
Y496665D01*
X460661Y497997D01*
X457995D01*
X456662Y496665D01*
Y495332D01*
X457995Y493999D01*
X461994D01*
X117336Y626332D02*
X116003Y624999D01*
Y622333D01*
X117336Y621000D01*
X122667D01*
X124000Y622333D01*
Y624999D01*
X122667Y626332D01*
X124000Y634329D02*
Y628997D01*
X118668Y634329D01*
X117336D01*
X116003Y632996D01*
Y630330D01*
X117336Y628997D01*
X420332Y476665D02*
X418999Y477997D01*
X416333D01*
X415000Y476665D01*
Y471333D01*
X416333Y470000D01*
X418999D01*
X420332Y471333D01*
X428329Y470000D02*
X422997D01*
X428329Y475332D01*
Y476665D01*
X426996Y477997D01*
X424330D01*
X422997Y476665D01*
X430995Y470000D02*
X433661D01*
X432328D01*
Y477997D01*
X430995Y476665D01*
X555332Y553665D02*
X553999Y554997D01*
X551333D01*
X550000Y553665D01*
Y548333D01*
X551333Y547000D01*
X553999D01*
X555332Y548333D01*
X563329Y547000D02*
X557997D01*
X563329Y552332D01*
Y553665D01*
X561996Y554997D01*
X559330D01*
X557997Y553665D01*
X565995D02*
X567328Y554997D01*
X569994D01*
X571326Y553665D01*
Y552332D01*
X569994Y550999D01*
X568661D01*
X569994D01*
X571326Y549666D01*
Y548333D01*
X569994Y547000D01*
X567328D01*
X565995Y548333D01*
X461041Y557305D02*
X459708Y558638D01*
X457042D01*
X455709Y557305D01*
Y551973D01*
X457042Y550640D01*
X459708D01*
X461041Y551973D01*
X469038Y550640D02*
X463707D01*
X469038Y555972D01*
Y557305D01*
X467705Y558638D01*
X465039D01*
X463707Y557305D01*
X475703Y550640D02*
Y558638D01*
X471704Y554639D01*
X477036D01*
X555332Y530664D02*
X553999Y531997D01*
X551333D01*
X550000Y530664D01*
Y525333D01*
X551333Y524000D01*
X553999D01*
X555332Y525333D01*
X563329Y524000D02*
X557997D01*
X563329Y529332D01*
Y530664D01*
X561996Y531997D01*
X559330D01*
X557997Y530664D01*
X571326Y531997D02*
X565995D01*
Y527999D01*
X568661Y529332D01*
X569994D01*
X571326Y527999D01*
Y525333D01*
X569994Y524000D01*
X567328D01*
X565995Y525333D01*
X177332Y726665D02*
X175999Y727997D01*
X173333D01*
X172000Y726665D01*
Y721333D01*
X173333Y720000D01*
X175999D01*
X177332Y721333D01*
X185329Y720000D02*
X179997D01*
X185329Y725332D01*
Y726665D01*
X183996Y727997D01*
X181330D01*
X179997Y726665D01*
X193326Y727997D02*
X190661Y726665D01*
X187995Y723999D01*
Y721333D01*
X189328Y720000D01*
X191994D01*
X193326Y721333D01*
Y722666D01*
X191994Y723999D01*
X187995D01*
X153332Y744665D02*
X151999Y745997D01*
X149333D01*
X148000Y744665D01*
Y739333D01*
X149333Y738000D01*
X151999D01*
X153332Y739333D01*
X161329Y738000D02*
X155997D01*
X161329Y743332D01*
Y744665D01*
X159996Y745997D01*
X157330D01*
X155997Y744665D01*
X163995Y745997D02*
X169326D01*
Y744665D01*
X163995Y739333D01*
Y738000D01*
X548335Y499332D02*
X547003Y497999D01*
Y495333D01*
X548335Y494000D01*
X553667D01*
X555000Y495333D01*
Y497999D01*
X553667Y499332D01*
X555000Y507329D02*
Y501997D01*
X549668Y507329D01*
X548335D01*
X547003Y505996D01*
Y503330D01*
X548335Y501997D01*
Y509995D02*
X547003Y511328D01*
Y513994D01*
X548335Y515326D01*
X549668D01*
X551001Y513994D01*
X552334Y515326D01*
X553667D01*
X555000Y513994D01*
Y511328D01*
X553667Y509995D01*
X552334D01*
X551001Y511328D01*
X549668Y509995D01*
X548335D01*
X551001Y511328D02*
Y513994D01*
X266336Y915332D02*
X265003Y913999D01*
Y911333D01*
X266336Y910000D01*
X271667D01*
X273000Y911333D01*
Y913999D01*
X271667Y915332D01*
X273000Y923329D02*
Y917997D01*
X267668Y923329D01*
X266336D01*
X265003Y921996D01*
Y919330D01*
X266336Y917997D01*
X271667Y925995D02*
X273000Y927328D01*
Y929994D01*
X271667Y931327D01*
X266336D01*
X265003Y929994D01*
Y927328D01*
X266336Y925995D01*
X267668D01*
X269001Y927328D01*
Y931327D01*
X59335Y792332D02*
X58003Y790999D01*
Y788333D01*
X59335Y787000D01*
X64667D01*
X66000Y788333D01*
Y790999D01*
X64667Y792332D01*
X59335Y794997D02*
X58003Y796330D01*
Y798996D01*
X59335Y800329D01*
X60668D01*
X62001Y798996D01*
Y797663D01*
Y798996D01*
X63334Y800329D01*
X64667D01*
X66000Y798996D01*
Y796330D01*
X64667Y794997D01*
X307335Y681332D02*
X306003Y679999D01*
Y677333D01*
X307335Y676000D01*
X312667D01*
X314000Y677333D01*
Y679999D01*
X312667Y681332D01*
X307335Y683997D02*
X306003Y685330D01*
Y687996D01*
X307335Y689329D01*
X308668D01*
X310001Y687996D01*
Y686663D01*
Y687996D01*
X311334Y689329D01*
X312667D01*
X314000Y687996D01*
Y685330D01*
X312667Y683997D01*
X307335Y691995D02*
X306003Y693328D01*
Y695994D01*
X307335Y697326D01*
X312667D01*
X314000Y695994D01*
Y693328D01*
X312667Y691995D01*
X307335D01*
X250332Y702664D02*
X248999Y703997D01*
X246333D01*
X245000Y702664D01*
Y697333D01*
X246333Y696000D01*
X248999D01*
X250332Y697333D01*
X252997Y702664D02*
X254330Y703997D01*
X256996D01*
X258329Y702664D01*
Y701332D01*
X256996Y699999D01*
X255663D01*
X256996D01*
X258329Y698666D01*
Y697333D01*
X256996Y696000D01*
X254330D01*
X252997Y697333D01*
X260995Y696000D02*
X263661D01*
X262328D01*
Y703997D01*
X260995Y702664D01*
X359336Y680332D02*
X358003Y678999D01*
Y676333D01*
X359336Y675000D01*
X364667D01*
X366000Y676333D01*
Y678999D01*
X364667Y680332D01*
X359336Y682997D02*
X358003Y684330D01*
Y686996D01*
X359336Y688329D01*
X360668D01*
X362001Y686996D01*
Y685663D01*
Y686996D01*
X363334Y688329D01*
X364667D01*
X366000Y686996D01*
Y684330D01*
X364667Y682997D01*
X366000Y696326D02*
Y690995D01*
X360668Y696326D01*
X359336D01*
X358003Y694994D01*
Y692328D01*
X359336Y690995D01*
X354636Y911634D02*
X353303Y910301D01*
Y907635D01*
X354636Y906302D01*
X359967D01*
X361300Y907635D01*
Y910301D01*
X359967Y911634D01*
X354636Y914299D02*
X353303Y915632D01*
Y918298D01*
X354636Y919631D01*
X355968D01*
X357301Y918298D01*
Y916965D01*
Y918298D01*
X358634Y919631D01*
X359967D01*
X361300Y918298D01*
Y915632D01*
X359967Y914299D01*
X354636Y922297D02*
X353303Y923630D01*
Y926296D01*
X354636Y927628D01*
X355968D01*
X357301Y926296D01*
Y924963D01*
Y926296D01*
X358634Y927628D01*
X359967D01*
X361300Y926296D01*
Y923630D01*
X359967Y922297D01*
X188332Y937664D02*
X186999Y938997D01*
X184333D01*
X183000Y937664D01*
Y932333D01*
X184333Y931000D01*
X186999D01*
X188332Y932333D01*
X190997Y937664D02*
X192330Y938997D01*
X194996D01*
X196329Y937664D01*
Y936332D01*
X194996Y934999D01*
X193663D01*
X194996D01*
X196329Y933666D01*
Y932333D01*
X194996Y931000D01*
X192330D01*
X190997Y932333D01*
X202994Y931000D02*
Y938997D01*
X198995Y934999D01*
X204326D01*
X250332Y718664D02*
X248999Y719997D01*
X246333D01*
X245000Y718664D01*
Y713333D01*
X246333Y712000D01*
X248999D01*
X250332Y713333D01*
X252997Y718664D02*
X254330Y719997D01*
X256996D01*
X258329Y718664D01*
Y717332D01*
X256996Y715999D01*
X255663D01*
X256996D01*
X258329Y714666D01*
Y713333D01*
X256996Y712000D01*
X254330D01*
X252997Y713333D01*
X266326Y719997D02*
X260995D01*
Y715999D01*
X263661Y717332D01*
X264994D01*
X266326Y715999D01*
Y713333D01*
X264994Y712000D01*
X262328D01*
X260995Y713333D01*
X363332Y729665D02*
X361999Y730997D01*
X359333D01*
X358000Y729665D01*
Y724333D01*
X359333Y723000D01*
X361999D01*
X363332Y724333D01*
X365997Y729665D02*
X367330Y730997D01*
X369996D01*
X371329Y729665D01*
Y728332D01*
X369996Y726999D01*
X368663D01*
X369996D01*
X371329Y725666D01*
Y724333D01*
X369996Y723000D01*
X367330D01*
X365997Y724333D01*
X379326Y730997D02*
X376661Y729665D01*
X373995Y726999D01*
Y724333D01*
X375328Y723000D01*
X377994D01*
X379326Y724333D01*
Y725666D01*
X377994Y726999D01*
X373995D01*
X400332Y888664D02*
X398999Y889997D01*
X396333D01*
X395000Y888664D01*
Y883333D01*
X396333Y882000D01*
X398999D01*
X400332Y883333D01*
X402997Y888664D02*
X404330Y889997D01*
X406996D01*
X408329Y888664D01*
Y887332D01*
X406996Y885999D01*
X405663D01*
X406996D01*
X408329Y884666D01*
Y883333D01*
X406996Y882000D01*
X404330D01*
X402997Y883333D01*
X410995Y889997D02*
X416326D01*
Y888664D01*
X410995Y883333D01*
Y882000D01*
X216336Y918332D02*
X215003Y916999D01*
Y914333D01*
X216336Y913000D01*
X221667D01*
X223000Y914333D01*
Y916999D01*
X221667Y918332D01*
X216336Y920997D02*
X215003Y922330D01*
Y924996D01*
X216336Y926329D01*
X217668D01*
X219001Y924996D01*
Y923663D01*
Y924996D01*
X220334Y926329D01*
X221667D01*
X223000Y924996D01*
Y922330D01*
X221667Y920997D01*
X216336Y928995D02*
X215003Y930328D01*
Y932994D01*
X216336Y934326D01*
X217668D01*
X219001Y932994D01*
X220334Y934326D01*
X221667D01*
X223000Y932994D01*
Y930328D01*
X221667Y928995D01*
X220334D01*
X219001Y930328D01*
X217668Y928995D01*
X216336D01*
X219001Y930328D02*
Y932994D01*
X155332Y928664D02*
X153999Y929997D01*
X151333D01*
X150000Y928664D01*
Y923333D01*
X151333Y922000D01*
X153999D01*
X155332Y923333D01*
X157997Y928664D02*
X159330Y929997D01*
X161996D01*
X163329Y928664D01*
Y927332D01*
X161996Y925999D01*
X160663D01*
X161996D01*
X163329Y924666D01*
Y923333D01*
X161996Y922000D01*
X159330D01*
X157997Y923333D01*
X165995D02*
X167328Y922000D01*
X169994D01*
X171327Y923333D01*
Y928664D01*
X169994Y929997D01*
X167328D01*
X165995Y928664D01*
Y927332D01*
X167328Y925999D01*
X171327D01*
X108332Y810665D02*
X106999Y811997D01*
X104333D01*
X103000Y810665D01*
Y805333D01*
X104333Y804000D01*
X106999D01*
X108332Y805333D01*
X114996Y804000D02*
Y811997D01*
X110997Y807999D01*
X116329D01*
X162335Y767332D02*
X161003Y765999D01*
Y763333D01*
X162335Y762000D01*
X167667D01*
X169000Y763333D01*
Y765999D01*
X167667Y767332D01*
X169000Y773996D02*
X161003D01*
X165001Y769997D01*
Y775329D01*
X162335Y777995D02*
X161003Y779328D01*
Y781994D01*
X162335Y783326D01*
X167667D01*
X169000Y781994D01*
Y779328D01*
X167667Y777995D01*
X162335D01*
X176336Y784332D02*
X175003Y782999D01*
Y780333D01*
X176336Y779000D01*
X181667D01*
X183000Y780333D01*
Y782999D01*
X181667Y784332D01*
X183000Y790996D02*
X175003D01*
X179001Y786997D01*
Y792329D01*
X183000Y794995D02*
Y797661D01*
Y796328D01*
X175003D01*
X176336Y794995D01*
X191336Y751332D02*
X190003Y749999D01*
Y747333D01*
X191336Y746000D01*
X196667D01*
X198000Y747333D01*
Y749999D01*
X196667Y751332D01*
X198000Y757996D02*
X190003D01*
X194001Y753997D01*
Y759329D01*
X198000Y767327D02*
Y761995D01*
X192668Y767327D01*
X191336D01*
X190003Y765994D01*
Y763328D01*
X191336Y761995D01*
X553332Y845665D02*
X551999Y846997D01*
X549333D01*
X548000Y845665D01*
Y840333D01*
X549333Y839000D01*
X551999D01*
X553332Y840333D01*
X559996Y839000D02*
Y846997D01*
X555997Y842999D01*
X561329D01*
X567994Y839000D02*
Y846997D01*
X563995Y842999D01*
X569326D01*
X502336Y827332D02*
X501003Y825999D01*
Y823333D01*
X502336Y822000D01*
X507667D01*
X509000Y823333D01*
Y825999D01*
X507667Y827332D01*
X509000Y833996D02*
X501003D01*
X505001Y829997D01*
Y835329D01*
X501003Y843326D02*
Y837995D01*
X505001D01*
X503668Y840661D01*
Y841994D01*
X505001Y843326D01*
X507667D01*
X509000Y841994D01*
Y839328D01*
X507667Y837995D01*
X483335Y767332D02*
X482003Y765999D01*
Y763333D01*
X483335Y762000D01*
X488667D01*
X490000Y763333D01*
Y765999D01*
X488667Y767332D01*
X490000Y773996D02*
X482003D01*
X486001Y769997D01*
Y775329D01*
X482003Y783326D02*
X483335Y780661D01*
X486001Y777995D01*
X488667D01*
X490000Y779328D01*
Y781994D01*
X488667Y783326D01*
X487334D01*
X486001Y781994D01*
Y777995D01*
X508332Y749665D02*
X506999Y750997D01*
X504333D01*
X503000Y749665D01*
Y744333D01*
X504333Y743000D01*
X506999D01*
X508332Y744333D01*
X514996Y743000D02*
Y750997D01*
X510997Y746999D01*
X516329D01*
X518995Y750997D02*
X524327D01*
Y749665D01*
X518995Y744333D01*
Y743000D01*
X107336Y764332D02*
X106003Y762999D01*
Y760333D01*
X107336Y759000D01*
X112667D01*
X114000Y760333D01*
Y762999D01*
X112667Y764332D01*
X106003Y772329D02*
Y766997D01*
X110001D01*
X108668Y769663D01*
Y770996D01*
X110001Y772329D01*
X112667D01*
X114000Y770996D01*
Y768330D01*
X112667Y766997D01*
X398332Y565664D02*
X396999Y566997D01*
X394333D01*
X393000Y565664D01*
Y560333D01*
X394333Y559000D01*
X396999D01*
X398332Y560333D01*
X406329Y566997D02*
X400997D01*
Y562999D01*
X403663Y564332D01*
X404996D01*
X406329Y562999D01*
Y560333D01*
X404996Y559000D01*
X402330D01*
X400997Y560333D01*
X414327Y559000D02*
X408995D01*
X414327Y564332D01*
Y565664D01*
X412994Y566997D01*
X410328D01*
X408995Y565664D01*
X413332Y550664D02*
X411999Y551997D01*
X409333D01*
X408000Y550664D01*
Y545333D01*
X409333Y544000D01*
X411999D01*
X413332Y545333D01*
X421329Y551997D02*
X415997D01*
Y547999D01*
X418663Y549332D01*
X419996D01*
X421329Y547999D01*
Y545333D01*
X419996Y544000D01*
X417330D01*
X415997Y545333D01*
X423995Y550664D02*
X425328Y551997D01*
X427994D01*
X429326Y550664D01*
Y549332D01*
X427994Y547999D01*
X426661D01*
X427994D01*
X429326Y546666D01*
Y545333D01*
X427994Y544000D01*
X425328D01*
X423995Y545333D01*
X243332Y573665D02*
X241999Y574997D01*
X239333D01*
X238000Y573665D01*
Y568333D01*
X239333Y567000D01*
X241999D01*
X243332Y568333D01*
X251329Y574997D02*
X245997D01*
Y570999D01*
X248663Y572332D01*
X249996D01*
X251329Y570999D01*
Y568333D01*
X249996Y567000D01*
X247330D01*
X245997Y568333D01*
X257994Y567000D02*
Y574997D01*
X253995Y570999D01*
X259326D01*
X106335Y788332D02*
X105003Y786999D01*
Y784333D01*
X106335Y783000D01*
X111667D01*
X113000Y784333D01*
Y786999D01*
X111667Y788332D01*
X105003Y796329D02*
X106335Y793663D01*
X109001Y790997D01*
X111667D01*
X113000Y792330D01*
Y794996D01*
X111667Y796329D01*
X110334D01*
X109001Y794996D01*
Y790997D01*
X522336Y393332D02*
X521003Y391999D01*
Y389333D01*
X522336Y388000D01*
X527667D01*
X529000Y389333D01*
Y391999D01*
X527667Y393332D01*
Y395997D02*
X529000Y397330D01*
Y399996D01*
X527667Y401329D01*
X522336D01*
X521003Y399996D01*
Y397330D01*
X522336Y395997D01*
X523668D01*
X525001Y397330D01*
Y401329D01*
X150000Y679997D02*
Y672000D01*
X153999D01*
X155332Y673333D01*
Y678664D01*
X153999Y679997D01*
X150000D01*
X157997Y672000D02*
X160663D01*
X159330D01*
Y679997D01*
X157997Y678664D01*
X25000Y563997D02*
Y556000D01*
X28999D01*
X30332Y557333D01*
Y562664D01*
X28999Y563997D01*
X25000D01*
X38329Y556000D02*
X32997D01*
X38329Y561332D01*
Y562664D01*
X36996Y563997D01*
X34330D01*
X32997Y562664D01*
X250000Y533997D02*
Y526000D01*
X253999D01*
X255332Y527333D01*
Y532664D01*
X253999Y533997D01*
X250000D01*
X263329D02*
X257997D01*
Y529999D01*
X260663Y531332D01*
X261996D01*
X263329Y529999D01*
Y527333D01*
X261996Y526000D01*
X259330D01*
X257997Y527333D01*
X481000Y474997D02*
X483666D01*
X482333D01*
Y467000D01*
X481000D01*
X483666D01*
X492996Y473665D02*
X491663Y474997D01*
X488997D01*
X487664Y473665D01*
Y468333D01*
X488997Y467000D01*
X491663D01*
X492996Y468333D01*
X500994Y467000D02*
X495662D01*
X500994Y472332D01*
Y473665D01*
X499661Y474997D01*
X496995D01*
X495662Y473665D01*
X530332Y702997D02*
X527666D01*
X528999D01*
Y696333D01*
X527666Y695000D01*
X526333D01*
X525000Y696333D01*
X538329Y695000D02*
X532998D01*
X538329Y700332D01*
Y701665D01*
X536996Y702997D01*
X534330D01*
X532998Y701665D01*
X458000Y538997D02*
Y531000D01*
X463332D01*
X465997D02*
X468663D01*
X467330D01*
Y538997D01*
X465997Y537664D01*
X21332Y730333D02*
Y735665D01*
X19999Y736997D01*
X17333D01*
X16000Y735665D01*
Y730333D01*
X17333Y729000D01*
X19999D01*
X18666Y731666D02*
X21332Y729000D01*
X19999D02*
X21332Y730333D01*
X23997Y729000D02*
X26663D01*
X25330D01*
Y736997D01*
X23997Y735665D01*
X176000Y565000D02*
Y572997D01*
X179999D01*
X181332Y571665D01*
Y568999D01*
X179999Y567666D01*
X176000D01*
X178666D02*
X181332Y565000D01*
X183997D02*
X186663D01*
X185330D01*
Y572997D01*
X183997Y571665D01*
X541000Y470000D02*
Y477997D01*
X544999D01*
X546332Y476665D01*
Y473999D01*
X544999Y472666D01*
X541000D01*
X543666D02*
X546332Y470000D01*
X548997D02*
X551663D01*
X550330D01*
Y477997D01*
X548997Y476665D01*
X555662D02*
X556995Y477997D01*
X559661D01*
X560994Y476665D01*
Y471333D01*
X559661Y470000D01*
X556995D01*
X555662Y471333D01*
Y476665D01*
X541000Y495000D02*
X533003D01*
Y498999D01*
X534336Y500332D01*
X537001D01*
X538334Y498999D01*
Y495000D01*
Y497666D02*
X541000Y500332D01*
Y502997D02*
Y505663D01*
Y504330D01*
X533003D01*
X534336Y502997D01*
Y509662D02*
X533003Y510995D01*
Y513661D01*
X534336Y514994D01*
X535668D01*
X537001Y513661D01*
Y512328D01*
Y513661D01*
X538334Y514994D01*
X539667D01*
X541000Y513661D01*
Y510995D01*
X539667Y509662D01*
X529000Y460000D02*
X521003D01*
Y463999D01*
X522336Y465332D01*
X525001D01*
X526334Y463999D01*
Y460000D01*
Y462666D02*
X529000Y465332D01*
Y467997D02*
Y470663D01*
Y469330D01*
X521003D01*
X522336Y467997D01*
X521003Y479994D02*
Y474662D01*
X525001D01*
X523668Y477328D01*
Y478661D01*
X525001Y479994D01*
X527667D01*
X529000Y478661D01*
Y475995D01*
X527667Y474662D01*
X285000Y910000D02*
X277003D01*
Y913999D01*
X278335Y915332D01*
X281001D01*
X282334Y913999D01*
Y910000D01*
Y912666D02*
X285000Y915332D01*
Y917997D02*
Y920663D01*
Y919330D01*
X277003D01*
X278335Y917997D01*
Y924662D02*
X277003Y925995D01*
Y928661D01*
X278335Y929994D01*
X279668D01*
X281001Y928661D01*
X282334Y929994D01*
X283667D01*
X285000Y928661D01*
Y925995D01*
X283667Y924662D01*
X282334D01*
X281001Y925995D01*
X279668Y924662D01*
X278335D01*
X281001Y925995D02*
Y928661D01*
X103000Y615000D02*
X95003D01*
Y618999D01*
X96335Y620332D01*
X99001D01*
X100334Y618999D01*
Y615000D01*
Y617666D02*
X103000Y620332D01*
Y628329D02*
Y622997D01*
X97668Y628329D01*
X96335D01*
X95003Y626996D01*
Y624330D01*
X96335Y622997D01*
X122000Y901000D02*
Y908997D01*
X125999D01*
X127332Y907664D01*
Y904999D01*
X125999Y903666D01*
X122000D01*
X124666D02*
X127332Y901000D01*
X135329D02*
X129997D01*
X135329Y906332D01*
Y907664D01*
X133996Y908997D01*
X131330D01*
X129997Y907664D01*
X143327Y901000D02*
X137995D01*
X143327Y906332D01*
Y907664D01*
X141994Y908997D01*
X139328D01*
X137995Y907664D01*
X114000Y868000D02*
Y875997D01*
X117999D01*
X119332Y874665D01*
Y871999D01*
X117999Y870666D01*
X114000D01*
X116666D02*
X119332Y868000D01*
X127329D02*
X121997D01*
X127329Y873332D01*
Y874665D01*
X125996Y875997D01*
X123330D01*
X121997Y874665D01*
X129995D02*
X131328Y875997D01*
X133994D01*
X135326Y874665D01*
Y873332D01*
X133994Y871999D01*
X132661D01*
X133994D01*
X135326Y870666D01*
Y869333D01*
X133994Y868000D01*
X131328D01*
X129995Y869333D01*
X117000Y675000D02*
X109003D01*
Y678999D01*
X110336Y680332D01*
X113001D01*
X114334Y678999D01*
Y675000D01*
Y677666D02*
X117000Y680332D01*
X110336Y682997D02*
X109003Y684330D01*
Y686996D01*
X110336Y688329D01*
X111668D01*
X113001Y686996D01*
Y685663D01*
Y686996D01*
X114334Y688329D01*
X115667D01*
X117000Y686996D01*
Y684330D01*
X115667Y682997D01*
X379000Y544000D02*
Y551997D01*
X382999D01*
X384332Y550664D01*
Y547999D01*
X382999Y546666D01*
X379000D01*
X381666D02*
X384332Y544000D01*
X386997Y550664D02*
X388330Y551997D01*
X390996D01*
X392329Y550664D01*
Y549332D01*
X390996Y547999D01*
X389663D01*
X390996D01*
X392329Y546666D01*
Y545333D01*
X390996Y544000D01*
X388330D01*
X386997Y545333D01*
X400326Y544000D02*
X394995D01*
X400326Y549332D01*
Y550664D01*
X398994Y551997D01*
X396328D01*
X394995Y550664D01*
X377000Y581000D02*
Y588997D01*
X380999D01*
X382332Y587664D01*
Y584999D01*
X380999Y583666D01*
X377000D01*
X379666D02*
X382332Y581000D01*
X384997Y587664D02*
X386330Y588997D01*
X388996D01*
X390329Y587664D01*
Y586332D01*
X388996Y584999D01*
X387663D01*
X388996D01*
X390329Y583666D01*
Y582333D01*
X388996Y581000D01*
X386330D01*
X384997Y582333D01*
X392995Y587664D02*
X394328Y588997D01*
X396994D01*
X398326Y587664D01*
Y586332D01*
X396994Y584999D01*
X395661D01*
X396994D01*
X398326Y583666D01*
Y582333D01*
X396994Y581000D01*
X394328D01*
X392995Y582333D01*
X77000Y787000D02*
X69003D01*
Y790999D01*
X70335Y792332D01*
X73001D01*
X74334Y790999D01*
Y787000D01*
Y789666D02*
X77000Y792332D01*
Y798996D02*
X69003D01*
X73001Y794997D01*
Y800329D01*
X40000Y545000D02*
Y552997D01*
X43999D01*
X45332Y551665D01*
Y548999D01*
X43999Y547666D01*
X40000D01*
X42666D02*
X45332Y545000D01*
X53329Y552997D02*
X47997D01*
Y548999D01*
X50663Y550332D01*
X51996D01*
X53329Y548999D01*
Y546333D01*
X51996Y545000D01*
X49330D01*
X47997Y546333D01*
X128000Y692000D02*
X120003D01*
Y695999D01*
X121335Y697332D01*
X124001D01*
X125334Y695999D01*
Y692000D01*
Y694666D02*
X128000Y697332D01*
X120003Y705329D02*
X121335Y702663D01*
X124001Y699997D01*
X126667D01*
X128000Y701330D01*
Y703996D01*
X126667Y705329D01*
X125334D01*
X124001Y703996D01*
Y699997D01*
X66000Y715000D02*
Y722997D01*
X69999D01*
X71332Y721665D01*
Y718999D01*
X69999Y717666D01*
X66000D01*
X68666D02*
X71332Y715000D01*
X73997Y722997D02*
X79329D01*
Y721665D01*
X73997Y716333D01*
Y715000D01*
X35000Y777000D02*
Y784997D01*
X38999D01*
X40332Y783664D01*
Y780999D01*
X38999Y779666D01*
X35000D01*
X37666D02*
X40332Y777000D01*
X42997Y783664D02*
X44330Y784997D01*
X46996D01*
X48329Y783664D01*
Y782332D01*
X46996Y780999D01*
X48329Y779666D01*
Y778333D01*
X46996Y777000D01*
X44330D01*
X42997Y778333D01*
Y779666D01*
X44330Y780999D01*
X42997Y782332D01*
Y783664D01*
X44330Y780999D02*
X46996D01*
X68000Y753997D02*
Y747333D01*
X69333Y746000D01*
X71999D01*
X73332Y747333D01*
Y753997D01*
X75997Y746000D02*
X78663D01*
X77330D01*
Y753997D01*
X75997Y752664D01*
X123000Y862997D02*
Y856333D01*
X124333Y855000D01*
X126999D01*
X128332Y856333D01*
Y862997D01*
X136329D02*
X130997D01*
Y858999D01*
X133663Y860332D01*
X134996D01*
X136329Y858999D01*
Y856333D01*
X134996Y855000D01*
X132330D01*
X130997Y856333D01*
X376000Y647997D02*
Y641333D01*
X377333Y640000D01*
X379999D01*
X381332Y641333D01*
Y647997D01*
X383997D02*
X389329D01*
Y646665D01*
X383997Y641333D01*
Y640000D01*
X557000Y741997D02*
X562332D01*
X559666D01*
Y734000D01*
X564997D02*
X567663D01*
X566330D01*
Y741997D01*
X564997Y740665D01*
X521000Y723000D02*
Y730997D01*
X524999D01*
X526332Y729665D01*
Y726999D01*
X524999Y725666D01*
X521000D01*
X523666D02*
X526332Y723000D01*
X528997D02*
X531663D01*
X530330D01*
Y730997D01*
X528997Y729665D01*
X540994Y723000D02*
X535662D01*
X540994Y728332D01*
Y729665D01*
X539661Y730997D01*
X536995D01*
X535662Y729665D01*
X516000Y780000D02*
Y787997D01*
X519999D01*
X521332Y786665D01*
Y783999D01*
X519999Y782666D01*
X516000D01*
X518666D02*
X521332Y780000D01*
X523997D02*
X526663D01*
X525330D01*
Y787997D01*
X523997Y786665D01*
X534661Y780000D02*
Y787997D01*
X530662Y783999D01*
X535994D01*
X126000Y798000D02*
Y805997D01*
X129999D01*
X131332Y804665D01*
Y801999D01*
X129999Y800666D01*
X126000D01*
X128666D02*
X131332Y798000D01*
X133997D02*
X136663D01*
X135330D01*
Y805997D01*
X133997Y804665D01*
X140662Y799333D02*
X141995Y798000D01*
X144661D01*
X145994Y799333D01*
Y804665D01*
X144661Y805997D01*
X141995D01*
X140662Y804665D01*
Y803332D01*
X141995Y801999D01*
X145994D01*
X421332Y383333D02*
Y388665D01*
X419999Y389997D01*
X417333D01*
X416000Y388665D01*
Y383333D01*
X417333Y382000D01*
X419999D01*
X418666Y384666D02*
X421332Y382000D01*
X419999D02*
X421332Y383333D01*
X429329Y382000D02*
X423997D01*
X429329Y387332D01*
Y388665D01*
X427996Y389997D01*
X425330D01*
X423997Y388665D01*
X421332Y398333D02*
Y403665D01*
X419999Y404997D01*
X417333D01*
X416000Y403665D01*
Y398333D01*
X417333Y397000D01*
X419999D01*
X418666Y399666D02*
X421332Y397000D01*
X419999D02*
X421332Y398333D01*
X427996Y397000D02*
Y404997D01*
X423997Y400999D01*
X429329D01*
X455000Y415000D02*
Y422997D01*
X458999D01*
X460332Y421665D01*
Y418999D01*
X458999Y417666D01*
X455000D01*
X457666D02*
X460332Y415000D01*
X468329D02*
X462997D01*
X468329Y420332D01*
Y421665D01*
X466996Y422997D01*
X464330D01*
X462997Y421665D01*
X470995D02*
X472328Y422997D01*
X474994D01*
X476326Y421665D01*
Y416333D01*
X474994Y415000D01*
X472328D01*
X470995Y416333D01*
Y421665D01*
X496335Y393332D02*
X495003Y391999D01*
Y389333D01*
X496335Y388000D01*
X501667D01*
X503000Y389333D01*
Y391999D01*
X501667Y393332D01*
X496335Y395997D02*
X495003Y397330D01*
Y399996D01*
X496335Y401329D01*
X497668D01*
X499001Y399996D01*
X500334Y401329D01*
X501667D01*
X503000Y399996D01*
Y397330D01*
X501667Y395997D01*
X500334D01*
X499001Y397330D01*
X497668Y395997D01*
X496335D01*
X499001Y397330D02*
Y399996D01*
X420332Y363333D02*
Y368665D01*
X418999Y369997D01*
X416333D01*
X415000Y368665D01*
Y363333D01*
X416333Y362000D01*
X418999D01*
X417666Y364666D02*
X420332Y362000D01*
X418999D02*
X420332Y363333D01*
X428329Y369997D02*
X422997D01*
Y365999D01*
X425663Y367332D01*
X426996D01*
X428329Y365999D01*
Y363333D01*
X426996Y362000D01*
X424330D01*
X422997Y363333D01*
X499000Y356000D02*
X491003D01*
Y359999D01*
X492336Y361332D01*
X495001D01*
X496334Y359999D01*
Y356000D01*
Y358666D02*
X499000Y361332D01*
Y369329D02*
Y363997D01*
X493668Y369329D01*
X492336D01*
X491003Y367996D01*
Y365330D01*
X492336Y363997D01*
X499000Y371995D02*
Y374661D01*
Y373328D01*
X491003D01*
X492336Y371995D01*
X506000Y348000D02*
Y355997D01*
X509999D01*
X511332Y354664D01*
Y351999D01*
X509999Y350666D01*
X506000D01*
X508666D02*
X511332Y348000D01*
X519329D02*
X513997D01*
X519329Y353332D01*
Y354664D01*
X517996Y355997D01*
X515330D01*
X513997Y354664D01*
X527327Y355997D02*
X524661Y354664D01*
X521995Y351999D01*
Y349333D01*
X523328Y348000D01*
X525994D01*
X527327Y349333D01*
Y350666D01*
X525994Y351999D01*
X521995D01*
X425000Y420000D02*
X417003D01*
Y423999D01*
X418335Y425332D01*
X421001D01*
X422334Y423999D01*
Y420000D01*
Y422666D02*
X425000Y425332D01*
Y433329D02*
Y427997D01*
X419668Y433329D01*
X418335D01*
X417003Y431996D01*
Y429330D01*
X418335Y427997D01*
X417003Y435995D02*
Y441326D01*
X418335D01*
X423667Y435995D01*
X425000D01*
X478332Y322333D02*
Y327664D01*
X476999Y328997D01*
X474333D01*
X473000Y327664D01*
Y322333D01*
X474333Y321000D01*
X476999D01*
X475666Y323666D02*
X478332Y321000D01*
X476999D02*
X478332Y322333D01*
X486329Y328997D02*
X483663Y327664D01*
X480997Y324999D01*
Y322333D01*
X482330Y321000D01*
X484996D01*
X486329Y322333D01*
Y323666D01*
X484996Y324999D01*
X480997D01*
X447332Y445333D02*
Y450664D01*
X445999Y451997D01*
X443333D01*
X442000Y450664D01*
Y445333D01*
X443333Y444000D01*
X445999D01*
X444666Y446666D02*
X447332Y444000D01*
X445999D02*
X447332Y445333D01*
X449997Y451997D02*
X455329D01*
Y450664D01*
X449997Y445333D01*
Y444000D01*
X181000Y883000D02*
Y890997D01*
X184999D01*
X186332Y889665D01*
Y886999D01*
X184999Y885666D01*
X181000D01*
X183666D02*
X186332Y883000D01*
X188997D02*
X191663D01*
X190330D01*
Y890997D01*
X188997Y889665D01*
X195662Y890997D02*
X200994D01*
Y889665D01*
X195662Y884333D01*
Y883000D01*
X299000Y552997D02*
Y545000D01*
X302999D01*
X304332Y546333D01*
Y551665D01*
X302999Y552997D01*
X299000D01*
X310996Y545000D02*
Y552997D01*
X306997Y548999D01*
X312329D01*
X553000Y426000D02*
X545003D01*
Y429999D01*
X546335Y431332D01*
X549001D01*
X550334Y429999D01*
Y426000D01*
Y428666D02*
X553000Y431332D01*
X551667Y433997D02*
X553000Y435330D01*
Y437996D01*
X551667Y439329D01*
X546335D01*
X545003Y437996D01*
Y435330D01*
X546335Y433997D01*
X547668D01*
X549001Y435330D01*
Y439329D01*
X276000Y714000D02*
Y721997D01*
X279999D01*
X281332Y720665D01*
Y717999D01*
X279999Y716666D01*
X276000D01*
X278666D02*
X281332Y714000D01*
X283997D02*
X286663D01*
X285330D01*
Y721997D01*
X283997Y720665D01*
X290662Y714000D02*
X293328D01*
X291995D01*
Y721997D01*
X290662Y720665D01*
X394000Y717000D02*
Y724997D01*
X397999D01*
X399332Y723664D01*
Y720999D01*
X397999Y719666D01*
X394000D01*
X396666D02*
X399332Y717000D01*
X407329D02*
X401997D01*
X407329Y722332D01*
Y723664D01*
X405996Y724997D01*
X403330D01*
X401997Y723664D01*
X413994Y717000D02*
Y724997D01*
X409995Y720999D01*
X415326D01*
X339332Y582333D02*
Y587664D01*
X337999Y588997D01*
X335333D01*
X334000Y587664D01*
Y582333D01*
X335333Y581000D01*
X337999D01*
X336666Y583666D02*
X339332Y581000D01*
X337999D02*
X339332Y582333D01*
X341997Y587664D02*
X343330Y588997D01*
X345996D01*
X347329Y587664D01*
Y586332D01*
X345996Y584999D01*
X344663D01*
X345996D01*
X347329Y583666D01*
Y582333D01*
X345996Y581000D01*
X343330D01*
X341997Y582333D01*
X468000Y361000D02*
X460003D01*
Y364999D01*
X461335Y366332D01*
X464001D01*
X465334Y364999D01*
Y361000D01*
Y363666D02*
X468000Y366332D01*
Y374329D02*
Y368997D01*
X462668Y374329D01*
X461335D01*
X460003Y372996D01*
Y370330D01*
X461335Y368997D01*
X460003Y382326D02*
Y376995D01*
X464001D01*
X462668Y379661D01*
Y380993D01*
X464001Y382326D01*
X466667D01*
X468000Y380993D01*
Y378328D01*
X466667Y376995D01*
X65332Y555997D02*
X62666D01*
X63999D01*
Y549333D01*
X62666Y548000D01*
X61333D01*
X60000Y549333D01*
X73329Y555997D02*
X70663Y554664D01*
X67997Y551999D01*
Y549333D01*
X69330Y548000D01*
X71996D01*
X73329Y549333D01*
Y550666D01*
X71996Y551999D01*
X67997D01*
X354332Y648997D02*
X351666D01*
X352999D01*
Y642333D01*
X351666Y641000D01*
X350333D01*
X349000Y642333D01*
X360996Y641000D02*
Y648997D01*
X356997Y644999D01*
X362329D01*
X444000Y936997D02*
X449332Y929000D01*
Y936997D02*
X444000Y929000D01*
X451997D02*
X454663D01*
X453330D01*
Y936997D01*
X451997Y935665D01*
X529000Y887997D02*
Y881333D01*
X530333Y880000D01*
X532999D01*
X534332Y881333D01*
Y887997D01*
X536997Y886665D02*
X538330Y887997D01*
X540996D01*
X542329Y886665D01*
Y885332D01*
X540996Y883999D01*
X539663D01*
X540996D01*
X542329Y882666D01*
Y881333D01*
X540996Y880000D01*
X538330D01*
X536997Y881333D01*
X514000Y802997D02*
Y796333D01*
X515333Y795000D01*
X517999D01*
X519332Y796333D01*
Y802997D01*
X521997Y801665D02*
X523330Y802997D01*
X525996D01*
X527329Y801665D01*
Y800332D01*
X525996Y798999D01*
X527329Y797666D01*
Y796333D01*
X525996Y795000D01*
X523330D01*
X521997Y796333D01*
Y797666D01*
X523330Y798999D01*
X521997Y800332D01*
Y801665D01*
X523330Y798999D02*
X525996D01*
X531000Y923997D02*
Y917333D01*
X532333Y916000D01*
X534999D01*
X536332Y917333D01*
Y923997D01*
X538997Y917333D02*
X540330Y916000D01*
X542996D01*
X544329Y917333D01*
Y922664D01*
X542996Y923997D01*
X540330D01*
X538997Y922664D01*
Y921332D01*
X540330Y919999D01*
X544329D01*
X565696Y858918D02*
X564363Y857585D01*
Y854919D01*
X565696Y853586D01*
X571027D01*
X572360Y854919D01*
Y857585D01*
X571027Y858918D01*
X564363Y861583D02*
Y866915D01*
X565696D01*
X571027Y861583D01*
X572360D01*
X532332Y897664D02*
X530999Y898997D01*
X528333D01*
X527000Y897664D01*
Y892333D01*
X528333Y891000D01*
X530999D01*
X532332Y892333D01*
X534997Y891000D02*
X537663D01*
X536330D01*
Y898997D01*
X534997Y897664D01*
X541662D02*
X542995Y898997D01*
X545661D01*
X546993Y897664D01*
Y892333D01*
X545661Y891000D01*
X542995D01*
X541662Y892333D01*
Y897664D01*
X553332Y801665D02*
X551999Y802997D01*
X549333D01*
X548000Y801665D01*
Y796333D01*
X549333Y795000D01*
X551999D01*
X553332Y796333D01*
X555997Y795000D02*
X558663D01*
X557330D01*
Y802997D01*
X555997Y801665D01*
X562662Y795000D02*
X565328D01*
X563995D01*
Y802997D01*
X562662Y801665D01*
X553332Y834665D02*
X551999Y835997D01*
X549333D01*
X548000Y834665D01*
Y829333D01*
X549333Y828000D01*
X551999D01*
X553332Y829333D01*
X555997Y828000D02*
X558663D01*
X557330D01*
Y835997D01*
X555997Y834665D01*
X567994Y828000D02*
X562662D01*
X567994Y833332D01*
Y834665D01*
X566661Y835997D01*
X563995D01*
X562662Y834665D01*
X565336Y891332D02*
X564003Y889999D01*
Y887333D01*
X565336Y886000D01*
X570667D01*
X572000Y887333D01*
Y889999D01*
X570667Y891332D01*
X572000Y897996D02*
X564003D01*
X568001Y893997D01*
Y899329D01*
X565336Y901995D02*
X564003Y903328D01*
Y905994D01*
X565336Y907327D01*
X566668D01*
X568001Y905994D01*
X569334Y907327D01*
X570667D01*
X572000Y905994D01*
Y903328D01*
X570667Y901995D01*
X569334D01*
X568001Y903328D01*
X566668Y901995D01*
X565336D01*
X568001Y903328D02*
Y905994D01*
X532332Y933664D02*
X530999Y934997D01*
X528333D01*
X527000Y933664D01*
Y928333D01*
X528333Y927000D01*
X530999D01*
X532332Y928333D01*
X538996Y927000D02*
Y934997D01*
X534997Y930999D01*
X540329D01*
X542995Y928333D02*
X544328Y927000D01*
X546993D01*
X548326Y928333D01*
Y933664D01*
X546993Y934997D01*
X544328D01*
X542995Y933664D01*
Y932332D01*
X544328Y930999D01*
X548326D01*
X328000Y910000D02*
X320003D01*
Y913999D01*
X321335Y915332D01*
X324001D01*
X325334Y913999D01*
Y910000D01*
Y912666D02*
X328000Y915332D01*
Y923329D02*
Y917997D01*
X322668Y923329D01*
X321335D01*
X320003Y921996D01*
Y919330D01*
X321335Y917997D01*
Y925995D02*
X320003Y927328D01*
Y929994D01*
X321335Y931327D01*
X322668D01*
X324001Y929994D01*
X325334Y931327D01*
X326667D01*
X328000Y929994D01*
Y927328D01*
X326667Y925995D01*
X325334D01*
X324001Y927328D01*
X322668Y925995D01*
X321335D01*
X324001Y927328D02*
Y929994D01*
X573000Y806000D02*
X565003D01*
Y809999D01*
X566335Y811332D01*
X569001D01*
X570334Y809999D01*
Y806000D01*
Y808666D02*
X573000Y811332D01*
Y813997D02*
Y816663D01*
Y815330D01*
X565003D01*
X566335Y813997D01*
X565003Y825993D02*
X566335Y823328D01*
X569001Y820662D01*
X571667D01*
X573000Y821995D01*
Y824661D01*
X571667Y825993D01*
X570334D01*
X569001Y824661D01*
Y820662D01*
X381000Y859997D02*
Y853333D01*
X382333Y852000D01*
X384999D01*
X386332Y853333D01*
Y859997D01*
X392996Y852000D02*
Y859997D01*
X388997Y855999D01*
X394329D01*
X417332Y770665D02*
X415999Y771997D01*
X413333D01*
X412000Y770665D01*
Y765333D01*
X413333Y764000D01*
X415999D01*
X417332Y765333D01*
X419997Y764000D02*
X422663D01*
X421330D01*
Y771997D01*
X419997Y770665D01*
X430661Y764000D02*
Y771997D01*
X426662Y767999D01*
X431993D01*
X437332Y747664D02*
X435999Y748997D01*
X433333D01*
X432000Y747664D01*
Y742333D01*
X433333Y741000D01*
X435999D01*
X437332Y742333D01*
X439997Y741000D02*
X442663D01*
X441330D01*
Y748997D01*
X439997Y747664D01*
X451994Y748997D02*
X446662D01*
Y744999D01*
X449328Y746332D01*
X450661D01*
X451994Y744999D01*
Y742333D01*
X450661Y741000D01*
X447995D01*
X446662Y742333D01*
X186336Y833332D02*
X185003Y831999D01*
Y829333D01*
X186336Y828000D01*
X191667D01*
X193000Y829333D01*
Y831999D01*
X191667Y833332D01*
X193000Y835997D02*
Y838663D01*
Y837330D01*
X185003D01*
X186336Y835997D01*
X185003Y847994D02*
X186336Y845328D01*
X189001Y842662D01*
X191667D01*
X193000Y843995D01*
Y846661D01*
X191667Y847994D01*
X190334D01*
X189001Y846661D01*
Y842662D01*
X143332Y836665D02*
X141999Y837997D01*
X139333D01*
X138000Y836665D01*
Y831333D01*
X139333Y830000D01*
X141999D01*
X143332Y831333D01*
X145997Y830000D02*
X148663D01*
X147330D01*
Y837997D01*
X145997Y836665D01*
X152662Y837997D02*
X157994D01*
Y836665D01*
X152662Y831333D01*
Y830000D01*
X94332Y672997D02*
X89000D01*
Y668999D01*
X91666D01*
X89000D01*
Y665000D01*
X96997D02*
X99663D01*
X98330D01*
Y672997D01*
X96997Y671665D01*
X124332Y605997D02*
X119000D01*
Y601999D01*
X121666D01*
X119000D01*
Y598000D01*
X132329D02*
X126997D01*
X132329Y603332D01*
Y604664D01*
X130996Y605997D01*
X128330D01*
X126997Y604664D01*
X495003Y421000D02*
X503000D01*
Y424999D01*
X501667Y426332D01*
X496335D01*
X495003Y424999D01*
Y421000D01*
Y434329D02*
X496335Y431663D01*
X499001Y428997D01*
X501667D01*
X503000Y430330D01*
Y432996D01*
X501667Y434329D01*
X500334D01*
X499001Y432996D01*
Y428997D01*
X61000Y826000D02*
X53003D01*
Y829999D01*
X54335Y831332D01*
X57001D01*
X58334Y829999D01*
Y826000D01*
Y828666D02*
X61000Y831332D01*
Y833997D02*
Y836663D01*
Y835330D01*
X53003D01*
X54335Y833997D01*
Y840662D02*
X53003Y841995D01*
Y844661D01*
X54335Y845994D01*
X59667D01*
X61000Y844661D01*
Y841995D01*
X59667Y840662D01*
X54335D01*
Y848659D02*
X53003Y849992D01*
Y852658D01*
X54335Y853991D01*
X59667D01*
X61000Y852658D01*
Y849992D01*
X59667Y848659D01*
X54335D01*
X500000Y919000D02*
X502666D01*
X501333D01*
Y926997D01*
X500000Y925665D01*
D50*
X530985Y913174D02*
G03*
X530174Y912015I-985J-174D01*
G01*
X513985Y819174D02*
G03*
X513174Y818015I-985J-174D01*
G01*
X529985Y876174D02*
G03*
X529174Y875015I-985J-174D01*
G01*
X120000Y575000D02*
X128000D01*
X120000Y593000D02*
X128000D01*
X89000Y643000D02*
X97000D01*
X89000Y661000D02*
X97000D01*
X552900Y748000D02*
X565000D01*
X531000Y748100D02*
X542900D01*
X531000D02*
Y764900D01*
X543700Y765900D02*
X552300D01*
X565000Y748000D02*
Y764900D01*
X142000Y877000D02*
X154100D01*
X164100Y876900D02*
X176000D01*
Y860100D02*
Y876900D01*
X154700Y859100D02*
X163300D01*
X142000Y860100D02*
Y877000D01*
X58000Y743900D02*
Y756000D01*
X57900Y722000D02*
Y733900D01*
X41100Y722000D02*
X57900D01*
X40100Y734700D02*
Y743300D01*
X41100Y756000D02*
X58000D01*
X486000Y547000D02*
X494000D01*
X486000Y521000D02*
X494000D01*
X22001Y503001D02*
G03*
X2001Y523001I-20000J0D01*
G01*
X22001Y43000D02*
G03*
X75000Y-10000I53000J0D01*
G01*
X524999D02*
G03*
X577999Y43000I0J53000D01*
G01*
Y893000D02*
G03*
X524999Y946000I-53000J0D01*
G01*
X52000D02*
G03*
X22001Y916000I0J-30000D01*
G01*
X2001Y743001D02*
G03*
X22001Y763001I0J20000D01*
G01*
X51000Y606000D02*
G03*
X52039Y615891I0J5000D01*
G01*
X51997Y690100D02*
G03*
X51000Y700000I-997J4900D01*
G01*
X-5001Y605801D02*
X51000D01*
X-5001Y523001D02*
Y605801D01*
X52000Y615900D02*
Y690100D01*
X-5000Y700000D02*
X51000D01*
X-5001Y700001D02*
Y743001D01*
X577999Y43000D02*
Y893000D01*
X52000Y946000D02*
X524999D01*
X22001Y763001D02*
Y916000D01*
X-5000Y743001D02*
X2000D01*
X-5000Y523001D02*
X2001D01*
X22001Y43000D02*
Y503001D01*
X75000Y-10000D02*
X524999D01*
D51*
X522985Y382174D02*
G03*
X521826Y381015I-985J-174D01*
G01*
X507490Y519602D02*
G03*
X507490Y519602I-691J0D01*
G01*
X175291Y636200D02*
G03*
X175291Y636200I-691J0D01*
G01*
D53*
X85000Y753000D02*
G03*
X85000Y753000I-1000J0D01*
G01*
X325028Y7738D02*
Y12738D01*
X339028Y7738D02*
Y12738D01*
X460000Y258994D02*
Y239000D01*
X466665Y245665D01*
X473329Y239000D01*
Y258994D01*
X479994D02*
Y239000D01*
X486658Y245665D01*
X493323Y239000D01*
Y258994D01*
X499987Y239000D02*
X513316Y252329D01*
X519981Y258994D02*
Y255661D01*
X526645Y248997D01*
X533310Y255661D01*
Y258994D01*
X526645Y248997D02*
Y239000D01*
X539974Y258994D02*
Y255661D01*
X546639Y248997D01*
X553303Y255661D01*
Y258994D01*
X546639Y248997D02*
Y239000D01*
X124329Y171000D02*
X111000D01*
X124329Y184329D01*
Y187661D01*
X120997Y190993D01*
X114332D01*
X111000Y187661D01*
X144323Y171000D02*
X130994D01*
X144323Y184329D01*
Y187661D01*
X140990Y190993D01*
X134326D01*
X130994Y187661D01*
X150987D02*
X154319Y190993D01*
X160984D01*
X164316Y187661D01*
Y184329D01*
X160984Y180997D01*
X164316Y177665D01*
Y174332D01*
X160984Y171000D01*
X154319D01*
X150987Y174332D01*
Y177665D01*
X154319Y180997D01*
X150987Y184329D01*
Y187661D01*
X154319Y180997D02*
X160984D01*
X184310Y171000D02*
X170981D01*
X184310Y184329D01*
Y187661D01*
X180977Y190993D01*
X174313D01*
X170981Y187661D01*
X236329Y190993D02*
X229664Y187661D01*
X223000Y180997D01*
Y174332D01*
X226332Y171000D01*
X232997D01*
X236329Y174332D01*
Y177665D01*
X232997Y180997D01*
X223000D01*
X242994Y187661D02*
X246326Y190993D01*
X252990D01*
X256323Y187661D01*
Y174332D01*
X252990Y171000D01*
X246326D01*
X242994Y174332D01*
Y187661D01*
X262987Y171000D02*
X269652D01*
X266319D01*
Y190993D01*
X262987Y187661D01*
X301000Y189993D02*
Y176665D01*
X307665Y170000D01*
X314329Y176665D01*
Y189993D01*
X320994Y186661D02*
X324326Y189993D01*
X330990D01*
X334323Y186661D01*
Y183329D01*
X330990Y179997D01*
X327658D01*
X330990D01*
X334323Y176665D01*
Y173332D01*
X330990Y170000D01*
X324326D01*
X320994Y173332D01*
X340987Y170000D02*
Y173332D01*
X344319D01*
Y170000D01*
X340987D01*
X357648Y189993D02*
X370977D01*
Y186661D01*
X357648Y173332D01*
Y170000D01*
D75*
X15999Y593800D02*
G03*
X18999Y596800I0J3000D01*
G01*
D02*
G03*
X15999Y599800I-3000J0D01*
G01*
X4001D02*
G03*
X1001Y596800I0J-3000D01*
G01*
D02*
G03*
X4001Y593800I3000J0D01*
G01*
X54000Y706200D02*
G03*
X57000Y709200I0J3000D01*
G01*
D02*
G03*
X54000Y712200I-3000J0D01*
G01*
X45999D02*
G03*
X43000Y709200I0J-3000D01*
G01*
D02*
G03*
X45999Y706200I3000J0D01*
G01*
X54000Y593800D02*
G03*
X57000Y596800I0J3000D01*
G01*
D02*
G03*
X54000Y599800I-3000J0D01*
G01*
X45999D02*
G03*
X43000Y596800I0J-3000D01*
G01*
D02*
G03*
X45999Y593800I3000J0D01*
G01*
X15999Y706200D02*
G03*
X18999Y709200I0J3000D01*
G01*
D02*
G03*
X15999Y712200I-3000J0D01*
G01*
X4001D02*
G03*
X1001Y709200I0J-3000D01*
G01*
D02*
G03*
X4001Y706200I3000J0D01*
G01*
Y599800D02*
X15999D01*
X4001Y593800D02*
X15999D01*
X45999Y712200D02*
X54000D01*
X45999Y706200D02*
X54000D01*
X45999Y599800D02*
X54000D01*
X45999Y593800D02*
X54000D01*
X4001Y712200D02*
X15999D01*
X4001Y706200D02*
X15999D01*
D94*
X324524Y52923D02*
G03*
X325028Y42738I4904J-4862D01*
G01*
X343028Y28738D02*
G03*
X374483Y28786I15634J61614D01*
G01*
X373401Y34648D02*
G03*
X343104Y34795I-15590J-90673D01*
G01*
X374483Y28786D02*
G03*
X373401Y34648I-877J2869D01*
G01*
X330363Y30715D02*
G03*
X339028Y33738I2809J5879D01*
G01*
X338562Y35178D02*
G03*
X331028Y31738I-1677J-6296D01*
G01*
X323495Y28298D02*
G03*
X331028Y31738I1677J6296D01*
G01*
X331375Y32903D02*
G03*
X323028Y29738I-2490J-6021D01*
G01*
X333008Y43752D02*
G03*
X333028Y53738I-5259J5004D01*
G01*
D02*
G03*
X324785Y53440I-3851J-7628D01*
G01*
X288656Y27828D02*
G03*
X318952Y27681I15590J90673D01*
G01*
X319028Y33738D02*
G03*
X287573Y33690I-15633J-61614D01*
G01*
X343194Y31738D02*
G03*
X343194Y31738I-12165J0D01*
G01*
X287574Y33690D02*
G03*
X288656Y27828I877J-2869D01*
G01*
X390000Y628000D02*
G03*
X390000Y628000I-1000J0D01*
G01*
X335028Y19738D02*
X338028Y10738D01*
X326028Y10738D02*
X329028Y19738D01*
X565000Y156000D02*
Y217000D01*
X444000Y156000D02*
X565000D01*
X444000D02*
Y217000D01*
X565000D01*
X213000Y888001D02*
X224000D01*
X213000Y877001D02*
Y887001D01*
X214000Y738001D02*
X224000D01*
X213000D02*
Y749001D01*
X363000Y739001D02*
Y749001D01*
X352000Y738001D02*
X363000D01*
X352000Y888001D02*
X362000D01*
X363000Y877001D02*
Y888001D01*
X125000Y714000D02*
Y752000D01*
X85000D02*
X125000D01*
X85000Y714000D02*
Y752000D01*
Y714000D02*
X125000D01*
X409500Y711000D02*
X424500D01*
X409500Y699000D02*
Y711000D01*
X424500D02*
Y714000D01*
X431500D01*
X517500Y700000D02*
Y712000D01*
X495500Y715000D02*
X502500D01*
Y712000D02*
Y715000D01*
Y712000D02*
X517500D01*
X493500Y649000D02*
X497500Y653000D01*
X433500Y649000D02*
X493500D01*
X497500Y653000D02*
X514500D01*
Y665000D01*
X409500D02*
X517500D01*
Y671000D01*
X409500Y665000D02*
Y671000D01*
X412500Y653000D02*
Y665000D01*
X412500Y653000D02*
X429500D01*
X429500D02*
X433500Y649000D01*
X205000Y653000D02*
X345000D01*
Y598000D02*
Y653000D01*
X205000Y598000D02*
X241000D01*
X205000D02*
Y653000D01*
X309000Y598000D02*
X345000D01*
X460000Y791000D02*
X492000D01*
Y801000D01*
X460000Y791000D02*
Y935000D01*
X493000Y925000D02*
Y935000D01*
X460000D02*
X493000D01*
X480000Y411700D02*
X489000D01*
X556171Y689551D02*
X553631Y692091D01*
X548553D01*
X546014Y689551D01*
Y687012D01*
X548553Y684473D01*
X553631D01*
X556171Y681934D01*
Y679395D01*
X553631Y676856D01*
X548553D01*
X546014Y679395D01*
X561249Y689551D02*
X563788Y692091D01*
X568866D01*
X571405Y689551D01*
Y687012D01*
X568866Y684473D01*
X566327D01*
X568866D01*
X571405Y681934D01*
Y679395D01*
X568866Y676856D01*
X563788D01*
X561249Y679395D01*
D95*
X215000Y888001D02*
G03*
X215000Y888001I-2000J0D01*
G01*
X313000Y587000D02*
G03*
X313000Y587000I-1000J0D01*
G01*
D96*
X531000Y913000D02*
X545000D01*
Y901000D02*
Y913000D01*
X531000Y901000D02*
Y913000D01*
Y901000D02*
X545000D01*
X514000Y807000D02*
X528000D01*
X514000D02*
Y819000D01*
X528000Y807000D02*
Y819000D01*
X514000D02*
X528000D01*
X530000Y876000D02*
X544000D01*
Y864000D02*
Y876000D01*
X530000Y864000D02*
Y876000D01*
Y864000D02*
X544000D01*
X328682Y557702D02*
Y576302D01*
X285022Y558382D02*
Y575602D01*
X282712Y557702D02*
X328682D01*
X282712Y576302D02*
X328682D01*
X282712Y557702D02*
Y576302D01*
X234318Y538698D02*
Y557298D01*
X277978Y539398D02*
Y556618D01*
X234318Y557298D02*
X280288D01*
X234318Y538698D02*
X280288D01*
Y557298D01*
X95682Y802702D02*
Y821302D01*
X52022Y803382D02*
Y820602D01*
X49712Y802702D02*
X95682D01*
X49712Y821302D02*
X95682D01*
X49712Y802702D02*
Y821302D01*
D97*
X150999Y519000D02*
X161999D01*
X165999Y523000D01*
X169499D01*
X146999D02*
X150999Y519000D01*
X82499Y523000D02*
X86999D01*
X116999D02*
X120999Y519000D01*
X131999D02*
X135999Y523000D01*
X120999Y519000D02*
X131999D01*
X86999Y523000D02*
X90999Y519000D01*
X101999D02*
X105999Y523000D01*
X90999Y519000D02*
X101999D01*
X135999Y523000D02*
X146999D01*
X105999D02*
X116999D01*
X169499D02*
Y560000D01*
X82499Y523000D02*
Y560000D01*
X169499D01*
D98*
X545430Y358570D02*
Y381430D01*
X522570Y358570D02*
X545430D01*
X522570D02*
Y381430D01*
X545430D01*
X574200Y663000D02*
X577200D01*
X574200Y623000D02*
X577200D01*
X544200D02*
X547200D01*
X544200Y663000D02*
X547200D01*
X584201Y634001D02*
Y651999D01*
X544200Y623000D02*
Y663000D01*
X577201Y623000D02*
Y634001D01*
Y651999D01*
Y663000D01*
Y634001D02*
X584201D01*
X577201Y651999D02*
X584201D01*
D99*
X557035Y634332D02*
X556202Y633499D01*
Y631833D01*
X557035Y631000D01*
X557868D01*
X558701Y631833D01*
Y633499D01*
X559534Y634332D01*
X560367D01*
X561200Y633499D01*
Y631833D01*
X560367Y631000D01*
X557035Y635998D02*
X556202Y636831D01*
Y638498D01*
X557035Y639331D01*
X557868D01*
X558701Y638498D01*
Y637664D01*
Y638498D01*
X559534Y639331D01*
X560367D01*
X561200Y638498D01*
Y636831D01*
X560367Y635998D01*
D100*
X75000Y893000D02*
D03*
D101*
X96499Y511500D02*
D03*
X126499D02*
D03*
X156499D02*
D03*
M02*
