G04 Layer_Color=12517376*
%FSLAX44Y44*%
%MOMM*%
G71*
G01*
G75*
%ADD50C,0.2000*%
%ADD75C,0.0000*%
D50*
X22001Y503001D02*
G03*
X2001Y523001I-20000J0D01*
G01*
X22001Y43000D02*
G03*
X75000Y-10000I53000J0D01*
G01*
X524999D02*
G03*
X577999Y43000I0J53000D01*
G01*
Y893000D02*
G03*
X524999Y946000I-53000J0D01*
G01*
X52000D02*
G03*
X22001Y916000I0J-30000D01*
G01*
X2001Y743001D02*
G03*
X22001Y763001I0J20000D01*
G01*
X51000Y606000D02*
G03*
X52039Y615891I0J5000D01*
G01*
X51997Y690100D02*
G03*
X51000Y700000I-997J4900D01*
G01*
X-5001Y605801D02*
X51000D01*
X-5001Y523001D02*
Y605801D01*
X52000Y615900D02*
Y690100D01*
X-5000Y700000D02*
X51000D01*
X-5001Y700001D02*
Y743001D01*
X577999Y43000D02*
Y893000D01*
X52000Y946000D02*
X524999D01*
X22001Y763001D02*
Y916000D01*
X-5000Y743001D02*
X2000D01*
X-5000Y523001D02*
X2001D01*
X22001Y43000D02*
Y503001D01*
X75000Y-10000D02*
X524999D01*
X22001Y503001D02*
G03*
X2001Y523001I-20000J0D01*
G01*
X22001Y43000D02*
G03*
X75000Y-10000I53000J0D01*
G01*
X524999D02*
G03*
X577999Y43000I0J53000D01*
G01*
Y893000D02*
G03*
X524999Y946000I-53000J0D01*
G01*
X52000D02*
G03*
X22001Y916000I0J-30000D01*
G01*
X2001Y743001D02*
G03*
X22001Y763001I0J20000D01*
G01*
X51000Y606000D02*
G03*
X52039Y615891I0J5000D01*
G01*
X51997Y690100D02*
G03*
X51000Y700000I-997J4900D01*
G01*
X-5001Y605801D02*
X51000D01*
X-5001Y523001D02*
Y605801D01*
X52000Y615900D02*
Y690100D01*
X-5000Y700000D02*
X51000D01*
X-5001Y700001D02*
Y743001D01*
X577999Y43000D02*
Y893000D01*
X52000Y946000D02*
X524999D01*
X22001Y763001D02*
Y916000D01*
X-5000Y743001D02*
X2000D01*
X-5000Y523001D02*
X2001D01*
X22001Y43000D02*
Y503001D01*
X75000Y-10000D02*
X524999D01*
D75*
X15999Y593800D02*
G03*
X18999Y596800I0J3000D01*
G01*
D02*
G03*
X15999Y599800I-3000J0D01*
G01*
X4001D02*
G03*
X1001Y596800I0J-3000D01*
G01*
D02*
G03*
X4001Y593800I3000J0D01*
G01*
X54000Y706200D02*
G03*
X57000Y709200I0J3000D01*
G01*
D02*
G03*
X54000Y712200I-3000J0D01*
G01*
X45999D02*
G03*
X43000Y709200I0J-3000D01*
G01*
D02*
G03*
X45999Y706200I3000J0D01*
G01*
X54000Y593800D02*
G03*
X57000Y596800I0J3000D01*
G01*
D02*
G03*
X54000Y599800I-3000J0D01*
G01*
X45999D02*
G03*
X43000Y596800I0J-3000D01*
G01*
D02*
G03*
X45999Y593800I3000J0D01*
G01*
X15999Y706200D02*
G03*
X18999Y709200I0J3000D01*
G01*
D02*
G03*
X15999Y712200I-3000J0D01*
G01*
X4001D02*
G03*
X1001Y709200I0J-3000D01*
G01*
D02*
G03*
X4001Y706200I3000J0D01*
G01*
Y599800D02*
X15999D01*
X4001Y593800D02*
X15999D01*
X45999Y712200D02*
X54000D01*
X45999Y706200D02*
X54000D01*
X45999Y599800D02*
X54000D01*
X45999Y593800D02*
X54000D01*
X4001Y712200D02*
X15999D01*
X4001Y706200D02*
X15999D01*
Y593800D02*
G03*
X18999Y596800I0J3000D01*
G01*
D02*
G03*
X15999Y599800I-3000J0D01*
G01*
X4001D02*
G03*
X1001Y596800I0J-3000D01*
G01*
D02*
G03*
X4001Y593800I3000J0D01*
G01*
X54000Y706200D02*
G03*
X57000Y709200I0J3000D01*
G01*
D02*
G03*
X54000Y712200I-3000J0D01*
G01*
X45999D02*
G03*
X43000Y709200I0J-3000D01*
G01*
D02*
G03*
X45999Y706200I3000J0D01*
G01*
X54000Y593800D02*
G03*
X57000Y596800I0J3000D01*
G01*
D02*
G03*
X54000Y599800I-3000J0D01*
G01*
X45999D02*
G03*
X43000Y596800I0J-3000D01*
G01*
D02*
G03*
X45999Y593800I3000J0D01*
G01*
X15999Y706200D02*
G03*
X18999Y709200I0J3000D01*
G01*
D02*
G03*
X15999Y712200I-3000J0D01*
G01*
X4001D02*
G03*
X1001Y709200I0J-3000D01*
G01*
D02*
G03*
X4001Y706200I3000J0D01*
G01*
Y599800D02*
X15999D01*
X4001Y593800D02*
X15999D01*
X45999Y712200D02*
X54000D01*
X45999Y706200D02*
X54000D01*
X45999Y599800D02*
X54000D01*
X45999Y593800D02*
X54000D01*
X4001Y712200D02*
X15999D01*
X4001Y706200D02*
X15999D01*
M02*
