G04 EAGLE Gerber RS-274X export*
G75*
%MOMM*%
%FSLAX34Y34*%
%LPD*%
%IN*%
%IPPOS*%
%AMOC8*
5,1,8,0,0,1.08239X$1,22.5*%
G01*
%ADD10C,0.254000*%


D10*
X-475000Y0D02*
X475000Y0D01*
X475000Y1300000D01*
X-475000Y1300000D01*
X-475000Y0D01*
X455000Y676300D02*
X465000Y676300D01*
X465261Y676311D01*
X465521Y676346D01*
X465776Y676402D01*
X466026Y676481D01*
X466268Y676581D01*
X466500Y676702D01*
X466721Y676843D01*
X466928Y677002D01*
X467121Y677179D01*
X467298Y677372D01*
X467457Y677579D01*
X467598Y677800D01*
X467719Y678032D01*
X467819Y678274D01*
X467898Y678524D01*
X467954Y678779D01*
X467989Y679039D01*
X468000Y679300D01*
X467989Y679561D01*
X467954Y679821D01*
X467898Y680076D01*
X467819Y680326D01*
X467719Y680568D01*
X467598Y680800D01*
X467457Y681021D01*
X467298Y681228D01*
X467121Y681421D01*
X466928Y681598D01*
X466721Y681757D01*
X466500Y681898D01*
X466268Y682019D01*
X466026Y682119D01*
X465776Y682198D01*
X465521Y682254D01*
X465261Y682289D01*
X465000Y682300D01*
X455000Y682300D01*
X454739Y682289D01*
X454479Y682254D01*
X454224Y682198D01*
X453974Y682119D01*
X453732Y682019D01*
X453500Y681898D01*
X453279Y681757D01*
X453072Y681598D01*
X452879Y681421D01*
X452702Y681228D01*
X452543Y681021D01*
X452402Y680800D01*
X452281Y680568D01*
X452181Y680326D01*
X452102Y680076D01*
X452046Y679821D01*
X452011Y679561D01*
X452000Y679300D01*
X452011Y679039D01*
X452046Y678779D01*
X452102Y678524D01*
X452181Y678274D01*
X452281Y678032D01*
X452402Y677800D01*
X452543Y677579D01*
X452702Y677372D01*
X452879Y677179D01*
X453072Y677002D01*
X453279Y676843D01*
X453500Y676702D01*
X453732Y676581D01*
X453974Y676481D01*
X454224Y676402D01*
X454479Y676346D01*
X454739Y676311D01*
X455000Y676300D01*
X455000Y762700D02*
X465000Y762700D01*
X465261Y762711D01*
X465521Y762746D01*
X465776Y762802D01*
X466026Y762881D01*
X466268Y762981D01*
X466500Y763102D01*
X466721Y763243D01*
X466928Y763402D01*
X467121Y763579D01*
X467298Y763772D01*
X467457Y763979D01*
X467598Y764200D01*
X467719Y764432D01*
X467819Y764674D01*
X467898Y764924D01*
X467954Y765179D01*
X467989Y765439D01*
X468000Y765700D01*
X467989Y765961D01*
X467954Y766221D01*
X467898Y766476D01*
X467819Y766726D01*
X467719Y766968D01*
X467598Y767200D01*
X467457Y767421D01*
X467298Y767628D01*
X467121Y767821D01*
X466928Y767998D01*
X466721Y768157D01*
X466500Y768298D01*
X466268Y768419D01*
X466026Y768519D01*
X465776Y768598D01*
X465521Y768654D01*
X465261Y768689D01*
X465000Y768700D01*
X455000Y768700D01*
X454739Y768689D01*
X454479Y768654D01*
X454224Y768598D01*
X453974Y768519D01*
X453732Y768419D01*
X453500Y768298D01*
X453279Y768157D01*
X453072Y767998D01*
X452879Y767821D01*
X452702Y767628D01*
X452543Y767421D01*
X452402Y767200D01*
X452281Y766968D01*
X452181Y766726D01*
X452102Y766476D01*
X452046Y766221D01*
X452011Y765961D01*
X452000Y765700D01*
X452011Y765439D01*
X452046Y765179D01*
X452102Y764924D01*
X452181Y764674D01*
X452281Y764432D01*
X452402Y764200D01*
X452543Y763979D01*
X452702Y763772D01*
X452879Y763579D01*
X453072Y763402D01*
X453279Y763243D01*
X453500Y763102D01*
X453732Y762981D01*
X453974Y762881D01*
X454224Y762802D01*
X454479Y762746D01*
X454739Y762711D01*
X455000Y762700D01*
X415000Y676300D02*
X425000Y676300D01*
X425261Y676311D01*
X425521Y676346D01*
X425776Y676402D01*
X426026Y676481D01*
X426268Y676581D01*
X426500Y676702D01*
X426721Y676843D01*
X426928Y677002D01*
X427121Y677179D01*
X427298Y677372D01*
X427457Y677579D01*
X427598Y677800D01*
X427719Y678032D01*
X427819Y678274D01*
X427898Y678524D01*
X427954Y678779D01*
X427989Y679039D01*
X428000Y679300D01*
X427989Y679561D01*
X427954Y679821D01*
X427898Y680076D01*
X427819Y680326D01*
X427719Y680568D01*
X427598Y680800D01*
X427457Y681021D01*
X427298Y681228D01*
X427121Y681421D01*
X426928Y681598D01*
X426721Y681757D01*
X426500Y681898D01*
X426268Y682019D01*
X426026Y682119D01*
X425776Y682198D01*
X425521Y682254D01*
X425261Y682289D01*
X425000Y682300D01*
X415000Y682300D01*
X414739Y682289D01*
X414479Y682254D01*
X414224Y682198D01*
X413974Y682119D01*
X413732Y682019D01*
X413500Y681898D01*
X413279Y681757D01*
X413072Y681598D01*
X412879Y681421D01*
X412702Y681228D01*
X412543Y681021D01*
X412402Y680800D01*
X412281Y680568D01*
X412181Y680326D01*
X412102Y680076D01*
X412046Y679821D01*
X412011Y679561D01*
X412000Y679300D01*
X412011Y679039D01*
X412046Y678779D01*
X412102Y678524D01*
X412181Y678274D01*
X412281Y678032D01*
X412402Y677800D01*
X412543Y677579D01*
X412702Y677372D01*
X412879Y677179D01*
X413072Y677002D01*
X413279Y676843D01*
X413500Y676702D01*
X413732Y676581D01*
X413974Y676481D01*
X414224Y676402D01*
X414479Y676346D01*
X414739Y676311D01*
X415000Y676300D01*
X415000Y762700D02*
X425000Y762700D01*
X425261Y762711D01*
X425521Y762746D01*
X425776Y762802D01*
X426026Y762881D01*
X426268Y762981D01*
X426500Y763102D01*
X426721Y763243D01*
X426928Y763402D01*
X427121Y763579D01*
X427298Y763772D01*
X427457Y763979D01*
X427598Y764200D01*
X427719Y764432D01*
X427819Y764674D01*
X427898Y764924D01*
X427954Y765179D01*
X427989Y765439D01*
X428000Y765700D01*
X427989Y765961D01*
X427954Y766221D01*
X427898Y766476D01*
X427819Y766726D01*
X427719Y766968D01*
X427598Y767200D01*
X427457Y767421D01*
X427298Y767628D01*
X427121Y767821D01*
X426928Y767998D01*
X426721Y768157D01*
X426500Y768298D01*
X426268Y768419D01*
X426026Y768519D01*
X425776Y768598D01*
X425521Y768654D01*
X425261Y768689D01*
X425000Y768700D01*
X415000Y768700D01*
X414739Y768689D01*
X414479Y768654D01*
X414224Y768598D01*
X413974Y768519D01*
X413732Y768419D01*
X413500Y768298D01*
X413279Y768157D01*
X413072Y767998D01*
X412879Y767821D01*
X412702Y767628D01*
X412543Y767421D01*
X412402Y767200D01*
X412281Y766968D01*
X412181Y766726D01*
X412102Y766476D01*
X412046Y766221D01*
X412011Y765961D01*
X412000Y765700D01*
X412011Y765439D01*
X412046Y765179D01*
X412102Y764924D01*
X412181Y764674D01*
X412281Y764432D01*
X412402Y764200D01*
X412543Y763979D01*
X412702Y763772D01*
X412879Y763579D01*
X413072Y763402D01*
X413279Y763243D01*
X413500Y763102D01*
X413732Y762981D01*
X413974Y762881D01*
X414224Y762802D01*
X414479Y762746D01*
X414739Y762711D01*
X415000Y762700D01*
X220725Y951218D02*
X220792Y950376D01*
X220924Y949542D01*
X221121Y948721D01*
X221382Y947917D01*
X221705Y947137D01*
X222089Y946384D01*
X222530Y945664D01*
X223027Y944980D01*
X223575Y944338D01*
X224173Y943741D01*
X224815Y943192D01*
X225498Y942696D01*
X226219Y942254D01*
X226971Y941871D01*
X227752Y941547D01*
X228555Y941286D01*
X229377Y941089D01*
X230211Y940957D01*
X231053Y940891D01*
X231898Y940891D01*
X232740Y940957D01*
X233574Y941089D01*
X234396Y941286D01*
X235199Y941547D01*
X235980Y941871D01*
X236732Y942254D01*
X237452Y942696D01*
X238136Y943192D01*
X238778Y943741D01*
X239376Y944338D01*
X239924Y944980D01*
X240421Y945664D01*
X240862Y946384D01*
X241246Y947137D01*
X241569Y947917D01*
X241830Y948721D01*
X242027Y949542D01*
X242159Y950376D01*
X242225Y951218D01*
X242225Y952063D01*
X242159Y952905D01*
X242027Y953740D01*
X241830Y954561D01*
X241569Y955364D01*
X241246Y956145D01*
X240862Y956898D01*
X240421Y957618D01*
X239924Y958301D01*
X239376Y958944D01*
X238778Y959541D01*
X238136Y960089D01*
X237452Y960586D01*
X236732Y961027D01*
X235980Y961411D01*
X235199Y961734D01*
X234396Y961995D01*
X233574Y962192D01*
X232740Y962325D01*
X231898Y962391D01*
X231053Y962391D01*
X230211Y962325D01*
X229377Y962192D01*
X228555Y961995D01*
X227752Y961734D01*
X226971Y961411D01*
X226219Y961027D01*
X225498Y960586D01*
X224815Y960089D01*
X224173Y959541D01*
X223575Y958944D01*
X223027Y958301D01*
X222530Y957618D01*
X222089Y956898D01*
X221705Y956145D01*
X221382Y955364D01*
X221121Y954561D01*
X220924Y953740D01*
X220792Y952905D01*
X220725Y952063D01*
X220725Y951218D01*
X-223775Y1154418D02*
X-223708Y1153576D01*
X-223576Y1152742D01*
X-223379Y1151921D01*
X-223118Y1151117D01*
X-222795Y1150337D01*
X-222411Y1149584D01*
X-221970Y1148864D01*
X-221473Y1148180D01*
X-220925Y1147538D01*
X-220327Y1146941D01*
X-219685Y1146392D01*
X-219002Y1145896D01*
X-218281Y1145454D01*
X-217529Y1145071D01*
X-216748Y1144747D01*
X-215945Y1144486D01*
X-215123Y1144289D01*
X-214289Y1144157D01*
X-213447Y1144091D01*
X-212602Y1144091D01*
X-211760Y1144157D01*
X-210926Y1144289D01*
X-210104Y1144486D01*
X-209301Y1144747D01*
X-208520Y1145071D01*
X-207768Y1145454D01*
X-207048Y1145896D01*
X-206364Y1146392D01*
X-205722Y1146941D01*
X-205124Y1147538D01*
X-204576Y1148180D01*
X-204079Y1148864D01*
X-203638Y1149584D01*
X-203254Y1150337D01*
X-202931Y1151117D01*
X-202670Y1151921D01*
X-202473Y1152742D01*
X-202341Y1153576D01*
X-202275Y1154418D01*
X-202275Y1155263D01*
X-202341Y1156105D01*
X-202473Y1156940D01*
X-202670Y1157761D01*
X-202931Y1158564D01*
X-203254Y1159345D01*
X-203638Y1160098D01*
X-204079Y1160818D01*
X-204576Y1161501D01*
X-205124Y1162144D01*
X-205722Y1162741D01*
X-206364Y1163289D01*
X-207048Y1163786D01*
X-207768Y1164227D01*
X-208520Y1164611D01*
X-209301Y1164934D01*
X-210104Y1165195D01*
X-210926Y1165392D01*
X-211760Y1165525D01*
X-212602Y1165591D01*
X-213447Y1165591D01*
X-214289Y1165525D01*
X-215123Y1165392D01*
X-215945Y1165195D01*
X-216748Y1164934D01*
X-217529Y1164611D01*
X-218281Y1164227D01*
X-219002Y1163786D01*
X-219685Y1163289D01*
X-220327Y1162741D01*
X-220925Y1162144D01*
X-221473Y1161501D01*
X-221970Y1160818D01*
X-222411Y1160098D01*
X-222795Y1159345D01*
X-223118Y1158564D01*
X-223379Y1157761D01*
X-223576Y1156940D01*
X-223708Y1156105D01*
X-223775Y1155263D01*
X-223775Y1154418D01*
M02*
