G04 EAGLE Gerber RS-274X export*
G75*
%MOMM*%
%FSLAX34Y34*%
%LPD*%
%INSilkscreen Bottom*%
%IPPOS*%
%AMOC8*
5,1,8,0,0,1.08239X$1,22.5*%
G01*
%ADD10C,0.101600*%
%ADD11C,0.050800*%
%ADD12C,0.152400*%
%ADD13C,0.203200*%


D10*
X48992Y1087050D02*
X48992Y1077963D01*
X48993Y1077963D02*
X48995Y1077864D01*
X49001Y1077764D01*
X49010Y1077665D01*
X49023Y1077567D01*
X49040Y1077469D01*
X49061Y1077371D01*
X49086Y1077275D01*
X49114Y1077180D01*
X49146Y1077086D01*
X49181Y1076993D01*
X49220Y1076901D01*
X49263Y1076811D01*
X49308Y1076723D01*
X49358Y1076636D01*
X49410Y1076552D01*
X49466Y1076469D01*
X49524Y1076389D01*
X49586Y1076311D01*
X49651Y1076236D01*
X49719Y1076163D01*
X49789Y1076093D01*
X49862Y1076025D01*
X49937Y1075960D01*
X50015Y1075898D01*
X50095Y1075840D01*
X50178Y1075784D01*
X50262Y1075732D01*
X50349Y1075682D01*
X50437Y1075637D01*
X50527Y1075594D01*
X50619Y1075555D01*
X50712Y1075520D01*
X50806Y1075488D01*
X50901Y1075460D01*
X50997Y1075435D01*
X51095Y1075414D01*
X51193Y1075397D01*
X51291Y1075384D01*
X51390Y1075375D01*
X51490Y1075369D01*
X51589Y1075367D01*
X51589Y1075366D02*
X52887Y1075366D01*
X43719Y1085752D02*
X43719Y1087050D01*
X37228Y1087050D01*
X40473Y1075366D01*
X32290Y1081208D02*
X32287Y1081438D01*
X32279Y1081668D01*
X32265Y1081897D01*
X32246Y1082126D01*
X32221Y1082355D01*
X32191Y1082583D01*
X32156Y1082810D01*
X32115Y1083036D01*
X32069Y1083261D01*
X32017Y1083485D01*
X31960Y1083708D01*
X31898Y1083929D01*
X31830Y1084149D01*
X31757Y1084367D01*
X31679Y1084583D01*
X31596Y1084797D01*
X31508Y1085010D01*
X31415Y1085220D01*
X31316Y1085427D01*
X31315Y1085427D02*
X31282Y1085517D01*
X31246Y1085606D01*
X31206Y1085694D01*
X31162Y1085779D01*
X31115Y1085863D01*
X31065Y1085945D01*
X31011Y1086025D01*
X30955Y1086102D01*
X30895Y1086178D01*
X30832Y1086251D01*
X30767Y1086321D01*
X30698Y1086389D01*
X30627Y1086453D01*
X30554Y1086515D01*
X30478Y1086574D01*
X30400Y1086630D01*
X30319Y1086683D01*
X30237Y1086732D01*
X30153Y1086778D01*
X30066Y1086821D01*
X29979Y1086860D01*
X29889Y1086896D01*
X29799Y1086928D01*
X29707Y1086956D01*
X29614Y1086981D01*
X29520Y1087002D01*
X29426Y1087019D01*
X29331Y1087033D01*
X29235Y1087042D01*
X29139Y1087048D01*
X29043Y1087050D01*
X28947Y1087048D01*
X28851Y1087042D01*
X28755Y1087033D01*
X28660Y1087019D01*
X28566Y1087002D01*
X28472Y1086981D01*
X28379Y1086956D01*
X28287Y1086928D01*
X28197Y1086896D01*
X28107Y1086860D01*
X28020Y1086821D01*
X27933Y1086778D01*
X27849Y1086732D01*
X27767Y1086683D01*
X27686Y1086630D01*
X27608Y1086574D01*
X27532Y1086515D01*
X27459Y1086453D01*
X27388Y1086389D01*
X27319Y1086321D01*
X27254Y1086251D01*
X27191Y1086178D01*
X27131Y1086103D01*
X27075Y1086025D01*
X27021Y1085945D01*
X26971Y1085863D01*
X26924Y1085779D01*
X26881Y1085694D01*
X26840Y1085606D01*
X26804Y1085517D01*
X26771Y1085427D01*
X26772Y1085427D02*
X26673Y1085219D01*
X26580Y1085009D01*
X26492Y1084797D01*
X26409Y1084583D01*
X26331Y1084366D01*
X26258Y1084148D01*
X26190Y1083929D01*
X26128Y1083707D01*
X26071Y1083485D01*
X26019Y1083261D01*
X25973Y1083036D01*
X25932Y1082810D01*
X25897Y1082582D01*
X25867Y1082355D01*
X25842Y1082126D01*
X25823Y1081897D01*
X25809Y1081668D01*
X25801Y1081438D01*
X25798Y1081208D01*
X32289Y1081208D02*
X32286Y1080978D01*
X32278Y1080748D01*
X32264Y1080519D01*
X32245Y1080290D01*
X32220Y1080061D01*
X32190Y1079833D01*
X32155Y1079606D01*
X32114Y1079380D01*
X32068Y1079155D01*
X32016Y1078931D01*
X31959Y1078708D01*
X31897Y1078487D01*
X31829Y1078267D01*
X31756Y1078049D01*
X31678Y1077833D01*
X31595Y1077619D01*
X31507Y1077407D01*
X31414Y1077196D01*
X31315Y1076989D01*
X31282Y1076899D01*
X31246Y1076810D01*
X31205Y1076722D01*
X31162Y1076637D01*
X31115Y1076553D01*
X31065Y1076471D01*
X31011Y1076391D01*
X30955Y1076314D01*
X30895Y1076238D01*
X30832Y1076165D01*
X30767Y1076095D01*
X30698Y1076027D01*
X30627Y1075963D01*
X30554Y1075901D01*
X30478Y1075842D01*
X30400Y1075786D01*
X30319Y1075733D01*
X30237Y1075684D01*
X30153Y1075638D01*
X30066Y1075595D01*
X29979Y1075556D01*
X29889Y1075520D01*
X29799Y1075488D01*
X29707Y1075460D01*
X29614Y1075435D01*
X29520Y1075414D01*
X29426Y1075397D01*
X29331Y1075383D01*
X29235Y1075374D01*
X29139Y1075368D01*
X29043Y1075366D01*
X26772Y1076989D02*
X26673Y1077196D01*
X26580Y1077407D01*
X26492Y1077619D01*
X26409Y1077833D01*
X26331Y1078049D01*
X26258Y1078267D01*
X26190Y1078487D01*
X26128Y1078708D01*
X26071Y1078931D01*
X26019Y1079155D01*
X25973Y1079380D01*
X25932Y1079606D01*
X25897Y1079833D01*
X25867Y1080061D01*
X25842Y1080290D01*
X25823Y1080519D01*
X25809Y1080748D01*
X25801Y1080978D01*
X25798Y1081208D01*
X26771Y1076989D02*
X26804Y1076899D01*
X26840Y1076810D01*
X26881Y1076722D01*
X26924Y1076637D01*
X26971Y1076553D01*
X27021Y1076471D01*
X27075Y1076391D01*
X27131Y1076313D01*
X27191Y1076238D01*
X27254Y1076165D01*
X27319Y1076095D01*
X27388Y1076027D01*
X27459Y1075963D01*
X27532Y1075901D01*
X27608Y1075842D01*
X27686Y1075786D01*
X27767Y1075733D01*
X27849Y1075684D01*
X27933Y1075638D01*
X28020Y1075595D01*
X28107Y1075556D01*
X28197Y1075520D01*
X28287Y1075488D01*
X28379Y1075460D01*
X28472Y1075435D01*
X28566Y1075414D01*
X28660Y1075397D01*
X28755Y1075383D01*
X28851Y1075374D01*
X28947Y1075368D01*
X29043Y1075366D01*
X31640Y1077963D02*
X26447Y1084454D01*
X20859Y1084454D02*
X17614Y1087050D01*
X17614Y1075366D01*
X20859Y1075366D02*
X14368Y1075366D01*
D11*
X-437500Y66710D02*
X-437500Y64170D01*
X-437500Y10830D02*
X-437500Y8290D01*
D12*
X-466710Y37500D02*
X-466701Y38217D01*
X-466675Y38933D01*
X-466631Y39649D01*
X-466569Y40363D01*
X-466490Y41076D01*
X-466394Y41786D01*
X-466280Y42494D01*
X-466149Y43199D01*
X-466000Y43900D01*
X-465835Y44597D01*
X-465652Y45291D01*
X-465452Y45979D01*
X-465236Y46663D01*
X-465003Y47341D01*
X-464753Y48013D01*
X-464487Y48678D01*
X-464204Y49337D01*
X-463906Y49989D01*
X-463591Y50633D01*
X-463261Y51269D01*
X-462915Y51898D01*
X-462554Y52517D01*
X-462178Y53127D01*
X-461787Y53728D01*
X-461382Y54319D01*
X-460962Y54900D01*
X-460528Y55471D01*
X-460080Y56031D01*
X-459618Y56579D01*
X-459143Y57116D01*
X-458655Y57641D01*
X-458155Y58155D01*
X-457641Y58655D01*
X-457116Y59143D01*
X-456579Y59618D01*
X-456031Y60080D01*
X-455471Y60528D01*
X-454900Y60962D01*
X-454319Y61382D01*
X-453728Y61787D01*
X-453127Y62178D01*
X-452517Y62554D01*
X-451898Y62915D01*
X-451269Y63261D01*
X-450633Y63591D01*
X-449989Y63906D01*
X-449337Y64204D01*
X-448678Y64487D01*
X-448013Y64753D01*
X-447341Y65003D01*
X-446663Y65236D01*
X-445979Y65452D01*
X-445291Y65652D01*
X-444597Y65835D01*
X-443900Y66000D01*
X-443199Y66149D01*
X-442494Y66280D01*
X-441786Y66394D01*
X-441076Y66490D01*
X-440363Y66569D01*
X-439649Y66631D01*
X-438933Y66675D01*
X-438217Y66701D01*
X-437500Y66710D01*
X-436783Y66701D01*
X-436067Y66675D01*
X-435351Y66631D01*
X-434637Y66569D01*
X-433924Y66490D01*
X-433214Y66394D01*
X-432506Y66280D01*
X-431801Y66149D01*
X-431100Y66000D01*
X-430403Y65835D01*
X-429709Y65652D01*
X-429021Y65452D01*
X-428337Y65236D01*
X-427659Y65003D01*
X-426987Y64753D01*
X-426322Y64487D01*
X-425663Y64204D01*
X-425011Y63906D01*
X-424367Y63591D01*
X-423731Y63261D01*
X-423102Y62915D01*
X-422483Y62554D01*
X-421873Y62178D01*
X-421272Y61787D01*
X-420681Y61382D01*
X-420100Y60962D01*
X-419529Y60528D01*
X-418969Y60080D01*
X-418421Y59618D01*
X-417884Y59143D01*
X-417359Y58655D01*
X-416845Y58155D01*
X-416345Y57641D01*
X-415857Y57116D01*
X-415382Y56579D01*
X-414920Y56031D01*
X-414472Y55471D01*
X-414038Y54900D01*
X-413618Y54319D01*
X-413213Y53728D01*
X-412822Y53127D01*
X-412446Y52517D01*
X-412085Y51898D01*
X-411739Y51269D01*
X-411409Y50633D01*
X-411094Y49989D01*
X-410796Y49337D01*
X-410513Y48678D01*
X-410247Y48013D01*
X-409997Y47341D01*
X-409764Y46663D01*
X-409548Y45979D01*
X-409348Y45291D01*
X-409165Y44597D01*
X-409000Y43900D01*
X-408851Y43199D01*
X-408720Y42494D01*
X-408606Y41786D01*
X-408510Y41076D01*
X-408431Y40363D01*
X-408369Y39649D01*
X-408325Y38933D01*
X-408299Y38217D01*
X-408290Y37500D01*
X-408299Y36783D01*
X-408325Y36067D01*
X-408369Y35351D01*
X-408431Y34637D01*
X-408510Y33924D01*
X-408606Y33214D01*
X-408720Y32506D01*
X-408851Y31801D01*
X-409000Y31100D01*
X-409165Y30403D01*
X-409348Y29709D01*
X-409548Y29021D01*
X-409764Y28337D01*
X-409997Y27659D01*
X-410247Y26987D01*
X-410513Y26322D01*
X-410796Y25663D01*
X-411094Y25011D01*
X-411409Y24367D01*
X-411739Y23731D01*
X-412085Y23102D01*
X-412446Y22483D01*
X-412822Y21873D01*
X-413213Y21272D01*
X-413618Y20681D01*
X-414038Y20100D01*
X-414472Y19529D01*
X-414920Y18969D01*
X-415382Y18421D01*
X-415857Y17884D01*
X-416345Y17359D01*
X-416845Y16845D01*
X-417359Y16345D01*
X-417884Y15857D01*
X-418421Y15382D01*
X-418969Y14920D01*
X-419529Y14472D01*
X-420100Y14038D01*
X-420681Y13618D01*
X-421272Y13213D01*
X-421873Y12822D01*
X-422483Y12446D01*
X-423102Y12085D01*
X-423731Y11739D01*
X-424367Y11409D01*
X-425011Y11094D01*
X-425663Y10796D01*
X-426322Y10513D01*
X-426987Y10247D01*
X-427659Y9997D01*
X-428337Y9764D01*
X-429021Y9548D01*
X-429709Y9348D01*
X-430403Y9165D01*
X-431100Y9000D01*
X-431801Y8851D01*
X-432506Y8720D01*
X-433214Y8606D01*
X-433924Y8510D01*
X-434637Y8431D01*
X-435351Y8369D01*
X-436067Y8325D01*
X-436783Y8299D01*
X-437500Y8290D01*
X-438217Y8299D01*
X-438933Y8325D01*
X-439649Y8369D01*
X-440363Y8431D01*
X-441076Y8510D01*
X-441786Y8606D01*
X-442494Y8720D01*
X-443199Y8851D01*
X-443900Y9000D01*
X-444597Y9165D01*
X-445291Y9348D01*
X-445979Y9548D01*
X-446663Y9764D01*
X-447341Y9997D01*
X-448013Y10247D01*
X-448678Y10513D01*
X-449337Y10796D01*
X-449989Y11094D01*
X-450633Y11409D01*
X-451269Y11739D01*
X-451898Y12085D01*
X-452517Y12446D01*
X-453127Y12822D01*
X-453728Y13213D01*
X-454319Y13618D01*
X-454900Y14038D01*
X-455471Y14472D01*
X-456031Y14920D01*
X-456579Y15382D01*
X-457116Y15857D01*
X-457641Y16345D01*
X-458155Y16845D01*
X-458655Y17359D01*
X-459143Y17884D01*
X-459618Y18421D01*
X-460080Y18969D01*
X-460528Y19529D01*
X-460962Y20100D01*
X-461382Y20681D01*
X-461787Y21272D01*
X-462178Y21873D01*
X-462554Y22483D01*
X-462915Y23102D01*
X-463261Y23731D01*
X-463591Y24367D01*
X-463906Y25011D01*
X-464204Y25663D01*
X-464487Y26322D01*
X-464753Y26987D01*
X-465003Y27659D01*
X-465236Y28337D01*
X-465452Y29021D01*
X-465652Y29709D01*
X-465835Y30403D01*
X-466000Y31100D01*
X-466149Y31801D01*
X-466280Y32506D01*
X-466394Y33214D01*
X-466490Y33924D01*
X-466569Y34637D01*
X-466631Y35351D01*
X-466675Y36067D01*
X-466701Y36783D01*
X-466710Y37500D01*
D13*
X-452500Y37500D02*
X-452495Y37868D01*
X-452482Y38236D01*
X-452459Y38603D01*
X-452428Y38970D01*
X-452387Y39336D01*
X-452338Y39701D01*
X-452279Y40064D01*
X-452212Y40426D01*
X-452136Y40787D01*
X-452050Y41145D01*
X-451957Y41501D01*
X-451854Y41854D01*
X-451743Y42205D01*
X-451623Y42553D01*
X-451495Y42898D01*
X-451358Y43240D01*
X-451213Y43579D01*
X-451060Y43913D01*
X-450898Y44244D01*
X-450729Y44571D01*
X-450551Y44893D01*
X-450366Y45212D01*
X-450173Y45525D01*
X-449972Y45834D01*
X-449764Y46137D01*
X-449548Y46435D01*
X-449325Y46728D01*
X-449095Y47016D01*
X-448858Y47298D01*
X-448614Y47573D01*
X-448364Y47843D01*
X-448107Y48107D01*
X-447843Y48364D01*
X-447573Y48614D01*
X-447298Y48858D01*
X-447016Y49095D01*
X-446728Y49325D01*
X-446435Y49548D01*
X-446137Y49764D01*
X-445834Y49972D01*
X-445525Y50173D01*
X-445212Y50366D01*
X-444893Y50551D01*
X-444571Y50729D01*
X-444244Y50898D01*
X-443913Y51060D01*
X-443579Y51213D01*
X-443240Y51358D01*
X-442898Y51495D01*
X-442553Y51623D01*
X-442205Y51743D01*
X-441854Y51854D01*
X-441501Y51957D01*
X-441145Y52050D01*
X-440787Y52136D01*
X-440426Y52212D01*
X-440064Y52279D01*
X-439701Y52338D01*
X-439336Y52387D01*
X-438970Y52428D01*
X-438603Y52459D01*
X-438236Y52482D01*
X-437868Y52495D01*
X-437500Y52500D01*
X-437132Y52495D01*
X-436764Y52482D01*
X-436397Y52459D01*
X-436030Y52428D01*
X-435664Y52387D01*
X-435299Y52338D01*
X-434936Y52279D01*
X-434574Y52212D01*
X-434213Y52136D01*
X-433855Y52050D01*
X-433499Y51957D01*
X-433146Y51854D01*
X-432795Y51743D01*
X-432447Y51623D01*
X-432102Y51495D01*
X-431760Y51358D01*
X-431421Y51213D01*
X-431087Y51060D01*
X-430756Y50898D01*
X-430429Y50729D01*
X-430107Y50551D01*
X-429788Y50366D01*
X-429475Y50173D01*
X-429166Y49972D01*
X-428863Y49764D01*
X-428565Y49548D01*
X-428272Y49325D01*
X-427984Y49095D01*
X-427702Y48858D01*
X-427427Y48614D01*
X-427157Y48364D01*
X-426893Y48107D01*
X-426636Y47843D01*
X-426386Y47573D01*
X-426142Y47298D01*
X-425905Y47016D01*
X-425675Y46728D01*
X-425452Y46435D01*
X-425236Y46137D01*
X-425028Y45834D01*
X-424827Y45525D01*
X-424634Y45212D01*
X-424449Y44893D01*
X-424271Y44571D01*
X-424102Y44244D01*
X-423940Y43913D01*
X-423787Y43579D01*
X-423642Y43240D01*
X-423505Y42898D01*
X-423377Y42553D01*
X-423257Y42205D01*
X-423146Y41854D01*
X-423043Y41501D01*
X-422950Y41145D01*
X-422864Y40787D01*
X-422788Y40426D01*
X-422721Y40064D01*
X-422662Y39701D01*
X-422613Y39336D01*
X-422572Y38970D01*
X-422541Y38603D01*
X-422518Y38236D01*
X-422505Y37868D01*
X-422500Y37500D01*
X-422505Y37132D01*
X-422518Y36764D01*
X-422541Y36397D01*
X-422572Y36030D01*
X-422613Y35664D01*
X-422662Y35299D01*
X-422721Y34936D01*
X-422788Y34574D01*
X-422864Y34213D01*
X-422950Y33855D01*
X-423043Y33499D01*
X-423146Y33146D01*
X-423257Y32795D01*
X-423377Y32447D01*
X-423505Y32102D01*
X-423642Y31760D01*
X-423787Y31421D01*
X-423940Y31087D01*
X-424102Y30756D01*
X-424271Y30429D01*
X-424449Y30107D01*
X-424634Y29788D01*
X-424827Y29475D01*
X-425028Y29166D01*
X-425236Y28863D01*
X-425452Y28565D01*
X-425675Y28272D01*
X-425905Y27984D01*
X-426142Y27702D01*
X-426386Y27427D01*
X-426636Y27157D01*
X-426893Y26893D01*
X-427157Y26636D01*
X-427427Y26386D01*
X-427702Y26142D01*
X-427984Y25905D01*
X-428272Y25675D01*
X-428565Y25452D01*
X-428863Y25236D01*
X-429166Y25028D01*
X-429475Y24827D01*
X-429788Y24634D01*
X-430107Y24449D01*
X-430429Y24271D01*
X-430756Y24102D01*
X-431087Y23940D01*
X-431421Y23787D01*
X-431760Y23642D01*
X-432102Y23505D01*
X-432447Y23377D01*
X-432795Y23257D01*
X-433146Y23146D01*
X-433499Y23043D01*
X-433855Y22950D01*
X-434213Y22864D01*
X-434574Y22788D01*
X-434936Y22721D01*
X-435299Y22662D01*
X-435664Y22613D01*
X-436030Y22572D01*
X-436397Y22541D01*
X-436764Y22518D01*
X-437132Y22505D01*
X-437500Y22500D01*
X-437868Y22505D01*
X-438236Y22518D01*
X-438603Y22541D01*
X-438970Y22572D01*
X-439336Y22613D01*
X-439701Y22662D01*
X-440064Y22721D01*
X-440426Y22788D01*
X-440787Y22864D01*
X-441145Y22950D01*
X-441501Y23043D01*
X-441854Y23146D01*
X-442205Y23257D01*
X-442553Y23377D01*
X-442898Y23505D01*
X-443240Y23642D01*
X-443579Y23787D01*
X-443913Y23940D01*
X-444244Y24102D01*
X-444571Y24271D01*
X-444893Y24449D01*
X-445212Y24634D01*
X-445525Y24827D01*
X-445834Y25028D01*
X-446137Y25236D01*
X-446435Y25452D01*
X-446728Y25675D01*
X-447016Y25905D01*
X-447298Y26142D01*
X-447573Y26386D01*
X-447843Y26636D01*
X-448107Y26893D01*
X-448364Y27157D01*
X-448614Y27427D01*
X-448858Y27702D01*
X-449095Y27984D01*
X-449325Y28272D01*
X-449548Y28565D01*
X-449764Y28863D01*
X-449972Y29166D01*
X-450173Y29475D01*
X-450366Y29788D01*
X-450551Y30107D01*
X-450729Y30429D01*
X-450898Y30756D01*
X-451060Y31087D01*
X-451213Y31421D01*
X-451358Y31760D01*
X-451495Y32102D01*
X-451623Y32447D01*
X-451743Y32795D01*
X-451854Y33146D01*
X-451957Y33499D01*
X-452050Y33855D01*
X-452136Y34213D01*
X-452212Y34574D01*
X-452279Y34936D01*
X-452338Y35299D01*
X-452387Y35664D01*
X-452428Y36030D01*
X-452459Y36397D01*
X-452482Y36764D01*
X-452495Y37132D01*
X-452500Y37500D01*
D11*
X437500Y64170D02*
X437500Y66710D01*
X437500Y10830D02*
X437500Y8290D01*
D12*
X408290Y37500D02*
X408299Y38217D01*
X408325Y38933D01*
X408369Y39649D01*
X408431Y40363D01*
X408510Y41076D01*
X408606Y41786D01*
X408720Y42494D01*
X408851Y43199D01*
X409000Y43900D01*
X409165Y44597D01*
X409348Y45291D01*
X409548Y45979D01*
X409764Y46663D01*
X409997Y47341D01*
X410247Y48013D01*
X410513Y48678D01*
X410796Y49337D01*
X411094Y49989D01*
X411409Y50633D01*
X411739Y51269D01*
X412085Y51898D01*
X412446Y52517D01*
X412822Y53127D01*
X413213Y53728D01*
X413618Y54319D01*
X414038Y54900D01*
X414472Y55471D01*
X414920Y56031D01*
X415382Y56579D01*
X415857Y57116D01*
X416345Y57641D01*
X416845Y58155D01*
X417359Y58655D01*
X417884Y59143D01*
X418421Y59618D01*
X418969Y60080D01*
X419529Y60528D01*
X420100Y60962D01*
X420681Y61382D01*
X421272Y61787D01*
X421873Y62178D01*
X422483Y62554D01*
X423102Y62915D01*
X423731Y63261D01*
X424367Y63591D01*
X425011Y63906D01*
X425663Y64204D01*
X426322Y64487D01*
X426987Y64753D01*
X427659Y65003D01*
X428337Y65236D01*
X429021Y65452D01*
X429709Y65652D01*
X430403Y65835D01*
X431100Y66000D01*
X431801Y66149D01*
X432506Y66280D01*
X433214Y66394D01*
X433924Y66490D01*
X434637Y66569D01*
X435351Y66631D01*
X436067Y66675D01*
X436783Y66701D01*
X437500Y66710D01*
X438217Y66701D01*
X438933Y66675D01*
X439649Y66631D01*
X440363Y66569D01*
X441076Y66490D01*
X441786Y66394D01*
X442494Y66280D01*
X443199Y66149D01*
X443900Y66000D01*
X444597Y65835D01*
X445291Y65652D01*
X445979Y65452D01*
X446663Y65236D01*
X447341Y65003D01*
X448013Y64753D01*
X448678Y64487D01*
X449337Y64204D01*
X449989Y63906D01*
X450633Y63591D01*
X451269Y63261D01*
X451898Y62915D01*
X452517Y62554D01*
X453127Y62178D01*
X453728Y61787D01*
X454319Y61382D01*
X454900Y60962D01*
X455471Y60528D01*
X456031Y60080D01*
X456579Y59618D01*
X457116Y59143D01*
X457641Y58655D01*
X458155Y58155D01*
X458655Y57641D01*
X459143Y57116D01*
X459618Y56579D01*
X460080Y56031D01*
X460528Y55471D01*
X460962Y54900D01*
X461382Y54319D01*
X461787Y53728D01*
X462178Y53127D01*
X462554Y52517D01*
X462915Y51898D01*
X463261Y51269D01*
X463591Y50633D01*
X463906Y49989D01*
X464204Y49337D01*
X464487Y48678D01*
X464753Y48013D01*
X465003Y47341D01*
X465236Y46663D01*
X465452Y45979D01*
X465652Y45291D01*
X465835Y44597D01*
X466000Y43900D01*
X466149Y43199D01*
X466280Y42494D01*
X466394Y41786D01*
X466490Y41076D01*
X466569Y40363D01*
X466631Y39649D01*
X466675Y38933D01*
X466701Y38217D01*
X466710Y37500D01*
X466701Y36783D01*
X466675Y36067D01*
X466631Y35351D01*
X466569Y34637D01*
X466490Y33924D01*
X466394Y33214D01*
X466280Y32506D01*
X466149Y31801D01*
X466000Y31100D01*
X465835Y30403D01*
X465652Y29709D01*
X465452Y29021D01*
X465236Y28337D01*
X465003Y27659D01*
X464753Y26987D01*
X464487Y26322D01*
X464204Y25663D01*
X463906Y25011D01*
X463591Y24367D01*
X463261Y23731D01*
X462915Y23102D01*
X462554Y22483D01*
X462178Y21873D01*
X461787Y21272D01*
X461382Y20681D01*
X460962Y20100D01*
X460528Y19529D01*
X460080Y18969D01*
X459618Y18421D01*
X459143Y17884D01*
X458655Y17359D01*
X458155Y16845D01*
X457641Y16345D01*
X457116Y15857D01*
X456579Y15382D01*
X456031Y14920D01*
X455471Y14472D01*
X454900Y14038D01*
X454319Y13618D01*
X453728Y13213D01*
X453127Y12822D01*
X452517Y12446D01*
X451898Y12085D01*
X451269Y11739D01*
X450633Y11409D01*
X449989Y11094D01*
X449337Y10796D01*
X448678Y10513D01*
X448013Y10247D01*
X447341Y9997D01*
X446663Y9764D01*
X445979Y9548D01*
X445291Y9348D01*
X444597Y9165D01*
X443900Y9000D01*
X443199Y8851D01*
X442494Y8720D01*
X441786Y8606D01*
X441076Y8510D01*
X440363Y8431D01*
X439649Y8369D01*
X438933Y8325D01*
X438217Y8299D01*
X437500Y8290D01*
X436783Y8299D01*
X436067Y8325D01*
X435351Y8369D01*
X434637Y8431D01*
X433924Y8510D01*
X433214Y8606D01*
X432506Y8720D01*
X431801Y8851D01*
X431100Y9000D01*
X430403Y9165D01*
X429709Y9348D01*
X429021Y9548D01*
X428337Y9764D01*
X427659Y9997D01*
X426987Y10247D01*
X426322Y10513D01*
X425663Y10796D01*
X425011Y11094D01*
X424367Y11409D01*
X423731Y11739D01*
X423102Y12085D01*
X422483Y12446D01*
X421873Y12822D01*
X421272Y13213D01*
X420681Y13618D01*
X420100Y14038D01*
X419529Y14472D01*
X418969Y14920D01*
X418421Y15382D01*
X417884Y15857D01*
X417359Y16345D01*
X416845Y16845D01*
X416345Y17359D01*
X415857Y17884D01*
X415382Y18421D01*
X414920Y18969D01*
X414472Y19529D01*
X414038Y20100D01*
X413618Y20681D01*
X413213Y21272D01*
X412822Y21873D01*
X412446Y22483D01*
X412085Y23102D01*
X411739Y23731D01*
X411409Y24367D01*
X411094Y25011D01*
X410796Y25663D01*
X410513Y26322D01*
X410247Y26987D01*
X409997Y27659D01*
X409764Y28337D01*
X409548Y29021D01*
X409348Y29709D01*
X409165Y30403D01*
X409000Y31100D01*
X408851Y31801D01*
X408720Y32506D01*
X408606Y33214D01*
X408510Y33924D01*
X408431Y34637D01*
X408369Y35351D01*
X408325Y36067D01*
X408299Y36783D01*
X408290Y37500D01*
D13*
X422500Y37500D02*
X422505Y37868D01*
X422518Y38236D01*
X422541Y38603D01*
X422572Y38970D01*
X422613Y39336D01*
X422662Y39701D01*
X422721Y40064D01*
X422788Y40426D01*
X422864Y40787D01*
X422950Y41145D01*
X423043Y41501D01*
X423146Y41854D01*
X423257Y42205D01*
X423377Y42553D01*
X423505Y42898D01*
X423642Y43240D01*
X423787Y43579D01*
X423940Y43913D01*
X424102Y44244D01*
X424271Y44571D01*
X424449Y44893D01*
X424634Y45212D01*
X424827Y45525D01*
X425028Y45834D01*
X425236Y46137D01*
X425452Y46435D01*
X425675Y46728D01*
X425905Y47016D01*
X426142Y47298D01*
X426386Y47573D01*
X426636Y47843D01*
X426893Y48107D01*
X427157Y48364D01*
X427427Y48614D01*
X427702Y48858D01*
X427984Y49095D01*
X428272Y49325D01*
X428565Y49548D01*
X428863Y49764D01*
X429166Y49972D01*
X429475Y50173D01*
X429788Y50366D01*
X430107Y50551D01*
X430429Y50729D01*
X430756Y50898D01*
X431087Y51060D01*
X431421Y51213D01*
X431760Y51358D01*
X432102Y51495D01*
X432447Y51623D01*
X432795Y51743D01*
X433146Y51854D01*
X433499Y51957D01*
X433855Y52050D01*
X434213Y52136D01*
X434574Y52212D01*
X434936Y52279D01*
X435299Y52338D01*
X435664Y52387D01*
X436030Y52428D01*
X436397Y52459D01*
X436764Y52482D01*
X437132Y52495D01*
X437500Y52500D01*
X437868Y52495D01*
X438236Y52482D01*
X438603Y52459D01*
X438970Y52428D01*
X439336Y52387D01*
X439701Y52338D01*
X440064Y52279D01*
X440426Y52212D01*
X440787Y52136D01*
X441145Y52050D01*
X441501Y51957D01*
X441854Y51854D01*
X442205Y51743D01*
X442553Y51623D01*
X442898Y51495D01*
X443240Y51358D01*
X443579Y51213D01*
X443913Y51060D01*
X444244Y50898D01*
X444571Y50729D01*
X444893Y50551D01*
X445212Y50366D01*
X445525Y50173D01*
X445834Y49972D01*
X446137Y49764D01*
X446435Y49548D01*
X446728Y49325D01*
X447016Y49095D01*
X447298Y48858D01*
X447573Y48614D01*
X447843Y48364D01*
X448107Y48107D01*
X448364Y47843D01*
X448614Y47573D01*
X448858Y47298D01*
X449095Y47016D01*
X449325Y46728D01*
X449548Y46435D01*
X449764Y46137D01*
X449972Y45834D01*
X450173Y45525D01*
X450366Y45212D01*
X450551Y44893D01*
X450729Y44571D01*
X450898Y44244D01*
X451060Y43913D01*
X451213Y43579D01*
X451358Y43240D01*
X451495Y42898D01*
X451623Y42553D01*
X451743Y42205D01*
X451854Y41854D01*
X451957Y41501D01*
X452050Y41145D01*
X452136Y40787D01*
X452212Y40426D01*
X452279Y40064D01*
X452338Y39701D01*
X452387Y39336D01*
X452428Y38970D01*
X452459Y38603D01*
X452482Y38236D01*
X452495Y37868D01*
X452500Y37500D01*
X452495Y37132D01*
X452482Y36764D01*
X452459Y36397D01*
X452428Y36030D01*
X452387Y35664D01*
X452338Y35299D01*
X452279Y34936D01*
X452212Y34574D01*
X452136Y34213D01*
X452050Y33855D01*
X451957Y33499D01*
X451854Y33146D01*
X451743Y32795D01*
X451623Y32447D01*
X451495Y32102D01*
X451358Y31760D01*
X451213Y31421D01*
X451060Y31087D01*
X450898Y30756D01*
X450729Y30429D01*
X450551Y30107D01*
X450366Y29788D01*
X450173Y29475D01*
X449972Y29166D01*
X449764Y28863D01*
X449548Y28565D01*
X449325Y28272D01*
X449095Y27984D01*
X448858Y27702D01*
X448614Y27427D01*
X448364Y27157D01*
X448107Y26893D01*
X447843Y26636D01*
X447573Y26386D01*
X447298Y26142D01*
X447016Y25905D01*
X446728Y25675D01*
X446435Y25452D01*
X446137Y25236D01*
X445834Y25028D01*
X445525Y24827D01*
X445212Y24634D01*
X444893Y24449D01*
X444571Y24271D01*
X444244Y24102D01*
X443913Y23940D01*
X443579Y23787D01*
X443240Y23642D01*
X442898Y23505D01*
X442553Y23377D01*
X442205Y23257D01*
X441854Y23146D01*
X441501Y23043D01*
X441145Y22950D01*
X440787Y22864D01*
X440426Y22788D01*
X440064Y22721D01*
X439701Y22662D01*
X439336Y22613D01*
X438970Y22572D01*
X438603Y22541D01*
X438236Y22518D01*
X437868Y22505D01*
X437500Y22500D01*
X437132Y22505D01*
X436764Y22518D01*
X436397Y22541D01*
X436030Y22572D01*
X435664Y22613D01*
X435299Y22662D01*
X434936Y22721D01*
X434574Y22788D01*
X434213Y22864D01*
X433855Y22950D01*
X433499Y23043D01*
X433146Y23146D01*
X432795Y23257D01*
X432447Y23377D01*
X432102Y23505D01*
X431760Y23642D01*
X431421Y23787D01*
X431087Y23940D01*
X430756Y24102D01*
X430429Y24271D01*
X430107Y24449D01*
X429788Y24634D01*
X429475Y24827D01*
X429166Y25028D01*
X428863Y25236D01*
X428565Y25452D01*
X428272Y25675D01*
X427984Y25905D01*
X427702Y26142D01*
X427427Y26386D01*
X427157Y26636D01*
X426893Y26893D01*
X426636Y27157D01*
X426386Y27427D01*
X426142Y27702D01*
X425905Y27984D01*
X425675Y28272D01*
X425452Y28565D01*
X425236Y28863D01*
X425028Y29166D01*
X424827Y29475D01*
X424634Y29788D01*
X424449Y30107D01*
X424271Y30429D01*
X424102Y30756D01*
X423940Y31087D01*
X423787Y31421D01*
X423642Y31760D01*
X423505Y32102D01*
X423377Y32447D01*
X423257Y32795D01*
X423146Y33146D01*
X423043Y33499D01*
X422950Y33855D01*
X422864Y34213D01*
X422788Y34574D01*
X422721Y34936D01*
X422662Y35299D01*
X422613Y35664D01*
X422572Y36030D01*
X422541Y36397D01*
X422518Y36764D01*
X422505Y37132D01*
X422500Y37500D01*
D11*
X-437500Y1289170D02*
X-437500Y1291710D01*
X-437500Y1235830D02*
X-437500Y1233290D01*
D12*
X-466710Y1262500D02*
X-466701Y1263217D01*
X-466675Y1263933D01*
X-466631Y1264649D01*
X-466569Y1265363D01*
X-466490Y1266076D01*
X-466394Y1266786D01*
X-466280Y1267494D01*
X-466149Y1268199D01*
X-466000Y1268900D01*
X-465835Y1269597D01*
X-465652Y1270291D01*
X-465452Y1270979D01*
X-465236Y1271663D01*
X-465003Y1272341D01*
X-464753Y1273013D01*
X-464487Y1273678D01*
X-464204Y1274337D01*
X-463906Y1274989D01*
X-463591Y1275633D01*
X-463261Y1276269D01*
X-462915Y1276898D01*
X-462554Y1277517D01*
X-462178Y1278127D01*
X-461787Y1278728D01*
X-461382Y1279319D01*
X-460962Y1279900D01*
X-460528Y1280471D01*
X-460080Y1281031D01*
X-459618Y1281579D01*
X-459143Y1282116D01*
X-458655Y1282641D01*
X-458155Y1283155D01*
X-457641Y1283655D01*
X-457116Y1284143D01*
X-456579Y1284618D01*
X-456031Y1285080D01*
X-455471Y1285528D01*
X-454900Y1285962D01*
X-454319Y1286382D01*
X-453728Y1286787D01*
X-453127Y1287178D01*
X-452517Y1287554D01*
X-451898Y1287915D01*
X-451269Y1288261D01*
X-450633Y1288591D01*
X-449989Y1288906D01*
X-449337Y1289204D01*
X-448678Y1289487D01*
X-448013Y1289753D01*
X-447341Y1290003D01*
X-446663Y1290236D01*
X-445979Y1290452D01*
X-445291Y1290652D01*
X-444597Y1290835D01*
X-443900Y1291000D01*
X-443199Y1291149D01*
X-442494Y1291280D01*
X-441786Y1291394D01*
X-441076Y1291490D01*
X-440363Y1291569D01*
X-439649Y1291631D01*
X-438933Y1291675D01*
X-438217Y1291701D01*
X-437500Y1291710D01*
X-436783Y1291701D01*
X-436067Y1291675D01*
X-435351Y1291631D01*
X-434637Y1291569D01*
X-433924Y1291490D01*
X-433214Y1291394D01*
X-432506Y1291280D01*
X-431801Y1291149D01*
X-431100Y1291000D01*
X-430403Y1290835D01*
X-429709Y1290652D01*
X-429021Y1290452D01*
X-428337Y1290236D01*
X-427659Y1290003D01*
X-426987Y1289753D01*
X-426322Y1289487D01*
X-425663Y1289204D01*
X-425011Y1288906D01*
X-424367Y1288591D01*
X-423731Y1288261D01*
X-423102Y1287915D01*
X-422483Y1287554D01*
X-421873Y1287178D01*
X-421272Y1286787D01*
X-420681Y1286382D01*
X-420100Y1285962D01*
X-419529Y1285528D01*
X-418969Y1285080D01*
X-418421Y1284618D01*
X-417884Y1284143D01*
X-417359Y1283655D01*
X-416845Y1283155D01*
X-416345Y1282641D01*
X-415857Y1282116D01*
X-415382Y1281579D01*
X-414920Y1281031D01*
X-414472Y1280471D01*
X-414038Y1279900D01*
X-413618Y1279319D01*
X-413213Y1278728D01*
X-412822Y1278127D01*
X-412446Y1277517D01*
X-412085Y1276898D01*
X-411739Y1276269D01*
X-411409Y1275633D01*
X-411094Y1274989D01*
X-410796Y1274337D01*
X-410513Y1273678D01*
X-410247Y1273013D01*
X-409997Y1272341D01*
X-409764Y1271663D01*
X-409548Y1270979D01*
X-409348Y1270291D01*
X-409165Y1269597D01*
X-409000Y1268900D01*
X-408851Y1268199D01*
X-408720Y1267494D01*
X-408606Y1266786D01*
X-408510Y1266076D01*
X-408431Y1265363D01*
X-408369Y1264649D01*
X-408325Y1263933D01*
X-408299Y1263217D01*
X-408290Y1262500D01*
X-408299Y1261783D01*
X-408325Y1261067D01*
X-408369Y1260351D01*
X-408431Y1259637D01*
X-408510Y1258924D01*
X-408606Y1258214D01*
X-408720Y1257506D01*
X-408851Y1256801D01*
X-409000Y1256100D01*
X-409165Y1255403D01*
X-409348Y1254709D01*
X-409548Y1254021D01*
X-409764Y1253337D01*
X-409997Y1252659D01*
X-410247Y1251987D01*
X-410513Y1251322D01*
X-410796Y1250663D01*
X-411094Y1250011D01*
X-411409Y1249367D01*
X-411739Y1248731D01*
X-412085Y1248102D01*
X-412446Y1247483D01*
X-412822Y1246873D01*
X-413213Y1246272D01*
X-413618Y1245681D01*
X-414038Y1245100D01*
X-414472Y1244529D01*
X-414920Y1243969D01*
X-415382Y1243421D01*
X-415857Y1242884D01*
X-416345Y1242359D01*
X-416845Y1241845D01*
X-417359Y1241345D01*
X-417884Y1240857D01*
X-418421Y1240382D01*
X-418969Y1239920D01*
X-419529Y1239472D01*
X-420100Y1239038D01*
X-420681Y1238618D01*
X-421272Y1238213D01*
X-421873Y1237822D01*
X-422483Y1237446D01*
X-423102Y1237085D01*
X-423731Y1236739D01*
X-424367Y1236409D01*
X-425011Y1236094D01*
X-425663Y1235796D01*
X-426322Y1235513D01*
X-426987Y1235247D01*
X-427659Y1234997D01*
X-428337Y1234764D01*
X-429021Y1234548D01*
X-429709Y1234348D01*
X-430403Y1234165D01*
X-431100Y1234000D01*
X-431801Y1233851D01*
X-432506Y1233720D01*
X-433214Y1233606D01*
X-433924Y1233510D01*
X-434637Y1233431D01*
X-435351Y1233369D01*
X-436067Y1233325D01*
X-436783Y1233299D01*
X-437500Y1233290D01*
X-438217Y1233299D01*
X-438933Y1233325D01*
X-439649Y1233369D01*
X-440363Y1233431D01*
X-441076Y1233510D01*
X-441786Y1233606D01*
X-442494Y1233720D01*
X-443199Y1233851D01*
X-443900Y1234000D01*
X-444597Y1234165D01*
X-445291Y1234348D01*
X-445979Y1234548D01*
X-446663Y1234764D01*
X-447341Y1234997D01*
X-448013Y1235247D01*
X-448678Y1235513D01*
X-449337Y1235796D01*
X-449989Y1236094D01*
X-450633Y1236409D01*
X-451269Y1236739D01*
X-451898Y1237085D01*
X-452517Y1237446D01*
X-453127Y1237822D01*
X-453728Y1238213D01*
X-454319Y1238618D01*
X-454900Y1239038D01*
X-455471Y1239472D01*
X-456031Y1239920D01*
X-456579Y1240382D01*
X-457116Y1240857D01*
X-457641Y1241345D01*
X-458155Y1241845D01*
X-458655Y1242359D01*
X-459143Y1242884D01*
X-459618Y1243421D01*
X-460080Y1243969D01*
X-460528Y1244529D01*
X-460962Y1245100D01*
X-461382Y1245681D01*
X-461787Y1246272D01*
X-462178Y1246873D01*
X-462554Y1247483D01*
X-462915Y1248102D01*
X-463261Y1248731D01*
X-463591Y1249367D01*
X-463906Y1250011D01*
X-464204Y1250663D01*
X-464487Y1251322D01*
X-464753Y1251987D01*
X-465003Y1252659D01*
X-465236Y1253337D01*
X-465452Y1254021D01*
X-465652Y1254709D01*
X-465835Y1255403D01*
X-466000Y1256100D01*
X-466149Y1256801D01*
X-466280Y1257506D01*
X-466394Y1258214D01*
X-466490Y1258924D01*
X-466569Y1259637D01*
X-466631Y1260351D01*
X-466675Y1261067D01*
X-466701Y1261783D01*
X-466710Y1262500D01*
D13*
X-452500Y1262500D02*
X-452495Y1262868D01*
X-452482Y1263236D01*
X-452459Y1263603D01*
X-452428Y1263970D01*
X-452387Y1264336D01*
X-452338Y1264701D01*
X-452279Y1265064D01*
X-452212Y1265426D01*
X-452136Y1265787D01*
X-452050Y1266145D01*
X-451957Y1266501D01*
X-451854Y1266854D01*
X-451743Y1267205D01*
X-451623Y1267553D01*
X-451495Y1267898D01*
X-451358Y1268240D01*
X-451213Y1268579D01*
X-451060Y1268913D01*
X-450898Y1269244D01*
X-450729Y1269571D01*
X-450551Y1269893D01*
X-450366Y1270212D01*
X-450173Y1270525D01*
X-449972Y1270834D01*
X-449764Y1271137D01*
X-449548Y1271435D01*
X-449325Y1271728D01*
X-449095Y1272016D01*
X-448858Y1272298D01*
X-448614Y1272573D01*
X-448364Y1272843D01*
X-448107Y1273107D01*
X-447843Y1273364D01*
X-447573Y1273614D01*
X-447298Y1273858D01*
X-447016Y1274095D01*
X-446728Y1274325D01*
X-446435Y1274548D01*
X-446137Y1274764D01*
X-445834Y1274972D01*
X-445525Y1275173D01*
X-445212Y1275366D01*
X-444893Y1275551D01*
X-444571Y1275729D01*
X-444244Y1275898D01*
X-443913Y1276060D01*
X-443579Y1276213D01*
X-443240Y1276358D01*
X-442898Y1276495D01*
X-442553Y1276623D01*
X-442205Y1276743D01*
X-441854Y1276854D01*
X-441501Y1276957D01*
X-441145Y1277050D01*
X-440787Y1277136D01*
X-440426Y1277212D01*
X-440064Y1277279D01*
X-439701Y1277338D01*
X-439336Y1277387D01*
X-438970Y1277428D01*
X-438603Y1277459D01*
X-438236Y1277482D01*
X-437868Y1277495D01*
X-437500Y1277500D01*
X-437132Y1277495D01*
X-436764Y1277482D01*
X-436397Y1277459D01*
X-436030Y1277428D01*
X-435664Y1277387D01*
X-435299Y1277338D01*
X-434936Y1277279D01*
X-434574Y1277212D01*
X-434213Y1277136D01*
X-433855Y1277050D01*
X-433499Y1276957D01*
X-433146Y1276854D01*
X-432795Y1276743D01*
X-432447Y1276623D01*
X-432102Y1276495D01*
X-431760Y1276358D01*
X-431421Y1276213D01*
X-431087Y1276060D01*
X-430756Y1275898D01*
X-430429Y1275729D01*
X-430107Y1275551D01*
X-429788Y1275366D01*
X-429475Y1275173D01*
X-429166Y1274972D01*
X-428863Y1274764D01*
X-428565Y1274548D01*
X-428272Y1274325D01*
X-427984Y1274095D01*
X-427702Y1273858D01*
X-427427Y1273614D01*
X-427157Y1273364D01*
X-426893Y1273107D01*
X-426636Y1272843D01*
X-426386Y1272573D01*
X-426142Y1272298D01*
X-425905Y1272016D01*
X-425675Y1271728D01*
X-425452Y1271435D01*
X-425236Y1271137D01*
X-425028Y1270834D01*
X-424827Y1270525D01*
X-424634Y1270212D01*
X-424449Y1269893D01*
X-424271Y1269571D01*
X-424102Y1269244D01*
X-423940Y1268913D01*
X-423787Y1268579D01*
X-423642Y1268240D01*
X-423505Y1267898D01*
X-423377Y1267553D01*
X-423257Y1267205D01*
X-423146Y1266854D01*
X-423043Y1266501D01*
X-422950Y1266145D01*
X-422864Y1265787D01*
X-422788Y1265426D01*
X-422721Y1265064D01*
X-422662Y1264701D01*
X-422613Y1264336D01*
X-422572Y1263970D01*
X-422541Y1263603D01*
X-422518Y1263236D01*
X-422505Y1262868D01*
X-422500Y1262500D01*
X-422505Y1262132D01*
X-422518Y1261764D01*
X-422541Y1261397D01*
X-422572Y1261030D01*
X-422613Y1260664D01*
X-422662Y1260299D01*
X-422721Y1259936D01*
X-422788Y1259574D01*
X-422864Y1259213D01*
X-422950Y1258855D01*
X-423043Y1258499D01*
X-423146Y1258146D01*
X-423257Y1257795D01*
X-423377Y1257447D01*
X-423505Y1257102D01*
X-423642Y1256760D01*
X-423787Y1256421D01*
X-423940Y1256087D01*
X-424102Y1255756D01*
X-424271Y1255429D01*
X-424449Y1255107D01*
X-424634Y1254788D01*
X-424827Y1254475D01*
X-425028Y1254166D01*
X-425236Y1253863D01*
X-425452Y1253565D01*
X-425675Y1253272D01*
X-425905Y1252984D01*
X-426142Y1252702D01*
X-426386Y1252427D01*
X-426636Y1252157D01*
X-426893Y1251893D01*
X-427157Y1251636D01*
X-427427Y1251386D01*
X-427702Y1251142D01*
X-427984Y1250905D01*
X-428272Y1250675D01*
X-428565Y1250452D01*
X-428863Y1250236D01*
X-429166Y1250028D01*
X-429475Y1249827D01*
X-429788Y1249634D01*
X-430107Y1249449D01*
X-430429Y1249271D01*
X-430756Y1249102D01*
X-431087Y1248940D01*
X-431421Y1248787D01*
X-431760Y1248642D01*
X-432102Y1248505D01*
X-432447Y1248377D01*
X-432795Y1248257D01*
X-433146Y1248146D01*
X-433499Y1248043D01*
X-433855Y1247950D01*
X-434213Y1247864D01*
X-434574Y1247788D01*
X-434936Y1247721D01*
X-435299Y1247662D01*
X-435664Y1247613D01*
X-436030Y1247572D01*
X-436397Y1247541D01*
X-436764Y1247518D01*
X-437132Y1247505D01*
X-437500Y1247500D01*
X-437868Y1247505D01*
X-438236Y1247518D01*
X-438603Y1247541D01*
X-438970Y1247572D01*
X-439336Y1247613D01*
X-439701Y1247662D01*
X-440064Y1247721D01*
X-440426Y1247788D01*
X-440787Y1247864D01*
X-441145Y1247950D01*
X-441501Y1248043D01*
X-441854Y1248146D01*
X-442205Y1248257D01*
X-442553Y1248377D01*
X-442898Y1248505D01*
X-443240Y1248642D01*
X-443579Y1248787D01*
X-443913Y1248940D01*
X-444244Y1249102D01*
X-444571Y1249271D01*
X-444893Y1249449D01*
X-445212Y1249634D01*
X-445525Y1249827D01*
X-445834Y1250028D01*
X-446137Y1250236D01*
X-446435Y1250452D01*
X-446728Y1250675D01*
X-447016Y1250905D01*
X-447298Y1251142D01*
X-447573Y1251386D01*
X-447843Y1251636D01*
X-448107Y1251893D01*
X-448364Y1252157D01*
X-448614Y1252427D01*
X-448858Y1252702D01*
X-449095Y1252984D01*
X-449325Y1253272D01*
X-449548Y1253565D01*
X-449764Y1253863D01*
X-449972Y1254166D01*
X-450173Y1254475D01*
X-450366Y1254788D01*
X-450551Y1255107D01*
X-450729Y1255429D01*
X-450898Y1255756D01*
X-451060Y1256087D01*
X-451213Y1256421D01*
X-451358Y1256760D01*
X-451495Y1257102D01*
X-451623Y1257447D01*
X-451743Y1257795D01*
X-451854Y1258146D01*
X-451957Y1258499D01*
X-452050Y1258855D01*
X-452136Y1259213D01*
X-452212Y1259574D01*
X-452279Y1259936D01*
X-452338Y1260299D01*
X-452387Y1260664D01*
X-452428Y1261030D01*
X-452459Y1261397D01*
X-452482Y1261764D01*
X-452495Y1262132D01*
X-452500Y1262500D01*
D11*
X437500Y1289170D02*
X437500Y1291710D01*
X437500Y1235830D02*
X437500Y1233290D01*
D12*
X408290Y1262500D02*
X408299Y1263217D01*
X408325Y1263933D01*
X408369Y1264649D01*
X408431Y1265363D01*
X408510Y1266076D01*
X408606Y1266786D01*
X408720Y1267494D01*
X408851Y1268199D01*
X409000Y1268900D01*
X409165Y1269597D01*
X409348Y1270291D01*
X409548Y1270979D01*
X409764Y1271663D01*
X409997Y1272341D01*
X410247Y1273013D01*
X410513Y1273678D01*
X410796Y1274337D01*
X411094Y1274989D01*
X411409Y1275633D01*
X411739Y1276269D01*
X412085Y1276898D01*
X412446Y1277517D01*
X412822Y1278127D01*
X413213Y1278728D01*
X413618Y1279319D01*
X414038Y1279900D01*
X414472Y1280471D01*
X414920Y1281031D01*
X415382Y1281579D01*
X415857Y1282116D01*
X416345Y1282641D01*
X416845Y1283155D01*
X417359Y1283655D01*
X417884Y1284143D01*
X418421Y1284618D01*
X418969Y1285080D01*
X419529Y1285528D01*
X420100Y1285962D01*
X420681Y1286382D01*
X421272Y1286787D01*
X421873Y1287178D01*
X422483Y1287554D01*
X423102Y1287915D01*
X423731Y1288261D01*
X424367Y1288591D01*
X425011Y1288906D01*
X425663Y1289204D01*
X426322Y1289487D01*
X426987Y1289753D01*
X427659Y1290003D01*
X428337Y1290236D01*
X429021Y1290452D01*
X429709Y1290652D01*
X430403Y1290835D01*
X431100Y1291000D01*
X431801Y1291149D01*
X432506Y1291280D01*
X433214Y1291394D01*
X433924Y1291490D01*
X434637Y1291569D01*
X435351Y1291631D01*
X436067Y1291675D01*
X436783Y1291701D01*
X437500Y1291710D01*
X438217Y1291701D01*
X438933Y1291675D01*
X439649Y1291631D01*
X440363Y1291569D01*
X441076Y1291490D01*
X441786Y1291394D01*
X442494Y1291280D01*
X443199Y1291149D01*
X443900Y1291000D01*
X444597Y1290835D01*
X445291Y1290652D01*
X445979Y1290452D01*
X446663Y1290236D01*
X447341Y1290003D01*
X448013Y1289753D01*
X448678Y1289487D01*
X449337Y1289204D01*
X449989Y1288906D01*
X450633Y1288591D01*
X451269Y1288261D01*
X451898Y1287915D01*
X452517Y1287554D01*
X453127Y1287178D01*
X453728Y1286787D01*
X454319Y1286382D01*
X454900Y1285962D01*
X455471Y1285528D01*
X456031Y1285080D01*
X456579Y1284618D01*
X457116Y1284143D01*
X457641Y1283655D01*
X458155Y1283155D01*
X458655Y1282641D01*
X459143Y1282116D01*
X459618Y1281579D01*
X460080Y1281031D01*
X460528Y1280471D01*
X460962Y1279900D01*
X461382Y1279319D01*
X461787Y1278728D01*
X462178Y1278127D01*
X462554Y1277517D01*
X462915Y1276898D01*
X463261Y1276269D01*
X463591Y1275633D01*
X463906Y1274989D01*
X464204Y1274337D01*
X464487Y1273678D01*
X464753Y1273013D01*
X465003Y1272341D01*
X465236Y1271663D01*
X465452Y1270979D01*
X465652Y1270291D01*
X465835Y1269597D01*
X466000Y1268900D01*
X466149Y1268199D01*
X466280Y1267494D01*
X466394Y1266786D01*
X466490Y1266076D01*
X466569Y1265363D01*
X466631Y1264649D01*
X466675Y1263933D01*
X466701Y1263217D01*
X466710Y1262500D01*
X466701Y1261783D01*
X466675Y1261067D01*
X466631Y1260351D01*
X466569Y1259637D01*
X466490Y1258924D01*
X466394Y1258214D01*
X466280Y1257506D01*
X466149Y1256801D01*
X466000Y1256100D01*
X465835Y1255403D01*
X465652Y1254709D01*
X465452Y1254021D01*
X465236Y1253337D01*
X465003Y1252659D01*
X464753Y1251987D01*
X464487Y1251322D01*
X464204Y1250663D01*
X463906Y1250011D01*
X463591Y1249367D01*
X463261Y1248731D01*
X462915Y1248102D01*
X462554Y1247483D01*
X462178Y1246873D01*
X461787Y1246272D01*
X461382Y1245681D01*
X460962Y1245100D01*
X460528Y1244529D01*
X460080Y1243969D01*
X459618Y1243421D01*
X459143Y1242884D01*
X458655Y1242359D01*
X458155Y1241845D01*
X457641Y1241345D01*
X457116Y1240857D01*
X456579Y1240382D01*
X456031Y1239920D01*
X455471Y1239472D01*
X454900Y1239038D01*
X454319Y1238618D01*
X453728Y1238213D01*
X453127Y1237822D01*
X452517Y1237446D01*
X451898Y1237085D01*
X451269Y1236739D01*
X450633Y1236409D01*
X449989Y1236094D01*
X449337Y1235796D01*
X448678Y1235513D01*
X448013Y1235247D01*
X447341Y1234997D01*
X446663Y1234764D01*
X445979Y1234548D01*
X445291Y1234348D01*
X444597Y1234165D01*
X443900Y1234000D01*
X443199Y1233851D01*
X442494Y1233720D01*
X441786Y1233606D01*
X441076Y1233510D01*
X440363Y1233431D01*
X439649Y1233369D01*
X438933Y1233325D01*
X438217Y1233299D01*
X437500Y1233290D01*
X436783Y1233299D01*
X436067Y1233325D01*
X435351Y1233369D01*
X434637Y1233431D01*
X433924Y1233510D01*
X433214Y1233606D01*
X432506Y1233720D01*
X431801Y1233851D01*
X431100Y1234000D01*
X430403Y1234165D01*
X429709Y1234348D01*
X429021Y1234548D01*
X428337Y1234764D01*
X427659Y1234997D01*
X426987Y1235247D01*
X426322Y1235513D01*
X425663Y1235796D01*
X425011Y1236094D01*
X424367Y1236409D01*
X423731Y1236739D01*
X423102Y1237085D01*
X422483Y1237446D01*
X421873Y1237822D01*
X421272Y1238213D01*
X420681Y1238618D01*
X420100Y1239038D01*
X419529Y1239472D01*
X418969Y1239920D01*
X418421Y1240382D01*
X417884Y1240857D01*
X417359Y1241345D01*
X416845Y1241845D01*
X416345Y1242359D01*
X415857Y1242884D01*
X415382Y1243421D01*
X414920Y1243969D01*
X414472Y1244529D01*
X414038Y1245100D01*
X413618Y1245681D01*
X413213Y1246272D01*
X412822Y1246873D01*
X412446Y1247483D01*
X412085Y1248102D01*
X411739Y1248731D01*
X411409Y1249367D01*
X411094Y1250011D01*
X410796Y1250663D01*
X410513Y1251322D01*
X410247Y1251987D01*
X409997Y1252659D01*
X409764Y1253337D01*
X409548Y1254021D01*
X409348Y1254709D01*
X409165Y1255403D01*
X409000Y1256100D01*
X408851Y1256801D01*
X408720Y1257506D01*
X408606Y1258214D01*
X408510Y1258924D01*
X408431Y1259637D01*
X408369Y1260351D01*
X408325Y1261067D01*
X408299Y1261783D01*
X408290Y1262500D01*
D13*
X422500Y1262500D02*
X422505Y1262868D01*
X422518Y1263236D01*
X422541Y1263603D01*
X422572Y1263970D01*
X422613Y1264336D01*
X422662Y1264701D01*
X422721Y1265064D01*
X422788Y1265426D01*
X422864Y1265787D01*
X422950Y1266145D01*
X423043Y1266501D01*
X423146Y1266854D01*
X423257Y1267205D01*
X423377Y1267553D01*
X423505Y1267898D01*
X423642Y1268240D01*
X423787Y1268579D01*
X423940Y1268913D01*
X424102Y1269244D01*
X424271Y1269571D01*
X424449Y1269893D01*
X424634Y1270212D01*
X424827Y1270525D01*
X425028Y1270834D01*
X425236Y1271137D01*
X425452Y1271435D01*
X425675Y1271728D01*
X425905Y1272016D01*
X426142Y1272298D01*
X426386Y1272573D01*
X426636Y1272843D01*
X426893Y1273107D01*
X427157Y1273364D01*
X427427Y1273614D01*
X427702Y1273858D01*
X427984Y1274095D01*
X428272Y1274325D01*
X428565Y1274548D01*
X428863Y1274764D01*
X429166Y1274972D01*
X429475Y1275173D01*
X429788Y1275366D01*
X430107Y1275551D01*
X430429Y1275729D01*
X430756Y1275898D01*
X431087Y1276060D01*
X431421Y1276213D01*
X431760Y1276358D01*
X432102Y1276495D01*
X432447Y1276623D01*
X432795Y1276743D01*
X433146Y1276854D01*
X433499Y1276957D01*
X433855Y1277050D01*
X434213Y1277136D01*
X434574Y1277212D01*
X434936Y1277279D01*
X435299Y1277338D01*
X435664Y1277387D01*
X436030Y1277428D01*
X436397Y1277459D01*
X436764Y1277482D01*
X437132Y1277495D01*
X437500Y1277500D01*
X437868Y1277495D01*
X438236Y1277482D01*
X438603Y1277459D01*
X438970Y1277428D01*
X439336Y1277387D01*
X439701Y1277338D01*
X440064Y1277279D01*
X440426Y1277212D01*
X440787Y1277136D01*
X441145Y1277050D01*
X441501Y1276957D01*
X441854Y1276854D01*
X442205Y1276743D01*
X442553Y1276623D01*
X442898Y1276495D01*
X443240Y1276358D01*
X443579Y1276213D01*
X443913Y1276060D01*
X444244Y1275898D01*
X444571Y1275729D01*
X444893Y1275551D01*
X445212Y1275366D01*
X445525Y1275173D01*
X445834Y1274972D01*
X446137Y1274764D01*
X446435Y1274548D01*
X446728Y1274325D01*
X447016Y1274095D01*
X447298Y1273858D01*
X447573Y1273614D01*
X447843Y1273364D01*
X448107Y1273107D01*
X448364Y1272843D01*
X448614Y1272573D01*
X448858Y1272298D01*
X449095Y1272016D01*
X449325Y1271728D01*
X449548Y1271435D01*
X449764Y1271137D01*
X449972Y1270834D01*
X450173Y1270525D01*
X450366Y1270212D01*
X450551Y1269893D01*
X450729Y1269571D01*
X450898Y1269244D01*
X451060Y1268913D01*
X451213Y1268579D01*
X451358Y1268240D01*
X451495Y1267898D01*
X451623Y1267553D01*
X451743Y1267205D01*
X451854Y1266854D01*
X451957Y1266501D01*
X452050Y1266145D01*
X452136Y1265787D01*
X452212Y1265426D01*
X452279Y1265064D01*
X452338Y1264701D01*
X452387Y1264336D01*
X452428Y1263970D01*
X452459Y1263603D01*
X452482Y1263236D01*
X452495Y1262868D01*
X452500Y1262500D01*
X452495Y1262132D01*
X452482Y1261764D01*
X452459Y1261397D01*
X452428Y1261030D01*
X452387Y1260664D01*
X452338Y1260299D01*
X452279Y1259936D01*
X452212Y1259574D01*
X452136Y1259213D01*
X452050Y1258855D01*
X451957Y1258499D01*
X451854Y1258146D01*
X451743Y1257795D01*
X451623Y1257447D01*
X451495Y1257102D01*
X451358Y1256760D01*
X451213Y1256421D01*
X451060Y1256087D01*
X450898Y1255756D01*
X450729Y1255429D01*
X450551Y1255107D01*
X450366Y1254788D01*
X450173Y1254475D01*
X449972Y1254166D01*
X449764Y1253863D01*
X449548Y1253565D01*
X449325Y1253272D01*
X449095Y1252984D01*
X448858Y1252702D01*
X448614Y1252427D01*
X448364Y1252157D01*
X448107Y1251893D01*
X447843Y1251636D01*
X447573Y1251386D01*
X447298Y1251142D01*
X447016Y1250905D01*
X446728Y1250675D01*
X446435Y1250452D01*
X446137Y1250236D01*
X445834Y1250028D01*
X445525Y1249827D01*
X445212Y1249634D01*
X444893Y1249449D01*
X444571Y1249271D01*
X444244Y1249102D01*
X443913Y1248940D01*
X443579Y1248787D01*
X443240Y1248642D01*
X442898Y1248505D01*
X442553Y1248377D01*
X442205Y1248257D01*
X441854Y1248146D01*
X441501Y1248043D01*
X441145Y1247950D01*
X440787Y1247864D01*
X440426Y1247788D01*
X440064Y1247721D01*
X439701Y1247662D01*
X439336Y1247613D01*
X438970Y1247572D01*
X438603Y1247541D01*
X438236Y1247518D01*
X437868Y1247505D01*
X437500Y1247500D01*
X437132Y1247505D01*
X436764Y1247518D01*
X436397Y1247541D01*
X436030Y1247572D01*
X435664Y1247613D01*
X435299Y1247662D01*
X434936Y1247721D01*
X434574Y1247788D01*
X434213Y1247864D01*
X433855Y1247950D01*
X433499Y1248043D01*
X433146Y1248146D01*
X432795Y1248257D01*
X432447Y1248377D01*
X432102Y1248505D01*
X431760Y1248642D01*
X431421Y1248787D01*
X431087Y1248940D01*
X430756Y1249102D01*
X430429Y1249271D01*
X430107Y1249449D01*
X429788Y1249634D01*
X429475Y1249827D01*
X429166Y1250028D01*
X428863Y1250236D01*
X428565Y1250452D01*
X428272Y1250675D01*
X427984Y1250905D01*
X427702Y1251142D01*
X427427Y1251386D01*
X427157Y1251636D01*
X426893Y1251893D01*
X426636Y1252157D01*
X426386Y1252427D01*
X426142Y1252702D01*
X425905Y1252984D01*
X425675Y1253272D01*
X425452Y1253565D01*
X425236Y1253863D01*
X425028Y1254166D01*
X424827Y1254475D01*
X424634Y1254788D01*
X424449Y1255107D01*
X424271Y1255429D01*
X424102Y1255756D01*
X423940Y1256087D01*
X423787Y1256421D01*
X423642Y1256760D01*
X423505Y1257102D01*
X423377Y1257447D01*
X423257Y1257795D01*
X423146Y1258146D01*
X423043Y1258499D01*
X422950Y1258855D01*
X422864Y1259213D01*
X422788Y1259574D01*
X422721Y1259936D01*
X422662Y1260299D01*
X422613Y1260664D01*
X422572Y1261030D01*
X422541Y1261397D01*
X422518Y1261764D01*
X422505Y1262132D01*
X422500Y1262500D01*
M02*
