G04 EAGLE Gerber RS-274X export*
G75*
%MOMM*%
%FSLAX34Y34*%
%LPD*%
%INSoldermask Top*%
%IPPOS*%
%AMOC8*
5,1,8,0,0,1.08239X$1,22.5*%
G01*
%ADD10R,1.500000X1.300000*%
%ADD11R,0.700000X0.600000*%
%ADD12R,0.600000X0.700000*%
%ADD13R,1.300000X1.500000*%
%ADD14R,1.100000X1.000000*%
%ADD15R,1.000000X1.100000*%
%ADD16R,1.100000X1.200000*%
%ADD17R,0.900000X0.950000*%
%ADD18R,0.950000X0.900000*%
%ADD19R,0.300000X1.400000*%
%ADD20R,1.200000X0.600000*%
%ADD21C,2.150000*%
%ADD22C,1.524000*%
%ADD23R,2.150000X6.300000*%
%ADD24R,1.400000X1.000000*%
%ADD25R,1.400000X2.100000*%
%ADD26R,1.500000X1.500000*%
%ADD27P,1.623585X8X292.500000*%
%ADD28C,0.120000*%
%ADD29R,1.660000X1.725000*%
%ADD30R,0.800000X0.900000*%
%ADD31R,0.280000X0.850078*%
%ADD32R,0.280000X0.750000*%
%ADD33R,0.230000X0.180000*%
%ADD34C,0.020800*%
%ADD35R,5.500000X2.000000*%
%ADD36R,1.400000X0.600000*%
%ADD37R,0.700000X0.250000*%
%ADD38R,1.700000X3.300000*%
%ADD39R,0.600000X0.400000*%
%ADD40R,0.600000X0.500000*%
%ADD41R,0.700000X0.300000*%
%ADD42R,0.700000X0.500000*%
%ADD43R,1.100000X0.600000*%
%ADD44R,0.972000X0.802000*%
%ADD45R,0.300000X1.300000*%
%ADD46R,1.800000X2.200000*%
%ADD47C,1.270000*%
%ADD48R,0.300000X0.800000*%
%ADD49R,0.400000X0.800000*%
%ADD50C,5.334000*%

G36*
X465003Y672753D02*
X465003Y672753D01*
X465005Y672751D01*
X466357Y672893D01*
X466362Y672898D01*
X466367Y672895D01*
X467659Y673315D01*
X467663Y673321D01*
X467668Y673319D01*
X468845Y673999D01*
X468848Y674006D01*
X468854Y674005D01*
X469863Y674914D01*
X469865Y674922D01*
X469870Y674922D01*
X470669Y676021D01*
X470669Y676029D01*
X470674Y676030D01*
X471227Y677271D01*
X471225Y677279D01*
X471230Y677281D01*
X471513Y678610D01*
X471509Y678617D01*
X471514Y678621D01*
X471514Y679979D01*
X471509Y679986D01*
X471513Y679990D01*
X471230Y681319D01*
X471224Y681324D01*
X471227Y681329D01*
X470674Y682570D01*
X470667Y682574D01*
X470669Y682579D01*
X469870Y683678D01*
X469863Y683681D01*
X469863Y683686D01*
X468854Y684595D01*
X468846Y684596D01*
X468845Y684601D01*
X467668Y685281D01*
X467661Y685280D01*
X467659Y685285D01*
X466367Y685705D01*
X466363Y685704D01*
X466359Y685704D01*
X466357Y685707D01*
X465005Y685849D01*
X465002Y685847D01*
X465000Y685849D01*
X455000Y685849D01*
X454997Y685847D01*
X454995Y685849D01*
X453643Y685707D01*
X453640Y685704D01*
X453637Y685704D01*
X453636Y685703D01*
X453633Y685705D01*
X452341Y685285D01*
X452337Y685279D01*
X452332Y685281D01*
X451155Y684601D01*
X451152Y684594D01*
X451146Y684595D01*
X450137Y683686D01*
X450135Y683678D01*
X450130Y683678D01*
X449331Y682579D01*
X449331Y682571D01*
X449326Y682570D01*
X448773Y681329D01*
X448775Y681321D01*
X448770Y681319D01*
X448487Y679990D01*
X448491Y679983D01*
X448486Y679979D01*
X448486Y678621D01*
X448491Y678614D01*
X448487Y678610D01*
X448770Y677281D01*
X448776Y677276D01*
X448773Y677271D01*
X449326Y676030D01*
X449333Y676026D01*
X449331Y676021D01*
X450130Y674922D01*
X450137Y674920D01*
X450137Y674914D01*
X451146Y674005D01*
X451154Y674004D01*
X451155Y673999D01*
X452332Y673319D01*
X452339Y673320D01*
X452341Y673315D01*
X453633Y672895D01*
X453641Y672898D01*
X453643Y672893D01*
X454995Y672751D01*
X454998Y672753D01*
X455000Y672751D01*
X465000Y672751D01*
X465003Y672753D01*
G37*
G36*
X425003Y672753D02*
X425003Y672753D01*
X425005Y672751D01*
X426357Y672893D01*
X426362Y672898D01*
X426367Y672895D01*
X427659Y673315D01*
X427663Y673321D01*
X427668Y673319D01*
X428845Y673999D01*
X428848Y674006D01*
X428854Y674005D01*
X429863Y674914D01*
X429865Y674922D01*
X429870Y674922D01*
X430669Y676021D01*
X430669Y676029D01*
X430674Y676030D01*
X431227Y677271D01*
X431225Y677279D01*
X431230Y677281D01*
X431513Y678610D01*
X431509Y678617D01*
X431514Y678621D01*
X431514Y679979D01*
X431509Y679986D01*
X431513Y679990D01*
X431230Y681319D01*
X431224Y681324D01*
X431227Y681329D01*
X430674Y682570D01*
X430667Y682574D01*
X430669Y682579D01*
X429870Y683678D01*
X429863Y683681D01*
X429863Y683686D01*
X428854Y684595D01*
X428846Y684596D01*
X428845Y684601D01*
X427668Y685281D01*
X427661Y685280D01*
X427659Y685285D01*
X426367Y685705D01*
X426363Y685704D01*
X426359Y685704D01*
X426357Y685707D01*
X425005Y685849D01*
X425002Y685847D01*
X425000Y685849D01*
X415000Y685849D01*
X414997Y685847D01*
X414995Y685849D01*
X413643Y685707D01*
X413640Y685704D01*
X413637Y685704D01*
X413636Y685703D01*
X413633Y685705D01*
X412341Y685285D01*
X412337Y685279D01*
X412332Y685281D01*
X411155Y684601D01*
X411152Y684594D01*
X411146Y684595D01*
X410137Y683686D01*
X410135Y683678D01*
X410130Y683678D01*
X409331Y682579D01*
X409331Y682571D01*
X409326Y682570D01*
X408773Y681329D01*
X408775Y681321D01*
X408770Y681319D01*
X408487Y679990D01*
X408491Y679983D01*
X408486Y679979D01*
X408486Y678621D01*
X408491Y678614D01*
X408487Y678610D01*
X408770Y677281D01*
X408776Y677276D01*
X408773Y677271D01*
X409326Y676030D01*
X409333Y676026D01*
X409331Y676021D01*
X410130Y674922D01*
X410137Y674920D01*
X410137Y674914D01*
X411146Y674005D01*
X411154Y674004D01*
X411155Y673999D01*
X412332Y673319D01*
X412339Y673320D01*
X412341Y673315D01*
X413633Y672895D01*
X413641Y672898D01*
X413643Y672893D01*
X414995Y672751D01*
X414998Y672753D01*
X415000Y672751D01*
X425000Y672751D01*
X425003Y672753D01*
G37*
G36*
X425003Y759153D02*
X425003Y759153D01*
X425005Y759151D01*
X426357Y759293D01*
X426362Y759298D01*
X426367Y759295D01*
X427659Y759715D01*
X427663Y759721D01*
X427668Y759719D01*
X428845Y760399D01*
X428848Y760406D01*
X428854Y760405D01*
X429863Y761314D01*
X429865Y761322D01*
X429870Y761322D01*
X430669Y762421D01*
X430669Y762429D01*
X430674Y762430D01*
X431227Y763671D01*
X431225Y763679D01*
X431230Y763681D01*
X431513Y765010D01*
X431509Y765017D01*
X431514Y765021D01*
X431514Y766379D01*
X431509Y766386D01*
X431513Y766390D01*
X431230Y767719D01*
X431224Y767724D01*
X431227Y767729D01*
X430674Y768970D01*
X430667Y768974D01*
X430669Y768979D01*
X429870Y770078D01*
X429863Y770081D01*
X429863Y770086D01*
X428854Y770995D01*
X428846Y770996D01*
X428845Y771001D01*
X427668Y771681D01*
X427661Y771680D01*
X427659Y771685D01*
X426367Y772105D01*
X426363Y772104D01*
X426359Y772104D01*
X426357Y772107D01*
X425005Y772249D01*
X425002Y772247D01*
X425000Y772249D01*
X415000Y772249D01*
X414997Y772247D01*
X414995Y772249D01*
X413643Y772107D01*
X413640Y772104D01*
X413637Y772104D01*
X413636Y772103D01*
X413633Y772105D01*
X412341Y771685D01*
X412337Y771679D01*
X412332Y771681D01*
X411155Y771001D01*
X411152Y770994D01*
X411146Y770995D01*
X410137Y770086D01*
X410135Y770078D01*
X410130Y770078D01*
X409331Y768979D01*
X409331Y768971D01*
X409326Y768970D01*
X408773Y767729D01*
X408775Y767721D01*
X408770Y767719D01*
X408487Y766390D01*
X408491Y766383D01*
X408486Y766379D01*
X408486Y765021D01*
X408491Y765014D01*
X408487Y765010D01*
X408770Y763681D01*
X408776Y763676D01*
X408773Y763671D01*
X409326Y762430D01*
X409333Y762426D01*
X409331Y762421D01*
X410130Y761322D01*
X410137Y761320D01*
X410137Y761314D01*
X411146Y760405D01*
X411154Y760404D01*
X411155Y760399D01*
X412332Y759719D01*
X412339Y759720D01*
X412341Y759715D01*
X413633Y759295D01*
X413641Y759298D01*
X413643Y759293D01*
X414995Y759151D01*
X414998Y759153D01*
X415000Y759151D01*
X425000Y759151D01*
X425003Y759153D01*
G37*
G36*
X465003Y759153D02*
X465003Y759153D01*
X465005Y759151D01*
X466357Y759293D01*
X466362Y759298D01*
X466367Y759295D01*
X467659Y759715D01*
X467663Y759721D01*
X467668Y759719D01*
X468845Y760399D01*
X468848Y760406D01*
X468854Y760405D01*
X469863Y761314D01*
X469865Y761322D01*
X469870Y761322D01*
X470669Y762421D01*
X470669Y762429D01*
X470674Y762430D01*
X471227Y763671D01*
X471225Y763679D01*
X471230Y763681D01*
X471513Y765010D01*
X471509Y765017D01*
X471514Y765021D01*
X471514Y766379D01*
X471509Y766386D01*
X471513Y766390D01*
X471230Y767719D01*
X471224Y767724D01*
X471227Y767729D01*
X470674Y768970D01*
X470667Y768974D01*
X470669Y768979D01*
X469870Y770078D01*
X469863Y770081D01*
X469863Y770086D01*
X468854Y770995D01*
X468846Y770996D01*
X468845Y771001D01*
X467668Y771681D01*
X467661Y771680D01*
X467659Y771685D01*
X466367Y772105D01*
X466363Y772104D01*
X466359Y772104D01*
X466357Y772107D01*
X465005Y772249D01*
X465002Y772247D01*
X465000Y772249D01*
X455000Y772249D01*
X454997Y772247D01*
X454995Y772249D01*
X453643Y772107D01*
X453640Y772104D01*
X453637Y772104D01*
X453636Y772103D01*
X453633Y772105D01*
X452341Y771685D01*
X452337Y771679D01*
X452332Y771681D01*
X451155Y771001D01*
X451152Y770994D01*
X451146Y770995D01*
X450137Y770086D01*
X450135Y770078D01*
X450130Y770078D01*
X449331Y768979D01*
X449331Y768971D01*
X449326Y768970D01*
X448773Y767729D01*
X448775Y767721D01*
X448770Y767719D01*
X448487Y766390D01*
X448491Y766383D01*
X448486Y766379D01*
X448486Y765021D01*
X448491Y765014D01*
X448487Y765010D01*
X448770Y763681D01*
X448776Y763676D01*
X448773Y763671D01*
X449326Y762430D01*
X449333Y762426D01*
X449331Y762421D01*
X450130Y761322D01*
X450137Y761320D01*
X450137Y761314D01*
X451146Y760405D01*
X451154Y760404D01*
X451155Y760399D01*
X452332Y759719D01*
X452339Y759720D01*
X452341Y759715D01*
X453633Y759295D01*
X453641Y759298D01*
X453643Y759293D01*
X454995Y759151D01*
X454998Y759153D01*
X455000Y759151D01*
X465000Y759151D01*
X465003Y759153D01*
G37*
G36*
X23508Y800502D02*
X23508Y800502D01*
X23517Y800501D01*
X23605Y800522D01*
X23695Y800540D01*
X23702Y800545D01*
X23710Y800547D01*
X23783Y800601D01*
X23859Y800653D01*
X23863Y800660D01*
X23870Y800665D01*
X23917Y800743D01*
X23966Y800820D01*
X23967Y800829D01*
X23972Y800836D01*
X23999Y801000D01*
X23999Y804000D01*
X23998Y804006D01*
X23999Y804012D01*
X23999Y804014D01*
X23999Y804017D01*
X23978Y804105D01*
X23960Y804195D01*
X23955Y804202D01*
X23953Y804210D01*
X23899Y804283D01*
X23847Y804359D01*
X23840Y804363D01*
X23835Y804370D01*
X23757Y804417D01*
X23680Y804466D01*
X23671Y804467D01*
X23664Y804472D01*
X23500Y804499D01*
X11500Y804499D01*
X11492Y804498D01*
X11483Y804499D01*
X11395Y804478D01*
X11305Y804460D01*
X11298Y804455D01*
X11290Y804453D01*
X11217Y804399D01*
X11141Y804347D01*
X11137Y804340D01*
X11130Y804335D01*
X11083Y804257D01*
X11034Y804180D01*
X11033Y804171D01*
X11028Y804164D01*
X11001Y804000D01*
X11001Y801000D01*
X11002Y800992D01*
X11001Y800983D01*
X11022Y800895D01*
X11040Y800805D01*
X11045Y800798D01*
X11047Y800790D01*
X11101Y800717D01*
X11153Y800641D01*
X11160Y800637D01*
X11165Y800630D01*
X11243Y800583D01*
X11320Y800534D01*
X11329Y800533D01*
X11336Y800528D01*
X11500Y800501D01*
X23500Y800501D01*
X23508Y800502D01*
G37*
G36*
X138508Y795502D02*
X138508Y795502D01*
X138517Y795501D01*
X138605Y795522D01*
X138695Y795540D01*
X138702Y795545D01*
X138710Y795547D01*
X138783Y795601D01*
X138859Y795653D01*
X138863Y795660D01*
X138870Y795665D01*
X138917Y795743D01*
X138966Y795820D01*
X138967Y795829D01*
X138972Y795836D01*
X138999Y796000D01*
X138999Y799000D01*
X138998Y799006D01*
X138999Y799012D01*
X138999Y799014D01*
X138999Y799017D01*
X138978Y799105D01*
X138960Y799195D01*
X138955Y799202D01*
X138953Y799210D01*
X138899Y799283D01*
X138847Y799359D01*
X138840Y799363D01*
X138835Y799370D01*
X138757Y799417D01*
X138680Y799466D01*
X138671Y799467D01*
X138664Y799472D01*
X138500Y799499D01*
X126500Y799499D01*
X126492Y799498D01*
X126483Y799499D01*
X126395Y799478D01*
X126305Y799460D01*
X126298Y799455D01*
X126290Y799453D01*
X126217Y799399D01*
X126141Y799347D01*
X126137Y799340D01*
X126130Y799335D01*
X126083Y799257D01*
X126034Y799180D01*
X126033Y799171D01*
X126028Y799164D01*
X126001Y799000D01*
X126001Y796000D01*
X126002Y795992D01*
X126001Y795983D01*
X126022Y795895D01*
X126040Y795805D01*
X126045Y795798D01*
X126047Y795790D01*
X126101Y795717D01*
X126153Y795641D01*
X126160Y795637D01*
X126165Y795630D01*
X126243Y795583D01*
X126320Y795534D01*
X126329Y795533D01*
X126336Y795528D01*
X126500Y795501D01*
X138500Y795501D01*
X138508Y795502D01*
G37*
G36*
X23508Y795502D02*
X23508Y795502D01*
X23517Y795501D01*
X23605Y795522D01*
X23695Y795540D01*
X23702Y795545D01*
X23710Y795547D01*
X23783Y795601D01*
X23859Y795653D01*
X23863Y795660D01*
X23870Y795665D01*
X23917Y795743D01*
X23966Y795820D01*
X23967Y795829D01*
X23972Y795836D01*
X23999Y796000D01*
X23999Y799000D01*
X23998Y799006D01*
X23999Y799012D01*
X23999Y799014D01*
X23999Y799017D01*
X23978Y799105D01*
X23960Y799195D01*
X23955Y799202D01*
X23953Y799210D01*
X23899Y799283D01*
X23847Y799359D01*
X23840Y799363D01*
X23835Y799370D01*
X23757Y799417D01*
X23680Y799466D01*
X23671Y799467D01*
X23664Y799472D01*
X23500Y799499D01*
X11500Y799499D01*
X11492Y799498D01*
X11483Y799499D01*
X11395Y799478D01*
X11305Y799460D01*
X11298Y799455D01*
X11290Y799453D01*
X11217Y799399D01*
X11141Y799347D01*
X11137Y799340D01*
X11130Y799335D01*
X11083Y799257D01*
X11034Y799180D01*
X11033Y799171D01*
X11028Y799164D01*
X11001Y799000D01*
X11001Y796000D01*
X11002Y795992D01*
X11001Y795983D01*
X11022Y795895D01*
X11040Y795805D01*
X11045Y795798D01*
X11047Y795790D01*
X11101Y795717D01*
X11153Y795641D01*
X11160Y795637D01*
X11165Y795630D01*
X11243Y795583D01*
X11320Y795534D01*
X11329Y795533D01*
X11336Y795528D01*
X11500Y795501D01*
X23500Y795501D01*
X23508Y795502D01*
G37*
G36*
X23508Y790502D02*
X23508Y790502D01*
X23517Y790501D01*
X23605Y790522D01*
X23695Y790540D01*
X23702Y790545D01*
X23710Y790547D01*
X23783Y790601D01*
X23859Y790653D01*
X23863Y790660D01*
X23870Y790665D01*
X23917Y790743D01*
X23966Y790820D01*
X23967Y790829D01*
X23972Y790836D01*
X23999Y791000D01*
X23999Y794000D01*
X23998Y794006D01*
X23999Y794012D01*
X23999Y794014D01*
X23999Y794017D01*
X23978Y794105D01*
X23960Y794195D01*
X23955Y794202D01*
X23953Y794210D01*
X23899Y794283D01*
X23847Y794359D01*
X23840Y794363D01*
X23835Y794370D01*
X23757Y794417D01*
X23680Y794466D01*
X23671Y794467D01*
X23664Y794472D01*
X23500Y794499D01*
X11500Y794499D01*
X11492Y794498D01*
X11483Y794499D01*
X11395Y794478D01*
X11305Y794460D01*
X11298Y794455D01*
X11290Y794453D01*
X11217Y794399D01*
X11141Y794347D01*
X11137Y794340D01*
X11130Y794335D01*
X11083Y794257D01*
X11034Y794180D01*
X11033Y794171D01*
X11028Y794164D01*
X11001Y794000D01*
X11001Y791000D01*
X11002Y790992D01*
X11001Y790983D01*
X11022Y790895D01*
X11040Y790805D01*
X11045Y790798D01*
X11047Y790790D01*
X11101Y790717D01*
X11153Y790641D01*
X11160Y790637D01*
X11165Y790630D01*
X11243Y790583D01*
X11320Y790534D01*
X11329Y790533D01*
X11336Y790528D01*
X11500Y790501D01*
X23500Y790501D01*
X23508Y790502D01*
G37*
G36*
X138508Y790502D02*
X138508Y790502D01*
X138517Y790501D01*
X138605Y790522D01*
X138695Y790540D01*
X138702Y790545D01*
X138710Y790547D01*
X138783Y790601D01*
X138859Y790653D01*
X138863Y790660D01*
X138870Y790665D01*
X138917Y790743D01*
X138966Y790820D01*
X138967Y790829D01*
X138972Y790836D01*
X138999Y791000D01*
X138999Y794000D01*
X138998Y794006D01*
X138999Y794012D01*
X138999Y794014D01*
X138999Y794017D01*
X138978Y794105D01*
X138960Y794195D01*
X138955Y794202D01*
X138953Y794210D01*
X138899Y794283D01*
X138847Y794359D01*
X138840Y794363D01*
X138835Y794370D01*
X138757Y794417D01*
X138680Y794466D01*
X138671Y794467D01*
X138664Y794472D01*
X138500Y794499D01*
X126500Y794499D01*
X126492Y794498D01*
X126483Y794499D01*
X126395Y794478D01*
X126305Y794460D01*
X126298Y794455D01*
X126290Y794453D01*
X126217Y794399D01*
X126141Y794347D01*
X126137Y794340D01*
X126130Y794335D01*
X126083Y794257D01*
X126034Y794180D01*
X126033Y794171D01*
X126028Y794164D01*
X126001Y794000D01*
X126001Y791000D01*
X126002Y790992D01*
X126001Y790983D01*
X126022Y790895D01*
X126040Y790805D01*
X126045Y790798D01*
X126047Y790790D01*
X126101Y790717D01*
X126153Y790641D01*
X126160Y790637D01*
X126165Y790630D01*
X126243Y790583D01*
X126320Y790534D01*
X126329Y790533D01*
X126336Y790528D01*
X126500Y790501D01*
X138500Y790501D01*
X138508Y790502D01*
G37*
G36*
X138508Y785502D02*
X138508Y785502D01*
X138517Y785501D01*
X138605Y785522D01*
X138695Y785540D01*
X138702Y785545D01*
X138710Y785547D01*
X138783Y785601D01*
X138859Y785653D01*
X138863Y785660D01*
X138870Y785665D01*
X138917Y785743D01*
X138966Y785820D01*
X138967Y785829D01*
X138972Y785836D01*
X138999Y786000D01*
X138999Y789000D01*
X138998Y789006D01*
X138999Y789012D01*
X138999Y789014D01*
X138999Y789017D01*
X138978Y789105D01*
X138960Y789195D01*
X138955Y789202D01*
X138953Y789210D01*
X138899Y789283D01*
X138847Y789359D01*
X138840Y789363D01*
X138835Y789370D01*
X138757Y789417D01*
X138680Y789466D01*
X138671Y789467D01*
X138664Y789472D01*
X138500Y789499D01*
X126500Y789499D01*
X126492Y789498D01*
X126483Y789499D01*
X126395Y789478D01*
X126305Y789460D01*
X126298Y789455D01*
X126290Y789453D01*
X126217Y789399D01*
X126141Y789347D01*
X126137Y789340D01*
X126130Y789335D01*
X126083Y789257D01*
X126034Y789180D01*
X126033Y789171D01*
X126028Y789164D01*
X126001Y789000D01*
X126001Y786000D01*
X126002Y785992D01*
X126001Y785983D01*
X126022Y785895D01*
X126040Y785805D01*
X126045Y785798D01*
X126047Y785790D01*
X126101Y785717D01*
X126153Y785641D01*
X126160Y785637D01*
X126165Y785630D01*
X126243Y785583D01*
X126320Y785534D01*
X126329Y785533D01*
X126336Y785528D01*
X126500Y785501D01*
X138500Y785501D01*
X138508Y785502D01*
G37*
G36*
X23508Y785502D02*
X23508Y785502D01*
X23517Y785501D01*
X23605Y785522D01*
X23695Y785540D01*
X23702Y785545D01*
X23710Y785547D01*
X23783Y785601D01*
X23859Y785653D01*
X23863Y785660D01*
X23870Y785665D01*
X23917Y785743D01*
X23966Y785820D01*
X23967Y785829D01*
X23972Y785836D01*
X23999Y786000D01*
X23999Y789000D01*
X23998Y789006D01*
X23999Y789012D01*
X23999Y789014D01*
X23999Y789017D01*
X23978Y789105D01*
X23960Y789195D01*
X23955Y789202D01*
X23953Y789210D01*
X23899Y789283D01*
X23847Y789359D01*
X23840Y789363D01*
X23835Y789370D01*
X23757Y789417D01*
X23680Y789466D01*
X23671Y789467D01*
X23664Y789472D01*
X23500Y789499D01*
X11500Y789499D01*
X11492Y789498D01*
X11483Y789499D01*
X11395Y789478D01*
X11305Y789460D01*
X11298Y789455D01*
X11290Y789453D01*
X11217Y789399D01*
X11141Y789347D01*
X11137Y789340D01*
X11130Y789335D01*
X11083Y789257D01*
X11034Y789180D01*
X11033Y789171D01*
X11028Y789164D01*
X11001Y789000D01*
X11001Y786000D01*
X11002Y785992D01*
X11001Y785983D01*
X11022Y785895D01*
X11040Y785805D01*
X11045Y785798D01*
X11047Y785790D01*
X11101Y785717D01*
X11153Y785641D01*
X11160Y785637D01*
X11165Y785630D01*
X11243Y785583D01*
X11320Y785534D01*
X11329Y785533D01*
X11336Y785528D01*
X11500Y785501D01*
X23500Y785501D01*
X23508Y785502D01*
G37*
G36*
X138508Y780502D02*
X138508Y780502D01*
X138517Y780501D01*
X138605Y780522D01*
X138695Y780540D01*
X138702Y780545D01*
X138710Y780547D01*
X138783Y780601D01*
X138859Y780653D01*
X138863Y780660D01*
X138870Y780665D01*
X138917Y780743D01*
X138966Y780820D01*
X138967Y780829D01*
X138972Y780836D01*
X138999Y781000D01*
X138999Y784000D01*
X138998Y784006D01*
X138999Y784012D01*
X138999Y784014D01*
X138999Y784017D01*
X138978Y784105D01*
X138960Y784195D01*
X138955Y784202D01*
X138953Y784210D01*
X138899Y784283D01*
X138847Y784359D01*
X138840Y784363D01*
X138835Y784370D01*
X138757Y784417D01*
X138680Y784466D01*
X138671Y784467D01*
X138664Y784472D01*
X138500Y784499D01*
X126500Y784499D01*
X126492Y784498D01*
X126483Y784499D01*
X126395Y784478D01*
X126305Y784460D01*
X126298Y784455D01*
X126290Y784453D01*
X126217Y784399D01*
X126141Y784347D01*
X126137Y784340D01*
X126130Y784335D01*
X126083Y784257D01*
X126034Y784180D01*
X126033Y784171D01*
X126028Y784164D01*
X126001Y784000D01*
X126001Y781000D01*
X126002Y780992D01*
X126001Y780983D01*
X126022Y780895D01*
X126040Y780805D01*
X126045Y780798D01*
X126047Y780790D01*
X126101Y780717D01*
X126153Y780641D01*
X126160Y780637D01*
X126165Y780630D01*
X126243Y780583D01*
X126320Y780534D01*
X126329Y780533D01*
X126336Y780528D01*
X126500Y780501D01*
X138500Y780501D01*
X138508Y780502D01*
G37*
G36*
X23508Y780502D02*
X23508Y780502D01*
X23517Y780501D01*
X23605Y780522D01*
X23695Y780540D01*
X23702Y780545D01*
X23710Y780547D01*
X23783Y780601D01*
X23859Y780653D01*
X23863Y780660D01*
X23870Y780665D01*
X23917Y780743D01*
X23966Y780820D01*
X23967Y780829D01*
X23972Y780836D01*
X23999Y781000D01*
X23999Y784000D01*
X23998Y784006D01*
X23999Y784012D01*
X23999Y784014D01*
X23999Y784017D01*
X23978Y784105D01*
X23960Y784195D01*
X23955Y784202D01*
X23953Y784210D01*
X23899Y784283D01*
X23847Y784359D01*
X23840Y784363D01*
X23835Y784370D01*
X23757Y784417D01*
X23680Y784466D01*
X23671Y784467D01*
X23664Y784472D01*
X23500Y784499D01*
X11500Y784499D01*
X11492Y784498D01*
X11483Y784499D01*
X11395Y784478D01*
X11305Y784460D01*
X11298Y784455D01*
X11290Y784453D01*
X11217Y784399D01*
X11141Y784347D01*
X11137Y784340D01*
X11130Y784335D01*
X11083Y784257D01*
X11034Y784180D01*
X11033Y784171D01*
X11028Y784164D01*
X11001Y784000D01*
X11001Y781000D01*
X11002Y780992D01*
X11001Y780983D01*
X11022Y780895D01*
X11040Y780805D01*
X11045Y780798D01*
X11047Y780790D01*
X11101Y780717D01*
X11153Y780641D01*
X11160Y780637D01*
X11165Y780630D01*
X11243Y780583D01*
X11320Y780534D01*
X11329Y780533D01*
X11336Y780528D01*
X11500Y780501D01*
X23500Y780501D01*
X23508Y780502D01*
G37*
G36*
X23508Y775502D02*
X23508Y775502D01*
X23517Y775501D01*
X23605Y775522D01*
X23695Y775540D01*
X23702Y775545D01*
X23710Y775547D01*
X23783Y775601D01*
X23859Y775653D01*
X23863Y775660D01*
X23870Y775665D01*
X23917Y775743D01*
X23966Y775820D01*
X23967Y775829D01*
X23972Y775836D01*
X23999Y776000D01*
X23999Y779000D01*
X23998Y779006D01*
X23999Y779012D01*
X23999Y779014D01*
X23999Y779017D01*
X23978Y779105D01*
X23960Y779195D01*
X23955Y779202D01*
X23953Y779210D01*
X23899Y779283D01*
X23847Y779359D01*
X23840Y779363D01*
X23835Y779370D01*
X23757Y779417D01*
X23680Y779466D01*
X23671Y779467D01*
X23664Y779472D01*
X23500Y779499D01*
X11500Y779499D01*
X11492Y779498D01*
X11483Y779499D01*
X11395Y779478D01*
X11305Y779460D01*
X11298Y779455D01*
X11290Y779453D01*
X11217Y779399D01*
X11141Y779347D01*
X11137Y779340D01*
X11130Y779335D01*
X11083Y779257D01*
X11034Y779180D01*
X11033Y779171D01*
X11028Y779164D01*
X11001Y779000D01*
X11001Y776000D01*
X11002Y775992D01*
X11001Y775983D01*
X11022Y775895D01*
X11040Y775805D01*
X11045Y775798D01*
X11047Y775790D01*
X11101Y775717D01*
X11153Y775641D01*
X11160Y775637D01*
X11165Y775630D01*
X11243Y775583D01*
X11320Y775534D01*
X11329Y775533D01*
X11336Y775528D01*
X11500Y775501D01*
X23500Y775501D01*
X23508Y775502D01*
G37*
G36*
X138508Y775502D02*
X138508Y775502D01*
X138517Y775501D01*
X138605Y775522D01*
X138695Y775540D01*
X138702Y775545D01*
X138710Y775547D01*
X138783Y775601D01*
X138859Y775653D01*
X138863Y775660D01*
X138870Y775665D01*
X138917Y775743D01*
X138966Y775820D01*
X138967Y775829D01*
X138972Y775836D01*
X138999Y776000D01*
X138999Y779000D01*
X138998Y779006D01*
X138999Y779012D01*
X138999Y779014D01*
X138999Y779017D01*
X138978Y779105D01*
X138960Y779195D01*
X138955Y779202D01*
X138953Y779210D01*
X138899Y779283D01*
X138847Y779359D01*
X138840Y779363D01*
X138835Y779370D01*
X138757Y779417D01*
X138680Y779466D01*
X138671Y779467D01*
X138664Y779472D01*
X138500Y779499D01*
X126500Y779499D01*
X126492Y779498D01*
X126483Y779499D01*
X126395Y779478D01*
X126305Y779460D01*
X126298Y779455D01*
X126290Y779453D01*
X126217Y779399D01*
X126141Y779347D01*
X126137Y779340D01*
X126130Y779335D01*
X126083Y779257D01*
X126034Y779180D01*
X126033Y779171D01*
X126028Y779164D01*
X126001Y779000D01*
X126001Y776000D01*
X126002Y775992D01*
X126001Y775983D01*
X126022Y775895D01*
X126040Y775805D01*
X126045Y775798D01*
X126047Y775790D01*
X126101Y775717D01*
X126153Y775641D01*
X126160Y775637D01*
X126165Y775630D01*
X126243Y775583D01*
X126320Y775534D01*
X126329Y775533D01*
X126336Y775528D01*
X126500Y775501D01*
X138500Y775501D01*
X138508Y775502D01*
G37*
G36*
X23508Y770502D02*
X23508Y770502D01*
X23517Y770501D01*
X23605Y770522D01*
X23695Y770540D01*
X23702Y770545D01*
X23710Y770547D01*
X23783Y770601D01*
X23859Y770653D01*
X23863Y770660D01*
X23870Y770665D01*
X23917Y770743D01*
X23966Y770820D01*
X23967Y770829D01*
X23972Y770836D01*
X23999Y771000D01*
X23999Y774000D01*
X23998Y774006D01*
X23999Y774012D01*
X23999Y774014D01*
X23999Y774017D01*
X23978Y774105D01*
X23960Y774195D01*
X23955Y774202D01*
X23953Y774210D01*
X23899Y774283D01*
X23847Y774359D01*
X23840Y774363D01*
X23835Y774370D01*
X23757Y774417D01*
X23680Y774466D01*
X23671Y774467D01*
X23664Y774472D01*
X23500Y774499D01*
X11500Y774499D01*
X11492Y774498D01*
X11483Y774499D01*
X11395Y774478D01*
X11305Y774460D01*
X11298Y774455D01*
X11290Y774453D01*
X11217Y774399D01*
X11141Y774347D01*
X11137Y774340D01*
X11130Y774335D01*
X11083Y774257D01*
X11034Y774180D01*
X11033Y774171D01*
X11028Y774164D01*
X11001Y774000D01*
X11001Y771000D01*
X11002Y770992D01*
X11001Y770983D01*
X11022Y770895D01*
X11040Y770805D01*
X11045Y770798D01*
X11047Y770790D01*
X11101Y770717D01*
X11153Y770641D01*
X11160Y770637D01*
X11165Y770630D01*
X11243Y770583D01*
X11320Y770534D01*
X11329Y770533D01*
X11336Y770528D01*
X11500Y770501D01*
X23500Y770501D01*
X23508Y770502D01*
G37*
G36*
X138508Y770502D02*
X138508Y770502D01*
X138517Y770501D01*
X138605Y770522D01*
X138695Y770540D01*
X138702Y770545D01*
X138710Y770547D01*
X138783Y770601D01*
X138859Y770653D01*
X138863Y770660D01*
X138870Y770665D01*
X138917Y770743D01*
X138966Y770820D01*
X138967Y770829D01*
X138972Y770836D01*
X138999Y771000D01*
X138999Y774000D01*
X138998Y774006D01*
X138999Y774012D01*
X138999Y774014D01*
X138999Y774017D01*
X138978Y774105D01*
X138960Y774195D01*
X138955Y774202D01*
X138953Y774210D01*
X138899Y774283D01*
X138847Y774359D01*
X138840Y774363D01*
X138835Y774370D01*
X138757Y774417D01*
X138680Y774466D01*
X138671Y774467D01*
X138664Y774472D01*
X138500Y774499D01*
X126500Y774499D01*
X126492Y774498D01*
X126483Y774499D01*
X126395Y774478D01*
X126305Y774460D01*
X126298Y774455D01*
X126290Y774453D01*
X126217Y774399D01*
X126141Y774347D01*
X126137Y774340D01*
X126130Y774335D01*
X126083Y774257D01*
X126034Y774180D01*
X126033Y774171D01*
X126028Y774164D01*
X126001Y774000D01*
X126001Y771000D01*
X126002Y770992D01*
X126001Y770983D01*
X126022Y770895D01*
X126040Y770805D01*
X126045Y770798D01*
X126047Y770790D01*
X126101Y770717D01*
X126153Y770641D01*
X126160Y770637D01*
X126165Y770630D01*
X126243Y770583D01*
X126320Y770534D01*
X126329Y770533D01*
X126336Y770528D01*
X126500Y770501D01*
X138500Y770501D01*
X138508Y770502D01*
G37*
G36*
X23508Y810502D02*
X23508Y810502D01*
X23517Y810501D01*
X23605Y810522D01*
X23695Y810540D01*
X23702Y810545D01*
X23710Y810547D01*
X23783Y810601D01*
X23859Y810653D01*
X23863Y810660D01*
X23870Y810665D01*
X23917Y810743D01*
X23966Y810820D01*
X23967Y810829D01*
X23972Y810836D01*
X23999Y811000D01*
X23999Y814000D01*
X23998Y814006D01*
X23999Y814012D01*
X23999Y814014D01*
X23999Y814017D01*
X23978Y814105D01*
X23960Y814195D01*
X23955Y814202D01*
X23953Y814210D01*
X23899Y814283D01*
X23847Y814359D01*
X23840Y814363D01*
X23835Y814370D01*
X23757Y814417D01*
X23680Y814466D01*
X23671Y814467D01*
X23664Y814472D01*
X23500Y814499D01*
X11500Y814499D01*
X11492Y814498D01*
X11483Y814499D01*
X11395Y814478D01*
X11305Y814460D01*
X11298Y814455D01*
X11290Y814453D01*
X11217Y814399D01*
X11141Y814347D01*
X11137Y814340D01*
X11130Y814335D01*
X11083Y814257D01*
X11034Y814180D01*
X11033Y814171D01*
X11028Y814164D01*
X11001Y814000D01*
X11001Y811000D01*
X11002Y810992D01*
X11001Y810983D01*
X11022Y810895D01*
X11040Y810805D01*
X11045Y810798D01*
X11047Y810790D01*
X11101Y810717D01*
X11153Y810641D01*
X11160Y810637D01*
X11165Y810630D01*
X11243Y810583D01*
X11320Y810534D01*
X11329Y810533D01*
X11336Y810528D01*
X11500Y810501D01*
X23500Y810501D01*
X23508Y810502D01*
G37*
G36*
X138508Y810502D02*
X138508Y810502D01*
X138517Y810501D01*
X138605Y810522D01*
X138695Y810540D01*
X138702Y810545D01*
X138710Y810547D01*
X138783Y810601D01*
X138859Y810653D01*
X138863Y810660D01*
X138870Y810665D01*
X138917Y810743D01*
X138966Y810820D01*
X138967Y810829D01*
X138972Y810836D01*
X138999Y811000D01*
X138999Y814000D01*
X138998Y814006D01*
X138999Y814012D01*
X138999Y814014D01*
X138999Y814017D01*
X138978Y814105D01*
X138960Y814195D01*
X138955Y814202D01*
X138953Y814210D01*
X138899Y814283D01*
X138847Y814359D01*
X138840Y814363D01*
X138835Y814370D01*
X138757Y814417D01*
X138680Y814466D01*
X138671Y814467D01*
X138664Y814472D01*
X138500Y814499D01*
X126500Y814499D01*
X126492Y814498D01*
X126483Y814499D01*
X126395Y814478D01*
X126305Y814460D01*
X126298Y814455D01*
X126290Y814453D01*
X126217Y814399D01*
X126141Y814347D01*
X126137Y814340D01*
X126130Y814335D01*
X126083Y814257D01*
X126034Y814180D01*
X126033Y814171D01*
X126028Y814164D01*
X126001Y814000D01*
X126001Y811000D01*
X126002Y810992D01*
X126001Y810983D01*
X126022Y810895D01*
X126040Y810805D01*
X126045Y810798D01*
X126047Y810790D01*
X126101Y810717D01*
X126153Y810641D01*
X126160Y810637D01*
X126165Y810630D01*
X126243Y810583D01*
X126320Y810534D01*
X126329Y810533D01*
X126336Y810528D01*
X126500Y810501D01*
X138500Y810501D01*
X138508Y810502D01*
G37*
G36*
X23508Y805502D02*
X23508Y805502D01*
X23517Y805501D01*
X23605Y805522D01*
X23695Y805540D01*
X23702Y805545D01*
X23710Y805547D01*
X23783Y805601D01*
X23859Y805653D01*
X23863Y805660D01*
X23870Y805665D01*
X23917Y805743D01*
X23966Y805820D01*
X23967Y805829D01*
X23972Y805836D01*
X23999Y806000D01*
X23999Y809000D01*
X23998Y809006D01*
X23999Y809012D01*
X23999Y809014D01*
X23999Y809017D01*
X23978Y809105D01*
X23960Y809195D01*
X23955Y809202D01*
X23953Y809210D01*
X23899Y809283D01*
X23847Y809359D01*
X23840Y809363D01*
X23835Y809370D01*
X23757Y809417D01*
X23680Y809466D01*
X23671Y809467D01*
X23664Y809472D01*
X23500Y809499D01*
X11500Y809499D01*
X11492Y809498D01*
X11483Y809499D01*
X11395Y809478D01*
X11305Y809460D01*
X11298Y809455D01*
X11290Y809453D01*
X11217Y809399D01*
X11141Y809347D01*
X11137Y809340D01*
X11130Y809335D01*
X11083Y809257D01*
X11034Y809180D01*
X11033Y809171D01*
X11028Y809164D01*
X11001Y809000D01*
X11001Y806000D01*
X11002Y805992D01*
X11001Y805983D01*
X11022Y805895D01*
X11040Y805805D01*
X11045Y805798D01*
X11047Y805790D01*
X11101Y805717D01*
X11153Y805641D01*
X11160Y805637D01*
X11165Y805630D01*
X11243Y805583D01*
X11320Y805534D01*
X11329Y805533D01*
X11336Y805528D01*
X11500Y805501D01*
X23500Y805501D01*
X23508Y805502D01*
G37*
G36*
X23508Y765502D02*
X23508Y765502D01*
X23517Y765501D01*
X23605Y765522D01*
X23695Y765540D01*
X23702Y765545D01*
X23710Y765547D01*
X23783Y765601D01*
X23859Y765653D01*
X23863Y765660D01*
X23870Y765665D01*
X23917Y765743D01*
X23966Y765820D01*
X23967Y765829D01*
X23972Y765836D01*
X23999Y766000D01*
X23999Y769000D01*
X23998Y769006D01*
X23999Y769012D01*
X23999Y769014D01*
X23999Y769017D01*
X23978Y769105D01*
X23960Y769195D01*
X23955Y769202D01*
X23953Y769210D01*
X23899Y769283D01*
X23847Y769359D01*
X23840Y769363D01*
X23835Y769370D01*
X23757Y769417D01*
X23680Y769466D01*
X23671Y769467D01*
X23664Y769472D01*
X23500Y769499D01*
X11500Y769499D01*
X11492Y769498D01*
X11483Y769499D01*
X11395Y769478D01*
X11305Y769460D01*
X11298Y769455D01*
X11290Y769453D01*
X11217Y769399D01*
X11141Y769347D01*
X11137Y769340D01*
X11130Y769335D01*
X11083Y769257D01*
X11034Y769180D01*
X11033Y769171D01*
X11028Y769164D01*
X11001Y769000D01*
X11001Y766000D01*
X11002Y765992D01*
X11001Y765983D01*
X11022Y765895D01*
X11040Y765805D01*
X11045Y765798D01*
X11047Y765790D01*
X11101Y765717D01*
X11153Y765641D01*
X11160Y765637D01*
X11165Y765630D01*
X11243Y765583D01*
X11320Y765534D01*
X11329Y765533D01*
X11336Y765528D01*
X11500Y765501D01*
X23500Y765501D01*
X23508Y765502D01*
G37*
G36*
X138508Y765502D02*
X138508Y765502D01*
X138517Y765501D01*
X138605Y765522D01*
X138695Y765540D01*
X138702Y765545D01*
X138710Y765547D01*
X138783Y765601D01*
X138859Y765653D01*
X138863Y765660D01*
X138870Y765665D01*
X138917Y765743D01*
X138966Y765820D01*
X138967Y765829D01*
X138972Y765836D01*
X138999Y766000D01*
X138999Y769000D01*
X138998Y769006D01*
X138999Y769012D01*
X138999Y769014D01*
X138999Y769017D01*
X138978Y769105D01*
X138960Y769195D01*
X138955Y769202D01*
X138953Y769210D01*
X138899Y769283D01*
X138847Y769359D01*
X138840Y769363D01*
X138835Y769370D01*
X138757Y769417D01*
X138680Y769466D01*
X138671Y769467D01*
X138664Y769472D01*
X138500Y769499D01*
X126500Y769499D01*
X126492Y769498D01*
X126483Y769499D01*
X126395Y769478D01*
X126305Y769460D01*
X126298Y769455D01*
X126290Y769453D01*
X126217Y769399D01*
X126141Y769347D01*
X126137Y769340D01*
X126130Y769335D01*
X126083Y769257D01*
X126034Y769180D01*
X126033Y769171D01*
X126028Y769164D01*
X126001Y769000D01*
X126001Y766000D01*
X126002Y765992D01*
X126001Y765983D01*
X126022Y765895D01*
X126040Y765805D01*
X126045Y765798D01*
X126047Y765790D01*
X126101Y765717D01*
X126153Y765641D01*
X126160Y765637D01*
X126165Y765630D01*
X126243Y765583D01*
X126320Y765534D01*
X126329Y765533D01*
X126336Y765528D01*
X126500Y765501D01*
X138500Y765501D01*
X138508Y765502D01*
G37*
G36*
X23508Y760502D02*
X23508Y760502D01*
X23517Y760501D01*
X23605Y760522D01*
X23695Y760540D01*
X23702Y760545D01*
X23710Y760547D01*
X23783Y760601D01*
X23859Y760653D01*
X23863Y760660D01*
X23870Y760665D01*
X23917Y760743D01*
X23966Y760820D01*
X23967Y760829D01*
X23972Y760836D01*
X23999Y761000D01*
X23999Y764000D01*
X23998Y764006D01*
X23999Y764012D01*
X23999Y764014D01*
X23999Y764017D01*
X23978Y764105D01*
X23960Y764195D01*
X23955Y764202D01*
X23953Y764210D01*
X23899Y764283D01*
X23847Y764359D01*
X23840Y764363D01*
X23835Y764370D01*
X23757Y764417D01*
X23680Y764466D01*
X23671Y764467D01*
X23664Y764472D01*
X23500Y764499D01*
X11500Y764499D01*
X11492Y764498D01*
X11483Y764499D01*
X11395Y764478D01*
X11305Y764460D01*
X11298Y764455D01*
X11290Y764453D01*
X11217Y764399D01*
X11141Y764347D01*
X11137Y764340D01*
X11130Y764335D01*
X11083Y764257D01*
X11034Y764180D01*
X11033Y764171D01*
X11028Y764164D01*
X11001Y764000D01*
X11001Y761000D01*
X11002Y760992D01*
X11001Y760983D01*
X11022Y760895D01*
X11040Y760805D01*
X11045Y760798D01*
X11047Y760790D01*
X11101Y760717D01*
X11153Y760641D01*
X11160Y760637D01*
X11165Y760630D01*
X11243Y760583D01*
X11320Y760534D01*
X11329Y760533D01*
X11336Y760528D01*
X11500Y760501D01*
X23500Y760501D01*
X23508Y760502D01*
G37*
G36*
X138508Y760502D02*
X138508Y760502D01*
X138517Y760501D01*
X138605Y760522D01*
X138695Y760540D01*
X138702Y760545D01*
X138710Y760547D01*
X138783Y760601D01*
X138859Y760653D01*
X138863Y760660D01*
X138870Y760665D01*
X138917Y760743D01*
X138966Y760820D01*
X138967Y760829D01*
X138972Y760836D01*
X138999Y761000D01*
X138999Y764000D01*
X138998Y764006D01*
X138999Y764012D01*
X138999Y764014D01*
X138999Y764017D01*
X138978Y764105D01*
X138960Y764195D01*
X138955Y764202D01*
X138953Y764210D01*
X138899Y764283D01*
X138847Y764359D01*
X138840Y764363D01*
X138835Y764370D01*
X138757Y764417D01*
X138680Y764466D01*
X138671Y764467D01*
X138664Y764472D01*
X138500Y764499D01*
X126500Y764499D01*
X126492Y764498D01*
X126483Y764499D01*
X126395Y764478D01*
X126305Y764460D01*
X126298Y764455D01*
X126290Y764453D01*
X126217Y764399D01*
X126141Y764347D01*
X126137Y764340D01*
X126130Y764335D01*
X126083Y764257D01*
X126034Y764180D01*
X126033Y764171D01*
X126028Y764164D01*
X126001Y764000D01*
X126001Y761000D01*
X126002Y760992D01*
X126001Y760983D01*
X126022Y760895D01*
X126040Y760805D01*
X126045Y760798D01*
X126047Y760790D01*
X126101Y760717D01*
X126153Y760641D01*
X126160Y760637D01*
X126165Y760630D01*
X126243Y760583D01*
X126320Y760534D01*
X126329Y760533D01*
X126336Y760528D01*
X126500Y760501D01*
X138500Y760501D01*
X138508Y760502D01*
G37*
G36*
X138508Y755502D02*
X138508Y755502D01*
X138517Y755501D01*
X138605Y755522D01*
X138695Y755540D01*
X138702Y755545D01*
X138710Y755547D01*
X138783Y755601D01*
X138859Y755653D01*
X138863Y755660D01*
X138870Y755665D01*
X138917Y755743D01*
X138966Y755820D01*
X138967Y755829D01*
X138972Y755836D01*
X138999Y756000D01*
X138999Y759000D01*
X138998Y759006D01*
X138999Y759012D01*
X138999Y759014D01*
X138999Y759017D01*
X138978Y759105D01*
X138960Y759195D01*
X138955Y759202D01*
X138953Y759210D01*
X138899Y759283D01*
X138847Y759359D01*
X138840Y759363D01*
X138835Y759370D01*
X138757Y759417D01*
X138680Y759466D01*
X138671Y759467D01*
X138664Y759472D01*
X138500Y759499D01*
X126500Y759499D01*
X126492Y759498D01*
X126483Y759499D01*
X126395Y759478D01*
X126305Y759460D01*
X126298Y759455D01*
X126290Y759453D01*
X126217Y759399D01*
X126141Y759347D01*
X126137Y759340D01*
X126130Y759335D01*
X126083Y759257D01*
X126034Y759180D01*
X126033Y759171D01*
X126028Y759164D01*
X126001Y759000D01*
X126001Y756000D01*
X126002Y755992D01*
X126001Y755983D01*
X126022Y755895D01*
X126040Y755805D01*
X126045Y755798D01*
X126047Y755790D01*
X126101Y755717D01*
X126153Y755641D01*
X126160Y755637D01*
X126165Y755630D01*
X126243Y755583D01*
X126320Y755534D01*
X126329Y755533D01*
X126336Y755528D01*
X126500Y755501D01*
X138500Y755501D01*
X138508Y755502D01*
G37*
G36*
X23508Y755502D02*
X23508Y755502D01*
X23517Y755501D01*
X23605Y755522D01*
X23695Y755540D01*
X23702Y755545D01*
X23710Y755547D01*
X23783Y755601D01*
X23859Y755653D01*
X23863Y755660D01*
X23870Y755665D01*
X23917Y755743D01*
X23966Y755820D01*
X23967Y755829D01*
X23972Y755836D01*
X23999Y756000D01*
X23999Y759000D01*
X23998Y759006D01*
X23999Y759012D01*
X23999Y759014D01*
X23999Y759017D01*
X23978Y759105D01*
X23960Y759195D01*
X23955Y759202D01*
X23953Y759210D01*
X23899Y759283D01*
X23847Y759359D01*
X23840Y759363D01*
X23835Y759370D01*
X23757Y759417D01*
X23680Y759466D01*
X23671Y759467D01*
X23664Y759472D01*
X23500Y759499D01*
X11500Y759499D01*
X11492Y759498D01*
X11483Y759499D01*
X11395Y759478D01*
X11305Y759460D01*
X11298Y759455D01*
X11290Y759453D01*
X11217Y759399D01*
X11141Y759347D01*
X11137Y759340D01*
X11130Y759335D01*
X11083Y759257D01*
X11034Y759180D01*
X11033Y759171D01*
X11028Y759164D01*
X11001Y759000D01*
X11001Y756000D01*
X11002Y755992D01*
X11001Y755983D01*
X11022Y755895D01*
X11040Y755805D01*
X11045Y755798D01*
X11047Y755790D01*
X11101Y755717D01*
X11153Y755641D01*
X11160Y755637D01*
X11165Y755630D01*
X11243Y755583D01*
X11320Y755534D01*
X11329Y755533D01*
X11336Y755528D01*
X11500Y755501D01*
X23500Y755501D01*
X23508Y755502D01*
G37*
G36*
X138508Y750502D02*
X138508Y750502D01*
X138517Y750501D01*
X138605Y750522D01*
X138695Y750540D01*
X138702Y750545D01*
X138710Y750547D01*
X138783Y750601D01*
X138859Y750653D01*
X138863Y750660D01*
X138870Y750665D01*
X138917Y750743D01*
X138966Y750820D01*
X138967Y750829D01*
X138972Y750836D01*
X138999Y751000D01*
X138999Y754000D01*
X138998Y754006D01*
X138999Y754012D01*
X138999Y754014D01*
X138999Y754017D01*
X138978Y754105D01*
X138960Y754195D01*
X138955Y754202D01*
X138953Y754210D01*
X138899Y754283D01*
X138847Y754359D01*
X138840Y754363D01*
X138835Y754370D01*
X138757Y754417D01*
X138680Y754466D01*
X138671Y754467D01*
X138664Y754472D01*
X138500Y754499D01*
X126500Y754499D01*
X126492Y754498D01*
X126483Y754499D01*
X126395Y754478D01*
X126305Y754460D01*
X126298Y754455D01*
X126290Y754453D01*
X126217Y754399D01*
X126141Y754347D01*
X126137Y754340D01*
X126130Y754335D01*
X126083Y754257D01*
X126034Y754180D01*
X126033Y754171D01*
X126028Y754164D01*
X126001Y754000D01*
X126001Y751000D01*
X126002Y750992D01*
X126001Y750983D01*
X126022Y750895D01*
X126040Y750805D01*
X126045Y750798D01*
X126047Y750790D01*
X126101Y750717D01*
X126153Y750641D01*
X126160Y750637D01*
X126165Y750630D01*
X126243Y750583D01*
X126320Y750534D01*
X126329Y750533D01*
X126336Y750528D01*
X126500Y750501D01*
X138500Y750501D01*
X138508Y750502D01*
G37*
G36*
X23508Y750502D02*
X23508Y750502D01*
X23517Y750501D01*
X23605Y750522D01*
X23695Y750540D01*
X23702Y750545D01*
X23710Y750547D01*
X23783Y750601D01*
X23859Y750653D01*
X23863Y750660D01*
X23870Y750665D01*
X23917Y750743D01*
X23966Y750820D01*
X23967Y750829D01*
X23972Y750836D01*
X23999Y751000D01*
X23999Y754000D01*
X23998Y754006D01*
X23999Y754012D01*
X23999Y754014D01*
X23999Y754017D01*
X23978Y754105D01*
X23960Y754195D01*
X23955Y754202D01*
X23953Y754210D01*
X23899Y754283D01*
X23847Y754359D01*
X23840Y754363D01*
X23835Y754370D01*
X23757Y754417D01*
X23680Y754466D01*
X23671Y754467D01*
X23664Y754472D01*
X23500Y754499D01*
X11500Y754499D01*
X11492Y754498D01*
X11483Y754499D01*
X11395Y754478D01*
X11305Y754460D01*
X11298Y754455D01*
X11290Y754453D01*
X11217Y754399D01*
X11141Y754347D01*
X11137Y754340D01*
X11130Y754335D01*
X11083Y754257D01*
X11034Y754180D01*
X11033Y754171D01*
X11028Y754164D01*
X11001Y754000D01*
X11001Y751000D01*
X11002Y750992D01*
X11001Y750983D01*
X11022Y750895D01*
X11040Y750805D01*
X11045Y750798D01*
X11047Y750790D01*
X11101Y750717D01*
X11153Y750641D01*
X11160Y750637D01*
X11165Y750630D01*
X11243Y750583D01*
X11320Y750534D01*
X11329Y750533D01*
X11336Y750528D01*
X11500Y750501D01*
X23500Y750501D01*
X23508Y750502D01*
G37*
G36*
X138508Y745502D02*
X138508Y745502D01*
X138517Y745501D01*
X138605Y745522D01*
X138695Y745540D01*
X138702Y745545D01*
X138710Y745547D01*
X138783Y745601D01*
X138859Y745653D01*
X138863Y745660D01*
X138870Y745665D01*
X138917Y745743D01*
X138966Y745820D01*
X138967Y745829D01*
X138972Y745836D01*
X138999Y746000D01*
X138999Y749000D01*
X138998Y749006D01*
X138999Y749012D01*
X138999Y749014D01*
X138999Y749017D01*
X138978Y749105D01*
X138960Y749195D01*
X138955Y749202D01*
X138953Y749210D01*
X138899Y749283D01*
X138847Y749359D01*
X138840Y749363D01*
X138835Y749370D01*
X138757Y749417D01*
X138680Y749466D01*
X138671Y749467D01*
X138664Y749472D01*
X138500Y749499D01*
X126500Y749499D01*
X126492Y749498D01*
X126483Y749499D01*
X126395Y749478D01*
X126305Y749460D01*
X126298Y749455D01*
X126290Y749453D01*
X126217Y749399D01*
X126141Y749347D01*
X126137Y749340D01*
X126130Y749335D01*
X126083Y749257D01*
X126034Y749180D01*
X126033Y749171D01*
X126028Y749164D01*
X126001Y749000D01*
X126001Y746000D01*
X126002Y745992D01*
X126001Y745983D01*
X126022Y745895D01*
X126040Y745805D01*
X126045Y745798D01*
X126047Y745790D01*
X126101Y745717D01*
X126153Y745641D01*
X126160Y745637D01*
X126165Y745630D01*
X126243Y745583D01*
X126320Y745534D01*
X126329Y745533D01*
X126336Y745528D01*
X126500Y745501D01*
X138500Y745501D01*
X138508Y745502D01*
G37*
G36*
X23508Y745502D02*
X23508Y745502D01*
X23517Y745501D01*
X23605Y745522D01*
X23695Y745540D01*
X23702Y745545D01*
X23710Y745547D01*
X23783Y745601D01*
X23859Y745653D01*
X23863Y745660D01*
X23870Y745665D01*
X23917Y745743D01*
X23966Y745820D01*
X23967Y745829D01*
X23972Y745836D01*
X23999Y746000D01*
X23999Y749000D01*
X23998Y749006D01*
X23999Y749012D01*
X23999Y749014D01*
X23999Y749017D01*
X23978Y749105D01*
X23960Y749195D01*
X23955Y749202D01*
X23953Y749210D01*
X23899Y749283D01*
X23847Y749359D01*
X23840Y749363D01*
X23835Y749370D01*
X23757Y749417D01*
X23680Y749466D01*
X23671Y749467D01*
X23664Y749472D01*
X23500Y749499D01*
X11500Y749499D01*
X11492Y749498D01*
X11483Y749499D01*
X11395Y749478D01*
X11305Y749460D01*
X11298Y749455D01*
X11290Y749453D01*
X11217Y749399D01*
X11141Y749347D01*
X11137Y749340D01*
X11130Y749335D01*
X11083Y749257D01*
X11034Y749180D01*
X11033Y749171D01*
X11028Y749164D01*
X11001Y749000D01*
X11001Y746000D01*
X11002Y745992D01*
X11001Y745983D01*
X11022Y745895D01*
X11040Y745805D01*
X11045Y745798D01*
X11047Y745790D01*
X11101Y745717D01*
X11153Y745641D01*
X11160Y745637D01*
X11165Y745630D01*
X11243Y745583D01*
X11320Y745534D01*
X11329Y745533D01*
X11336Y745528D01*
X11500Y745501D01*
X23500Y745501D01*
X23508Y745502D01*
G37*
G36*
X138508Y740502D02*
X138508Y740502D01*
X138517Y740501D01*
X138605Y740522D01*
X138695Y740540D01*
X138702Y740545D01*
X138710Y740547D01*
X138783Y740601D01*
X138859Y740653D01*
X138863Y740660D01*
X138870Y740665D01*
X138917Y740743D01*
X138966Y740820D01*
X138967Y740829D01*
X138972Y740836D01*
X138999Y741000D01*
X138999Y744000D01*
X138998Y744006D01*
X138999Y744012D01*
X138999Y744014D01*
X138999Y744017D01*
X138978Y744105D01*
X138960Y744195D01*
X138955Y744202D01*
X138953Y744210D01*
X138899Y744283D01*
X138847Y744359D01*
X138840Y744363D01*
X138835Y744370D01*
X138757Y744417D01*
X138680Y744466D01*
X138671Y744467D01*
X138664Y744472D01*
X138500Y744499D01*
X126500Y744499D01*
X126492Y744498D01*
X126483Y744499D01*
X126395Y744478D01*
X126305Y744460D01*
X126298Y744455D01*
X126290Y744453D01*
X126217Y744399D01*
X126141Y744347D01*
X126137Y744340D01*
X126130Y744335D01*
X126083Y744257D01*
X126034Y744180D01*
X126033Y744171D01*
X126028Y744164D01*
X126001Y744000D01*
X126001Y741000D01*
X126002Y740992D01*
X126001Y740983D01*
X126022Y740895D01*
X126040Y740805D01*
X126045Y740798D01*
X126047Y740790D01*
X126101Y740717D01*
X126153Y740641D01*
X126160Y740637D01*
X126165Y740630D01*
X126243Y740583D01*
X126320Y740534D01*
X126329Y740533D01*
X126336Y740528D01*
X126500Y740501D01*
X138500Y740501D01*
X138508Y740502D01*
G37*
G36*
X23508Y740502D02*
X23508Y740502D01*
X23517Y740501D01*
X23605Y740522D01*
X23695Y740540D01*
X23702Y740545D01*
X23710Y740547D01*
X23783Y740601D01*
X23859Y740653D01*
X23863Y740660D01*
X23870Y740665D01*
X23917Y740743D01*
X23966Y740820D01*
X23967Y740829D01*
X23972Y740836D01*
X23999Y741000D01*
X23999Y744000D01*
X23998Y744006D01*
X23999Y744012D01*
X23999Y744014D01*
X23999Y744017D01*
X23978Y744105D01*
X23960Y744195D01*
X23955Y744202D01*
X23953Y744210D01*
X23899Y744283D01*
X23847Y744359D01*
X23840Y744363D01*
X23835Y744370D01*
X23757Y744417D01*
X23680Y744466D01*
X23671Y744467D01*
X23664Y744472D01*
X23500Y744499D01*
X11500Y744499D01*
X11492Y744498D01*
X11483Y744499D01*
X11395Y744478D01*
X11305Y744460D01*
X11298Y744455D01*
X11290Y744453D01*
X11217Y744399D01*
X11141Y744347D01*
X11137Y744340D01*
X11130Y744335D01*
X11083Y744257D01*
X11034Y744180D01*
X11033Y744171D01*
X11028Y744164D01*
X11001Y744000D01*
X11001Y741000D01*
X11002Y740992D01*
X11001Y740983D01*
X11022Y740895D01*
X11040Y740805D01*
X11045Y740798D01*
X11047Y740790D01*
X11101Y740717D01*
X11153Y740641D01*
X11160Y740637D01*
X11165Y740630D01*
X11243Y740583D01*
X11320Y740534D01*
X11329Y740533D01*
X11336Y740528D01*
X11500Y740501D01*
X23500Y740501D01*
X23508Y740502D01*
G37*
G36*
X138508Y735502D02*
X138508Y735502D01*
X138517Y735501D01*
X138605Y735522D01*
X138695Y735540D01*
X138702Y735545D01*
X138710Y735547D01*
X138783Y735601D01*
X138859Y735653D01*
X138863Y735660D01*
X138870Y735665D01*
X138917Y735743D01*
X138966Y735820D01*
X138967Y735829D01*
X138972Y735836D01*
X138999Y736000D01*
X138999Y739000D01*
X138998Y739006D01*
X138999Y739012D01*
X138999Y739014D01*
X138999Y739017D01*
X138978Y739105D01*
X138960Y739195D01*
X138955Y739202D01*
X138953Y739210D01*
X138899Y739283D01*
X138847Y739359D01*
X138840Y739363D01*
X138835Y739370D01*
X138757Y739417D01*
X138680Y739466D01*
X138671Y739467D01*
X138664Y739472D01*
X138500Y739499D01*
X126500Y739499D01*
X126492Y739498D01*
X126483Y739499D01*
X126395Y739478D01*
X126305Y739460D01*
X126298Y739455D01*
X126290Y739453D01*
X126217Y739399D01*
X126141Y739347D01*
X126137Y739340D01*
X126130Y739335D01*
X126083Y739257D01*
X126034Y739180D01*
X126033Y739171D01*
X126028Y739164D01*
X126001Y739000D01*
X126001Y736000D01*
X126002Y735992D01*
X126001Y735983D01*
X126022Y735895D01*
X126040Y735805D01*
X126045Y735798D01*
X126047Y735790D01*
X126101Y735717D01*
X126153Y735641D01*
X126160Y735637D01*
X126165Y735630D01*
X126243Y735583D01*
X126320Y735534D01*
X126329Y735533D01*
X126336Y735528D01*
X126500Y735501D01*
X138500Y735501D01*
X138508Y735502D01*
G37*
G36*
X23508Y735502D02*
X23508Y735502D01*
X23517Y735501D01*
X23605Y735522D01*
X23695Y735540D01*
X23702Y735545D01*
X23710Y735547D01*
X23783Y735601D01*
X23859Y735653D01*
X23863Y735660D01*
X23870Y735665D01*
X23917Y735743D01*
X23966Y735820D01*
X23967Y735829D01*
X23972Y735836D01*
X23999Y736000D01*
X23999Y739000D01*
X23998Y739006D01*
X23999Y739012D01*
X23999Y739014D01*
X23999Y739017D01*
X23978Y739105D01*
X23960Y739195D01*
X23955Y739202D01*
X23953Y739210D01*
X23899Y739283D01*
X23847Y739359D01*
X23840Y739363D01*
X23835Y739370D01*
X23757Y739417D01*
X23680Y739466D01*
X23671Y739467D01*
X23664Y739472D01*
X23500Y739499D01*
X11500Y739499D01*
X11492Y739498D01*
X11483Y739499D01*
X11395Y739478D01*
X11305Y739460D01*
X11298Y739455D01*
X11290Y739453D01*
X11217Y739399D01*
X11141Y739347D01*
X11137Y739340D01*
X11130Y739335D01*
X11083Y739257D01*
X11034Y739180D01*
X11033Y739171D01*
X11028Y739164D01*
X11001Y739000D01*
X11001Y736000D01*
X11002Y735992D01*
X11001Y735983D01*
X11022Y735895D01*
X11040Y735805D01*
X11045Y735798D01*
X11047Y735790D01*
X11101Y735717D01*
X11153Y735641D01*
X11160Y735637D01*
X11165Y735630D01*
X11243Y735583D01*
X11320Y735534D01*
X11329Y735533D01*
X11336Y735528D01*
X11500Y735501D01*
X23500Y735501D01*
X23508Y735502D01*
G37*
G36*
X138508Y800502D02*
X138508Y800502D01*
X138517Y800501D01*
X138605Y800522D01*
X138695Y800540D01*
X138702Y800545D01*
X138710Y800547D01*
X138783Y800601D01*
X138859Y800653D01*
X138863Y800660D01*
X138870Y800665D01*
X138917Y800743D01*
X138966Y800820D01*
X138967Y800829D01*
X138972Y800836D01*
X138999Y801000D01*
X138999Y804000D01*
X138998Y804006D01*
X138999Y804012D01*
X138999Y804014D01*
X138999Y804017D01*
X138978Y804105D01*
X138960Y804195D01*
X138955Y804202D01*
X138953Y804210D01*
X138899Y804283D01*
X138847Y804359D01*
X138840Y804363D01*
X138835Y804370D01*
X138757Y804417D01*
X138680Y804466D01*
X138671Y804467D01*
X138664Y804472D01*
X138500Y804499D01*
X126500Y804499D01*
X126492Y804498D01*
X126483Y804499D01*
X126395Y804478D01*
X126305Y804460D01*
X126298Y804455D01*
X126290Y804453D01*
X126217Y804399D01*
X126141Y804347D01*
X126137Y804340D01*
X126130Y804335D01*
X126083Y804257D01*
X126034Y804180D01*
X126033Y804171D01*
X126028Y804164D01*
X126001Y804000D01*
X126001Y801000D01*
X126002Y800992D01*
X126001Y800983D01*
X126022Y800895D01*
X126040Y800805D01*
X126045Y800798D01*
X126047Y800790D01*
X126101Y800717D01*
X126153Y800641D01*
X126160Y800637D01*
X126165Y800630D01*
X126243Y800583D01*
X126320Y800534D01*
X126329Y800533D01*
X126336Y800528D01*
X126500Y800501D01*
X138500Y800501D01*
X138508Y800502D01*
G37*
G36*
X138508Y805502D02*
X138508Y805502D01*
X138517Y805501D01*
X138605Y805522D01*
X138695Y805540D01*
X138702Y805545D01*
X138710Y805547D01*
X138783Y805601D01*
X138859Y805653D01*
X138863Y805660D01*
X138870Y805665D01*
X138917Y805743D01*
X138966Y805820D01*
X138967Y805829D01*
X138972Y805836D01*
X138999Y806000D01*
X138999Y809000D01*
X138998Y809006D01*
X138999Y809012D01*
X138999Y809014D01*
X138999Y809017D01*
X138978Y809105D01*
X138960Y809195D01*
X138955Y809202D01*
X138953Y809210D01*
X138899Y809283D01*
X138847Y809359D01*
X138840Y809363D01*
X138835Y809370D01*
X138757Y809417D01*
X138680Y809466D01*
X138671Y809467D01*
X138664Y809472D01*
X138500Y809499D01*
X126500Y809499D01*
X126492Y809498D01*
X126483Y809499D01*
X126395Y809478D01*
X126305Y809460D01*
X126298Y809455D01*
X126290Y809453D01*
X126217Y809399D01*
X126141Y809347D01*
X126137Y809340D01*
X126130Y809335D01*
X126083Y809257D01*
X126034Y809180D01*
X126033Y809171D01*
X126028Y809164D01*
X126001Y809000D01*
X126001Y806000D01*
X126002Y805992D01*
X126001Y805983D01*
X126022Y805895D01*
X126040Y805805D01*
X126045Y805798D01*
X126047Y805790D01*
X126101Y805717D01*
X126153Y805641D01*
X126160Y805637D01*
X126165Y805630D01*
X126243Y805583D01*
X126320Y805534D01*
X126329Y805533D01*
X126336Y805528D01*
X126500Y805501D01*
X138500Y805501D01*
X138508Y805502D01*
G37*
G36*
X74008Y826002D02*
X74008Y826002D01*
X74017Y826001D01*
X74105Y826022D01*
X74195Y826040D01*
X74202Y826045D01*
X74210Y826047D01*
X74283Y826101D01*
X74359Y826153D01*
X74363Y826160D01*
X74370Y826165D01*
X74417Y826243D01*
X74466Y826320D01*
X74467Y826329D01*
X74472Y826336D01*
X74499Y826500D01*
X74499Y838500D01*
X74498Y838508D01*
X74499Y838517D01*
X74478Y838605D01*
X74460Y838695D01*
X74455Y838702D01*
X74453Y838710D01*
X74399Y838783D01*
X74347Y838859D01*
X74340Y838863D01*
X74335Y838870D01*
X74257Y838917D01*
X74180Y838966D01*
X74171Y838967D01*
X74164Y838972D01*
X74000Y838999D01*
X71000Y838999D01*
X70992Y838998D01*
X70983Y838999D01*
X70895Y838978D01*
X70805Y838960D01*
X70798Y838955D01*
X70790Y838953D01*
X70717Y838899D01*
X70641Y838847D01*
X70637Y838840D01*
X70630Y838835D01*
X70583Y838757D01*
X70534Y838680D01*
X70533Y838671D01*
X70528Y838664D01*
X70501Y838500D01*
X70501Y826500D01*
X70502Y826492D01*
X70501Y826483D01*
X70522Y826395D01*
X70540Y826305D01*
X70545Y826298D01*
X70547Y826290D01*
X70601Y826217D01*
X70653Y826141D01*
X70660Y826137D01*
X70665Y826130D01*
X70743Y826083D01*
X70820Y826034D01*
X70829Y826033D01*
X70836Y826028D01*
X71000Y826001D01*
X74000Y826001D01*
X74008Y826002D01*
G37*
G36*
X109008Y826002D02*
X109008Y826002D01*
X109017Y826001D01*
X109105Y826022D01*
X109195Y826040D01*
X109202Y826045D01*
X109210Y826047D01*
X109283Y826101D01*
X109359Y826153D01*
X109363Y826160D01*
X109370Y826165D01*
X109417Y826243D01*
X109466Y826320D01*
X109467Y826329D01*
X109472Y826336D01*
X109499Y826500D01*
X109499Y838500D01*
X109498Y838508D01*
X109499Y838517D01*
X109478Y838605D01*
X109460Y838695D01*
X109455Y838702D01*
X109453Y838710D01*
X109399Y838783D01*
X109347Y838859D01*
X109340Y838863D01*
X109335Y838870D01*
X109257Y838917D01*
X109180Y838966D01*
X109171Y838967D01*
X109164Y838972D01*
X109000Y838999D01*
X106000Y838999D01*
X105992Y838998D01*
X105983Y838999D01*
X105895Y838978D01*
X105805Y838960D01*
X105798Y838955D01*
X105790Y838953D01*
X105717Y838899D01*
X105641Y838847D01*
X105637Y838840D01*
X105630Y838835D01*
X105583Y838757D01*
X105534Y838680D01*
X105533Y838671D01*
X105528Y838664D01*
X105501Y838500D01*
X105501Y826500D01*
X105502Y826492D01*
X105501Y826483D01*
X105522Y826395D01*
X105540Y826305D01*
X105545Y826298D01*
X105547Y826290D01*
X105601Y826217D01*
X105653Y826141D01*
X105660Y826137D01*
X105665Y826130D01*
X105743Y826083D01*
X105820Y826034D01*
X105829Y826033D01*
X105836Y826028D01*
X106000Y826001D01*
X109000Y826001D01*
X109008Y826002D01*
G37*
G36*
X99008Y826002D02*
X99008Y826002D01*
X99017Y826001D01*
X99105Y826022D01*
X99195Y826040D01*
X99202Y826045D01*
X99210Y826047D01*
X99283Y826101D01*
X99359Y826153D01*
X99363Y826160D01*
X99370Y826165D01*
X99417Y826243D01*
X99466Y826320D01*
X99467Y826329D01*
X99472Y826336D01*
X99499Y826500D01*
X99499Y838500D01*
X99498Y838508D01*
X99499Y838517D01*
X99478Y838605D01*
X99460Y838695D01*
X99455Y838702D01*
X99453Y838710D01*
X99399Y838783D01*
X99347Y838859D01*
X99340Y838863D01*
X99335Y838870D01*
X99257Y838917D01*
X99180Y838966D01*
X99171Y838967D01*
X99164Y838972D01*
X99000Y838999D01*
X96000Y838999D01*
X95992Y838998D01*
X95983Y838999D01*
X95895Y838978D01*
X95805Y838960D01*
X95798Y838955D01*
X95790Y838953D01*
X95717Y838899D01*
X95641Y838847D01*
X95637Y838840D01*
X95630Y838835D01*
X95583Y838757D01*
X95534Y838680D01*
X95533Y838671D01*
X95528Y838664D01*
X95501Y838500D01*
X95501Y826500D01*
X95502Y826492D01*
X95501Y826483D01*
X95522Y826395D01*
X95540Y826305D01*
X95545Y826298D01*
X95547Y826290D01*
X95601Y826217D01*
X95653Y826141D01*
X95660Y826137D01*
X95665Y826130D01*
X95743Y826083D01*
X95820Y826034D01*
X95829Y826033D01*
X95836Y826028D01*
X96000Y826001D01*
X99000Y826001D01*
X99008Y826002D01*
G37*
G36*
X79008Y826002D02*
X79008Y826002D01*
X79017Y826001D01*
X79105Y826022D01*
X79195Y826040D01*
X79202Y826045D01*
X79210Y826047D01*
X79283Y826101D01*
X79359Y826153D01*
X79363Y826160D01*
X79370Y826165D01*
X79417Y826243D01*
X79466Y826320D01*
X79467Y826329D01*
X79472Y826336D01*
X79499Y826500D01*
X79499Y838500D01*
X79498Y838508D01*
X79499Y838517D01*
X79478Y838605D01*
X79460Y838695D01*
X79455Y838702D01*
X79453Y838710D01*
X79399Y838783D01*
X79347Y838859D01*
X79340Y838863D01*
X79335Y838870D01*
X79257Y838917D01*
X79180Y838966D01*
X79171Y838967D01*
X79164Y838972D01*
X79000Y838999D01*
X76000Y838999D01*
X75992Y838998D01*
X75983Y838999D01*
X75895Y838978D01*
X75805Y838960D01*
X75798Y838955D01*
X75790Y838953D01*
X75717Y838899D01*
X75641Y838847D01*
X75637Y838840D01*
X75630Y838835D01*
X75583Y838757D01*
X75534Y838680D01*
X75533Y838671D01*
X75528Y838664D01*
X75501Y838500D01*
X75501Y826500D01*
X75502Y826492D01*
X75501Y826483D01*
X75522Y826395D01*
X75540Y826305D01*
X75545Y826298D01*
X75547Y826290D01*
X75601Y826217D01*
X75653Y826141D01*
X75660Y826137D01*
X75665Y826130D01*
X75743Y826083D01*
X75820Y826034D01*
X75829Y826033D01*
X75836Y826028D01*
X76000Y826001D01*
X79000Y826001D01*
X79008Y826002D01*
G37*
G36*
X54008Y826002D02*
X54008Y826002D01*
X54017Y826001D01*
X54105Y826022D01*
X54195Y826040D01*
X54202Y826045D01*
X54210Y826047D01*
X54283Y826101D01*
X54359Y826153D01*
X54363Y826160D01*
X54370Y826165D01*
X54417Y826243D01*
X54466Y826320D01*
X54467Y826329D01*
X54472Y826336D01*
X54499Y826500D01*
X54499Y838500D01*
X54498Y838508D01*
X54499Y838517D01*
X54478Y838605D01*
X54460Y838695D01*
X54455Y838702D01*
X54453Y838710D01*
X54399Y838783D01*
X54347Y838859D01*
X54340Y838863D01*
X54335Y838870D01*
X54257Y838917D01*
X54180Y838966D01*
X54171Y838967D01*
X54164Y838972D01*
X54000Y838999D01*
X51000Y838999D01*
X50992Y838998D01*
X50983Y838999D01*
X50895Y838978D01*
X50805Y838960D01*
X50798Y838955D01*
X50790Y838953D01*
X50717Y838899D01*
X50641Y838847D01*
X50637Y838840D01*
X50630Y838835D01*
X50583Y838757D01*
X50534Y838680D01*
X50533Y838671D01*
X50528Y838664D01*
X50501Y838500D01*
X50501Y826500D01*
X50502Y826492D01*
X50501Y826483D01*
X50522Y826395D01*
X50540Y826305D01*
X50545Y826298D01*
X50547Y826290D01*
X50601Y826217D01*
X50653Y826141D01*
X50660Y826137D01*
X50665Y826130D01*
X50743Y826083D01*
X50820Y826034D01*
X50829Y826033D01*
X50836Y826028D01*
X51000Y826001D01*
X54000Y826001D01*
X54008Y826002D01*
G37*
G36*
X104008Y826002D02*
X104008Y826002D01*
X104017Y826001D01*
X104105Y826022D01*
X104195Y826040D01*
X104202Y826045D01*
X104210Y826047D01*
X104283Y826101D01*
X104359Y826153D01*
X104363Y826160D01*
X104370Y826165D01*
X104417Y826243D01*
X104466Y826320D01*
X104467Y826329D01*
X104472Y826336D01*
X104499Y826500D01*
X104499Y838500D01*
X104498Y838508D01*
X104499Y838517D01*
X104478Y838605D01*
X104460Y838695D01*
X104455Y838702D01*
X104453Y838710D01*
X104399Y838783D01*
X104347Y838859D01*
X104340Y838863D01*
X104335Y838870D01*
X104257Y838917D01*
X104180Y838966D01*
X104171Y838967D01*
X104164Y838972D01*
X104000Y838999D01*
X101000Y838999D01*
X100992Y838998D01*
X100983Y838999D01*
X100895Y838978D01*
X100805Y838960D01*
X100798Y838955D01*
X100790Y838953D01*
X100717Y838899D01*
X100641Y838847D01*
X100637Y838840D01*
X100630Y838835D01*
X100583Y838757D01*
X100534Y838680D01*
X100533Y838671D01*
X100528Y838664D01*
X100501Y838500D01*
X100501Y826500D01*
X100502Y826492D01*
X100501Y826483D01*
X100522Y826395D01*
X100540Y826305D01*
X100545Y826298D01*
X100547Y826290D01*
X100601Y826217D01*
X100653Y826141D01*
X100660Y826137D01*
X100665Y826130D01*
X100743Y826083D01*
X100820Y826034D01*
X100829Y826033D01*
X100836Y826028D01*
X101000Y826001D01*
X104000Y826001D01*
X104008Y826002D01*
G37*
G36*
X114008Y826002D02*
X114008Y826002D01*
X114017Y826001D01*
X114105Y826022D01*
X114195Y826040D01*
X114202Y826045D01*
X114210Y826047D01*
X114283Y826101D01*
X114359Y826153D01*
X114363Y826160D01*
X114370Y826165D01*
X114417Y826243D01*
X114466Y826320D01*
X114467Y826329D01*
X114472Y826336D01*
X114499Y826500D01*
X114499Y838500D01*
X114498Y838508D01*
X114499Y838517D01*
X114478Y838605D01*
X114460Y838695D01*
X114455Y838702D01*
X114453Y838710D01*
X114399Y838783D01*
X114347Y838859D01*
X114340Y838863D01*
X114335Y838870D01*
X114257Y838917D01*
X114180Y838966D01*
X114171Y838967D01*
X114164Y838972D01*
X114000Y838999D01*
X111000Y838999D01*
X110992Y838998D01*
X110983Y838999D01*
X110895Y838978D01*
X110805Y838960D01*
X110798Y838955D01*
X110790Y838953D01*
X110717Y838899D01*
X110641Y838847D01*
X110637Y838840D01*
X110630Y838835D01*
X110583Y838757D01*
X110534Y838680D01*
X110533Y838671D01*
X110528Y838664D01*
X110501Y838500D01*
X110501Y826500D01*
X110502Y826492D01*
X110501Y826483D01*
X110522Y826395D01*
X110540Y826305D01*
X110545Y826298D01*
X110547Y826290D01*
X110601Y826217D01*
X110653Y826141D01*
X110660Y826137D01*
X110665Y826130D01*
X110743Y826083D01*
X110820Y826034D01*
X110829Y826033D01*
X110836Y826028D01*
X111000Y826001D01*
X114000Y826001D01*
X114008Y826002D01*
G37*
G36*
X89008Y826002D02*
X89008Y826002D01*
X89017Y826001D01*
X89105Y826022D01*
X89195Y826040D01*
X89202Y826045D01*
X89210Y826047D01*
X89283Y826101D01*
X89359Y826153D01*
X89363Y826160D01*
X89370Y826165D01*
X89417Y826243D01*
X89466Y826320D01*
X89467Y826329D01*
X89472Y826336D01*
X89499Y826500D01*
X89499Y838500D01*
X89498Y838508D01*
X89499Y838517D01*
X89478Y838605D01*
X89460Y838695D01*
X89455Y838702D01*
X89453Y838710D01*
X89399Y838783D01*
X89347Y838859D01*
X89340Y838863D01*
X89335Y838870D01*
X89257Y838917D01*
X89180Y838966D01*
X89171Y838967D01*
X89164Y838972D01*
X89000Y838999D01*
X86000Y838999D01*
X85992Y838998D01*
X85983Y838999D01*
X85895Y838978D01*
X85805Y838960D01*
X85798Y838955D01*
X85790Y838953D01*
X85717Y838899D01*
X85641Y838847D01*
X85637Y838840D01*
X85630Y838835D01*
X85583Y838757D01*
X85534Y838680D01*
X85533Y838671D01*
X85528Y838664D01*
X85501Y838500D01*
X85501Y826500D01*
X85502Y826492D01*
X85501Y826483D01*
X85522Y826395D01*
X85540Y826305D01*
X85545Y826298D01*
X85547Y826290D01*
X85601Y826217D01*
X85653Y826141D01*
X85660Y826137D01*
X85665Y826130D01*
X85743Y826083D01*
X85820Y826034D01*
X85829Y826033D01*
X85836Y826028D01*
X86000Y826001D01*
X89000Y826001D01*
X89008Y826002D01*
G37*
G36*
X94008Y826002D02*
X94008Y826002D01*
X94017Y826001D01*
X94105Y826022D01*
X94195Y826040D01*
X94202Y826045D01*
X94210Y826047D01*
X94283Y826101D01*
X94359Y826153D01*
X94363Y826160D01*
X94370Y826165D01*
X94417Y826243D01*
X94466Y826320D01*
X94467Y826329D01*
X94472Y826336D01*
X94499Y826500D01*
X94499Y838500D01*
X94498Y838508D01*
X94499Y838517D01*
X94478Y838605D01*
X94460Y838695D01*
X94455Y838702D01*
X94453Y838710D01*
X94399Y838783D01*
X94347Y838859D01*
X94340Y838863D01*
X94335Y838870D01*
X94257Y838917D01*
X94180Y838966D01*
X94171Y838967D01*
X94164Y838972D01*
X94000Y838999D01*
X91000Y838999D01*
X90992Y838998D01*
X90983Y838999D01*
X90895Y838978D01*
X90805Y838960D01*
X90798Y838955D01*
X90790Y838953D01*
X90717Y838899D01*
X90641Y838847D01*
X90637Y838840D01*
X90630Y838835D01*
X90583Y838757D01*
X90534Y838680D01*
X90533Y838671D01*
X90528Y838664D01*
X90501Y838500D01*
X90501Y826500D01*
X90502Y826492D01*
X90501Y826483D01*
X90522Y826395D01*
X90540Y826305D01*
X90545Y826298D01*
X90547Y826290D01*
X90601Y826217D01*
X90653Y826141D01*
X90660Y826137D01*
X90665Y826130D01*
X90743Y826083D01*
X90820Y826034D01*
X90829Y826033D01*
X90836Y826028D01*
X91000Y826001D01*
X94000Y826001D01*
X94008Y826002D01*
G37*
G36*
X64008Y826002D02*
X64008Y826002D01*
X64017Y826001D01*
X64105Y826022D01*
X64195Y826040D01*
X64202Y826045D01*
X64210Y826047D01*
X64283Y826101D01*
X64359Y826153D01*
X64363Y826160D01*
X64370Y826165D01*
X64417Y826243D01*
X64466Y826320D01*
X64467Y826329D01*
X64472Y826336D01*
X64499Y826500D01*
X64499Y838500D01*
X64498Y838508D01*
X64499Y838517D01*
X64478Y838605D01*
X64460Y838695D01*
X64455Y838702D01*
X64453Y838710D01*
X64399Y838783D01*
X64347Y838859D01*
X64340Y838863D01*
X64335Y838870D01*
X64257Y838917D01*
X64180Y838966D01*
X64171Y838967D01*
X64164Y838972D01*
X64000Y838999D01*
X61000Y838999D01*
X60992Y838998D01*
X60983Y838999D01*
X60895Y838978D01*
X60805Y838960D01*
X60798Y838955D01*
X60790Y838953D01*
X60717Y838899D01*
X60641Y838847D01*
X60637Y838840D01*
X60630Y838835D01*
X60583Y838757D01*
X60534Y838680D01*
X60533Y838671D01*
X60528Y838664D01*
X60501Y838500D01*
X60501Y826500D01*
X60502Y826492D01*
X60501Y826483D01*
X60522Y826395D01*
X60540Y826305D01*
X60545Y826298D01*
X60547Y826290D01*
X60601Y826217D01*
X60653Y826141D01*
X60660Y826137D01*
X60665Y826130D01*
X60743Y826083D01*
X60820Y826034D01*
X60829Y826033D01*
X60836Y826028D01*
X61000Y826001D01*
X64000Y826001D01*
X64008Y826002D01*
G37*
G36*
X59008Y826002D02*
X59008Y826002D01*
X59017Y826001D01*
X59105Y826022D01*
X59195Y826040D01*
X59202Y826045D01*
X59210Y826047D01*
X59283Y826101D01*
X59359Y826153D01*
X59363Y826160D01*
X59370Y826165D01*
X59417Y826243D01*
X59466Y826320D01*
X59467Y826329D01*
X59472Y826336D01*
X59499Y826500D01*
X59499Y838500D01*
X59498Y838508D01*
X59499Y838517D01*
X59478Y838605D01*
X59460Y838695D01*
X59455Y838702D01*
X59453Y838710D01*
X59399Y838783D01*
X59347Y838859D01*
X59340Y838863D01*
X59335Y838870D01*
X59257Y838917D01*
X59180Y838966D01*
X59171Y838967D01*
X59164Y838972D01*
X59000Y838999D01*
X56000Y838999D01*
X55992Y838998D01*
X55983Y838999D01*
X55895Y838978D01*
X55805Y838960D01*
X55798Y838955D01*
X55790Y838953D01*
X55717Y838899D01*
X55641Y838847D01*
X55637Y838840D01*
X55630Y838835D01*
X55583Y838757D01*
X55534Y838680D01*
X55533Y838671D01*
X55528Y838664D01*
X55501Y838500D01*
X55501Y826500D01*
X55502Y826492D01*
X55501Y826483D01*
X55522Y826395D01*
X55540Y826305D01*
X55545Y826298D01*
X55547Y826290D01*
X55601Y826217D01*
X55653Y826141D01*
X55660Y826137D01*
X55665Y826130D01*
X55743Y826083D01*
X55820Y826034D01*
X55829Y826033D01*
X55836Y826028D01*
X56000Y826001D01*
X59000Y826001D01*
X59008Y826002D01*
G37*
G36*
X39008Y826002D02*
X39008Y826002D01*
X39017Y826001D01*
X39105Y826022D01*
X39195Y826040D01*
X39202Y826045D01*
X39210Y826047D01*
X39283Y826101D01*
X39359Y826153D01*
X39363Y826160D01*
X39370Y826165D01*
X39417Y826243D01*
X39466Y826320D01*
X39467Y826329D01*
X39472Y826336D01*
X39499Y826500D01*
X39499Y838500D01*
X39498Y838508D01*
X39499Y838517D01*
X39478Y838605D01*
X39460Y838695D01*
X39455Y838702D01*
X39453Y838710D01*
X39399Y838783D01*
X39347Y838859D01*
X39340Y838863D01*
X39335Y838870D01*
X39257Y838917D01*
X39180Y838966D01*
X39171Y838967D01*
X39164Y838972D01*
X39000Y838999D01*
X36000Y838999D01*
X35992Y838998D01*
X35983Y838999D01*
X35895Y838978D01*
X35805Y838960D01*
X35798Y838955D01*
X35790Y838953D01*
X35717Y838899D01*
X35641Y838847D01*
X35637Y838840D01*
X35630Y838835D01*
X35583Y838757D01*
X35534Y838680D01*
X35533Y838671D01*
X35528Y838664D01*
X35501Y838500D01*
X35501Y826500D01*
X35502Y826492D01*
X35501Y826483D01*
X35522Y826395D01*
X35540Y826305D01*
X35545Y826298D01*
X35547Y826290D01*
X35601Y826217D01*
X35653Y826141D01*
X35660Y826137D01*
X35665Y826130D01*
X35743Y826083D01*
X35820Y826034D01*
X35829Y826033D01*
X35836Y826028D01*
X36000Y826001D01*
X39000Y826001D01*
X39008Y826002D01*
G37*
G36*
X44008Y826002D02*
X44008Y826002D01*
X44017Y826001D01*
X44105Y826022D01*
X44195Y826040D01*
X44202Y826045D01*
X44210Y826047D01*
X44283Y826101D01*
X44359Y826153D01*
X44363Y826160D01*
X44370Y826165D01*
X44417Y826243D01*
X44466Y826320D01*
X44467Y826329D01*
X44472Y826336D01*
X44499Y826500D01*
X44499Y838500D01*
X44498Y838508D01*
X44499Y838517D01*
X44478Y838605D01*
X44460Y838695D01*
X44455Y838702D01*
X44453Y838710D01*
X44399Y838783D01*
X44347Y838859D01*
X44340Y838863D01*
X44335Y838870D01*
X44257Y838917D01*
X44180Y838966D01*
X44171Y838967D01*
X44164Y838972D01*
X44000Y838999D01*
X41000Y838999D01*
X40992Y838998D01*
X40983Y838999D01*
X40895Y838978D01*
X40805Y838960D01*
X40798Y838955D01*
X40790Y838953D01*
X40717Y838899D01*
X40641Y838847D01*
X40637Y838840D01*
X40630Y838835D01*
X40583Y838757D01*
X40534Y838680D01*
X40533Y838671D01*
X40528Y838664D01*
X40501Y838500D01*
X40501Y826500D01*
X40502Y826492D01*
X40501Y826483D01*
X40522Y826395D01*
X40540Y826305D01*
X40545Y826298D01*
X40547Y826290D01*
X40601Y826217D01*
X40653Y826141D01*
X40660Y826137D01*
X40665Y826130D01*
X40743Y826083D01*
X40820Y826034D01*
X40829Y826033D01*
X40836Y826028D01*
X41000Y826001D01*
X44000Y826001D01*
X44008Y826002D01*
G37*
G36*
X69008Y826002D02*
X69008Y826002D01*
X69017Y826001D01*
X69105Y826022D01*
X69195Y826040D01*
X69202Y826045D01*
X69210Y826047D01*
X69283Y826101D01*
X69359Y826153D01*
X69363Y826160D01*
X69370Y826165D01*
X69417Y826243D01*
X69466Y826320D01*
X69467Y826329D01*
X69472Y826336D01*
X69499Y826500D01*
X69499Y838500D01*
X69498Y838508D01*
X69499Y838517D01*
X69478Y838605D01*
X69460Y838695D01*
X69455Y838702D01*
X69453Y838710D01*
X69399Y838783D01*
X69347Y838859D01*
X69340Y838863D01*
X69335Y838870D01*
X69257Y838917D01*
X69180Y838966D01*
X69171Y838967D01*
X69164Y838972D01*
X69000Y838999D01*
X66000Y838999D01*
X65992Y838998D01*
X65983Y838999D01*
X65895Y838978D01*
X65805Y838960D01*
X65798Y838955D01*
X65790Y838953D01*
X65717Y838899D01*
X65641Y838847D01*
X65637Y838840D01*
X65630Y838835D01*
X65583Y838757D01*
X65534Y838680D01*
X65533Y838671D01*
X65528Y838664D01*
X65501Y838500D01*
X65501Y826500D01*
X65502Y826492D01*
X65501Y826483D01*
X65522Y826395D01*
X65540Y826305D01*
X65545Y826298D01*
X65547Y826290D01*
X65601Y826217D01*
X65653Y826141D01*
X65660Y826137D01*
X65665Y826130D01*
X65743Y826083D01*
X65820Y826034D01*
X65829Y826033D01*
X65836Y826028D01*
X66000Y826001D01*
X69000Y826001D01*
X69008Y826002D01*
G37*
G36*
X109008Y711002D02*
X109008Y711002D01*
X109017Y711001D01*
X109105Y711022D01*
X109195Y711040D01*
X109202Y711045D01*
X109210Y711047D01*
X109283Y711101D01*
X109359Y711153D01*
X109363Y711160D01*
X109370Y711165D01*
X109417Y711243D01*
X109466Y711320D01*
X109467Y711329D01*
X109472Y711336D01*
X109499Y711500D01*
X109499Y723500D01*
X109498Y723508D01*
X109499Y723517D01*
X109478Y723605D01*
X109460Y723695D01*
X109455Y723702D01*
X109453Y723710D01*
X109399Y723783D01*
X109347Y723859D01*
X109340Y723863D01*
X109335Y723870D01*
X109257Y723917D01*
X109180Y723966D01*
X109171Y723967D01*
X109164Y723972D01*
X109000Y723999D01*
X106000Y723999D01*
X105992Y723998D01*
X105983Y723999D01*
X105895Y723978D01*
X105805Y723960D01*
X105798Y723955D01*
X105790Y723953D01*
X105717Y723899D01*
X105641Y723847D01*
X105637Y723840D01*
X105630Y723835D01*
X105583Y723757D01*
X105534Y723680D01*
X105533Y723671D01*
X105528Y723664D01*
X105501Y723500D01*
X105501Y711500D01*
X105502Y711492D01*
X105501Y711483D01*
X105522Y711395D01*
X105540Y711305D01*
X105545Y711298D01*
X105547Y711290D01*
X105601Y711217D01*
X105653Y711141D01*
X105660Y711137D01*
X105665Y711130D01*
X105743Y711083D01*
X105820Y711034D01*
X105829Y711033D01*
X105836Y711028D01*
X106000Y711001D01*
X109000Y711001D01*
X109008Y711002D01*
G37*
G36*
X49008Y826002D02*
X49008Y826002D01*
X49017Y826001D01*
X49105Y826022D01*
X49195Y826040D01*
X49202Y826045D01*
X49210Y826047D01*
X49283Y826101D01*
X49359Y826153D01*
X49363Y826160D01*
X49370Y826165D01*
X49417Y826243D01*
X49466Y826320D01*
X49467Y826329D01*
X49472Y826336D01*
X49499Y826500D01*
X49499Y838500D01*
X49498Y838508D01*
X49499Y838517D01*
X49478Y838605D01*
X49460Y838695D01*
X49455Y838702D01*
X49453Y838710D01*
X49399Y838783D01*
X49347Y838859D01*
X49340Y838863D01*
X49335Y838870D01*
X49257Y838917D01*
X49180Y838966D01*
X49171Y838967D01*
X49164Y838972D01*
X49000Y838999D01*
X46000Y838999D01*
X45992Y838998D01*
X45983Y838999D01*
X45895Y838978D01*
X45805Y838960D01*
X45798Y838955D01*
X45790Y838953D01*
X45717Y838899D01*
X45641Y838847D01*
X45637Y838840D01*
X45630Y838835D01*
X45583Y838757D01*
X45534Y838680D01*
X45533Y838671D01*
X45528Y838664D01*
X45501Y838500D01*
X45501Y826500D01*
X45502Y826492D01*
X45501Y826483D01*
X45522Y826395D01*
X45540Y826305D01*
X45545Y826298D01*
X45547Y826290D01*
X45601Y826217D01*
X45653Y826141D01*
X45660Y826137D01*
X45665Y826130D01*
X45743Y826083D01*
X45820Y826034D01*
X45829Y826033D01*
X45836Y826028D01*
X46000Y826001D01*
X49000Y826001D01*
X49008Y826002D01*
G37*
G36*
X84008Y711002D02*
X84008Y711002D01*
X84017Y711001D01*
X84105Y711022D01*
X84195Y711040D01*
X84202Y711045D01*
X84210Y711047D01*
X84283Y711101D01*
X84359Y711153D01*
X84363Y711160D01*
X84370Y711165D01*
X84417Y711243D01*
X84466Y711320D01*
X84467Y711329D01*
X84472Y711336D01*
X84499Y711500D01*
X84499Y723500D01*
X84498Y723508D01*
X84499Y723517D01*
X84478Y723605D01*
X84460Y723695D01*
X84455Y723702D01*
X84453Y723710D01*
X84399Y723783D01*
X84347Y723859D01*
X84340Y723863D01*
X84335Y723870D01*
X84257Y723917D01*
X84180Y723966D01*
X84171Y723967D01*
X84164Y723972D01*
X84000Y723999D01*
X81000Y723999D01*
X80992Y723998D01*
X80983Y723999D01*
X80895Y723978D01*
X80805Y723960D01*
X80798Y723955D01*
X80790Y723953D01*
X80717Y723899D01*
X80641Y723847D01*
X80637Y723840D01*
X80630Y723835D01*
X80583Y723757D01*
X80534Y723680D01*
X80533Y723671D01*
X80528Y723664D01*
X80501Y723500D01*
X80501Y711500D01*
X80502Y711492D01*
X80501Y711483D01*
X80522Y711395D01*
X80540Y711305D01*
X80545Y711298D01*
X80547Y711290D01*
X80601Y711217D01*
X80653Y711141D01*
X80660Y711137D01*
X80665Y711130D01*
X80743Y711083D01*
X80820Y711034D01*
X80829Y711033D01*
X80836Y711028D01*
X81000Y711001D01*
X84000Y711001D01*
X84008Y711002D01*
G37*
G36*
X114008Y711002D02*
X114008Y711002D01*
X114017Y711001D01*
X114105Y711022D01*
X114195Y711040D01*
X114202Y711045D01*
X114210Y711047D01*
X114283Y711101D01*
X114359Y711153D01*
X114363Y711160D01*
X114370Y711165D01*
X114417Y711243D01*
X114466Y711320D01*
X114467Y711329D01*
X114472Y711336D01*
X114499Y711500D01*
X114499Y723500D01*
X114498Y723508D01*
X114499Y723517D01*
X114478Y723605D01*
X114460Y723695D01*
X114455Y723702D01*
X114453Y723710D01*
X114399Y723783D01*
X114347Y723859D01*
X114340Y723863D01*
X114335Y723870D01*
X114257Y723917D01*
X114180Y723966D01*
X114171Y723967D01*
X114164Y723972D01*
X114000Y723999D01*
X111000Y723999D01*
X110992Y723998D01*
X110983Y723999D01*
X110895Y723978D01*
X110805Y723960D01*
X110798Y723955D01*
X110790Y723953D01*
X110717Y723899D01*
X110641Y723847D01*
X110637Y723840D01*
X110630Y723835D01*
X110583Y723757D01*
X110534Y723680D01*
X110533Y723671D01*
X110528Y723664D01*
X110501Y723500D01*
X110501Y711500D01*
X110502Y711492D01*
X110501Y711483D01*
X110522Y711395D01*
X110540Y711305D01*
X110545Y711298D01*
X110547Y711290D01*
X110601Y711217D01*
X110653Y711141D01*
X110660Y711137D01*
X110665Y711130D01*
X110743Y711083D01*
X110820Y711034D01*
X110829Y711033D01*
X110836Y711028D01*
X111000Y711001D01*
X114000Y711001D01*
X114008Y711002D01*
G37*
G36*
X74008Y711002D02*
X74008Y711002D01*
X74017Y711001D01*
X74105Y711022D01*
X74195Y711040D01*
X74202Y711045D01*
X74210Y711047D01*
X74283Y711101D01*
X74359Y711153D01*
X74363Y711160D01*
X74370Y711165D01*
X74417Y711243D01*
X74466Y711320D01*
X74467Y711329D01*
X74472Y711336D01*
X74499Y711500D01*
X74499Y723500D01*
X74498Y723508D01*
X74499Y723517D01*
X74478Y723605D01*
X74460Y723695D01*
X74455Y723702D01*
X74453Y723710D01*
X74399Y723783D01*
X74347Y723859D01*
X74340Y723863D01*
X74335Y723870D01*
X74257Y723917D01*
X74180Y723966D01*
X74171Y723967D01*
X74164Y723972D01*
X74000Y723999D01*
X71000Y723999D01*
X70992Y723998D01*
X70983Y723999D01*
X70895Y723978D01*
X70805Y723960D01*
X70798Y723955D01*
X70790Y723953D01*
X70717Y723899D01*
X70641Y723847D01*
X70637Y723840D01*
X70630Y723835D01*
X70583Y723757D01*
X70534Y723680D01*
X70533Y723671D01*
X70528Y723664D01*
X70501Y723500D01*
X70501Y711500D01*
X70502Y711492D01*
X70501Y711483D01*
X70522Y711395D01*
X70540Y711305D01*
X70545Y711298D01*
X70547Y711290D01*
X70601Y711217D01*
X70653Y711141D01*
X70660Y711137D01*
X70665Y711130D01*
X70743Y711083D01*
X70820Y711034D01*
X70829Y711033D01*
X70836Y711028D01*
X71000Y711001D01*
X74000Y711001D01*
X74008Y711002D01*
G37*
G36*
X94008Y711002D02*
X94008Y711002D01*
X94017Y711001D01*
X94105Y711022D01*
X94195Y711040D01*
X94202Y711045D01*
X94210Y711047D01*
X94283Y711101D01*
X94359Y711153D01*
X94363Y711160D01*
X94370Y711165D01*
X94417Y711243D01*
X94466Y711320D01*
X94467Y711329D01*
X94472Y711336D01*
X94499Y711500D01*
X94499Y723500D01*
X94498Y723508D01*
X94499Y723517D01*
X94478Y723605D01*
X94460Y723695D01*
X94455Y723702D01*
X94453Y723710D01*
X94399Y723783D01*
X94347Y723859D01*
X94340Y723863D01*
X94335Y723870D01*
X94257Y723917D01*
X94180Y723966D01*
X94171Y723967D01*
X94164Y723972D01*
X94000Y723999D01*
X91000Y723999D01*
X90992Y723998D01*
X90983Y723999D01*
X90895Y723978D01*
X90805Y723960D01*
X90798Y723955D01*
X90790Y723953D01*
X90717Y723899D01*
X90641Y723847D01*
X90637Y723840D01*
X90630Y723835D01*
X90583Y723757D01*
X90534Y723680D01*
X90533Y723671D01*
X90528Y723664D01*
X90501Y723500D01*
X90501Y711500D01*
X90502Y711492D01*
X90501Y711483D01*
X90522Y711395D01*
X90540Y711305D01*
X90545Y711298D01*
X90547Y711290D01*
X90601Y711217D01*
X90653Y711141D01*
X90660Y711137D01*
X90665Y711130D01*
X90743Y711083D01*
X90820Y711034D01*
X90829Y711033D01*
X90836Y711028D01*
X91000Y711001D01*
X94000Y711001D01*
X94008Y711002D01*
G37*
G36*
X54008Y711002D02*
X54008Y711002D01*
X54017Y711001D01*
X54105Y711022D01*
X54195Y711040D01*
X54202Y711045D01*
X54210Y711047D01*
X54283Y711101D01*
X54359Y711153D01*
X54363Y711160D01*
X54370Y711165D01*
X54417Y711243D01*
X54466Y711320D01*
X54467Y711329D01*
X54472Y711336D01*
X54499Y711500D01*
X54499Y723500D01*
X54498Y723508D01*
X54499Y723517D01*
X54478Y723605D01*
X54460Y723695D01*
X54455Y723702D01*
X54453Y723710D01*
X54399Y723783D01*
X54347Y723859D01*
X54340Y723863D01*
X54335Y723870D01*
X54257Y723917D01*
X54180Y723966D01*
X54171Y723967D01*
X54164Y723972D01*
X54000Y723999D01*
X51000Y723999D01*
X50992Y723998D01*
X50983Y723999D01*
X50895Y723978D01*
X50805Y723960D01*
X50798Y723955D01*
X50790Y723953D01*
X50717Y723899D01*
X50641Y723847D01*
X50637Y723840D01*
X50630Y723835D01*
X50583Y723757D01*
X50534Y723680D01*
X50533Y723671D01*
X50528Y723664D01*
X50501Y723500D01*
X50501Y711500D01*
X50502Y711492D01*
X50501Y711483D01*
X50522Y711395D01*
X50540Y711305D01*
X50545Y711298D01*
X50547Y711290D01*
X50601Y711217D01*
X50653Y711141D01*
X50660Y711137D01*
X50665Y711130D01*
X50743Y711083D01*
X50820Y711034D01*
X50829Y711033D01*
X50836Y711028D01*
X51000Y711001D01*
X54000Y711001D01*
X54008Y711002D01*
G37*
G36*
X99008Y711002D02*
X99008Y711002D01*
X99017Y711001D01*
X99105Y711022D01*
X99195Y711040D01*
X99202Y711045D01*
X99210Y711047D01*
X99283Y711101D01*
X99359Y711153D01*
X99363Y711160D01*
X99370Y711165D01*
X99417Y711243D01*
X99466Y711320D01*
X99467Y711329D01*
X99472Y711336D01*
X99499Y711500D01*
X99499Y723500D01*
X99498Y723508D01*
X99499Y723517D01*
X99478Y723605D01*
X99460Y723695D01*
X99455Y723702D01*
X99453Y723710D01*
X99399Y723783D01*
X99347Y723859D01*
X99340Y723863D01*
X99335Y723870D01*
X99257Y723917D01*
X99180Y723966D01*
X99171Y723967D01*
X99164Y723972D01*
X99000Y723999D01*
X96000Y723999D01*
X95992Y723998D01*
X95983Y723999D01*
X95895Y723978D01*
X95805Y723960D01*
X95798Y723955D01*
X95790Y723953D01*
X95717Y723899D01*
X95641Y723847D01*
X95637Y723840D01*
X95630Y723835D01*
X95583Y723757D01*
X95534Y723680D01*
X95533Y723671D01*
X95528Y723664D01*
X95501Y723500D01*
X95501Y711500D01*
X95502Y711492D01*
X95501Y711483D01*
X95522Y711395D01*
X95540Y711305D01*
X95545Y711298D01*
X95547Y711290D01*
X95601Y711217D01*
X95653Y711141D01*
X95660Y711137D01*
X95665Y711130D01*
X95743Y711083D01*
X95820Y711034D01*
X95829Y711033D01*
X95836Y711028D01*
X96000Y711001D01*
X99000Y711001D01*
X99008Y711002D01*
G37*
G36*
X39008Y711002D02*
X39008Y711002D01*
X39017Y711001D01*
X39105Y711022D01*
X39195Y711040D01*
X39202Y711045D01*
X39210Y711047D01*
X39283Y711101D01*
X39359Y711153D01*
X39363Y711160D01*
X39370Y711165D01*
X39417Y711243D01*
X39466Y711320D01*
X39467Y711329D01*
X39472Y711336D01*
X39499Y711500D01*
X39499Y723500D01*
X39498Y723508D01*
X39499Y723517D01*
X39478Y723605D01*
X39460Y723695D01*
X39455Y723702D01*
X39453Y723710D01*
X39399Y723783D01*
X39347Y723859D01*
X39340Y723863D01*
X39335Y723870D01*
X39257Y723917D01*
X39180Y723966D01*
X39171Y723967D01*
X39164Y723972D01*
X39000Y723999D01*
X36000Y723999D01*
X35992Y723998D01*
X35983Y723999D01*
X35895Y723978D01*
X35805Y723960D01*
X35798Y723955D01*
X35790Y723953D01*
X35717Y723899D01*
X35641Y723847D01*
X35637Y723840D01*
X35630Y723835D01*
X35583Y723757D01*
X35534Y723680D01*
X35533Y723671D01*
X35528Y723664D01*
X35501Y723500D01*
X35501Y711500D01*
X35502Y711492D01*
X35501Y711483D01*
X35522Y711395D01*
X35540Y711305D01*
X35545Y711298D01*
X35547Y711290D01*
X35601Y711217D01*
X35653Y711141D01*
X35660Y711137D01*
X35665Y711130D01*
X35743Y711083D01*
X35820Y711034D01*
X35829Y711033D01*
X35836Y711028D01*
X36000Y711001D01*
X39000Y711001D01*
X39008Y711002D01*
G37*
G36*
X104008Y711002D02*
X104008Y711002D01*
X104017Y711001D01*
X104105Y711022D01*
X104195Y711040D01*
X104202Y711045D01*
X104210Y711047D01*
X104283Y711101D01*
X104359Y711153D01*
X104363Y711160D01*
X104370Y711165D01*
X104417Y711243D01*
X104466Y711320D01*
X104467Y711329D01*
X104472Y711336D01*
X104499Y711500D01*
X104499Y723500D01*
X104498Y723508D01*
X104499Y723517D01*
X104478Y723605D01*
X104460Y723695D01*
X104455Y723702D01*
X104453Y723710D01*
X104399Y723783D01*
X104347Y723859D01*
X104340Y723863D01*
X104335Y723870D01*
X104257Y723917D01*
X104180Y723966D01*
X104171Y723967D01*
X104164Y723972D01*
X104000Y723999D01*
X101000Y723999D01*
X100992Y723998D01*
X100983Y723999D01*
X100895Y723978D01*
X100805Y723960D01*
X100798Y723955D01*
X100790Y723953D01*
X100717Y723899D01*
X100641Y723847D01*
X100637Y723840D01*
X100630Y723835D01*
X100583Y723757D01*
X100534Y723680D01*
X100533Y723671D01*
X100528Y723664D01*
X100501Y723500D01*
X100501Y711500D01*
X100502Y711492D01*
X100501Y711483D01*
X100522Y711395D01*
X100540Y711305D01*
X100545Y711298D01*
X100547Y711290D01*
X100601Y711217D01*
X100653Y711141D01*
X100660Y711137D01*
X100665Y711130D01*
X100743Y711083D01*
X100820Y711034D01*
X100829Y711033D01*
X100836Y711028D01*
X101000Y711001D01*
X104000Y711001D01*
X104008Y711002D01*
G37*
G36*
X64008Y711002D02*
X64008Y711002D01*
X64017Y711001D01*
X64105Y711022D01*
X64195Y711040D01*
X64202Y711045D01*
X64210Y711047D01*
X64283Y711101D01*
X64359Y711153D01*
X64363Y711160D01*
X64370Y711165D01*
X64417Y711243D01*
X64466Y711320D01*
X64467Y711329D01*
X64472Y711336D01*
X64499Y711500D01*
X64499Y723500D01*
X64498Y723508D01*
X64499Y723517D01*
X64478Y723605D01*
X64460Y723695D01*
X64455Y723702D01*
X64453Y723710D01*
X64399Y723783D01*
X64347Y723859D01*
X64340Y723863D01*
X64335Y723870D01*
X64257Y723917D01*
X64180Y723966D01*
X64171Y723967D01*
X64164Y723972D01*
X64000Y723999D01*
X61000Y723999D01*
X60992Y723998D01*
X60983Y723999D01*
X60895Y723978D01*
X60805Y723960D01*
X60798Y723955D01*
X60790Y723953D01*
X60717Y723899D01*
X60641Y723847D01*
X60637Y723840D01*
X60630Y723835D01*
X60583Y723757D01*
X60534Y723680D01*
X60533Y723671D01*
X60528Y723664D01*
X60501Y723500D01*
X60501Y711500D01*
X60502Y711492D01*
X60501Y711483D01*
X60522Y711395D01*
X60540Y711305D01*
X60545Y711298D01*
X60547Y711290D01*
X60601Y711217D01*
X60653Y711141D01*
X60660Y711137D01*
X60665Y711130D01*
X60743Y711083D01*
X60820Y711034D01*
X60829Y711033D01*
X60836Y711028D01*
X61000Y711001D01*
X64000Y711001D01*
X64008Y711002D01*
G37*
G36*
X79008Y711002D02*
X79008Y711002D01*
X79017Y711001D01*
X79105Y711022D01*
X79195Y711040D01*
X79202Y711045D01*
X79210Y711047D01*
X79283Y711101D01*
X79359Y711153D01*
X79363Y711160D01*
X79370Y711165D01*
X79417Y711243D01*
X79466Y711320D01*
X79467Y711329D01*
X79472Y711336D01*
X79499Y711500D01*
X79499Y723500D01*
X79498Y723508D01*
X79499Y723517D01*
X79478Y723605D01*
X79460Y723695D01*
X79455Y723702D01*
X79453Y723710D01*
X79399Y723783D01*
X79347Y723859D01*
X79340Y723863D01*
X79335Y723870D01*
X79257Y723917D01*
X79180Y723966D01*
X79171Y723967D01*
X79164Y723972D01*
X79000Y723999D01*
X76000Y723999D01*
X75992Y723998D01*
X75983Y723999D01*
X75895Y723978D01*
X75805Y723960D01*
X75798Y723955D01*
X75790Y723953D01*
X75717Y723899D01*
X75641Y723847D01*
X75637Y723840D01*
X75630Y723835D01*
X75583Y723757D01*
X75534Y723680D01*
X75533Y723671D01*
X75528Y723664D01*
X75501Y723500D01*
X75501Y711500D01*
X75502Y711492D01*
X75501Y711483D01*
X75522Y711395D01*
X75540Y711305D01*
X75545Y711298D01*
X75547Y711290D01*
X75601Y711217D01*
X75653Y711141D01*
X75660Y711137D01*
X75665Y711130D01*
X75743Y711083D01*
X75820Y711034D01*
X75829Y711033D01*
X75836Y711028D01*
X76000Y711001D01*
X79000Y711001D01*
X79008Y711002D01*
G37*
G36*
X44008Y711002D02*
X44008Y711002D01*
X44017Y711001D01*
X44105Y711022D01*
X44195Y711040D01*
X44202Y711045D01*
X44210Y711047D01*
X44283Y711101D01*
X44359Y711153D01*
X44363Y711160D01*
X44370Y711165D01*
X44417Y711243D01*
X44466Y711320D01*
X44467Y711329D01*
X44472Y711336D01*
X44499Y711500D01*
X44499Y723500D01*
X44498Y723508D01*
X44499Y723517D01*
X44478Y723605D01*
X44460Y723695D01*
X44455Y723702D01*
X44453Y723710D01*
X44399Y723783D01*
X44347Y723859D01*
X44340Y723863D01*
X44335Y723870D01*
X44257Y723917D01*
X44180Y723966D01*
X44171Y723967D01*
X44164Y723972D01*
X44000Y723999D01*
X41000Y723999D01*
X40992Y723998D01*
X40983Y723999D01*
X40895Y723978D01*
X40805Y723960D01*
X40798Y723955D01*
X40790Y723953D01*
X40717Y723899D01*
X40641Y723847D01*
X40637Y723840D01*
X40630Y723835D01*
X40583Y723757D01*
X40534Y723680D01*
X40533Y723671D01*
X40528Y723664D01*
X40501Y723500D01*
X40501Y711500D01*
X40502Y711492D01*
X40501Y711483D01*
X40522Y711395D01*
X40540Y711305D01*
X40545Y711298D01*
X40547Y711290D01*
X40601Y711217D01*
X40653Y711141D01*
X40660Y711137D01*
X40665Y711130D01*
X40743Y711083D01*
X40820Y711034D01*
X40829Y711033D01*
X40836Y711028D01*
X41000Y711001D01*
X44000Y711001D01*
X44008Y711002D01*
G37*
G36*
X69008Y711002D02*
X69008Y711002D01*
X69017Y711001D01*
X69105Y711022D01*
X69195Y711040D01*
X69202Y711045D01*
X69210Y711047D01*
X69283Y711101D01*
X69359Y711153D01*
X69363Y711160D01*
X69370Y711165D01*
X69417Y711243D01*
X69466Y711320D01*
X69467Y711329D01*
X69472Y711336D01*
X69499Y711500D01*
X69499Y723500D01*
X69498Y723508D01*
X69499Y723517D01*
X69478Y723605D01*
X69460Y723695D01*
X69455Y723702D01*
X69453Y723710D01*
X69399Y723783D01*
X69347Y723859D01*
X69340Y723863D01*
X69335Y723870D01*
X69257Y723917D01*
X69180Y723966D01*
X69171Y723967D01*
X69164Y723972D01*
X69000Y723999D01*
X66000Y723999D01*
X65992Y723998D01*
X65983Y723999D01*
X65895Y723978D01*
X65805Y723960D01*
X65798Y723955D01*
X65790Y723953D01*
X65717Y723899D01*
X65641Y723847D01*
X65637Y723840D01*
X65630Y723835D01*
X65583Y723757D01*
X65534Y723680D01*
X65533Y723671D01*
X65528Y723664D01*
X65501Y723500D01*
X65501Y711500D01*
X65502Y711492D01*
X65501Y711483D01*
X65522Y711395D01*
X65540Y711305D01*
X65545Y711298D01*
X65547Y711290D01*
X65601Y711217D01*
X65653Y711141D01*
X65660Y711137D01*
X65665Y711130D01*
X65743Y711083D01*
X65820Y711034D01*
X65829Y711033D01*
X65836Y711028D01*
X66000Y711001D01*
X69000Y711001D01*
X69008Y711002D01*
G37*
G36*
X49008Y711002D02*
X49008Y711002D01*
X49017Y711001D01*
X49105Y711022D01*
X49195Y711040D01*
X49202Y711045D01*
X49210Y711047D01*
X49283Y711101D01*
X49359Y711153D01*
X49363Y711160D01*
X49370Y711165D01*
X49417Y711243D01*
X49466Y711320D01*
X49467Y711329D01*
X49472Y711336D01*
X49499Y711500D01*
X49499Y723500D01*
X49498Y723508D01*
X49499Y723517D01*
X49478Y723605D01*
X49460Y723695D01*
X49455Y723702D01*
X49453Y723710D01*
X49399Y723783D01*
X49347Y723859D01*
X49340Y723863D01*
X49335Y723870D01*
X49257Y723917D01*
X49180Y723966D01*
X49171Y723967D01*
X49164Y723972D01*
X49000Y723999D01*
X46000Y723999D01*
X45992Y723998D01*
X45983Y723999D01*
X45895Y723978D01*
X45805Y723960D01*
X45798Y723955D01*
X45790Y723953D01*
X45717Y723899D01*
X45641Y723847D01*
X45637Y723840D01*
X45630Y723835D01*
X45583Y723757D01*
X45534Y723680D01*
X45533Y723671D01*
X45528Y723664D01*
X45501Y723500D01*
X45501Y711500D01*
X45502Y711492D01*
X45501Y711483D01*
X45522Y711395D01*
X45540Y711305D01*
X45545Y711298D01*
X45547Y711290D01*
X45601Y711217D01*
X45653Y711141D01*
X45660Y711137D01*
X45665Y711130D01*
X45743Y711083D01*
X45820Y711034D01*
X45829Y711033D01*
X45836Y711028D01*
X46000Y711001D01*
X49000Y711001D01*
X49008Y711002D01*
G37*
G36*
X59008Y711002D02*
X59008Y711002D01*
X59017Y711001D01*
X59105Y711022D01*
X59195Y711040D01*
X59202Y711045D01*
X59210Y711047D01*
X59283Y711101D01*
X59359Y711153D01*
X59363Y711160D01*
X59370Y711165D01*
X59417Y711243D01*
X59466Y711320D01*
X59467Y711329D01*
X59472Y711336D01*
X59499Y711500D01*
X59499Y723500D01*
X59498Y723508D01*
X59499Y723517D01*
X59478Y723605D01*
X59460Y723695D01*
X59455Y723702D01*
X59453Y723710D01*
X59399Y723783D01*
X59347Y723859D01*
X59340Y723863D01*
X59335Y723870D01*
X59257Y723917D01*
X59180Y723966D01*
X59171Y723967D01*
X59164Y723972D01*
X59000Y723999D01*
X56000Y723999D01*
X55992Y723998D01*
X55983Y723999D01*
X55895Y723978D01*
X55805Y723960D01*
X55798Y723955D01*
X55790Y723953D01*
X55717Y723899D01*
X55641Y723847D01*
X55637Y723840D01*
X55630Y723835D01*
X55583Y723757D01*
X55534Y723680D01*
X55533Y723671D01*
X55528Y723664D01*
X55501Y723500D01*
X55501Y711500D01*
X55502Y711492D01*
X55501Y711483D01*
X55522Y711395D01*
X55540Y711305D01*
X55545Y711298D01*
X55547Y711290D01*
X55601Y711217D01*
X55653Y711141D01*
X55660Y711137D01*
X55665Y711130D01*
X55743Y711083D01*
X55820Y711034D01*
X55829Y711033D01*
X55836Y711028D01*
X56000Y711001D01*
X59000Y711001D01*
X59008Y711002D01*
G37*
G36*
X84008Y826002D02*
X84008Y826002D01*
X84017Y826001D01*
X84105Y826022D01*
X84195Y826040D01*
X84202Y826045D01*
X84210Y826047D01*
X84283Y826101D01*
X84359Y826153D01*
X84363Y826160D01*
X84370Y826165D01*
X84417Y826243D01*
X84466Y826320D01*
X84467Y826329D01*
X84472Y826336D01*
X84499Y826500D01*
X84499Y838500D01*
X84498Y838508D01*
X84499Y838517D01*
X84478Y838605D01*
X84460Y838695D01*
X84455Y838702D01*
X84453Y838710D01*
X84399Y838783D01*
X84347Y838859D01*
X84340Y838863D01*
X84335Y838870D01*
X84257Y838917D01*
X84180Y838966D01*
X84171Y838967D01*
X84164Y838972D01*
X84000Y838999D01*
X81000Y838999D01*
X80992Y838998D01*
X80983Y838999D01*
X80895Y838978D01*
X80805Y838960D01*
X80798Y838955D01*
X80790Y838953D01*
X80717Y838899D01*
X80641Y838847D01*
X80637Y838840D01*
X80630Y838835D01*
X80583Y838757D01*
X80534Y838680D01*
X80533Y838671D01*
X80528Y838664D01*
X80501Y838500D01*
X80501Y826500D01*
X80502Y826492D01*
X80501Y826483D01*
X80522Y826395D01*
X80540Y826305D01*
X80545Y826298D01*
X80547Y826290D01*
X80601Y826217D01*
X80653Y826141D01*
X80660Y826137D01*
X80665Y826130D01*
X80743Y826083D01*
X80820Y826034D01*
X80829Y826033D01*
X80836Y826028D01*
X81000Y826001D01*
X84000Y826001D01*
X84008Y826002D01*
G37*
G36*
X89008Y711002D02*
X89008Y711002D01*
X89017Y711001D01*
X89105Y711022D01*
X89195Y711040D01*
X89202Y711045D01*
X89210Y711047D01*
X89283Y711101D01*
X89359Y711153D01*
X89363Y711160D01*
X89370Y711165D01*
X89417Y711243D01*
X89466Y711320D01*
X89467Y711329D01*
X89472Y711336D01*
X89499Y711500D01*
X89499Y723500D01*
X89498Y723508D01*
X89499Y723517D01*
X89478Y723605D01*
X89460Y723695D01*
X89455Y723702D01*
X89453Y723710D01*
X89399Y723783D01*
X89347Y723859D01*
X89340Y723863D01*
X89335Y723870D01*
X89257Y723917D01*
X89180Y723966D01*
X89171Y723967D01*
X89164Y723972D01*
X89000Y723999D01*
X86000Y723999D01*
X85992Y723998D01*
X85983Y723999D01*
X85895Y723978D01*
X85805Y723960D01*
X85798Y723955D01*
X85790Y723953D01*
X85717Y723899D01*
X85641Y723847D01*
X85637Y723840D01*
X85630Y723835D01*
X85583Y723757D01*
X85534Y723680D01*
X85533Y723671D01*
X85528Y723664D01*
X85501Y723500D01*
X85501Y711500D01*
X85502Y711492D01*
X85501Y711483D01*
X85522Y711395D01*
X85540Y711305D01*
X85545Y711298D01*
X85547Y711290D01*
X85601Y711217D01*
X85653Y711141D01*
X85660Y711137D01*
X85665Y711130D01*
X85743Y711083D01*
X85820Y711034D01*
X85829Y711033D01*
X85836Y711028D01*
X86000Y711001D01*
X89000Y711001D01*
X89008Y711002D01*
G37*
D10*
X369900Y750100D03*
X369900Y769100D03*
D11*
X392500Y750000D03*
X392500Y760000D03*
D12*
X397500Y580000D03*
X387500Y580000D03*
D10*
X390000Y532500D03*
X390000Y513500D03*
X277500Y542500D03*
X277500Y523500D03*
D11*
X302500Y542500D03*
X302500Y532500D03*
D10*
X277500Y467500D03*
X277500Y486500D03*
D11*
X325000Y453500D03*
X325000Y443500D03*
D10*
X363500Y193900D03*
X363500Y212900D03*
D11*
X386800Y193900D03*
X386800Y203900D03*
D13*
X301000Y282500D03*
X320000Y282500D03*
D12*
X300000Y260000D03*
X310000Y260000D03*
D13*
X405600Y285000D03*
X424600Y285000D03*
X269500Y282500D03*
X250500Y282500D03*
D12*
X285000Y260000D03*
X275000Y260000D03*
D13*
X340500Y115000D03*
X359500Y115000D03*
D12*
X405600Y262500D03*
X415600Y262500D03*
X335000Y165000D03*
X345000Y165000D03*
D13*
X340500Y142500D03*
X359500Y142500D03*
D11*
X407500Y853300D03*
X407500Y843300D03*
D14*
X427500Y807500D03*
X410500Y807500D03*
D15*
X390000Y853500D03*
X390000Y836500D03*
D12*
X427500Y825000D03*
X417500Y825000D03*
X427500Y870000D03*
X437500Y870000D03*
D14*
X427500Y890000D03*
X444500Y890000D03*
D15*
X252500Y434000D03*
X252500Y451000D03*
D10*
X62500Y859000D03*
X62500Y878000D03*
X96500Y694500D03*
X96500Y675500D03*
D13*
X43500Y684000D03*
X24500Y684000D03*
X118000Y685500D03*
X137000Y685500D03*
D10*
X167500Y829500D03*
X167500Y810500D03*
D13*
X20500Y866000D03*
X39500Y866000D03*
D12*
X50000Y699500D03*
X40000Y699500D03*
X117500Y701000D03*
X127500Y701000D03*
D11*
X150000Y815000D03*
X150000Y805000D03*
D12*
X35000Y850500D03*
X45000Y850500D03*
D11*
X-260000Y505000D03*
X-260000Y495000D03*
D15*
X-16000Y746500D03*
X-16000Y763500D03*
D11*
X-500Y750000D03*
X-500Y760000D03*
D13*
X-162000Y722400D03*
X-181000Y722400D03*
D12*
X-166500Y740000D03*
X-176500Y740000D03*
D11*
X-327500Y862900D03*
X-327500Y872900D03*
X-342500Y862900D03*
X-342500Y872900D03*
D14*
X-312500Y962600D03*
X-295500Y962600D03*
D12*
X-312500Y942800D03*
X-302500Y942800D03*
D13*
X380500Y890000D03*
X399500Y890000D03*
D12*
X385000Y907500D03*
X395000Y907500D03*
D13*
X-350000Y1010000D03*
X-331000Y1010000D03*
D12*
X-350000Y1032500D03*
X-340000Y1032500D03*
X-342000Y1085000D03*
X-352000Y1085000D03*
D16*
X275500Y622500D03*
X254500Y622500D03*
D17*
X369750Y637500D03*
X338250Y637500D03*
D18*
X230000Y468750D03*
X230000Y500250D03*
D19*
X300000Y237000D03*
X295000Y237000D03*
X290000Y237000D03*
X285000Y237000D03*
X280000Y237000D03*
X280000Y193000D03*
X285000Y193000D03*
X290000Y193000D03*
X295000Y193000D03*
X300000Y193000D03*
D20*
X-387500Y872400D03*
X-387500Y862900D03*
X-387500Y853400D03*
X-362500Y853400D03*
X-362500Y862900D03*
X-362500Y872400D03*
D21*
X231475Y951641D03*
X-213025Y1154841D03*
D22*
X-292380Y487300D02*
X-307620Y487300D01*
X-307620Y512700D02*
X-292380Y512700D01*
X-292380Y574600D02*
X-307620Y574600D01*
X-307620Y600000D02*
X-292380Y600000D01*
X-292380Y625400D02*
X-307620Y625400D01*
D23*
X269250Y140000D03*
X310750Y140000D03*
D24*
X371000Y605000D03*
X349000Y595500D03*
X349000Y614500D03*
D12*
X357500Y695000D03*
X367500Y695000D03*
X357500Y790000D03*
X367500Y790000D03*
D11*
X450667Y619504D03*
X450667Y629504D03*
D12*
X227500Y622500D03*
X237500Y622500D03*
X387500Y555000D03*
X397500Y555000D03*
X325500Y614500D03*
X315500Y614500D03*
X325500Y577500D03*
X315500Y577500D03*
X350000Y577500D03*
X340000Y577500D03*
D11*
X277500Y447500D03*
X277500Y437500D03*
D12*
X300000Y467500D03*
X310000Y467500D03*
X428500Y174300D03*
X418500Y174300D03*
X247500Y200000D03*
X257500Y200000D03*
X257500Y237500D03*
X247500Y237500D03*
X418500Y159300D03*
X408500Y159300D03*
X-265000Y600000D03*
X-255000Y600000D03*
D11*
X232500Y444000D03*
X232500Y434000D03*
D12*
X-367500Y237400D03*
X-357500Y237400D03*
X-367500Y161100D03*
X-357500Y161100D03*
X-367500Y135700D03*
X-357500Y135700D03*
D11*
X252500Y407500D03*
X252500Y397500D03*
D12*
X295000Y367500D03*
X305000Y367500D03*
X-335000Y775400D03*
X-345000Y775400D03*
D11*
X-331000Y1058000D03*
X-331000Y1048000D03*
D25*
X425000Y468000D03*
X425000Y377000D03*
X380000Y468000D03*
X380000Y377000D03*
X-172500Y504500D03*
X-172500Y595500D03*
X-127500Y504500D03*
X-127500Y595500D03*
X-172500Y354500D03*
X-172500Y445500D03*
X-127500Y354500D03*
X-127500Y445500D03*
X-172500Y204500D03*
X-172500Y295500D03*
X-127500Y204500D03*
X-127500Y295500D03*
X-172500Y54500D03*
X-172500Y145500D03*
X-127500Y54500D03*
X-127500Y145500D03*
X-22500Y504500D03*
X-22500Y595500D03*
X22500Y504500D03*
X22500Y595500D03*
X-22500Y354500D03*
X-22500Y445500D03*
X22500Y354500D03*
X22500Y445500D03*
X-22500Y204500D03*
X-22500Y295500D03*
X22500Y204500D03*
X22500Y295500D03*
X-22500Y54500D03*
X-22500Y145500D03*
X22500Y54500D03*
X22500Y145500D03*
X127500Y504500D03*
X127500Y595500D03*
X172500Y504500D03*
X172500Y595500D03*
X127500Y354500D03*
X127500Y445500D03*
X172500Y354500D03*
X172500Y445500D03*
X127500Y204500D03*
X127500Y295500D03*
X172500Y204500D03*
X172500Y295500D03*
X127500Y54500D03*
X127500Y145500D03*
X172500Y54500D03*
X172500Y145500D03*
D26*
X-312700Y364300D03*
D27*
X-287300Y364300D03*
X-312700Y338900D03*
X-287300Y338900D03*
X-312700Y313500D03*
X-287300Y313500D03*
X-312700Y288100D03*
X-287300Y288100D03*
X-312700Y262700D03*
X-287300Y262700D03*
X-312700Y237300D03*
X-287300Y237300D03*
X-312700Y211900D03*
X-287300Y211900D03*
X-312700Y186500D03*
X-287300Y186500D03*
X-312700Y161100D03*
X-287300Y161100D03*
X-312700Y135700D03*
X-287300Y135700D03*
D28*
X407350Y187300D02*
X407350Y200600D01*
X407350Y187300D02*
X403750Y187300D01*
X403750Y200600D01*
X407350Y200600D01*
X407350Y188440D02*
X403750Y188440D01*
X403750Y189580D02*
X407350Y189580D01*
X407350Y190720D02*
X403750Y190720D01*
X403750Y191860D02*
X407350Y191860D01*
X407350Y193000D02*
X403750Y193000D01*
X403750Y194140D02*
X407350Y194140D01*
X407350Y195280D02*
X403750Y195280D01*
X403750Y196420D02*
X407350Y196420D01*
X407350Y197560D02*
X403750Y197560D01*
X403750Y198700D02*
X407350Y198700D01*
X407350Y199840D02*
X403750Y199840D01*
X413850Y200600D02*
X413850Y187300D01*
X410250Y187300D01*
X410250Y200600D01*
X413850Y200600D01*
X413850Y188440D02*
X410250Y188440D01*
X410250Y189580D02*
X413850Y189580D01*
X413850Y190720D02*
X410250Y190720D01*
X410250Y191860D02*
X413850Y191860D01*
X413850Y193000D02*
X410250Y193000D01*
X410250Y194140D02*
X413850Y194140D01*
X413850Y195280D02*
X410250Y195280D01*
X410250Y196420D02*
X413850Y196420D01*
X413850Y197560D02*
X410250Y197560D01*
X410250Y198700D02*
X413850Y198700D01*
X413850Y199840D02*
X410250Y199840D01*
X420350Y200600D02*
X420350Y187300D01*
X416750Y187300D01*
X416750Y200600D01*
X420350Y200600D01*
X420350Y188440D02*
X416750Y188440D01*
X416750Y189580D02*
X420350Y189580D01*
X420350Y190720D02*
X416750Y190720D01*
X416750Y191860D02*
X420350Y191860D01*
X420350Y193000D02*
X416750Y193000D01*
X416750Y194140D02*
X420350Y194140D01*
X420350Y195280D02*
X416750Y195280D01*
X416750Y196420D02*
X420350Y196420D01*
X420350Y197560D02*
X416750Y197560D01*
X416750Y198700D02*
X420350Y198700D01*
X420350Y199840D02*
X416750Y199840D01*
X426850Y200600D02*
X426850Y187300D01*
X423250Y187300D01*
X423250Y200600D01*
X426850Y200600D01*
X426850Y188440D02*
X423250Y188440D01*
X423250Y189580D02*
X426850Y189580D01*
X426850Y190720D02*
X423250Y190720D01*
X423250Y191860D02*
X426850Y191860D01*
X426850Y193000D02*
X423250Y193000D01*
X423250Y194140D02*
X426850Y194140D01*
X426850Y195280D02*
X423250Y195280D01*
X423250Y196420D02*
X426850Y196420D01*
X426850Y197560D02*
X423250Y197560D01*
X423250Y198700D02*
X426850Y198700D01*
X426850Y199840D02*
X423250Y199840D01*
X426850Y230000D02*
X426850Y243300D01*
X426850Y230000D02*
X423250Y230000D01*
X423250Y243300D01*
X426850Y243300D01*
X426850Y231140D02*
X423250Y231140D01*
X423250Y232280D02*
X426850Y232280D01*
X426850Y233420D02*
X423250Y233420D01*
X423250Y234560D02*
X426850Y234560D01*
X426850Y235700D02*
X423250Y235700D01*
X423250Y236840D02*
X426850Y236840D01*
X426850Y237980D02*
X423250Y237980D01*
X423250Y239120D02*
X426850Y239120D01*
X426850Y240260D02*
X423250Y240260D01*
X423250Y241400D02*
X426850Y241400D01*
X426850Y242540D02*
X423250Y242540D01*
X420350Y243300D02*
X420350Y230000D01*
X416750Y230000D01*
X416750Y243300D01*
X420350Y243300D01*
X420350Y231140D02*
X416750Y231140D01*
X416750Y232280D02*
X420350Y232280D01*
X420350Y233420D02*
X416750Y233420D01*
X416750Y234560D02*
X420350Y234560D01*
X420350Y235700D02*
X416750Y235700D01*
X416750Y236840D02*
X420350Y236840D01*
X420350Y237980D02*
X416750Y237980D01*
X416750Y239120D02*
X420350Y239120D01*
X420350Y240260D02*
X416750Y240260D01*
X416750Y241400D02*
X420350Y241400D01*
X420350Y242540D02*
X416750Y242540D01*
X413850Y243300D02*
X413850Y230000D01*
X410250Y230000D01*
X410250Y243300D01*
X413850Y243300D01*
X413850Y231140D02*
X410250Y231140D01*
X410250Y232280D02*
X413850Y232280D01*
X413850Y233420D02*
X410250Y233420D01*
X410250Y234560D02*
X413850Y234560D01*
X413850Y235700D02*
X410250Y235700D01*
X410250Y236840D02*
X413850Y236840D01*
X413850Y237980D02*
X410250Y237980D01*
X410250Y239120D02*
X413850Y239120D01*
X413850Y240260D02*
X410250Y240260D01*
X410250Y241400D02*
X413850Y241400D01*
X413850Y242540D02*
X410250Y242540D01*
X407350Y243300D02*
X407350Y230000D01*
X403750Y230000D01*
X403750Y243300D01*
X407350Y243300D01*
X407350Y231140D02*
X403750Y231140D01*
X403750Y232280D02*
X407350Y232280D01*
X407350Y233420D02*
X403750Y233420D01*
X403750Y234560D02*
X407350Y234560D01*
X407350Y235700D02*
X403750Y235700D01*
X403750Y236840D02*
X407350Y236840D01*
X407350Y237980D02*
X403750Y237980D01*
X403750Y239120D02*
X407350Y239120D01*
X407350Y240260D02*
X403750Y240260D01*
X403750Y241400D02*
X407350Y241400D01*
X407350Y242540D02*
X403750Y242540D01*
D29*
X415300Y215300D03*
D30*
X300000Y407500D03*
X309500Y387500D03*
X290500Y387500D03*
D11*
X447500Y851700D03*
X447500Y841700D03*
D31*
X422500Y842250D03*
D32*
X427500Y841750D03*
X432500Y841750D03*
X432500Y853250D03*
X427500Y853250D03*
X422500Y853250D03*
D22*
X419880Y532600D02*
X435120Y532600D01*
X435120Y558000D02*
X419880Y558000D01*
X419880Y583400D02*
X435120Y583400D01*
D33*
X310000Y453500D03*
X305000Y453500D03*
X300000Y453500D03*
X295000Y453500D03*
X295000Y436500D03*
X300000Y436500D03*
X305000Y436500D03*
X310000Y436500D03*
D34*
X311396Y450096D02*
X293604Y450096D01*
X311396Y450096D02*
X311396Y439904D01*
X293604Y439904D01*
X293604Y450096D01*
X293604Y440102D02*
X311396Y440102D01*
X311396Y440300D02*
X293604Y440300D01*
X293604Y440498D02*
X311396Y440498D01*
X311396Y440696D02*
X293604Y440696D01*
X293604Y440894D02*
X311396Y440894D01*
X311396Y441092D02*
X293604Y441092D01*
X293604Y441290D02*
X311396Y441290D01*
X311396Y441488D02*
X293604Y441488D01*
X293604Y441686D02*
X311396Y441686D01*
X311396Y441884D02*
X293604Y441884D01*
X293604Y442082D02*
X311396Y442082D01*
X311396Y442280D02*
X293604Y442280D01*
X293604Y442478D02*
X311396Y442478D01*
X311396Y442676D02*
X293604Y442676D01*
X293604Y442874D02*
X311396Y442874D01*
X311396Y443072D02*
X293604Y443072D01*
X293604Y443270D02*
X311396Y443270D01*
X311396Y443468D02*
X293604Y443468D01*
X293604Y443666D02*
X311396Y443666D01*
X311396Y443864D02*
X293604Y443864D01*
X293604Y444062D02*
X311396Y444062D01*
X311396Y444260D02*
X293604Y444260D01*
X293604Y444458D02*
X311396Y444458D01*
X311396Y444656D02*
X293604Y444656D01*
X293604Y444854D02*
X311396Y444854D01*
X311396Y445052D02*
X293604Y445052D01*
X293604Y445250D02*
X311396Y445250D01*
X311396Y445448D02*
X293604Y445448D01*
X293604Y445646D02*
X311396Y445646D01*
X311396Y445844D02*
X293604Y445844D01*
X293604Y446042D02*
X311396Y446042D01*
X311396Y446240D02*
X293604Y446240D01*
X293604Y446438D02*
X311396Y446438D01*
X311396Y446636D02*
X293604Y446636D01*
X293604Y446834D02*
X311396Y446834D01*
X311396Y447032D02*
X293604Y447032D01*
X293604Y447230D02*
X311396Y447230D01*
X311396Y447428D02*
X293604Y447428D01*
X293604Y447626D02*
X311396Y447626D01*
X311396Y447824D02*
X293604Y447824D01*
X293604Y448022D02*
X311396Y448022D01*
X311396Y448220D02*
X293604Y448220D01*
X293604Y448418D02*
X311396Y448418D01*
X311396Y448616D02*
X293604Y448616D01*
X293604Y448814D02*
X311396Y448814D01*
X311396Y449012D02*
X293604Y449012D01*
X293604Y449210D02*
X311396Y449210D01*
X311396Y449408D02*
X293604Y449408D01*
X293604Y449606D02*
X311396Y449606D01*
X311396Y449804D02*
X293604Y449804D01*
X293604Y450002D02*
X311396Y450002D01*
D22*
X320280Y686100D02*
X335520Y686100D01*
X335520Y660700D02*
X320280Y660700D01*
D13*
X325500Y512500D03*
X306500Y512500D03*
X325500Y487464D03*
X306500Y487464D03*
D12*
X257500Y220000D03*
X247500Y220000D03*
X-357500Y364300D03*
X-367500Y364300D03*
D35*
X-117500Y675000D03*
X-22500Y675000D03*
D14*
X-103500Y640000D03*
X-86500Y640000D03*
X-31500Y640000D03*
X-48500Y640000D03*
D23*
X-345950Y925000D03*
X-387450Y925000D03*
D36*
X-36687Y842550D03*
X-36687Y852050D03*
X-36687Y861550D03*
X-61687Y861550D03*
X-61687Y842550D03*
D37*
X354500Y547500D03*
D38*
X340000Y547500D03*
D37*
X354500Y542500D03*
X354500Y537500D03*
X354500Y532500D03*
X354500Y552500D03*
X354500Y557500D03*
X354500Y562500D03*
X325500Y562500D03*
X325500Y557500D03*
X325500Y552500D03*
X325500Y547500D03*
X325500Y542500D03*
X325500Y537500D03*
X325500Y532500D03*
D39*
X-342500Y1048000D03*
X-342500Y1056000D03*
D40*
X-350500Y1052000D03*
D41*
X428900Y720000D03*
X428900Y715000D03*
X428900Y710000D03*
X428900Y705000D03*
X428900Y700000D03*
X428900Y695000D03*
X428900Y725000D03*
X428900Y730000D03*
X428900Y735000D03*
X428900Y740000D03*
X428900Y745000D03*
X428900Y750000D03*
X414900Y752500D03*
X414900Y747500D03*
X414900Y742500D03*
X414900Y737500D03*
X414900Y732500D03*
X414900Y727500D03*
X414900Y717500D03*
X414900Y712500D03*
X414900Y707500D03*
X414900Y702500D03*
X414900Y697500D03*
X414900Y692500D03*
D42*
X428900Y689500D03*
X428900Y755500D03*
D43*
X382500Y713000D03*
X382500Y722500D03*
X382500Y732000D03*
X357500Y732000D03*
X357500Y722500D03*
X357500Y713000D03*
D44*
X-350160Y734252D03*
X-350160Y714948D03*
X-329840Y724600D03*
D12*
X-335000Y812500D03*
X-345000Y812500D03*
D11*
X-372500Y724300D03*
X-372500Y734300D03*
D45*
X-124000Y759639D03*
X-129000Y759639D03*
X-134000Y759639D03*
X-139000Y759639D03*
X-144000Y759639D03*
X-149000Y759639D03*
X-154000Y759639D03*
X-159000Y759639D03*
X-164000Y759639D03*
X-169000Y759639D03*
X-174000Y759639D03*
X-179000Y759639D03*
D46*
X-105000Y792139D03*
X-198000Y792139D03*
D12*
X-130000Y722500D03*
X-140000Y722500D03*
D22*
X390400Y330120D02*
X390400Y314880D01*
X365000Y314880D02*
X365000Y330120D01*
X339600Y330120D02*
X339600Y314880D01*
X339600Y55120D02*
X339600Y39880D01*
X365000Y39880D02*
X365000Y55120D01*
X390400Y55120D02*
X390400Y39880D01*
X-292380Y862900D02*
X-307620Y862900D01*
X-307620Y837500D02*
X-292380Y837500D01*
X-292380Y812100D02*
X-307620Y812100D01*
X-307620Y775400D02*
X-292380Y775400D01*
X-292380Y750000D02*
X-307620Y750000D01*
X-307620Y724600D02*
X-292380Y724600D01*
D16*
X275500Y592500D03*
X254500Y592500D03*
D12*
X227500Y592500D03*
X237500Y592500D03*
X-105000Y722500D03*
X-115000Y722500D03*
D11*
X232500Y417500D03*
X232500Y407500D03*
D47*
X390000Y695000D03*
X390000Y790000D03*
X290000Y660000D03*
X354500Y512500D03*
X330000Y412500D03*
X371000Y665000D03*
X452500Y510000D03*
X362500Y853500D03*
X362500Y872500D03*
X429500Y110000D03*
X233000Y373500D03*
X-350000Y752500D03*
X-280500Y900900D03*
X-340500Y686600D03*
X175000Y860000D03*
D48*
X330000Y941500D03*
X335000Y941500D03*
X340000Y941500D03*
X345000Y941500D03*
X350000Y941500D03*
X355000Y941500D03*
X360000Y941500D03*
X365000Y941500D03*
X370000Y941500D03*
X375000Y941500D03*
X380000Y941500D03*
X385000Y941500D03*
X390000Y941500D03*
X395000Y941500D03*
X400000Y941500D03*
X405000Y941500D03*
X410000Y941500D03*
X415000Y941500D03*
X420000Y941500D03*
X425000Y941500D03*
X430000Y941500D03*
X435000Y941500D03*
X440000Y941500D03*
X445000Y941500D03*
D49*
X320000Y966500D03*
X455000Y966500D03*
D47*
X-223000Y675000D03*
D12*
X-372500Y832500D03*
X-362500Y832500D03*
X-312500Y925000D03*
X-322500Y925000D03*
D50*
X-437500Y37500D03*
X437500Y37500D03*
X-437500Y1262500D03*
X437500Y1262500D03*
D11*
X-82000Y852600D03*
X-82000Y842600D03*
X261000Y478000D03*
X261000Y468000D03*
D17*
X-285250Y1048000D03*
X-316750Y1048000D03*
M02*
