G04 EAGLE Gerber RS-274X export*
G75*
%MOMM*%
%FSLAX34Y34*%
%LPD*%
%INSoldermask Bottom*%
%IPPOS*%
%AMOC8*
5,1,8,0,0,1.08239X$1,22.5*%
G01*
%ADD10C,2.150000*%
%ADD11R,1.000000X1.750000*%
%ADD12C,1.524000*%
%ADD13R,1.500000X1.500000*%
%ADD14P,1.623585X8X292.500000*%
%ADD15C,5.334000*%

G36*
X465003Y672753D02*
X465003Y672753D01*
X465005Y672751D01*
X466357Y672893D01*
X466362Y672898D01*
X466367Y672895D01*
X467659Y673315D01*
X467663Y673321D01*
X467668Y673319D01*
X468845Y673999D01*
X468848Y674006D01*
X468854Y674005D01*
X469863Y674914D01*
X469865Y674922D01*
X469870Y674922D01*
X470669Y676021D01*
X470669Y676029D01*
X470674Y676030D01*
X471227Y677271D01*
X471225Y677279D01*
X471230Y677281D01*
X471513Y678610D01*
X471509Y678617D01*
X471514Y678621D01*
X471514Y679979D01*
X471509Y679986D01*
X471513Y679990D01*
X471230Y681319D01*
X471224Y681324D01*
X471227Y681329D01*
X470674Y682570D01*
X470667Y682574D01*
X470669Y682579D01*
X469870Y683678D01*
X469863Y683681D01*
X469863Y683686D01*
X468854Y684595D01*
X468846Y684596D01*
X468845Y684601D01*
X467668Y685281D01*
X467661Y685280D01*
X467659Y685285D01*
X466367Y685705D01*
X466363Y685704D01*
X466359Y685704D01*
X466357Y685707D01*
X465005Y685849D01*
X465002Y685847D01*
X465000Y685849D01*
X455000Y685849D01*
X454997Y685847D01*
X454995Y685849D01*
X453643Y685707D01*
X453640Y685704D01*
X453637Y685704D01*
X453636Y685703D01*
X453633Y685705D01*
X452341Y685285D01*
X452337Y685279D01*
X452332Y685281D01*
X451155Y684601D01*
X451152Y684594D01*
X451146Y684595D01*
X450137Y683686D01*
X450135Y683678D01*
X450130Y683678D01*
X449331Y682579D01*
X449331Y682571D01*
X449326Y682570D01*
X448773Y681329D01*
X448775Y681321D01*
X448770Y681319D01*
X448487Y679990D01*
X448491Y679983D01*
X448486Y679979D01*
X448486Y678621D01*
X448491Y678614D01*
X448487Y678610D01*
X448770Y677281D01*
X448776Y677276D01*
X448773Y677271D01*
X449326Y676030D01*
X449333Y676026D01*
X449331Y676021D01*
X450130Y674922D01*
X450137Y674920D01*
X450137Y674914D01*
X451146Y674005D01*
X451154Y674004D01*
X451155Y673999D01*
X452332Y673319D01*
X452339Y673320D01*
X452341Y673315D01*
X453633Y672895D01*
X453641Y672898D01*
X453643Y672893D01*
X454995Y672751D01*
X454998Y672753D01*
X455000Y672751D01*
X465000Y672751D01*
X465003Y672753D01*
G37*
G36*
X425003Y672753D02*
X425003Y672753D01*
X425005Y672751D01*
X426357Y672893D01*
X426362Y672898D01*
X426367Y672895D01*
X427659Y673315D01*
X427663Y673321D01*
X427668Y673319D01*
X428845Y673999D01*
X428848Y674006D01*
X428854Y674005D01*
X429863Y674914D01*
X429865Y674922D01*
X429870Y674922D01*
X430669Y676021D01*
X430669Y676029D01*
X430674Y676030D01*
X431227Y677271D01*
X431225Y677279D01*
X431230Y677281D01*
X431513Y678610D01*
X431509Y678617D01*
X431514Y678621D01*
X431514Y679979D01*
X431509Y679986D01*
X431513Y679990D01*
X431230Y681319D01*
X431224Y681324D01*
X431227Y681329D01*
X430674Y682570D01*
X430667Y682574D01*
X430669Y682579D01*
X429870Y683678D01*
X429863Y683681D01*
X429863Y683686D01*
X428854Y684595D01*
X428846Y684596D01*
X428845Y684601D01*
X427668Y685281D01*
X427661Y685280D01*
X427659Y685285D01*
X426367Y685705D01*
X426363Y685704D01*
X426359Y685704D01*
X426357Y685707D01*
X425005Y685849D01*
X425002Y685847D01*
X425000Y685849D01*
X415000Y685849D01*
X414997Y685847D01*
X414995Y685849D01*
X413643Y685707D01*
X413640Y685704D01*
X413637Y685704D01*
X413636Y685703D01*
X413633Y685705D01*
X412341Y685285D01*
X412337Y685279D01*
X412332Y685281D01*
X411155Y684601D01*
X411152Y684594D01*
X411146Y684595D01*
X410137Y683686D01*
X410135Y683678D01*
X410130Y683678D01*
X409331Y682579D01*
X409331Y682571D01*
X409326Y682570D01*
X408773Y681329D01*
X408775Y681321D01*
X408770Y681319D01*
X408487Y679990D01*
X408491Y679983D01*
X408486Y679979D01*
X408486Y678621D01*
X408491Y678614D01*
X408487Y678610D01*
X408770Y677281D01*
X408776Y677276D01*
X408773Y677271D01*
X409326Y676030D01*
X409333Y676026D01*
X409331Y676021D01*
X410130Y674922D01*
X410137Y674920D01*
X410137Y674914D01*
X411146Y674005D01*
X411154Y674004D01*
X411155Y673999D01*
X412332Y673319D01*
X412339Y673320D01*
X412341Y673315D01*
X413633Y672895D01*
X413641Y672898D01*
X413643Y672893D01*
X414995Y672751D01*
X414998Y672753D01*
X415000Y672751D01*
X425000Y672751D01*
X425003Y672753D01*
G37*
G36*
X425003Y759153D02*
X425003Y759153D01*
X425005Y759151D01*
X426357Y759293D01*
X426362Y759298D01*
X426367Y759295D01*
X427659Y759715D01*
X427663Y759721D01*
X427668Y759719D01*
X428845Y760399D01*
X428848Y760406D01*
X428854Y760405D01*
X429863Y761314D01*
X429865Y761322D01*
X429870Y761322D01*
X430669Y762421D01*
X430669Y762429D01*
X430674Y762430D01*
X431227Y763671D01*
X431225Y763679D01*
X431230Y763681D01*
X431513Y765010D01*
X431509Y765017D01*
X431514Y765021D01*
X431514Y766379D01*
X431509Y766386D01*
X431513Y766390D01*
X431230Y767719D01*
X431224Y767724D01*
X431227Y767729D01*
X430674Y768970D01*
X430667Y768974D01*
X430669Y768979D01*
X429870Y770078D01*
X429863Y770081D01*
X429863Y770086D01*
X428854Y770995D01*
X428846Y770996D01*
X428845Y771001D01*
X427668Y771681D01*
X427661Y771680D01*
X427659Y771685D01*
X426367Y772105D01*
X426363Y772104D01*
X426359Y772104D01*
X426357Y772107D01*
X425005Y772249D01*
X425002Y772247D01*
X425000Y772249D01*
X415000Y772249D01*
X414997Y772247D01*
X414995Y772249D01*
X413643Y772107D01*
X413640Y772104D01*
X413637Y772104D01*
X413636Y772103D01*
X413633Y772105D01*
X412341Y771685D01*
X412337Y771679D01*
X412332Y771681D01*
X411155Y771001D01*
X411152Y770994D01*
X411146Y770995D01*
X410137Y770086D01*
X410135Y770078D01*
X410130Y770078D01*
X409331Y768979D01*
X409331Y768971D01*
X409326Y768970D01*
X408773Y767729D01*
X408775Y767721D01*
X408770Y767719D01*
X408487Y766390D01*
X408491Y766383D01*
X408486Y766379D01*
X408486Y765021D01*
X408491Y765014D01*
X408487Y765010D01*
X408770Y763681D01*
X408776Y763676D01*
X408773Y763671D01*
X409326Y762430D01*
X409333Y762426D01*
X409331Y762421D01*
X410130Y761322D01*
X410137Y761320D01*
X410137Y761314D01*
X411146Y760405D01*
X411154Y760404D01*
X411155Y760399D01*
X412332Y759719D01*
X412339Y759720D01*
X412341Y759715D01*
X413633Y759295D01*
X413641Y759298D01*
X413643Y759293D01*
X414995Y759151D01*
X414998Y759153D01*
X415000Y759151D01*
X425000Y759151D01*
X425003Y759153D01*
G37*
G36*
X465003Y759153D02*
X465003Y759153D01*
X465005Y759151D01*
X466357Y759293D01*
X466362Y759298D01*
X466367Y759295D01*
X467659Y759715D01*
X467663Y759721D01*
X467668Y759719D01*
X468845Y760399D01*
X468848Y760406D01*
X468854Y760405D01*
X469863Y761314D01*
X469865Y761322D01*
X469870Y761322D01*
X470669Y762421D01*
X470669Y762429D01*
X470674Y762430D01*
X471227Y763671D01*
X471225Y763679D01*
X471230Y763681D01*
X471513Y765010D01*
X471509Y765017D01*
X471514Y765021D01*
X471514Y766379D01*
X471509Y766386D01*
X471513Y766390D01*
X471230Y767719D01*
X471224Y767724D01*
X471227Y767729D01*
X470674Y768970D01*
X470667Y768974D01*
X470669Y768979D01*
X469870Y770078D01*
X469863Y770081D01*
X469863Y770086D01*
X468854Y770995D01*
X468846Y770996D01*
X468845Y771001D01*
X467668Y771681D01*
X467661Y771680D01*
X467659Y771685D01*
X466367Y772105D01*
X466363Y772104D01*
X466359Y772104D01*
X466357Y772107D01*
X465005Y772249D01*
X465002Y772247D01*
X465000Y772249D01*
X455000Y772249D01*
X454997Y772247D01*
X454995Y772249D01*
X453643Y772107D01*
X453640Y772104D01*
X453637Y772104D01*
X453636Y772103D01*
X453633Y772105D01*
X452341Y771685D01*
X452337Y771679D01*
X452332Y771681D01*
X451155Y771001D01*
X451152Y770994D01*
X451146Y770995D01*
X450137Y770086D01*
X450135Y770078D01*
X450130Y770078D01*
X449331Y768979D01*
X449331Y768971D01*
X449326Y768970D01*
X448773Y767729D01*
X448775Y767721D01*
X448770Y767719D01*
X448487Y766390D01*
X448491Y766383D01*
X448486Y766379D01*
X448486Y765021D01*
X448491Y765014D01*
X448487Y765010D01*
X448770Y763681D01*
X448776Y763676D01*
X448773Y763671D01*
X449326Y762430D01*
X449333Y762426D01*
X449331Y762421D01*
X450130Y761322D01*
X450137Y761320D01*
X450137Y761314D01*
X451146Y760405D01*
X451154Y760404D01*
X451155Y760399D01*
X452332Y759719D01*
X452339Y759720D01*
X452341Y759715D01*
X453633Y759295D01*
X453641Y759298D01*
X453643Y759293D01*
X454995Y759151D01*
X454998Y759153D01*
X455000Y759151D01*
X465000Y759151D01*
X465003Y759153D01*
G37*
D10*
X231475Y951641D03*
X-213025Y1154841D03*
D11*
X90575Y925041D03*
X65175Y925041D03*
X39775Y925041D03*
X15575Y925041D03*
X91775Y1181441D03*
X66375Y1181441D03*
X40975Y1181441D03*
X15575Y1181441D03*
X-35225Y1108141D03*
X-60625Y1108141D03*
D12*
X-292380Y487300D02*
X-307620Y487300D01*
X-307620Y512700D02*
X-292380Y512700D01*
X-292380Y574600D02*
X-307620Y574600D01*
X-307620Y600000D02*
X-292380Y600000D01*
X-292380Y625400D02*
X-307620Y625400D01*
D13*
X-312700Y364300D03*
D14*
X-287300Y364300D03*
X-312700Y338900D03*
X-287300Y338900D03*
X-312700Y313500D03*
X-287300Y313500D03*
X-312700Y288100D03*
X-287300Y288100D03*
X-312700Y262700D03*
X-287300Y262700D03*
X-312700Y237300D03*
X-287300Y237300D03*
X-312700Y211900D03*
X-287300Y211900D03*
X-312700Y186500D03*
X-287300Y186500D03*
X-312700Y161100D03*
X-287300Y161100D03*
X-312700Y135700D03*
X-287300Y135700D03*
D12*
X419880Y532600D02*
X435120Y532600D01*
X435120Y558000D02*
X419880Y558000D01*
X419880Y583400D02*
X435120Y583400D01*
X335520Y686100D02*
X320280Y686100D01*
X320280Y660700D02*
X335520Y660700D01*
X390400Y330120D02*
X390400Y314880D01*
X365000Y314880D02*
X365000Y330120D01*
X339600Y330120D02*
X339600Y314880D01*
X339600Y55120D02*
X339600Y39880D01*
X365000Y39880D02*
X365000Y55120D01*
X390400Y55120D02*
X390400Y39880D01*
X-292380Y862900D02*
X-307620Y862900D01*
X-307620Y837500D02*
X-292380Y837500D01*
X-292380Y812100D02*
X-307620Y812100D01*
X-307620Y775400D02*
X-292380Y775400D01*
X-292380Y750000D02*
X-307620Y750000D01*
X-307620Y724600D02*
X-292380Y724600D01*
D15*
X-437500Y37500D03*
X437500Y37500D03*
X-437500Y1262500D03*
X437500Y1262500D03*
M02*
