G04 EAGLE Gerber RS-274X export*
G75*
%MOMM*%
%FSLAX34Y34*%
%LPD*%
%INSolderpaste Top*%
%IPPOS*%
%AMOC8*
5,1,8,0,0,1.08239X$1,22.5*%
G01*
%ADD10R,1.500000X1.300000*%
%ADD11R,0.700000X0.600000*%
%ADD12R,0.600000X0.700000*%
%ADD13R,1.300000X1.500000*%
%ADD14R,1.100000X1.000000*%
%ADD15R,1.000000X1.100000*%
%ADD16R,1.100000X1.200000*%
%ADD17R,0.900000X0.950000*%
%ADD18R,0.950000X0.900000*%
%ADD19R,0.300000X1.400000*%
%ADD20R,1.200000X0.600000*%
%ADD21R,2.150000X6.300000*%
%ADD22R,1.400000X1.000000*%
%ADD23R,1.400000X2.100000*%
%ADD24C,0.120000*%
%ADD25R,1.660000X1.725000*%
%ADD26R,0.800000X0.900000*%
%ADD27R,0.280000X0.850078*%
%ADD28R,0.280000X0.750000*%
%ADD29R,0.230000X0.180000*%
%ADD30C,0.020800*%
%ADD31R,5.500000X2.000000*%
%ADD32R,1.200000X0.300000*%
%ADD33R,0.300000X1.200000*%
%ADD34R,1.400000X0.600000*%
%ADD35R,0.700000X0.250000*%
%ADD36R,1.700000X3.300000*%
%ADD37R,0.600000X0.400000*%
%ADD38R,0.600000X0.500000*%
%ADD39R,0.700000X0.300000*%
%ADD40R,0.700000X0.500000*%
%ADD41R,1.100000X0.600000*%
%ADD42R,0.972000X0.802000*%
%ADD43R,0.300000X1.300000*%
%ADD44R,1.800000X2.200000*%
%ADD45R,0.300000X0.800000*%
%ADD46R,0.400000X0.800000*%


D10*
X369900Y750100D03*
X369900Y769100D03*
D11*
X392500Y750000D03*
X392500Y760000D03*
D12*
X397500Y580000D03*
X387500Y580000D03*
D10*
X390000Y532500D03*
X390000Y513500D03*
X277500Y542500D03*
X277500Y523500D03*
D11*
X302500Y542500D03*
X302500Y532500D03*
D10*
X277500Y467500D03*
X277500Y486500D03*
D11*
X325000Y453500D03*
X325000Y443500D03*
D10*
X363500Y193900D03*
X363500Y212900D03*
D11*
X386800Y193900D03*
X386800Y203900D03*
D13*
X301000Y282500D03*
X320000Y282500D03*
D12*
X300000Y260000D03*
X310000Y260000D03*
D13*
X405600Y285000D03*
X424600Y285000D03*
X269500Y282500D03*
X250500Y282500D03*
D12*
X285000Y260000D03*
X275000Y260000D03*
D13*
X340500Y115000D03*
X359500Y115000D03*
D12*
X405600Y262500D03*
X415600Y262500D03*
X335000Y165000D03*
X345000Y165000D03*
D13*
X340500Y142500D03*
X359500Y142500D03*
D11*
X407500Y853300D03*
X407500Y843300D03*
D14*
X427500Y807500D03*
X410500Y807500D03*
D15*
X390000Y853500D03*
X390000Y836500D03*
D12*
X427500Y825000D03*
X417500Y825000D03*
X427500Y870000D03*
X437500Y870000D03*
D14*
X427500Y890000D03*
X444500Y890000D03*
D15*
X252500Y434000D03*
X252500Y451000D03*
D10*
X62500Y859000D03*
X62500Y878000D03*
X96500Y694500D03*
X96500Y675500D03*
D13*
X43500Y684000D03*
X24500Y684000D03*
X118000Y685500D03*
X137000Y685500D03*
D10*
X167500Y829500D03*
X167500Y810500D03*
D13*
X20500Y866000D03*
X39500Y866000D03*
D12*
X50000Y699500D03*
X40000Y699500D03*
X117500Y701000D03*
X127500Y701000D03*
D11*
X150000Y815000D03*
X150000Y805000D03*
D12*
X35000Y850500D03*
X45000Y850500D03*
D11*
X-260000Y505000D03*
X-260000Y495000D03*
D15*
X-16000Y746500D03*
X-16000Y763500D03*
D11*
X-500Y750000D03*
X-500Y760000D03*
D13*
X-162000Y722400D03*
X-181000Y722400D03*
D12*
X-166500Y740000D03*
X-176500Y740000D03*
D11*
X-327500Y862900D03*
X-327500Y872900D03*
X-342500Y862900D03*
X-342500Y872900D03*
D14*
X-312500Y962600D03*
X-295500Y962600D03*
D12*
X-312500Y942800D03*
X-302500Y942800D03*
D13*
X380500Y890000D03*
X399500Y890000D03*
D12*
X385000Y907500D03*
X395000Y907500D03*
D13*
X-350000Y1010000D03*
X-331000Y1010000D03*
D12*
X-350000Y1032500D03*
X-340000Y1032500D03*
X-342000Y1085000D03*
X-352000Y1085000D03*
D16*
X275500Y622500D03*
X254500Y622500D03*
D17*
X369750Y637500D03*
X338250Y637500D03*
D18*
X230000Y468750D03*
X230000Y500250D03*
D19*
X300000Y237000D03*
X295000Y237000D03*
X290000Y237000D03*
X285000Y237000D03*
X280000Y237000D03*
X280000Y193000D03*
X285000Y193000D03*
X290000Y193000D03*
X295000Y193000D03*
X300000Y193000D03*
D20*
X-387500Y872400D03*
X-387500Y862900D03*
X-387500Y853400D03*
X-362500Y853400D03*
X-362500Y862900D03*
X-362500Y872400D03*
D21*
X269250Y140000D03*
X310750Y140000D03*
D22*
X371000Y605000D03*
X349000Y595500D03*
X349000Y614500D03*
D12*
X357500Y695000D03*
X367500Y695000D03*
X357500Y790000D03*
X367500Y790000D03*
D11*
X450667Y619504D03*
X450667Y629504D03*
D12*
X227500Y622500D03*
X237500Y622500D03*
X387500Y555000D03*
X397500Y555000D03*
X325500Y614500D03*
X315500Y614500D03*
X325500Y577500D03*
X315500Y577500D03*
X350000Y577500D03*
X340000Y577500D03*
D11*
X277500Y447500D03*
X277500Y437500D03*
D12*
X300000Y467500D03*
X310000Y467500D03*
X428500Y174300D03*
X418500Y174300D03*
X247500Y200000D03*
X257500Y200000D03*
X257500Y237500D03*
X247500Y237500D03*
X418500Y159300D03*
X408500Y159300D03*
X-265000Y600000D03*
X-255000Y600000D03*
D11*
X232500Y444000D03*
X232500Y434000D03*
D12*
X-367500Y237400D03*
X-357500Y237400D03*
X-367500Y161100D03*
X-357500Y161100D03*
X-367500Y135700D03*
X-357500Y135700D03*
D11*
X252500Y407500D03*
X252500Y397500D03*
D12*
X295000Y367500D03*
X305000Y367500D03*
X-335000Y775400D03*
X-345000Y775400D03*
D11*
X-331000Y1058000D03*
X-331000Y1048000D03*
D23*
X425000Y468000D03*
X425000Y377000D03*
X380000Y468000D03*
X380000Y377000D03*
X-172500Y504500D03*
X-172500Y595500D03*
X-127500Y504500D03*
X-127500Y595500D03*
X-172500Y354500D03*
X-172500Y445500D03*
X-127500Y354500D03*
X-127500Y445500D03*
X-172500Y204500D03*
X-172500Y295500D03*
X-127500Y204500D03*
X-127500Y295500D03*
X-172500Y54500D03*
X-172500Y145500D03*
X-127500Y54500D03*
X-127500Y145500D03*
X-22500Y504500D03*
X-22500Y595500D03*
X22500Y504500D03*
X22500Y595500D03*
X-22500Y354500D03*
X-22500Y445500D03*
X22500Y354500D03*
X22500Y445500D03*
X-22500Y204500D03*
X-22500Y295500D03*
X22500Y204500D03*
X22500Y295500D03*
X-22500Y54500D03*
X-22500Y145500D03*
X22500Y54500D03*
X22500Y145500D03*
X127500Y504500D03*
X127500Y595500D03*
X172500Y504500D03*
X172500Y595500D03*
X127500Y354500D03*
X127500Y445500D03*
X172500Y354500D03*
X172500Y445500D03*
X127500Y204500D03*
X127500Y295500D03*
X172500Y204500D03*
X172500Y295500D03*
X127500Y54500D03*
X127500Y145500D03*
X172500Y54500D03*
X172500Y145500D03*
D24*
X407350Y187300D02*
X407350Y200600D01*
X407350Y187300D02*
X403750Y187300D01*
X403750Y200600D01*
X407350Y200600D01*
X407350Y188440D02*
X403750Y188440D01*
X403750Y189580D02*
X407350Y189580D01*
X407350Y190720D02*
X403750Y190720D01*
X403750Y191860D02*
X407350Y191860D01*
X407350Y193000D02*
X403750Y193000D01*
X403750Y194140D02*
X407350Y194140D01*
X407350Y195280D02*
X403750Y195280D01*
X403750Y196420D02*
X407350Y196420D01*
X407350Y197560D02*
X403750Y197560D01*
X403750Y198700D02*
X407350Y198700D01*
X407350Y199840D02*
X403750Y199840D01*
X413850Y200600D02*
X413850Y187300D01*
X410250Y187300D01*
X410250Y200600D01*
X413850Y200600D01*
X413850Y188440D02*
X410250Y188440D01*
X410250Y189580D02*
X413850Y189580D01*
X413850Y190720D02*
X410250Y190720D01*
X410250Y191860D02*
X413850Y191860D01*
X413850Y193000D02*
X410250Y193000D01*
X410250Y194140D02*
X413850Y194140D01*
X413850Y195280D02*
X410250Y195280D01*
X410250Y196420D02*
X413850Y196420D01*
X413850Y197560D02*
X410250Y197560D01*
X410250Y198700D02*
X413850Y198700D01*
X413850Y199840D02*
X410250Y199840D01*
X420350Y200600D02*
X420350Y187300D01*
X416750Y187300D01*
X416750Y200600D01*
X420350Y200600D01*
X420350Y188440D02*
X416750Y188440D01*
X416750Y189580D02*
X420350Y189580D01*
X420350Y190720D02*
X416750Y190720D01*
X416750Y191860D02*
X420350Y191860D01*
X420350Y193000D02*
X416750Y193000D01*
X416750Y194140D02*
X420350Y194140D01*
X420350Y195280D02*
X416750Y195280D01*
X416750Y196420D02*
X420350Y196420D01*
X420350Y197560D02*
X416750Y197560D01*
X416750Y198700D02*
X420350Y198700D01*
X420350Y199840D02*
X416750Y199840D01*
X426850Y200600D02*
X426850Y187300D01*
X423250Y187300D01*
X423250Y200600D01*
X426850Y200600D01*
X426850Y188440D02*
X423250Y188440D01*
X423250Y189580D02*
X426850Y189580D01*
X426850Y190720D02*
X423250Y190720D01*
X423250Y191860D02*
X426850Y191860D01*
X426850Y193000D02*
X423250Y193000D01*
X423250Y194140D02*
X426850Y194140D01*
X426850Y195280D02*
X423250Y195280D01*
X423250Y196420D02*
X426850Y196420D01*
X426850Y197560D02*
X423250Y197560D01*
X423250Y198700D02*
X426850Y198700D01*
X426850Y199840D02*
X423250Y199840D01*
X426850Y230000D02*
X426850Y243300D01*
X426850Y230000D02*
X423250Y230000D01*
X423250Y243300D01*
X426850Y243300D01*
X426850Y231140D02*
X423250Y231140D01*
X423250Y232280D02*
X426850Y232280D01*
X426850Y233420D02*
X423250Y233420D01*
X423250Y234560D02*
X426850Y234560D01*
X426850Y235700D02*
X423250Y235700D01*
X423250Y236840D02*
X426850Y236840D01*
X426850Y237980D02*
X423250Y237980D01*
X423250Y239120D02*
X426850Y239120D01*
X426850Y240260D02*
X423250Y240260D01*
X423250Y241400D02*
X426850Y241400D01*
X426850Y242540D02*
X423250Y242540D01*
X420350Y243300D02*
X420350Y230000D01*
X416750Y230000D01*
X416750Y243300D01*
X420350Y243300D01*
X420350Y231140D02*
X416750Y231140D01*
X416750Y232280D02*
X420350Y232280D01*
X420350Y233420D02*
X416750Y233420D01*
X416750Y234560D02*
X420350Y234560D01*
X420350Y235700D02*
X416750Y235700D01*
X416750Y236840D02*
X420350Y236840D01*
X420350Y237980D02*
X416750Y237980D01*
X416750Y239120D02*
X420350Y239120D01*
X420350Y240260D02*
X416750Y240260D01*
X416750Y241400D02*
X420350Y241400D01*
X420350Y242540D02*
X416750Y242540D01*
X413850Y243300D02*
X413850Y230000D01*
X410250Y230000D01*
X410250Y243300D01*
X413850Y243300D01*
X413850Y231140D02*
X410250Y231140D01*
X410250Y232280D02*
X413850Y232280D01*
X413850Y233420D02*
X410250Y233420D01*
X410250Y234560D02*
X413850Y234560D01*
X413850Y235700D02*
X410250Y235700D01*
X410250Y236840D02*
X413850Y236840D01*
X413850Y237980D02*
X410250Y237980D01*
X410250Y239120D02*
X413850Y239120D01*
X413850Y240260D02*
X410250Y240260D01*
X410250Y241400D02*
X413850Y241400D01*
X413850Y242540D02*
X410250Y242540D01*
X407350Y243300D02*
X407350Y230000D01*
X403750Y230000D01*
X403750Y243300D01*
X407350Y243300D01*
X407350Y231140D02*
X403750Y231140D01*
X403750Y232280D02*
X407350Y232280D01*
X407350Y233420D02*
X403750Y233420D01*
X403750Y234560D02*
X407350Y234560D01*
X407350Y235700D02*
X403750Y235700D01*
X403750Y236840D02*
X407350Y236840D01*
X407350Y237980D02*
X403750Y237980D01*
X403750Y239120D02*
X407350Y239120D01*
X407350Y240260D02*
X403750Y240260D01*
X403750Y241400D02*
X407350Y241400D01*
X407350Y242540D02*
X403750Y242540D01*
D25*
X415300Y215300D03*
D26*
X300000Y407500D03*
X309500Y387500D03*
X290500Y387500D03*
D11*
X447500Y851700D03*
X447500Y841700D03*
D27*
X422500Y842250D03*
D28*
X427500Y841750D03*
X432500Y841750D03*
X432500Y853250D03*
X427500Y853250D03*
X422500Y853250D03*
D29*
X310000Y453500D03*
X305000Y453500D03*
X300000Y453500D03*
X295000Y453500D03*
X295000Y436500D03*
X300000Y436500D03*
X305000Y436500D03*
X310000Y436500D03*
D30*
X311396Y450096D02*
X293604Y450096D01*
X311396Y450096D02*
X311396Y439904D01*
X293604Y439904D01*
X293604Y450096D01*
X293604Y440102D02*
X311396Y440102D01*
X311396Y440300D02*
X293604Y440300D01*
X293604Y440498D02*
X311396Y440498D01*
X311396Y440696D02*
X293604Y440696D01*
X293604Y440894D02*
X311396Y440894D01*
X311396Y441092D02*
X293604Y441092D01*
X293604Y441290D02*
X311396Y441290D01*
X311396Y441488D02*
X293604Y441488D01*
X293604Y441686D02*
X311396Y441686D01*
X311396Y441884D02*
X293604Y441884D01*
X293604Y442082D02*
X311396Y442082D01*
X311396Y442280D02*
X293604Y442280D01*
X293604Y442478D02*
X311396Y442478D01*
X311396Y442676D02*
X293604Y442676D01*
X293604Y442874D02*
X311396Y442874D01*
X311396Y443072D02*
X293604Y443072D01*
X293604Y443270D02*
X311396Y443270D01*
X311396Y443468D02*
X293604Y443468D01*
X293604Y443666D02*
X311396Y443666D01*
X311396Y443864D02*
X293604Y443864D01*
X293604Y444062D02*
X311396Y444062D01*
X311396Y444260D02*
X293604Y444260D01*
X293604Y444458D02*
X311396Y444458D01*
X311396Y444656D02*
X293604Y444656D01*
X293604Y444854D02*
X311396Y444854D01*
X311396Y445052D02*
X293604Y445052D01*
X293604Y445250D02*
X311396Y445250D01*
X311396Y445448D02*
X293604Y445448D01*
X293604Y445646D02*
X311396Y445646D01*
X311396Y445844D02*
X293604Y445844D01*
X293604Y446042D02*
X311396Y446042D01*
X311396Y446240D02*
X293604Y446240D01*
X293604Y446438D02*
X311396Y446438D01*
X311396Y446636D02*
X293604Y446636D01*
X293604Y446834D02*
X311396Y446834D01*
X311396Y447032D02*
X293604Y447032D01*
X293604Y447230D02*
X311396Y447230D01*
X311396Y447428D02*
X293604Y447428D01*
X293604Y447626D02*
X311396Y447626D01*
X311396Y447824D02*
X293604Y447824D01*
X293604Y448022D02*
X311396Y448022D01*
X311396Y448220D02*
X293604Y448220D01*
X293604Y448418D02*
X311396Y448418D01*
X311396Y448616D02*
X293604Y448616D01*
X293604Y448814D02*
X311396Y448814D01*
X311396Y449012D02*
X293604Y449012D01*
X293604Y449210D02*
X311396Y449210D01*
X311396Y449408D02*
X293604Y449408D01*
X293604Y449606D02*
X311396Y449606D01*
X311396Y449804D02*
X293604Y449804D01*
X293604Y450002D02*
X311396Y450002D01*
D13*
X325500Y512500D03*
X306500Y512500D03*
X325500Y487464D03*
X306500Y487464D03*
D12*
X257500Y220000D03*
X247500Y220000D03*
X-357500Y364300D03*
X-367500Y364300D03*
D31*
X-117500Y675000D03*
X-22500Y675000D03*
D14*
X-103500Y640000D03*
X-86500Y640000D03*
X-31500Y640000D03*
X-48500Y640000D03*
D21*
X-345950Y925000D03*
X-387450Y925000D03*
D32*
X17500Y812500D03*
X17500Y807500D03*
X17500Y802500D03*
X17500Y797500D03*
X17500Y792500D03*
X17500Y787500D03*
X17500Y782500D03*
X17500Y777500D03*
X17500Y772500D03*
X17500Y767500D03*
X17500Y762500D03*
X17500Y757500D03*
X17500Y752500D03*
X17500Y747500D03*
X17500Y742500D03*
X17500Y737500D03*
D33*
X37500Y717500D03*
X42500Y717500D03*
X47500Y717500D03*
X52500Y717500D03*
X57500Y717500D03*
X62500Y717500D03*
X67500Y717500D03*
X72500Y717500D03*
X77500Y717500D03*
X82500Y717500D03*
X87500Y717500D03*
X92500Y717500D03*
X97500Y717500D03*
X102500Y717500D03*
X107500Y717500D03*
X112500Y717500D03*
D32*
X132500Y737500D03*
X132500Y742500D03*
X132500Y747500D03*
X132500Y752500D03*
X132500Y757500D03*
X132500Y762500D03*
X132500Y767500D03*
X132500Y772500D03*
X132500Y777500D03*
X132500Y782500D03*
X132500Y787500D03*
X132500Y792500D03*
X132500Y797500D03*
X132500Y802500D03*
X132500Y807500D03*
X132500Y812500D03*
D33*
X112500Y832500D03*
X107500Y832500D03*
X102500Y832500D03*
X97500Y832500D03*
X92500Y832500D03*
X87500Y832500D03*
X82500Y832500D03*
X77500Y832500D03*
X72500Y832500D03*
X67500Y832500D03*
X62500Y832500D03*
X57500Y832500D03*
X52500Y832500D03*
X47500Y832500D03*
X42500Y832500D03*
X37500Y832500D03*
D34*
X-36687Y842550D03*
X-36687Y852050D03*
X-36687Y861550D03*
X-61687Y861550D03*
X-61687Y842550D03*
D35*
X354500Y547500D03*
D36*
X340000Y547500D03*
D35*
X354500Y542500D03*
X354500Y537500D03*
X354500Y532500D03*
X354500Y552500D03*
X354500Y557500D03*
X354500Y562500D03*
X325500Y562500D03*
X325500Y557500D03*
X325500Y552500D03*
X325500Y547500D03*
X325500Y542500D03*
X325500Y537500D03*
X325500Y532500D03*
D37*
X-342500Y1048000D03*
X-342500Y1056000D03*
D38*
X-350500Y1052000D03*
D39*
X428900Y720000D03*
X428900Y715000D03*
X428900Y710000D03*
X428900Y705000D03*
X428900Y700000D03*
X428900Y695000D03*
X428900Y725000D03*
X428900Y730000D03*
X428900Y735000D03*
X428900Y740000D03*
X428900Y745000D03*
X428900Y750000D03*
X414900Y752500D03*
X414900Y747500D03*
X414900Y742500D03*
X414900Y737500D03*
X414900Y732500D03*
X414900Y727500D03*
X414900Y717500D03*
X414900Y712500D03*
X414900Y707500D03*
X414900Y702500D03*
X414900Y697500D03*
X414900Y692500D03*
D40*
X428900Y689500D03*
X428900Y755500D03*
D41*
X382500Y713000D03*
X382500Y722500D03*
X382500Y732000D03*
X357500Y732000D03*
X357500Y722500D03*
X357500Y713000D03*
D42*
X-350160Y734252D03*
X-350160Y714948D03*
X-329840Y724600D03*
D12*
X-335000Y812500D03*
X-345000Y812500D03*
D11*
X-372500Y724300D03*
X-372500Y734300D03*
D43*
X-124000Y759639D03*
X-129000Y759639D03*
X-134000Y759639D03*
X-139000Y759639D03*
X-144000Y759639D03*
X-149000Y759639D03*
X-154000Y759639D03*
X-159000Y759639D03*
X-164000Y759639D03*
X-169000Y759639D03*
X-174000Y759639D03*
X-179000Y759639D03*
D44*
X-105000Y792139D03*
X-198000Y792139D03*
D12*
X-130000Y722500D03*
X-140000Y722500D03*
D16*
X275500Y592500D03*
X254500Y592500D03*
D12*
X227500Y592500D03*
X237500Y592500D03*
X-105000Y722500D03*
X-115000Y722500D03*
D11*
X232500Y417500D03*
X232500Y407500D03*
D45*
X330000Y941500D03*
X335000Y941500D03*
X340000Y941500D03*
X345000Y941500D03*
X350000Y941500D03*
X355000Y941500D03*
X360000Y941500D03*
X365000Y941500D03*
X370000Y941500D03*
X375000Y941500D03*
X380000Y941500D03*
X385000Y941500D03*
X390000Y941500D03*
X395000Y941500D03*
X400000Y941500D03*
X405000Y941500D03*
X410000Y941500D03*
X415000Y941500D03*
X420000Y941500D03*
X425000Y941500D03*
X430000Y941500D03*
X435000Y941500D03*
X440000Y941500D03*
X445000Y941500D03*
D46*
X320000Y966500D03*
X455000Y966500D03*
D12*
X-372500Y832500D03*
X-362500Y832500D03*
X-312500Y925000D03*
X-322500Y925000D03*
D11*
X-82000Y852600D03*
X-82000Y842600D03*
X261000Y478000D03*
X261000Y468000D03*
D17*
X-285250Y1048000D03*
X-316750Y1048000D03*
M02*
