G04 Layer_Color=2752767*
%FSLAX44Y44*%
%MOMM*%
G71*
G01*
G75*
%ADD49C,0.2500*%
%ADD51C,0.2000*%
%ADD54C,0.4000*%
%ADD75C,0.0000*%
%ADD235C,0.0508*%
%ADD236C,0.3500*%
D49*
X-737257Y1329666D02*
G03*
X-737257Y1329666I-6667J0D01*
G01*
X-762704Y1434000D02*
X-272225D01*
X-762704Y1134000D02*
X-272225D01*
X-762704Y1104000D02*
X-272225D01*
Y1464000D01*
X-762704D02*
X-272225D01*
X-762704Y1104000D02*
Y1464000D01*
X-384000Y1104000D02*
Y1464000D01*
X-529961Y1104000D02*
Y1464000D01*
X-650929Y1104000D02*
Y1464000D01*
X-747256Y1416333D02*
X-743923Y1413000D01*
X-750590Y1416333D02*
X-747256D01*
X-750590D02*
X-747256Y1419666D01*
X-750590Y1423000D02*
X-747256Y1419666D01*
X-750590Y1423000D02*
X-747256D01*
X-743923Y1426333D01*
X-740590Y1423000D01*
X-737257D01*
X-740590Y1419666D02*
X-737257Y1423000D01*
X-740590Y1419666D02*
X-737257Y1416333D01*
X-740590D02*
X-737257D01*
X-743923Y1413000D02*
X-740590Y1416333D01*
X-747923Y1385667D02*
X-743923Y1387666D01*
X-739923Y1385667D01*
X-741923Y1389666D02*
X-739923Y1385667D01*
X-741923Y1389666D02*
X-739923Y1393667D01*
X-743923Y1391667D02*
X-739923Y1393667D01*
X-747923D02*
X-743923Y1391667D01*
X-747923Y1393667D02*
X-745923Y1389666D01*
X-747923Y1385667D02*
X-745923Y1389666D01*
X-750590Y1383000D02*
X-743923Y1386333D01*
X-737257Y1383000D01*
X-740590Y1389666D02*
X-737257Y1383000D01*
X-740590Y1389666D02*
X-737257Y1396333D01*
X-743923Y1393000D02*
X-737257Y1396333D01*
X-750590D02*
X-743923Y1393000D01*
X-750590Y1396333D02*
X-747256Y1389666D01*
X-750590Y1383000D02*
X-747256Y1389666D01*
X-750590Y1353000D02*
Y1356333D01*
X-747256Y1359666D01*
X-750590Y1363000D02*
X-747256Y1359666D01*
X-750590Y1363000D02*
Y1366333D01*
X-747256D01*
X-743923Y1363000D01*
X-740590Y1366333D01*
X-737257D01*
Y1363000D02*
Y1366333D01*
X-740590Y1359666D02*
X-737257Y1363000D01*
X-740590Y1359666D02*
X-737257Y1356333D01*
Y1353000D02*
Y1356333D01*
X-740590Y1353000D02*
X-737257D01*
X-743923Y1356333D02*
X-740590Y1353000D01*
X-747256D02*
X-743923Y1356333D01*
X-750590Y1353000D02*
X-747256D01*
X-747923Y1295667D02*
X-739923D01*
Y1303667D01*
X-747923D02*
X-739923D01*
X-747923Y1295667D02*
Y1303667D01*
X-750590Y1293000D02*
X-737257D01*
Y1306333D01*
X-750590D02*
X-737257D01*
X-750590Y1293000D02*
Y1306333D01*
Y1263000D02*
X-743923Y1266333D01*
X-737257Y1263000D01*
X-740590Y1269667D02*
X-737257Y1263000D01*
X-740590Y1269667D02*
X-737257Y1276333D01*
X-743923Y1273000D02*
X-737257Y1276333D01*
X-750590D02*
X-743923Y1273000D01*
X-750590Y1276333D02*
X-747256Y1269667D01*
X-750590Y1263000D02*
X-747256Y1269667D01*
X-750590Y1233000D02*
X-737257D01*
Y1246333D01*
X-750590D02*
X-737257D01*
X-750590Y1233000D02*
Y1246333D01*
Y1209667D02*
X-743923Y1203000D01*
X-737257Y1209667D01*
X-743923Y1216333D02*
X-737257Y1209667D01*
X-750590D02*
X-743923Y1216333D01*
Y1173000D02*
X-737257Y1186333D01*
X-750590D02*
X-737257D01*
X-750590D02*
X-743923Y1173000D01*
X-747923Y1147667D02*
X-745923D01*
X-747923D02*
Y1151667D01*
X-745923D01*
Y1153667D01*
X-741923D01*
Y1151667D02*
Y1153667D01*
Y1151667D02*
X-739923D01*
Y1147667D02*
Y1151667D01*
X-741923Y1147667D02*
X-739923D01*
X-741923Y1145667D02*
Y1147667D01*
X-745923Y1145667D02*
X-741923D01*
X-745923D02*
Y1147667D01*
X-750590Y1146333D02*
X-747256D01*
X-750590D02*
Y1153000D01*
X-747256D01*
Y1156333D01*
X-740590D01*
Y1153000D02*
Y1156333D01*
Y1153000D02*
X-737257D01*
Y1146333D02*
Y1153000D01*
X-740590Y1146333D02*
X-737257D01*
X-740590Y1143000D02*
Y1146333D01*
X-747256Y1143000D02*
X-740590D01*
X-747256D02*
Y1146333D01*
X-375000Y1413000D02*
Y1424996D01*
X-367003Y1413000D01*
Y1424996D01*
X-363004Y1413000D02*
Y1424996D01*
X-357006D01*
X-355006Y1422997D01*
Y1418998D01*
X-357006Y1416998D01*
X-363004D01*
X-351008Y1424996D02*
X-343010D01*
X-347009D01*
Y1413000D01*
X-339012Y1424996D02*
Y1413000D01*
Y1418998D01*
X-331014D01*
Y1424996D01*
Y1413000D01*
X-375000Y1383000D02*
Y1394996D01*
X-367003Y1383000D01*
Y1394996D01*
X-363004Y1383000D02*
Y1394996D01*
X-357006D01*
X-355006Y1392997D01*
Y1388998D01*
X-357006Y1386998D01*
X-363004D01*
X-351008Y1394996D02*
X-343010D01*
X-347009D01*
Y1383000D01*
X-339012Y1394996D02*
Y1383000D01*
Y1388998D01*
X-331014D01*
Y1394996D01*
Y1383000D01*
X-375000Y1353000D02*
Y1364996D01*
X-367003Y1353000D01*
Y1364996D01*
X-363004Y1353000D02*
Y1364996D01*
X-357006D01*
X-355006Y1362997D01*
Y1358998D01*
X-357006Y1356998D01*
X-363004D01*
X-351008Y1364996D02*
X-343010D01*
X-347009D01*
Y1353000D01*
X-339012Y1364996D02*
Y1353000D01*
Y1358998D01*
X-331014D01*
Y1364996D01*
Y1353000D01*
X-375000Y1323000D02*
Y1334996D01*
X-367003Y1323000D01*
Y1334996D01*
X-363004Y1323000D02*
Y1334996D01*
X-357006D01*
X-355006Y1332997D01*
Y1328998D01*
X-357006Y1326999D01*
X-363004D01*
X-351008Y1334996D02*
X-343010D01*
X-347009D01*
Y1323000D01*
X-339012Y1334996D02*
Y1323000D01*
Y1328998D01*
X-331014D01*
Y1334996D01*
Y1323000D01*
X-375000Y1293000D02*
Y1304996D01*
X-367003Y1293000D01*
Y1304996D01*
X-363004Y1293000D02*
Y1304996D01*
X-357006D01*
X-355006Y1302997D01*
Y1298998D01*
X-357006Y1296999D01*
X-363004D01*
X-351008Y1304996D02*
X-343010D01*
X-347009D01*
Y1293000D01*
X-339012Y1304996D02*
Y1293000D01*
Y1298998D01*
X-331014D01*
Y1304996D01*
Y1293000D01*
X-375000Y1263000D02*
Y1274996D01*
X-369002D01*
X-367003Y1272997D01*
Y1268998D01*
X-369002Y1266999D01*
X-375000D01*
X-363004Y1274996D02*
X-355006D01*
X-359005D01*
Y1263000D01*
X-351008Y1274996D02*
Y1263000D01*
Y1268998D01*
X-343010D01*
Y1274996D01*
Y1263000D01*
X-375000Y1233000D02*
Y1244996D01*
X-369002D01*
X-367003Y1242997D01*
Y1238998D01*
X-369002Y1236999D01*
X-375000D01*
X-363004Y1244996D02*
X-355006D01*
X-359005D01*
Y1233000D01*
X-351008Y1244996D02*
Y1233000D01*
Y1238998D01*
X-343010D01*
Y1244996D01*
Y1233000D01*
X-375000Y1203000D02*
Y1214996D01*
X-369002D01*
X-367003Y1212997D01*
Y1208998D01*
X-369002Y1206999D01*
X-375000D01*
X-363004Y1214996D02*
X-355006D01*
X-359005D01*
Y1203000D01*
X-351008Y1214996D02*
Y1203000D01*
Y1208998D01*
X-343010D01*
Y1214996D01*
Y1203000D01*
X-375000Y1173000D02*
Y1184996D01*
X-369002D01*
X-367003Y1182997D01*
Y1178998D01*
X-369002Y1176999D01*
X-375000D01*
X-363004Y1184996D02*
X-355006D01*
X-359005D01*
Y1173000D01*
X-351008Y1184996D02*
Y1173000D01*
Y1178998D01*
X-343010D01*
Y1184996D01*
Y1173000D01*
X-375000Y1143000D02*
Y1154996D01*
X-369002D01*
X-367003Y1152997D01*
Y1148998D01*
X-369002Y1146999D01*
X-375000D01*
X-363004Y1154996D02*
X-355006D01*
X-359005D01*
Y1143000D01*
X-351008Y1154996D02*
Y1143000D01*
Y1148998D01*
X-343010D01*
Y1154996D01*
Y1143000D01*
X-520961Y1422997D02*
X-518962Y1424996D01*
X-514963D01*
X-512964Y1422997D01*
Y1414999D01*
X-514963Y1413000D01*
X-518962D01*
X-520961Y1414999D01*
Y1422997D01*
X-506966Y1411000D02*
X-504966Y1413000D01*
Y1414999D01*
X-506966D01*
Y1413000D01*
X-504966D01*
X-506966Y1411000D01*
X-508965Y1409001D01*
X-488971Y1424996D02*
X-496969D01*
Y1418998D01*
X-492970Y1420997D01*
X-490971D01*
X-488971Y1418998D01*
Y1414999D01*
X-490971Y1413000D01*
X-494970D01*
X-496969Y1414999D01*
X-484973Y1422997D02*
X-482974Y1424996D01*
X-478975D01*
X-476975Y1422997D01*
Y1414999D01*
X-478975Y1413000D01*
X-482974D01*
X-484973Y1414999D01*
Y1422997D01*
X-472977Y1413000D02*
Y1420997D01*
X-470977D01*
X-468978Y1418998D01*
Y1413000D01*
Y1418998D01*
X-466979Y1420997D01*
X-464979Y1418998D01*
Y1413000D01*
X-460981D02*
Y1420997D01*
X-458981D01*
X-456982Y1418998D01*
Y1413000D01*
Y1418998D01*
X-454982Y1420997D01*
X-452983Y1418998D01*
Y1413000D01*
X-520961Y1392997D02*
X-518962Y1394996D01*
X-514963D01*
X-512964Y1392997D01*
Y1384999D01*
X-514963Y1383000D01*
X-518962D01*
X-520961Y1384999D01*
Y1392997D01*
X-506966Y1381000D02*
X-504966Y1383000D01*
Y1384999D01*
X-506966D01*
Y1383000D01*
X-504966D01*
X-506966Y1381000D01*
X-508965Y1379001D01*
X-496969Y1392997D02*
X-494970Y1394996D01*
X-490971D01*
X-488971Y1392997D01*
Y1390997D01*
X-490971Y1388998D01*
X-488971Y1386998D01*
Y1384999D01*
X-490971Y1383000D01*
X-494970D01*
X-496969Y1384999D01*
Y1386998D01*
X-494970Y1388998D01*
X-496969Y1390997D01*
Y1392997D01*
X-494970Y1388998D02*
X-490971D01*
X-484973Y1392997D02*
X-482974Y1394996D01*
X-478975D01*
X-476975Y1392997D01*
Y1384999D01*
X-478975Y1383000D01*
X-482974D01*
X-484973Y1384999D01*
Y1392997D01*
X-472977Y1383000D02*
Y1390997D01*
X-470977D01*
X-468978Y1388998D01*
Y1383000D01*
Y1388998D01*
X-466979Y1390997D01*
X-464979Y1388998D01*
Y1383000D01*
X-460981D02*
Y1390997D01*
X-458981D01*
X-456982Y1388998D01*
Y1383000D01*
Y1388998D01*
X-454982Y1390997D01*
X-452983Y1388998D01*
Y1383000D01*
X-520961Y1362997D02*
X-518962Y1364996D01*
X-514963D01*
X-512964Y1362997D01*
Y1354999D01*
X-514963Y1353000D01*
X-518962D01*
X-520961Y1354999D01*
Y1362997D01*
X-506966Y1351001D02*
X-504966Y1353000D01*
Y1354999D01*
X-506966D01*
Y1353000D01*
X-504966D01*
X-506966Y1351001D01*
X-508965Y1349001D01*
X-496969Y1362997D02*
X-494970Y1364996D01*
X-490971D01*
X-488971Y1362997D01*
Y1360997D01*
X-490971Y1358998D01*
X-488971Y1356998D01*
Y1354999D01*
X-490971Y1353000D01*
X-494970D01*
X-496969Y1354999D01*
Y1356998D01*
X-494970Y1358998D01*
X-496969Y1360997D01*
Y1362997D01*
X-494970Y1358998D02*
X-490971D01*
X-484973Y1354999D02*
X-482974Y1353000D01*
X-478975D01*
X-476975Y1354999D01*
Y1362997D01*
X-478975Y1364996D01*
X-482974D01*
X-484973Y1362997D01*
Y1360997D01*
X-482974Y1358998D01*
X-476975D01*
X-472977Y1353000D02*
Y1360997D01*
X-470977D01*
X-468978Y1358998D01*
Y1353000D01*
Y1358998D01*
X-466979Y1360997D01*
X-464979Y1358998D01*
Y1353000D01*
X-460981D02*
Y1360997D01*
X-458981D01*
X-456982Y1358998D01*
Y1353000D01*
Y1358998D01*
X-454982Y1360997D01*
X-452983Y1358998D01*
Y1353000D01*
X-520961Y1332997D02*
X-518962Y1334996D01*
X-514963D01*
X-512964Y1332997D01*
Y1330997D01*
X-514963Y1328998D01*
X-516963D01*
X-514963D01*
X-512964Y1326999D01*
Y1324999D01*
X-514963Y1323000D01*
X-518962D01*
X-520961Y1324999D01*
X-506966Y1321001D02*
X-504966Y1323000D01*
Y1324999D01*
X-506966D01*
Y1323000D01*
X-504966D01*
X-506966Y1321001D01*
X-508965Y1319001D01*
X-488971Y1323000D02*
X-496969D01*
X-488971Y1330997D01*
Y1332997D01*
X-490971Y1334996D01*
X-494970D01*
X-496969Y1332997D01*
X-484973D02*
X-482974Y1334996D01*
X-478975D01*
X-476975Y1332997D01*
Y1324999D01*
X-478975Y1323000D01*
X-482974D01*
X-484973Y1324999D01*
Y1332997D01*
X-472977Y1323000D02*
Y1330997D01*
X-470977D01*
X-468978Y1328998D01*
Y1323000D01*
Y1328998D01*
X-466979Y1330997D01*
X-464979Y1328998D01*
Y1323000D01*
X-460981D02*
Y1330997D01*
X-458981D01*
X-456982Y1328998D01*
Y1323000D01*
Y1328998D01*
X-454982Y1330997D01*
X-452983Y1328998D01*
Y1323000D01*
X-514963Y1293000D02*
Y1304996D01*
X-520961Y1298998D01*
X-512964D01*
X-506966Y1291001D02*
X-504966Y1293000D01*
Y1294999D01*
X-506966D01*
Y1293000D01*
X-504966D01*
X-506966Y1291001D01*
X-508965Y1289001D01*
X-496969Y1302997D02*
X-494970Y1304996D01*
X-490971D01*
X-488971Y1302997D01*
Y1294999D01*
X-490971Y1293000D01*
X-494970D01*
X-496969Y1294999D01*
Y1302997D01*
X-484973D02*
X-482974Y1304996D01*
X-478975D01*
X-476975Y1302997D01*
Y1294999D01*
X-478975Y1293000D01*
X-482974D01*
X-484973Y1294999D01*
Y1302997D01*
X-472977Y1293000D02*
Y1300997D01*
X-470977D01*
X-468978Y1298998D01*
Y1293000D01*
Y1298998D01*
X-466979Y1300997D01*
X-464979Y1298998D01*
Y1293000D01*
X-460981D02*
Y1300997D01*
X-458981D01*
X-456982Y1298998D01*
Y1293000D01*
Y1298998D01*
X-454982Y1300997D01*
X-452983Y1298998D01*
Y1293000D01*
X-520961Y1272997D02*
X-518962Y1274996D01*
X-514963D01*
X-512964Y1272997D01*
Y1264999D01*
X-514963Y1263000D01*
X-518962D01*
X-520961Y1264999D01*
Y1272997D01*
X-506966Y1261001D02*
X-504966Y1263000D01*
Y1264999D01*
X-506966D01*
Y1263000D01*
X-504966D01*
X-506966Y1261001D01*
X-508965Y1259001D01*
X-488971Y1263000D02*
X-496969D01*
X-488971Y1270997D01*
Y1272997D01*
X-490971Y1274996D01*
X-494970D01*
X-496969Y1272997D01*
X-484973D02*
X-482974Y1274996D01*
X-478975D01*
X-476975Y1272997D01*
Y1264999D01*
X-478975Y1263000D01*
X-482974D01*
X-484973Y1264999D01*
Y1272997D01*
X-472977Y1263000D02*
Y1270997D01*
X-470977D01*
X-468978Y1268998D01*
Y1263000D01*
Y1268998D01*
X-466979Y1270997D01*
X-464979Y1268998D01*
Y1263000D01*
X-460981D02*
Y1270997D01*
X-458981D01*
X-456982Y1268998D01*
Y1263000D01*
Y1268998D01*
X-454982Y1270997D01*
X-452983Y1268998D01*
Y1263000D01*
X-520961Y1242997D02*
X-518962Y1244996D01*
X-514963D01*
X-512964Y1242997D01*
Y1234999D01*
X-514963Y1233000D01*
X-518962D01*
X-520961Y1234999D01*
Y1242997D01*
X-506966Y1231001D02*
X-504966Y1233000D01*
Y1234999D01*
X-506966D01*
Y1233000D01*
X-504966D01*
X-506966Y1231001D01*
X-508965Y1229001D01*
X-496969Y1242997D02*
X-494970Y1244996D01*
X-490971D01*
X-488971Y1242997D01*
Y1240997D01*
X-490971Y1238998D01*
X-492970D01*
X-490971D01*
X-488971Y1236999D01*
Y1234999D01*
X-490971Y1233000D01*
X-494970D01*
X-496969Y1234999D01*
X-484973Y1242997D02*
X-482974Y1244996D01*
X-478975D01*
X-476975Y1242997D01*
Y1234999D01*
X-478975Y1233000D01*
X-482974D01*
X-484973Y1234999D01*
Y1242997D01*
X-472977Y1233000D02*
Y1240997D01*
X-470977D01*
X-468978Y1238998D01*
Y1233000D01*
Y1238998D01*
X-466979Y1240997D01*
X-464979Y1238998D01*
Y1233000D01*
X-460981D02*
Y1240997D01*
X-458981D01*
X-456982Y1238998D01*
Y1233000D01*
Y1238998D01*
X-454982Y1240997D01*
X-452983Y1238998D01*
Y1233000D01*
X-520961Y1212997D02*
X-518962Y1214996D01*
X-514963D01*
X-512964Y1212997D01*
Y1204999D01*
X-514963Y1203000D01*
X-518962D01*
X-520961Y1204999D01*
Y1212997D01*
X-506966Y1201001D02*
X-504966Y1203000D01*
Y1204999D01*
X-506966D01*
Y1203000D01*
X-504966D01*
X-506966Y1201001D01*
X-508965Y1199001D01*
X-488971Y1214996D02*
X-492970Y1212997D01*
X-496969Y1208998D01*
Y1204999D01*
X-494970Y1203000D01*
X-490971D01*
X-488971Y1204999D01*
Y1206999D01*
X-490971Y1208998D01*
X-496969D01*
X-484973Y1212997D02*
X-482974Y1214996D01*
X-478975D01*
X-476975Y1212997D01*
Y1204999D01*
X-478975Y1203000D01*
X-482974D01*
X-484973Y1204999D01*
Y1212997D01*
X-472977Y1203000D02*
Y1210997D01*
X-470977D01*
X-468978Y1208998D01*
Y1203000D01*
Y1208998D01*
X-466979Y1210997D01*
X-464979Y1208998D01*
Y1203000D01*
X-460981D02*
Y1210997D01*
X-458981D01*
X-456982Y1208998D01*
Y1203000D01*
Y1208998D01*
X-454982Y1210997D01*
X-452983Y1208998D01*
Y1203000D01*
X-520961Y1182997D02*
X-518962Y1184996D01*
X-514963D01*
X-512964Y1182997D01*
Y1174999D01*
X-514963Y1173000D01*
X-518962D01*
X-520961Y1174999D01*
Y1182997D01*
X-506966Y1171001D02*
X-504966Y1173000D01*
Y1174999D01*
X-506966D01*
Y1173000D01*
X-504966D01*
X-506966Y1171001D01*
X-508965Y1169001D01*
X-488971Y1184996D02*
X-492970Y1182997D01*
X-496969Y1178998D01*
Y1174999D01*
X-494970Y1173000D01*
X-490971D01*
X-488971Y1174999D01*
Y1176999D01*
X-490971Y1178998D01*
X-496969D01*
X-484973Y1182997D02*
X-482974Y1184996D01*
X-478975D01*
X-476975Y1182997D01*
Y1174999D01*
X-478975Y1173000D01*
X-482974D01*
X-484973Y1174999D01*
Y1182997D01*
X-472977Y1173000D02*
Y1180997D01*
X-470977D01*
X-468978Y1178998D01*
Y1173000D01*
Y1178998D01*
X-466979Y1180997D01*
X-464979Y1178998D01*
Y1173000D01*
X-460981D02*
Y1180997D01*
X-458981D01*
X-456982Y1178998D01*
Y1173000D01*
Y1178998D01*
X-454982Y1180997D01*
X-452983Y1178998D01*
Y1173000D01*
X-520961Y1143000D02*
X-516963D01*
X-518962D01*
Y1154996D01*
X-520961Y1152997D01*
X-508965Y1141001D02*
X-506966Y1143000D01*
Y1144999D01*
X-508965D01*
Y1143000D01*
X-506966D01*
X-508965Y1141001D01*
X-510964Y1139001D01*
X-498968Y1152997D02*
X-496969Y1154996D01*
X-492970D01*
X-490971Y1152997D01*
Y1144999D01*
X-492970Y1143000D01*
X-496969D01*
X-498968Y1144999D01*
Y1152997D01*
X-486972D02*
X-484973Y1154996D01*
X-480974D01*
X-478975Y1152997D01*
Y1144999D01*
X-480974Y1143000D01*
X-484973D01*
X-486972Y1144999D01*
Y1152997D01*
X-474976Y1143000D02*
Y1150997D01*
X-472977D01*
X-470977Y1148998D01*
Y1143000D01*
Y1148998D01*
X-468978Y1150997D01*
X-466979Y1148998D01*
Y1143000D01*
X-462980D02*
Y1150997D01*
X-460981D01*
X-458981Y1148998D01*
Y1143000D01*
Y1148998D01*
X-456982Y1150997D01*
X-454982Y1148998D01*
Y1143000D01*
X-633932Y1124996D02*
X-641929D01*
Y1118998D01*
X-637931Y1120997D01*
X-635931D01*
X-633932Y1118998D01*
Y1114999D01*
X-635931Y1113000D01*
X-639930D01*
X-641929Y1114999D01*
X-621936Y1124996D02*
X-629933D01*
Y1118998D01*
X-625934Y1120997D01*
X-623935D01*
X-621936Y1118998D01*
Y1114999D01*
X-623935Y1113000D01*
X-627934D01*
X-629933Y1114999D01*
X-609940Y1124996D02*
X-617937D01*
Y1118998D01*
X-613938Y1120997D01*
X-611939D01*
X-609940Y1118998D01*
Y1114999D01*
X-611939Y1113000D01*
X-615938D01*
X-617937Y1114999D01*
X-593945Y1124996D02*
X-585947D01*
X-589946D01*
Y1113000D01*
X-579949D02*
X-575951D01*
X-573951Y1114999D01*
Y1118998D01*
X-575951Y1120997D01*
X-579949D01*
X-581949Y1118998D01*
Y1114999D01*
X-579949Y1113000D01*
X-567953Y1122997D02*
Y1120997D01*
X-569953D01*
X-565954D01*
X-567953D01*
Y1114999D01*
X-565954Y1113000D01*
X-557957Y1120997D02*
X-553958D01*
X-551959Y1118998D01*
Y1113000D01*
X-557957D01*
X-559956Y1114999D01*
X-557957Y1116999D01*
X-551959D01*
X-547960Y1113000D02*
X-543961D01*
X-545960D01*
Y1124996D01*
X-547960D01*
X-641929Y1422997D02*
X-639930Y1424996D01*
X-635931D01*
X-633932Y1422997D01*
Y1420997D01*
X-635931Y1418998D01*
X-633932Y1416998D01*
Y1414999D01*
X-635931Y1413000D01*
X-639930D01*
X-641929Y1414999D01*
Y1416998D01*
X-639930Y1418998D01*
X-641929Y1420997D01*
Y1422997D01*
X-639930Y1418998D02*
X-635931D01*
X-633932Y1383000D02*
X-641929D01*
X-633932Y1390997D01*
Y1392997D01*
X-635931Y1394996D01*
X-639930D01*
X-641929Y1392997D01*
Y1362997D02*
X-639930Y1364996D01*
X-635931D01*
X-633932Y1362997D01*
Y1360997D01*
X-635931Y1358998D01*
X-637931D01*
X-635931D01*
X-633932Y1356998D01*
Y1354999D01*
X-635931Y1353000D01*
X-639930D01*
X-641929Y1354999D01*
X-633932Y1323000D02*
X-641929D01*
X-633932Y1330997D01*
Y1332997D01*
X-635931Y1334996D01*
X-639930D01*
X-641929Y1332997D01*
Y1293000D02*
X-637931D01*
X-639930D01*
Y1304996D01*
X-641929Y1302997D01*
Y1264999D02*
X-639930Y1263000D01*
X-635931D01*
X-633932Y1264999D01*
Y1272997D01*
X-635931Y1274996D01*
X-639930D01*
X-641929Y1272997D01*
Y1270997D01*
X-639930Y1268998D01*
X-633932D01*
X-621936Y1274996D02*
X-629933D01*
Y1268998D01*
X-625934Y1270997D01*
X-623935D01*
X-621936Y1268998D01*
Y1264999D01*
X-623935Y1263000D01*
X-627934D01*
X-629933Y1264999D01*
X-635931Y1233000D02*
Y1244996D01*
X-641929Y1238998D01*
X-633932D01*
X-629933Y1242997D02*
X-627934Y1244996D01*
X-623935D01*
X-621936Y1242997D01*
Y1240997D01*
X-623935Y1238998D01*
X-625934D01*
X-623935D01*
X-621936Y1236999D01*
Y1234999D01*
X-623935Y1233000D01*
X-627934D01*
X-629933Y1234999D01*
X-617937Y1242997D02*
X-615938Y1244996D01*
X-611939D01*
X-609940Y1242997D01*
Y1240997D01*
X-611939Y1238998D01*
X-609940Y1236999D01*
Y1234999D01*
X-611939Y1233000D01*
X-615938D01*
X-617937Y1234999D01*
Y1236999D01*
X-615938Y1238998D01*
X-617937Y1240997D01*
Y1242997D01*
X-615938Y1238998D02*
X-611939D01*
X-633932Y1203000D02*
X-641929D01*
X-633932Y1210997D01*
Y1212997D01*
X-635931Y1214996D01*
X-639930D01*
X-641929Y1212997D01*
X-633932Y1173000D02*
X-641929D01*
X-633932Y1180997D01*
Y1182997D01*
X-635931Y1184996D01*
X-639930D01*
X-641929Y1182997D01*
X-633932Y1143000D02*
X-641929D01*
X-633932Y1150997D01*
Y1152997D01*
X-635931Y1154996D01*
X-639930D01*
X-641929Y1152997D01*
X-384811Y1066009D02*
X-376813D01*
X-384811Y1070008D02*
X-376813D01*
X-360818Y1062011D02*
Y1074007D01*
X-354820D01*
X-352821Y1072007D01*
Y1068009D01*
X-354820Y1066009D01*
X-360818D01*
X-356820D02*
X-352821Y1062011D01*
X-346823D02*
X-342824D01*
X-340825Y1064010D01*
Y1068009D01*
X-342824Y1070008D01*
X-346823D01*
X-348822Y1068009D01*
Y1064010D01*
X-346823Y1062011D01*
X-336826Y1070008D02*
Y1064010D01*
X-334827Y1062011D01*
X-328829D01*
Y1070008D01*
X-322831Y1072007D02*
Y1070008D01*
X-324830D01*
X-320831D01*
X-322831D01*
Y1064010D01*
X-320831Y1062011D01*
X-308835D02*
X-312834D01*
X-314833Y1064010D01*
Y1068009D01*
X-312834Y1070008D01*
X-308835D01*
X-306836Y1068009D01*
Y1066009D01*
X-314833D01*
X-294840Y1074007D02*
Y1062011D01*
X-300838D01*
X-302837Y1064010D01*
Y1068009D01*
X-300838Y1070008D01*
X-294840D01*
X-278845Y1062011D02*
Y1074007D01*
X-272847D01*
X-270847Y1072007D01*
Y1068009D01*
X-272847Y1066009D01*
X-278845D01*
X-264849Y1070008D02*
X-260851D01*
X-258851Y1068009D01*
Y1062011D01*
X-264849D01*
X-266849Y1064010D01*
X-264849Y1066009D01*
X-258851D01*
X-252853Y1072007D02*
Y1070008D01*
X-254853D01*
X-250854D01*
X-252853D01*
Y1064010D01*
X-250854Y1062011D01*
X-244856Y1074007D02*
Y1062011D01*
Y1068009D01*
X-242857Y1070008D01*
X-238858D01*
X-236859Y1068009D01*
Y1062011D01*
X-220864Y1074007D02*
Y1062011D01*
X-212866D01*
X-202869D02*
X-206868D01*
X-208868Y1064010D01*
Y1068009D01*
X-206868Y1070008D01*
X-202869D01*
X-200870Y1068009D01*
Y1066009D01*
X-208868D01*
X-196871Y1062011D02*
Y1070008D01*
X-190873D01*
X-188874Y1068009D01*
Y1062011D01*
X-180877Y1058012D02*
X-178877D01*
X-176878Y1060011D01*
Y1070008D01*
X-182876D01*
X-184875Y1068009D01*
Y1064010D01*
X-182876Y1062011D01*
X-176878D01*
X-170880Y1072007D02*
Y1070008D01*
X-172879D01*
X-168881D01*
X-170880D01*
Y1064010D01*
X-168881Y1062011D01*
X-162882Y1074007D02*
Y1062011D01*
Y1068009D01*
X-160883Y1070008D01*
X-156884D01*
X-154885Y1068009D01*
Y1062011D01*
X-138890Y1068009D02*
X-130893D01*
X-134892Y1072007D02*
Y1064010D01*
X-114898Y1074007D02*
X-106901D01*
X-110899D01*
Y1062011D01*
X-100903D02*
X-96904D01*
X-94904Y1064010D01*
Y1068009D01*
X-96904Y1070008D01*
X-100903D01*
X-102902Y1068009D01*
Y1064010D01*
X-100903Y1062011D01*
X-88906D02*
X-84908D01*
X-82908Y1064010D01*
Y1068009D01*
X-84908Y1070008D01*
X-88906D01*
X-90906Y1068009D01*
Y1064010D01*
X-88906Y1062011D01*
X-78910D02*
X-74911D01*
X-76910D01*
Y1074007D01*
X-78910D01*
X-48919Y1072007D02*
X-50919Y1074007D01*
X-54917D01*
X-56917Y1072007D01*
Y1070008D01*
X-54917Y1068009D01*
X-50919D01*
X-48919Y1066009D01*
Y1064010D01*
X-50919Y1062011D01*
X-54917D01*
X-56917Y1064010D01*
X-44921Y1062011D02*
X-40922D01*
X-42921D01*
Y1070008D01*
X-44921D01*
X-34924D02*
X-26927D01*
X-34924Y1062011D01*
X-26927D01*
X-16930D02*
X-20928D01*
X-22928Y1064010D01*
Y1068009D01*
X-20928Y1070008D01*
X-16930D01*
X-14930Y1068009D01*
Y1066009D01*
X-22928D01*
X1064D02*
X9062D01*
X1064Y1070008D02*
X9062D01*
X33054Y1072007D02*
X31055Y1074007D01*
X27056D01*
X25057Y1072007D01*
Y1070008D01*
X27056Y1068009D01*
X31055D01*
X33054Y1066009D01*
Y1064010D01*
X31055Y1062011D01*
X27056D01*
X25057Y1064010D01*
X37053Y1062011D02*
X41052D01*
X39052D01*
Y1074007D01*
X37053D01*
X49049Y1062011D02*
X53048D01*
X55047Y1064010D01*
Y1068009D01*
X53048Y1070008D01*
X49049D01*
X47050Y1068009D01*
Y1064010D01*
X49049Y1062011D01*
X61045Y1072007D02*
Y1070008D01*
X59046D01*
X63044D01*
X61045D01*
Y1064010D01*
X63044Y1062011D01*
X81039D02*
X85037D01*
X83038D01*
Y1074007D01*
X81039D01*
X97033Y1062011D02*
X93035D01*
X91035Y1064010D01*
Y1068009D01*
X93035Y1070008D01*
X97033D01*
X99033Y1068009D01*
Y1066009D01*
X91035D01*
X103032Y1062011D02*
Y1070008D01*
X109030D01*
X111029Y1068009D01*
Y1062011D01*
X119026Y1058012D02*
X121026D01*
X123025Y1060011D01*
Y1070008D01*
X117027D01*
X115028Y1068009D01*
Y1064010D01*
X117027Y1062011D01*
X123025D01*
X129023Y1072007D02*
Y1070008D01*
X127024D01*
X131022D01*
X129023D01*
Y1064010D01*
X131022Y1062011D01*
X137021Y1074007D02*
Y1062011D01*
Y1068009D01*
X139020Y1070008D01*
X143019D01*
X145018Y1068009D01*
Y1062011D01*
X163012Y1070008D02*
X167011D01*
X169010Y1068009D01*
Y1062011D01*
X163012D01*
X161013Y1064010D01*
X163012Y1066009D01*
X169010D01*
X173009Y1062011D02*
X179007D01*
X181006Y1064010D01*
X179007Y1066009D01*
X175008D01*
X173009Y1068009D01*
X175008Y1070008D01*
X181006D01*
X204998Y1074007D02*
Y1062011D01*
X199000D01*
X197001Y1064010D01*
Y1068009D01*
X199000Y1070008D01*
X204998D01*
X214995Y1062011D02*
X210997D01*
X208997Y1064010D01*
Y1068009D01*
X210997Y1070008D01*
X214995D01*
X216995Y1068009D01*
Y1066009D01*
X208997D01*
X222993Y1062011D02*
Y1072007D01*
Y1068009D01*
X220993D01*
X224992D01*
X222993D01*
Y1072007D01*
X224992Y1074007D01*
X230990Y1062011D02*
X234989D01*
X232990D01*
Y1070008D01*
X230990D01*
X240987Y1062011D02*
Y1070008D01*
X246985D01*
X248984Y1068009D01*
Y1062011D01*
X258981D02*
X254982D01*
X252983Y1064010D01*
Y1068009D01*
X254982Y1070008D01*
X258981D01*
X260980Y1068009D01*
Y1066009D01*
X252983D01*
X272976Y1074007D02*
Y1062011D01*
X266978D01*
X264979Y1064010D01*
Y1068009D01*
X266978Y1070008D01*
X272976D01*
X288971Y1062011D02*
X292970D01*
X290971D01*
Y1070008D01*
X288971D01*
X298968Y1062011D02*
Y1070008D01*
X304966D01*
X306966Y1068009D01*
Y1062011D01*
X324960Y1072007D02*
Y1070008D01*
X322960D01*
X326959D01*
X324960D01*
Y1064010D01*
X326959Y1062011D01*
X332957Y1074007D02*
Y1062011D01*
Y1068009D01*
X334957Y1070008D01*
X338955D01*
X340955Y1068009D01*
Y1062011D01*
X350951D02*
X346953D01*
X344953Y1064010D01*
Y1068009D01*
X346953Y1070008D01*
X350951D01*
X352951Y1068009D01*
Y1066009D01*
X344953D01*
X368946Y1062011D02*
Y1074007D01*
X374944D01*
X376943Y1072007D01*
Y1068009D01*
X374944Y1066009D01*
X368946D01*
X388939Y1072007D02*
X386940Y1074007D01*
X382941D01*
X380942Y1072007D01*
Y1064010D01*
X382941Y1062011D01*
X386940D01*
X388939Y1064010D01*
X392938Y1074007D02*
Y1062011D01*
X398936D01*
X400935Y1064010D01*
Y1066009D01*
X398936Y1068009D01*
X392938D01*
X398936D01*
X400935Y1070008D01*
Y1072007D01*
X398936Y1074007D01*
X392938D01*
X416930Y1062011D02*
X420929D01*
X418929D01*
Y1074007D01*
X416930D01*
X428926Y1070008D02*
X432925D01*
X434924Y1068009D01*
Y1062011D01*
X428926D01*
X426927Y1064010D01*
X428926Y1066009D01*
X434924D01*
X438923Y1070008D02*
Y1064010D01*
X440922Y1062011D01*
X446920D01*
Y1060011D01*
X444921Y1058012D01*
X442921D01*
X446920Y1062011D02*
Y1070008D01*
X452918Y1062011D02*
X456917D01*
X458916Y1064010D01*
Y1068009D01*
X456917Y1070008D01*
X452918D01*
X450919Y1068009D01*
Y1064010D01*
X452918Y1062011D01*
X462915Y1070008D02*
Y1064010D01*
X464914Y1062011D01*
X470913D01*
Y1070008D01*
X476911Y1072007D02*
Y1070008D01*
X474911D01*
X478910D01*
X476911D01*
Y1064010D01*
X478910Y1062011D01*
X-314833Y1087004D02*
X-306836D01*
X-314833Y1091003D02*
X-306836D01*
X-282844Y1093002D02*
X-284843Y1095002D01*
X-288842D01*
X-290841Y1093002D01*
Y1085005D01*
X-288842Y1083005D01*
X-284843D01*
X-282844Y1085005D01*
X-276846Y1091003D02*
X-272847D01*
X-270847Y1089003D01*
Y1083005D01*
X-276846D01*
X-278845Y1085005D01*
X-276846Y1087004D01*
X-270847D01*
X-266849Y1083005D02*
X-262850D01*
X-264849D01*
Y1095002D01*
X-266849D01*
X-248855Y1091003D02*
X-254853D01*
X-256852Y1089003D01*
Y1085005D01*
X-254853Y1083005D01*
X-248855D01*
X-244856Y1091003D02*
Y1085005D01*
X-242857Y1083005D01*
X-236859D01*
Y1091003D01*
X-232860Y1083005D02*
X-228861D01*
X-230861D01*
Y1095002D01*
X-232860D01*
X-220864Y1091003D02*
X-216865D01*
X-214866Y1089003D01*
Y1083005D01*
X-220864D01*
X-222863Y1085005D01*
X-220864Y1087004D01*
X-214866D01*
X-208868Y1093002D02*
Y1091003D01*
X-210867D01*
X-206868D01*
X-208868D01*
Y1085005D01*
X-206868Y1083005D01*
X-194872D02*
X-198871D01*
X-200870Y1085005D01*
Y1089003D01*
X-198871Y1091003D01*
X-194872D01*
X-192873Y1089003D01*
Y1087004D01*
X-200870D01*
X-180877Y1095002D02*
Y1083005D01*
X-186875D01*
X-188874Y1085005D01*
Y1089003D01*
X-186875Y1091003D01*
X-180877D01*
X-162882Y1083005D02*
Y1093002D01*
Y1089003D01*
X-164882D01*
X-160883D01*
X-162882D01*
Y1093002D01*
X-160883Y1095002D01*
X-154885Y1091003D02*
Y1083005D01*
Y1087004D01*
X-152886Y1089003D01*
X-150886Y1091003D01*
X-148887D01*
X-140890Y1083005D02*
X-136891D01*
X-134892Y1085005D01*
Y1089003D01*
X-136891Y1091003D01*
X-140890D01*
X-142889Y1089003D01*
Y1085005D01*
X-140890Y1083005D01*
X-130893D02*
Y1091003D01*
X-128893D01*
X-126894Y1089003D01*
Y1083005D01*
Y1089003D01*
X-124895Y1091003D01*
X-122895Y1089003D01*
Y1083005D01*
X-104901Y1093002D02*
Y1091003D01*
X-106901D01*
X-102902D01*
X-104901D01*
Y1085005D01*
X-102902Y1083005D01*
X-94904D02*
X-90906D01*
X-88906Y1085005D01*
Y1089003D01*
X-90906Y1091003D01*
X-94904D01*
X-96904Y1089003D01*
Y1085005D01*
X-94904Y1083005D01*
X-82908D02*
X-78910D01*
X-76910Y1085005D01*
Y1089003D01*
X-78910Y1091003D01*
X-82908D01*
X-84908Y1089003D01*
Y1085005D01*
X-82908Y1083005D01*
X-72912D02*
X-68913D01*
X-70912D01*
Y1095002D01*
X-72912D01*
X-50919Y1083005D02*
X-44921D01*
X-42921Y1085005D01*
X-44921Y1087004D01*
X-48919D01*
X-50919Y1089003D01*
X-48919Y1091003D01*
X-42921D01*
X-36923Y1093002D02*
Y1091003D01*
X-38923D01*
X-34924D01*
X-36923D01*
Y1085005D01*
X-34924Y1083005D01*
X-26926Y1091003D02*
X-22928D01*
X-20928Y1089003D01*
Y1083005D01*
X-26926D01*
X-28926Y1085005D01*
X-26926Y1087004D01*
X-20928D01*
X-16930Y1091003D02*
Y1083005D01*
Y1087004D01*
X-14930Y1089003D01*
X-12931Y1091003D01*
X-10932D01*
X-2934Y1093002D02*
Y1091003D01*
X-4933D01*
X-935D01*
X-2934D01*
Y1085005D01*
X-935Y1083005D01*
X25057Y1091003D02*
X19059D01*
X17059Y1089003D01*
Y1085005D01*
X19059Y1083005D01*
X25057D01*
X35054D02*
X31055D01*
X29056Y1085005D01*
Y1089003D01*
X31055Y1091003D01*
X35054D01*
X37053Y1089003D01*
Y1087004D01*
X29056D01*
X41052Y1083005D02*
Y1091003D01*
X47050D01*
X49049Y1089003D01*
Y1083005D01*
X55047Y1093002D02*
Y1091003D01*
X53048D01*
X57046D01*
X55047D01*
Y1085005D01*
X57046Y1083005D01*
X63045Y1091003D02*
Y1083005D01*
Y1087004D01*
X65044Y1089003D01*
X67043Y1091003D01*
X69043D01*
X81039Y1083005D02*
X77040D01*
X75041Y1085005D01*
Y1089003D01*
X77040Y1091003D01*
X81039D01*
X83038Y1089003D01*
Y1087004D01*
X75041D01*
X99033Y1079007D02*
Y1091003D01*
X105031D01*
X107030Y1089003D01*
Y1085005D01*
X105031Y1083005D01*
X99033D01*
X113028D02*
X117027D01*
X119026Y1085005D01*
Y1089003D01*
X117027Y1091003D01*
X113028D01*
X111029Y1089003D01*
Y1085005D01*
X113028Y1083005D01*
X123025D02*
X129023D01*
X131023Y1085005D01*
X129023Y1087004D01*
X125024D01*
X123025Y1089003D01*
X125024Y1091003D01*
X131023D01*
X135021Y1083005D02*
X139020D01*
X137021D01*
Y1091003D01*
X135021D01*
X147017Y1093002D02*
Y1091003D01*
X145018D01*
X149017D01*
X147017D01*
Y1085005D01*
X149017Y1083005D01*
X155015D02*
X159013D01*
X157014D01*
Y1091003D01*
X155015D01*
X167011Y1083005D02*
X171010D01*
X173009Y1085005D01*
Y1089003D01*
X171010Y1091003D01*
X167011D01*
X165012Y1089003D01*
Y1085005D01*
X167011Y1083005D01*
X177008D02*
Y1091003D01*
X183006D01*
X185005Y1089003D01*
Y1083005D01*
X202999Y1093002D02*
Y1091003D01*
X201000D01*
X204998D01*
X202999D01*
Y1085005D01*
X204998Y1083005D01*
X212996D02*
X216995D01*
X218994Y1085005D01*
Y1089003D01*
X216995Y1091003D01*
X212996D01*
X210997Y1089003D01*
Y1085005D01*
X212996Y1083005D01*
X236988Y1093002D02*
Y1091003D01*
X234989D01*
X238988D01*
X236988D01*
Y1085005D01*
X238988Y1083005D01*
X246985D02*
X250984D01*
X252983Y1085005D01*
Y1089003D01*
X250984Y1091003D01*
X246985D01*
X244986Y1089003D01*
Y1085005D01*
X246985Y1083005D01*
X258981D02*
X262980D01*
X264979Y1085005D01*
Y1089003D01*
X262980Y1091003D01*
X258981D01*
X256982Y1089003D01*
Y1085005D01*
X258981Y1083005D01*
X268978D02*
X272977D01*
X270977D01*
Y1095002D01*
X268978D01*
X296969Y1083005D02*
X292970D01*
X290971Y1085005D01*
Y1089003D01*
X292970Y1091003D01*
X296969D01*
X298968Y1089003D01*
Y1087004D01*
X290971D01*
X302967Y1083005D02*
Y1091003D01*
X308965D01*
X310964Y1089003D01*
Y1083005D01*
X322960Y1095002D02*
Y1083005D01*
X316962D01*
X314963Y1085005D01*
Y1089003D01*
X316962Y1091003D01*
X322960D01*
X346953D02*
X340955D01*
X338955Y1089003D01*
Y1085005D01*
X340955Y1083005D01*
X346953D01*
X356949D02*
X352951D01*
X350951Y1085005D01*
Y1089003D01*
X352951Y1091003D01*
X356949D01*
X358949Y1089003D01*
Y1087004D01*
X350951D01*
X362948Y1083005D02*
Y1091003D01*
X368946D01*
X370945Y1089003D01*
Y1083005D01*
X376943Y1093002D02*
Y1091003D01*
X374944D01*
X378942D01*
X376943D01*
Y1085005D01*
X378942Y1083005D01*
X384940Y1091003D02*
Y1083005D01*
Y1087004D01*
X386940Y1089003D01*
X388939Y1091003D01*
X390938D01*
X402934Y1083005D02*
X398936D01*
X396936Y1085005D01*
Y1089003D01*
X398936Y1091003D01*
X402934D01*
X404934Y1089003D01*
Y1087004D01*
X396936D01*
X420929Y1079007D02*
Y1091003D01*
X426927D01*
X428926Y1089003D01*
Y1085005D01*
X426927Y1083005D01*
X420929D01*
X434924D02*
X438923D01*
X440922Y1085005D01*
Y1089003D01*
X438923Y1091003D01*
X434924D01*
X432925Y1089003D01*
Y1085005D01*
X434924Y1083005D01*
X444921D02*
X450919D01*
X452918Y1085005D01*
X450919Y1087004D01*
X446920D01*
X444921Y1089003D01*
X446920Y1091003D01*
X452918D01*
X456917Y1083005D02*
X460916D01*
X458916D01*
Y1091003D01*
X456917D01*
X468913Y1093002D02*
Y1091003D01*
X466914D01*
X470913D01*
X468913D01*
Y1085005D01*
X470913Y1083005D01*
X476911D02*
X480909D01*
X478910D01*
Y1091003D01*
X476911D01*
X488907Y1083005D02*
X492905D01*
X494905Y1085005D01*
Y1089003D01*
X492905Y1091003D01*
X488907D01*
X486907Y1089003D01*
Y1085005D01*
X488907Y1083005D01*
X498904D02*
Y1091003D01*
X504902D01*
X506901Y1089003D01*
Y1083005D01*
X510900D02*
Y1085005D01*
X512899D01*
Y1083005D01*
X510900D01*
D51*
X51997Y690100D02*
G03*
X51000Y700000I-997J4900D01*
G01*
Y606000D02*
G03*
X52039Y615891I0J5000D01*
G01*
X2001Y743001D02*
G03*
X22001Y763001I0J20000D01*
G01*
X52000Y946000D02*
G03*
X22001Y916000I0J-30000D01*
G01*
X577999Y893000D02*
G03*
X524999Y946000I-53000J0D01*
G01*
Y-10000D02*
G03*
X577999Y43000I0J53000D01*
G01*
X22001D02*
G03*
X75000Y-10000I53000J0D01*
G01*
X22001Y503001D02*
G03*
X2001Y523001I-20000J0D01*
G01*
X75000Y-10000D02*
X524999D01*
X22001Y43000D02*
Y503001D01*
X-5000Y523001D02*
X2001D01*
X-5000Y743001D02*
X2000D01*
X22001Y763001D02*
Y916000D01*
X52000Y946000D02*
X524999D01*
X577999Y43000D02*
Y893000D01*
X-5001Y700001D02*
Y743001D01*
X-5000Y700000D02*
X51000D01*
X52000Y615900D02*
Y690100D01*
X-5001Y523001D02*
Y605801D01*
X51000D01*
D54*
X-375000Y1443000D02*
Y1457395D01*
X-367802D01*
X-365403Y1454996D01*
Y1450197D01*
X-367802Y1447798D01*
X-375000D01*
X-360605Y1443000D02*
X-355806D01*
X-358205D01*
Y1457395D01*
X-360605D01*
X-346209Y1452597D02*
X-341411D01*
X-339012Y1450197D01*
Y1443000D01*
X-346209D01*
X-348609Y1445399D01*
X-346209Y1447798D01*
X-339012D01*
X-331814Y1454996D02*
Y1452597D01*
X-334213D01*
X-329415D01*
X-331814D01*
Y1445399D01*
X-329415Y1443000D01*
X-315019D02*
X-319818D01*
X-322217Y1445399D01*
Y1450197D01*
X-319818Y1452597D01*
X-315019D01*
X-312620Y1450197D01*
Y1447798D01*
X-322217D01*
X-298225Y1457395D02*
Y1443000D01*
X-305422D01*
X-307822Y1445399D01*
Y1450197D01*
X-305422Y1452597D01*
X-298225D01*
X-520961Y1457395D02*
Y1443000D01*
Y1450197D01*
X-511364D01*
Y1457395D01*
Y1443000D01*
X-504167D02*
X-499368D01*
X-496969Y1445399D01*
Y1450197D01*
X-499368Y1452597D01*
X-504167D01*
X-506566Y1450197D01*
Y1445399D01*
X-504167Y1443000D01*
X-492170D02*
X-487372D01*
X-489771D01*
Y1457395D01*
X-492170D01*
X-472977Y1443000D02*
X-477775D01*
X-480174Y1445399D01*
Y1450197D01*
X-477775Y1452597D01*
X-472977D01*
X-470578Y1450197D01*
Y1447798D01*
X-480174D01*
X-441787Y1454996D02*
X-444186Y1457395D01*
X-448984D01*
X-451384Y1454996D01*
Y1452597D01*
X-448984Y1450197D01*
X-444186D01*
X-441787Y1447798D01*
Y1445399D01*
X-444186Y1443000D01*
X-448984D01*
X-451384Y1445399D01*
X-436988Y1443000D02*
X-432190D01*
X-434589D01*
Y1452597D01*
X-436988D01*
X-424992D02*
X-415395D01*
X-424992Y1443000D01*
X-415395D01*
X-403399D02*
X-408198D01*
X-410597Y1445399D01*
Y1450197D01*
X-408198Y1452597D01*
X-403399D01*
X-401000Y1450197D01*
Y1447798D01*
X-410597D01*
X-632332Y1454996D02*
X-634732Y1457395D01*
X-639530D01*
X-641929Y1454996D01*
Y1445399D01*
X-639530Y1443000D01*
X-634732D01*
X-632332Y1445399D01*
X-625135Y1443000D02*
X-620336D01*
X-617937Y1445399D01*
Y1450197D01*
X-620336Y1452597D01*
X-625135D01*
X-627534Y1450197D01*
Y1445399D01*
X-625135Y1443000D01*
X-613139Y1452597D02*
Y1445399D01*
X-610739Y1443000D01*
X-603542D01*
Y1452597D01*
X-598743Y1443000D02*
Y1452597D01*
X-591546D01*
X-589146Y1450197D01*
Y1443000D01*
X-581949Y1454996D02*
Y1452597D01*
X-584348D01*
X-579549D01*
X-581949D01*
Y1445399D01*
X-579549Y1443000D01*
X-735108Y1454996D02*
X-737507Y1457395D01*
X-742305D01*
X-744705Y1454996D01*
Y1452597D01*
X-742305Y1450197D01*
X-737507D01*
X-735108Y1447798D01*
Y1445399D01*
X-737507Y1443000D01*
X-742305D01*
X-744705Y1445399D01*
X-730309Y1452597D02*
Y1445399D01*
X-727910Y1443000D01*
X-720712D01*
Y1440600D01*
X-723111Y1438201D01*
X-725511D01*
X-720712Y1443000D02*
Y1452597D01*
X-715914Y1443000D02*
Y1452597D01*
X-713514D01*
X-711115Y1450197D01*
Y1443000D01*
Y1450197D01*
X-708716Y1452597D01*
X-706317Y1450197D01*
Y1443000D01*
X-701518Y1457395D02*
Y1443000D01*
X-694321D01*
X-691922Y1445399D01*
Y1447798D01*
Y1450197D01*
X-694321Y1452597D01*
X-701518D01*
X-684724Y1443000D02*
X-679925D01*
X-677526Y1445399D01*
Y1450197D01*
X-679925Y1452597D01*
X-684724D01*
X-687123Y1450197D01*
Y1445399D01*
X-684724Y1443000D01*
X-672728D02*
X-667929D01*
X-670329D01*
Y1457395D01*
X-672728D01*
D75*
X15999Y593800D02*
G03*
X18999Y596800I0J3000D01*
G01*
D02*
G03*
X15999Y599800I-3000J0D01*
G01*
X4001D02*
G03*
X1001Y596800I0J-3000D01*
G01*
D02*
G03*
X4001Y593800I3000J0D01*
G01*
X54000Y706200D02*
G03*
X57000Y709200I0J3000D01*
G01*
D02*
G03*
X54000Y712200I-3000J0D01*
G01*
X45999D02*
G03*
X43000Y709200I0J-3000D01*
G01*
D02*
G03*
X45999Y706200I3000J0D01*
G01*
X54000Y593800D02*
G03*
X57000Y596800I0J3000D01*
G01*
D02*
G03*
X54000Y599800I-3000J0D01*
G01*
X45999D02*
G03*
X43000Y596800I0J-3000D01*
G01*
D02*
G03*
X45999Y593800I3000J0D01*
G01*
X15999Y706200D02*
G03*
X18999Y709200I0J3000D01*
G01*
D02*
G03*
X15999Y712200I-3000J0D01*
G01*
X4001D02*
G03*
X1001Y709200I0J-3000D01*
G01*
D02*
G03*
X4001Y706200I3000J0D01*
G01*
Y599800D02*
X15999D01*
X4001Y593800D02*
X15999D01*
X45999Y712200D02*
X54000D01*
X45999Y706200D02*
X54000D01*
X45999Y599800D02*
X54000D01*
X45999Y593800D02*
X54000D01*
X4001Y712200D02*
X15999D01*
X4001Y706200D02*
X15999D01*
D235*
X532510Y111200D02*
G03*
X532510Y111200I-2540J0D01*
G01*
X117540Y836200D02*
G03*
X117540Y836200I-2540J0D01*
G01*
X109460Y678460D02*
X112000Y679730D01*
X114540Y678460D01*
X113270Y681000D02*
X114540Y678460D01*
X113270Y681000D02*
X114540Y683540D01*
X112000Y682270D02*
X114540Y683540D01*
X109460D02*
X112000Y682270D01*
X109460Y683540D02*
X110730Y681000D01*
X109460Y678460D02*
X110730Y681000D01*
X135460Y321460D02*
X140540D01*
Y326540D01*
X135460D02*
X140540D01*
X135460Y321460D02*
Y326540D01*
X516460Y197460D02*
X521540D01*
Y202540D01*
X516460D02*
X521540D01*
X516460Y197460D02*
Y202540D01*
X504460Y28460D02*
X509540D01*
Y33540D01*
X504460D02*
X509540D01*
X504460Y28460D02*
Y33540D01*
X310460Y38460D02*
X315540D01*
Y43540D01*
X310460D02*
X315540D01*
X310460Y38460D02*
Y43540D01*
X309460Y168460D02*
X314540D01*
Y173540D01*
X309460D02*
X314540D01*
X309460Y168460D02*
Y173540D01*
X318460Y194460D02*
X323540D01*
Y199540D01*
X318460D02*
X323540D01*
X318460Y194460D02*
Y199540D01*
X316460Y342460D02*
X321540D01*
Y347540D01*
X316460D02*
X321540D01*
X316460Y342460D02*
Y347540D01*
X282460Y342460D02*
X287540D01*
Y347540D01*
X282460D02*
X287540D01*
X282460Y342460D02*
Y347540D01*
X205460Y471460D02*
X210540D01*
Y476540D01*
X205460D02*
X210540D01*
X205460Y471460D02*
Y476540D01*
X337460Y277460D02*
X342540D01*
Y282540D01*
X337460D02*
X342540D01*
X337460Y277460D02*
Y282540D01*
X188460Y539460D02*
X193540D01*
Y544540D01*
X188460D02*
X193540D01*
X188460Y539460D02*
Y544540D01*
Y530460D02*
X193540D01*
Y535540D01*
X188460D02*
X193540D01*
X188460Y530460D02*
Y535540D01*
X180460Y555460D02*
X185540D01*
Y560540D01*
X180460D02*
X185540D01*
X180460Y555460D02*
Y560540D01*
X170460Y507460D02*
X175540D01*
Y512540D01*
X170460D02*
X175540D01*
X170460Y507460D02*
Y512540D01*
X141460Y584460D02*
X146540D01*
Y589540D01*
X141460D02*
X146540D01*
X141460Y584460D02*
Y589540D01*
X133460Y594460D02*
X138540D01*
Y599540D01*
X133460D02*
X138540D01*
X133460Y594460D02*
Y599540D01*
X143460Y594460D02*
X148540D01*
Y599540D01*
X143460D02*
X148540D01*
X143460Y594460D02*
Y599540D01*
X109460Y630460D02*
X112000Y631730D01*
X114540Y630460D01*
X113270Y633000D02*
X114540Y630460D01*
X113270Y633000D02*
X114540Y635540D01*
X112000Y634270D02*
X114540Y635540D01*
X109460D02*
X112000Y634270D01*
X109460Y635540D02*
X110730Y633000D01*
X109460Y630460D02*
X110730Y633000D01*
X117460Y707460D02*
X122540D01*
Y712540D01*
X117460D02*
X122540D01*
X117460Y707460D02*
Y712540D01*
X297460Y553460D02*
X300000Y554730D01*
X302540Y553460D01*
X301270Y556000D02*
X302540Y553460D01*
X301270Y556000D02*
X302540Y558540D01*
X300000Y557270D02*
X302540Y558540D01*
X297460D02*
X300000Y557270D01*
X297460Y558540D02*
X298730Y556000D01*
X297460Y553460D02*
X298730Y556000D01*
X86460Y417460D02*
X91540D01*
Y422540D01*
X86460D02*
X91540D01*
X86460Y417460D02*
Y422540D01*
X59460Y427460D02*
X64540D01*
Y432540D01*
X59460D02*
X64540D01*
X59460Y427460D02*
Y432540D01*
X78460Y404460D02*
X83540D01*
Y409540D01*
X78460D02*
X83540D01*
X78460Y404460D02*
Y409540D01*
X175460Y409460D02*
X180540D01*
Y414540D01*
X175460D02*
X180540D01*
X175460Y409460D02*
Y414540D01*
X69460Y653460D02*
X72000Y654730D01*
X74540Y653460D01*
X73270Y656000D02*
X74540Y653460D01*
X73270Y656000D02*
X74540Y658540D01*
X72000Y657270D02*
X74540Y658540D01*
X69460D02*
X72000Y657270D01*
X69460Y658540D02*
X70730Y656000D01*
X69460Y653460D02*
X70730Y656000D01*
X68460Y642460D02*
X71000Y643730D01*
X73540Y642460D01*
X72270Y645000D02*
X73540Y642460D01*
X72270Y645000D02*
X73540Y647540D01*
X71000Y646270D02*
X73540Y647540D01*
X68460D02*
X71000Y646270D01*
X68460Y647540D02*
X69730Y645000D01*
X68460Y642460D02*
X69730Y645000D01*
X180460Y643460D02*
X183000Y644730D01*
X185540Y643460D01*
X184270Y646000D02*
X185540Y643460D01*
X184270Y646000D02*
X185540Y648540D01*
X183000Y647270D02*
X185540Y648540D01*
X180460D02*
X183000Y647270D01*
X180460Y648540D02*
X181730Y646000D01*
X180460Y643460D02*
X181730Y646000D01*
X180460Y664460D02*
X183000Y665730D01*
X185540Y664460D01*
X184270Y667000D02*
X185540Y664460D01*
X184270Y667000D02*
X185540Y669540D01*
X183000Y668270D02*
X185540Y669540D01*
X180460D02*
X183000Y668270D01*
X180460Y669540D02*
X181730Y667000D01*
X180460Y664460D02*
X181730Y667000D01*
X344460Y848460D02*
X347000Y849730D01*
X349540Y848460D01*
X348270Y851000D02*
X349540Y848460D01*
X348270Y851000D02*
X349540Y853540D01*
X347000Y852270D02*
X349540Y853540D01*
X344460D02*
X347000Y852270D01*
X344460Y853540D02*
X345730Y851000D01*
X344460Y848460D02*
X345730Y851000D01*
X352460Y845460D02*
X355000Y846730D01*
X357540Y845460D01*
X356270Y848000D02*
X357540Y845460D01*
X356270Y848000D02*
X357540Y850540D01*
X355000Y849270D02*
X357540Y850540D01*
X352460D02*
X355000Y849270D01*
X352460Y850540D02*
X353730Y848000D01*
X352460Y845460D02*
X353730Y848000D01*
X404460Y934460D02*
X409540D01*
Y939540D01*
X404460D02*
X409540D01*
X404460Y934460D02*
Y939540D01*
X162460Y772460D02*
X167540D01*
Y777540D01*
X162460D02*
X167540D01*
X162460Y772460D02*
Y777540D01*
X508460Y898460D02*
X513540D01*
Y903540D01*
X508460D02*
X513540D01*
X508460Y898460D02*
Y903540D01*
X384460Y904460D02*
X389540D01*
Y909540D01*
X384460D02*
X389540D01*
X384460Y904460D02*
Y909540D01*
X27460Y432460D02*
X32540D01*
Y437540D01*
X27460D02*
X32540D01*
X27460Y432460D02*
Y437540D01*
X520460Y614460D02*
X525540D01*
Y619540D01*
X520460D02*
X525540D01*
X520460Y614460D02*
Y619540D01*
X359460Y613460D02*
X362000Y614730D01*
X364540Y613460D01*
X363270Y616000D02*
X364540Y613460D01*
X363270Y616000D02*
X364540Y618540D01*
X362000Y617270D02*
X364540Y618540D01*
X359460D02*
X362000Y617270D01*
X359460Y618540D02*
X360730Y616000D01*
X359460Y613460D02*
X360730Y616000D01*
X57460Y277460D02*
X62540D01*
Y282540D01*
X57460D02*
X62540D01*
X57460Y277460D02*
Y282540D01*
X557460Y687460D02*
X562540D01*
Y692540D01*
X557460D02*
X562540D01*
X557460Y687460D02*
Y692540D01*
X192460Y560460D02*
X197540D01*
Y565540D01*
X192460D02*
X197540D01*
X192460Y560460D02*
Y565540D01*
X317460Y746460D02*
X322540D01*
Y751540D01*
X317460D02*
X322540D01*
X317460Y746460D02*
Y751540D01*
X329460Y764460D02*
X334540D01*
Y769540D01*
X329460D02*
X334540D01*
X329460Y764460D02*
Y769540D01*
X237460Y797460D02*
X242540D01*
Y802540D01*
X237460D02*
X242540D01*
X237460Y797460D02*
Y802540D01*
X220460Y809460D02*
X225540D01*
Y814540D01*
X220460D02*
X225540D01*
X220460Y809460D02*
Y814540D01*
X123460Y900460D02*
X128540D01*
Y905540D01*
X123460D02*
X128540D01*
X123460Y900460D02*
Y905540D01*
X117460Y882460D02*
X122540D01*
Y887540D01*
X117460D02*
X122540D01*
X117460Y882460D02*
Y887540D01*
X100460Y856460D02*
X105540D01*
Y861540D01*
X100460D02*
X105540D01*
X100460Y856460D02*
Y861540D01*
X98460Y804460D02*
X103540D01*
Y809540D01*
X98460D02*
X103540D01*
X98460Y804460D02*
Y809540D01*
X57460Y297460D02*
X62540D01*
Y302540D01*
X57460D02*
X62540D01*
X57460Y297460D02*
Y302540D01*
Y317460D02*
X62540D01*
Y322540D01*
X57460D02*
X62540D01*
X57460Y317460D02*
Y322540D01*
X101460Y875460D02*
X104000Y876730D01*
X106540Y875460D01*
X105270Y878000D02*
X106540Y875460D01*
X105270Y878000D02*
X106540Y880540D01*
X104000Y879270D02*
X106540Y880540D01*
X101460D02*
X104000Y879270D01*
X101460Y880540D02*
X102730Y878000D01*
X101460Y875460D02*
X102730Y878000D01*
X93460Y871460D02*
X96000Y872730D01*
X98540Y871460D01*
X97270Y874000D02*
X98540Y871460D01*
X97270Y874000D02*
X98540Y876540D01*
X96000Y875270D02*
X98540Y876540D01*
X93460D02*
X96000Y875270D01*
X93460Y876540D02*
X94730Y874000D01*
X93460Y871460D02*
X94730Y874000D01*
X219460Y830460D02*
X222000Y831730D01*
X224540Y830460D01*
X223270Y833000D02*
X224540Y830460D01*
X223270Y833000D02*
X224540Y835540D01*
X222000Y834270D02*
X224540Y835540D01*
X219460D02*
X222000Y834270D01*
X219460Y835540D02*
X220730Y833000D01*
X219460Y830460D02*
X220730Y833000D01*
X220460Y837460D02*
X223000Y838730D01*
X225540Y837460D01*
X224270Y840000D02*
X225540Y837460D01*
X224270Y840000D02*
X225540Y842540D01*
X223000Y841270D02*
X225540Y842540D01*
X220460D02*
X223000Y841270D01*
X220460Y842540D02*
X221730Y840000D01*
X220460Y837460D02*
X221730Y840000D01*
X57460Y497460D02*
X62540D01*
Y502540D01*
X57460D02*
X62540D01*
X57460Y497460D02*
Y502540D01*
X116460Y409460D02*
X121540D01*
Y414540D01*
X116460D02*
X121540D01*
X116460Y409460D02*
Y414540D01*
X73460Y463460D02*
X78540D01*
Y468540D01*
X73460D02*
X78540D01*
X73460Y463460D02*
Y468540D01*
X57460Y477460D02*
X62540D01*
Y482540D01*
X57460D02*
X62540D01*
X57460Y477460D02*
Y482540D01*
Y337460D02*
X62540D01*
Y342540D01*
X57460D02*
X62540D01*
X57460Y337460D02*
Y342540D01*
X179460Y819460D02*
X184540D01*
Y824540D01*
X179460D02*
X184540D01*
X179460Y819460D02*
Y824540D01*
X144460Y798460D02*
X147000Y799730D01*
X149540Y798460D01*
X148270Y801000D02*
X149540Y798460D01*
X148270Y801000D02*
X149540Y803540D01*
X147000Y802270D02*
X149540Y803540D01*
X144460D02*
X147000Y802270D01*
X144460Y803540D02*
X145730Y801000D01*
X144460Y798460D02*
X145730Y801000D01*
X346460Y541460D02*
X349000Y542730D01*
X351540Y541460D01*
X350270Y544000D02*
X351540Y541460D01*
X350270Y544000D02*
X351540Y546540D01*
X349000Y545270D02*
X351540Y546540D01*
X346460D02*
X349000Y545270D01*
X346460Y546540D02*
X347730Y544000D01*
X346460Y541460D02*
X347730Y544000D01*
X353460Y547460D02*
X356000Y548730D01*
X358540Y547460D01*
X357270Y550000D02*
X358540Y547460D01*
X357270Y550000D02*
X358540Y552540D01*
X356000Y551270D02*
X358540Y552540D01*
X353460D02*
X356000Y551270D01*
X353460Y552540D02*
X354730Y550000D01*
X353460Y547460D02*
X354730Y550000D01*
X88460Y865460D02*
X91000Y866730D01*
X93540Y865460D01*
X92270Y868000D02*
X93540Y865460D01*
X92270Y868000D02*
X93540Y870540D01*
X91000Y869270D02*
X93540Y870540D01*
X88460D02*
X91000Y869270D01*
X88460Y870540D02*
X89730Y868000D01*
X88460Y865460D02*
X89730Y868000D01*
X73460Y859460D02*
X76000Y860730D01*
X78540Y859460D01*
X77270Y862000D02*
X78540Y859460D01*
X77270Y862000D02*
X78540Y864540D01*
X76000Y863270D02*
X78540Y864540D01*
X73460D02*
X76000Y863270D01*
X73460Y864540D02*
X74730Y862000D01*
X73460Y859460D02*
X74730Y862000D01*
X83460Y870460D02*
X86000Y871730D01*
X88540Y870460D01*
X87270Y873000D02*
X88540Y870460D01*
X87270Y873000D02*
X88540Y875540D01*
X86000Y874270D02*
X88540Y875540D01*
X83460D02*
X86000Y874270D01*
X83460Y875540D02*
X84730Y873000D01*
X83460Y870460D02*
X84730Y873000D01*
X76460Y867460D02*
X79000Y868730D01*
X81540Y867460D01*
X80270Y870000D02*
X81540Y867460D01*
X80270Y870000D02*
X81540Y872540D01*
X79000Y871270D02*
X81540Y872540D01*
X76460D02*
X79000Y871270D01*
X76460Y872540D02*
X77730Y870000D01*
X76460Y867460D02*
X77730Y870000D01*
X27460Y367460D02*
X32540D01*
Y372540D01*
X27460D02*
X32540D01*
X27460Y367460D02*
Y372540D01*
X419460Y845460D02*
X422000Y846730D01*
X424540Y845460D01*
X423270Y848000D02*
X424540Y845460D01*
X423270Y848000D02*
X424540Y850540D01*
X422000Y849270D02*
X424540Y850540D01*
X419460D02*
X422000Y849270D01*
X419460Y850540D02*
X420730Y848000D01*
X419460Y845460D02*
X420730Y848000D01*
X507460Y872460D02*
X512540D01*
Y877540D01*
X507460D02*
X512540D01*
X507460Y872460D02*
Y877540D01*
X501460Y892460D02*
X506540D01*
Y897540D01*
X501460D02*
X506540D01*
X501460Y892460D02*
Y897540D01*
X476460Y895460D02*
X479000Y896730D01*
X481540Y895460D01*
X480270Y898000D02*
X481540Y895460D01*
X480270Y898000D02*
X481540Y900540D01*
X479000Y899270D02*
X481540Y900540D01*
X476460D02*
X479000Y899270D01*
X476460Y900540D02*
X477730Y898000D01*
X476460Y895460D02*
X477730Y898000D01*
X401460Y617460D02*
X406540D01*
Y622540D01*
X401460D02*
X406540D01*
X401460Y617460D02*
Y622540D01*
X275460Y570460D02*
X280540D01*
Y575540D01*
X275460D02*
X280540D01*
X275460Y570460D02*
Y575540D01*
X337460Y576460D02*
X342540D01*
Y581540D01*
X337460D02*
X342540D01*
X337460Y576460D02*
Y581540D01*
X377460Y616460D02*
X380000Y617730D01*
X382540Y616460D01*
X381270Y619000D02*
X382540Y616460D01*
X381270Y619000D02*
X382540Y621540D01*
X380000Y620270D02*
X382540Y621540D01*
X377460D02*
X380000Y620270D01*
X377460Y621540D02*
X378730Y619000D01*
X377460Y616460D02*
X378730Y619000D01*
X353460Y599460D02*
X356000Y600730D01*
X358540Y599460D01*
X357270Y602000D02*
X358540Y599460D01*
X357270Y602000D02*
X358540Y604540D01*
X356000Y603270D02*
X358540Y604540D01*
X353460D02*
X356000Y603270D01*
X353460Y604540D02*
X354730Y602000D01*
X353460Y599460D02*
X354730Y602000D01*
X368460Y613460D02*
X373540D01*
Y618540D01*
X368460D02*
X373540D01*
X368460Y613460D02*
Y618540D01*
X289460Y530460D02*
X294540D01*
Y535540D01*
X289460D02*
X294540D01*
X289460Y530460D02*
Y535540D01*
X345460Y899460D02*
X348000Y900730D01*
X350540Y899460D01*
X349270Y902000D02*
X350540Y899460D01*
X349270Y902000D02*
X350540Y904540D01*
X348000Y903270D02*
X350540Y904540D01*
X345460D02*
X348000Y903270D01*
X345460Y904540D02*
X346730Y902000D01*
X345460Y899460D02*
X346730Y902000D01*
X352460Y904460D02*
X357540D01*
Y909540D01*
X352460D02*
X357540D01*
X352460Y904460D02*
Y909540D01*
X67460Y492460D02*
X72540D01*
Y497540D01*
X67460D02*
X72540D01*
X67460Y492460D02*
Y497540D01*
X71460Y445460D02*
X76540D01*
Y450540D01*
X71460D02*
X76540D01*
X71460Y445460D02*
Y450540D01*
X57460Y457460D02*
X62540D01*
Y462540D01*
X57460D02*
X62540D01*
X57460Y457460D02*
Y462540D01*
Y357460D02*
X62540D01*
Y362540D01*
X57460D02*
X62540D01*
X57460Y357460D02*
Y362540D01*
Y377460D02*
X62540D01*
Y382540D01*
X57460D02*
X62540D01*
X57460Y377460D02*
Y382540D01*
Y397460D02*
X62540D01*
Y402540D01*
X57460D02*
X62540D01*
X57460Y397460D02*
Y402540D01*
Y417460D02*
X62540D01*
Y422540D01*
X57460D02*
X62540D01*
X57460Y417460D02*
Y422540D01*
Y437460D02*
X62540D01*
Y442540D01*
X57460D02*
X62540D01*
X57460Y437460D02*
Y442540D01*
X459460Y908460D02*
X462000Y909730D01*
X464540Y908460D01*
X463270Y911000D02*
X464540Y908460D01*
X463270Y911000D02*
X464540Y913540D01*
X462000Y912270D02*
X464540Y913540D01*
X459460D02*
X462000Y912270D01*
X459460Y913540D02*
X460730Y911000D01*
X459460Y908460D02*
X460730Y911000D01*
X425460Y898460D02*
X430540D01*
Y903540D01*
X425460D02*
X430540D01*
X425460Y898460D02*
Y903540D01*
X481460Y903460D02*
X484000Y904730D01*
X486540Y903460D01*
X485270Y906000D02*
X486540Y903460D01*
X485270Y906000D02*
X486540Y908540D01*
X484000Y907270D02*
X486540Y908540D01*
X481460D02*
X484000Y907270D01*
X481460Y908540D02*
X482730Y906000D01*
X481460Y903460D02*
X482730Y906000D01*
X467460Y899460D02*
X472540D01*
Y904540D01*
X467460D02*
X472540D01*
X467460Y899460D02*
Y904540D01*
X101460Y752460D02*
X106540D01*
Y757540D01*
X101460D02*
X106540D01*
X101460Y752460D02*
Y757540D01*
X97460Y760460D02*
X102540D01*
Y765540D01*
X97460D02*
X102540D01*
X97460Y760460D02*
Y765540D01*
X110460Y688460D02*
X115540D01*
Y693540D01*
X110460D02*
X115540D01*
X110460Y688460D02*
Y693540D01*
X71460Y674460D02*
X74000Y675730D01*
X76540Y674460D01*
X75270Y677000D02*
X76540Y674460D01*
X75270Y677000D02*
X76540Y679540D01*
X74000Y678270D02*
X76540Y679540D01*
X71460D02*
X74000Y678270D01*
X71460Y679540D02*
X72730Y677000D01*
X71460Y674460D02*
X72730Y677000D01*
X371460Y890460D02*
X376540D01*
Y895540D01*
X371460D02*
X376540D01*
X371460Y890460D02*
Y895540D01*
X536460Y858460D02*
X539000Y859730D01*
X541540Y858460D01*
X540270Y861000D02*
X541540Y858460D01*
X540270Y861000D02*
X541540Y863540D01*
X539000Y862270D02*
X541540Y863540D01*
X536460D02*
X539000Y862270D01*
X536460Y863540D02*
X537730Y861000D01*
X536460Y858460D02*
X537730Y861000D01*
X225459Y803458D02*
X227999Y804728D01*
X230539Y803458D01*
X229270Y805998D02*
X230539Y803458D01*
X229270Y805998D02*
X230539Y808538D01*
X227999Y807268D02*
X230539Y808538D01*
X225459D02*
X227999Y807268D01*
X225459Y808538D02*
X226730Y805998D01*
X225459Y803458D02*
X226730Y805998D01*
X278460Y900460D02*
X281000Y901730D01*
X283540Y900460D01*
X282270Y903000D02*
X283540Y900460D01*
X282270Y903000D02*
X283540Y905540D01*
X281000Y904270D02*
X283540Y905540D01*
X278460D02*
X281000Y904270D01*
X278460Y905540D02*
X279730Y903000D01*
X278460Y900460D02*
X279730Y903000D01*
X327460Y900460D02*
X330000Y901730D01*
X332540Y900460D01*
X331270Y903000D02*
X332540Y900460D01*
X331270Y903000D02*
X332540Y905540D01*
X330000Y904270D02*
X332540Y905540D01*
X327460D02*
X330000Y904270D01*
X327460Y905540D02*
X328730Y903000D01*
X327460Y900460D02*
X328730Y903000D01*
X407460Y897460D02*
X412540D01*
Y902540D01*
X407460D02*
X412540D01*
X407460Y897460D02*
Y902540D01*
X180460Y897460D02*
X185540D01*
Y902540D01*
X180460D02*
X185540D01*
X180460Y897460D02*
Y902540D01*
X384460Y700460D02*
X389540D01*
Y705540D01*
X384460D02*
X389540D01*
X384460Y700460D02*
Y705540D01*
X253460Y825460D02*
X258540D01*
Y830540D01*
X253460D02*
X258540D01*
X253460Y825460D02*
Y830540D01*
X190460Y855460D02*
X195540D01*
Y860540D01*
X190460D02*
X195540D01*
X190460Y855460D02*
Y860540D01*
X168460Y927460D02*
X173540D01*
Y932540D01*
X168460D02*
X173540D01*
X168460Y927460D02*
Y932540D01*
X143460Y877460D02*
X148540D01*
Y882540D01*
X143460D02*
X148540D01*
X143460Y877460D02*
Y882540D01*
X348460Y60460D02*
X353540D01*
Y65540D01*
X348460D02*
X353540D01*
X348460Y60460D02*
Y65540D01*
X378460Y450460D02*
X383540D01*
Y455540D01*
X378460D02*
X383540D01*
X378460Y450460D02*
Y455540D01*
X425460Y423460D02*
X430540D01*
Y428540D01*
X425460D02*
X430540D01*
X425460Y423460D02*
Y428540D01*
X197460Y87460D02*
X202540D01*
Y92540D01*
X197460D02*
X202540D01*
X197460Y87460D02*
Y92540D01*
Y219460D02*
X202540D01*
Y224540D01*
X197460D02*
X202540D01*
X197460Y219460D02*
Y224540D01*
Y347460D02*
X202540D01*
Y352540D01*
X197460D02*
X202540D01*
X197460Y347460D02*
Y352540D01*
X233460Y673460D02*
X238540D01*
Y678540D01*
X233460D02*
X238540D01*
X233460Y673460D02*
Y678540D01*
X242460Y719460D02*
X247540D01*
Y724540D01*
X242460D02*
X247540D01*
X242460Y719460D02*
Y724540D01*
X274459Y696459D02*
X276999Y697729D01*
X279539Y696459D01*
X278269Y698999D02*
X279539Y696459D01*
X278269Y698999D02*
X279539Y701539D01*
X276999Y700269D02*
X279539Y701539D01*
X274459D02*
X276999Y700269D01*
X274459Y701539D02*
X275729Y698999D01*
X274459Y696459D02*
X275729Y698999D01*
X268460Y700460D02*
X271000Y701730D01*
X273540Y700460D01*
X272270Y703000D02*
X273540Y700460D01*
X272270Y703000D02*
X273540Y705540D01*
X271000Y704270D02*
X273540Y705540D01*
X268460D02*
X271000Y704270D01*
X268460Y705540D02*
X269730Y703000D01*
X268460Y700460D02*
X269730Y703000D01*
X263460Y705460D02*
X266000Y706730D01*
X268540Y705460D01*
X267270Y708000D02*
X268540Y705460D01*
X267270Y708000D02*
X268540Y710540D01*
X266000Y709270D02*
X268540Y710540D01*
X263460D02*
X266000Y709270D01*
X263460Y710540D02*
X264730Y708000D01*
X263460Y705460D02*
X264730Y708000D01*
X258460Y710460D02*
X261000Y711730D01*
X263540Y710460D01*
X262270Y713000D02*
X263540Y710460D01*
X262270Y713000D02*
X263540Y715540D01*
X261000Y714270D02*
X263540Y715540D01*
X258460D02*
X261000Y714270D01*
X258460Y715540D02*
X259730Y713000D01*
X258460Y710460D02*
X259730Y713000D01*
X279460Y691460D02*
X282000Y692730D01*
X284540Y691460D01*
X283270Y694000D02*
X284540Y691460D01*
X283270Y694000D02*
X284540Y696540D01*
X282000Y695270D02*
X284540Y696540D01*
X279460D02*
X282000Y695270D01*
X279460Y696540D02*
X280730Y694000D01*
X279460Y691460D02*
X280730Y694000D01*
X241460Y685460D02*
X246540D01*
Y690540D01*
X241460D02*
X246540D01*
X241460Y685460D02*
Y690540D01*
X250460Y717460D02*
X253000Y718730D01*
X255540Y717460D01*
X254270Y720000D02*
X255540Y717460D01*
X254270Y720000D02*
X255540Y722540D01*
X253000Y721270D02*
X255540Y722540D01*
X250460D02*
X253000Y721270D01*
X250460Y722540D02*
X251730Y720000D01*
X250460Y717460D02*
X251730Y720000D01*
X215460Y724460D02*
X218000Y725730D01*
X220540Y724460D01*
X219270Y727000D02*
X220540Y724460D01*
X219270Y727000D02*
X220540Y729540D01*
X218000Y728270D02*
X220540Y729540D01*
X215460D02*
X218000Y728270D01*
X215460Y729540D02*
X216730Y727000D01*
X215460Y724460D02*
X216730Y727000D01*
X215460Y735460D02*
X218000Y736730D01*
X220540Y735460D01*
X219270Y738000D02*
X220540Y735460D01*
X219270Y738000D02*
X220540Y740540D01*
X218000Y739270D02*
X220540Y740540D01*
X215460D02*
X218000Y739270D01*
X215460Y740540D02*
X216730Y738000D01*
X215460Y735460D02*
X216730Y738000D01*
X221460Y797460D02*
X224000Y798730D01*
X226540Y797460D01*
X225270Y800000D02*
X226540Y797460D01*
X225270Y800000D02*
X226540Y802540D01*
X224000Y801270D02*
X226540Y802540D01*
X221460D02*
X224000Y801270D01*
X221460Y802540D02*
X222730Y800000D01*
X221460Y797460D02*
X222730Y800000D01*
X220460Y790460D02*
X223000Y791730D01*
X225540Y790460D01*
X224270Y793000D02*
X225540Y790460D01*
X224270Y793000D02*
X225540Y795540D01*
X223000Y794270D02*
X225540Y795540D01*
X220460D02*
X223000Y794270D01*
X220460Y795540D02*
X221730Y793000D01*
X220460Y790460D02*
X221730Y793000D01*
X220460Y769460D02*
X223000Y770730D01*
X225540Y769460D01*
X224270Y772000D02*
X225540Y769460D01*
X224270Y772000D02*
X225540Y774540D01*
X223000Y773270D02*
X225540Y774540D01*
X220460D02*
X223000Y773270D01*
X220460Y774540D02*
X221730Y772000D01*
X220460Y769460D02*
X221730Y772000D01*
X97460Y717460D02*
X102540D01*
Y722540D01*
X97460D02*
X102540D01*
X97460Y717460D02*
Y722540D01*
X149460Y842460D02*
X154540D01*
Y847540D01*
X149460D02*
X154540D01*
X149460Y842460D02*
Y847540D01*
X95460Y818460D02*
X100540D01*
Y823540D01*
X95460D02*
X100540D01*
X95460Y818460D02*
Y823540D01*
X76460Y742460D02*
X81540D01*
Y747540D01*
X76460D02*
X81540D01*
X76460Y742460D02*
Y747540D01*
X126460Y675460D02*
X131540D01*
Y680540D01*
X126460D02*
X131540D01*
X126460Y675460D02*
Y680540D01*
X67460Y782460D02*
X72540D01*
Y787540D01*
X67460D02*
X72540D01*
X67460Y782460D02*
Y787540D01*
X136460Y806460D02*
X141540D01*
Y811540D01*
X136460D02*
X141540D01*
X136460Y806460D02*
Y811540D01*
X103460Y792460D02*
X108540D01*
Y797540D01*
X103460D02*
X108540D01*
X103460Y792460D02*
Y797540D01*
X188460Y711460D02*
X193540D01*
Y716540D01*
X188460D02*
X193540D01*
X188460Y711460D02*
Y716540D01*
X152460Y690460D02*
X157540D01*
Y695540D01*
X152460D02*
X157540D01*
X152460Y690460D02*
Y695540D01*
X180460Y655460D02*
X185540D01*
Y660540D01*
X180460D02*
X185540D01*
X180460Y655460D02*
Y660540D01*
X152460Y649460D02*
X157540D01*
Y654540D01*
X152460D02*
X157540D01*
X152460Y649460D02*
Y654540D01*
Y665460D02*
X157540D01*
Y670540D01*
X152460D02*
X157540D01*
X152460Y665460D02*
Y670540D01*
X181460Y633460D02*
X186540D01*
Y638540D01*
X181460D02*
X186540D01*
X181460Y633460D02*
Y638540D01*
X152460Y577460D02*
X157540D01*
Y582540D01*
X152460D02*
X157540D01*
X152460Y577460D02*
Y582540D01*
X151460Y618460D02*
X156540D01*
Y623540D01*
X151460D02*
X156540D01*
X151460Y618460D02*
Y623540D01*
X183460Y587460D02*
X188540D01*
Y592540D01*
X183460D02*
X188540D01*
X183460Y587460D02*
Y592540D01*
X247460Y617460D02*
X252540D01*
Y622540D01*
X247460D02*
X252540D01*
X247460Y617460D02*
Y622540D01*
X292460Y623460D02*
X297540D01*
Y628540D01*
X292460D02*
X297540D01*
X292460Y623460D02*
Y628540D01*
X238460Y588460D02*
X243540D01*
Y593540D01*
X238460D02*
X243540D01*
X238460Y588460D02*
Y593540D01*
X313460Y591460D02*
X318540D01*
Y596540D01*
X313460D02*
X318540D01*
X313460Y591460D02*
Y596540D01*
X323460Y632460D02*
X328540D01*
Y637540D01*
X323460D02*
X328540D01*
X323460Y632460D02*
Y637540D01*
X356460Y585460D02*
X361540D01*
Y590540D01*
X356460D02*
X361540D01*
X356460Y585460D02*
Y590540D01*
X297460Y577460D02*
X302540D01*
Y582540D01*
X297460D02*
X302540D01*
X297460Y577460D02*
Y582540D01*
X197460Y671460D02*
X202540D01*
Y676540D01*
X197460D02*
X202540D01*
X197460Y671460D02*
Y676540D01*
X254460Y685460D02*
X259540D01*
Y690540D01*
X254460D02*
X259540D01*
X254460Y685460D02*
Y690540D01*
X230460Y874460D02*
X235540D01*
Y879540D01*
X230460D02*
X235540D01*
X230460Y874460D02*
Y879540D01*
X293460Y715460D02*
X298540D01*
Y720540D01*
X293460D02*
X298540D01*
X293460Y715460D02*
Y720540D01*
X345460Y707460D02*
X350540D01*
Y712540D01*
X345460D02*
X350540D01*
X345460Y707460D02*
Y712540D01*
X339460Y746460D02*
X344540D01*
Y751540D01*
X339460D02*
X344540D01*
X339460Y746460D02*
Y751540D01*
X221460Y900460D02*
X226540D01*
Y905540D01*
X221460D02*
X226540D01*
X221460Y900460D02*
Y905540D01*
X208460Y887460D02*
X213540D01*
Y892540D01*
X208460D02*
X213540D01*
X208460Y887460D02*
Y892540D01*
X457460Y487460D02*
X462540D01*
Y492540D01*
X457460D02*
X462540D01*
X457460Y487460D02*
Y492540D01*
X451460Y501460D02*
X454000Y502730D01*
X456540Y501460D01*
X455270Y504000D02*
X456540Y501460D01*
X455270Y504000D02*
X456540Y506540D01*
X454000Y505270D02*
X456540Y506540D01*
X451460D02*
X454000Y505270D01*
X451460Y506540D02*
X452730Y504000D01*
X451460Y501460D02*
X452730Y504000D01*
X194460Y790460D02*
X199540D01*
Y795540D01*
X194460D02*
X199540D01*
X194460Y790460D02*
Y795540D01*
X172460Y786460D02*
X177540D01*
Y791540D01*
X172460D02*
X177540D01*
X172460Y786460D02*
Y791540D01*
X190460Y749460D02*
X195540D01*
Y754540D01*
X190460D02*
X195540D01*
X190460Y749460D02*
Y754540D01*
X196460Y778460D02*
X201540D01*
Y783540D01*
X196460D02*
X201540D01*
X196460Y778460D02*
Y783540D01*
X175460Y805460D02*
X180540D01*
Y810540D01*
X175460D02*
X180540D01*
X175460Y805460D02*
Y810540D01*
X193460Y813460D02*
X198540D01*
Y818540D01*
X193460D02*
X198540D01*
X193460Y813460D02*
Y818540D01*
X194460Y827460D02*
X199540D01*
Y832540D01*
X194460D02*
X199540D01*
X194460Y827460D02*
Y832540D01*
X182460Y836460D02*
X187540D01*
Y841540D01*
X182460D02*
X187540D01*
X182460Y836460D02*
Y841540D01*
X174460Y848460D02*
X179540D01*
Y853540D01*
X174460D02*
X179540D01*
X174460Y848460D02*
Y853540D01*
X508460Y510460D02*
X513540D01*
Y515540D01*
X508460D02*
X513540D01*
X508460Y510460D02*
Y515540D01*
X534460Y510460D02*
X539540D01*
Y515540D01*
X534460D02*
X539540D01*
X534460Y510460D02*
Y515540D01*
X502460Y547460D02*
X507540D01*
Y552540D01*
X502460D02*
X507540D01*
X502460Y547460D02*
Y552540D01*
X508460Y543460D02*
X513540D01*
Y548540D01*
X508460D02*
X513540D01*
X508460Y543460D02*
Y548540D01*
Y552460D02*
X513540D01*
Y557540D01*
X508460D02*
X513540D01*
X508460Y552460D02*
Y557540D01*
X547460Y547460D02*
X552540D01*
Y552540D01*
X547460D02*
X552540D01*
X547460Y547460D02*
Y552540D01*
X487460Y561460D02*
X492540D01*
Y566540D01*
X487460D02*
X492540D01*
X487460Y561460D02*
Y566540D01*
X507460Y561460D02*
X512540D01*
Y566540D01*
X507460D02*
X512540D01*
X507460Y561460D02*
Y566540D01*
X525460Y562460D02*
X530540D01*
Y567540D01*
X525460D02*
X530540D01*
X525460Y562460D02*
Y567540D01*
X465460Y542460D02*
X470540D01*
Y547540D01*
X465460D02*
X470540D01*
X465460Y542460D02*
Y547540D01*
X466460Y524460D02*
X471540D01*
Y529540D01*
X466460D02*
X471540D01*
X466460Y524460D02*
Y529540D01*
X465460Y503460D02*
X470540D01*
Y508540D01*
X465460D02*
X470540D01*
X465460Y503460D02*
Y508540D01*
X488460Y499460D02*
X493540D01*
Y504540D01*
X488460D02*
X493540D01*
X488460Y499460D02*
Y504540D01*
X519460Y469460D02*
X524540D01*
Y474540D01*
X519460D02*
X524540D01*
X519460Y469460D02*
Y474540D01*
X498460Y412460D02*
X503540D01*
Y417540D01*
X498460D02*
X503540D01*
X498460Y412460D02*
Y417540D01*
X545460Y362460D02*
X550540D01*
Y367540D01*
X545460D02*
X550540D01*
X545460Y362460D02*
Y367540D01*
X497460Y376460D02*
X502540D01*
Y381540D01*
X497460D02*
X502540D01*
X497460Y376460D02*
Y381540D01*
X530460Y405460D02*
X535540D01*
Y410540D01*
X530460D02*
X535540D01*
X530460Y405460D02*
Y410540D01*
X501460Y387460D02*
X506540D01*
Y392540D01*
X501460D02*
X506540D01*
X501460Y387460D02*
Y392540D01*
X493460Y359460D02*
X498540D01*
Y364540D01*
X493460D02*
X498540D01*
X493460Y359460D02*
Y364540D01*
X450460Y353460D02*
X455540D01*
Y358540D01*
X450460D02*
X455540D01*
X450460Y353460D02*
Y358540D01*
X466460Y395460D02*
X471540D01*
Y400540D01*
X466460D02*
X471540D01*
X466460Y395460D02*
Y400540D01*
X448460Y395460D02*
X453540D01*
Y400540D01*
X448460D02*
X453540D01*
X448460Y395460D02*
Y400540D01*
X406460Y409460D02*
X411540D01*
Y414540D01*
X406460D02*
X411540D01*
X406460Y409460D02*
Y414540D01*
X427460Y399460D02*
X432540D01*
Y404540D01*
X427460D02*
X432540D01*
X427460Y399460D02*
Y404540D01*
X48460Y759460D02*
X53540D01*
Y764540D01*
X48460D02*
X53540D01*
X48460Y759460D02*
Y764540D01*
Y776460D02*
X53540D01*
Y781540D01*
X48460D02*
X53540D01*
X48460Y776460D02*
Y781540D01*
X30460Y777460D02*
X35540D01*
Y782540D01*
X30460D02*
X35540D01*
X30460Y777460D02*
Y782540D01*
X119460Y628460D02*
X124540D01*
Y633540D01*
X119460D02*
X124540D01*
X119460Y628460D02*
Y633540D01*
X102460Y700460D02*
X107540D01*
Y705540D01*
X102460D02*
X107540D01*
X102460Y700460D02*
Y705540D01*
X145460Y742460D02*
X150540D01*
Y747540D01*
X145460D02*
X150540D01*
X145460Y742460D02*
Y747540D01*
X71460Y626460D02*
X74000Y627730D01*
X76540Y626460D01*
X75270Y629000D02*
X76540Y626460D01*
X75270Y629000D02*
X76540Y631540D01*
X74000Y630270D02*
X76540Y631540D01*
X71460D02*
X74000Y630270D01*
X71460Y631540D02*
X72730Y629000D01*
X71460Y626460D02*
X72730Y629000D01*
X63460Y626460D02*
X66000Y627730D01*
X68540Y626460D01*
X67270Y629000D02*
X68540Y626460D01*
X67270Y629000D02*
X68540Y631540D01*
X66000Y630270D02*
X68540Y631540D01*
X63460D02*
X66000Y630270D01*
X63460Y631540D02*
X64730Y629000D01*
X63460Y626460D02*
X64730Y629000D01*
X63460Y674460D02*
X66000Y675730D01*
X68540Y674460D01*
X67270Y677000D02*
X68540Y674460D01*
X67270Y677000D02*
X68540Y679540D01*
X66000Y678270D02*
X68540Y679540D01*
X63460D02*
X66000Y678270D01*
X63460Y679540D02*
X64730Y677000D01*
X63460Y674460D02*
X64730Y677000D01*
X523460Y733460D02*
X528540D01*
Y738540D01*
X523460D02*
X528540D01*
X523460Y733460D02*
Y738540D01*
X431460Y745460D02*
X436540D01*
Y750540D01*
X431460D02*
X436540D01*
X431460Y745460D02*
Y750540D01*
X380460Y763460D02*
X385540D01*
Y768540D01*
X380460D02*
X385540D01*
X380460Y763460D02*
Y768540D01*
X513460Y773460D02*
X518540D01*
Y778540D01*
X513460D02*
X518540D01*
X513460Y773460D02*
Y778540D01*
X512460Y751460D02*
X517540D01*
Y756540D01*
X512460D02*
X517540D01*
X512460Y751460D02*
Y756540D01*
X499460Y742460D02*
X504540D01*
Y747540D01*
X499460D02*
X504540D01*
X499460Y742460D02*
Y747540D01*
X497460Y714460D02*
X502540D01*
Y719540D01*
X497460D02*
X502540D01*
X497460Y714460D02*
Y719540D01*
X489460Y703460D02*
X494540D01*
Y708540D01*
X489460D02*
X494540D01*
X489460Y703460D02*
Y708540D01*
X427460Y715460D02*
X432540D01*
Y720540D01*
X427460D02*
X432540D01*
X427460Y715460D02*
Y720540D01*
X454460Y751460D02*
X459540D01*
Y756540D01*
X454460D02*
X459540D01*
X454460Y751460D02*
Y756540D01*
X465460Y751460D02*
X470540D01*
Y756540D01*
X465460D02*
X470540D01*
X465460Y751460D02*
Y756540D01*
X527460Y718460D02*
X530000Y719730D01*
X532540Y718460D01*
X531270Y721000D02*
X532540Y718460D01*
X531270Y721000D02*
X532540Y723540D01*
X530000Y722270D02*
X532540Y723540D01*
X527460D02*
X530000Y722270D01*
X527460Y723540D02*
X528730Y721000D01*
X527460Y718460D02*
X528730Y721000D01*
X255460Y722460D02*
X258000Y723730D01*
X260540Y722460D01*
X259270Y725000D02*
X260540Y722460D01*
X259270Y725000D02*
X260540Y727540D01*
X258000Y726270D02*
X260540Y727540D01*
X255460D02*
X258000Y726270D01*
X255460Y727540D02*
X256730Y725000D01*
X255460Y722460D02*
X256730Y725000D01*
X331460Y871460D02*
X334000Y872730D01*
X336540Y871460D01*
X335270Y874000D02*
X336540Y871460D01*
X335270Y874000D02*
X336540Y876540D01*
X334000Y875270D02*
X336540Y876540D01*
X331460D02*
X334000Y875270D01*
X331460Y876540D02*
X332730Y874000D01*
X331460Y871460D02*
X332730Y874000D01*
X292460Y867460D02*
X295000Y868730D01*
X297540Y867460D01*
X296270Y870000D02*
X297540Y867460D01*
X296270Y870000D02*
X297540Y872540D01*
X295000Y871270D02*
X297540Y872540D01*
X292460D02*
X295000Y871270D01*
X292460Y872540D02*
X293730Y870000D01*
X292460Y867460D02*
X293730Y870000D01*
X471460Y884460D02*
X474000Y885730D01*
X476540Y884460D01*
X475270Y887000D02*
X476540Y884460D01*
X475270Y887000D02*
X476540Y889540D01*
X474000Y888270D02*
X476540Y889540D01*
X471460D02*
X474000Y888270D01*
X471460Y889540D02*
X472730Y887000D01*
X471460Y884460D02*
X472730Y887000D01*
X537460Y932460D02*
X542540D01*
Y937540D01*
X537460D02*
X542540D01*
X537460Y932460D02*
Y937540D01*
X507460Y934460D02*
X512540D01*
Y939540D01*
X507460D02*
X512540D01*
X507460Y934460D02*
Y939540D01*
X544460Y909460D02*
X549540D01*
Y914540D01*
X544460D02*
X549540D01*
X544460Y909460D02*
Y914540D01*
X197460Y690460D02*
X202540D01*
Y695540D01*
X197460D02*
X202540D01*
X197460Y690460D02*
Y695540D01*
X218460Y696460D02*
X223540D01*
Y701540D01*
X218460D02*
X223540D01*
X218460Y696460D02*
Y701540D01*
X256460Y749460D02*
X259000Y750730D01*
X261540Y749460D01*
X260270Y752000D02*
X261540Y749460D01*
X260270Y752000D02*
X261540Y754540D01*
X259000Y753270D02*
X261540Y754540D01*
X256460D02*
X259000Y753270D01*
X256460Y754540D02*
X257730Y752000D01*
X256460Y749460D02*
X257730Y752000D01*
X244460Y750460D02*
X247000Y751730D01*
X249540Y750460D01*
X248270Y753000D02*
X249540Y750460D01*
X248270Y753000D02*
X249540Y755540D01*
X247000Y754270D02*
X249540Y755540D01*
X244460D02*
X247000Y754270D01*
X244460Y755540D02*
X245730Y753000D01*
X244460Y750460D02*
X245730Y753000D01*
X225460Y760460D02*
X228000Y761730D01*
X230540Y760460D01*
X229270Y763000D02*
X230540Y760460D01*
X229270Y763000D02*
X230540Y765540D01*
X228000Y764270D02*
X230540Y765540D01*
X225460D02*
X228000Y764270D01*
X225460Y765540D02*
X226730Y763000D01*
X225460Y760460D02*
X226730Y763000D01*
X236460Y757460D02*
X239000Y758730D01*
X241540Y757460D01*
X240270Y760000D02*
X241540Y757460D01*
X240270Y760000D02*
X241540Y762540D01*
X239000Y761270D02*
X241540Y762540D01*
X236460D02*
X239000Y761270D01*
X236460Y762540D02*
X237730Y760000D01*
X236460Y757460D02*
X237730Y760000D01*
X259460Y608460D02*
X262000Y609730D01*
X264540Y608460D01*
X263270Y611000D02*
X264540Y608460D01*
X263270Y611000D02*
X264540Y613540D01*
X262000Y612270D02*
X264540Y613540D01*
X259460D02*
X262000Y612270D01*
X259460Y613540D02*
X260730Y611000D01*
X259460Y608460D02*
X260730Y611000D01*
X268460Y613460D02*
X271000Y614730D01*
X273540Y613460D01*
X272270Y616000D02*
X273540Y613460D01*
X272270Y616000D02*
X273540Y618540D01*
X271000Y617270D02*
X273540Y618540D01*
X268460D02*
X271000Y617270D01*
X268460Y618540D02*
X269730Y616000D01*
X268460Y613460D02*
X269730Y616000D01*
X278460Y607460D02*
X281000Y608730D01*
X283540Y607460D01*
X282270Y610000D02*
X283540Y607460D01*
X282270Y610000D02*
X283540Y612540D01*
X281000Y611270D02*
X283540Y612540D01*
X278460D02*
X281000Y611270D01*
X278460Y612540D02*
X279730Y610000D01*
X278460Y607460D02*
X279730Y610000D01*
X364460Y652460D02*
X369540D01*
Y657540D01*
X364460D02*
X369540D01*
X364460Y652460D02*
Y657540D01*
X342460Y622460D02*
X347540D01*
Y627540D01*
X342460D02*
X347540D01*
X342460Y622460D02*
Y627540D01*
X334460Y668460D02*
X339540D01*
Y673540D01*
X334460D02*
X339540D01*
X334460Y668460D02*
Y673540D01*
X311460Y677460D02*
X316540D01*
Y682540D01*
X311460D02*
X316540D01*
X311460Y677460D02*
Y682540D01*
X357460Y677460D02*
X362540D01*
Y682540D01*
X357460D02*
X362540D01*
X357460Y677460D02*
Y682540D01*
X338460Y717460D02*
X343540D01*
Y722540D01*
X338460D02*
X343540D01*
X338460Y717460D02*
Y722540D01*
X357460Y705460D02*
X362540D01*
Y710540D01*
X357460D02*
X362540D01*
X357460Y705460D02*
Y710540D01*
Y722460D02*
X362540D01*
Y727540D01*
X357460D02*
X362540D01*
X357460Y722460D02*
Y727540D01*
X334460Y754460D02*
X337000Y755730D01*
X339540Y754460D01*
X338270Y757000D02*
X339540Y754460D01*
X338270Y757000D02*
X339540Y759540D01*
X337000Y758270D02*
X339540Y759540D01*
X334460D02*
X337000Y758270D01*
X334460Y759540D02*
X335730Y757000D01*
X334460Y754460D02*
X335730Y757000D01*
X375460Y750460D02*
X378000Y751730D01*
X380540Y750460D01*
X379270Y753000D02*
X380540Y750460D01*
X379270Y753000D02*
X380540Y755540D01*
X378000Y754270D02*
X380540Y755540D01*
X375460D02*
X378000Y754270D01*
X375460Y755540D02*
X376730Y753000D01*
X375460Y750460D02*
X376730Y753000D01*
X279460Y863460D02*
X282000Y864730D01*
X284540Y863460D01*
X283270Y866000D02*
X284540Y863460D01*
X283270Y866000D02*
X284540Y868540D01*
X282000Y867270D02*
X284540Y868540D01*
X279460D02*
X282000Y867270D01*
X279460Y868540D02*
X280730Y866000D01*
X279460Y863460D02*
X280730Y866000D01*
X426460Y849460D02*
X429000Y850730D01*
X431540Y849460D01*
X430270Y852000D02*
X431540Y849460D01*
X430270Y852000D02*
X431540Y854540D01*
X429000Y853270D02*
X431540Y854540D01*
X426460D02*
X429000Y853270D01*
X426460Y854540D02*
X427730Y852000D01*
X426460Y849460D02*
X427730Y852000D01*
X265460Y875460D02*
X268000Y876730D01*
X270540Y875460D01*
X269270Y878000D02*
X270540Y875460D01*
X269270Y878000D02*
X270540Y880540D01*
X268000Y879270D02*
X270540Y880540D01*
X265460D02*
X268000Y879270D01*
X265460Y880540D02*
X266730Y878000D01*
X265460Y875460D02*
X266730Y878000D01*
X275460Y876460D02*
X278000Y877730D01*
X280540Y876460D01*
X279270Y879000D02*
X280540Y876460D01*
X279270Y879000D02*
X280540Y881540D01*
X278000Y880270D02*
X280540Y881540D01*
X275460D02*
X278000Y880270D01*
X275460Y881540D02*
X276730Y879000D01*
X275460Y876460D02*
X276730Y879000D01*
X455460Y733460D02*
X458000Y734730D01*
X460540Y733460D01*
X459270Y736000D02*
X460540Y733460D01*
X459270Y736000D02*
X460540Y738540D01*
X458000Y737270D02*
X460540Y738540D01*
X455460D02*
X458000Y737270D01*
X455460Y738540D02*
X456730Y736000D01*
X455460Y733460D02*
X456730Y736000D01*
X460460Y727460D02*
X463000Y728730D01*
X465540Y727460D01*
X464270Y730000D02*
X465540Y727460D01*
X464270Y730000D02*
X465540Y732540D01*
X463000Y731270D02*
X465540Y732540D01*
X460460D02*
X463000Y731270D01*
X460460Y732540D02*
X461730Y730000D01*
X460460Y727460D02*
X461730Y730000D01*
X444460Y726460D02*
X447000Y727730D01*
X449540Y726460D01*
X448270Y729000D02*
X449540Y726460D01*
X448270Y729000D02*
X449540Y731540D01*
X447000Y730270D02*
X449540Y731540D01*
X444460D02*
X447000Y730270D01*
X444460Y731540D02*
X445730Y729000D01*
X444460Y726460D02*
X445730Y729000D01*
X440460Y732460D02*
X443000Y733730D01*
X445540Y732460D01*
X444270Y735000D02*
X445540Y732460D01*
X444270Y735000D02*
X445540Y737540D01*
X443000Y736270D02*
X445540Y737540D01*
X440460D02*
X443000Y736270D01*
X440460Y737540D02*
X441730Y735000D01*
X440460Y732460D02*
X441730Y735000D01*
X234460Y745460D02*
X239540D01*
Y750540D01*
X234460D02*
X239540D01*
X234460Y745460D02*
Y750540D01*
X229460Y720460D02*
X234540D01*
Y725540D01*
X229460D02*
X234540D01*
X229460Y720460D02*
Y725540D01*
X461460Y862460D02*
X464000Y863730D01*
X466540Y862460D01*
X465270Y865000D02*
X466540Y862460D01*
X465270Y865000D02*
X466540Y867540D01*
X464000Y866270D02*
X466540Y867540D01*
X461460D02*
X464000Y866270D01*
X461460Y867540D02*
X462730Y865000D01*
X461460Y862460D02*
X462730Y865000D01*
X470460Y863460D02*
X473000Y864730D01*
X475540Y863460D01*
X474270Y866000D02*
X475540Y863460D01*
X474270Y866000D02*
X475540Y868540D01*
X473000Y867270D02*
X475540Y868540D01*
X470460D02*
X473000Y867270D01*
X470460Y868540D02*
X471730Y866000D01*
X470460Y863460D02*
X471730Y866000D01*
X449460Y833460D02*
X452000Y834730D01*
X454540Y833460D01*
X453270Y836000D02*
X454540Y833460D01*
X453270Y836000D02*
X454540Y838540D01*
X452000Y837270D02*
X454540Y838540D01*
X449460D02*
X452000Y837270D01*
X449460Y838540D02*
X450730Y836000D01*
X449460Y833460D02*
X450730Y836000D01*
X480460Y846460D02*
X483000Y847730D01*
X485540Y846460D01*
X484270Y849000D02*
X485540Y846460D01*
X484270Y849000D02*
X485540Y851540D01*
X483000Y850270D02*
X485540Y851540D01*
X480460D02*
X483000Y850270D01*
X480460Y851540D02*
X481730Y849000D01*
X480460Y846460D02*
X481730Y849000D01*
X107460Y743460D02*
X112540D01*
Y748540D01*
X107460D02*
X112540D01*
X107460Y743460D02*
Y748540D01*
X97460Y743460D02*
X102540D01*
Y748540D01*
X97460D02*
X102540D01*
X97460Y743460D02*
Y748540D01*
X102460Y730460D02*
X107540D01*
Y735540D01*
X102460D02*
X107540D01*
X102460Y730460D02*
Y735540D01*
X107460Y717460D02*
X112540D01*
Y722540D01*
X107460D02*
X112540D01*
X107460Y717460D02*
Y722540D01*
X92460Y753460D02*
X97540D01*
Y758540D01*
X92460D02*
X97540D01*
X92460Y753460D02*
Y758540D01*
X110460Y773460D02*
X115540D01*
Y778540D01*
X110460D02*
X115540D01*
X110460Y773460D02*
Y778540D01*
Y784460D02*
X115540D01*
Y789540D01*
X110460D02*
X115540D01*
X110460Y784460D02*
Y789540D01*
X104460Y778460D02*
X109540D01*
Y783540D01*
X104460D02*
X109540D01*
X104460Y778460D02*
Y783540D01*
X64460Y824460D02*
X69540D01*
Y829540D01*
X64460D02*
X69540D01*
X64460Y824460D02*
Y829540D01*
X127460Y658460D02*
X130000Y659730D01*
X132540Y658460D01*
X131270Y661000D02*
X132540Y658460D01*
X131270Y661000D02*
X132540Y663540D01*
X130000Y662270D02*
X132540Y663540D01*
X127460D02*
X130000Y662270D01*
X127460Y663540D02*
X128730Y661000D01*
X127460Y658460D02*
X128730Y661000D01*
X127460Y639460D02*
X130000Y640730D01*
X132540Y639460D01*
X131270Y642000D02*
X132540Y639460D01*
X131270Y642000D02*
X132540Y644540D01*
X130000Y643270D02*
X132540Y644540D01*
X127460D02*
X130000Y643270D01*
X127460Y644540D02*
X128730Y642000D01*
X127460Y639460D02*
X128730Y642000D01*
X149460Y775460D02*
X154540D01*
Y780540D01*
X149460D02*
X154540D01*
X149460Y775460D02*
Y780540D01*
X63460Y534460D02*
X68540D01*
Y539540D01*
X63460D02*
X68540D01*
X63460Y534460D02*
Y539540D01*
X535460Y893460D02*
X538000Y894730D01*
X540540Y893460D01*
X539270Y896000D02*
X540540Y893460D01*
X539270Y896000D02*
X540540Y898540D01*
X538000Y897270D02*
X540540Y898540D01*
X535460D02*
X538000Y897270D01*
X535460Y898540D02*
X536730Y896000D01*
X535460Y893460D02*
X536730Y896000D01*
X545460Y816460D02*
X550540D01*
Y821540D01*
X545460D02*
X550540D01*
X545460Y816460D02*
Y821540D01*
X564460Y897460D02*
X569540D01*
Y902540D01*
X564460D02*
X569540D01*
X564460Y897460D02*
Y902540D01*
X556460Y841460D02*
X561540D01*
Y846540D01*
X556460D02*
X561540D01*
X556460Y841460D02*
Y846540D01*
X505460Y848460D02*
X510540D01*
Y853540D01*
X505460D02*
X510540D01*
X505460Y848460D02*
Y853540D01*
Y839460D02*
X510540D01*
Y844540D01*
X505460D02*
X510540D01*
X505460Y839460D02*
Y844540D01*
Y856460D02*
X510540D01*
Y861540D01*
X505460D02*
X510540D01*
X505460Y856460D02*
Y861540D01*
X519460Y862460D02*
X524540D01*
Y867540D01*
X519460D02*
X524540D01*
X519460Y862460D02*
Y867540D01*
X527460Y886460D02*
X532540D01*
Y891540D01*
X527460D02*
X532540D01*
X527460Y886460D02*
Y891540D01*
X508460Y914460D02*
X513540D01*
Y919540D01*
X508460D02*
X513540D01*
X508460Y914460D02*
Y919540D01*
X479460Y913460D02*
X484540D01*
Y918540D01*
X479460D02*
X484540D01*
X479460Y913460D02*
Y918540D01*
X543460Y871460D02*
X548540D01*
Y876540D01*
X543460D02*
X548540D01*
X543460Y871460D02*
Y876540D01*
X505460Y376460D02*
X510540D01*
Y381540D01*
X505460D02*
X510540D01*
X505460Y376460D02*
Y381540D01*
X531460Y376460D02*
X536540D01*
Y381540D01*
X531460D02*
X536540D01*
X531460Y376460D02*
Y381540D01*
Y358460D02*
X536540D01*
Y363540D01*
X531460D02*
X536540D01*
X531460Y358460D02*
Y363540D01*
Y367460D02*
X536540D01*
Y372540D01*
X531460D02*
X536540D01*
X531460Y367460D02*
Y372540D01*
X373460Y830460D02*
X376000Y831730D01*
X378540Y830460D01*
X377270Y833000D02*
X378540Y830460D01*
X377270Y833000D02*
X378540Y835540D01*
X376000Y834270D02*
X378540Y835540D01*
X373460D02*
X376000Y834270D01*
X373460Y835540D02*
X374730Y833000D01*
X373460Y830460D02*
X374730Y833000D01*
X408460Y870460D02*
X411000Y871730D01*
X413540Y870460D01*
X412270Y873000D02*
X413540Y870460D01*
X412270Y873000D02*
X413540Y875540D01*
X411000Y874270D02*
X413540Y875540D01*
X408460D02*
X411000Y874270D01*
X408460Y875540D02*
X409730Y873000D01*
X408460Y870460D02*
X409730Y873000D01*
X448460Y861460D02*
X451000Y862730D01*
X453540Y861460D01*
X452270Y864000D02*
X453540Y861460D01*
X452270Y864000D02*
X453540Y866540D01*
X451000Y865270D02*
X453540Y866540D01*
X448460D02*
X451000Y865270D01*
X448460Y866540D02*
X449730Y864000D01*
X448460Y861460D02*
X449730Y864000D01*
X442460Y867460D02*
X445000Y868730D01*
X447540Y867460D01*
X446270Y870000D02*
X447540Y867460D01*
X446270Y870000D02*
X447540Y872540D01*
X445000Y871270D02*
X447540Y872540D01*
X442460D02*
X445000Y871270D01*
X442460Y872540D02*
X443730Y870000D01*
X442460Y867460D02*
X443730Y870000D01*
X409460Y849460D02*
X412000Y850730D01*
X414540Y849460D01*
X413270Y852000D02*
X414540Y849460D01*
X413270Y852000D02*
X414540Y854540D01*
X412000Y853270D02*
X414540Y854540D01*
X409460D02*
X412000Y853270D01*
X409460Y854540D02*
X410730Y852000D01*
X409460Y849460D02*
X410730Y852000D01*
X393460Y749460D02*
X398540D01*
Y754540D01*
X393460D02*
X398540D01*
X393460Y749460D02*
Y754540D01*
X431460Y771460D02*
X436540D01*
Y776540D01*
X431460D02*
X436540D01*
X431460Y771460D02*
Y776540D01*
X323460Y798460D02*
X326000Y799730D01*
X328540Y798460D01*
X327270Y801000D02*
X328540Y798460D01*
X327270Y801000D02*
X328540Y803540D01*
X326000Y802270D02*
X328540Y803540D01*
X323460D02*
X326000Y802270D01*
X323460Y803540D02*
X324730Y801000D01*
X323460Y798460D02*
X324730Y801000D01*
X264460Y745460D02*
X269540D01*
Y750540D01*
X264460D02*
X269540D01*
X264460Y745460D02*
Y750540D01*
X271460Y757460D02*
X276540D01*
Y762540D01*
X271460D02*
X276540D01*
X271460Y757460D02*
Y762540D01*
X314460Y807460D02*
X319540D01*
Y812540D01*
X314460D02*
X319540D01*
X314460Y807460D02*
Y812540D01*
X293460Y785460D02*
X298540D01*
Y790540D01*
X293460D02*
X298540D01*
X293460Y785460D02*
Y790540D01*
X228460Y768460D02*
X233540D01*
Y773540D01*
X228460D02*
X233540D01*
X228460Y768460D02*
Y773540D01*
X246460Y771460D02*
X251540D01*
Y776540D01*
X246460D02*
X251540D01*
X246460Y771460D02*
Y776540D01*
X280460Y803460D02*
X285540D01*
Y808540D01*
X280460D02*
X285540D01*
X280460Y803460D02*
Y808540D01*
X314460Y830460D02*
X319540D01*
Y835540D01*
X314460D02*
X319540D01*
X314460Y830460D02*
Y835540D01*
X336460Y830460D02*
X341540D01*
Y835540D01*
X336460D02*
X341540D01*
X336460Y830460D02*
Y835540D01*
X317460Y849460D02*
X322540D01*
Y854540D01*
X317460D02*
X322540D01*
X317460Y849460D02*
Y854540D01*
X291460Y849460D02*
X296540D01*
Y854540D01*
X291460D02*
X296540D01*
X291460Y849460D02*
Y854540D01*
X256460Y848460D02*
X261540D01*
Y853540D01*
X256460D02*
X261540D01*
X256460Y848460D02*
Y853540D01*
X243460Y874460D02*
X248540D01*
Y879540D01*
X243460D02*
X248540D01*
X243460Y874460D02*
Y879540D01*
X264460Y901460D02*
X269540D01*
Y906540D01*
X264460D02*
X269540D01*
X264460Y901460D02*
Y906540D01*
X310460Y871460D02*
X315540D01*
Y876540D01*
X310460D02*
X315540D01*
X310460Y871460D02*
Y876540D01*
X391460Y884460D02*
X396540D01*
Y889540D01*
X391460D02*
X396540D01*
X391460Y884460D02*
Y889540D01*
X411460Y885460D02*
X416540D01*
Y890540D01*
X411460D02*
X416540D01*
X411460Y885460D02*
Y890540D01*
X451460Y877460D02*
X456540D01*
Y882540D01*
X451460D02*
X456540D01*
X451460Y877460D02*
Y882540D01*
X432460Y935460D02*
X437540D01*
Y940540D01*
X432460D02*
X437540D01*
X432460Y935460D02*
Y940540D01*
X400460Y914460D02*
X405540D01*
Y919540D01*
X400460D02*
X405540D01*
X400460Y914460D02*
Y919540D01*
X431460Y913460D02*
X436540D01*
Y918540D01*
X431460D02*
X436540D01*
X431460Y913460D02*
Y918540D01*
X527460Y914460D02*
X532540D01*
Y919540D01*
X527460D02*
X532540D01*
X527460Y914460D02*
Y919540D01*
X357460Y934460D02*
X362540D01*
Y939540D01*
X357460D02*
X362540D01*
X357460Y934460D02*
Y939540D01*
X302460Y934460D02*
X307540D01*
Y939540D01*
X302460D02*
X307540D01*
X302460Y934460D02*
Y939540D01*
X257460Y934460D02*
X262540D01*
Y939540D01*
X257460D02*
X262540D01*
X257460Y934460D02*
Y939540D01*
X207460Y934460D02*
X212540D01*
Y939540D01*
X207460D02*
X212540D01*
X207460Y934460D02*
Y939540D01*
X142460Y935460D02*
X147540D01*
Y940540D01*
X142460D02*
X147540D01*
X142460Y935460D02*
Y940540D01*
X91460Y936460D02*
X96540D01*
Y941540D01*
X91460D02*
X96540D01*
X91460Y936460D02*
Y941540D01*
X57460Y934460D02*
X62540D01*
Y939540D01*
X57460D02*
X62540D01*
X57460Y934460D02*
Y939540D01*
X30460Y907460D02*
X35540D01*
Y912540D01*
X30460D02*
X35540D01*
X30460Y907460D02*
Y912540D01*
Y857460D02*
X35540D01*
Y862540D01*
X30460D02*
X35540D01*
X30460Y857460D02*
Y862540D01*
Y807460D02*
X35540D01*
Y812540D01*
X30460D02*
X35540D01*
X30460Y807460D02*
Y812540D01*
X21460Y741460D02*
X26540D01*
Y746540D01*
X21460D02*
X26540D01*
X21460Y741460D02*
Y746540D01*
X1460Y727460D02*
X6540D01*
Y732540D01*
X1460D02*
X6540D01*
X1460Y727460D02*
Y732540D01*
X133460Y863460D02*
X138540D01*
Y868540D01*
X133460D02*
X138540D01*
X133460Y863460D02*
Y868540D01*
X67460Y843460D02*
X72540D01*
Y848540D01*
X67460D02*
X72540D01*
X67460Y843460D02*
Y848540D01*
X134460Y823460D02*
X139540D01*
Y828540D01*
X134460D02*
X139540D01*
X134460Y823460D02*
Y828540D01*
X109460Y604460D02*
X114540D01*
Y609540D01*
X109460D02*
X114540D01*
X109460Y604460D02*
Y609540D01*
X108460Y563460D02*
X113540D01*
Y568540D01*
X108460D02*
X113540D01*
X108460Y563460D02*
Y568540D01*
X151460Y563460D02*
X156540D01*
Y568540D01*
X151460D02*
X156540D01*
X151460Y563460D02*
Y568540D01*
X127460Y563460D02*
X132540D01*
Y568540D01*
X127460D02*
X132540D01*
X127460Y563460D02*
Y568540D01*
X163460Y517460D02*
X168540D01*
Y522540D01*
X163460D02*
X168540D01*
X163460Y517460D02*
Y522540D01*
X142460Y517460D02*
X147540D01*
Y522540D01*
X142460D02*
X147540D01*
X142460Y517460D02*
Y522540D01*
X111460Y517460D02*
X116540D01*
Y522540D01*
X111460D02*
X116540D01*
X111460Y517460D02*
Y522540D01*
X37460Y467460D02*
X42540D01*
Y472540D01*
X37460D02*
X42540D01*
X37460Y467460D02*
Y472540D01*
X21460Y549460D02*
X26540D01*
Y554540D01*
X21460D02*
X26540D01*
X21460Y549460D02*
Y554540D01*
X67460Y577460D02*
X72540D01*
Y582540D01*
X67460D02*
X72540D01*
X67460Y577460D02*
Y582540D01*
X66460Y548460D02*
X71540D01*
Y553540D01*
X66460D02*
X71540D01*
X66460Y548460D02*
Y553540D01*
Y519460D02*
X71540D01*
Y524540D01*
X66460D02*
X71540D01*
X66460Y519460D02*
Y524540D01*
X23460Y519460D02*
X28540D01*
Y524540D01*
X23460D02*
X28540D01*
X23460Y519460D02*
Y524540D01*
X27460Y402460D02*
X32540D01*
Y407540D01*
X27460D02*
X32540D01*
X27460Y402460D02*
Y407540D01*
Y327460D02*
X32540D01*
Y332540D01*
X27460D02*
X32540D01*
X27460Y327460D02*
Y332540D01*
Y287460D02*
X32540D01*
Y292540D01*
X27460D02*
X32540D01*
X27460Y287460D02*
Y292540D01*
Y237460D02*
X32540D01*
Y242540D01*
X27460D02*
X32540D01*
X27460Y237460D02*
Y242540D01*
Y187460D02*
X32540D01*
Y192540D01*
X27460D02*
X32540D01*
X27460Y187460D02*
Y192540D01*
Y137460D02*
X32540D01*
Y142540D01*
X27460D02*
X32540D01*
X27460Y137460D02*
Y142540D01*
Y87460D02*
X32540D01*
Y92540D01*
X27460D02*
X32540D01*
X27460Y87460D02*
Y92540D01*
X29460Y37460D02*
X34540D01*
Y42540D01*
X29460D02*
X34540D01*
X29460Y37460D02*
Y42540D01*
X51460Y1460D02*
X56540D01*
Y6540D01*
X51460D02*
X56540D01*
X51460Y1460D02*
Y6540D01*
X87460Y-2540D02*
X92540D01*
Y2540D01*
X87460D02*
X92540D01*
X87460Y-2540D02*
Y2540D01*
X137460Y460D02*
X142540D01*
Y5540D01*
X137460D02*
X142540D01*
X137460Y460D02*
Y5540D01*
X237460Y-2540D02*
X242540D01*
Y2540D01*
X237460D02*
X242540D01*
X237460Y-2540D02*
Y2540D01*
X187460Y-2540D02*
X192540D01*
Y2540D01*
X187460D02*
X192540D01*
X187460Y-2540D02*
Y2540D01*
X287460Y-2540D02*
X292540D01*
Y2540D01*
X287460D02*
X292540D01*
X287460Y-2540D02*
Y2540D01*
X487460Y-2540D02*
X492540D01*
Y2540D01*
X487460D02*
X492540D01*
X487460Y-2540D02*
Y2540D01*
X387460Y-2540D02*
X392540D01*
Y2540D01*
X387460D02*
X392540D01*
X387460Y-2540D02*
Y2540D01*
X437460Y1460D02*
X442540D01*
Y6540D01*
X437460D02*
X442540D01*
X437460Y1460D02*
Y6540D01*
X337460Y-2540D02*
X342540D01*
Y2540D01*
X337460D02*
X342540D01*
X337460Y-2540D02*
Y2540D01*
X567460Y97460D02*
X572540D01*
Y102540D01*
X567460D02*
X572540D01*
X567460Y97460D02*
Y102540D01*
X557460Y17460D02*
X562540D01*
Y22540D01*
X557460D02*
X562540D01*
X557460Y17460D02*
Y22540D01*
X567460Y47460D02*
X572540D01*
Y52540D01*
X567460D02*
X572540D01*
X567460Y47460D02*
Y52540D01*
X537460Y-2540D02*
X542540D01*
Y2540D01*
X537460D02*
X542540D01*
X537460Y-2540D02*
Y2540D01*
X567460Y297460D02*
X572540D01*
Y302540D01*
X567460D02*
X572540D01*
X567460Y297460D02*
Y302540D01*
Y197460D02*
X572540D01*
Y202540D01*
X567460D02*
X572540D01*
X567460Y197460D02*
Y202540D01*
Y247460D02*
X572540D01*
Y252540D01*
X567460D02*
X572540D01*
X567460Y247460D02*
Y252540D01*
Y147460D02*
X572540D01*
Y152540D01*
X567460D02*
X572540D01*
X567460Y147460D02*
Y152540D01*
Y502460D02*
X572540D01*
Y507540D01*
X567460D02*
X572540D01*
X567460Y502460D02*
Y507540D01*
Y397460D02*
X572540D01*
Y402540D01*
X567460D02*
X572540D01*
X567460Y397460D02*
Y402540D01*
Y447460D02*
X572540D01*
Y452540D01*
X567460D02*
X572540D01*
X567460Y447460D02*
Y452540D01*
X519460Y449460D02*
X524540D01*
Y454540D01*
X519460D02*
X524540D01*
X519460Y449460D02*
Y454540D01*
X567460Y677460D02*
X572540D01*
Y682540D01*
X567460D02*
X572540D01*
X567460Y677460D02*
Y682540D01*
Y597460D02*
X572540D01*
Y602540D01*
X567460D02*
X572540D01*
X567460Y597460D02*
Y602540D01*
Y547460D02*
X572540D01*
Y552540D01*
X567460D02*
X572540D01*
X567460Y547460D02*
Y552540D01*
Y877460D02*
X572540D01*
Y882540D01*
X567460D02*
X572540D01*
X567460Y877460D02*
Y882540D01*
Y777460D02*
X572540D01*
Y782540D01*
X567460D02*
X572540D01*
X567460Y777460D02*
Y782540D01*
Y827460D02*
X572540D01*
Y832540D01*
X567460D02*
X572540D01*
X567460Y827460D02*
Y832540D01*
Y727460D02*
X572540D01*
Y732540D01*
X567460D02*
X572540D01*
X567460Y727460D02*
Y732540D01*
X527460Y677460D02*
X532540D01*
Y682540D01*
X527460D02*
X532540D01*
X527460Y677460D02*
Y682540D01*
X467460Y667460D02*
X472540D01*
Y672540D01*
X467460D02*
X472540D01*
X467460Y667460D02*
Y672540D01*
X411460Y641460D02*
X416540D01*
Y646540D01*
X411460D02*
X416540D01*
X411460Y641460D02*
Y646540D01*
X383460Y690460D02*
X388540D01*
Y695540D01*
X383460D02*
X388540D01*
X383460Y690460D02*
Y695540D01*
X384460Y652460D02*
X389540D01*
Y657540D01*
X384460D02*
X389540D01*
X384460Y652460D02*
Y657540D01*
X457460Y627460D02*
X462540D01*
Y632540D01*
X457460D02*
X462540D01*
X457460Y627460D02*
Y632540D01*
X524460Y629460D02*
X529540D01*
Y634540D01*
X524460D02*
X529540D01*
X524460Y629460D02*
Y634540D01*
X368460Y637460D02*
X373540D01*
Y642540D01*
X368460D02*
X373540D01*
X368460Y637460D02*
Y642540D01*
X362460Y529460D02*
X367540D01*
Y534540D01*
X362460D02*
X367540D01*
X362460Y529460D02*
Y534540D01*
X320460Y534460D02*
X325540D01*
Y539540D01*
X320460D02*
X325540D01*
X320460Y534460D02*
Y539540D01*
X274460Y527460D02*
X279540D01*
Y532540D01*
X274460D02*
X279540D01*
X274460Y527460D02*
Y532540D01*
X238460Y528460D02*
X243540D01*
Y533540D01*
X238460D02*
X243540D01*
X238460Y528460D02*
Y533540D01*
X198460Y587460D02*
X203540D01*
Y592540D01*
X198460D02*
X203540D01*
X198460Y587460D02*
Y592540D01*
X238460Y497460D02*
X243540D01*
Y502540D01*
X238460D02*
X243540D01*
X238460Y497460D02*
Y502540D01*
X257460Y467460D02*
X262540D01*
Y472540D01*
X257460D02*
X262540D01*
X257460Y467460D02*
Y472540D01*
X287460Y497460D02*
X292540D01*
Y502540D01*
X287460D02*
X292540D01*
X287460Y497460D02*
Y502540D01*
X337460Y497460D02*
X342540D01*
Y502540D01*
X337460D02*
X342540D01*
X337460Y497460D02*
Y502540D01*
X354460Y497460D02*
X359540D01*
Y502540D01*
X354460D02*
X359540D01*
X354460Y497460D02*
Y502540D01*
X390460Y459460D02*
X395540D01*
Y464540D01*
X390460D02*
X395540D01*
X390460Y459460D02*
Y464540D01*
X443460Y482460D02*
X448540D01*
Y487540D01*
X443460D02*
X448540D01*
X443460Y482460D02*
Y487540D01*
X432460Y462460D02*
X437540D01*
Y467540D01*
X432460D02*
X437540D01*
X432460Y462460D02*
Y467540D01*
X415460Y482460D02*
X420540D01*
Y487540D01*
X415460D02*
X420540D01*
X415460Y482460D02*
Y487540D01*
X404460Y497460D02*
X409540D01*
Y502540D01*
X404460D02*
X409540D01*
X404460Y497460D02*
Y502540D01*
X442460Y497460D02*
X447540D01*
Y502540D01*
X442460D02*
X447540D01*
X442460Y497460D02*
Y502540D01*
X407460Y557460D02*
X412540D01*
Y562540D01*
X407460D02*
X412540D01*
X407460Y557460D02*
Y562540D01*
X353460Y437460D02*
X358540D01*
Y442540D01*
X353460D02*
X358540D01*
X353460Y437460D02*
Y442540D01*
X433460Y441460D02*
X438540D01*
Y446540D01*
X433460D02*
X438540D01*
X433460Y441460D02*
Y446540D01*
X391460Y420460D02*
X396540D01*
Y425540D01*
X391460D02*
X396540D01*
X391460Y420460D02*
Y425540D01*
X338460Y442460D02*
X343540D01*
Y447540D01*
X338460D02*
X343540D01*
X338460Y442460D02*
Y447540D01*
X307460Y407460D02*
X312540D01*
Y412540D01*
X307460D02*
X312540D01*
X307460Y407460D02*
Y412540D01*
X408460Y389460D02*
X413540D01*
Y394540D01*
X408460D02*
X413540D01*
X408460Y389460D02*
Y394540D01*
X423460Y357460D02*
X428540D01*
Y362540D01*
X423460D02*
X428540D01*
X423460Y357460D02*
Y362540D01*
X436460Y327460D02*
X441540D01*
Y332540D01*
X436460D02*
X441540D01*
X436460Y327460D02*
Y332540D01*
X356460Y325460D02*
X361540D01*
Y330540D01*
X356460D02*
X361540D01*
X356460Y325460D02*
Y330540D01*
X357460Y276460D02*
X362540D01*
Y281540D01*
X357460D02*
X362540D01*
X357460Y276460D02*
Y281540D01*
X436460Y311460D02*
X441540D01*
Y316540D01*
X436460D02*
X441540D01*
X436460Y311460D02*
Y316540D01*
X433460Y254460D02*
X438540D01*
Y259540D01*
X433460D02*
X438540D01*
X433460Y254460D02*
Y259540D01*
X462460Y275460D02*
X467540D01*
Y280540D01*
X462460D02*
X467540D01*
X462460Y275460D02*
Y280540D01*
X505460Y280460D02*
X510540D01*
Y285540D01*
X505460D02*
X510540D01*
X505460Y280460D02*
Y285540D01*
X514460Y345460D02*
X519540D01*
Y350540D01*
X514460D02*
X519540D01*
X514460Y345460D02*
Y350540D01*
X547460Y421460D02*
X552540D01*
Y426540D01*
X547460D02*
X552540D01*
X547460Y421460D02*
Y426540D01*
X546460Y483460D02*
X551540D01*
Y488540D01*
X546460D02*
X551540D01*
X546460Y483460D02*
Y488540D01*
X499460Y500460D02*
X504540D01*
Y505540D01*
X499460D02*
X504540D01*
X499460Y500460D02*
Y505540D01*
X267460Y397460D02*
X272540D01*
Y402540D01*
X267460D02*
X272540D01*
X267460Y397460D02*
Y402540D01*
X209460Y429460D02*
X214540D01*
Y434540D01*
X209460D02*
X214540D01*
X209460Y429460D02*
Y434540D01*
X237460Y412460D02*
X242540D01*
Y417540D01*
X237460D02*
X242540D01*
X237460Y412460D02*
Y417540D01*
X207460Y331460D02*
X212540D01*
Y336540D01*
X207460D02*
X212540D01*
X207460Y331460D02*
Y336540D01*
X144460Y339460D02*
X149540D01*
Y344540D01*
X144460D02*
X149540D01*
X144460Y339460D02*
Y344540D01*
X262460Y337460D02*
X267540D01*
Y342540D01*
X262460D02*
X267540D01*
X262460Y337460D02*
Y342540D01*
X257460Y307460D02*
X262540D01*
Y312540D01*
X257460D02*
X262540D01*
X257460Y307460D02*
Y312540D01*
X207460Y307460D02*
X212540D01*
Y312540D01*
X207460D02*
X212540D01*
X207460Y307460D02*
Y312540D01*
X187460Y307460D02*
X192540D01*
Y312540D01*
X187460D02*
X192540D01*
X187460Y307460D02*
Y312540D01*
X181460Y439460D02*
X186540D01*
Y444540D01*
X181460D02*
X186540D01*
X181460Y439460D02*
Y444540D01*
X115460Y500460D02*
X120540D01*
Y505540D01*
X115460D02*
X120540D01*
X115460Y500460D02*
Y505540D01*
X77460Y317460D02*
X82540D01*
Y322540D01*
X77460D02*
X82540D01*
X77460Y317460D02*
Y322540D01*
Y267460D02*
X82540D01*
Y272540D01*
X77460D02*
X82540D01*
X77460Y267460D02*
Y272540D01*
Y207460D02*
X82540D01*
Y212540D01*
X77460D02*
X82540D01*
X77460Y207460D02*
Y212540D01*
X117460Y237460D02*
X122540D01*
Y242540D01*
X117460D02*
X122540D01*
X117460Y237460D02*
Y242540D01*
X187460Y227460D02*
X192540D01*
Y232540D01*
X187460D02*
X192540D01*
X187460Y227460D02*
Y232540D01*
X162460Y202460D02*
X167540D01*
Y207540D01*
X162460D02*
X167540D01*
X162460Y202460D02*
Y207540D01*
X187460Y177460D02*
X192540D01*
Y182540D01*
X187460D02*
X192540D01*
X187460Y177460D02*
Y182540D01*
X77460Y157460D02*
X82540D01*
Y162540D01*
X77460D02*
X82540D01*
X77460Y157460D02*
Y162540D01*
Y108460D02*
X82540D01*
Y113540D01*
X77460D02*
X82540D01*
X77460Y108460D02*
Y113540D01*
Y47460D02*
X82540D01*
Y52540D01*
X77460D02*
X82540D01*
X77460Y47460D02*
Y52540D01*
X186460Y97460D02*
X191540D01*
Y102540D01*
X186460D02*
X191540D01*
X186460Y97460D02*
Y102540D01*
X137460Y137460D02*
X142540D01*
Y142540D01*
X137460D02*
X142540D01*
X137460Y137460D02*
Y142540D01*
X155460Y79460D02*
X160540D01*
Y84540D01*
X155460D02*
X160540D01*
X155460Y79460D02*
Y84540D01*
X257460Y72460D02*
X262540D01*
Y77540D01*
X257460D02*
X262540D01*
X257460Y72460D02*
Y77540D01*
X207460Y47460D02*
X212540D01*
Y52540D01*
X207460D02*
X212540D01*
X207460Y47460D02*
Y52540D01*
X316460Y96460D02*
X321540D01*
Y101540D01*
X316460D02*
X321540D01*
X316460Y96460D02*
Y101540D01*
X314460Y152460D02*
X319540D01*
Y157540D01*
X314460D02*
X319540D01*
X314460Y152460D02*
Y157540D01*
X237460Y127460D02*
X242540D01*
Y132540D01*
X237460D02*
X242540D01*
X237460Y127460D02*
Y132540D01*
X257460Y177460D02*
X262540D01*
Y182540D01*
X257460D02*
X262540D01*
X257460Y177460D02*
Y182540D01*
Y207460D02*
X262540D01*
Y212540D01*
X257460D02*
X262540D01*
X257460Y207460D02*
Y212540D01*
X237460Y257460D02*
X242540D01*
Y262540D01*
X237460D02*
X242540D01*
X237460Y257460D02*
Y262540D01*
X299460Y271460D02*
X304540D01*
Y276540D01*
X299460D02*
X304540D01*
X299460Y271460D02*
Y276540D01*
X200460Y574460D02*
X203000Y575730D01*
X205540Y574460D01*
X204270Y577000D02*
X205540Y574460D01*
X204270Y577000D02*
X205540Y579540D01*
X203000Y578270D02*
X205540Y579540D01*
X200460D02*
X203000Y578270D01*
X200460Y579540D02*
X201730Y577000D01*
X200460Y574460D02*
X201730Y577000D01*
X215460Y575460D02*
X220540D01*
Y580540D01*
X215460D02*
X220540D01*
X215460Y575460D02*
Y580540D01*
X221460Y541460D02*
X224000Y542730D01*
X226540Y541460D01*
X225270Y544000D02*
X226540Y541460D01*
X225270Y544000D02*
X226540Y546540D01*
X224000Y545270D02*
X226540Y546540D01*
X221460D02*
X224000Y545270D01*
X221460Y546540D02*
X222730Y544000D01*
X221460Y541460D02*
X222730Y544000D01*
X210460Y552460D02*
X213000Y553730D01*
X215540Y552460D01*
X214270Y555000D02*
X215540Y552460D01*
X214270Y555000D02*
X215540Y557540D01*
X213000Y556270D02*
X215540Y557540D01*
X210460D02*
X213000Y556270D01*
X210460Y557540D02*
X211730Y555000D01*
X210460Y552460D02*
X211730Y555000D01*
X214460Y546460D02*
X217000Y547730D01*
X219540Y546460D01*
X218270Y549000D02*
X219540Y546460D01*
X218270Y549000D02*
X219540Y551540D01*
X217000Y550270D02*
X219540Y551540D01*
X214460D02*
X217000Y550270D01*
X214460Y551540D02*
X215730Y549000D01*
X214460Y546460D02*
X215730Y549000D01*
X257460Y450460D02*
X262540D01*
Y455540D01*
X257460D02*
X262540D01*
X257460Y450460D02*
Y455540D01*
X397460Y292460D02*
X402540D01*
Y297540D01*
X397460D02*
X402540D01*
X397460Y292460D02*
Y297540D01*
X362460Y255460D02*
X367540D01*
Y260540D01*
X362460D02*
X367540D01*
X362460Y255460D02*
Y260540D01*
X338460Y257460D02*
X343540D01*
Y262540D01*
X338460D02*
X343540D01*
X338460Y257460D02*
Y262540D01*
X339460Y190460D02*
X342000Y191730D01*
X344540Y190460D01*
X343270Y193000D02*
X344540Y190460D01*
X343270Y193000D02*
X344540Y195540D01*
X342000Y194270D02*
X344540Y195540D01*
X339460D02*
X342000Y194270D01*
X339460Y195540D02*
X340730Y193000D01*
X339460Y190460D02*
X340730Y193000D01*
X360460Y196460D02*
X365540D01*
Y201540D01*
X360460D02*
X365540D01*
X360460Y196460D02*
Y201540D01*
X336460Y177460D02*
X341540D01*
Y182540D01*
X336460D02*
X341540D01*
X336460Y177460D02*
Y182540D01*
X359460Y178460D02*
X364540D01*
Y183540D01*
X359460D02*
X364540D01*
X359460Y178460D02*
Y183540D01*
X433460Y197460D02*
X438540D01*
Y202540D01*
X433460D02*
X438540D01*
X433460Y197460D02*
Y202540D01*
Y180460D02*
X438540D01*
Y185540D01*
X433460D02*
X438540D01*
X433460Y180460D02*
Y185540D01*
X495460Y226460D02*
X500540D01*
Y231540D01*
X495460D02*
X500540D01*
X495460Y226460D02*
Y231540D01*
X514460Y264460D02*
X519540D01*
Y269540D01*
X514460D02*
X519540D01*
X514460Y264460D02*
Y269540D01*
X513460Y215460D02*
X518540D01*
Y220540D01*
X513460D02*
X518540D01*
X513460Y215460D02*
Y220540D01*
X512460Y157460D02*
X517540D01*
Y162540D01*
X512460D02*
X517540D01*
X512460Y157460D02*
Y162540D01*
X509460Y125460D02*
X514540D01*
Y130540D01*
X509460D02*
X514540D01*
X509460Y125460D02*
Y130540D01*
X518460Y81460D02*
X523540D01*
Y86540D01*
X518460D02*
X523540D01*
X518460Y81460D02*
Y86540D01*
X532460Y222460D02*
X537540D01*
Y227540D01*
X532460D02*
X537540D01*
X532460Y222460D02*
Y227540D01*
Y272460D02*
X537540D01*
Y277540D01*
X532460D02*
X537540D01*
X532460Y272460D02*
Y277540D01*
X531460Y331460D02*
X536540D01*
Y336540D01*
X531460D02*
X536540D01*
X531460Y331460D02*
Y336540D01*
X567460Y347460D02*
X572540D01*
Y352540D01*
X567460D02*
X572540D01*
X567460Y347460D02*
Y352540D01*
X532460Y177460D02*
X537540D01*
Y182540D01*
X532460D02*
X537540D01*
X532460Y177460D02*
Y182540D01*
X433460Y69460D02*
X438540D01*
Y74540D01*
X433460D02*
X438540D01*
X433460Y69460D02*
Y74540D01*
X412460Y47460D02*
X417540D01*
Y52540D01*
X412460D02*
X417540D01*
X412460Y47460D02*
Y52540D01*
X337460Y47460D02*
X342540D01*
Y52540D01*
X337460D02*
X342540D01*
X337460Y47460D02*
Y52540D01*
X334460Y78460D02*
X339540D01*
Y83540D01*
X334460D02*
X339540D01*
X334460Y78460D02*
Y83540D01*
X369460Y71460D02*
X374540D01*
Y76540D01*
X369460D02*
X374540D01*
X369460Y71460D02*
Y76540D01*
X400460Y102460D02*
X405540D01*
Y107540D01*
X400460D02*
X405540D01*
X400460Y102460D02*
Y107540D01*
X436460Y137460D02*
X441540D01*
Y142540D01*
X436460D02*
X441540D01*
X436460Y137460D02*
Y142540D01*
X337460Y377460D02*
X342540D01*
Y382540D01*
X337460D02*
X342540D01*
X337460Y377460D02*
Y382540D01*
X509460Y762460D02*
X514540D01*
Y767540D01*
X509460D02*
X514540D01*
X509460Y762460D02*
Y767540D01*
X103460Y371460D02*
X108540D01*
Y376540D01*
X103460D02*
X108540D01*
X103460Y371460D02*
Y376540D01*
X72460Y391460D02*
X77540D01*
Y396540D01*
X72460D02*
X77540D01*
X72460Y391460D02*
Y396540D01*
X538460Y451460D02*
X543540D01*
Y456540D01*
X538460D02*
X543540D01*
X538460Y451460D02*
Y456540D01*
X97460Y485460D02*
X102540D01*
Y490540D01*
X97460D02*
X102540D01*
X97460Y485460D02*
Y490540D01*
X356460Y342460D02*
X361540D01*
Y347540D01*
X356460D02*
X361540D01*
X356460Y342460D02*
Y347540D01*
X155460Y466460D02*
X160540D01*
Y471540D01*
X155460D02*
X160540D01*
X155460Y466460D02*
Y471540D01*
X328460Y97460D02*
X333540D01*
Y102540D01*
X328460D02*
X333540D01*
X328460Y97460D02*
Y102540D01*
Y224460D02*
X333540D01*
Y229540D01*
X328460D02*
X333540D01*
X328460Y224460D02*
Y229540D01*
X195460Y472460D02*
X200540D01*
Y477540D01*
X195460D02*
X200540D01*
X195460Y472460D02*
Y477540D01*
X207460Y562460D02*
X210000Y563730D01*
X212540Y562460D01*
X211270Y565000D02*
X212540Y562460D01*
X211270Y565000D02*
X212540Y567540D01*
X210000Y566270D02*
X212540Y567540D01*
X207460D02*
X210000Y566270D01*
X207460Y567540D02*
X208730Y565000D01*
X207460Y562460D02*
X208730Y565000D01*
X205460Y569459D02*
X208000Y570729D01*
X210540Y569459D01*
X209270Y571999D02*
X210540Y569459D01*
X209270Y571999D02*
X210540Y574539D01*
X208000Y573269D02*
X210540Y574539D01*
X205460D02*
X208000Y573269D01*
X205460Y574539D02*
X206730Y571999D01*
X205460Y569459D02*
X206730Y571999D01*
X335460Y348460D02*
X340540D01*
Y353540D01*
X335460D02*
X340540D01*
X335460Y348460D02*
Y353540D01*
X340460Y267460D02*
X345540D01*
Y272540D01*
X340460D02*
X345540D01*
X340460Y267460D02*
Y272540D01*
X240460Y556460D02*
X245540D01*
Y561540D01*
X240460D02*
X245540D01*
X240460Y556460D02*
Y561540D01*
X219460Y568459D02*
X222000Y569729D01*
X224540Y568459D01*
X223270Y570999D02*
X224540Y568459D01*
X223270Y570999D02*
X224540Y573539D01*
X222000Y572269D02*
X224540Y573539D01*
X219460D02*
X222000Y572269D01*
X219460Y573539D02*
X220730Y570999D01*
X219460Y568459D02*
X220730Y570999D01*
X216460Y557460D02*
X219000Y558730D01*
X221540Y557460D01*
X220270Y560000D02*
X221540Y557460D01*
X220270Y560000D02*
X221540Y562540D01*
X219000Y561270D02*
X221540Y562540D01*
X216460D02*
X219000Y561270D01*
X216460Y562540D02*
X217730Y560000D01*
X216460Y557460D02*
X217730Y560000D01*
X547460Y524460D02*
X552540D01*
Y529540D01*
X547460D02*
X552540D01*
X547460Y524460D02*
Y529540D01*
X561460Y515460D02*
X564000Y516730D01*
X566540Y515460D01*
X565270Y518000D02*
X566540Y515460D01*
X565270Y518000D02*
X566540Y520540D01*
X564000Y519270D02*
X566540Y520540D01*
X561460D02*
X564000Y519270D01*
X561460Y520540D02*
X562730Y518000D01*
X561460Y515460D02*
X562730Y518000D01*
X278460Y544460D02*
X281000Y545730D01*
X283540Y544460D01*
X282270Y547000D02*
X283540Y544460D01*
X282270Y547000D02*
X283540Y549540D01*
X281000Y548270D02*
X283540Y549540D01*
X278460D02*
X281000Y548270D01*
X278460Y549540D02*
X279730Y547000D01*
X278460Y544460D02*
X279730Y547000D01*
X382460Y517460D02*
X387540D01*
Y522540D01*
X382460D02*
X387540D01*
X382460Y517460D02*
Y522540D01*
X558460Y530460D02*
X561000Y531730D01*
X563540Y530460D01*
X562270Y533000D02*
X563540Y530460D01*
X562270Y533000D02*
X563540Y535540D01*
X561000Y534270D02*
X563540Y535540D01*
X558460D02*
X561000Y534270D01*
X558460Y535540D02*
X559730Y533000D01*
X558460Y530460D02*
X559730Y533000D01*
X437460Y450460D02*
X442540D01*
Y455540D01*
X437460D02*
X442540D01*
X437460Y450460D02*
Y455540D01*
X381460Y370460D02*
X386540D01*
Y375540D01*
X381460D02*
X386540D01*
X381460Y370460D02*
Y375540D01*
X395460Y229460D02*
X400540D01*
Y234540D01*
X395460D02*
X400540D01*
X395460Y229460D02*
Y234540D01*
X494460Y97460D02*
X499540D01*
Y102540D01*
X494460D02*
X499540D01*
X494460Y97460D02*
Y102540D01*
X281460Y576460D02*
X286540D01*
Y581540D01*
X281460D02*
X286540D01*
X281460Y576460D02*
Y581540D01*
X205460Y375460D02*
X210540D01*
Y380540D01*
X205460D02*
X210540D01*
X205460Y375460D02*
Y380540D01*
X189460Y406460D02*
X194540D01*
Y411540D01*
X189460D02*
X194540D01*
X189460Y406460D02*
Y411540D01*
X308460Y362460D02*
X313540D01*
Y367540D01*
X308460D02*
X313540D01*
X308460Y362460D02*
Y367540D01*
X531460Y350460D02*
X536540D01*
Y355540D01*
X531460D02*
X536540D01*
X531460Y350460D02*
Y355540D01*
X138460Y98460D02*
X143540D01*
Y103540D01*
X138460D02*
X143540D01*
X138460Y98460D02*
Y103540D01*
X315460Y227460D02*
X320540D01*
Y232540D01*
X315460D02*
X320540D01*
X315460Y227460D02*
Y232540D01*
X336460Y213460D02*
X341540D01*
Y218540D01*
X336460D02*
X341540D01*
X336460Y213460D02*
Y218540D01*
X330460Y281460D02*
X335540D01*
Y286540D01*
X330460D02*
X335540D01*
X330460Y281460D02*
Y286540D01*
X516460Y332460D02*
X521540D01*
Y337540D01*
X516460D02*
X521540D01*
X516460Y332460D02*
Y337540D01*
X140460Y354460D02*
X145540D01*
Y359540D01*
X140460D02*
X145540D01*
X140460Y354460D02*
Y359540D01*
X142460Y480460D02*
X147540D01*
Y485540D01*
X142460D02*
X147540D01*
X142460Y480460D02*
Y485540D01*
X464460Y413460D02*
X469540D01*
Y418540D01*
X464460D02*
X469540D01*
X464460Y413460D02*
Y418540D01*
X453460Y703460D02*
X458540D01*
Y708540D01*
X453460D02*
X458540D01*
X453460Y703460D02*
Y708540D01*
X169460Y422460D02*
Y423730D01*
X170730Y425000D01*
X169460Y426270D02*
X170730Y425000D01*
X169460Y426270D02*
Y427540D01*
X170730D01*
X172000Y426270D01*
X173270Y427540D01*
X174540D01*
Y426270D02*
Y427540D01*
X173270Y425000D02*
X174540Y426270D01*
X173270Y425000D02*
X174540Y423730D01*
Y422460D02*
Y423730D01*
X173270Y422460D02*
X174540D01*
X172000Y423730D02*
X173270Y422460D01*
X170730D02*
X172000Y423730D01*
X169460Y422460D02*
X170730D01*
X159300Y371660D02*
Y372930D01*
X160570Y374200D01*
X159300Y375470D02*
X160570Y374200D01*
X159300Y375470D02*
Y376740D01*
X160570D01*
X161840Y375470D01*
X163110Y376740D01*
X164380D01*
Y375470D02*
Y376740D01*
X163110Y374200D02*
X164380Y375470D01*
X163110Y374200D02*
X164380Y372930D01*
Y371660D02*
Y372930D01*
X163110Y371660D02*
X164380D01*
X161840Y372930D02*
X163110Y371660D01*
X160570D02*
X161840Y372930D01*
X159300Y371660D02*
X160570D01*
X179620D02*
Y372930D01*
X180890Y374200D01*
X179620Y375470D02*
X180890Y374200D01*
X179620Y375470D02*
Y376740D01*
X180890D01*
X182160Y375470D01*
X183430Y376740D01*
X184700D01*
Y375470D02*
Y376740D01*
X183430Y374200D02*
X184700Y375470D01*
X183430Y374200D02*
X184700Y372930D01*
Y371660D02*
Y372930D01*
X183430Y371660D02*
X184700D01*
X182160Y372930D02*
X183430Y371660D01*
X180890D02*
X182160Y372930D01*
X179620Y371660D02*
X180890D01*
X575730Y490730D02*
X577000Y489460D01*
X574460Y490730D02*
X575730D01*
X574460D02*
X575730Y492000D01*
X574460Y493270D02*
X575730Y492000D01*
X574460Y493270D02*
X575730D01*
X577000Y494540D01*
X578270Y493270D01*
X579540D01*
X578270Y492000D02*
X579540Y493270D01*
X578270Y492000D02*
X579540Y490730D01*
X578270D02*
X579540D01*
X577000Y489460D02*
X578270Y490730D01*
X575730Y482730D02*
X577000Y481460D01*
X574460Y482730D02*
X575730D01*
X574460D02*
X575730Y484000D01*
X574460Y485270D02*
X575730Y484000D01*
X574460Y485270D02*
X575730D01*
X577000Y486540D01*
X578270Y485270D01*
X579540D01*
X578270Y484000D02*
X579540Y485270D01*
X578270Y484000D02*
X579540Y482730D01*
X578270D02*
X579540D01*
X577000Y481460D02*
X578270Y482730D01*
X575730Y474730D02*
X577000Y473460D01*
X574460Y474730D02*
X575730D01*
X574460D02*
X575730Y476000D01*
X574460Y477270D02*
X575730Y476000D01*
X574460Y477270D02*
X575730D01*
X577000Y478540D01*
X578270Y477270D01*
X579540D01*
X578270Y476000D02*
X579540Y477270D01*
X578270Y476000D02*
X579540Y474730D01*
X578270D02*
X579540D01*
X577000Y473460D02*
X578270Y474730D01*
X575730Y466730D02*
X577000Y465460D01*
X574460Y466730D02*
X575730D01*
X574460D02*
X575730Y468000D01*
X574460Y469270D02*
X575730Y468000D01*
X574460Y469270D02*
X575730D01*
X577000Y470540D01*
X578270Y469270D01*
X579540D01*
X578270Y468000D02*
X579540Y469270D01*
X578270Y468000D02*
X579540Y466730D01*
X578270D02*
X579540D01*
X577000Y465460D02*
X578270Y466730D01*
X20730D02*
X22000Y465460D01*
X19460Y466730D02*
X20730D01*
X19460D02*
X20730Y468000D01*
X19460Y469270D02*
X20730Y468000D01*
X19460Y469270D02*
X20730D01*
X22000Y470540D01*
X23270Y469270D01*
X24540D01*
X23270Y468000D02*
X24540Y469270D01*
X23270Y468000D02*
X24540Y466730D01*
X23270D02*
X24540D01*
X22000Y465460D02*
X23270Y466730D01*
X20730Y474730D02*
X22000Y473460D01*
X19460Y474730D02*
X20730D01*
X19460D02*
X20730Y476000D01*
X19460Y477270D02*
X20730Y476000D01*
X19460Y477270D02*
X20730D01*
X22000Y478540D01*
X23270Y477270D01*
X24540D01*
X23270Y476000D02*
X24540Y477270D01*
X23270Y476000D02*
X24540Y474730D01*
X23270D02*
X24540D01*
X22000Y473460D02*
X23270Y474730D01*
X20730Y482730D02*
X22000Y481460D01*
X19460Y482730D02*
X20730D01*
X19460D02*
X20730Y484000D01*
X19460Y485270D02*
X20730Y484000D01*
X19460Y485270D02*
X20730D01*
X22000Y486540D01*
X23270Y485270D01*
X24540D01*
X23270Y484000D02*
X24540Y485270D01*
X23270Y484000D02*
X24540Y482730D01*
X23270D02*
X24540D01*
X22000Y481460D02*
X23270Y482730D01*
X20730Y490730D02*
X22000Y489460D01*
X19460Y490730D02*
X20730D01*
X19460D02*
X20730Y492000D01*
X19460Y493270D02*
X20730Y492000D01*
X19460Y493270D02*
X20730D01*
X22000Y494540D01*
X23270Y493270D01*
X24540D01*
X23270Y492000D02*
X24540Y493270D01*
X23270Y492000D02*
X24540Y490730D01*
X23270D02*
X24540D01*
X22000Y489460D02*
X23270Y490730D01*
X462476Y591476D02*
X465524D01*
Y594524D01*
X462476D02*
X465524D01*
X462476Y591476D02*
Y594524D01*
X461460Y590460D02*
X466540D01*
Y595540D01*
X461460D02*
X466540D01*
X461460Y590460D02*
Y595540D01*
X568676Y641476D02*
X570200Y642238D01*
X571724Y641476D01*
X570962Y643000D02*
X571724Y641476D01*
X570962Y643000D02*
X571724Y644524D01*
X570200Y643762D02*
X571724Y644524D01*
X568676D02*
X570200Y643762D01*
X568676Y644524D02*
X569438Y643000D01*
X568676Y641476D02*
X569438Y643000D01*
X567660Y640460D02*
X570200Y641730D01*
X572740Y640460D01*
X571470Y643000D02*
X572740Y640460D01*
X571470Y643000D02*
X572740Y645540D01*
X570200Y644270D02*
X572740Y645540D01*
X567660D02*
X570200Y644270D01*
X567660Y645540D02*
X568930Y643000D01*
X567660Y640460D02*
X568930Y643000D01*
X550676Y641476D02*
X552200Y642238D01*
X553724Y641476D01*
X552962Y643000D02*
X553724Y641476D01*
X552962Y643000D02*
X553724Y644524D01*
X552200Y643762D02*
X553724Y644524D01*
X550676D02*
X552200Y643762D01*
X550676Y644524D02*
X551438Y643000D01*
X550676Y641476D02*
X551438Y643000D01*
X549660Y640460D02*
X552200Y641730D01*
X554740Y640460D01*
X553470Y643000D02*
X554740Y640460D01*
X553470Y643000D02*
X554740Y645540D01*
X552200Y644270D02*
X554740Y645540D01*
X549660D02*
X552200Y644270D01*
X549660Y645540D02*
X550930Y643000D01*
X549660Y640460D02*
X550930Y643000D01*
X173446Y127838D02*
X174208D01*
X173446D02*
Y129362D01*
X174208D01*
Y130124D01*
X175732D01*
Y129362D02*
Y130124D01*
Y129362D02*
X176494D01*
Y127838D02*
Y129362D01*
X175732Y127838D02*
X176494D01*
X175732Y127076D02*
Y127838D01*
X174208Y127076D02*
X175732D01*
X174208D02*
Y127838D01*
X172430Y127330D02*
X173700D01*
X172430D02*
Y129870D01*
X173700D01*
Y131140D01*
X176240D01*
Y129870D02*
Y131140D01*
Y129870D02*
X177510D01*
Y127330D02*
Y129870D01*
X176240Y127330D02*
X177510D01*
X176240Y126060D02*
Y127330D01*
X173700Y126060D02*
X176240D01*
X173700D02*
Y127330D01*
X388446Y127838D02*
X389208D01*
X388446D02*
Y129362D01*
X389208D01*
Y130124D01*
X390732D01*
Y129362D02*
Y130124D01*
Y129362D02*
X391494D01*
Y127838D02*
Y129362D01*
X390732Y127838D02*
X391494D01*
X390732Y127076D02*
Y127838D01*
X389208Y127076D02*
X390732D01*
X389208D02*
Y127838D01*
X387430Y127330D02*
X388700D01*
X387430D02*
Y129870D01*
X388700D01*
Y131140D01*
X391240D01*
Y129870D02*
Y131140D01*
Y129870D02*
X392510D01*
Y127330D02*
Y129870D01*
X391240Y127330D02*
X392510D01*
X391240Y126060D02*
Y127330D01*
X388700Y126060D02*
X391240D01*
X388700D02*
Y127330D01*
X10000Y706660D02*
X12540Y711740D01*
X7460D02*
X12540D01*
X7460D02*
X10000Y706660D01*
X47460Y596800D02*
X50000Y594260D01*
X52540Y596800D01*
X50000Y599340D02*
X52540Y596800D01*
X47460D02*
X50000Y599340D01*
X47460Y709200D02*
X50000Y706660D01*
X52540Y709200D01*
X50000Y711740D02*
X52540Y709200D01*
X47460D02*
X50000Y711740D01*
X10000Y594260D02*
X12540Y599340D01*
X7460D02*
X12540D01*
X7460D02*
X10000Y594260D01*
D236*
X-536767Y1074007D02*
Y1062011D01*
Y1068009D01*
X-528769D01*
Y1074007D01*
Y1062011D01*
X-522771D02*
X-518772D01*
X-516773Y1064010D01*
Y1068009D01*
X-518772Y1070008D01*
X-522771D01*
X-524771Y1068009D01*
Y1064010D01*
X-522771Y1062011D01*
X-512774D02*
X-508776D01*
X-510775D01*
Y1074007D01*
X-512774D01*
X-496780Y1062011D02*
X-500778D01*
X-502778Y1064010D01*
Y1068009D01*
X-500778Y1070008D01*
X-496780D01*
X-494780Y1068009D01*
Y1066009D01*
X-502778D01*
X-478785Y1074007D02*
Y1062011D01*
X-470788D01*
X-460791D02*
X-464790D01*
X-466789Y1064010D01*
Y1068009D01*
X-464790Y1070008D01*
X-460791D01*
X-458792Y1068009D01*
Y1066009D01*
X-466789D01*
X-454793Y1062011D02*
Y1070008D01*
X-448795D01*
X-446796Y1068009D01*
Y1062011D01*
X-438798Y1058012D02*
X-436799D01*
X-434800Y1060011D01*
Y1070008D01*
X-440798D01*
X-442797Y1068009D01*
Y1064010D01*
X-440798Y1062011D01*
X-434800D01*
X-428801Y1072007D02*
Y1070008D01*
X-430801D01*
X-426802D01*
X-428801D01*
Y1064010D01*
X-426802Y1062011D01*
X-420804Y1074007D02*
Y1062011D01*
Y1068009D01*
X-418805Y1070008D01*
X-414806D01*
X-412807Y1068009D01*
Y1062011D01*
X-536767Y1083005D02*
Y1095002D01*
X-530769D01*
X-528769Y1093002D01*
Y1089003D01*
X-530769Y1087004D01*
X-536767D01*
X-532768D02*
X-528769Y1083005D01*
X-522771D02*
X-518772D01*
X-516773Y1085005D01*
Y1089003D01*
X-518772Y1091003D01*
X-522771D01*
X-524771Y1089003D01*
Y1085005D01*
X-522771Y1083005D01*
X-512774Y1091003D02*
Y1085005D01*
X-510775Y1083005D01*
X-504777D01*
Y1091003D01*
X-498779Y1093002D02*
Y1091003D01*
X-500778D01*
X-496780D01*
X-498779D01*
Y1085005D01*
X-496780Y1083005D01*
X-484783D02*
X-488782D01*
X-490782Y1085005D01*
Y1089003D01*
X-488782Y1091003D01*
X-484783D01*
X-482784Y1089003D01*
Y1087004D01*
X-490782D01*
X-470788Y1095002D02*
Y1083005D01*
X-476786D01*
X-478785Y1085005D01*
Y1089003D01*
X-476786Y1091003D01*
X-470788D01*
X-454793Y1083005D02*
Y1095002D01*
X-448795D01*
X-446796Y1093002D01*
Y1089003D01*
X-448795Y1087004D01*
X-454793D01*
X-440798Y1091003D02*
X-436799D01*
X-434800Y1089003D01*
Y1083005D01*
X-440798D01*
X-442797Y1085005D01*
X-440798Y1087004D01*
X-434800D01*
X-428801Y1093002D02*
Y1091003D01*
X-430801D01*
X-426802D01*
X-428801D01*
Y1085005D01*
X-426802Y1083005D01*
X-420804Y1095002D02*
Y1083005D01*
Y1089003D01*
X-418805Y1091003D01*
X-414806D01*
X-412807Y1089003D01*
Y1083005D01*
X-396812Y1095002D02*
Y1083005D01*
X-388815D01*
X-378818D02*
X-382816D01*
X-384816Y1085005D01*
Y1089003D01*
X-382816Y1091003D01*
X-378818D01*
X-376818Y1089003D01*
Y1087004D01*
X-384816D01*
X-372820Y1083005D02*
Y1091003D01*
X-366822D01*
X-364822Y1089003D01*
Y1083005D01*
X-356825Y1079007D02*
X-354826D01*
X-352826Y1081006D01*
Y1091003D01*
X-358824D01*
X-360824Y1089003D01*
Y1085005D01*
X-358824Y1083005D01*
X-352826D01*
X-346828Y1093002D02*
Y1091003D01*
X-348827D01*
X-344829D01*
X-346828D01*
Y1085005D01*
X-344829Y1083005D01*
X-338831Y1095002D02*
Y1083005D01*
Y1089003D01*
X-336831Y1091003D01*
X-332833D01*
X-330833Y1089003D01*
Y1083005D01*
X-736707Y1093002D02*
X-738706Y1095002D01*
X-742705D01*
X-744705Y1093002D01*
Y1091003D01*
X-742705Y1089003D01*
X-738706D01*
X-736707Y1087004D01*
Y1085005D01*
X-738706Y1083005D01*
X-742705D01*
X-744705Y1085005D01*
X-732708Y1083005D02*
X-728710D01*
X-730709D01*
Y1095002D01*
X-732708D01*
X-720712Y1083005D02*
X-716713D01*
X-714714Y1085005D01*
Y1089003D01*
X-716713Y1091003D01*
X-720712D01*
X-722712Y1089003D01*
Y1085005D01*
X-720712Y1083005D01*
X-708716Y1093002D02*
Y1091003D01*
X-710715D01*
X-706717D01*
X-708716D01*
Y1085005D01*
X-706717Y1083005D01*
X-680725Y1095002D02*
Y1083005D01*
X-686723D01*
X-688723Y1085005D01*
Y1089003D01*
X-686723Y1091003D01*
X-680725D01*
X-670728Y1083005D02*
X-674727D01*
X-676727Y1085005D01*
Y1089003D01*
X-674727Y1091003D01*
X-670728D01*
X-668729Y1089003D01*
Y1087004D01*
X-676727D01*
X-662731Y1083005D02*
Y1093002D01*
Y1089003D01*
X-664730D01*
X-660732D01*
X-662731D01*
Y1093002D01*
X-660732Y1095002D01*
X-654734Y1083005D02*
X-650735D01*
X-652734D01*
Y1091003D01*
X-654734D01*
X-644737Y1083005D02*
Y1091003D01*
X-638739D01*
X-636739Y1089003D01*
Y1083005D01*
X-632741D02*
X-628742D01*
X-630741D01*
Y1091003D01*
X-632741D01*
X-620745Y1093002D02*
Y1091003D01*
X-622744D01*
X-618745D01*
X-620745D01*
Y1085005D01*
X-618745Y1083005D01*
X-612747D02*
X-608748D01*
X-610748D01*
Y1091003D01*
X-612747D01*
X-600751Y1083005D02*
X-596752D01*
X-594753Y1085005D01*
Y1089003D01*
X-596752Y1091003D01*
X-600751D01*
X-602750Y1089003D01*
Y1085005D01*
X-600751Y1083005D01*
X-590754D02*
Y1091003D01*
X-584756D01*
X-582757Y1089003D01*
Y1083005D01*
X-578758D02*
X-572760D01*
X-570761Y1085005D01*
X-572760Y1087004D01*
X-576759D01*
X-578758Y1089003D01*
X-576759Y1091003D01*
X-570761D01*
X-554766D02*
X-552766D01*
Y1089003D01*
X-554766D01*
Y1091003D01*
Y1085005D02*
X-552766D01*
Y1083005D01*
X-554766D01*
Y1085005D01*
M02*
