G04 Layer_Physical_Order=3*
G04 Layer_Color=12632256*
%FSLAX44Y44*%
%MOMM*%
G71*
G01*
G75*
%ADD48C,0.1500*%
%ADD49C,0.2500*%
%ADD50C,1.0000*%
%ADD51C,0.2000*%
%ADD54C,0.4000*%
%ADD75C,0.0000*%
%ADD76O,2.2000X1.0000*%
%ADD77O,1.8000X1.0000*%
%ADD78C,2.4000*%
%ADD81C,0.6500*%
%ADD82C,0.5500*%
%ADD83C,0.5500*%
%ADD84C,0.5000*%
%ADD85R,1.3000X1.5000*%
G36*
X524004Y942938D02*
X524949D01*
X528215Y942831D01*
X534740Y941972D01*
X541049Y940282D01*
X547083Y937782D01*
X552739Y934517D01*
X557921Y930540D01*
X562539Y925922D01*
X566515Y920741D01*
X569781Y915084D01*
X572280Y909050D01*
X573971Y902741D01*
X574830Y896216D01*
X574937Y892943D01*
X574937Y892943D01*
X574937Y892922D01*
X574938Y892918D01*
X574938Y892916D01*
X574937Y892915D01*
Y892908D01*
X574937Y892907D01*
X574937Y892889D01*
Y647472D01*
X573667Y646997D01*
X572248Y647945D01*
X570200Y648353D01*
X568152Y647945D01*
X566415Y646785D01*
X565255Y645048D01*
X564847Y643000D01*
X565255Y640952D01*
X566415Y639215D01*
X568152Y638055D01*
X570200Y637647D01*
X572248Y638055D01*
X573667Y639003D01*
X574937Y638528D01*
Y502965D01*
X573164Y502114D01*
X569164Y499114D01*
X568859Y498774D01*
X568480Y498520D01*
X568034Y497854D01*
X567499Y497257D01*
X567347Y496826D01*
X567094Y496446D01*
X566937Y495660D01*
X566671Y494904D01*
X566696Y494448D01*
X566607Y494000D01*
Y466000D01*
X566696Y465552D01*
X566671Y465096D01*
X566937Y464340D01*
X567094Y463554D01*
X567347Y463174D01*
X567499Y462743D01*
X568034Y462146D01*
X568480Y461480D01*
X568859Y461226D01*
X569164Y460886D01*
X573164Y457886D01*
X574937Y457035D01*
Y43111D01*
X574937Y43093D01*
X574937Y43092D01*
Y43085D01*
X574938Y43084D01*
X574938Y43082D01*
X574937Y43079D01*
X574937Y43057D01*
X574937Y43057D01*
X574830Y39784D01*
X573971Y33259D01*
X572280Y26950D01*
X569781Y20916D01*
X566515Y15260D01*
X562539Y10078D01*
X557921Y5459D01*
X552739Y1484D01*
X547083Y-1782D01*
X541049Y-4281D01*
X534740Y-5972D01*
X528215Y-6831D01*
X524949Y-6938D01*
X524004D01*
X523986Y-6941D01*
X76018D01*
X76000Y-6938D01*
X75055D01*
X71789Y-6831D01*
X65264Y-5972D01*
X58955Y-4281D01*
X52921Y-1782D01*
X47264Y1484D01*
X42083Y5460D01*
X37464Y10078D01*
X33489Y15260D01*
X30223Y20916D01*
X27724Y26950D01*
X26033Y33259D01*
X25174Y39784D01*
X25067Y43057D01*
X25067Y43057D01*
X25067Y43079D01*
X25066Y43082D01*
X25066Y43084D01*
X25066Y43085D01*
Y43092D01*
X25067Y43093D01*
X25066Y43109D01*
Y457517D01*
X25836Y457886D01*
X29836Y460886D01*
X30141Y461226D01*
X30520Y461480D01*
X30966Y462146D01*
X31501Y462743D01*
X31653Y463174D01*
X31906Y463554D01*
X32063Y464340D01*
X32329Y465096D01*
X32304Y465552D01*
X32393Y466000D01*
Y494000D01*
X32304Y494448D01*
X32329Y494904D01*
X32063Y495660D01*
X31906Y496446D01*
X31653Y496826D01*
X31501Y497257D01*
X30966Y497854D01*
X30520Y498520D01*
X30141Y498774D01*
X29836Y499114D01*
X25836Y502114D01*
X25063Y502485D01*
Y502907D01*
X25063Y502921D01*
X25063Y502922D01*
Y502926D01*
X25062Y502928D01*
X25063Y502930D01*
X25063Y502948D01*
X25062Y502954D01*
X25063Y502961D01*
X25063Y502979D01*
X25062Y502986D01*
X25063Y502992D01*
Y504972D01*
X25004Y505267D01*
Y505568D01*
X24236Y509433D01*
X24120Y509711D01*
X24062Y510007D01*
X22554Y513647D01*
X22386Y513898D01*
X22271Y514176D01*
X20082Y517452D01*
X19869Y517665D01*
X19701Y517916D01*
X16915Y520702D01*
X16665Y520869D01*
X16452Y521082D01*
X13175Y523272D01*
X12897Y523387D01*
X12646Y523554D01*
X9006Y525062D01*
X8711Y525121D01*
X8432Y525236D01*
X4568Y526005D01*
X4266D01*
X3971Y526064D01*
X1987D01*
X1977Y526062D01*
X1967Y526064D01*
X1939Y526064D01*
X1932Y526062D01*
X1925Y526063D01*
X1897Y526063D01*
X1892Y526062D01*
X1889Y526063D01*
X1883D01*
X1881Y526063D01*
X1859Y526063D01*
X-1937D01*
Y602742D01*
X51000D01*
X51981Y602937D01*
X51995D01*
X53166Y603170D01*
X55005Y603932D01*
X55997Y604595D01*
X57405Y606003D01*
X58068Y606995D01*
X58830Y608834D01*
X59063Y610005D01*
Y611865D01*
X58961Y612376D01*
X58885Y612891D01*
X58305Y614520D01*
X58038Y614967D01*
X57793Y615427D01*
X56700Y616767D01*
X56298Y617099D01*
X55914Y617450D01*
X55097Y617944D01*
X55063Y682762D01*
Y688035D01*
X55914Y688550D01*
X56298Y688901D01*
X56700Y689233D01*
X57793Y690573D01*
X58038Y691033D01*
X58305Y691480D01*
X58885Y693109D01*
X58961Y693624D01*
X59063Y694135D01*
Y695995D01*
X58830Y697166D01*
X58068Y699005D01*
X57405Y699997D01*
X55997Y701405D01*
X55005Y702068D01*
X53166Y702830D01*
X51995Y703063D01*
X-1937D01*
Y739937D01*
X2012D01*
X2019Y739939D01*
X2025Y739938D01*
X2050Y739938D01*
X2059Y739939D01*
X2069Y739938D01*
X2093Y739938D01*
X2100Y739939D01*
X2106Y739938D01*
X2131Y739938D01*
X2131Y739939D01*
X4078Y739948D01*
X4372Y740008D01*
X4673Y740009D01*
X8522Y740792D01*
X8799Y740908D01*
X9093Y740968D01*
X12716Y742485D01*
X12966Y742653D01*
X13243Y742768D01*
X16502Y744961D01*
X16714Y745173D01*
X16963Y745341D01*
X19734Y748125D01*
X19900Y748375D01*
X20112Y748588D01*
X22288Y751858D01*
X22403Y752136D01*
X22569Y752386D01*
X24068Y756017D01*
X24126Y756311D01*
X24241Y756589D01*
X25005Y760442D01*
X25004Y760742D01*
X25063Y761037D01*
Y763010D01*
X25062Y763016D01*
X25063Y763023D01*
X25063Y763041D01*
X25062Y763047D01*
X25063Y763054D01*
X25063Y763072D01*
X25062Y763074D01*
X25063Y763075D01*
Y763080D01*
X25063Y763081D01*
X25063Y763095D01*
Y915936D01*
X25121Y917712D01*
X25587Y921254D01*
X26499Y924657D01*
X27847Y927911D01*
X29608Y930962D01*
X31753Y933757D01*
X34244Y936248D01*
X37039Y938392D01*
X40089Y940154D01*
X43344Y941502D01*
X46747Y942414D01*
X50289Y942880D01*
X52051Y942938D01*
X52996D01*
X53015Y942942D01*
X523986D01*
X524004Y942938D01*
D02*
G37*
%LPC*%
G36*
X454000Y508078D02*
X452439Y507768D01*
X451116Y506884D01*
X450232Y505561D01*
X449922Y504000D01*
X450232Y502439D01*
X451116Y501116D01*
X452439Y500232D01*
X454000Y499922D01*
X455561Y500232D01*
X456884Y501116D01*
X457768Y502439D01*
X458078Y504000D01*
X457768Y505561D01*
X456884Y506884D01*
X455561Y507768D01*
X454000Y508078D01*
D02*
G37*
G36*
X68000Y508000D02*
X52000D01*
Y492000D01*
X68000D01*
Y508000D01*
D02*
G37*
G36*
X502000Y507588D02*
X500244Y507239D01*
X498756Y506244D01*
X497761Y504756D01*
X497412Y503000D01*
X497761Y501244D01*
X498756Y499756D01*
X500244Y498761D01*
X502000Y498412D01*
X503756Y498761D01*
X505244Y499756D01*
X506239Y501244D01*
X506588Y503000D01*
X506239Y504756D01*
X505244Y506244D01*
X503756Y507239D01*
X502000Y507588D01*
D02*
G37*
G36*
X191000Y537588D02*
X189244Y537239D01*
X187756Y536244D01*
X186761Y534756D01*
X186412Y533000D01*
X186761Y531244D01*
X187756Y529756D01*
X189244Y528761D01*
X191000Y528412D01*
X192756Y528761D01*
X194244Y529756D01*
X195239Y531244D01*
X195588Y533000D01*
X195239Y534756D01*
X194244Y536244D01*
X192756Y537239D01*
X191000Y537588D01*
D02*
G37*
G36*
X113000Y791588D02*
X111244Y791239D01*
X109756Y790244D01*
X108761Y788756D01*
X108412Y787000D01*
X108494Y786586D01*
X107414Y785506D01*
X107000Y785588D01*
X105244Y785239D01*
X103756Y784244D01*
X102761Y782756D01*
X102412Y781000D01*
X102761Y779244D01*
X103756Y777756D01*
X105244Y776761D01*
X107000Y776412D01*
X107310Y776473D01*
X108490Y775605D01*
X108761Y774244D01*
X109756Y772756D01*
X111244Y771761D01*
X113000Y771412D01*
X114756Y771761D01*
X116244Y772756D01*
X117239Y774244D01*
X117588Y776000D01*
X117239Y777756D01*
X116244Y779244D01*
X114756Y780239D01*
X113000Y780588D01*
X112242Y781460D01*
X112240Y781488D01*
X113000Y782412D01*
X114756Y782761D01*
X116244Y783756D01*
X117239Y785244D01*
X117588Y787000D01*
X117239Y788756D01*
X116244Y790244D01*
X114756Y791239D01*
X113000Y791588D01*
D02*
G37*
G36*
X173000Y514588D02*
X171244Y514239D01*
X169756Y513244D01*
X168761Y511756D01*
X168412Y510000D01*
X168761Y508244D01*
X169756Y506756D01*
X171244Y505761D01*
X173000Y505412D01*
X174756Y505761D01*
X176244Y506756D01*
X177239Y508244D01*
X177588Y510000D01*
X177239Y511756D01*
X176244Y513244D01*
X174756Y514239D01*
X173000Y514588D01*
D02*
G37*
G36*
X564000Y522078D02*
X562439Y521768D01*
X561116Y520884D01*
X560232Y519561D01*
X559922Y518000D01*
X560232Y516439D01*
X561116Y515116D01*
X562439Y514232D01*
X564000Y513922D01*
X565561Y514232D01*
X566884Y515116D01*
X567768Y516439D01*
X568078Y518000D01*
X567768Y519561D01*
X566884Y520884D01*
X565561Y521768D01*
X564000Y522078D01*
D02*
G37*
G36*
X440000Y457588D02*
X438244Y457239D01*
X436756Y456244D01*
X435761Y454756D01*
X435412Y453000D01*
X435761Y451244D01*
X436756Y449756D01*
X438244Y448761D01*
X440000Y448412D01*
X441756Y448761D01*
X443244Y449756D01*
X444239Y451244D01*
X444588Y453000D01*
X444239Y454756D01*
X443244Y456244D01*
X441756Y457239D01*
X440000Y457588D01*
D02*
G37*
G36*
X541000Y458588D02*
X539244Y458239D01*
X537756Y457244D01*
X536761Y455756D01*
X536412Y454000D01*
X536761Y452244D01*
X537756Y450756D01*
X539244Y449761D01*
X541000Y449412D01*
X542756Y449761D01*
X544244Y450756D01*
X545239Y452244D01*
X545588Y454000D01*
X545239Y455756D01*
X544244Y457244D01*
X542756Y458239D01*
X541000Y458588D01*
D02*
G37*
G36*
X260000Y457588D02*
X258244Y457239D01*
X256756Y456244D01*
X255761Y454756D01*
X255412Y453000D01*
X255761Y451244D01*
X256756Y449756D01*
X258244Y448761D01*
X260000Y448412D01*
X261756Y448761D01*
X263244Y449756D01*
X264239Y451244D01*
X264588Y453000D01*
X264239Y454756D01*
X263244Y456244D01*
X261756Y457239D01*
X260000Y457588D01*
D02*
G37*
G36*
X381000D02*
X379244Y457239D01*
X377756Y456244D01*
X376761Y454756D01*
X376412Y453000D01*
X376761Y451244D01*
X377756Y449756D01*
X379244Y448761D01*
X381000Y448412D01*
X382756Y448761D01*
X384244Y449756D01*
X385239Y451244D01*
X385588Y453000D01*
X385239Y454756D01*
X384244Y456244D01*
X382756Y457239D01*
X381000Y457588D01*
D02*
G37*
G36*
X115000Y853533D02*
X111618Y853200D01*
X108367Y852214D01*
X105370Y850612D01*
X102743Y848457D01*
X100588Y845830D01*
X98986Y842833D01*
X98000Y839582D01*
X97667Y836200D01*
X98000Y832818D01*
X98986Y829567D01*
X100588Y826570D01*
X102743Y823943D01*
X105370Y821788D01*
X108367Y820186D01*
X111618Y819200D01*
X115000Y818867D01*
X118382Y819200D01*
X121633Y820186D01*
X124630Y821788D01*
X127257Y823943D01*
X129412Y826570D01*
X131014Y829567D01*
X132000Y832818D01*
X132333Y836200D01*
X132000Y839582D01*
X131014Y842833D01*
X129412Y845830D01*
X127257Y848457D01*
X124630Y850612D01*
X121633Y852214D01*
X118382Y853200D01*
X115000Y853533D01*
D02*
G37*
G36*
X460000Y494588D02*
X458244Y494239D01*
X456756Y493244D01*
X455761Y491756D01*
X455412Y490000D01*
X455761Y488244D01*
X456756Y486756D01*
X458244Y485761D01*
X460000Y485412D01*
X461756Y485761D01*
X463244Y486756D01*
X464239Y488244D01*
X464588Y490000D01*
X464239Y491756D01*
X463244Y493244D01*
X461756Y494239D01*
X460000Y494588D01*
D02*
G37*
G36*
X60000Y464588D02*
X58244Y464239D01*
X56756Y463244D01*
X55761Y461756D01*
X55412Y460000D01*
X55761Y458244D01*
X56756Y456756D01*
X58244Y455761D01*
X60000Y455412D01*
X61756Y455761D01*
X63244Y456756D01*
X64239Y458244D01*
X64588Y460000D01*
X64239Y461756D01*
X63244Y463244D01*
X61756Y464239D01*
X60000Y464588D01*
D02*
G37*
G36*
X198000Y479588D02*
X196244Y479239D01*
X194756Y478244D01*
X193761Y476756D01*
X193412Y475000D01*
X193761Y473244D01*
X194756Y471756D01*
X196244Y470761D01*
X198000Y470412D01*
X199756Y470761D01*
X201244Y471756D01*
X202239Y473244D01*
X202253Y473315D01*
X203548D01*
X203761Y472244D01*
X204756Y470756D01*
X206244Y469761D01*
X208000Y469412D01*
X209756Y469761D01*
X211244Y470756D01*
X212239Y472244D01*
X212588Y474000D01*
X212239Y475756D01*
X211244Y477244D01*
X209756Y478239D01*
X208000Y478588D01*
X206244Y478239D01*
X204756Y477244D01*
X203761Y475756D01*
X203747Y475685D01*
X202452D01*
X202239Y476756D01*
X201244Y478244D01*
X199756Y479239D01*
X198000Y479588D01*
D02*
G37*
G36*
X561000Y537078D02*
X559439Y536768D01*
X558116Y535884D01*
X557232Y534561D01*
X556922Y533000D01*
X557232Y531439D01*
X558116Y530116D01*
X559439Y529232D01*
X561000Y528922D01*
X562561Y529232D01*
X563884Y530116D01*
X564768Y531439D01*
X565078Y533000D01*
X564768Y534561D01*
X563884Y535884D01*
X562561Y536768D01*
X561000Y537078D01*
D02*
G37*
G36*
X130000Y665078D02*
X128439Y664768D01*
X127116Y663884D01*
X126232Y662561D01*
X125922Y661000D01*
X126232Y659439D01*
X127116Y658116D01*
X128439Y657232D01*
X130000Y656922D01*
X131561Y657232D01*
X132884Y658116D01*
X133768Y659439D01*
X134078Y661000D01*
X133768Y662561D01*
X132884Y663884D01*
X131561Y664768D01*
X130000Y665078D01*
D02*
G37*
G36*
X72000Y660078D02*
X70439Y659768D01*
X69116Y658884D01*
X68232Y657561D01*
X67922Y656000D01*
X68232Y654439D01*
X69116Y653116D01*
X70439Y652232D01*
X72000Y651922D01*
X73561Y652232D01*
X74884Y653116D01*
X75768Y654439D01*
X76078Y656000D01*
X75768Y657561D01*
X74884Y658884D01*
X73561Y659768D01*
X72000Y660078D01*
D02*
G37*
G36*
X71000Y649078D02*
X69439Y648768D01*
X68116Y647884D01*
X67232Y646561D01*
X66922Y645000D01*
X67232Y643439D01*
X68116Y642116D01*
X69439Y641232D01*
X71000Y640922D01*
X72561Y641232D01*
X73884Y642116D01*
X74768Y643439D01*
X75078Y645000D01*
X74768Y646561D01*
X73884Y647884D01*
X72561Y648768D01*
X71000Y649078D01*
D02*
G37*
G36*
X199000Y907353D02*
X181000D01*
X180043Y906957D01*
X177043Y903957D01*
X176647Y903000D01*
Y855389D01*
X176798Y855025D01*
X176875Y854638D01*
X176990Y854561D01*
X177043Y854433D01*
X177408Y854281D01*
X177736Y854062D01*
X178228Y853964D01*
X179269Y853269D01*
X179964Y852228D01*
X180209Y851000D01*
X179964Y849772D01*
X179269Y848731D01*
X178228Y848036D01*
X177736Y847938D01*
X177408Y847719D01*
X177043Y847567D01*
X176990Y847439D01*
X176875Y847362D01*
X176798Y846975D01*
X176647Y846611D01*
X176647Y812588D01*
X176732Y812383D01*
X176716Y812160D01*
X176839Y812019D01*
X176875Y811836D01*
X176990Y811760D01*
X177043Y811631D01*
X177249Y811546D01*
X177395Y811378D01*
X177581Y811365D01*
X177736Y811261D01*
X179228Y810964D01*
X180269Y810269D01*
X180964Y809228D01*
X181209Y808000D01*
X180964Y806772D01*
X180269Y805731D01*
X179228Y805036D01*
X177736Y804739D01*
X177581Y804635D01*
X177395Y804622D01*
X177249Y804454D01*
X177043Y804369D01*
X176990Y804240D01*
X176875Y804164D01*
X176839Y803981D01*
X176716Y803840D01*
X176732Y803617D01*
X176647Y803412D01*
Y792408D01*
X176700Y792280D01*
X176673Y792144D01*
X176892Y791815D01*
X177043Y791451D01*
X177171Y791398D01*
X177248Y791283D01*
X177269Y791269D01*
X177964Y790228D01*
X178209Y789000D01*
X177964Y787772D01*
X177269Y786731D01*
X177248Y786717D01*
X177171Y786602D01*
X177043Y786549D01*
X176892Y786184D01*
X176673Y785856D01*
X176700Y785721D01*
X176647Y785592D01*
Y669013D01*
X176763Y668732D01*
X176780Y668428D01*
X176954Y668272D01*
X177043Y668057D01*
X177324Y667940D01*
X177551Y667737D01*
X178726Y667324D01*
X178937Y667080D01*
X178922Y667000D01*
X179232Y665439D01*
X180116Y664116D01*
X181439Y663232D01*
X182925Y662937D01*
X183492Y662088D01*
X183644Y661831D01*
X183670Y661792D01*
X183667Y661723D01*
X183698Y661636D01*
X183965Y661344D01*
X184063Y661151D01*
X184108Y661137D01*
X184219Y660970D01*
X185269Y660269D01*
X185964Y659228D01*
X186209Y658000D01*
X185964Y656772D01*
X185269Y655731D01*
X184228Y655036D01*
X183000Y654791D01*
X181772Y655036D01*
X180731Y655731D01*
X180395Y656234D01*
X180119Y656419D01*
X179908Y656676D01*
X179704Y656696D01*
X179534Y656809D01*
X179208Y656745D01*
X178877Y656777D01*
X177607Y656392D01*
X177350Y656181D01*
X177043Y656054D01*
X176965Y655865D01*
X176807Y655735D01*
X176774Y655404D01*
X176647Y655097D01*
Y648013D01*
X176763Y647732D01*
X176780Y647428D01*
X176954Y647272D01*
X177043Y647057D01*
X177324Y646940D01*
X177551Y646737D01*
X177732Y646673D01*
X177732Y645327D01*
X177551Y645263D01*
X177324Y645060D01*
X177043Y644943D01*
X176954Y644728D01*
X176780Y644572D01*
X176763Y644268D01*
X176647Y643987D01*
Y575000D01*
X177043Y574043D01*
X204043Y547043D01*
X205000Y546647D01*
X212120D01*
X212185Y546674D01*
X212252Y546654D01*
X212655Y546869D01*
X213076Y547043D01*
X213993Y546301D01*
X214116Y546116D01*
X215439Y545232D01*
X217000Y544922D01*
X218561Y545232D01*
X218920Y545472D01*
X220063Y544708D01*
X219922Y544000D01*
X220232Y542439D01*
X221116Y541116D01*
X222439Y540232D01*
X224000Y539922D01*
X225561Y540232D01*
X226884Y541116D01*
X227768Y542439D01*
X228078Y544000D01*
X227805Y545377D01*
X228235Y546434D01*
X228349Y546647D01*
X276992Y546647D01*
X277232Y545439D01*
X278116Y544116D01*
X279439Y543232D01*
X281000Y542922D01*
X282561Y543232D01*
X283884Y544116D01*
X284768Y545439D01*
X285008Y546647D01*
X324459D01*
X335840Y538882D01*
X336232Y538800D01*
X336603Y538647D01*
X356000D01*
X356957Y539043D01*
X362957Y545043D01*
X363353Y546000D01*
X363353Y583081D01*
X363304Y583199D01*
X363331Y583323D01*
X363112Y583663D01*
X362957Y584038D01*
X362839Y584086D01*
X362770Y584193D01*
X361730Y584913D01*
X361722Y584915D01*
X361717Y584921D01*
X361217Y585024D01*
X360718Y585131D01*
X360711Y585127D01*
X360703Y585129D01*
X360473Y585084D01*
X360470Y585082D01*
X360466Y585083D01*
X359000Y584791D01*
X357772Y585036D01*
X356731Y585731D01*
X356036Y586772D01*
X355791Y588000D01*
X356036Y589228D01*
X356731Y590269D01*
X357772Y590964D01*
X359000Y591209D01*
X360466Y590917D01*
X360470Y590918D01*
X360473Y590916D01*
X360703Y590871D01*
X360711Y590873D01*
X360718Y590868D01*
X361217Y590976D01*
X361717Y591079D01*
X361722Y591085D01*
X361730Y591087D01*
X362770Y591807D01*
X362839Y591914D01*
X362957Y591963D01*
X363112Y592337D01*
X363331Y592677D01*
X363304Y592802D01*
X363353Y592919D01*
Y611922D01*
X363514Y612223D01*
X363561Y612232D01*
X364884Y613116D01*
X365768Y614439D01*
X366078Y616000D01*
X365768Y617561D01*
X364884Y618884D01*
X363561Y619768D01*
X363514Y619777D01*
X363353Y620078D01*
X363353Y668439D01*
X383712Y688799D01*
X383798Y689005D01*
X383966Y689150D01*
X383979Y689337D01*
X384083Y689492D01*
X384056Y689628D01*
X384109Y689756D01*
X384023Y689961D01*
X384039Y690183D01*
X384039Y690184D01*
X383917Y690324D01*
X383881Y690507D01*
X383036Y691772D01*
X382791Y693000D01*
X383036Y694228D01*
X383731Y695269D01*
X384772Y695964D01*
X386000Y696209D01*
X387228Y695964D01*
X388493Y695119D01*
X388675Y695083D01*
X388816Y694961D01*
X389039Y694977D01*
X389244Y694891D01*
X389372Y694944D01*
X389508Y694917D01*
X389663Y695021D01*
X389850Y695034D01*
X389995Y695202D01*
X390201Y695288D01*
X390560Y695647D01*
X438000D01*
X438957Y696043D01*
X457957Y715043D01*
X478957Y736043D01*
X479353Y737000D01*
Y781000D01*
Y798440D01*
X487957Y807043D01*
X511957Y831043D01*
X512353Y832000D01*
X512353Y840818D01*
X512588Y842000D01*
X512353Y843182D01*
X512353Y849818D01*
X512588Y851000D01*
X512353Y852182D01*
X512353Y857818D01*
X512588Y859000D01*
X512353Y860183D01*
Y861000D01*
X511957Y861957D01*
X491957Y881957D01*
X491000Y882353D01*
X476531D01*
X476146Y883623D01*
X476884Y884116D01*
X477768Y885439D01*
X478078Y887000D01*
X477768Y888561D01*
X476884Y889884D01*
X475561Y890768D01*
X474000Y891078D01*
X472439Y890768D01*
X471116Y889884D01*
X470232Y888561D01*
X469922Y887000D01*
X470232Y885439D01*
X471116Y884116D01*
X471854Y883623D01*
X471469Y882353D01*
X459390D01*
X459325Y882326D01*
X459258Y882346D01*
X458855Y882131D01*
X458434Y881957D01*
X458407Y881891D01*
X458344Y881858D01*
X457539Y880876D01*
X457518Y880809D01*
X457459Y880769D01*
X457400Y880472D01*
X457261Y880264D01*
X456964Y878772D01*
X456269Y877731D01*
X455228Y877036D01*
X454000Y876791D01*
X452772Y877036D01*
X451731Y877731D01*
X451036Y878772D01*
X450739Y880264D01*
X450600Y880472D01*
X450541Y880769D01*
X450482Y880809D01*
X450461Y880877D01*
X449656Y881858D01*
X449593Y881891D01*
X449566Y881957D01*
X449145Y882131D01*
X448742Y882346D01*
X448675Y882326D01*
X448610Y882353D01*
X392560D01*
X378957Y895957D01*
X378000Y896353D01*
X377082D01*
X375756Y897239D01*
X374000Y897588D01*
X372244Y897239D01*
X370918Y896353D01*
X213903D01*
X213596Y896226D01*
X213265Y896193D01*
X213135Y896035D01*
X212946Y895957D01*
X212819Y895650D01*
X212608Y895393D01*
X212223Y894123D01*
X212255Y893792D01*
X212190Y893466D01*
X212304Y893296D01*
X212324Y893092D01*
X212581Y892881D01*
X212766Y892605D01*
X213269Y892269D01*
X213964Y891228D01*
X214209Y890000D01*
X213964Y888772D01*
X213269Y887731D01*
X212228Y887036D01*
X211000Y886791D01*
X209772Y887036D01*
X208731Y887731D01*
X208036Y888772D01*
X207791Y890000D01*
X208036Y891228D01*
X208731Y892269D01*
X209828Y893002D01*
X210061Y893350D01*
X210345Y893656D01*
X210588Y894311D01*
X210582Y894464D01*
X210660Y894595D01*
X210770Y895384D01*
X210745Y895480D01*
X210782Y895571D01*
X210617Y895969D01*
X210509Y896386D01*
X210424Y896436D01*
X210386Y896527D01*
X199957Y906957D01*
X199000Y907353D01*
D02*
G37*
G36*
X74000Y681588D02*
X72244Y681239D01*
X70756Y680244D01*
X70635Y680064D01*
X69365D01*
X69244Y680244D01*
X67756Y681239D01*
X66000Y681588D01*
X64244Y681239D01*
X62756Y680244D01*
X61761Y678756D01*
X61412Y677000D01*
X61761Y675244D01*
X62756Y673756D01*
X64244Y672761D01*
X66000Y672412D01*
X67756Y672761D01*
X69244Y673756D01*
X69365Y673936D01*
X70635D01*
X70756Y673756D01*
X72244Y672761D01*
X74000Y672412D01*
X75756Y672761D01*
X77244Y673756D01*
X78239Y675244D01*
X78588Y677000D01*
X78239Y678756D01*
X77244Y680244D01*
X75756Y681239D01*
X74000Y681588D01*
D02*
G37*
G36*
X129000Y682588D02*
X127244Y682239D01*
X125756Y681244D01*
X124761Y679756D01*
X124412Y678000D01*
X124761Y676244D01*
X125756Y674756D01*
X127244Y673761D01*
X129000Y673412D01*
X130756Y673761D01*
X132244Y674756D01*
X133239Y676244D01*
X133588Y678000D01*
X133239Y679756D01*
X132244Y681244D01*
X130756Y682239D01*
X129000Y682588D01*
D02*
G37*
G36*
X560000Y694588D02*
X558244Y694239D01*
X556756Y693244D01*
X555761Y691756D01*
X555412Y690000D01*
X555761Y688244D01*
X556756Y686756D01*
X558244Y685761D01*
X560000Y685412D01*
X561756Y685761D01*
X563244Y686756D01*
X564239Y688244D01*
X564588Y690000D01*
X564239Y691756D01*
X563244Y693244D01*
X561756Y694239D01*
X560000Y694588D01*
D02*
G37*
G36*
X130000Y646078D02*
X128439Y645768D01*
X127116Y644884D01*
X126232Y643561D01*
X125922Y642000D01*
X126232Y640439D01*
X127116Y639116D01*
X128439Y638232D01*
X130000Y637922D01*
X131561Y638232D01*
X132884Y639116D01*
X133768Y640439D01*
X134078Y642000D01*
X133768Y643561D01*
X132884Y644884D01*
X131561Y645768D01*
X130000Y646078D01*
D02*
G37*
G36*
X146000Y601588D02*
X144244Y601239D01*
X142756Y600244D01*
X141761Y598756D01*
X141647Y598185D01*
X140353D01*
X140239Y598756D01*
X139244Y600244D01*
X137756Y601239D01*
X136000Y601588D01*
X134244Y601239D01*
X132756Y600244D01*
X131761Y598756D01*
X131412Y597000D01*
X131761Y595244D01*
X132756Y593756D01*
X134244Y592761D01*
X136000Y592412D01*
X137756Y592761D01*
X139244Y593756D01*
X140239Y595244D01*
X140353Y595815D01*
X141647D01*
X141761Y595244D01*
X142756Y593756D01*
X144244Y592761D01*
X144000Y591588D01*
X142244Y591239D01*
X140756Y590244D01*
X139761Y588756D01*
X139412Y587000D01*
X139761Y585244D01*
X140756Y583756D01*
X142244Y582761D01*
X144000Y582412D01*
X145756Y582761D01*
X147244Y583756D01*
X148239Y585244D01*
X148588Y587000D01*
X148239Y588756D01*
X147244Y590244D01*
X145756Y591239D01*
X146000Y592412D01*
X147756Y592761D01*
X149244Y593756D01*
X150239Y595244D01*
X150588Y597000D01*
X150239Y598756D01*
X149244Y600244D01*
X147756Y601239D01*
X146000Y601588D01*
D02*
G37*
G36*
X100000Y767588D02*
X98244Y767239D01*
X96756Y766244D01*
X95761Y764756D01*
X95412Y763000D01*
X95660Y761752D01*
X95128Y760814D01*
X94710Y760531D01*
X93244Y760239D01*
X91756Y759244D01*
X90761Y757756D01*
X90412Y756000D01*
X90761Y754244D01*
X91756Y752756D01*
X93244Y751761D01*
X95000Y751412D01*
X96756Y751761D01*
X98244Y752756D01*
X98490Y753124D01*
X98954Y753167D01*
X99930Y752992D01*
X100756Y751756D01*
X102244Y750761D01*
X104000Y750412D01*
X105756Y750761D01*
X107244Y751756D01*
X108239Y753244D01*
X108588Y755000D01*
X108239Y756756D01*
X107244Y758244D01*
X105756Y759239D01*
X104582Y759472D01*
X103943Y760726D01*
X103940Y760797D01*
X104239Y761244D01*
X104588Y763000D01*
X104239Y764756D01*
X103244Y766244D01*
X101756Y767239D01*
X100000Y767588D01*
D02*
G37*
G36*
X66000Y541588D02*
X64244Y541239D01*
X62756Y540244D01*
X61761Y538756D01*
X61412Y537000D01*
X61761Y535244D01*
X62756Y533756D01*
X64244Y532761D01*
X66000Y532412D01*
X67756Y532761D01*
X69244Y533756D01*
X70239Y535244D01*
X70588Y537000D01*
X70239Y538756D01*
X69244Y540244D01*
X67756Y541239D01*
X66000Y541588D01*
D02*
G37*
G36*
X380000Y623078D02*
X378439Y622768D01*
X377116Y621884D01*
X376232Y620561D01*
X375922Y619000D01*
X376232Y617439D01*
X377116Y616116D01*
X378439Y615232D01*
X380000Y614922D01*
X381561Y615232D01*
X382884Y616116D01*
X383768Y617439D01*
X384078Y619000D01*
X383768Y620561D01*
X382884Y621884D01*
X381561Y622768D01*
X380000Y623078D01*
D02*
G37*
G36*
X530000Y725078D02*
X528439Y724768D01*
X527116Y723884D01*
X526232Y722561D01*
X525922Y721000D01*
X526232Y719439D01*
X527116Y718116D01*
X528439Y717232D01*
X530000Y716922D01*
X531561Y717232D01*
X532884Y718116D01*
X533768Y719439D01*
X534078Y721000D01*
X533768Y722561D01*
X532884Y723884D01*
X531561Y724768D01*
X530000Y725078D01*
D02*
G37*
G36*
X552200Y648353D02*
X550152Y647945D01*
X548415Y646785D01*
X547255Y645048D01*
X546847Y643000D01*
X547255Y640952D01*
X548415Y639215D01*
X550152Y638055D01*
X552200Y637647D01*
X554248Y638055D01*
X555985Y639215D01*
X557145Y640952D01*
X557553Y643000D01*
X557145Y645048D01*
X555985Y646785D01*
X554248Y647945D01*
X552200Y648353D01*
D02*
G37*
G36*
X420000Y616060D02*
X420000Y616060D01*
X418030Y616060D01*
X417735Y616001D01*
X417433D01*
X413569Y615232D01*
X413291Y615117D01*
X412996Y615058D01*
X409356Y613551D01*
X409105Y613383D01*
X408827Y613268D01*
X405551Y611079D01*
X405338Y610866D01*
X405088Y610699D01*
X402302Y607913D01*
X402135Y607663D01*
X401922Y607450D01*
X399733Y604174D01*
X399618Y603896D01*
X399450Y603645D01*
X397943Y600005D01*
X397884Y599710D01*
X397769Y599432D01*
X397000Y595568D01*
Y595266D01*
X396941Y594971D01*
Y591031D01*
X397000Y590736D01*
Y590434D01*
X397769Y586571D01*
X397884Y586292D01*
X397943Y585997D01*
X399450Y582357D01*
X399618Y582107D01*
X399733Y581828D01*
X401922Y578553D01*
X402135Y578339D01*
X402302Y578089D01*
X405088Y575303D01*
X405338Y575136D01*
X405551Y574923D01*
X408827Y572734D01*
X409105Y572619D01*
X409356Y572451D01*
X412996Y570944D01*
X413291Y570885D01*
X413569Y570770D01*
X417433Y570001D01*
X417735D01*
X418030Y569942D01*
X420000Y569942D01*
X508000D01*
X508000Y569942D01*
X509970Y569942D01*
X510265Y570001D01*
X510566D01*
X514431Y570770D01*
X514709Y570885D01*
X515004Y570944D01*
X518644Y572451D01*
X518895Y572619D01*
X519173Y572734D01*
X522449Y574923D01*
X522662Y575136D01*
X522912Y575303D01*
X525698Y578089D01*
X525865Y578340D01*
X526078Y578553D01*
X528267Y581828D01*
X528382Y582107D01*
X528550Y582357D01*
X530057Y585997D01*
X530116Y586292D01*
X530231Y586571D01*
X531000Y590434D01*
Y590736D01*
X531059Y591031D01*
X531059Y594971D01*
X531000Y595266D01*
Y595568D01*
X530231Y599432D01*
X530116Y599710D01*
X530057Y600005D01*
X528550Y603645D01*
X528382Y603896D01*
X528267Y604174D01*
X526078Y607450D01*
X525865Y607663D01*
X525698Y607913D01*
X522912Y610699D01*
X522662Y610866D01*
X522449Y611079D01*
X519173Y613268D01*
X518895Y613383D01*
X518644Y613551D01*
X515004Y615058D01*
X514709Y615117D01*
X514431Y615232D01*
X510567Y616001D01*
X510265D01*
X509970Y616060D01*
X508000D01*
X420000Y616060D01*
D02*
G37*
G36*
X330000Y907078D02*
X328439Y906768D01*
X327116Y905884D01*
X326232Y904561D01*
X325922Y903000D01*
X326232Y901439D01*
X327116Y900116D01*
X328439Y899232D01*
X330000Y898922D01*
X331561Y899232D01*
X332884Y900116D01*
X333768Y901439D01*
X334078Y903000D01*
X333768Y904561D01*
X332884Y905884D01*
X331561Y906768D01*
X330000Y907078D01*
D02*
G37*
G36*
X510000Y879588D02*
X508244Y879239D01*
X506756Y878244D01*
X505761Y876756D01*
X505412Y875000D01*
X505761Y873244D01*
X506756Y871756D01*
X508244Y870761D01*
X510000Y870412D01*
X511756Y870761D01*
X513244Y871756D01*
X514239Y873244D01*
X514588Y875000D01*
X514239Y876756D01*
X513244Y878244D01*
X511756Y879239D01*
X510000Y879588D01*
D02*
G37*
G36*
X511000Y905588D02*
X509244Y905239D01*
X507756Y904244D01*
X506761Y902756D01*
X506412Y901000D01*
X506761Y899244D01*
X507756Y897756D01*
X509244Y896761D01*
X511000Y896412D01*
X512756Y896761D01*
X514244Y897756D01*
X515239Y899244D01*
X515588Y901000D01*
X515239Y902756D01*
X514244Y904244D01*
X512756Y905239D01*
X511000Y905588D01*
D02*
G37*
G36*
X281000Y907078D02*
X279439Y906768D01*
X278116Y905884D01*
X277232Y904561D01*
X276922Y903000D01*
X277232Y901439D01*
X278116Y900116D01*
X279439Y899232D01*
X281000Y898922D01*
X282561Y899232D01*
X283884Y900116D01*
X284768Y901439D01*
X285078Y903000D01*
X284768Y904561D01*
X283884Y905884D01*
X282561Y906768D01*
X281000Y907078D01*
D02*
G37*
G36*
X462000Y915078D02*
X460439Y914768D01*
X459116Y913884D01*
X458232Y912561D01*
X457922Y911000D01*
X458232Y909439D01*
X459116Y908116D01*
X460439Y907232D01*
X462000Y906922D01*
X463561Y907232D01*
X464884Y908116D01*
X465768Y909439D01*
X466078Y911000D01*
X465768Y912561D01*
X464884Y913884D01*
X463561Y914768D01*
X462000Y915078D01*
D02*
G37*
G36*
X331000Y104588D02*
X329244Y104239D01*
X327756Y103244D01*
X326761Y101756D01*
X326412Y100000D01*
X326761Y98244D01*
X327756Y96756D01*
X329244Y95761D01*
X331000Y95412D01*
X332756Y95761D01*
X334244Y96756D01*
X335239Y98244D01*
X335588Y100000D01*
X335239Y101756D01*
X334244Y103244D01*
X332756Y104239D01*
X331000Y104588D01*
D02*
G37*
G36*
X534000Y933372D02*
X184000D01*
X181561Y932887D01*
X179494Y931506D01*
X157494Y909506D01*
X156113Y907439D01*
X155628Y905000D01*
Y780000D01*
X156113Y777561D01*
X157494Y775494D01*
X158786Y774202D01*
X159113Y772561D01*
X160494Y770494D01*
X162561Y769113D01*
X165000Y768627D01*
X167439Y769113D01*
X169506Y770494D01*
X170887Y772561D01*
X171373Y775000D01*
Y777000D01*
X170887Y779439D01*
X169506Y781506D01*
X168372Y782640D01*
Y902361D01*
X186640Y920628D01*
X350922D01*
Y908996D01*
X350761Y908756D01*
X350412Y907000D01*
X350475Y906685D01*
X350051Y906259D01*
X349354Y905809D01*
X348000Y906078D01*
X346439Y905768D01*
X345116Y904884D01*
X344232Y903561D01*
X343922Y902000D01*
X344232Y900439D01*
X345116Y899116D01*
X346439Y898232D01*
X348000Y897922D01*
X349561Y898232D01*
X350884Y899116D01*
X351768Y900439D01*
X352078Y902000D01*
X352075Y902015D01*
X353218Y902778D01*
X353244Y902761D01*
X355000Y902412D01*
X356756Y902761D01*
X358244Y903756D01*
X359239Y905244D01*
X359588Y907000D01*
X359239Y908756D01*
X359078Y908996D01*
Y920628D01*
X531360D01*
X540786Y911202D01*
X541113Y909561D01*
X541628Y908791D01*
Y899883D01*
X540358Y899236D01*
X539561Y899768D01*
X538000Y900078D01*
X536439Y899768D01*
X535116Y898884D01*
X534232Y897561D01*
X533922Y896000D01*
X534232Y894439D01*
X535116Y893116D01*
X536439Y892232D01*
X538000Y891922D01*
X539561Y892232D01*
X540358Y892765D01*
X541628Y892117D01*
Y875085D01*
X541412Y874000D01*
X541628Y872915D01*
Y865419D01*
X540358Y864808D01*
X539000Y865078D01*
X537439Y864768D01*
X536116Y863884D01*
X535232Y862561D01*
X534922Y861000D01*
X535232Y859439D01*
X536116Y858116D01*
X537439Y857232D01*
X539000Y856922D01*
X540358Y857192D01*
X541628Y856581D01*
Y821640D01*
X540494Y820506D01*
X539113Y818439D01*
X538628Y816000D01*
Y768314D01*
X515140D01*
X513756Y769239D01*
X512000Y769588D01*
X510244Y769239D01*
X508756Y768244D01*
X507761Y766756D01*
X507412Y765000D01*
X507761Y763244D01*
X508756Y761756D01*
X510244Y760761D01*
X512000Y760412D01*
X513756Y760761D01*
X515140Y761686D01*
X538628D01*
Y739314D01*
X529141D01*
X527756Y740239D01*
X526000Y740588D01*
X524244Y740239D01*
X522756Y739244D01*
X521761Y737756D01*
X521412Y736000D01*
X521761Y734244D01*
X522756Y732756D01*
X524244Y731761D01*
X526000Y731412D01*
X527756Y731761D01*
X529141Y732686D01*
X538628D01*
Y658640D01*
X534494Y654506D01*
X533113Y652439D01*
X532627Y650000D01*
Y559640D01*
X530360Y557372D01*
X516199D01*
X515957Y557957D01*
X515000Y558353D01*
X514082D01*
X512756Y559239D01*
X511000Y559588D01*
X509244Y559239D01*
X507918Y558353D01*
X502000D01*
X501043Y557957D01*
X500647Y557000D01*
Y551182D01*
X500412Y550000D01*
X500647Y548818D01*
Y542000D01*
X501043Y541043D01*
X502000Y540647D01*
X515000D01*
X515957Y541043D01*
X516353Y542000D01*
Y544627D01*
X533000D01*
X535439Y545113D01*
X537506Y546494D01*
X543506Y552494D01*
X544887Y554561D01*
X545372Y557000D01*
Y647360D01*
X549506Y651494D01*
X550887Y653561D01*
X551372Y656000D01*
Y736000D01*
Y765000D01*
Y813360D01*
X552506Y814494D01*
X553887Y816561D01*
X554372Y819000D01*
Y874000D01*
Y912000D01*
X553887Y914439D01*
X553030Y915722D01*
X552887Y916439D01*
X551506Y918506D01*
X538506Y931506D01*
X536439Y932887D01*
X534000Y933372D01*
D02*
G37*
G36*
X484000Y910078D02*
X482439Y909768D01*
X481116Y908884D01*
X480232Y907561D01*
X479922Y906000D01*
X480232Y904439D01*
X481116Y903116D01*
X482439Y902232D01*
X484000Y901922D01*
X485561Y902232D01*
X486884Y903116D01*
X487768Y904439D01*
X488078Y906000D01*
X487768Y907561D01*
X486884Y908884D01*
X485561Y909768D01*
X484000Y910078D01*
D02*
G37*
G36*
X200000Y94588D02*
X198244Y94239D01*
X196756Y93244D01*
X195761Y91756D01*
X195412Y90000D01*
X195761Y88244D01*
X196756Y86756D01*
X198244Y85761D01*
X200000Y85412D01*
X201756Y85761D01*
X203244Y86756D01*
X204239Y88244D01*
X204588Y90000D01*
X204239Y91756D01*
X203244Y93244D01*
X201756Y94239D01*
X200000Y94588D01*
D02*
G37*
G36*
X146000Y884588D02*
X144244Y884239D01*
X142756Y883244D01*
X141761Y881756D01*
X141412Y880000D01*
X141761Y878244D01*
X142756Y876756D01*
X144244Y875761D01*
X146000Y875412D01*
X147756Y875761D01*
X149244Y876756D01*
X150239Y878244D01*
X150588Y880000D01*
X150239Y881756D01*
X149244Y883244D01*
X147756Y884239D01*
X146000Y884588D01*
D02*
G37*
G36*
X410000Y28000D02*
X362000D01*
Y10000D01*
X410000D01*
Y28000D01*
D02*
G37*
G36*
X351000Y67588D02*
X349244Y67239D01*
X347756Y66244D01*
X346761Y64756D01*
X346412Y63000D01*
X346761Y61244D01*
X347756Y59756D01*
X349244Y58761D01*
X351000Y58412D01*
X352756Y58761D01*
X354244Y59756D01*
X355239Y61244D01*
X355588Y63000D01*
X355239Y64756D01*
X354244Y66244D01*
X352756Y67239D01*
X351000Y67588D01*
D02*
G37*
G36*
X529970Y128533D02*
X526588Y128200D01*
X523337Y127214D01*
X520340Y125612D01*
X517713Y123457D01*
X515558Y120830D01*
X513956Y117833D01*
X512970Y114582D01*
X512636Y111200D01*
X512970Y107818D01*
X513956Y104567D01*
X515558Y101570D01*
X517713Y98943D01*
X520340Y96788D01*
X523337Y95186D01*
X526588Y94200D01*
X529970Y93867D01*
X533352Y94200D01*
X536603Y95186D01*
X539600Y96788D01*
X542227Y98943D01*
X544382Y101570D01*
X545984Y104567D01*
X546970Y107818D01*
X547304Y111200D01*
X546970Y114582D01*
X545984Y117833D01*
X544382Y120830D01*
X542227Y123457D01*
X539600Y125612D01*
X536603Y127214D01*
X533352Y128200D01*
X529970Y128533D01*
D02*
G37*
G36*
X410000Y904588D02*
X408244Y904239D01*
X406756Y903244D01*
X405761Y901756D01*
X405412Y900000D01*
X405761Y898244D01*
X406756Y896756D01*
X408244Y895761D01*
X410000Y895412D01*
X411756Y895761D01*
X413244Y896756D01*
X414239Y898244D01*
X414588Y900000D01*
X414239Y901756D01*
X413244Y903244D01*
X411756Y904239D01*
X410000Y904588D01*
D02*
G37*
G36*
X104000Y882078D02*
X102439Y881768D01*
X101116Y880884D01*
X100232Y879561D01*
X99922Y878000D01*
X100030Y877454D01*
X99026Y876954D01*
X98843Y876911D01*
X97561Y877768D01*
X96000Y878078D01*
X94439Y877768D01*
X93116Y876884D01*
X92232Y875561D01*
X91922Y874000D01*
X90900Y872900D01*
X90078Y873000D01*
X89768Y874561D01*
X88884Y875884D01*
X87561Y876768D01*
X86000Y877078D01*
X84439Y876768D01*
X83116Y875884D01*
X82232Y874561D01*
X82165Y874223D01*
X80754Y873639D01*
X80561Y873768D01*
X79000Y874078D01*
X77439Y873768D01*
X76116Y872884D01*
X75232Y871561D01*
X74922Y870000D01*
X75232Y868439D01*
X76009Y867277D01*
X76009Y867262D01*
X75798Y866506D01*
X75525Y865984D01*
X74439Y865768D01*
X73116Y864884D01*
X72232Y863561D01*
X71922Y862000D01*
X72232Y860439D01*
X73116Y859116D01*
X74439Y858232D01*
X76000Y857922D01*
X76211Y857749D01*
Y781095D01*
X56825Y761709D01*
X56220Y761851D01*
X55544Y762224D01*
X55239Y763756D01*
X54244Y765244D01*
X52756Y766239D01*
X51000Y766588D01*
X49244Y766239D01*
X47756Y765244D01*
X46761Y763756D01*
X46412Y762000D01*
X46761Y760244D01*
X47756Y758756D01*
X49244Y757761D01*
X51000Y757412D01*
X52756Y757761D01*
X53441Y758219D01*
X54711Y757540D01*
Y720250D01*
X54866Y719470D01*
X55308Y718808D01*
X83961Y690155D01*
Y644310D01*
X74972Y633395D01*
X74000Y633588D01*
X72244Y633239D01*
X70756Y632244D01*
X70635Y632064D01*
X69365D01*
X69244Y632244D01*
X67756Y633239D01*
X66000Y633588D01*
X64244Y633239D01*
X62756Y632244D01*
X61761Y630756D01*
X61412Y629000D01*
X61761Y627244D01*
X62756Y625756D01*
X64244Y624761D01*
X66000Y624412D01*
X67756Y624761D01*
X69244Y625756D01*
X69365Y625936D01*
X70635D01*
X70756Y625756D01*
X72244Y624761D01*
X72978Y624615D01*
X75177Y622416D01*
Y495346D01*
X66273Y483824D01*
X62378D01*
X61756Y484239D01*
X60000Y484588D01*
X58244Y484239D01*
X56756Y483244D01*
X56473Y482822D01*
X56296Y482704D01*
X55468Y481463D01*
X55177Y480000D01*
X55468Y478537D01*
X56296Y477296D01*
X56473Y477178D01*
X56756Y476756D01*
X58244Y475761D01*
X60000Y475412D01*
X61756Y475761D01*
X62378Y476176D01*
X69000D01*
X70463Y476468D01*
X71260Y477000D01*
X83961D01*
Y451845D01*
X74581Y442464D01*
X74049Y442039D01*
X64050D01*
X63244Y443244D01*
X61756Y444239D01*
X60000Y444588D01*
X58244Y444239D01*
X56756Y443244D01*
X55761Y441756D01*
X55412Y440000D01*
X55761Y438244D01*
X56756Y436756D01*
X58244Y435761D01*
X60000Y435412D01*
X61756Y435761D01*
X63244Y436756D01*
X63730Y437482D01*
X65000Y437097D01*
Y430000D01*
X59486Y424486D01*
X58244Y424239D01*
X56756Y423244D01*
X55761Y421756D01*
X55514Y420514D01*
X54000Y419000D01*
X53644Y406527D01*
X52558Y405442D01*
X52116Y404780D01*
X51961Y404000D01*
Y384000D01*
X52116Y383220D01*
X52558Y382558D01*
X55485Y379631D01*
X55761Y378244D01*
X56756Y376756D01*
X58244Y375761D01*
X60000Y375412D01*
X61756Y375761D01*
X63244Y376756D01*
X64239Y378244D01*
X64588Y380000D01*
X64239Y381756D01*
X64045Y382045D01*
X76000Y394000D01*
X79000Y394000D01*
X80034Y392966D01*
Y391696D01*
X61377Y373039D01*
X57000D01*
X56220Y372884D01*
X55558Y372442D01*
X48558Y365442D01*
X48116Y364780D01*
X47961Y364000D01*
Y310000D01*
X48116Y309220D01*
X48558Y308558D01*
X55695Y301422D01*
X55412Y300000D01*
X55761Y298244D01*
X56756Y296756D01*
X58244Y295761D01*
X60000Y295412D01*
X61756Y295761D01*
X63244Y296756D01*
X64239Y298244D01*
X64588Y300000D01*
X64239Y301756D01*
X63244Y303244D01*
X63000Y303408D01*
Y316592D01*
X63244Y316756D01*
X64239Y318244D01*
X64588Y320000D01*
X64239Y321756D01*
X63244Y323244D01*
X61756Y324239D01*
X60000Y324588D01*
X58578Y324305D01*
X54789Y328095D01*
Y350789D01*
X59509Y355509D01*
X60000Y355412D01*
X61756Y355761D01*
X63244Y356756D01*
X64239Y358244D01*
X64588Y360000D01*
X64491Y360491D01*
X65000Y361000D01*
Y363116D01*
X129942Y428058D01*
X129942Y428058D01*
X130384Y428720D01*
X130539Y429500D01*
Y482278D01*
X130539Y482278D01*
X130384Y483059D01*
X129942Y483720D01*
X129942Y483720D01*
X104539Y509123D01*
Y572918D01*
X105713Y573404D01*
X108558Y570558D01*
X108558Y570558D01*
X109220Y570116D01*
X110000Y569961D01*
X168155D01*
X178695Y559422D01*
X178412Y558000D01*
X178761Y556244D01*
X179756Y554756D01*
X181244Y553761D01*
X183000Y553412D01*
X184756Y553761D01*
X186244Y554756D01*
X187239Y556244D01*
X187588Y558000D01*
X187239Y559756D01*
X186244Y561244D01*
X184756Y562239D01*
X183000Y562588D01*
X181578Y562305D01*
X170442Y573442D01*
X169780Y573884D01*
X169000Y574039D01*
X110845D01*
X107289Y577595D01*
Y630564D01*
X108559Y630950D01*
X109116Y630116D01*
X110439Y629232D01*
X112000Y628922D01*
X113561Y629232D01*
X114884Y630116D01*
X115768Y631439D01*
X116078Y633000D01*
X115768Y634561D01*
X114884Y635884D01*
X113561Y636768D01*
X112000Y637078D01*
X110439Y636768D01*
X109116Y635884D01*
X108559Y635050D01*
X107289Y635436D01*
Y678564D01*
X108559Y678950D01*
X109116Y678116D01*
X110439Y677232D01*
X112000Y676922D01*
X113561Y677232D01*
X114884Y678116D01*
X115768Y679439D01*
X116078Y681000D01*
X115768Y682561D01*
X114884Y683884D01*
X113561Y684768D01*
X112000Y685078D01*
X110439Y684768D01*
X109116Y683884D01*
X108559Y683050D01*
X107289Y683436D01*
Y689165D01*
X107460Y689273D01*
X108761Y689244D01*
X109756Y687756D01*
X111244Y686761D01*
X113000Y686412D01*
X114756Y686761D01*
X116244Y687756D01*
X117239Y689244D01*
X117588Y691000D01*
X117239Y692756D01*
X116244Y694244D01*
X114756Y695239D01*
X114058Y695378D01*
X113640Y696756D01*
X121442Y704558D01*
X121442Y704558D01*
X121884Y705220D01*
X122028Y705943D01*
X123244Y706756D01*
X124239Y708244D01*
X124588Y710000D01*
X124239Y711756D01*
X123244Y713244D01*
X121756Y714239D01*
X120000Y714588D01*
X118244Y714239D01*
X116756Y713244D01*
X115761Y711756D01*
X115412Y710000D01*
X115761Y708244D01*
X116756Y706756D01*
X116856Y705740D01*
X105713Y694596D01*
X104539Y695082D01*
Y697834D01*
X104384Y698615D01*
X103942Y699277D01*
X103942Y699277D01*
X75289Y727929D01*
Y751071D01*
X97692Y773474D01*
X97692Y773474D01*
X98134Y774135D01*
X98289Y774915D01*
Y794155D01*
X103095Y798961D01*
X143552D01*
X144116Y798116D01*
X145439Y797232D01*
X147000Y796922D01*
X148561Y797232D01*
X149884Y798116D01*
X150768Y799439D01*
X151078Y801000D01*
X150768Y802561D01*
X149884Y803884D01*
X148561Y804768D01*
X147000Y805078D01*
X145439Y804768D01*
X144116Y803884D01*
X143552Y803039D01*
X102250D01*
X102250Y803039D01*
X101470Y802884D01*
X100808Y802442D01*
X100808Y802442D01*
X95309Y796943D01*
X94039Y797469D01*
Y857516D01*
X105442Y868919D01*
X105442Y868919D01*
X105884Y869581D01*
X106039Y870361D01*
Y874552D01*
X106884Y875116D01*
X107768Y876439D01*
X108078Y878000D01*
X107768Y879561D01*
X106884Y880884D01*
X105561Y881768D01*
X104000Y882078D01*
D02*
G37*
G36*
X479000Y902078D02*
X477439Y901768D01*
X476116Y900884D01*
X475232Y899561D01*
X474922Y898000D01*
X475232Y896439D01*
X476116Y895116D01*
X477439Y894232D01*
X479000Y893922D01*
X480561Y894232D01*
X481884Y895116D01*
X482768Y896439D01*
X483078Y898000D01*
X482768Y899561D01*
X481884Y900884D01*
X480561Y901768D01*
X479000Y902078D01*
D02*
G37*
G36*
X162628Y382200D02*
X161052D01*
X159507Y381893D01*
X158051Y381289D01*
X156740Y380414D01*
X155626Y379300D01*
X154750Y377989D01*
X154147Y376534D01*
X153840Y374988D01*
Y373412D01*
X154147Y371866D01*
X154750Y370410D01*
X155626Y369100D01*
X156740Y367986D01*
X158051Y367110D01*
X159507Y366507D01*
X161052Y366200D01*
X162628D01*
X164174Y366507D01*
X165629Y367110D01*
X166940Y367986D01*
X168054Y369100D01*
X168930Y370410D01*
X169533Y371866D01*
X169840Y373412D01*
Y374988D01*
X169533Y376534D01*
X168930Y377989D01*
X168054Y379300D01*
X166940Y380414D01*
X165629Y381289D01*
X164174Y381893D01*
X162628Y382200D01*
D02*
G37*
G36*
X182948D02*
X181372D01*
X179827Y381893D01*
X178371Y381289D01*
X177060Y380414D01*
X175946Y379300D01*
X175070Y377989D01*
X174467Y376534D01*
X174160Y374988D01*
Y373412D01*
X174467Y371866D01*
X175070Y370410D01*
X175946Y369100D01*
X177060Y367986D01*
X178371Y367110D01*
X179827Y366507D01*
X181372Y366200D01*
X182948D01*
X184494Y366507D01*
X185949Y367110D01*
X187260Y367986D01*
X188374Y369100D01*
X189249Y370410D01*
X189853Y371866D01*
X190160Y373412D01*
Y374988D01*
X189853Y376534D01*
X189249Y377989D01*
X188374Y379300D01*
X187260Y380414D01*
X185949Y381289D01*
X184494Y381893D01*
X182948Y382200D01*
D02*
G37*
G36*
X338000Y355588D02*
X336244Y355239D01*
X334756Y354244D01*
X333761Y352756D01*
X333412Y351000D01*
X333761Y349244D01*
X334756Y347756D01*
X336244Y346761D01*
X338000Y346412D01*
X339756Y346761D01*
X341244Y347756D01*
X342239Y349244D01*
X342588Y351000D01*
X342239Y352756D01*
X341244Y354244D01*
X339756Y355239D01*
X338000Y355588D01*
D02*
G37*
G36*
X534000Y357588D02*
X532244Y357239D01*
X530756Y356244D01*
X529761Y354756D01*
X529412Y353000D01*
X529761Y351244D01*
X530756Y349756D01*
X532244Y348761D01*
X534000Y348412D01*
X535756Y348761D01*
X537244Y349756D01*
X538239Y351244D01*
X538588Y353000D01*
X538239Y354756D01*
X537244Y356244D01*
X535756Y357239D01*
X534000Y357588D01*
D02*
G37*
G36*
X500000Y383588D02*
X498244Y383239D01*
X496756Y382244D01*
X495761Y380756D01*
X495412Y379000D01*
X495761Y377244D01*
X496756Y375756D01*
X498244Y374761D01*
X500000Y374412D01*
X501756Y374761D01*
X503233Y375748D01*
X503531Y375936D01*
X504635D01*
X504756Y375756D01*
X506244Y374761D01*
X508000Y374412D01*
X509756Y374761D01*
X511244Y375756D01*
X512239Y377244D01*
X512588Y379000D01*
X512239Y380756D01*
X511244Y382244D01*
X509756Y383239D01*
X508000Y383588D01*
X506244Y383239D01*
X504767Y382252D01*
X504469Y382064D01*
X503365D01*
X503244Y382244D01*
X501756Y383239D01*
X500000Y383588D01*
D02*
G37*
G36*
X409000Y416588D02*
X407244Y416239D01*
X405756Y415244D01*
X404761Y413756D01*
X404412Y412000D01*
X404761Y410244D01*
X405756Y408756D01*
X407244Y407761D01*
X409000Y407412D01*
X410756Y407761D01*
X412244Y408756D01*
X413239Y410244D01*
X413588Y412000D01*
X413239Y413756D01*
X412244Y415244D01*
X410756Y416239D01*
X409000Y416588D01*
D02*
G37*
G36*
X172788Y433000D02*
X171212D01*
X169667Y432693D01*
X168211Y432090D01*
X166900Y431214D01*
X165786Y430100D01*
X164911Y428789D01*
X164307Y427333D01*
X164000Y425788D01*
Y424212D01*
X164307Y422667D01*
X164911Y421211D01*
X165786Y419900D01*
X166900Y418786D01*
X168211Y417910D01*
X169667Y417307D01*
X171212Y417000D01*
X172788D01*
X174333Y417307D01*
X175789Y417910D01*
X177100Y418786D01*
X178214Y419900D01*
X179090Y421211D01*
X179693Y422667D01*
X180000Y424212D01*
Y425788D01*
X179693Y427333D01*
X179090Y428789D01*
X178214Y430100D01*
X177100Y431214D01*
X175789Y432090D01*
X174333Y432693D01*
X172788Y433000D01*
D02*
G37*
G36*
X430000Y406588D02*
X428244Y406239D01*
X426756Y405244D01*
X425761Y403756D01*
X425412Y402000D01*
X425761Y400244D01*
X426756Y398756D01*
X428244Y397761D01*
X430000Y397412D01*
X431756Y397761D01*
X433244Y398756D01*
X434239Y400244D01*
X434588Y402000D01*
X434239Y403756D01*
X433244Y405244D01*
X431756Y406239D01*
X430000Y406588D01*
D02*
G37*
G36*
X178000Y416588D02*
X176244Y416239D01*
X174756Y415244D01*
X173761Y413756D01*
X173412Y412000D01*
X173761Y410244D01*
X174756Y408756D01*
X176244Y407761D01*
X178000Y407412D01*
X179756Y407761D01*
X181244Y408756D01*
X182239Y410244D01*
X182588Y412000D01*
X182239Y413756D01*
X181244Y415244D01*
X179756Y416239D01*
X178000Y416588D01*
D02*
G37*
G36*
X200000Y354588D02*
X198244Y354239D01*
X196756Y353244D01*
X195761Y351756D01*
X195412Y350000D01*
X195761Y348244D01*
X196756Y346756D01*
X198244Y345761D01*
X200000Y345412D01*
X201756Y345761D01*
X203244Y346756D01*
X204239Y348244D01*
X204588Y350000D01*
X204239Y351756D01*
X203244Y353244D01*
X201756Y354239D01*
X200000Y354588D01*
D02*
G37*
G36*
X331000Y231588D02*
X329244Y231239D01*
X327756Y230244D01*
X326761Y228756D01*
X326412Y227000D01*
X326761Y225244D01*
X327756Y223756D01*
X329244Y222761D01*
X331000Y222412D01*
X332756Y222761D01*
X334244Y223756D01*
X335239Y225244D01*
X335588Y227000D01*
X335239Y228756D01*
X334244Y230244D01*
X332756Y231239D01*
X331000Y231588D01*
D02*
G37*
G36*
X343000Y274588D02*
X341244Y274239D01*
X339756Y273244D01*
X338761Y271756D01*
X338412Y270000D01*
X338761Y268244D01*
X339756Y266756D01*
X341244Y265761D01*
X343000Y265412D01*
X344756Y265761D01*
X346244Y266756D01*
X347239Y268244D01*
X347588Y270000D01*
X347239Y271756D01*
X346244Y273244D01*
X344756Y274239D01*
X343000Y274588D01*
D02*
G37*
G36*
X342000Y197078D02*
X340439Y196768D01*
X339116Y195884D01*
X338232Y194561D01*
X337922Y193000D01*
X338232Y191439D01*
X339116Y190116D01*
X340439Y189232D01*
X342000Y188922D01*
X343561Y189232D01*
X344884Y190116D01*
X345768Y191439D01*
X346078Y193000D01*
X345768Y194561D01*
X344884Y195884D01*
X343561Y196768D01*
X342000Y197078D01*
D02*
G37*
G36*
X200000Y226588D02*
X198244Y226239D01*
X196756Y225244D01*
X195761Y223756D01*
X195412Y222000D01*
X195761Y220244D01*
X196756Y218756D01*
X198244Y217761D01*
X200000Y217412D01*
X201756Y217761D01*
X203244Y218756D01*
X204239Y220244D01*
X204588Y222000D01*
X204239Y223756D01*
X203244Y225244D01*
X201756Y226239D01*
X200000Y226588D01*
D02*
G37*
G36*
X340000Y284588D02*
X338244Y284239D01*
X336756Y283244D01*
X335761Y281756D01*
X335412Y280000D01*
X335761Y278244D01*
X336756Y276756D01*
X338244Y275761D01*
X340000Y275412D01*
X341756Y275761D01*
X343244Y276756D01*
X344239Y278244D01*
X344588Y280000D01*
X344239Y281756D01*
X343244Y283244D01*
X341756Y284239D01*
X340000Y284588D01*
D02*
G37*
%LPD*%
G36*
X209429Y895571D02*
X209320Y894782D01*
X209077Y894127D01*
X207756Y893244D01*
X206761Y891756D01*
X206412Y890000D01*
X206761Y888244D01*
X207756Y886756D01*
X209244Y885761D01*
X211000Y885412D01*
X212756Y885761D01*
X214244Y886756D01*
X215239Y888244D01*
X215588Y890000D01*
X215239Y891756D01*
X214244Y893244D01*
X213517Y893730D01*
X213903Y895000D01*
X378000D01*
X392000Y881000D01*
X448610D01*
X449416Y880018D01*
X449412Y880000D01*
X449761Y878244D01*
X450756Y876756D01*
X452244Y875761D01*
X454000Y875412D01*
X455756Y875761D01*
X457244Y876756D01*
X458239Y878244D01*
X458588Y880000D01*
X458585Y880018D01*
X459390Y881000D01*
X491000D01*
X511000Y861000D01*
X511000Y832000D01*
X487000Y808000D01*
X478000Y799000D01*
Y781000D01*
Y737000D01*
X457000Y716000D01*
X438000Y697000D01*
X390000D01*
X389244Y696244D01*
X389244Y696244D01*
X387756Y697239D01*
X386000Y697588D01*
X384244Y697239D01*
X382756Y696244D01*
X381761Y694756D01*
X381412Y693000D01*
X381761Y691244D01*
X382756Y689756D01*
X382756Y689756D01*
X362000Y669000D01*
X362000Y620078D01*
X360439Y619768D01*
X359116Y618884D01*
X358232Y617561D01*
X357922Y616000D01*
X358232Y614439D01*
X359116Y613116D01*
X360439Y612232D01*
X362000Y611922D01*
Y592919D01*
X360960Y592200D01*
X360730Y592244D01*
X359000Y592588D01*
X357244Y592239D01*
X355756Y591244D01*
X354761Y589756D01*
X354412Y588000D01*
X354761Y586244D01*
X355756Y584756D01*
X357244Y583761D01*
X359000Y583412D01*
X360730Y583756D01*
X360960Y583800D01*
X362000Y583081D01*
X362000Y546000D01*
X356000Y540000D01*
X336603D01*
X324877Y548000D01*
X284879D01*
X284768Y548561D01*
X283884Y549884D01*
X282561Y550768D01*
X281000Y551078D01*
X279439Y550768D01*
X278116Y549884D01*
X277232Y548561D01*
X277121Y548000D01*
X224394Y548000D01*
X224000Y548078D01*
X223606Y548000D01*
X221880D01*
X221075Y548982D01*
X221078Y549000D01*
X220768Y550561D01*
X219884Y551884D01*
X218561Y552768D01*
X217859Y552908D01*
X216987Y553333D01*
X216937Y554287D01*
X217078Y555000D01*
X217064Y555072D01*
X218157Y556089D01*
X219000Y555922D01*
X220561Y556232D01*
X221884Y557116D01*
X222768Y558439D01*
X223078Y560000D01*
X222768Y561561D01*
X221884Y562884D01*
X220561Y563768D01*
X219000Y564078D01*
X217439Y563768D01*
X216116Y562884D01*
X215232Y561561D01*
X214922Y560000D01*
X214936Y559928D01*
X213843Y558911D01*
X213000Y559078D01*
X211439Y558768D01*
X210116Y557884D01*
X209232Y556561D01*
X208922Y555000D01*
X209232Y553439D01*
X210116Y552116D01*
X211439Y551232D01*
X212141Y551092D01*
X213013Y550667D01*
X213063Y549713D01*
X212922Y549000D01*
X212925Y548982D01*
X212120Y548000D01*
X205000D01*
X178000Y575000D01*
Y643987D01*
X179175Y644400D01*
X179270Y644383D01*
X180116Y643116D01*
X181439Y642232D01*
X183000Y641922D01*
X184561Y642232D01*
X185884Y643116D01*
X186768Y644439D01*
X187078Y646000D01*
X186768Y647561D01*
X185884Y648884D01*
X184561Y649768D01*
X183000Y650078D01*
X181439Y649768D01*
X180116Y648884D01*
X179270Y647617D01*
X179175Y647600D01*
X178000Y648013D01*
Y655097D01*
X179270Y655482D01*
X179756Y654756D01*
X181244Y653761D01*
X183000Y653412D01*
X184756Y653761D01*
X186244Y654756D01*
X187239Y656244D01*
X187588Y658000D01*
X187239Y659756D01*
X186244Y661244D01*
X184971Y662095D01*
X184940Y662182D01*
X184874Y662992D01*
X184953Y663494D01*
X185884Y664116D01*
X186768Y665439D01*
X187078Y667000D01*
X186768Y668561D01*
X185884Y669884D01*
X184561Y670768D01*
X183000Y671078D01*
X181439Y670768D01*
X180116Y669884D01*
X179270Y668617D01*
X179175Y668600D01*
X178000Y669013D01*
Y785592D01*
X178244Y785756D01*
X179239Y787244D01*
X179588Y789000D01*
X179239Y790756D01*
X178244Y792244D01*
X178000Y792408D01*
Y803412D01*
X178000Y803412D01*
X179756Y803761D01*
X181244Y804756D01*
X182239Y806244D01*
X182588Y808000D01*
X182239Y809756D01*
X181244Y811244D01*
X179756Y812239D01*
X178000Y812588D01*
X178000Y812588D01*
X178000Y846611D01*
X178756Y846761D01*
X180244Y847756D01*
X181239Y849244D01*
X181588Y851000D01*
X181239Y852756D01*
X180244Y854244D01*
X178756Y855239D01*
X178000Y855389D01*
Y903000D01*
X181000Y906000D01*
X199000D01*
X209429Y895571D01*
D02*
G37*
%LPC*%
G36*
X184000Y640588D02*
X182244Y640239D01*
X180756Y639244D01*
X179761Y637756D01*
X179412Y636000D01*
X179761Y634244D01*
X180756Y632756D01*
X182244Y631761D01*
X184000Y631412D01*
X185756Y631761D01*
X187244Y632756D01*
X188239Y634244D01*
X188588Y636000D01*
X188239Y637756D01*
X187244Y639244D01*
X185756Y640239D01*
X184000Y640588D01*
D02*
G37*
G36*
X326000Y639588D02*
X324244Y639239D01*
X322756Y638244D01*
X321761Y636756D01*
X321412Y635000D01*
X321761Y633244D01*
X322756Y631756D01*
X324244Y630761D01*
X326000Y630412D01*
X327756Y630761D01*
X329244Y631756D01*
X330239Y633244D01*
X330588Y635000D01*
X330239Y636756D01*
X329244Y638244D01*
X327756Y639239D01*
X326000Y639588D01*
D02*
G37*
G36*
X314000Y684588D02*
X312244Y684239D01*
X310756Y683244D01*
X309761Y681756D01*
X309412Y680000D01*
X309761Y678244D01*
X310756Y676756D01*
X312244Y675761D01*
X314000Y675412D01*
X315756Y675761D01*
X317244Y676756D01*
X318239Y678244D01*
X318588Y680000D01*
X318239Y681756D01*
X317244Y683244D01*
X315756Y684239D01*
X314000Y684588D01*
D02*
G37*
G36*
X200000Y678588D02*
X198244Y678239D01*
X196756Y677244D01*
X195761Y675756D01*
X195412Y674000D01*
X195761Y672244D01*
X196756Y670756D01*
X198244Y669761D01*
X200000Y669412D01*
X201756Y669761D01*
X203244Y670756D01*
X204239Y672244D01*
X204588Y674000D01*
X204239Y675756D01*
X203244Y677244D01*
X201756Y678239D01*
X200000Y678588D01*
D02*
G37*
G36*
X337000Y675588D02*
X335244Y675239D01*
X333756Y674244D01*
X332761Y672756D01*
X332412Y671000D01*
X332761Y669244D01*
X333756Y667756D01*
X335244Y666761D01*
X337000Y666412D01*
X338756Y666761D01*
X340244Y667756D01*
X341239Y669244D01*
X341588Y671000D01*
X341239Y672756D01*
X340244Y674244D01*
X338756Y675239D01*
X337000Y675588D01*
D02*
G37*
G36*
X236000Y680588D02*
X234244Y680239D01*
X232756Y679244D01*
X231761Y677756D01*
X231412Y676000D01*
X231761Y674244D01*
X232756Y672756D01*
X234244Y671761D01*
X236000Y671412D01*
X237756Y671761D01*
X239244Y672756D01*
X240239Y674244D01*
X240588Y676000D01*
X240239Y677756D01*
X239244Y679244D01*
X237756Y680239D01*
X236000Y680588D01*
D02*
G37*
G36*
X295000Y630588D02*
X293244Y630239D01*
X291756Y629244D01*
X290761Y627756D01*
X290412Y626000D01*
X290761Y624244D01*
X291756Y622756D01*
X293244Y621761D01*
X295000Y621412D01*
X296756Y621761D01*
X298244Y622756D01*
X299239Y624244D01*
X299588Y626000D01*
X299239Y627756D01*
X298244Y629244D01*
X296756Y630239D01*
X295000Y630588D01*
D02*
G37*
G36*
X300000Y584588D02*
X298244Y584239D01*
X296756Y583244D01*
X295761Y581756D01*
X295412Y580000D01*
X295761Y578244D01*
X296756Y576756D01*
X298244Y575761D01*
X300000Y575412D01*
X301756Y575761D01*
X303244Y576756D01*
X304239Y578244D01*
X304588Y580000D01*
X304239Y581756D01*
X303244Y583244D01*
X301756Y584239D01*
X300000Y584588D01*
D02*
G37*
G36*
X340000Y583588D02*
X338244Y583239D01*
X336756Y582244D01*
X335761Y580756D01*
X335412Y579000D01*
X335761Y577244D01*
X336756Y575756D01*
X338244Y574761D01*
X340000Y574412D01*
X341756Y574761D01*
X343244Y575756D01*
X344239Y577244D01*
X344588Y579000D01*
X344239Y580756D01*
X343244Y582244D01*
X341756Y583239D01*
X340000Y583588D01*
D02*
G37*
G36*
X186000Y594588D02*
X184244Y594239D01*
X182756Y593244D01*
X181761Y591756D01*
X181412Y590000D01*
X181761Y588244D01*
X182756Y586756D01*
X184244Y585761D01*
X186000Y585412D01*
X187756Y585761D01*
X189244Y586756D01*
X190239Y588244D01*
X190588Y590000D01*
X190239Y591756D01*
X189244Y593244D01*
X187756Y594239D01*
X186000Y594588D01*
D02*
G37*
G36*
X284000Y583588D02*
X282244Y583239D01*
X280756Y582244D01*
X279761Y580756D01*
X279412Y579000D01*
X279494Y578586D01*
X278414Y577506D01*
X278000Y577588D01*
X276244Y577239D01*
X274756Y576244D01*
X273761Y574756D01*
X273412Y573000D01*
X273761Y571244D01*
X274756Y569756D01*
X276244Y568761D01*
X278000Y568412D01*
X279756Y568761D01*
X281244Y569756D01*
X282239Y571244D01*
X282588Y573000D01*
X282506Y573414D01*
X283586Y574494D01*
X284000Y574412D01*
X285756Y574761D01*
X287244Y575756D01*
X288239Y577244D01*
X288588Y579000D01*
X288239Y580756D01*
X287244Y582244D01*
X285756Y583239D01*
X284000Y583588D01*
D02*
G37*
G36*
X243000Y563588D02*
X241244Y563239D01*
X239756Y562244D01*
X238761Y560756D01*
X238412Y559000D01*
X238761Y557244D01*
X239756Y555756D01*
X241244Y554761D01*
X243000Y554412D01*
X244756Y554761D01*
X246244Y555756D01*
X247239Y557244D01*
X247588Y559000D01*
X247239Y560756D01*
X246244Y562244D01*
X244756Y563239D01*
X243000Y563588D01*
D02*
G37*
G36*
X300000Y560078D02*
X298439Y559768D01*
X297116Y558884D01*
X296232Y557561D01*
X295922Y556000D01*
X296232Y554439D01*
X297116Y553116D01*
X298439Y552232D01*
X300000Y551922D01*
X301561Y552232D01*
X302884Y553116D01*
X303768Y554439D01*
X304078Y556000D01*
X303768Y557561D01*
X302884Y558884D01*
X301561Y559768D01*
X300000Y560078D01*
D02*
G37*
G36*
X218000Y582588D02*
X216244Y582239D01*
X214756Y581244D01*
X213761Y579756D01*
X213412Y578000D01*
X213761Y576244D01*
X214756Y574756D01*
X216244Y573761D01*
X217359Y573539D01*
X218088Y572720D01*
X218157Y572184D01*
X217921Y570999D01*
X218232Y569438D01*
X219116Y568115D01*
X220439Y567231D01*
X222000Y566921D01*
X223560Y567231D01*
X224883Y568115D01*
X225767Y569438D01*
X226078Y570999D01*
X225767Y572560D01*
X224883Y573883D01*
X223560Y574767D01*
X222871Y574904D01*
X222250Y576222D01*
X222254Y576321D01*
X222588Y578000D01*
X222239Y579756D01*
X221244Y581244D01*
X219756Y582239D01*
X218000Y582588D01*
D02*
G37*
G36*
X203000Y581078D02*
X201439Y580768D01*
X200116Y579884D01*
X199232Y578561D01*
X198922Y577000D01*
X199232Y575439D01*
X200116Y574116D01*
X201439Y573232D01*
X202817Y572958D01*
X203266Y572691D01*
X203927Y572029D01*
X203921Y571999D01*
X204232Y570438D01*
X205116Y569115D01*
X206439Y568231D01*
X206478Y566928D01*
X206232Y566561D01*
X205922Y565000D01*
X206232Y563439D01*
X207116Y562116D01*
X208439Y561232D01*
X210000Y560922D01*
X211561Y561232D01*
X212884Y562116D01*
X213768Y563439D01*
X214078Y565000D01*
X213768Y566561D01*
X212884Y567884D01*
X211561Y568768D01*
X211522Y570070D01*
X211768Y570438D01*
X212078Y571999D01*
X211768Y573560D01*
X210883Y574883D01*
X209560Y575767D01*
X208183Y576041D01*
X207734Y576308D01*
X207072Y576969D01*
X207078Y577000D01*
X206768Y578561D01*
X205884Y579884D01*
X204561Y580768D01*
X203000Y581078D01*
D02*
G37*
G36*
X201000Y594588D02*
X199244Y594239D01*
X197756Y593244D01*
X196761Y591756D01*
X196412Y590000D01*
X196761Y588244D01*
X197756Y586756D01*
X199244Y585761D01*
X201000Y585412D01*
X202756Y585761D01*
X204244Y586756D01*
X205239Y588244D01*
X205588Y590000D01*
X205239Y591756D01*
X204244Y593244D01*
X202756Y594239D01*
X201000Y594588D01*
D02*
G37*
G36*
X271000Y620078D02*
X269439Y619768D01*
X268116Y618884D01*
X267232Y617561D01*
X266922Y616000D01*
X267232Y614439D01*
X268116Y613116D01*
X269439Y612232D01*
X271000Y611922D01*
X272561Y612232D01*
X273884Y613116D01*
X274768Y614439D01*
X275078Y616000D01*
X274768Y617561D01*
X273884Y618884D01*
X272561Y619768D01*
X271000Y620078D01*
D02*
G37*
G36*
X262000Y615078D02*
X260439Y614768D01*
X259116Y613884D01*
X258232Y612561D01*
X257922Y611000D01*
X258232Y609439D01*
X259116Y608116D01*
X260439Y607232D01*
X262000Y606922D01*
X263561Y607232D01*
X264884Y608116D01*
X265768Y609439D01*
X266078Y611000D01*
X265768Y612561D01*
X264884Y613884D01*
X263561Y614768D01*
X262000Y615078D01*
D02*
G37*
G36*
X345000Y629588D02*
X343244Y629239D01*
X341756Y628244D01*
X340761Y626756D01*
X340412Y625000D01*
X340761Y623244D01*
X341756Y621756D01*
X343244Y620761D01*
X345000Y620412D01*
X346756Y620761D01*
X348244Y621756D01*
X349239Y623244D01*
X349588Y625000D01*
X349239Y626756D01*
X348244Y628244D01*
X346756Y629239D01*
X345000Y629588D01*
D02*
G37*
G36*
X250000Y624588D02*
X248244Y624239D01*
X246756Y623244D01*
X245761Y621756D01*
X245412Y620000D01*
X245761Y618244D01*
X246756Y616756D01*
X248244Y615761D01*
X250000Y615412D01*
X251756Y615761D01*
X253244Y616756D01*
X254239Y618244D01*
X254588Y620000D01*
X254239Y621756D01*
X253244Y623244D01*
X251756Y624239D01*
X250000Y624588D01*
D02*
G37*
G36*
X316000Y598588D02*
X314244Y598239D01*
X312756Y597244D01*
X311761Y595756D01*
X311412Y594000D01*
X311761Y592244D01*
X312756Y590756D01*
X314244Y589761D01*
X316000Y589412D01*
X317756Y589761D01*
X319244Y590756D01*
X320239Y592244D01*
X320588Y594000D01*
X320239Y595756D01*
X319244Y597244D01*
X317756Y598239D01*
X316000Y598588D01*
D02*
G37*
G36*
X241000Y595588D02*
X239244Y595239D01*
X237756Y594244D01*
X236761Y592756D01*
X236412Y591000D01*
X236761Y589244D01*
X237756Y587756D01*
X239244Y586761D01*
X241000Y586412D01*
X242756Y586761D01*
X244244Y587756D01*
X245239Y589244D01*
X245588Y591000D01*
X245239Y592756D01*
X244244Y594244D01*
X242756Y595239D01*
X241000Y595588D01*
D02*
G37*
G36*
X281000Y614078D02*
X279439Y613768D01*
X278116Y612884D01*
X277232Y611561D01*
X276922Y610000D01*
X277232Y608439D01*
X278116Y607116D01*
X279439Y606232D01*
X281000Y605922D01*
X282561Y606232D01*
X283884Y607116D01*
X284768Y608439D01*
X285078Y610000D01*
X284768Y611561D01*
X283884Y612884D01*
X282561Y613768D01*
X281000Y614078D01*
D02*
G37*
G36*
X356000Y606078D02*
X354439Y605768D01*
X353116Y604884D01*
X352232Y603561D01*
X351922Y602000D01*
X352232Y600439D01*
X353116Y599116D01*
X354439Y598232D01*
X356000Y597922D01*
X357561Y598232D01*
X358884Y599116D01*
X359768Y600439D01*
X360078Y602000D01*
X359768Y603561D01*
X358884Y604884D01*
X357561Y605768D01*
X356000Y606078D01*
D02*
G37*
G36*
X223000Y844078D02*
X221439Y843768D01*
X220116Y842884D01*
X219232Y841561D01*
X218922Y840000D01*
X219232Y838439D01*
X220116Y837116D01*
X219401Y836074D01*
X219116Y835884D01*
X218232Y834561D01*
X217922Y833000D01*
X218232Y831439D01*
X219116Y830116D01*
X220439Y829232D01*
X222000Y828922D01*
X223561Y829232D01*
X224884Y830116D01*
X225768Y831439D01*
X226078Y833000D01*
X225768Y834561D01*
X224884Y835884D01*
X225599Y836926D01*
X225884Y837116D01*
X226768Y838439D01*
X227078Y840000D01*
X226768Y841561D01*
X225884Y842884D01*
X224561Y843768D01*
X223000Y844078D01*
D02*
G37*
G36*
X376000Y837078D02*
X374439Y836768D01*
X373116Y835884D01*
X372232Y834561D01*
X371922Y833000D01*
X372232Y831439D01*
X373116Y830116D01*
X374439Y829232D01*
X376000Y828922D01*
X377561Y829232D01*
X378884Y830116D01*
X379768Y831439D01*
X380078Y833000D01*
X379768Y834561D01*
X378884Y835884D01*
X377561Y836768D01*
X376000Y837078D01*
D02*
G37*
G36*
X317000Y837588D02*
X315244Y837239D01*
X313756Y836244D01*
X312761Y834756D01*
X312412Y833000D01*
X312761Y831244D01*
X313756Y829756D01*
X315244Y828761D01*
X317000Y828412D01*
X318756Y828761D01*
X320244Y829756D01*
X321239Y831244D01*
X321588Y833000D01*
X321239Y834756D01*
X320244Y836244D01*
X318756Y837239D01*
X317000Y837588D01*
D02*
G37*
G36*
X339000D02*
X337244Y837239D01*
X335756Y836244D01*
X334761Y834756D01*
X334412Y833000D01*
X334761Y831244D01*
X335756Y829756D01*
X337244Y828761D01*
X339000Y828412D01*
X340756Y828761D01*
X342244Y829756D01*
X343239Y831244D01*
X343588Y833000D01*
X343239Y834756D01*
X342244Y836244D01*
X340756Y837239D01*
X339000Y837588D01*
D02*
G37*
G36*
X347000Y855078D02*
X345439Y854768D01*
X344116Y853884D01*
X343232Y852561D01*
X342922Y851000D01*
X343232Y849439D01*
X344116Y848116D01*
X345439Y847232D01*
X347000Y846922D01*
X348561Y847232D01*
X349724Y848009D01*
X349738Y848009D01*
X350494Y847797D01*
X351016Y847525D01*
X351232Y846439D01*
X352116Y845116D01*
X353439Y844232D01*
X355000Y843922D01*
X356561Y844232D01*
X357884Y845116D01*
X358768Y846439D01*
X359078Y848000D01*
X358768Y849561D01*
X357884Y850884D01*
X356561Y851768D01*
X355000Y852078D01*
X353439Y851768D01*
X352276Y850991D01*
X352262Y850991D01*
X351506Y851202D01*
X350984Y851475D01*
X350768Y852561D01*
X349884Y853884D01*
X348561Y854768D01*
X347000Y855078D01*
D02*
G37*
G36*
X483000Y853078D02*
X481439Y852768D01*
X480116Y851884D01*
X479232Y850561D01*
X478922Y849000D01*
X479232Y847439D01*
X480116Y846116D01*
X481439Y845232D01*
X483000Y844922D01*
X484561Y845232D01*
X485884Y846116D01*
X486768Y847439D01*
X487078Y849000D01*
X486768Y850561D01*
X485884Y851884D01*
X484561Y852768D01*
X483000Y853078D01*
D02*
G37*
G36*
X452000Y840078D02*
X450439Y839768D01*
X449116Y838884D01*
X448232Y837561D01*
X447922Y836000D01*
X448232Y834439D01*
X449116Y833116D01*
X450439Y832232D01*
X452000Y831922D01*
X453561Y832232D01*
X454884Y833116D01*
X455768Y834439D01*
X456078Y836000D01*
X455768Y837561D01*
X454884Y838884D01*
X453561Y839768D01*
X452000Y840078D01*
D02*
G37*
G36*
X185000Y843588D02*
X183244Y843239D01*
X181756Y842244D01*
X180761Y840756D01*
X180412Y839000D01*
X180761Y837244D01*
X181756Y835756D01*
X183244Y834761D01*
X185000Y834412D01*
X186756Y834761D01*
X188244Y835756D01*
X189239Y837244D01*
X189588Y839000D01*
X189239Y840756D01*
X188244Y842244D01*
X186756Y843239D01*
X185000Y843588D01*
D02*
G37*
G36*
X197000Y834588D02*
X195244Y834239D01*
X193756Y833244D01*
X192761Y831756D01*
X192412Y830000D01*
X192761Y828244D01*
X193756Y826756D01*
X195244Y825761D01*
X197000Y825412D01*
X198756Y825761D01*
X200244Y826756D01*
X201239Y828244D01*
X201588Y830000D01*
X201239Y831756D01*
X200244Y833244D01*
X198756Y834239D01*
X197000Y834588D01*
D02*
G37*
G36*
X240000Y804588D02*
X238244Y804239D01*
X236756Y803244D01*
X235761Y801756D01*
X235412Y800000D01*
X235761Y798244D01*
X236756Y796756D01*
X238244Y795761D01*
X240000Y795412D01*
X241756Y795761D01*
X243244Y796756D01*
X244239Y798244D01*
X244588Y800000D01*
X244239Y801756D01*
X243244Y803244D01*
X241756Y804239D01*
X240000Y804588D01*
D02*
G37*
G36*
X326000Y805078D02*
X324439Y804768D01*
X323116Y803884D01*
X322232Y802561D01*
X321922Y801000D01*
X322232Y799439D01*
X323116Y798116D01*
X324439Y797232D01*
X326000Y796922D01*
X327561Y797232D01*
X328884Y798116D01*
X329768Y799439D01*
X330078Y801000D01*
X329768Y802561D01*
X328884Y803884D01*
X327561Y804768D01*
X326000Y805078D01*
D02*
G37*
G36*
X197000Y797588D02*
X195244Y797239D01*
X193756Y796244D01*
X192761Y794756D01*
X192412Y793000D01*
X192761Y791244D01*
X193756Y789756D01*
X195244Y788761D01*
X197000Y788412D01*
X198756Y788761D01*
X200244Y789756D01*
X201239Y791244D01*
X201588Y793000D01*
X201239Y794756D01*
X200244Y796244D01*
X198756Y797239D01*
X197000Y797588D01*
D02*
G37*
G36*
X223000Y816588D02*
X221244Y816239D01*
X219756Y815244D01*
X218761Y813756D01*
X218412Y812000D01*
X218761Y810244D01*
X219756Y808756D01*
X221244Y807761D01*
X223000Y807412D01*
X223984Y806313D01*
X223921Y805998D01*
X224063Y805287D01*
X224013Y804332D01*
X223141Y803907D01*
X222439Y803768D01*
X221116Y802884D01*
X220232Y801561D01*
X219922Y800000D01*
X220232Y798439D01*
X221116Y797116D01*
X220401Y796074D01*
X220116Y795884D01*
X219232Y794561D01*
X218922Y793000D01*
X219232Y791439D01*
X220116Y790116D01*
X221439Y789232D01*
X223000Y788922D01*
X224561Y789232D01*
X225884Y790116D01*
X226768Y791439D01*
X227078Y793000D01*
X226768Y794561D01*
X225884Y795884D01*
X226599Y796926D01*
X226884Y797116D01*
X227768Y798439D01*
X228078Y800000D01*
X227937Y800711D01*
X227986Y801667D01*
X228859Y802091D01*
X229560Y802231D01*
X230883Y803114D01*
X231768Y804438D01*
X232078Y805998D01*
X231768Y807559D01*
X230883Y808882D01*
X229560Y809766D01*
X228475Y809982D01*
X227566Y810996D01*
X227441Y811261D01*
X227588Y812000D01*
X227239Y813756D01*
X226244Y815244D01*
X224756Y816239D01*
X223000Y816588D01*
D02*
G37*
G36*
X196000Y820588D02*
X194244Y820239D01*
X192756Y819244D01*
X191761Y817756D01*
X191412Y816000D01*
X191761Y814244D01*
X192756Y812756D01*
X194244Y811761D01*
X196000Y811412D01*
X197756Y811761D01*
X199244Y812756D01*
X200239Y814244D01*
X200588Y816000D01*
X200239Y817756D01*
X199244Y819244D01*
X197756Y820239D01*
X196000Y820588D01*
D02*
G37*
G36*
X256000Y832588D02*
X254244Y832239D01*
X252756Y831244D01*
X251761Y829756D01*
X251412Y828000D01*
X251761Y826244D01*
X252756Y824756D01*
X254244Y823761D01*
X256000Y823412D01*
X257756Y823761D01*
X259244Y824756D01*
X260239Y826244D01*
X260588Y828000D01*
X260239Y829756D01*
X259244Y831244D01*
X257756Y832239D01*
X256000Y832588D01*
D02*
G37*
G36*
X283000Y810588D02*
X281244Y810239D01*
X279756Y809244D01*
X278761Y807756D01*
X278412Y806000D01*
X278761Y804244D01*
X279756Y802756D01*
X281244Y801761D01*
X283000Y801412D01*
X284756Y801761D01*
X286244Y802756D01*
X287239Y804244D01*
X287588Y806000D01*
X287239Y807756D01*
X286244Y809244D01*
X284756Y810239D01*
X283000Y810588D01*
D02*
G37*
G36*
X317000Y814588D02*
X315244Y814239D01*
X313756Y813244D01*
X312761Y811756D01*
X312412Y810000D01*
X312761Y808244D01*
X313756Y806756D01*
X315244Y805761D01*
X317000Y805412D01*
X318756Y805761D01*
X320244Y806756D01*
X321239Y808244D01*
X321588Y810000D01*
X321239Y811756D01*
X320244Y813244D01*
X318756Y814239D01*
X317000Y814588D01*
D02*
G37*
G36*
X313000Y878588D02*
X311244Y878239D01*
X309756Y877244D01*
X308761Y875756D01*
X308412Y874000D01*
X308761Y872244D01*
X309756Y870756D01*
X311244Y869761D01*
X313000Y869412D01*
X314756Y869761D01*
X316244Y870756D01*
X317239Y872244D01*
X317588Y874000D01*
X317239Y875756D01*
X316244Y877244D01*
X314756Y878239D01*
X313000Y878588D01*
D02*
G37*
G36*
X334000Y878078D02*
X332439Y877768D01*
X331116Y876884D01*
X330232Y875561D01*
X329922Y874000D01*
X330232Y872439D01*
X331116Y871116D01*
X332439Y870232D01*
X334000Y869922D01*
X335561Y870232D01*
X336884Y871116D01*
X337768Y872439D01*
X338078Y874000D01*
X337768Y875561D01*
X336884Y876884D01*
X335561Y877768D01*
X334000Y878078D01*
D02*
G37*
G36*
X473000Y870078D02*
X471439Y869768D01*
X470116Y868884D01*
X469232Y867561D01*
X469048Y866635D01*
X467904Y866569D01*
X467745Y866595D01*
X466884Y867884D01*
X465561Y868768D01*
X464000Y869078D01*
X462439Y868768D01*
X461116Y867884D01*
X460232Y866561D01*
X459922Y865000D01*
X460232Y863439D01*
X461116Y862116D01*
X462439Y861232D01*
X464000Y860922D01*
X465561Y861232D01*
X466884Y862116D01*
X467768Y863439D01*
X467952Y864365D01*
X469096Y864431D01*
X469255Y864405D01*
X470116Y863116D01*
X471439Y862232D01*
X473000Y861922D01*
X474561Y862232D01*
X475884Y863116D01*
X476768Y864439D01*
X477078Y866000D01*
X476768Y867561D01*
X475884Y868884D01*
X474561Y869768D01*
X473000Y870078D01*
D02*
G37*
G36*
X411000Y877078D02*
X409439Y876768D01*
X408116Y875884D01*
X407232Y874561D01*
X406922Y873000D01*
X407232Y871439D01*
X408116Y870116D01*
X409439Y869232D01*
X411000Y868922D01*
X412561Y869232D01*
X413884Y870116D01*
X414768Y871439D01*
X415078Y873000D01*
X414768Y874561D01*
X413884Y875884D01*
X412561Y876768D01*
X411000Y877078D01*
D02*
G37*
G36*
X268000Y882078D02*
X266439Y881768D01*
X265116Y880884D01*
X264232Y879561D01*
X263922Y878000D01*
X264232Y876439D01*
X265116Y875116D01*
X266439Y874232D01*
X268000Y873922D01*
X269561Y874232D01*
X270884Y875116D01*
X271768Y876439D01*
X272078Y878000D01*
X271768Y879561D01*
X270884Y880884D01*
X269561Y881768D01*
X268000Y882078D01*
D02*
G37*
G36*
X278000Y883078D02*
X276439Y882768D01*
X275116Y881884D01*
X274232Y880561D01*
X273922Y879000D01*
X274232Y877439D01*
X275116Y876116D01*
X276439Y875232D01*
X278000Y874922D01*
X279561Y875232D01*
X280884Y876116D01*
X281768Y877439D01*
X282078Y879000D01*
X281768Y880561D01*
X280884Y881884D01*
X279561Y882768D01*
X278000Y883078D01*
D02*
G37*
G36*
X233000Y881588D02*
X231244Y881239D01*
X229756Y880244D01*
X228761Y878756D01*
X228412Y877000D01*
X228761Y875244D01*
X229756Y873756D01*
X231244Y872761D01*
X233000Y872412D01*
X234756Y872761D01*
X236244Y873756D01*
X237239Y875244D01*
X237588Y877000D01*
X237239Y878756D01*
X236244Y880244D01*
X234756Y881239D01*
X233000Y881588D01*
D02*
G37*
G36*
X246000D02*
X244244Y881239D01*
X242756Y880244D01*
X241761Y878756D01*
X241412Y877000D01*
X241761Y875244D01*
X242756Y873756D01*
X244244Y872761D01*
X246000Y872412D01*
X247756Y872761D01*
X249244Y873756D01*
X250239Y875244D01*
X250588Y877000D01*
X250239Y878756D01*
X249244Y880244D01*
X247756Y881239D01*
X246000Y881588D01*
D02*
G37*
G36*
X295000Y874078D02*
X293439Y873768D01*
X292116Y872884D01*
X291232Y871561D01*
X290922Y870000D01*
X291232Y868439D01*
X292116Y867116D01*
X293439Y866232D01*
X295000Y865922D01*
X296561Y866232D01*
X297884Y867116D01*
X298768Y868439D01*
X299078Y870000D01*
X298768Y871561D01*
X297884Y872884D01*
X296561Y873768D01*
X295000Y874078D01*
D02*
G37*
G36*
X320000Y856588D02*
X318244Y856239D01*
X316756Y855244D01*
X315761Y853756D01*
X315412Y852000D01*
X315761Y850244D01*
X316756Y848756D01*
X318244Y847761D01*
X320000Y847412D01*
X321756Y847761D01*
X323244Y848756D01*
X324239Y850244D01*
X324588Y852000D01*
X324239Y853756D01*
X323244Y855244D01*
X321756Y856239D01*
X320000Y856588D01*
D02*
G37*
G36*
X412000Y856078D02*
X410439Y855768D01*
X409116Y854884D01*
X408232Y853561D01*
X407922Y852000D01*
X408232Y850439D01*
X409116Y849116D01*
X410439Y848232D01*
X412000Y847922D01*
X413561Y848232D01*
X414884Y849116D01*
X415768Y850439D01*
X416078Y852000D01*
X415768Y853561D01*
X414884Y854884D01*
X413561Y855768D01*
X412000Y856078D01*
D02*
G37*
G36*
X259000Y855588D02*
X257244Y855239D01*
X255756Y854244D01*
X254761Y852756D01*
X254412Y851000D01*
X254761Y849244D01*
X255756Y847756D01*
X257244Y846761D01*
X259000Y846412D01*
X260756Y846761D01*
X262244Y847756D01*
X263239Y849244D01*
X263588Y851000D01*
X263239Y852756D01*
X262244Y854244D01*
X260756Y855239D01*
X259000Y855588D01*
D02*
G37*
G36*
X294000Y856588D02*
X292244Y856239D01*
X290756Y855244D01*
X289761Y853756D01*
X289412Y852000D01*
X289761Y850244D01*
X290756Y848756D01*
X292244Y847761D01*
X294000Y847412D01*
X295756Y847761D01*
X297244Y848756D01*
X298239Y850244D01*
X298588Y852000D01*
X298239Y853756D01*
X297244Y855244D01*
X295756Y856239D01*
X294000Y856588D01*
D02*
G37*
G36*
X445000Y874078D02*
X443439Y873768D01*
X442116Y872884D01*
X441232Y871561D01*
X440922Y870000D01*
X441232Y868439D01*
X442116Y867116D01*
X443439Y866232D01*
X445000Y865922D01*
X446153Y866151D01*
X446343Y866047D01*
X447047Y865343D01*
X447151Y865153D01*
X446922Y864000D01*
X447232Y862439D01*
X448116Y861116D01*
X449439Y860232D01*
X451000Y859922D01*
X452561Y860232D01*
X453884Y861116D01*
X454768Y862439D01*
X455078Y864000D01*
X454768Y865561D01*
X453884Y866884D01*
X452561Y867768D01*
X451000Y868078D01*
X449847Y867849D01*
X449657Y867953D01*
X448953Y868657D01*
X448849Y868847D01*
X449078Y870000D01*
X448768Y871561D01*
X447884Y872884D01*
X446561Y873768D01*
X445000Y874078D01*
D02*
G37*
G36*
X282000Y870078D02*
X280439Y869768D01*
X279116Y868884D01*
X278232Y867561D01*
X277922Y866000D01*
X278232Y864439D01*
X279116Y863116D01*
X280439Y862232D01*
X282000Y861922D01*
X283561Y862232D01*
X284884Y863116D01*
X285768Y864439D01*
X286078Y866000D01*
X285768Y867561D01*
X284884Y868884D01*
X283561Y869768D01*
X282000Y870078D01*
D02*
G37*
G36*
X429000Y856078D02*
X427439Y855768D01*
X426116Y854884D01*
X425232Y853561D01*
X424989Y852341D01*
X424095Y851786D01*
X423690Y851682D01*
X423561Y851768D01*
X422000Y852078D01*
X420439Y851768D01*
X419116Y850884D01*
X418232Y849561D01*
X417922Y848000D01*
X418232Y846439D01*
X419116Y845116D01*
X420439Y844232D01*
X422000Y843922D01*
X423561Y844232D01*
X424884Y845116D01*
X425768Y846439D01*
X426011Y847659D01*
X426905Y848214D01*
X427310Y848318D01*
X427439Y848232D01*
X429000Y847922D01*
X430561Y848232D01*
X431884Y849116D01*
X432768Y850439D01*
X433078Y852000D01*
X432768Y853561D01*
X431884Y854884D01*
X430561Y855768D01*
X429000Y856078D01*
D02*
G37*
G36*
X193000Y862588D02*
X191244Y862239D01*
X189756Y861244D01*
X188761Y859756D01*
X188412Y858000D01*
X188761Y856244D01*
X189756Y854756D01*
X191244Y853761D01*
X193000Y853412D01*
X194756Y853761D01*
X196244Y854756D01*
X197239Y856244D01*
X197588Y858000D01*
X197239Y859756D01*
X196244Y861244D01*
X194756Y862239D01*
X193000Y862588D01*
D02*
G37*
G36*
X296000Y792588D02*
X294244Y792239D01*
X292756Y791244D01*
X291761Y789756D01*
X291412Y788000D01*
X291761Y786244D01*
X292756Y784756D01*
X294244Y783761D01*
X296000Y783412D01*
X297756Y783761D01*
X299244Y784756D01*
X300239Y786244D01*
X300588Y788000D01*
X300239Y789756D01*
X299244Y791244D01*
X297756Y792239D01*
X296000Y792588D01*
D02*
G37*
G36*
X218000Y731078D02*
X216439Y730768D01*
X215116Y729884D01*
X214232Y728561D01*
X213922Y727000D01*
X214232Y725439D01*
X215116Y724116D01*
X216439Y723232D01*
X218000Y722922D01*
X219561Y723232D01*
X220884Y724116D01*
X221768Y725439D01*
X222078Y727000D01*
X221768Y728561D01*
X220884Y729884D01*
X219561Y730768D01*
X218000Y731078D01*
D02*
G37*
G36*
X258000Y729078D02*
X256439Y728768D01*
X255116Y727884D01*
X254232Y726561D01*
X253922Y725000D01*
X253927Y724970D01*
X253266Y724309D01*
X252817Y724042D01*
X251439Y723768D01*
X250638Y723232D01*
X249250Y723700D01*
X249239Y723756D01*
X248244Y725244D01*
X246756Y726239D01*
X245000Y726588D01*
X243244Y726239D01*
X241756Y725244D01*
X240761Y723756D01*
X240412Y722000D01*
X240761Y720244D01*
X241756Y718756D01*
X243244Y717761D01*
X245000Y717412D01*
X246756Y717761D01*
X247918Y718537D01*
X248832Y718469D01*
X249396Y718194D01*
X250116Y717116D01*
X251439Y716232D01*
X253000Y715922D01*
X254561Y716232D01*
X255884Y717116D01*
X256768Y718439D01*
X257078Y720000D01*
X257073Y720030D01*
X257734Y720691D01*
X258183Y720958D01*
X259561Y721232D01*
X260884Y722116D01*
X261768Y723439D01*
X262078Y725000D01*
X261768Y726561D01*
X260884Y727884D01*
X259561Y728768D01*
X258000Y729078D01*
D02*
G37*
G36*
X232000Y727588D02*
X230244Y727239D01*
X228756Y726244D01*
X227761Y724756D01*
X227412Y723000D01*
X227761Y721244D01*
X228756Y719756D01*
X230244Y718761D01*
X232000Y718412D01*
X233756Y718761D01*
X235244Y719756D01*
X236239Y721244D01*
X236588Y723000D01*
X236239Y724756D01*
X235244Y726244D01*
X233756Y727239D01*
X232000Y727588D01*
D02*
G37*
G36*
X360000Y729588D02*
X358244Y729239D01*
X356756Y728244D01*
X355761Y726756D01*
X355412Y725000D01*
X355761Y723244D01*
X356756Y721756D01*
X358244Y720761D01*
X360000Y720412D01*
X361756Y720761D01*
X363244Y721756D01*
X364239Y723244D01*
X364588Y725000D01*
X364239Y726756D01*
X363244Y728244D01*
X361756Y729239D01*
X360000Y729588D01*
D02*
G37*
G36*
X218000Y742078D02*
X216439Y741768D01*
X215116Y740884D01*
X214232Y739561D01*
X213922Y738000D01*
X214232Y736439D01*
X215116Y735116D01*
X216439Y734232D01*
X218000Y733922D01*
X219561Y734232D01*
X220884Y735116D01*
X221768Y736439D01*
X222078Y738000D01*
X221768Y739561D01*
X220884Y740884D01*
X219561Y741768D01*
X218000Y742078D01*
D02*
G37*
G36*
X237000Y752588D02*
X235244Y752239D01*
X233756Y751244D01*
X232761Y749756D01*
X232412Y748000D01*
X232761Y746244D01*
X233756Y744756D01*
X235244Y743761D01*
X237000Y743412D01*
X238756Y743761D01*
X240244Y744756D01*
X241239Y746244D01*
X241588Y748000D01*
X241239Y749756D01*
X240244Y751244D01*
X238756Y752239D01*
X237000Y752588D01*
D02*
G37*
G36*
X443000Y739078D02*
X441439Y738768D01*
X440116Y737884D01*
X439232Y736561D01*
X438922Y735000D01*
X439232Y733439D01*
X440116Y732116D01*
X441439Y731232D01*
X442141Y731092D01*
X443013Y730667D01*
X443063Y729713D01*
X442922Y729000D01*
X443232Y727439D01*
X444116Y726116D01*
X445439Y725232D01*
X447000Y724922D01*
X448561Y725232D01*
X449884Y726116D01*
X450768Y727439D01*
X451078Y729000D01*
X450768Y730561D01*
X449884Y731884D01*
X448561Y732768D01*
X447859Y732908D01*
X446987Y733333D01*
X446937Y734287D01*
X447078Y735000D01*
X446768Y736561D01*
X445884Y737884D01*
X444561Y738768D01*
X443000Y739078D01*
D02*
G37*
G36*
X458000Y740078D02*
X456439Y739768D01*
X455116Y738884D01*
X454232Y737561D01*
X453922Y736000D01*
X454232Y734439D01*
X455116Y733116D01*
X456439Y732232D01*
X458000Y731922D01*
X458072Y731936D01*
X459089Y730843D01*
X458922Y730000D01*
X459232Y728439D01*
X460116Y727116D01*
X461439Y726232D01*
X463000Y725922D01*
X464561Y726232D01*
X465884Y727116D01*
X466768Y728439D01*
X467078Y730000D01*
X466768Y731561D01*
X465884Y732884D01*
X464561Y733768D01*
X463000Y734078D01*
X462928Y734064D01*
X461911Y735156D01*
X462078Y736000D01*
X461768Y737561D01*
X460884Y738884D01*
X459561Y739768D01*
X458000Y740078D01*
D02*
G37*
G36*
X341000Y724588D02*
X339244Y724239D01*
X337756Y723244D01*
X336761Y721756D01*
X336412Y720000D01*
X336761Y718244D01*
X337756Y716756D01*
X339244Y715761D01*
X341000Y715412D01*
X342756Y715761D01*
X344244Y716756D01*
X345239Y718244D01*
X345588Y720000D01*
X345239Y721756D01*
X344244Y723244D01*
X342756Y724239D01*
X341000Y724588D01*
D02*
G37*
G36*
X200000Y697588D02*
X198244Y697239D01*
X196756Y696244D01*
X195761Y694756D01*
X195412Y693000D01*
X195761Y691244D01*
X196756Y689756D01*
X198244Y688761D01*
X200000Y688412D01*
X201756Y688761D01*
X203244Y689756D01*
X204239Y691244D01*
X204588Y693000D01*
X204239Y694756D01*
X203244Y696244D01*
X201756Y697239D01*
X200000Y697588D01*
D02*
G37*
G36*
X261000Y717078D02*
X259439Y716768D01*
X258116Y715884D01*
X257232Y714561D01*
X256922Y713000D01*
X257232Y711439D01*
X258116Y710116D01*
X259439Y709232D01*
X260817Y708958D01*
X261266Y708691D01*
X261928Y708029D01*
X261922Y708000D01*
X262232Y706439D01*
X263116Y705116D01*
X264439Y704232D01*
X265817Y703958D01*
X266266Y703691D01*
X266928Y703029D01*
X266922Y703000D01*
X267232Y701439D01*
X268116Y700116D01*
X269439Y699232D01*
X271000Y698922D01*
X271712Y699063D01*
X272668Y699012D01*
X273092Y698141D01*
X273232Y697438D01*
X274116Y696115D01*
X275439Y695231D01*
X276999Y694920D01*
X277029Y694926D01*
X277689Y694266D01*
X277958Y693816D01*
X278232Y692439D01*
X279116Y691116D01*
X280439Y690232D01*
X282000Y689922D01*
X283561Y690232D01*
X284884Y691116D01*
X285768Y692439D01*
X286078Y694000D01*
X285768Y695561D01*
X284884Y696884D01*
X283561Y697768D01*
X282000Y698078D01*
X281970Y698072D01*
X281310Y698732D01*
X281041Y699183D01*
X280767Y700559D01*
X279883Y701882D01*
X278560Y702766D01*
X276999Y703077D01*
X276287Y702935D01*
X275332Y702987D01*
X274908Y703857D01*
X274768Y704561D01*
X273884Y705884D01*
X272561Y706768D01*
X271183Y707042D01*
X270734Y707309D01*
X270072Y707971D01*
X270078Y708000D01*
X269768Y709561D01*
X268884Y710884D01*
X267561Y711768D01*
X266183Y712042D01*
X265734Y712309D01*
X265072Y712971D01*
X265078Y713000D01*
X264768Y714561D01*
X263884Y715884D01*
X262561Y716768D01*
X261000Y717078D01*
D02*
G37*
G36*
X360000Y684588D02*
X358244Y684239D01*
X356756Y683244D01*
X355761Y681756D01*
X355412Y680000D01*
X355761Y678244D01*
X356756Y676756D01*
X358244Y675761D01*
X360000Y675412D01*
X361756Y675761D01*
X363244Y676756D01*
X364239Y678244D01*
X364588Y680000D01*
X364239Y681756D01*
X363244Y683244D01*
X361756Y684239D01*
X360000Y684588D01*
D02*
G37*
G36*
X257000Y692588D02*
X255244Y692239D01*
X253756Y691244D01*
X252761Y689756D01*
X252412Y688000D01*
X252761Y686244D01*
X253756Y684756D01*
X255244Y683761D01*
X257000Y683412D01*
X258756Y683761D01*
X260244Y684756D01*
X261239Y686244D01*
X261588Y688000D01*
X261239Y689756D01*
X260244Y691244D01*
X258756Y692239D01*
X257000Y692588D01*
D02*
G37*
G36*
X191000Y718588D02*
X189244Y718239D01*
X187756Y717244D01*
X186761Y715756D01*
X186412Y714000D01*
X186761Y712244D01*
X187756Y710756D01*
X189244Y709761D01*
X191000Y709412D01*
X192756Y709761D01*
X194244Y710756D01*
X195239Y712244D01*
X195588Y714000D01*
X195239Y715756D01*
X194244Y717244D01*
X192756Y718239D01*
X191000Y718588D01*
D02*
G37*
G36*
X430000Y722588D02*
X428244Y722239D01*
X426756Y721244D01*
X425761Y719756D01*
X425412Y718000D01*
X425761Y716244D01*
X426756Y714756D01*
X428244Y713761D01*
X430000Y713412D01*
X431756Y713761D01*
X433244Y714756D01*
X434239Y716244D01*
X434588Y718000D01*
X434239Y719756D01*
X433244Y721244D01*
X431756Y722239D01*
X430000Y722588D01*
D02*
G37*
G36*
X221000Y703588D02*
X219244Y703239D01*
X217756Y702244D01*
X216761Y700756D01*
X216412Y699000D01*
X216761Y697244D01*
X217756Y695756D01*
X219244Y694761D01*
X221000Y694412D01*
X222756Y694761D01*
X224244Y695756D01*
X225239Y697244D01*
X225588Y699000D01*
X225239Y700756D01*
X224244Y702244D01*
X222756Y703239D01*
X221000Y703588D01*
D02*
G37*
G36*
X360000Y712588D02*
X358244Y712239D01*
X356756Y711244D01*
X355761Y709756D01*
X355412Y708000D01*
X355761Y706244D01*
X356756Y704756D01*
X358244Y703761D01*
X360000Y703412D01*
X361756Y703761D01*
X363244Y704756D01*
X364239Y706244D01*
X364588Y708000D01*
X364239Y709756D01*
X363244Y711244D01*
X361756Y712239D01*
X360000Y712588D01*
D02*
G37*
G36*
X223000Y776078D02*
X221439Y775768D01*
X220116Y774884D01*
X219232Y773561D01*
X218922Y772000D01*
X219232Y770439D01*
X220116Y769116D01*
X221439Y768232D01*
X223000Y767922D01*
X224561Y768232D01*
X225574Y768909D01*
X225674Y768937D01*
X226388Y768857D01*
X227001Y768051D01*
X226533Y766787D01*
X226439Y766768D01*
X225116Y765884D01*
X224232Y764561D01*
X223922Y763000D01*
X224232Y761439D01*
X225116Y760116D01*
X226439Y759232D01*
X228000Y758922D01*
X229561Y759232D01*
X230884Y760116D01*
X231768Y761439D01*
X232078Y763000D01*
X231768Y764561D01*
X231350Y765186D01*
X231929Y766597D01*
X232756Y766761D01*
X234244Y767756D01*
X235239Y769244D01*
X235588Y771000D01*
X235239Y772756D01*
X234244Y774244D01*
X232756Y775239D01*
X231000Y775588D01*
X229244Y775239D01*
X227756Y774244D01*
X226270Y774306D01*
X225884Y774884D01*
X224561Y775768D01*
X223000Y776078D01*
D02*
G37*
G36*
X383000Y770588D02*
X381244Y770239D01*
X379756Y769244D01*
X378761Y767756D01*
X378412Y766000D01*
X378761Y764244D01*
X379756Y762756D01*
X381244Y761761D01*
X383000Y761412D01*
X384756Y761761D01*
X386244Y762756D01*
X387239Y764244D01*
X387588Y766000D01*
X387239Y767756D01*
X386244Y769244D01*
X384756Y770239D01*
X383000Y770588D01*
D02*
G37*
G36*
X274000Y764588D02*
X272244Y764239D01*
X270756Y763244D01*
X269761Y761756D01*
X269412Y760000D01*
X269761Y758244D01*
X270756Y756756D01*
X272244Y755761D01*
X274000Y755412D01*
X275756Y755761D01*
X277244Y756756D01*
X278239Y758244D01*
X278588Y760000D01*
X278239Y761756D01*
X277244Y763244D01*
X275756Y764239D01*
X274000Y764588D01*
D02*
G37*
G36*
X239000Y764078D02*
X237439Y763768D01*
X236116Y762884D01*
X235232Y761561D01*
X234922Y760000D01*
X235232Y758439D01*
X236116Y757116D01*
X237439Y756232D01*
X239000Y755922D01*
X240561Y756232D01*
X241884Y757116D01*
X242768Y758439D01*
X243078Y760000D01*
X242768Y761561D01*
X241884Y762884D01*
X240561Y763768D01*
X239000Y764078D01*
D02*
G37*
G36*
X434000Y778588D02*
X432244Y778239D01*
X430756Y777244D01*
X429761Y775756D01*
X429412Y774000D01*
X429761Y772244D01*
X430756Y770756D01*
X432244Y769761D01*
X434000Y769412D01*
X435756Y769761D01*
X437244Y770756D01*
X438239Y772244D01*
X438588Y774000D01*
X438239Y775756D01*
X437244Y777244D01*
X435756Y778239D01*
X434000Y778588D01*
D02*
G37*
G36*
X199000Y785588D02*
X197244Y785239D01*
X195756Y784244D01*
X194761Y782756D01*
X194412Y781000D01*
X194761Y779244D01*
X195756Y777756D01*
X197244Y776761D01*
X199000Y776412D01*
X200756Y776761D01*
X202244Y777756D01*
X203239Y779244D01*
X203588Y781000D01*
X203239Y782756D01*
X202244Y784244D01*
X200756Y785239D01*
X199000Y785588D01*
D02*
G37*
G36*
X332000Y771588D02*
X330244Y771239D01*
X328756Y770244D01*
X327761Y768756D01*
X327412Y767000D01*
X327761Y765244D01*
X328756Y763756D01*
X330244Y762761D01*
X332000Y762412D01*
X333756Y762761D01*
X335244Y763756D01*
X336239Y765244D01*
X336588Y767000D01*
X336239Y768756D01*
X335244Y770244D01*
X333756Y771239D01*
X332000Y771588D01*
D02*
G37*
G36*
X249000Y778588D02*
X247244Y778239D01*
X245756Y777244D01*
X244761Y775756D01*
X244412Y774000D01*
X244761Y772244D01*
X245756Y770756D01*
X247244Y769761D01*
X249000Y769412D01*
X250756Y769761D01*
X252244Y770756D01*
X253239Y772244D01*
X253588Y774000D01*
X253239Y775756D01*
X252244Y777244D01*
X250756Y778239D01*
X249000Y778588D01*
D02*
G37*
G36*
X457000Y758588D02*
X455244Y758239D01*
X453756Y757244D01*
X452761Y755756D01*
X452412Y754000D01*
X452761Y752244D01*
X453756Y750756D01*
X455244Y749761D01*
X457000Y749412D01*
X458756Y749761D01*
X460244Y750756D01*
X461239Y752244D01*
X461588Y754000D01*
X461239Y755756D01*
X460244Y757244D01*
X458756Y758239D01*
X457000Y758588D01*
D02*
G37*
G36*
X320000Y753588D02*
X318244Y753239D01*
X316756Y752244D01*
X315761Y750756D01*
X315412Y749000D01*
X315761Y747244D01*
X316756Y745756D01*
X318244Y744761D01*
X320000Y744412D01*
X321756Y744761D01*
X323244Y745756D01*
X324239Y747244D01*
X324588Y749000D01*
X324239Y750756D01*
X323244Y752244D01*
X321756Y753239D01*
X320000Y753588D01*
D02*
G37*
G36*
X337000Y761078D02*
X335439Y760768D01*
X334116Y759884D01*
X333232Y758561D01*
X332922Y757000D01*
X333232Y755439D01*
X334116Y754116D01*
X335439Y753232D01*
X337000Y752922D01*
X337919Y753104D01*
X337959Y753063D01*
X338549Y751935D01*
X337761Y750756D01*
X337412Y749000D01*
X337761Y747244D01*
X338756Y745756D01*
X340244Y744761D01*
X342000Y744412D01*
X343756Y744761D01*
X345244Y745756D01*
X346239Y747244D01*
X346588Y749000D01*
X346239Y750756D01*
X345244Y752244D01*
X343756Y753239D01*
X342000Y753588D01*
X340869Y753363D01*
X340150Y754515D01*
X340768Y755439D01*
X341078Y757000D01*
X340768Y758561D01*
X339884Y759884D01*
X338561Y760768D01*
X337000Y761078D01*
D02*
G37*
G36*
X259000Y756078D02*
X257439Y755768D01*
X256116Y754884D01*
X255232Y753561D01*
X254922Y752000D01*
X255232Y750439D01*
X256116Y749116D01*
X257439Y748232D01*
X259000Y747922D01*
X260561Y748232D01*
X261255Y748696D01*
X262412Y748000D01*
X262761Y746244D01*
X263756Y744756D01*
X265244Y743761D01*
X267000Y743412D01*
X268756Y743761D01*
X270244Y744756D01*
X271239Y746244D01*
X271588Y748000D01*
X271239Y749756D01*
X270244Y751244D01*
X268756Y752239D01*
X267000Y752588D01*
X265244Y752239D01*
X264294Y751604D01*
X263818Y751759D01*
X263026Y752264D01*
X262768Y753561D01*
X261884Y754884D01*
X260561Y755768D01*
X259000Y756078D01*
D02*
G37*
G36*
X434000Y752588D02*
X432244Y752239D01*
X430756Y751244D01*
X429761Y749756D01*
X429412Y748000D01*
X429761Y746244D01*
X430756Y744756D01*
X432244Y743761D01*
X434000Y743412D01*
X435756Y743761D01*
X437244Y744756D01*
X438239Y746244D01*
X438588Y748000D01*
X438239Y749756D01*
X437244Y751244D01*
X435756Y752239D01*
X434000Y752588D01*
D02*
G37*
G36*
X247000Y757078D02*
X245439Y756768D01*
X244116Y755884D01*
X243232Y754561D01*
X242922Y753000D01*
X243232Y751439D01*
X244116Y750116D01*
X245439Y749232D01*
X247000Y748922D01*
X248561Y749232D01*
X249884Y750116D01*
X250768Y751439D01*
X251078Y753000D01*
X250768Y754561D01*
X249884Y755884D01*
X248561Y756768D01*
X247000Y757078D01*
D02*
G37*
G36*
X378000D02*
X376439Y756768D01*
X375116Y755884D01*
X374232Y754561D01*
X373922Y753000D01*
X374232Y751439D01*
X375116Y750116D01*
X376439Y749232D01*
X378000Y748922D01*
X379561Y749232D01*
X380884Y750116D01*
X381768Y751439D01*
X382078Y753000D01*
X381768Y754561D01*
X380884Y755884D01*
X379561Y756768D01*
X378000Y757078D01*
D02*
G37*
G36*
X193000Y756588D02*
X191244Y756239D01*
X189756Y755244D01*
X188761Y753756D01*
X188412Y752000D01*
X188761Y750244D01*
X189756Y748756D01*
X191244Y747761D01*
X193000Y747412D01*
X194756Y747761D01*
X196244Y748756D01*
X197239Y750244D01*
X197588Y752000D01*
X197239Y753756D01*
X196244Y755244D01*
X194756Y756239D01*
X193000Y756588D01*
D02*
G37*
G36*
X396000D02*
X394244Y756239D01*
X392756Y755244D01*
X391761Y753756D01*
X391412Y752000D01*
X391761Y750244D01*
X392756Y748756D01*
X394244Y747761D01*
X396000Y747412D01*
X397756Y747761D01*
X399244Y748756D01*
X400239Y750244D01*
X400588Y752000D01*
X400239Y753756D01*
X399244Y755244D01*
X397756Y756239D01*
X396000Y756588D01*
D02*
G37*
%LPD*%
G36*
X101965Y494263D02*
X118211Y478016D01*
Y433762D01*
X86488Y402039D01*
X78569D01*
X71638Y418755D01*
X84439Y431555D01*
X96000Y433000D01*
X97000Y434000D01*
X93539Y446978D01*
Y487539D01*
X101000Y495000D01*
X101965Y494263D01*
D02*
G37*
D48*
X75944Y861945D02*
X78250Y859639D01*
X75889Y862000D02*
X75944Y861945D01*
X96250Y774915D02*
Y795000D01*
X92000Y774555D02*
Y858361D01*
X89250Y775694D02*
Y859500D01*
X86500Y776833D02*
Y863500D01*
X83750Y777972D02*
Y870750D01*
X81000Y779111D02*
Y868000D01*
X73250Y751915D02*
X96250Y774915D01*
X73250Y727085D02*
Y751915D01*
X70500Y753055D02*
X92000Y774555D01*
X70500Y725946D02*
Y753055D01*
X67750Y754194D02*
X89250Y775694D01*
X67750Y724806D02*
Y754194D01*
X65000Y755333D02*
X86500Y776833D01*
X65000Y723667D02*
Y755333D01*
X62250Y756472D02*
X83750Y777972D01*
X62250Y722528D02*
Y756472D01*
X59500Y757611D02*
X81000Y779111D01*
X59500Y721389D02*
Y757611D01*
X78250Y780250D02*
Y859639D01*
X56750Y758750D02*
X78250Y780250D01*
X56750Y720250D02*
Y758750D01*
X120250Y432917D02*
Y478861D01*
X94250Y504861D02*
X120250Y478861D01*
X60000Y400000D02*
X87333D01*
X120250Y432917D01*
X102500Y508278D02*
X128500Y482278D01*
X60000Y361000D02*
X128500Y429500D01*
X99750Y507139D02*
X125750Y481139D01*
X63361Y368250D02*
X125750Y430639D01*
X128500Y429500D02*
Y482278D01*
X125750Y430639D02*
Y481139D01*
X97000Y506000D02*
X123000Y480000D01*
Y431778D02*
Y480000D01*
X62222Y371000D02*
X123000Y431778D01*
X57000Y371000D02*
X62222D01*
X58139Y368250D02*
X63361D01*
X75000Y440000D02*
X86000Y451000D01*
X60000Y440000D02*
X75000D01*
X60000Y420000D02*
X88750Y448750D01*
X54000Y404000D02*
X70000Y420000D01*
X70000D02*
X91500Y441500D01*
X73250Y727085D02*
X102500Y697834D01*
X70500Y725946D02*
X99750Y696695D01*
X67750Y724806D02*
X97000Y695556D01*
X65000Y723667D02*
X94250Y694417D01*
X62250Y722528D02*
X91500Y693278D01*
X59500Y721389D02*
X88750Y692139D01*
X56750Y720250D02*
X86000Y691000D01*
X52750Y362861D02*
X58139Y368250D01*
X52750Y327250D02*
Y362861D01*
X50000Y364000D02*
X57000Y371000D01*
X50000Y310000D02*
Y364000D01*
X75889Y862000D02*
X76000D01*
X54000Y384000D02*
X58000Y380000D01*
X60000D01*
X54000Y384000D02*
Y404000D01*
X96000Y866250D02*
Y874000D01*
X104000Y870361D02*
Y878000D01*
X96250Y795000D02*
X102250Y801000D01*
X147000D01*
X52750Y327250D02*
X60000Y320000D01*
X50000Y310000D02*
X60000Y300000D01*
X92000Y858361D02*
X104000Y870361D01*
X89250Y859500D02*
X96000Y866250D01*
X79000Y870000D02*
X81000Y868000D01*
X83750Y870750D02*
X86000Y873000D01*
X86500Y863500D02*
X91000Y868000D01*
X120000Y706000D02*
Y710000D01*
X105250Y691250D02*
X120000Y706000D01*
X105250Y576750D02*
X110000Y572000D01*
X169000D01*
X183000Y558000D01*
X105250Y576750D02*
Y691250D01*
X86000Y451000D02*
Y691000D01*
X88750Y448750D02*
Y692139D01*
X91500Y441500D02*
Y693278D01*
X94250Y504861D02*
Y694417D01*
X97000Y506000D02*
Y695556D01*
X99750Y507139D02*
Y696695D01*
X102500Y508278D02*
Y697834D01*
D49*
X394000Y22331D02*
X392334Y23997D01*
X389002D01*
X387336Y22331D01*
Y20665D01*
X389002Y18998D01*
X390668D01*
X389002D01*
X387336Y17332D01*
Y15666D01*
X389002Y14000D01*
X392334D01*
X394000Y15666D01*
D50*
X548000Y874000D02*
Y912000D01*
Y819000D02*
Y874000D01*
X511000Y551000D02*
X533000D01*
X545000Y765000D02*
Y816000D01*
Y736000D02*
Y765000D01*
Y656000D02*
Y736000D01*
Y816000D02*
X548000Y819000D01*
X539000Y650000D02*
X545000Y656000D01*
X533000Y551000D02*
X539000Y557000D01*
Y650000D01*
X547000Y912000D02*
Y914000D01*
X534000Y927000D02*
X547000Y914000D01*
X162000Y780000D02*
Y905000D01*
X184000Y927000D01*
X534000D01*
X162000Y780000D02*
X165000Y777000D01*
Y775000D02*
Y777000D01*
D51*
X51997Y690100D02*
G03*
X51000Y700000I-997J4900D01*
G01*
Y606000D02*
G03*
X52039Y615891I0J5000D01*
G01*
X2001Y743001D02*
G03*
X22001Y763001I0J20000D01*
G01*
X52000Y946000D02*
G03*
X22001Y916000I0J-30000D01*
G01*
X577999Y893000D02*
G03*
X524999Y946000I-53000J0D01*
G01*
Y-10000D02*
G03*
X577999Y43000I0J53000D01*
G01*
X22001D02*
G03*
X75000Y-10000I53000J0D01*
G01*
X22001Y503001D02*
G03*
X2001Y523001I-20000J0D01*
G01*
X75000Y-10000D02*
X524999D01*
X22001Y43000D02*
Y503001D01*
X-5000Y523001D02*
X2001D01*
X-5000Y743001D02*
X2000D01*
X22001Y763001D02*
Y916000D01*
X52000Y946000D02*
X524999D01*
X577999Y43000D02*
Y893000D01*
X-5001Y700001D02*
Y743001D01*
X-5000Y700000D02*
X51000D01*
X52000Y615900D02*
Y690100D01*
X-5001Y523001D02*
Y605801D01*
X51000D01*
D54*
X545000Y736000D02*
X546000D01*
X526000D02*
X545000D01*
Y765000D02*
X547000D01*
X512000D02*
X545000D01*
D75*
X15999Y593800D02*
G03*
X18999Y596800I0J3000D01*
G01*
D02*
G03*
X15999Y599800I-3000J0D01*
G01*
X4001D02*
G03*
X1001Y596800I0J-3000D01*
G01*
D02*
G03*
X4001Y593800I3000J0D01*
G01*
X54000Y706200D02*
G03*
X57000Y709200I0J3000D01*
G01*
D02*
G03*
X54000Y712200I-3000J0D01*
G01*
X45999D02*
G03*
X43000Y709200I0J-3000D01*
G01*
D02*
G03*
X45999Y706200I3000J0D01*
G01*
X54000Y593800D02*
G03*
X57000Y596800I0J3000D01*
G01*
D02*
G03*
X54000Y599800I-3000J0D01*
G01*
X45999D02*
G03*
X43000Y596800I0J-3000D01*
G01*
D02*
G03*
X45999Y593800I3000J0D01*
G01*
X15999Y706200D02*
G03*
X18999Y709200I0J3000D01*
G01*
D02*
G03*
X15999Y712200I-3000J0D01*
G01*
X4001D02*
G03*
X1001Y709200I0J-3000D01*
G01*
D02*
G03*
X4001Y706200I3000J0D01*
G01*
Y599800D02*
X15999D01*
X4001Y593800D02*
X15999D01*
X45999Y712200D02*
X54000D01*
X45999Y706200D02*
X54000D01*
X45999Y599800D02*
X54000D01*
X45999Y593800D02*
X54000D01*
X4001Y712200D02*
X15999D01*
X4001Y706200D02*
X15999D01*
D76*
X10000Y596800D02*
D03*
Y709200D02*
D03*
D77*
X50000D02*
D03*
Y596800D02*
D03*
D78*
X389970Y128600D02*
D03*
X174970D02*
D03*
D81*
X456000Y706000D02*
D03*
X467000Y416000D02*
D03*
X145000Y483000D02*
D03*
X143000Y357000D02*
D03*
X519000Y335000D02*
D03*
X333000Y284000D02*
D03*
X339000Y216000D02*
D03*
X318000Y230000D02*
D03*
X141000Y101000D02*
D03*
X311000Y365000D02*
D03*
X192000Y409000D02*
D03*
X208000Y378000D02*
D03*
X497000Y100000D02*
D03*
X398000Y232000D02*
D03*
X384000Y373000D02*
D03*
X385000Y520000D02*
D03*
X550000Y527000D02*
D03*
X158000Y469000D02*
D03*
X359000Y345000D02*
D03*
X100000Y488000D02*
D03*
X75000Y394000D02*
D03*
X106000Y374000D02*
D03*
X512000Y765000D02*
D03*
X340000Y380000D02*
D03*
X439000Y140000D02*
D03*
X403000Y105000D02*
D03*
X372000Y74000D02*
D03*
X337000Y81000D02*
D03*
X340000Y50000D02*
D03*
X415000D02*
D03*
X436000Y72000D02*
D03*
X535000Y180000D02*
D03*
X570000Y350000D02*
D03*
X534000Y334000D02*
D03*
X535000Y275000D02*
D03*
Y225000D02*
D03*
X521000Y84000D02*
D03*
X512000Y128000D02*
D03*
X515000Y160000D02*
D03*
X516000Y218000D02*
D03*
X517000Y267000D02*
D03*
X498000Y229000D02*
D03*
X436000Y183000D02*
D03*
Y200000D02*
D03*
X362000Y181000D02*
D03*
X339000Y180000D02*
D03*
X363000Y199000D02*
D03*
X341000Y260000D02*
D03*
X365000Y258000D02*
D03*
X400000Y295000D02*
D03*
X302000Y274000D02*
D03*
X240000Y260000D02*
D03*
X260000Y210000D02*
D03*
Y180000D02*
D03*
X240000Y130000D02*
D03*
X317000Y155000D02*
D03*
X319000Y99000D02*
D03*
X210000Y50000D02*
D03*
X260000Y75000D02*
D03*
X158000Y82000D02*
D03*
X140000Y140000D02*
D03*
X189000Y100000D02*
D03*
X80000Y50000D02*
D03*
Y111000D02*
D03*
Y160000D02*
D03*
X190000Y180000D02*
D03*
X165000Y205000D02*
D03*
X190000Y230000D02*
D03*
X120000Y240000D02*
D03*
X80000Y210000D02*
D03*
Y270000D02*
D03*
Y320000D02*
D03*
X118000Y503000D02*
D03*
X184000Y442000D02*
D03*
X190000Y310000D02*
D03*
X210000D02*
D03*
X260000D02*
D03*
X265000Y340000D02*
D03*
X147000Y342000D02*
D03*
X210000Y334000D02*
D03*
X240000Y415000D02*
D03*
X212000Y432000D02*
D03*
X270000Y400000D02*
D03*
X549000Y486000D02*
D03*
X550000Y424000D02*
D03*
X517000Y348000D02*
D03*
X508000Y283000D02*
D03*
X465000Y278000D02*
D03*
X436000Y257000D02*
D03*
X439000Y314000D02*
D03*
X360000Y279000D02*
D03*
X359000Y328000D02*
D03*
X439000Y330000D02*
D03*
X426000Y360000D02*
D03*
X411000Y392000D02*
D03*
X310000Y410000D02*
D03*
X341000Y445000D02*
D03*
X394000Y423000D02*
D03*
X436000Y444000D02*
D03*
X356000Y440000D02*
D03*
X410000Y560000D02*
D03*
X445000Y500000D02*
D03*
X407000D02*
D03*
X418000Y485000D02*
D03*
X435000Y465000D02*
D03*
X446000Y485000D02*
D03*
X393000Y462000D02*
D03*
X357000Y500000D02*
D03*
X340000D02*
D03*
X290000D02*
D03*
X260000Y470000D02*
D03*
X241000Y500000D02*
D03*
Y531000D02*
D03*
X277000Y530000D02*
D03*
X323000Y537000D02*
D03*
X365000Y532000D02*
D03*
X371000Y640000D02*
D03*
X527000Y632000D02*
D03*
X460000Y630000D02*
D03*
X387000Y655000D02*
D03*
X386000Y693000D02*
D03*
X414000Y644000D02*
D03*
X470000Y670000D02*
D03*
X530000Y680000D02*
D03*
X570000Y730000D02*
D03*
Y830000D02*
D03*
Y780000D02*
D03*
Y880000D02*
D03*
Y550000D02*
D03*
Y600000D02*
D03*
Y680000D02*
D03*
X522000Y452000D02*
D03*
X570000Y450000D02*
D03*
Y400000D02*
D03*
Y505000D02*
D03*
Y150000D02*
D03*
Y250000D02*
D03*
Y200000D02*
D03*
Y300000D02*
D03*
X540000Y0D02*
D03*
X570000Y50000D02*
D03*
X560000Y20000D02*
D03*
X570000Y100000D02*
D03*
X340000Y0D02*
D03*
X440000Y4000D02*
D03*
X390000Y0D02*
D03*
X490000D02*
D03*
X290000D02*
D03*
X190000D02*
D03*
X240000D02*
D03*
X140000Y3000D02*
D03*
X90000Y0D02*
D03*
X54000Y4000D02*
D03*
X32000Y40000D02*
D03*
X30000Y90000D02*
D03*
Y140000D02*
D03*
Y190000D02*
D03*
Y240000D02*
D03*
Y290000D02*
D03*
Y330000D02*
D03*
Y405000D02*
D03*
X26000Y522000D02*
D03*
X69000D02*
D03*
Y551000D02*
D03*
X70000Y580000D02*
D03*
X24000Y552000D02*
D03*
X40000Y470000D02*
D03*
X114000Y520000D02*
D03*
X145000D02*
D03*
X166000D02*
D03*
X130000Y566000D02*
D03*
X154000D02*
D03*
X111000D02*
D03*
X112000Y607000D02*
D03*
X137000Y826000D02*
D03*
X70000Y846000D02*
D03*
X136000Y866000D02*
D03*
X4000Y730000D02*
D03*
X24000Y744000D02*
D03*
X33000Y810000D02*
D03*
Y860000D02*
D03*
Y910000D02*
D03*
X60000Y937000D02*
D03*
X94000Y939000D02*
D03*
X145000Y938000D02*
D03*
X210000Y937000D02*
D03*
X260000D02*
D03*
X305000D02*
D03*
X360000D02*
D03*
X530000Y917000D02*
D03*
X434000Y916000D02*
D03*
X403000Y917000D02*
D03*
X435000Y938000D02*
D03*
X454000Y880000D02*
D03*
X414000Y888000D02*
D03*
X394000Y887000D02*
D03*
X267000Y904000D02*
D03*
X534000Y370000D02*
D03*
Y361000D02*
D03*
Y379000D02*
D03*
X546000Y874000D02*
D03*
X482000Y916000D02*
D03*
X511000Y917000D02*
D03*
X530000Y889000D02*
D03*
X522000Y865000D02*
D03*
X508000Y859000D02*
D03*
Y842000D02*
D03*
Y851000D02*
D03*
X559000Y844000D02*
D03*
X567000Y900000D02*
D03*
X548000Y819000D02*
D03*
X152000Y778000D02*
D03*
X67000Y827000D02*
D03*
X110000Y720000D02*
D03*
X105000Y733000D02*
D03*
X100000Y746000D02*
D03*
X110000D02*
D03*
X367000Y655000D02*
D03*
X547000Y912000D02*
D03*
X510000Y937000D02*
D03*
X540000Y935000D02*
D03*
X468000Y754000D02*
D03*
X492000Y706000D02*
D03*
X500000Y717000D02*
D03*
X502000Y745000D02*
D03*
X515000Y754000D02*
D03*
X516000Y776000D02*
D03*
X526000Y736000D02*
D03*
X74000Y629000D02*
D03*
X148000Y745000D02*
D03*
X105000Y703000D02*
D03*
X122000Y631000D02*
D03*
X33000Y780000D02*
D03*
X51000Y779000D02*
D03*
X451000Y398000D02*
D03*
X469000D02*
D03*
X453000Y356000D02*
D03*
X496000Y362000D02*
D03*
X504000Y390000D02*
D03*
X533000Y408000D02*
D03*
X548000Y365000D02*
D03*
X501000Y415000D02*
D03*
X522000Y472000D02*
D03*
X491000Y502000D02*
D03*
X468000Y506000D02*
D03*
X469000Y527000D02*
D03*
X468000Y545000D02*
D03*
X528000Y565000D02*
D03*
X510000Y564000D02*
D03*
X490000D02*
D03*
X550000Y550000D02*
D03*
X511000Y555000D02*
D03*
Y546000D02*
D03*
X505000Y550000D02*
D03*
X537000Y513000D02*
D03*
X511000D02*
D03*
X177000Y851000D02*
D03*
X178000Y808000D02*
D03*
X175000Y789000D02*
D03*
X211000Y890000D02*
D03*
X224000Y903000D02*
D03*
X348000Y710000D02*
D03*
X296000Y718000D02*
D03*
X359000Y588000D02*
D03*
X154000Y621000D02*
D03*
X155000Y580000D02*
D03*
Y668000D02*
D03*
Y652000D02*
D03*
X183000Y658000D02*
D03*
X155000Y693000D02*
D03*
X106000Y795000D02*
D03*
X139000Y809000D02*
D03*
X70000Y785000D02*
D03*
X79000Y745000D02*
D03*
X98000Y821000D02*
D03*
X152000Y845000D02*
D03*
X100000Y720000D02*
D03*
X244000Y688000D02*
D03*
X428000Y426000D02*
D03*
X171000Y930000D02*
D03*
X387000Y703000D02*
D03*
X183000Y900000D02*
D03*
X374000Y893000D02*
D03*
X470000Y902000D02*
D03*
X428000Y901000D02*
D03*
X60000Y440000D02*
D03*
Y420000D02*
D03*
Y400000D02*
D03*
Y380000D02*
D03*
Y360000D02*
D03*
X74000Y448000D02*
D03*
X70000Y495000D02*
D03*
X355000Y907000D02*
D03*
X292000Y533000D02*
D03*
X371000Y616000D02*
D03*
X404000Y620000D02*
D03*
X504000Y895000D02*
D03*
X30000Y370000D02*
D03*
X182000Y822000D02*
D03*
X60000Y340000D02*
D03*
Y480000D02*
D03*
X76000Y466000D02*
D03*
X119000Y412000D02*
D03*
X60000Y320000D02*
D03*
Y300000D02*
D03*
X101000Y807000D02*
D03*
X103000Y859000D02*
D03*
X120000Y885000D02*
D03*
X126000Y903000D02*
D03*
X195000Y563000D02*
D03*
X60000Y280000D02*
D03*
X523000Y617000D02*
D03*
X30000Y435000D02*
D03*
X387000Y907000D02*
D03*
X165000Y775000D02*
D03*
X407000Y937000D02*
D03*
X81000Y407000D02*
D03*
X62000Y430000D02*
D03*
X89000Y420000D02*
D03*
X120000Y710000D02*
D03*
X183000Y558000D02*
D03*
X191000Y542000D02*
D03*
X285000Y345000D02*
D03*
X319000D02*
D03*
X321000Y197000D02*
D03*
X312000Y171000D02*
D03*
X313000Y41000D02*
D03*
X507000Y31000D02*
D03*
X519000Y200000D02*
D03*
X138000Y324000D02*
D03*
D82*
X79000Y870000D02*
D03*
X86000Y873000D02*
D03*
X76000Y862000D02*
D03*
X91000Y868000D02*
D03*
X356000Y550000D02*
D03*
X349000Y544000D02*
D03*
X147000Y801000D02*
D03*
X96000Y874000D02*
D03*
X104000Y878000D02*
D03*
D83*
X355000Y907000D02*
Y924000D01*
D84*
X59000Y480000D02*
X60000D01*
X69000D01*
X79000Y490000D01*
Y624000D01*
X74000Y629000D02*
X79000Y624000D01*
D85*
X508500Y549500D02*
D03*
M02*
