G04 Layer_Physical_Order=4*
G04 Layer_Color=16711680*
%FSLAX44Y44*%
%MOMM*%
G71*
G01*
G75*
%ADD45C,1.0000*%
%ADD48C,0.1500*%
%ADD49C,0.2500*%
%ADD50C,1.0000*%
%ADD51C,0.2000*%
%ADD52C,1.5000*%
%ADD54C,0.4000*%
%ADD55C,0.3000*%
%ADD75C,0.0000*%
%ADD76O,2.2000X1.0000*%
%ADD77O,1.8000X1.0000*%
%ADD78C,2.4000*%
%ADD79C,0.5000*%
%ADD80C,0.9000*%
%ADD81C,0.6500*%
%ADD82C,0.5500*%
%ADD86R,1.4000X0.5999*%
%ADD87R,1.4000X0.3000*%
G04:AMPARAMS|DCode=88|XSize=3mm|YSize=1.5mm|CornerRadius=0.375mm|HoleSize=0mm|Usage=FLASHONLY|Rotation=270.000|XOffset=0mm|YOffset=0mm|HoleType=Round|Shape=RoundedRectangle|*
%AMROUNDEDRECTD88*
21,1,3.0000,0.7500,0,0,270.0*
21,1,2.2500,1.5000,0,0,270.0*
1,1,0.7500,-0.3750,-1.1250*
1,1,0.7500,-0.3750,1.1250*
1,1,0.7500,0.3750,1.1250*
1,1,0.7500,0.3750,-1.1250*
%
%ADD88ROUNDEDRECTD88*%
%ADD89C,0.8000*%
%ADD90R,0.7000X0.6500*%
%ADD91R,1.4000X2.4000*%
%ADD92R,1.7000X0.6000*%
%ADD93R,1.7000X1.5000*%
G36*
X524004Y942938D02*
X524949D01*
X528215Y942831D01*
X534740Y941972D01*
X541049Y940282D01*
X547083Y937782D01*
X552739Y934517D01*
X557921Y930540D01*
X562539Y925922D01*
X566515Y920741D01*
X569781Y915084D01*
X572280Y909050D01*
X573971Y902741D01*
X574830Y896216D01*
X574937Y892943D01*
X574937Y892943D01*
X574937Y892922D01*
X574938Y892918D01*
X574938Y892916D01*
X574937Y892915D01*
Y892908D01*
X574937Y892907D01*
X574937Y892889D01*
Y647472D01*
X573667Y646997D01*
X572248Y647945D01*
X570200Y648353D01*
X568152Y647945D01*
X566415Y646785D01*
X565255Y645048D01*
X564847Y643000D01*
X565255Y640952D01*
X566415Y639215D01*
X568152Y638055D01*
X570200Y637647D01*
X572248Y638055D01*
X573667Y639003D01*
X574937Y638528D01*
Y502965D01*
X573164Y502114D01*
X569164Y499114D01*
X568859Y498774D01*
X568480Y498520D01*
X568034Y497854D01*
X567499Y497257D01*
X567347Y496826D01*
X567094Y496446D01*
X566937Y495660D01*
X566671Y494904D01*
X566696Y494448D01*
X566607Y494000D01*
Y466000D01*
X566696Y465552D01*
X566671Y465096D01*
X566937Y464340D01*
X567094Y463554D01*
X567347Y463174D01*
X567499Y462743D01*
X568034Y462146D01*
X568480Y461480D01*
X568859Y461226D01*
X569164Y460886D01*
X573164Y457886D01*
X574937Y457035D01*
Y43111D01*
X574937Y43093D01*
X574937Y43092D01*
Y43085D01*
X574938Y43084D01*
X574938Y43082D01*
X574937Y43079D01*
X574937Y43057D01*
X574937Y43057D01*
X574830Y39784D01*
X573971Y33259D01*
X572280Y26950D01*
X569781Y20916D01*
X566515Y15260D01*
X562539Y10078D01*
X557921Y5459D01*
X552739Y1484D01*
X547083Y-1782D01*
X541049Y-4281D01*
X534740Y-5972D01*
X528215Y-6831D01*
X524949Y-6938D01*
X524004D01*
X523986Y-6941D01*
X76018D01*
X76000Y-6938D01*
X75055D01*
X71789Y-6831D01*
X65264Y-5972D01*
X58955Y-4281D01*
X52921Y-1782D01*
X47264Y1484D01*
X42083Y5460D01*
X37464Y10078D01*
X33489Y15260D01*
X30223Y20916D01*
X27724Y26950D01*
X26033Y33259D01*
X25174Y39784D01*
X25067Y43057D01*
X25067Y43057D01*
X25067Y43079D01*
X25066Y43082D01*
X25066Y43084D01*
X25066Y43085D01*
Y43092D01*
X25067Y43093D01*
X25066Y43109D01*
Y457517D01*
X25836Y457886D01*
X29836Y460886D01*
X30141Y461226D01*
X30520Y461480D01*
X30966Y462146D01*
X31501Y462743D01*
X31653Y463174D01*
X31906Y463554D01*
X32063Y464340D01*
X32329Y465096D01*
X32304Y465552D01*
X32393Y466000D01*
Y485000D01*
X54000D01*
Y492000D01*
X68000D01*
Y508000D01*
X54000D01*
X54000Y525000D01*
X30000Y525000D01*
X30000Y500579D01*
X28730Y499944D01*
X25836Y502114D01*
X25063Y502485D01*
Y502907D01*
X25063Y502921D01*
X25063Y502922D01*
Y502926D01*
X25062Y502928D01*
X25063Y502930D01*
X25063Y502948D01*
X25062Y502954D01*
X25063Y502961D01*
X25063Y502979D01*
X25062Y502986D01*
X25063Y502992D01*
Y504972D01*
X25004Y505267D01*
Y505568D01*
X24236Y509433D01*
X24120Y509711D01*
X24062Y510007D01*
X22554Y513647D01*
X22386Y513898D01*
X22271Y514176D01*
X20082Y517452D01*
X19869Y517665D01*
X19701Y517916D01*
X16915Y520702D01*
X16665Y520869D01*
X16452Y521082D01*
X13175Y523272D01*
X12897Y523387D01*
X12646Y523554D01*
X9006Y525062D01*
X8711Y525121D01*
X8432Y525236D01*
X4568Y526005D01*
X4266D01*
X3971Y526064D01*
X1987D01*
X1977Y526062D01*
X1967Y526064D01*
X1939Y526064D01*
X1932Y526062D01*
X1925Y526063D01*
X1897Y526063D01*
X1892Y526062D01*
X1889Y526063D01*
X1883D01*
X1881Y526063D01*
X1859Y526063D01*
X-1937D01*
Y602742D01*
X51000D01*
X51981Y602937D01*
X51995D01*
X53166Y603170D01*
X55005Y603932D01*
X55997Y604595D01*
X57405Y606003D01*
X58068Y606995D01*
X58830Y608834D01*
X59063Y610005D01*
Y611865D01*
X58961Y612376D01*
X58885Y612891D01*
X58305Y614520D01*
X58038Y614967D01*
X57793Y615427D01*
X56700Y616767D01*
X56298Y617099D01*
X55914Y617450D01*
X55097Y617944D01*
X55094Y623102D01*
X55992Y624000D01*
X77000D01*
X79000Y626000D01*
Y632000D01*
X108121D01*
X108232Y631439D01*
X109116Y630116D01*
X110439Y629232D01*
X112000Y628922D01*
X113561Y629232D01*
X114884Y630116D01*
X115768Y631439D01*
X116078Y633000D01*
X115768Y634561D01*
X115685Y634685D01*
X117000Y636000D01*
X133000D01*
X133174Y634802D01*
Y601353D01*
X133000D01*
X132043Y600957D01*
X131647Y600000D01*
Y598182D01*
X131412Y597000D01*
X131647Y595818D01*
Y585000D01*
X132043Y584043D01*
X133000Y583647D01*
X140918D01*
X142244Y582761D01*
X144000Y582412D01*
X145756Y582761D01*
X147082Y583647D01*
X150000D01*
X150957Y584043D01*
X151353Y585000D01*
Y600000D01*
X150957Y600957D01*
X150826Y601011D01*
Y732000D01*
X150525Y734284D01*
X149643Y736413D01*
X148241Y738241D01*
X121241Y765241D01*
X119413Y766643D01*
X117284Y767525D01*
X115000Y767825D01*
X100000D01*
X97716Y767525D01*
X95587Y766643D01*
X93759Y765241D01*
X92357Y763413D01*
X91475Y761284D01*
X91174Y759000D01*
X91243Y758477D01*
X90761Y757756D01*
X90412Y756000D01*
X90761Y754244D01*
X91756Y752756D01*
X93244Y751761D01*
X95000Y751412D01*
X95409Y751493D01*
X95587Y751357D01*
X97716Y750475D01*
X100000Y750174D01*
X111344D01*
X133174Y728344D01*
Y703198D01*
X133000Y702000D01*
X131000Y700000D01*
X113000D01*
Y695588D01*
X111244Y695239D01*
X109756Y694244D01*
X109291Y693549D01*
X104056D01*
X53549Y744056D01*
Y758291D01*
X54244Y758756D01*
X55239Y760244D01*
X55588Y762000D01*
X55239Y763756D01*
X54244Y765244D01*
X52756Y766239D01*
X51000Y766588D01*
X49244Y766239D01*
X47756Y765244D01*
X46761Y763756D01*
X46412Y762000D01*
X46761Y760244D01*
X47756Y758756D01*
X48451Y758291D01*
Y743000D01*
X48645Y742025D01*
X49198Y741198D01*
X101198Y689198D01*
X102025Y688645D01*
X103000Y688451D01*
X106792D01*
X107278Y687278D01*
X101000Y681000D01*
X78000D01*
X77000Y682000D01*
X55063D01*
X55063Y682762D01*
Y688035D01*
X55914Y688550D01*
X56298Y688901D01*
X56700Y689233D01*
X57793Y690573D01*
X58038Y691033D01*
X58305Y691480D01*
X58885Y693109D01*
X58961Y693624D01*
X59063Y694135D01*
Y695995D01*
X58830Y697166D01*
X58068Y699005D01*
X57405Y699997D01*
X55997Y701405D01*
X55005Y702068D01*
X53166Y702830D01*
X51995Y703063D01*
X-1937D01*
Y739937D01*
X2012D01*
X2019Y739939D01*
X2025Y739938D01*
X2050Y739938D01*
X2059Y739939D01*
X2069Y739938D01*
X2093Y739938D01*
X2100Y739939D01*
X2106Y739938D01*
X2131Y739938D01*
X2131Y739939D01*
X4078Y739948D01*
X4372Y740008D01*
X4673Y740009D01*
X8522Y740792D01*
X8799Y740908D01*
X9093Y740968D01*
X12716Y742485D01*
X12966Y742653D01*
X13243Y742768D01*
X16502Y744961D01*
X16714Y745173D01*
X16963Y745341D01*
X19734Y748125D01*
X19900Y748375D01*
X20112Y748588D01*
X22288Y751858D01*
X22403Y752136D01*
X22569Y752386D01*
X24068Y756017D01*
X24126Y756311D01*
X24241Y756589D01*
X25005Y760442D01*
X25004Y760742D01*
X25063Y761037D01*
Y763010D01*
X25062Y763016D01*
X25063Y763023D01*
X25063Y763041D01*
X25062Y763047D01*
X25063Y763054D01*
X25063Y763072D01*
X25062Y763074D01*
X25063Y763075D01*
Y763080D01*
X25063Y763081D01*
X25063Y763095D01*
Y915936D01*
X25121Y917712D01*
X25587Y921254D01*
X26499Y924657D01*
X27847Y927911D01*
X29608Y930962D01*
X31753Y933757D01*
X34244Y936248D01*
X37039Y938392D01*
X40089Y940154D01*
X43344Y941502D01*
X46747Y942414D01*
X50289Y942880D01*
X52051Y942938D01*
X52996D01*
X53015Y942942D01*
X523986D01*
X524004Y942938D01*
D02*
G37*
%LPC*%
G36*
X108250Y341190D02*
X98750D01*
Y332190D01*
X108250D01*
Y341190D01*
D02*
G37*
G36*
X60000Y326372D02*
X57561Y325887D01*
X55494Y324506D01*
X54113Y322439D01*
X53628Y320000D01*
X54113Y317561D01*
X55494Y315494D01*
X57561Y314113D01*
X60000Y313627D01*
X62439Y314113D01*
X64506Y315494D01*
X65887Y317561D01*
X66372Y320000D01*
X65887Y322439D01*
X64506Y324506D01*
X62439Y325887D01*
X60000Y326372D01*
D02*
G37*
G36*
X500250Y341190D02*
X490750D01*
Y332190D01*
X500250D01*
Y341190D01*
D02*
G37*
G36*
X200000Y354588D02*
X198244Y354239D01*
X196756Y353244D01*
X196461Y352804D01*
X143000D01*
X143000Y352804D01*
X141927Y352590D01*
X141017Y351983D01*
X141017Y351983D01*
X134017Y344983D01*
X133410Y344073D01*
X133196Y343000D01*
Y341190D01*
X131750D01*
Y332190D01*
X141250D01*
Y341190D01*
X139951D01*
X139425Y342460D01*
X144161Y347196D01*
X196461D01*
X196756Y346756D01*
X198244Y345761D01*
X200000Y345412D01*
X201756Y345761D01*
X203244Y346756D01*
X204239Y348244D01*
X204588Y350000D01*
X204239Y351756D01*
X203244Y353244D01*
X201756Y354239D01*
X200000Y354588D01*
D02*
G37*
G36*
X500250Y313690D02*
X490750D01*
Y304690D01*
X500250D01*
Y313690D01*
D02*
G37*
G36*
X60000Y306373D02*
X57561Y305887D01*
X55494Y304506D01*
X54113Y302439D01*
X53628Y300000D01*
X54113Y297561D01*
X55494Y295494D01*
X57561Y294113D01*
X60000Y293628D01*
X62439Y294113D01*
X64506Y295494D01*
X65887Y297561D01*
X66372Y300000D01*
X65887Y302439D01*
X64506Y304506D01*
X62439Y305887D01*
X60000Y306373D01*
D02*
G37*
G36*
X468250Y443690D02*
X458750D01*
Y441984D01*
X457180D01*
X456107Y441771D01*
X455197Y441163D01*
X453017Y438983D01*
X452410Y438073D01*
X452196Y437000D01*
Y414000D01*
X452410Y412927D01*
X453017Y412017D01*
X459017Y406017D01*
X459017Y406017D01*
X459927Y405410D01*
X461000Y405196D01*
X461000Y405196D01*
X504839D01*
X522196Y387839D01*
Y288161D01*
X506839Y272804D01*
X456428D01*
X455942Y273977D01*
X456983Y275017D01*
X456983Y275017D01*
X457590Y275927D01*
X457804Y277000D01*
X457804Y277000D01*
Y304690D01*
X467250D01*
Y313690D01*
X457750D01*
Y311954D01*
X457177Y311840D01*
X456267Y311233D01*
X453017Y307983D01*
X452410Y307073D01*
X452196Y306000D01*
Y278161D01*
X446839Y272804D01*
X346539D01*
X346244Y273244D01*
X344756Y274239D01*
X343000Y274588D01*
X342188Y274427D01*
X342104Y274583D01*
X341756Y275761D01*
X343244Y276756D01*
X344239Y278244D01*
X344588Y280000D01*
X344239Y281756D01*
X343244Y283244D01*
X342804Y283539D01*
Y303000D01*
X342590Y304073D01*
X341983Y304983D01*
X335733Y311233D01*
X334823Y311840D01*
X333750Y312054D01*
X321250D01*
Y313690D01*
X311750D01*
Y304690D01*
X321250D01*
Y306446D01*
X332589D01*
X337196Y301839D01*
Y283539D01*
X336756Y283244D01*
X335761Y281756D01*
X335412Y280000D01*
X335761Y278244D01*
X335969Y277934D01*
X330017Y271983D01*
X329410Y271073D01*
X329196Y270000D01*
Y231207D01*
X327756Y230244D01*
X326761Y228756D01*
X326412Y227000D01*
X326761Y225244D01*
X327756Y223756D01*
X328196Y223461D01*
Y214161D01*
X323839Y209804D01*
X321250D01*
Y211190D01*
X311750D01*
Y202190D01*
X321250D01*
Y204196D01*
X325000D01*
X326073Y204410D01*
X326983Y205017D01*
X332983Y211017D01*
X332983Y211017D01*
X333590Y211927D01*
X333804Y213000D01*
X333804Y213000D01*
Y223461D01*
X334244Y223756D01*
X335239Y225244D01*
X335588Y227000D01*
X335239Y228756D01*
X334804Y229407D01*
Y268839D01*
X337403Y271438D01*
X338573Y270812D01*
X338412Y270000D01*
X338761Y268244D01*
X339756Y266756D01*
X341244Y265761D01*
X343000Y265412D01*
X344756Y265761D01*
X346244Y266756D01*
X346539Y267196D01*
X508000D01*
X509073Y267409D01*
X509983Y268017D01*
X521023Y279058D01*
X522196Y278571D01*
Y216161D01*
X515529Y209494D01*
X501451D01*
Y211190D01*
X491951D01*
Y202190D01*
X501451D01*
Y203886D01*
X516690D01*
X517763Y204100D01*
X518673Y204707D01*
X521023Y207057D01*
X522196Y206572D01*
Y185161D01*
X450017Y112983D01*
X449410Y112073D01*
X449196Y111000D01*
Y80000D01*
X449410Y78927D01*
X450017Y78017D01*
X453017Y75017D01*
X453927Y74410D01*
X455000Y74196D01*
X458749D01*
Y72191D01*
X468249D01*
Y81191D01*
X458749D01*
Y79804D01*
X456161D01*
X454804Y81161D01*
Y109839D01*
X526983Y182017D01*
X527590Y182927D01*
X527804Y184000D01*
Y215000D01*
X527804Y215000D01*
X527804Y215000D01*
Y287000D01*
Y389000D01*
X527804Y389000D01*
X527590Y390073D01*
X526983Y390983D01*
X507983Y409983D01*
X507073Y410590D01*
X506000Y410804D01*
X462161D01*
X457804Y415161D01*
Y433908D01*
X458750Y434690D01*
X468250D01*
Y443690D01*
D02*
G37*
G36*
X288250Y313690D02*
X278750D01*
Y304690D01*
X288250D01*
Y313690D01*
D02*
G37*
G36*
X108250D02*
X98750D01*
Y304690D01*
X108250D01*
Y313690D01*
D02*
G37*
G36*
X381000Y457588D02*
X379244Y457239D01*
X378150Y456508D01*
X336194D01*
X334926Y456256D01*
X333851Y455537D01*
X329657Y451343D01*
X329657Y451343D01*
X328657Y450343D01*
X327939Y449268D01*
X327686Y448000D01*
Y434373D01*
X325627Y432314D01*
X285373D01*
X284170Y433517D01*
X284656Y434690D01*
X288250D01*
Y443690D01*
X278750D01*
Y443314D01*
X274373D01*
X264564Y453122D01*
X264239Y454756D01*
X263244Y456244D01*
X261756Y457239D01*
X260000Y457588D01*
X258244Y457239D01*
X257150Y456508D01*
X150000D01*
X148732Y456256D01*
X147657Y455537D01*
X146939Y454463D01*
X146731Y453417D01*
X145657Y452343D01*
X144939Y451268D01*
X144686Y450000D01*
Y442373D01*
X143877Y441564D01*
X141250D01*
Y443690D01*
X131750D01*
Y434690D01*
X141250D01*
Y434936D01*
X145250D01*
X146518Y435189D01*
X147593Y435907D01*
X150343Y438657D01*
X151061Y439732D01*
X151314Y441000D01*
Y448627D01*
X152567Y449881D01*
X256672D01*
X256756Y449756D01*
X258244Y448761D01*
X259878Y448436D01*
X270657Y437657D01*
X281657Y426657D01*
X282732Y425939D01*
X284000Y425686D01*
X327000D01*
X328268Y425939D01*
X329343Y426657D01*
X333343Y430657D01*
X334061Y431732D01*
X334314Y433000D01*
Y446628D01*
X334343Y446657D01*
X334343Y446657D01*
X337567Y449881D01*
X377672D01*
X377756Y449756D01*
X379244Y448761D01*
X381000Y448412D01*
X382756Y448761D01*
X384244Y449756D01*
X385239Y451244D01*
X385588Y453000D01*
X385239Y454756D01*
X384244Y456244D01*
X382756Y457239D01*
X381000Y457588D01*
D02*
G37*
G36*
X60000Y446372D02*
X57561Y445887D01*
X55494Y444506D01*
X54113Y442439D01*
X53628Y440000D01*
X54113Y437561D01*
X55494Y435494D01*
X57561Y434113D01*
X60000Y433628D01*
X62439Y434113D01*
X62777Y434339D01*
X65000Y432116D01*
Y425703D01*
X63730Y425024D01*
X62439Y425887D01*
X60000Y426372D01*
X57561Y425887D01*
X55494Y424506D01*
X54113Y422439D01*
X53628Y420000D01*
X54113Y417561D01*
X55494Y415494D01*
X57561Y414113D01*
X60000Y413628D01*
X62439Y414113D01*
X64506Y415494D01*
X65887Y417561D01*
X65967Y417961D01*
X75266D01*
X89992Y403235D01*
X89809Y401700D01*
X89774Y401657D01*
X67556Y379440D01*
X66555Y379913D01*
X66364Y380044D01*
X65887Y382439D01*
X64506Y384506D01*
X62439Y385887D01*
X60000Y386372D01*
X57561Y385887D01*
X55494Y384506D01*
X54113Y382439D01*
X53628Y380000D01*
X54000Y378128D01*
Y361872D01*
X53628Y360000D01*
X54113Y357561D01*
X55494Y355494D01*
X57561Y354113D01*
X60000Y353628D01*
X62439Y354113D01*
X64506Y355494D01*
X65887Y357561D01*
X65975Y358000D01*
X66000D01*
Y358128D01*
X66372Y360000D01*
X66000Y361872D01*
Y372116D01*
X92095Y398211D01*
X155670D01*
X161723Y392158D01*
X162384Y391716D01*
X163165Y391561D01*
X163165Y391561D01*
X171600D01*
X172380Y391716D01*
X173042Y392158D01*
X175844Y394960D01*
X176302Y394655D01*
X178350Y394247D01*
X180398Y394655D01*
X182135Y395815D01*
X183295Y397552D01*
X183703Y399600D01*
X183295Y401648D01*
X183000Y402090D01*
Y409809D01*
X183295Y410252D01*
X183703Y412300D01*
X183295Y414348D01*
X183000Y414790D01*
Y420000D01*
X179799Y423201D01*
X180000Y424212D01*
Y425788D01*
X179693Y427333D01*
X179090Y428789D01*
X178214Y430100D01*
X177100Y431214D01*
X175789Y432090D01*
X174333Y432693D01*
X172788Y433000D01*
X171212D01*
X169667Y432693D01*
X168211Y432090D01*
X166900Y431214D01*
X165786Y430100D01*
X164911Y428789D01*
X164307Y427333D01*
X164000Y425788D01*
Y424212D01*
X164034Y424041D01*
X164000Y424000D01*
X164000D01*
Y417325D01*
X163602Y417245D01*
X161865Y416085D01*
X160705Y414348D01*
X160545Y413545D01*
X155039Y408039D01*
X94845D01*
X65661Y437223D01*
X65887Y437561D01*
X66372Y440000D01*
X65887Y442439D01*
X64506Y444506D01*
X62439Y445887D01*
X60000Y446372D01*
D02*
G37*
G36*
X108250Y443690D02*
X98750D01*
Y434690D01*
X108250D01*
Y443690D01*
D02*
G37*
G36*
X501250Y443690D02*
X491750D01*
Y434690D01*
X501250D01*
Y443690D01*
D02*
G37*
G36*
X321250D02*
X311750D01*
Y434690D01*
X321250D01*
Y443690D01*
D02*
G37*
G36*
X502000Y507588D02*
X500244Y507239D01*
X498756Y506244D01*
X497761Y504756D01*
X497412Y503000D01*
X497761Y501244D01*
X498756Y499756D01*
X500244Y498761D01*
X502000Y498412D01*
X503756Y498761D01*
X505244Y499756D01*
X506050Y500961D01*
X531155D01*
X538961Y493155D01*
Y458050D01*
X537756Y457244D01*
X536761Y455756D01*
X536412Y454000D01*
X536761Y452244D01*
X537756Y450756D01*
X538961Y449950D01*
Y357845D01*
X537350Y356234D01*
X537244Y356244D01*
X535756Y357239D01*
X534000Y357588D01*
X532244Y357239D01*
X530756Y356244D01*
X529761Y354756D01*
X529412Y353000D01*
X529761Y351244D01*
X530756Y349756D01*
X532244Y348761D01*
X534000Y348412D01*
X535756Y348761D01*
X537244Y349756D01*
X538239Y351244D01*
X538280Y351450D01*
X538442Y351558D01*
X542442Y355558D01*
X542442Y355558D01*
X542884Y356220D01*
X543039Y357000D01*
X543039Y357000D01*
Y449950D01*
X544244Y450756D01*
X545239Y452244D01*
X545588Y454000D01*
X545239Y455756D01*
X544244Y457244D01*
X543039Y458050D01*
Y494000D01*
X542884Y494780D01*
X542442Y495442D01*
X533442Y504442D01*
X532780Y504884D01*
X532000Y505039D01*
X506050D01*
X505244Y506244D01*
X503756Y507239D01*
X502000Y507588D01*
D02*
G37*
G36*
X338000Y355588D02*
X336244Y355239D01*
X334756Y354244D01*
X334461Y353804D01*
X282000D01*
X282000Y353804D01*
X280927Y353591D01*
X280017Y352983D01*
X280017Y352983D01*
X273017Y345983D01*
X272410Y345073D01*
X272196Y344000D01*
Y329161D01*
X269839Y326804D01*
X151000D01*
X149927Y326590D01*
X149017Y325983D01*
X144017Y320983D01*
X143410Y320073D01*
X143196Y319000D01*
Y313468D01*
X142476Y312904D01*
X141250Y313451D01*
Y313690D01*
X131750D01*
Y304690D01*
X141250D01*
Y306446D01*
X143250D01*
X144323Y306660D01*
X145233Y307267D01*
X147983Y310017D01*
X148590Y310927D01*
X148804Y312000D01*
Y317839D01*
X152161Y321196D01*
X271000D01*
X272073Y321410D01*
X272983Y322017D01*
X276983Y326017D01*
X277591Y326927D01*
X277804Y328000D01*
Y331408D01*
X278750Y332190D01*
X279074Y332190D01*
X288250D01*
Y341190D01*
X279074D01*
X278750Y341190D01*
X278129Y341703D01*
X278080Y343115D01*
X283161Y348196D01*
X323035D01*
X323196Y348000D01*
Y341469D01*
X322476Y340904D01*
X321250Y341190D01*
Y341190D01*
X311750D01*
Y332190D01*
X321250D01*
Y333946D01*
X322750D01*
X323021Y334000D01*
X350979D01*
X351250Y333946D01*
X457750D01*
Y332190D01*
X467250D01*
Y341190D01*
X457750D01*
Y339554D01*
X352411D01*
X342319Y349646D01*
X342588Y351000D01*
X342239Y352756D01*
X341244Y354244D01*
X339756Y355239D01*
X338000Y355588D01*
D02*
G37*
G36*
X162628Y382200D02*
X161052D01*
X159507Y381893D01*
X158051Y381289D01*
X156740Y380414D01*
X155626Y379300D01*
X154750Y377989D01*
X154147Y376534D01*
X153840Y374988D01*
Y373412D01*
X154147Y371866D01*
X154750Y370410D01*
X155626Y369100D01*
X156740Y367986D01*
X158051Y367110D01*
X159507Y366507D01*
X161052Y366200D01*
X162628D01*
X164174Y366507D01*
X165629Y367110D01*
X166940Y367986D01*
X168054Y369100D01*
X168930Y370410D01*
X169533Y371866D01*
X169840Y373412D01*
Y374988D01*
X169533Y376534D01*
X168930Y377989D01*
X168054Y379300D01*
X166940Y380414D01*
X165629Y381289D01*
X164174Y381893D01*
X162628Y382200D01*
D02*
G37*
G36*
X60000Y406372D02*
X57561Y405887D01*
X55494Y404506D01*
X54113Y402439D01*
X53628Y400000D01*
X54113Y397561D01*
X55494Y395494D01*
X57561Y394113D01*
X60000Y393628D01*
X62439Y394113D01*
X64506Y395494D01*
X65887Y397561D01*
X66372Y400000D01*
X65887Y402439D01*
X64506Y404506D01*
X62439Y405887D01*
X60000Y406372D01*
D02*
G37*
G36*
X178350Y392253D02*
X176302Y391845D01*
X174565Y390685D01*
X173405Y388948D01*
X172997Y386900D01*
X173405Y384851D01*
X174565Y383115D01*
X176302Y381955D01*
X176901Y381835D01*
X177170Y380487D01*
X177060Y380414D01*
X175946Y379300D01*
X175070Y377989D01*
X174467Y376534D01*
X174160Y374988D01*
Y373412D01*
X174467Y371866D01*
X175070Y370410D01*
X175946Y369100D01*
X177060Y367986D01*
X178371Y367110D01*
X179827Y366507D01*
X181372Y366200D01*
X182948D01*
X184494Y366507D01*
X185949Y367110D01*
X187260Y367986D01*
X188374Y369100D01*
X189249Y370410D01*
X189853Y371866D01*
X190160Y373412D01*
Y374988D01*
X189853Y376534D01*
X189249Y377989D01*
X188374Y379300D01*
X187260Y380414D01*
X185949Y381289D01*
X184494Y381893D01*
X182948Y382200D01*
X182935D01*
X182830Y382320D01*
X182372Y383470D01*
X183295Y384851D01*
X183703Y386900D01*
X183295Y388948D01*
X182135Y390685D01*
X180399Y391845D01*
X178350Y392253D01*
D02*
G37*
G36*
X200000Y226588D02*
X198244Y226239D01*
X196756Y225244D01*
X196461Y224804D01*
X141000D01*
X139927Y224590D01*
X139017Y223983D01*
X135017Y219983D01*
X134410Y219073D01*
X134196Y218000D01*
Y211190D01*
X131750D01*
Y202190D01*
X141250D01*
Y211190D01*
X139804D01*
Y216839D01*
X142161Y219196D01*
X196461D01*
X196756Y218756D01*
X198244Y217761D01*
X200000Y217412D01*
X201756Y217761D01*
X203244Y218756D01*
X204239Y220244D01*
X204588Y222000D01*
X204239Y223756D01*
X203244Y225244D01*
X201756Y226239D01*
X200000Y226588D01*
D02*
G37*
G36*
X501249Y53691D02*
X491749D01*
Y44691D01*
X501249D01*
Y53691D01*
D02*
G37*
G36*
X351000Y67588D02*
X349244Y67239D01*
X347756Y66244D01*
X346923Y64998D01*
X333194D01*
X332121Y64785D01*
X331212Y64177D01*
X326017Y58983D01*
X325410Y58073D01*
X325196Y57000D01*
Y54161D01*
X322839Y51804D01*
X321249D01*
Y53691D01*
X311749D01*
Y44691D01*
X320025D01*
X320630Y44691D01*
X321467Y43643D01*
X321447Y43413D01*
X312839Y34804D01*
X179161D01*
X162983Y50983D01*
X162073Y51590D01*
X161000Y51804D01*
X141250D01*
Y53691D01*
X131750D01*
Y44691D01*
X141250D01*
Y46196D01*
X159839D01*
X176017Y30017D01*
X176927Y29410D01*
X178000Y29196D01*
X314000D01*
X315073Y29410D01*
X315983Y30017D01*
X329983Y44017D01*
X330590Y44927D01*
X330804Y46000D01*
Y55839D01*
X334356Y59391D01*
X348302D01*
X349244Y58761D01*
X351000Y58412D01*
X352756Y58761D01*
X353698Y59391D01*
X438023D01*
X439000Y59196D01*
X442839D01*
X454826Y47208D01*
X455736Y46601D01*
X456809Y46387D01*
X458749D01*
Y44691D01*
X468249D01*
Y53691D01*
X458749D01*
Y53012D01*
X457479Y52486D01*
X445983Y63983D01*
X445073Y64590D01*
X444000Y64804D01*
X439977D01*
X439000Y64998D01*
X355077D01*
X354244Y66244D01*
X352756Y67239D01*
X351000Y67588D01*
D02*
G37*
G36*
X108250Y81191D02*
X98750D01*
Y72191D01*
X108250D01*
Y81191D01*
D02*
G37*
G36*
X501249Y81191D02*
X491749D01*
Y72191D01*
X501249D01*
Y81191D01*
D02*
G37*
G36*
X288249Y81191D02*
X278749D01*
Y72191D01*
X288249D01*
Y81191D01*
D02*
G37*
G36*
X50020Y39999D02*
X49299Y39976D01*
X48532Y39902D01*
X47660Y39724D01*
X47200Y39603D01*
X46580Y39397D01*
X45994Y39167D01*
X45519Y38934D01*
X45142Y38761D01*
X44421Y38301D01*
X44009Y38010D01*
X43673Y37752D01*
X42986Y37126D01*
X42428Y36540D01*
X41828Y35777D01*
X41597Y35407D01*
X41402Y35116D01*
X41151Y34652D01*
X40907Y34170D01*
X40671Y33618D01*
X40520Y33195D01*
X40235Y32206D01*
X40148Y31745D01*
X40070Y31256D01*
X40001Y30086D01*
X40016Y29307D01*
X40093Y28637D01*
X40166Y28247D01*
X40235Y27832D01*
X40318Y27472D01*
X40548Y26734D01*
X40697Y26317D01*
X41032Y25578D01*
X41267Y25121D01*
X41525Y24689D01*
X41828Y24223D01*
X42074Y23894D01*
X42569Y23290D01*
X42986Y22873D01*
X43375Y22516D01*
X43922Y22046D01*
X44195Y21856D01*
X44626Y21556D01*
X45033Y21317D01*
X45591Y21019D01*
X46018Y20822D01*
X46318Y20706D01*
X46991Y20447D01*
X47392Y20337D01*
X47660Y20278D01*
X48318Y20133D01*
X48944Y20054D01*
X50091Y19992D01*
X50655Y20015D01*
X51001Y20054D01*
X52151Y20234D01*
X52646Y20357D01*
X53247Y20539D01*
X53839Y20765D01*
X54320Y20978D01*
X54964Y21317D01*
X55367Y21556D01*
X55750Y21818D01*
X56298Y22220D01*
X56907Y22775D01*
X57312Y23180D01*
X57719Y23641D01*
X58046Y24051D01*
X58351Y24490D01*
X58611Y24901D01*
X58836Y25296D01*
X59235Y26161D01*
X59404Y26573D01*
X59569Y27106D01*
X59702Y27538D01*
X59826Y28149D01*
X59905Y28618D01*
X59975Y29390D01*
X59997Y30339D01*
X59945Y31056D01*
X59873Y31572D01*
X59785Y32068D01*
X59676Y32562D01*
X59397Y33407D01*
X59198Y33914D01*
X59023Y34318D01*
X58857Y34653D01*
X58637Y35038D01*
X58446Y35375D01*
X58165Y35777D01*
X57756Y36308D01*
X57312Y36812D01*
X56701Y37422D01*
X56107Y37926D01*
X55602Y38280D01*
X55019Y38657D01*
X54482Y38934D01*
X53906Y39207D01*
X53312Y39429D01*
X52887Y39570D01*
X52316Y39724D01*
X51820Y39837D01*
X50929Y39953D01*
X50020Y39999D01*
D02*
G37*
G36*
X410000Y28000D02*
X362000D01*
Y10000D01*
X410000D01*
Y28000D01*
D02*
G37*
G36*
X540022Y39999D02*
X539301Y39976D01*
X538533Y39902D01*
X537662Y39724D01*
X537201Y39603D01*
X536582Y39397D01*
X535995Y39167D01*
X535520Y38934D01*
X535143Y38761D01*
X534423Y38301D01*
X534010Y38010D01*
X533674Y37752D01*
X532988Y37126D01*
X532430Y36540D01*
X531830Y35777D01*
X531598Y35407D01*
X531404Y35116D01*
X531152Y34652D01*
X530909Y34170D01*
X530672Y33618D01*
X530521Y33195D01*
X530237Y32206D01*
X530150Y31745D01*
X530072Y31256D01*
X530003Y30086D01*
X530017Y29307D01*
X530095Y28637D01*
X530167Y28247D01*
X530237Y27832D01*
X530319Y27472D01*
X530549Y26734D01*
X530698Y26317D01*
X531034Y25578D01*
X531268Y25121D01*
X531526Y24689D01*
X531830Y24223D01*
X532076Y23894D01*
X532571Y23290D01*
X532988Y22873D01*
X533377Y22516D01*
X533924Y22046D01*
X534197Y21856D01*
X534628Y21556D01*
X535034Y21317D01*
X535592Y21019D01*
X536020Y20822D01*
X536320Y20706D01*
X536993Y20447D01*
X537394Y20337D01*
X537662Y20278D01*
X538320Y20133D01*
X538945Y20054D01*
X540093Y19992D01*
X540656Y20015D01*
X541003Y20054D01*
X542153Y20234D01*
X542648Y20357D01*
X543248Y20539D01*
X543840Y20765D01*
X544322Y20978D01*
X544965Y21317D01*
X545369Y21556D01*
X545752Y21818D01*
X546299Y22220D01*
X546909Y22775D01*
X547313Y23180D01*
X547720Y23641D01*
X548048Y24051D01*
X548352Y24490D01*
X548612Y24901D01*
X548837Y25296D01*
X549236Y26161D01*
X549406Y26573D01*
X549570Y27106D01*
X549703Y27538D01*
X549828Y28149D01*
X549906Y28618D01*
X549976Y29390D01*
X549999Y30339D01*
X549947Y31056D01*
X549874Y31572D01*
X549786Y32068D01*
X549678Y32562D01*
X549399Y33407D01*
X549200Y33914D01*
X549025Y34318D01*
X548858Y34653D01*
X548639Y35038D01*
X548447Y35375D01*
X548166Y35777D01*
X547758Y36308D01*
X547313Y36812D01*
X546703Y37422D01*
X546108Y37926D01*
X545603Y38280D01*
X545020Y38657D01*
X544483Y38934D01*
X543908Y39207D01*
X543314Y39429D01*
X542889Y39570D01*
X542318Y39724D01*
X541821Y39837D01*
X540931Y39953D01*
X540022Y39999D01*
D02*
G37*
G36*
X288249Y53691D02*
X278749D01*
Y44691D01*
X288249D01*
Y53691D01*
D02*
G37*
G36*
X108250D02*
X98750D01*
Y44691D01*
X108250D01*
Y53691D01*
D02*
G37*
G36*
X501451Y183690D02*
X491951D01*
Y174690D01*
X501451D01*
Y183690D01*
D02*
G37*
G36*
X342000Y197078D02*
X340439Y196768D01*
X339116Y195884D01*
X339063Y195804D01*
X328000D01*
X326927Y195590D01*
X326017Y194983D01*
X322017Y190983D01*
X321410Y190073D01*
X321196Y189000D01*
Y183690D01*
X311750D01*
Y174690D01*
X319929D01*
X320455Y173420D01*
X313839Y166804D01*
X159161D01*
X144983Y180983D01*
X144073Y181590D01*
X143000Y181804D01*
X141250D01*
Y183690D01*
X131750D01*
Y174690D01*
X141250D01*
Y174989D01*
X142520Y175515D01*
X156017Y162017D01*
X156927Y161410D01*
X158000Y161196D01*
X315000D01*
X316073Y161410D01*
X316983Y162017D01*
X325983Y171017D01*
X326590Y171927D01*
X326804Y173000D01*
Y181000D01*
Y187839D01*
X329161Y190196D01*
X331252D01*
X332132Y189606D01*
X333205Y189391D01*
X340220Y189379D01*
X340439Y189232D01*
X342000Y188922D01*
X343561Y189232D01*
X343771Y189373D01*
X447837Y189198D01*
X450196Y186839D01*
Y182000D01*
X450410Y180927D01*
X451017Y180017D01*
X453827Y177207D01*
X453827Y177207D01*
X454737Y176600D01*
X455810Y176386D01*
X458951D01*
Y174690D01*
X468451D01*
Y183690D01*
X458951D01*
Y181994D01*
X456971D01*
X455804Y183161D01*
Y188000D01*
X455591Y189073D01*
X454983Y189983D01*
X450983Y193983D01*
X450531Y194285D01*
X450077Y194589D01*
X450075Y194589D01*
X450073Y194590D01*
X449540Y194697D01*
X449005Y194804D01*
X345489Y194978D01*
X344884Y195884D01*
X343561Y196768D01*
X342000Y197078D01*
D02*
G37*
G36*
X108250Y211190D02*
X98750D01*
Y202190D01*
X108250D01*
Y211190D01*
D02*
G37*
G36*
X468451D02*
X458951D01*
Y202190D01*
X468451D01*
Y211190D01*
D02*
G37*
G36*
X288250D02*
X278750D01*
Y202190D01*
X288250D01*
Y211190D01*
D02*
G37*
G36*
X200000Y94588D02*
X198244Y94239D01*
X196756Y93244D01*
X196461Y92804D01*
X141000D01*
X139927Y92590D01*
X139017Y91983D01*
X134517Y87482D01*
X133909Y86573D01*
X133696Y85500D01*
Y81191D01*
X131750D01*
Y72191D01*
X141250D01*
Y81191D01*
X139304D01*
Y84338D01*
X142161Y87196D01*
X196461D01*
X196756Y86756D01*
X198244Y85761D01*
X200000Y85412D01*
X201756Y85761D01*
X203244Y86756D01*
X204239Y88244D01*
X204588Y90000D01*
X204239Y91756D01*
X203244Y93244D01*
X201756Y94239D01*
X200000Y94588D01*
D02*
G37*
G36*
X331000Y104588D02*
X329244Y104239D01*
X327756Y103244D01*
X326761Y101756D01*
X326412Y100000D01*
X326761Y98244D01*
X327756Y96756D01*
X328196Y96461D01*
Y86161D01*
X322519Y80485D01*
X321249Y81011D01*
Y81191D01*
X311749D01*
Y72191D01*
X321249D01*
Y73887D01*
X322691D01*
X323764Y74101D01*
X324674Y74708D01*
X332983Y83017D01*
X333590Y83927D01*
X333804Y85000D01*
Y96461D01*
X334244Y96756D01*
X335239Y98244D01*
X335588Y100000D01*
X335239Y101756D01*
X334244Y103244D01*
X332756Y104239D01*
X331000Y104588D01*
D02*
G37*
G36*
X529970Y128533D02*
X526588Y128200D01*
X523337Y127214D01*
X520340Y125612D01*
X517713Y123457D01*
X515558Y120830D01*
X513956Y117833D01*
X512970Y114582D01*
X512636Y111200D01*
X512970Y107818D01*
X513956Y104567D01*
X515558Y101570D01*
X517713Y98943D01*
X520340Y96788D01*
X523337Y95186D01*
X526588Y94200D01*
X529970Y93867D01*
X533352Y94200D01*
X536603Y95186D01*
X539600Y96788D01*
X542227Y98943D01*
X544382Y101570D01*
X545984Y104567D01*
X546970Y107818D01*
X547304Y111200D01*
X546970Y114582D01*
X545984Y117833D01*
X544382Y120830D01*
X542227Y123457D01*
X539600Y125612D01*
X536603Y127214D01*
X533352Y128200D01*
X529970Y128533D01*
D02*
G37*
G36*
X288250Y183690D02*
X278750D01*
Y174690D01*
X288250D01*
Y183690D01*
D02*
G37*
G36*
X108250D02*
X98750D01*
Y174690D01*
X108250D01*
Y183690D01*
D02*
G37*
G36*
X60000Y466372D02*
X57561Y465887D01*
X55494Y464506D01*
X54113Y462439D01*
X53628Y460000D01*
X54113Y457561D01*
X55494Y455494D01*
X57561Y454113D01*
X60000Y453628D01*
X62439Y454113D01*
X64506Y455494D01*
X65887Y457561D01*
X66372Y460000D01*
X65887Y462439D01*
X64506Y464506D01*
X62439Y465887D01*
X60000Y466372D01*
D02*
G37*
G36*
X147000Y805078D02*
X145439Y804768D01*
X144116Y803884D01*
X143232Y802561D01*
X142922Y801000D01*
X143232Y799439D01*
X144116Y798116D01*
X145439Y797232D01*
X147000Y796922D01*
X148561Y797232D01*
X149884Y798116D01*
X150768Y799439D01*
X151078Y801000D01*
X150768Y802561D01*
X149884Y803884D01*
X148561Y804768D01*
X147000Y805078D01*
D02*
G37*
G36*
X512000Y769588D02*
X510244Y769239D01*
X508756Y768244D01*
X507761Y766756D01*
X507412Y765000D01*
X507761Y763244D01*
X508756Y761756D01*
X510244Y760761D01*
X512000Y760412D01*
X513756Y760761D01*
X515244Y761756D01*
X516239Y763244D01*
X516588Y765000D01*
X516239Y766756D01*
X515244Y768244D01*
X513756Y769239D01*
X512000Y769588D01*
D02*
G37*
G36*
X547000Y825372D02*
X544561Y824887D01*
X542494Y823506D01*
X540360Y821372D01*
X515000D01*
X512561Y820887D01*
X510494Y819506D01*
X509113Y817439D01*
X508628Y815000D01*
X509113Y812561D01*
X510494Y810494D01*
X512561Y809113D01*
X515000Y808627D01*
X543000D01*
X545439Y809113D01*
X547506Y810494D01*
X551506Y814494D01*
X552887Y816561D01*
X553372Y819000D01*
X552887Y821439D01*
X551506Y823506D01*
X549439Y824887D01*
X547000Y825372D01*
D02*
G37*
G36*
X115000Y853533D02*
X111618Y853200D01*
X108367Y852214D01*
X105370Y850612D01*
X102743Y848457D01*
X100588Y845830D01*
X98986Y842833D01*
X98000Y839582D01*
X97667Y836200D01*
X98000Y832818D01*
X98986Y829567D01*
X100588Y826570D01*
X102743Y823943D01*
X105370Y821788D01*
X108367Y820186D01*
X111618Y819200D01*
X115000Y818867D01*
X118382Y819200D01*
X121633Y820186D01*
X124630Y821788D01*
X127257Y823943D01*
X129412Y826570D01*
X131014Y829567D01*
X132000Y832818D01*
X132333Y836200D01*
X132000Y839582D01*
X131014Y842833D01*
X129412Y845830D01*
X127257Y848457D01*
X124630Y850612D01*
X121633Y852214D01*
X118382Y853200D01*
X115000Y853533D01*
D02*
G37*
G36*
X182000Y826588D02*
X180244Y826239D01*
X178756Y825244D01*
X177761Y823756D01*
X177412Y822000D01*
X177761Y820244D01*
X178756Y818756D01*
X180244Y817761D01*
X182000Y817412D01*
X183756Y817761D01*
X185244Y818756D01*
X186239Y820244D01*
X186588Y822000D01*
X186239Y823756D01*
X185244Y825244D01*
X183756Y826239D01*
X182000Y826588D01*
D02*
G37*
G36*
X348000Y714588D02*
X346244Y714239D01*
X344756Y713244D01*
X343761Y711756D01*
X343412Y710000D01*
X343761Y708244D01*
X344756Y706756D01*
X346244Y705761D01*
X348000Y705412D01*
X349756Y705761D01*
X351244Y706756D01*
X352239Y708244D01*
X352588Y710000D01*
X352239Y711756D01*
X351244Y713244D01*
X349756Y714239D01*
X348000Y714588D01*
D02*
G37*
G36*
X120000D02*
X118244Y714239D01*
X116756Y713244D01*
X115761Y711756D01*
X115412Y710000D01*
X115761Y708244D01*
X116756Y706756D01*
X118244Y705761D01*
X120000Y705412D01*
X121756Y705761D01*
X123244Y706756D01*
X124239Y708244D01*
X124588Y710000D01*
X124239Y711756D01*
X123244Y713244D01*
X121756Y714239D01*
X120000Y714588D01*
D02*
G37*
G36*
X296000Y722588D02*
X294244Y722239D01*
X292756Y721244D01*
X291761Y719756D01*
X291412Y718000D01*
X291761Y716244D01*
X292756Y714756D01*
X294244Y713761D01*
X296000Y713412D01*
X297756Y713761D01*
X299244Y714756D01*
X300239Y716244D01*
X300588Y718000D01*
X300239Y719756D01*
X299244Y721244D01*
X297756Y722239D01*
X296000Y722588D01*
D02*
G37*
G36*
X468000Y758588D02*
X466244Y758239D01*
X464756Y757244D01*
X463761Y755756D01*
X463412Y754000D01*
X463761Y752244D01*
X464756Y750756D01*
X466244Y749761D01*
X468000Y749412D01*
X469756Y749761D01*
X471244Y750756D01*
X472239Y752244D01*
X472588Y754000D01*
X472239Y755756D01*
X471244Y757244D01*
X469756Y758239D01*
X468000Y758588D01*
D02*
G37*
G36*
X526000Y740588D02*
X524244Y740239D01*
X522756Y739244D01*
X521761Y737756D01*
X521412Y736000D01*
X521761Y734244D01*
X522756Y732756D01*
X524244Y731761D01*
X526000Y731412D01*
X527756Y731761D01*
X529244Y732756D01*
X530239Y734244D01*
X530588Y736000D01*
X530239Y737756D01*
X529244Y739244D01*
X527756Y740239D01*
X526000Y740588D01*
D02*
G37*
G36*
X183000Y904588D02*
X181244Y904239D01*
X179756Y903244D01*
X178761Y901756D01*
X178412Y900000D01*
X178761Y898244D01*
X179756Y896756D01*
X181244Y895761D01*
X183000Y895412D01*
X184756Y895761D01*
X186244Y896756D01*
X187239Y898244D01*
X187588Y900000D01*
X187239Y901756D01*
X186244Y903244D01*
X184756Y904239D01*
X183000Y904588D01*
D02*
G37*
G36*
X511000Y905588D02*
X509244Y905239D01*
X507756Y904244D01*
X506761Y902756D01*
X506412Y901000D01*
X506761Y899244D01*
X507756Y897756D01*
X509009Y896918D01*
X508628Y895000D01*
X509113Y892561D01*
X510494Y890494D01*
X512561Y889113D01*
X515000Y888627D01*
X517439Y889113D01*
X519506Y890494D01*
X520887Y892561D01*
X521372Y895000D01*
X520887Y897439D01*
X519506Y899506D01*
X517439Y900887D01*
X515535Y901266D01*
X515239Y902756D01*
X514244Y904244D01*
X512756Y905239D01*
X511000Y905588D01*
D02*
G37*
G36*
X390750Y921289D02*
X120976D01*
X120196Y921134D01*
X119534Y920692D01*
X119534Y920692D01*
X72808Y873966D01*
X72366Y873304D01*
X72211Y872524D01*
Y863750D01*
X72245Y863580D01*
X72232Y863561D01*
X71922Y862000D01*
X72232Y860439D01*
X73116Y859116D01*
X74439Y858232D01*
X76000Y857922D01*
X77561Y858232D01*
X78884Y859116D01*
X79768Y860439D01*
X80078Y862000D01*
X79768Y863561D01*
X78991Y864724D01*
X78991Y864738D01*
X79202Y865494D01*
X79475Y866016D01*
X80561Y866232D01*
X81884Y867116D01*
X82768Y868439D01*
X82835Y868777D01*
X84246Y869361D01*
X84439Y869232D01*
X85817Y868958D01*
X86266Y868691D01*
X86927Y868029D01*
X86922Y868000D01*
X87232Y866439D01*
X88116Y865116D01*
X89439Y864232D01*
X91000Y863922D01*
X92561Y864232D01*
X93884Y865116D01*
X94768Y866439D01*
X95078Y868000D01*
X94911Y868843D01*
X95928Y869936D01*
X96000Y869922D01*
X97561Y870232D01*
X98884Y871116D01*
X99768Y872439D01*
X100078Y874000D01*
X99970Y874546D01*
X100974Y875045D01*
X101157Y875089D01*
X102439Y874232D01*
X104000Y873922D01*
X105561Y874232D01*
X106884Y875116D01*
X107768Y876439D01*
X108078Y878000D01*
X107768Y879561D01*
X106884Y880884D01*
X106784Y881900D01*
X115095Y890211D01*
X146016D01*
X204669Y831558D01*
X205331Y831116D01*
X206111Y830961D01*
X218552D01*
X219116Y830116D01*
X220439Y829232D01*
X222000Y828922D01*
X223561Y829232D01*
X224884Y830116D01*
X225768Y831439D01*
X226078Y833000D01*
X225768Y834561D01*
X224884Y835884D01*
X225599Y836926D01*
X225884Y837116D01*
X226768Y838439D01*
X227078Y840000D01*
X226768Y841561D01*
X225884Y842884D01*
X224561Y843768D01*
X223000Y844078D01*
X221439Y843768D01*
X220116Y842884D01*
X219552Y842039D01*
X203845D01*
X149442Y896442D01*
X148780Y896884D01*
X148000Y897039D01*
X123000D01*
Y906723D01*
X125238Y908961D01*
X276155D01*
X278216Y906900D01*
X278116Y905884D01*
X277232Y904561D01*
X276922Y903000D01*
X277232Y901439D01*
X278116Y900116D01*
X279439Y899232D01*
X281000Y898922D01*
X282561Y899232D01*
X283884Y900116D01*
X284474Y901000D01*
X326526D01*
X327116Y900116D01*
X328439Y899232D01*
X330000Y898922D01*
X331561Y899232D01*
X332884Y900116D01*
X333474Y901000D01*
X344120D01*
X344232Y900439D01*
X345116Y899116D01*
X346439Y898232D01*
X348000Y897922D01*
X349561Y898232D01*
X350884Y899116D01*
X351768Y900439D01*
X351879Y901000D01*
X375000D01*
X384000Y910000D01*
X397116D01*
X405695Y901422D01*
X405412Y900000D01*
X405761Y898244D01*
X406756Y896756D01*
X408244Y895761D01*
X410000Y895412D01*
X411756Y895761D01*
X413244Y896756D01*
X414239Y898244D01*
X414588Y900000D01*
X414239Y901756D01*
X413244Y903244D01*
X411756Y904239D01*
X410000Y904588D01*
X408578Y904305D01*
X392192Y920692D01*
X391530Y921134D01*
X390750Y921289D01*
D02*
G37*
G36*
X50020Y929999D02*
X49299Y929976D01*
X48532Y929902D01*
X47660Y929724D01*
X47200Y929603D01*
X46580Y929397D01*
X45994Y929167D01*
X45519Y928934D01*
X45142Y928761D01*
X44421Y928301D01*
X44009Y928010D01*
X43673Y927752D01*
X42986Y927126D01*
X42428Y926540D01*
X41828Y925777D01*
X41597Y925407D01*
X41402Y925116D01*
X41151Y924652D01*
X40907Y924170D01*
X40671Y923618D01*
X40520Y923195D01*
X40235Y922206D01*
X40148Y921745D01*
X40070Y921256D01*
X40001Y920086D01*
X40016Y919307D01*
X40093Y918637D01*
X40166Y918248D01*
X40235Y917832D01*
X40318Y917472D01*
X40548Y916734D01*
X40697Y916317D01*
X41032Y915578D01*
X41267Y915121D01*
X41525Y914689D01*
X41828Y914223D01*
X42074Y913894D01*
X42569Y913290D01*
X42986Y912873D01*
X43375Y912516D01*
X43922Y912046D01*
X44195Y911856D01*
X44626Y911556D01*
X45033Y911317D01*
X45591Y911019D01*
X46018Y910822D01*
X46318Y910706D01*
X46991Y910447D01*
X47392Y910337D01*
X47660Y910278D01*
X48318Y910133D01*
X48944Y910054D01*
X50091Y909992D01*
X50655Y910014D01*
X51001Y910054D01*
X52151Y910235D01*
X52646Y910357D01*
X53247Y910539D01*
X53839Y910765D01*
X54320Y910978D01*
X54964Y911317D01*
X55367Y911556D01*
X55750Y911818D01*
X56298Y912220D01*
X56907Y912775D01*
X57312Y913180D01*
X57719Y913641D01*
X58046Y914051D01*
X58351Y914491D01*
X58611Y914901D01*
X58836Y915296D01*
X59235Y916161D01*
X59404Y916573D01*
X59569Y917106D01*
X59702Y917538D01*
X59826Y918149D01*
X59905Y918618D01*
X59975Y919390D01*
X59997Y920339D01*
X59945Y921056D01*
X59873Y921572D01*
X59785Y922068D01*
X59676Y922562D01*
X59397Y923407D01*
X59198Y923914D01*
X59023Y924318D01*
X58857Y924652D01*
X58637Y925038D01*
X58446Y925375D01*
X58165Y925777D01*
X57756Y926308D01*
X57312Y926812D01*
X56701Y927422D01*
X56107Y927926D01*
X55602Y928280D01*
X55019Y928657D01*
X54482Y928934D01*
X53906Y929206D01*
X53312Y929428D01*
X52887Y929570D01*
X52316Y929724D01*
X51820Y929837D01*
X50929Y929953D01*
X50020Y929999D01*
D02*
G37*
G36*
X547000Y916588D02*
X545244Y916239D01*
X543756Y915244D01*
X542761Y913756D01*
X542412Y912000D01*
X542761Y910244D01*
X543756Y908756D01*
X545244Y907761D01*
X547000Y907412D01*
X548756Y907761D01*
X550244Y908756D01*
X551239Y910244D01*
X551588Y912000D01*
X551239Y913756D01*
X550244Y915244D01*
X548756Y916239D01*
X547000Y916588D01*
D02*
G37*
G36*
X462000Y915078D02*
X460439Y914768D01*
X459116Y913884D01*
X458232Y912561D01*
X457922Y911000D01*
X458232Y909439D01*
X459116Y908116D01*
X460439Y907232D01*
X462000Y906922D01*
X463561Y907232D01*
X464884Y908116D01*
X465281Y908711D01*
X473000D01*
Y895000D01*
X455000Y877000D01*
X450000D01*
X445000Y882000D01*
X444197D01*
X444000Y882039D01*
X440000D01*
X440000Y882039D01*
X439803Y882000D01*
X433884D01*
X433442Y882442D01*
X432780Y882884D01*
X432000Y883039D01*
X429000D01*
X428220Y882884D01*
X427558Y882442D01*
X427116Y882000D01*
X422884D01*
X422442Y882442D01*
X421780Y882884D01*
X421000Y883039D01*
X418000D01*
X417220Y882884D01*
X416558Y882442D01*
X416116Y882000D01*
X405197D01*
X405000Y882039D01*
X402000D01*
X402000Y882039D01*
X401803Y882000D01*
X395197D01*
X395000Y882039D01*
X392000D01*
X392000Y882039D01*
X391803Y882000D01*
X384197D01*
X384000Y882039D01*
X381000D01*
X381000Y882039D01*
X380803Y882000D01*
X373197D01*
X373000Y882039D01*
X370000D01*
X370000Y882039D01*
X369803Y882000D01*
X339000D01*
X334899Y877899D01*
X334000Y878078D01*
X332439Y877768D01*
X331116Y876884D01*
X330232Y875561D01*
X329922Y874000D01*
X330101Y873101D01*
X327039Y870039D01*
X304961D01*
X300606Y874394D01*
X300442Y875558D01*
X300884Y876220D01*
X301039Y877000D01*
X301039Y877000D01*
Y880000D01*
X301039Y880000D01*
X300884Y880780D01*
X300442Y881442D01*
X300442Y881442D01*
X300000Y881884D01*
Y885116D01*
X300442Y885558D01*
X300442Y885558D01*
X300884Y886220D01*
X301039Y887000D01*
X301039Y887000D01*
Y890000D01*
X301039Y890000D01*
X300884Y890780D01*
X300442Y891442D01*
X300442Y891442D01*
X299442Y892442D01*
X298780Y892884D01*
X298000Y893039D01*
X277000D01*
X276220Y892884D01*
X275558Y892442D01*
X273558Y890442D01*
X273116Y889780D01*
X272961Y889000D01*
Y887961D01*
X268000Y883000D01*
X265197D01*
X265000Y883039D01*
X259000D01*
X259000Y883039D01*
X258220Y882884D01*
X257558Y882442D01*
X257558Y882442D01*
X255558Y880442D01*
X255263Y880000D01*
X255000D01*
Y879197D01*
X254961Y879000D01*
Y875000D01*
X255000Y874803D01*
Y868197D01*
X254961Y868000D01*
X254961Y868000D01*
Y860000D01*
X255000Y859803D01*
Y858000D01*
X256000Y857000D01*
X257803D01*
X258000Y856961D01*
X258000Y856961D01*
X261000D01*
X261197Y857000D01*
X267803D01*
X268000Y856961D01*
X268000Y856961D01*
X271000D01*
X271197Y857000D01*
X277803D01*
X278000Y856961D01*
X278000Y856961D01*
X354039D01*
X359859Y851141D01*
X359688Y850124D01*
X358742Y849615D01*
X358730Y849617D01*
X357884Y850884D01*
X356561Y851768D01*
X355000Y852078D01*
X353439Y851768D01*
X352276Y850991D01*
X352262Y850991D01*
X351506Y851202D01*
X350984Y851475D01*
X350768Y852561D01*
X349884Y853884D01*
X348561Y854768D01*
X347000Y855078D01*
X345439Y854768D01*
X344116Y853884D01*
X343232Y852561D01*
X342922Y851000D01*
X343232Y849439D01*
X343762Y848646D01*
X342405Y847289D01*
X284007D01*
X283227Y847134D01*
X282565Y846692D01*
X282565Y846692D01*
X260163Y824289D01*
X211250D01*
X211250Y824289D01*
X210470Y824134D01*
X209808Y823692D01*
X209808Y823692D01*
X180308Y794192D01*
X179866Y793530D01*
X179711Y792750D01*
Y782000D01*
X172605D01*
X166549Y788056D01*
Y862000D01*
X166355Y862975D01*
X165802Y863802D01*
X150425Y879180D01*
X150588Y880000D01*
X150239Y881756D01*
X149244Y883244D01*
X147756Y884239D01*
X146000Y884588D01*
X144244Y884239D01*
X142756Y883244D01*
X141761Y881756D01*
X141412Y880000D01*
X141761Y878244D01*
X142756Y876756D01*
X144244Y875761D01*
X146000Y875412D01*
X146820Y875575D01*
X161451Y860944D01*
Y787000D01*
X161645Y786024D01*
X162198Y785198D01*
X164222Y783173D01*
X163736Y782000D01*
X163000D01*
Y779076D01*
X161756Y778244D01*
X160761Y776756D01*
X160412Y775000D01*
X159439Y774000D01*
X148481D01*
X134241Y788241D01*
X132413Y789643D01*
X130284Y790525D01*
X128000Y790826D01*
X115374D01*
X114756Y791239D01*
X113000Y791588D01*
X111244Y791239D01*
X110625Y790826D01*
X110000D01*
X107716Y790525D01*
X105587Y789643D01*
X103759Y788241D01*
X102357Y786413D01*
X101475Y784284D01*
X101174Y782000D01*
X101475Y779716D01*
X102357Y777587D01*
X103759Y775759D01*
X105587Y774357D01*
X107716Y773475D01*
X109425Y773250D01*
X109756Y772756D01*
X111244Y771761D01*
X113000Y771412D01*
X114756Y771761D01*
X116244Y772756D01*
X116524Y773175D01*
X124344D01*
X158174Y739344D01*
Y546656D01*
X157344Y545826D01*
X66000D01*
X63716Y545525D01*
X61587Y544643D01*
X59759Y543241D01*
X58357Y541413D01*
X57475Y539284D01*
X57175Y537000D01*
X57475Y534716D01*
X58357Y532587D01*
X59759Y530759D01*
X61587Y529357D01*
X63716Y528475D01*
X66000Y528175D01*
X77706D01*
Y505916D01*
X77561Y505887D01*
X75494Y504506D01*
X74113Y502439D01*
X73628Y500000D01*
X74113Y497561D01*
X75494Y495494D01*
X77561Y494113D01*
X80000Y493628D01*
X82439Y494113D01*
X84506Y495494D01*
X85887Y497561D01*
X86372Y500000D01*
X85887Y502439D01*
X84506Y504506D01*
X82439Y505887D01*
X82294Y505916D01*
Y528175D01*
X161000D01*
X163284Y528475D01*
X165135Y529242D01*
X187617Y506759D01*
X189445Y505357D01*
X190692Y504840D01*
X191574Y504475D01*
X193858Y504174D01*
X364344D01*
X399174Y469344D01*
Y418000D01*
X399475Y415716D01*
X400357Y413587D01*
X401759Y411759D01*
X405259Y408259D01*
X420759Y392759D01*
X443759Y369759D01*
X445587Y368357D01*
X447716Y367475D01*
X450000Y367174D01*
X500647D01*
Y358000D01*
X501043Y357043D01*
X502000Y356647D01*
X516000D01*
X516957Y357043D01*
X517353Y358000D01*
Y382000D01*
X516957Y382957D01*
X516000Y383353D01*
X510791D01*
X510413Y383643D01*
X508284Y384525D01*
X506000Y384826D01*
X453656D01*
X433260Y405222D01*
X433244Y405244D01*
X433222Y405260D01*
X416825Y421656D01*
Y473000D01*
X416525Y475284D01*
X415643Y477413D01*
X414241Y479241D01*
X405204Y488278D01*
X405690Y489451D01*
X455521D01*
X455761Y488244D01*
X456756Y486756D01*
X458244Y485761D01*
X460000Y485412D01*
X461756Y485761D01*
X463244Y486756D01*
X464239Y488244D01*
X464588Y490000D01*
X464239Y491756D01*
X463244Y493244D01*
X461756Y494239D01*
X460000Y494588D01*
X458901Y494370D01*
X458000Y494549D01*
X404198D01*
X373945Y524802D01*
X373832Y525948D01*
X378845Y530961D01*
X557552D01*
X558116Y530116D01*
X559439Y529232D01*
X561000Y528922D01*
X562561Y529232D01*
X563884Y530116D01*
X564768Y531439D01*
X565078Y533000D01*
X564768Y534561D01*
X563884Y535884D01*
X562561Y536768D01*
X561000Y537078D01*
X559439Y536768D01*
X558116Y535884D01*
X557552Y535039D01*
X378000D01*
X377220Y534884D01*
X376558Y534442D01*
X376558Y534442D01*
X370405Y528289D01*
X289595D01*
X287039Y530845D01*
Y542000D01*
X286884Y542780D01*
X286442Y543442D01*
X286442Y543442D01*
X284638Y545245D01*
X284768Y545439D01*
X285078Y547000D01*
X284768Y548561D01*
X283884Y549884D01*
X282561Y550768D01*
X281000Y551078D01*
X279439Y550768D01*
X278116Y549884D01*
X277232Y548561D01*
X276922Y547000D01*
X277232Y545439D01*
X278116Y544116D01*
X279439Y543232D01*
X281000Y542922D01*
X281162Y542954D01*
X282961Y541155D01*
Y530000D01*
X283116Y529220D01*
X283558Y528558D01*
X285394Y526722D01*
X284908Y525549D01*
X199056D01*
X194487Y530118D01*
X195239Y531244D01*
X195588Y533000D01*
X195239Y534756D01*
X194244Y536244D01*
X192756Y537239D01*
X191000Y537588D01*
X189244Y537239D01*
X188118Y536487D01*
X179549Y545056D01*
Y553366D01*
X180819Y554045D01*
X181244Y553761D01*
X183000Y553412D01*
X184756Y553761D01*
X186244Y554756D01*
X187239Y556244D01*
X187588Y558000D01*
X187239Y559756D01*
X186244Y561244D01*
X184756Y562239D01*
X183000Y562588D01*
X181244Y562239D01*
X180819Y561955D01*
X179549Y562634D01*
Y641968D01*
X180819Y642646D01*
X181439Y642232D01*
X183000Y641922D01*
X184561Y642232D01*
X185884Y643116D01*
X186768Y644439D01*
X187078Y646000D01*
X186880Y646996D01*
X189942Y650058D01*
X190384Y650720D01*
X190539Y651500D01*
Y668571D01*
X190384Y669351D01*
X189942Y670013D01*
X189942Y670013D01*
X187789Y672166D01*
Y789905D01*
X213845Y815961D01*
X263000D01*
X263780Y816116D01*
X264442Y816558D01*
X286845Y838961D01*
X344071D01*
X344851Y839116D01*
X345513Y839558D01*
X351165Y845210D01*
X352116Y845116D01*
X353439Y844232D01*
X355000Y843922D01*
X356561Y844232D01*
X357884Y845116D01*
X358024Y845326D01*
X359750Y845636D01*
X359961Y845486D01*
Y844000D01*
X359961Y844000D01*
X360000Y843803D01*
Y838000D01*
X362000Y836000D01*
X371666D01*
X372345Y834730D01*
X372232Y834561D01*
X371922Y833000D01*
X372232Y831439D01*
X373116Y830116D01*
X374000Y829526D01*
Y827039D01*
X311333D01*
X310552Y826884D01*
X309891Y826442D01*
X309891Y826442D01*
X250488Y767039D01*
X230000D01*
X229967Y767033D01*
X226685Y770315D01*
X226768Y770439D01*
X227078Y772000D01*
X226768Y773561D01*
X226000Y774710D01*
Y790290D01*
X226768Y791439D01*
X227078Y793000D01*
X226924Y793773D01*
X229796Y802388D01*
X230883Y803114D01*
X231768Y804438D01*
X232078Y805998D01*
X231768Y807559D01*
X230883Y808882D01*
X229560Y809766D01*
X227999Y810077D01*
X226439Y809766D01*
X225116Y808882D01*
X224552Y808039D01*
X223000D01*
X222220Y807884D01*
X221558Y807442D01*
X221558Y807442D01*
X205558Y791442D01*
X205116Y790780D01*
X204961Y790000D01*
Y581912D01*
X203691Y580941D01*
X203000Y581078D01*
X201439Y580768D01*
X200116Y579884D01*
X199232Y578561D01*
X198922Y577000D01*
X199232Y575439D01*
X200116Y574116D01*
X201439Y573232D01*
X202817Y572958D01*
X203266Y572691D01*
X203927Y572029D01*
X203921Y571999D01*
X204232Y570438D01*
X205116Y569115D01*
X206439Y568231D01*
X206478Y566928D01*
X206232Y566561D01*
X205922Y565000D01*
X206232Y563439D01*
X207116Y562116D01*
X208439Y561232D01*
X208642Y561192D01*
X209000Y561000D01*
Y558000D01*
X209716Y557284D01*
X209232Y556561D01*
X208922Y555000D01*
X209232Y553439D01*
X210116Y552116D01*
X211439Y551232D01*
X212141Y551092D01*
X213013Y550667D01*
X213063Y549713D01*
X212922Y549000D01*
X213232Y547439D01*
X214116Y546116D01*
X215439Y545232D01*
X217000Y544922D01*
X218561Y545232D01*
X218920Y545472D01*
X220063Y544708D01*
X219922Y544000D01*
X220232Y542439D01*
X221116Y541116D01*
X222439Y540232D01*
X224000Y539922D01*
X225561Y540232D01*
X226884Y541116D01*
X227768Y542439D01*
X228078Y544000D01*
X227768Y545561D01*
X227238Y546354D01*
X231680Y550796D01*
X232026Y550865D01*
X232687Y551307D01*
X238691Y557311D01*
X238692Y557311D01*
X239134Y557973D01*
X239289Y558753D01*
X239289Y558753D01*
Y583307D01*
X239134Y584087D01*
X238692Y584749D01*
X238691Y584749D01*
X231039Y592401D01*
Y677039D01*
X239247Y685247D01*
X240511Y685122D01*
X240756Y684756D01*
X242244Y683761D01*
X244000Y683412D01*
X245756Y683761D01*
X247244Y684756D01*
X248239Y686244D01*
X248588Y688000D01*
X248239Y689756D01*
X247614Y690691D01*
X248284Y691961D01*
X278552D01*
X279116Y691116D01*
X280439Y690232D01*
X282000Y689922D01*
X283561Y690232D01*
X284884Y691116D01*
X285768Y692439D01*
X286078Y694000D01*
X285768Y695561D01*
X284884Y696884D01*
X283561Y697768D01*
X282000Y698078D01*
Y729461D01*
X431655D01*
X438558Y722558D01*
X439220Y722116D01*
X440000Y721961D01*
X440000Y721961D01*
X525133D01*
X525922Y721000D01*
X526232Y719439D01*
X527116Y718116D01*
X528439Y717232D01*
X530000Y716922D01*
X531561Y717232D01*
X532884Y718116D01*
X533768Y719439D01*
X534078Y721000D01*
X533768Y722561D01*
X532884Y723884D01*
X531561Y724768D01*
X530000Y725078D01*
X529004Y724880D01*
X528442Y725442D01*
X527780Y725884D01*
X527000Y726039D01*
X466558D01*
X466232Y726561D01*
X466013Y727309D01*
X466768Y728439D01*
X467078Y730000D01*
X466768Y731561D01*
X465884Y732884D01*
X464561Y733768D01*
X463000Y734078D01*
X462928Y734064D01*
X461911Y735156D01*
X462078Y736000D01*
X461768Y737561D01*
X460884Y738884D01*
X459561Y739768D01*
X458000Y740078D01*
X457838Y740046D01*
X453692Y744192D01*
X453030Y744634D01*
X452250Y744789D01*
X334095D01*
X328039Y750845D01*
Y797552D01*
X328884Y798116D01*
X329768Y799439D01*
X330078Y801000D01*
X329768Y802561D01*
X328884Y803884D01*
X327561Y804768D01*
X326000Y805078D01*
X324439Y804768D01*
X323116Y803884D01*
X322232Y802561D01*
X321922Y801000D01*
X322232Y799439D01*
X323116Y798116D01*
X323961Y797552D01*
Y750000D01*
X324116Y749220D01*
X324558Y748558D01*
X329904Y743213D01*
X329418Y742039D01*
X232000D01*
Y749000D01*
X234000Y751000D01*
X238000D01*
X241000Y748000D01*
X258606D01*
X259000Y747922D01*
X260561Y748232D01*
X261884Y749116D01*
X262768Y750439D01*
X263078Y752000D01*
X262768Y753561D01*
X261884Y754884D01*
X261039Y755448D01*
Y760155D01*
X315595Y814711D01*
X379961D01*
Y810000D01*
X380116Y809220D01*
X380558Y808558D01*
X381558Y807558D01*
X381558Y807558D01*
X382220Y807116D01*
X383000Y806961D01*
X383000Y806961D01*
X388000D01*
X388780Y807116D01*
X389442Y807558D01*
X390442Y808558D01*
X390442Y808558D01*
X390884Y809220D01*
X391039Y810000D01*
X391039Y810000D01*
Y814155D01*
X391595Y814711D01*
X393405D01*
X393961Y814155D01*
Y811000D01*
X394116Y810220D01*
X394558Y809558D01*
X395558Y808558D01*
X395558Y808558D01*
X396220Y808116D01*
X397000Y807961D01*
X397000Y807961D01*
X398281D01*
X398807Y806691D01*
X351155Y759039D01*
X340448D01*
X339884Y759884D01*
X338561Y760768D01*
X337000Y761078D01*
X335439Y760768D01*
X334116Y759884D01*
X333232Y758561D01*
X332922Y757000D01*
X333232Y755439D01*
X334116Y754116D01*
X335439Y753232D01*
X337000Y752922D01*
X338561Y753232D01*
X339884Y754116D01*
X340448Y754961D01*
X352000D01*
X352780Y755116D01*
X353442Y755558D01*
X409845Y811961D01*
X432418D01*
X432904Y810788D01*
X378996Y756880D01*
X378000Y757078D01*
X376439Y756768D01*
X375116Y755884D01*
X374232Y754561D01*
X373922Y753000D01*
X374232Y751439D01*
X375116Y750116D01*
X376439Y749232D01*
X378000Y748922D01*
X379561Y749232D01*
X380884Y750116D01*
X381768Y751439D01*
X382078Y753000D01*
X381880Y753996D01*
X437095Y809211D01*
X437857D01*
X438637Y809366D01*
X439299Y809808D01*
X485442Y855951D01*
X485442Y855951D01*
X485884Y856613D01*
X486039Y857393D01*
X486039Y857393D01*
Y897039D01*
X497000Y908000D01*
Y908000D01*
X497295Y908711D01*
X527405D01*
X535553Y900563D01*
X535441Y899101D01*
X535116Y898884D01*
X534232Y897561D01*
X533922Y896000D01*
X534232Y894439D01*
X535116Y893116D01*
X535961Y892552D01*
Y863651D01*
X535232Y862561D01*
X534922Y861000D01*
X535232Y859439D01*
X536116Y858116D01*
X537439Y857232D01*
X539000Y856922D01*
X540561Y857232D01*
X541884Y858116D01*
X542768Y859439D01*
X543078Y861000D01*
X542768Y862561D01*
X541884Y863884D01*
X540561Y864768D01*
X540039Y864872D01*
Y892552D01*
X540884Y893116D01*
X541768Y894439D01*
X542078Y896000D01*
X541768Y897561D01*
X540884Y898884D01*
X540039Y899448D01*
Y901000D01*
X539884Y901780D01*
X539442Y902442D01*
X529692Y912192D01*
X529030Y912634D01*
X528250Y912789D01*
X465615D01*
X464884Y913884D01*
X463561Y914768D01*
X462000Y915078D01*
D02*
G37*
G36*
X508000Y863588D02*
X506244Y863239D01*
X504756Y862244D01*
X503761Y860756D01*
X503412Y859000D01*
X503761Y857244D01*
X504756Y855756D01*
X504936Y855635D01*
Y854365D01*
X504756Y854244D01*
X503761Y852756D01*
X503412Y851000D01*
X503761Y849244D01*
X504756Y847756D01*
X505492Y847264D01*
Y845736D01*
X504756Y845244D01*
X503761Y843756D01*
X503412Y842000D01*
X503761Y840244D01*
X504756Y838756D01*
X506244Y837761D01*
X508000Y837412D01*
X509756Y837761D01*
X511244Y838756D01*
X512239Y840244D01*
X512588Y842000D01*
X512239Y843756D01*
X511244Y845244D01*
X510508Y845736D01*
Y847264D01*
X511244Y847756D01*
X511572Y848246D01*
X512561Y849113D01*
X515000Y848627D01*
X517439Y849113D01*
X519506Y850494D01*
X520887Y852561D01*
X521372Y855000D01*
X520887Y857439D01*
X519506Y859506D01*
X517439Y860887D01*
X515000Y861372D01*
X512561Y860887D01*
X511572Y861754D01*
X511244Y862244D01*
X509756Y863239D01*
X508000Y863588D01*
D02*
G37*
G36*
X546000Y878588D02*
X544244Y878239D01*
X542756Y877244D01*
X541761Y875756D01*
X541412Y874000D01*
X541761Y872244D01*
X542756Y870756D01*
X544244Y869761D01*
X546000Y869412D01*
X547756Y869761D01*
X549244Y870756D01*
X550239Y872244D01*
X550588Y874000D01*
X550239Y875756D01*
X549244Y877244D01*
X547756Y878239D01*
X546000Y878588D01*
D02*
G37*
G36*
X374000Y897588D02*
X372244Y897239D01*
X370756Y896244D01*
X369761Y894756D01*
X369412Y893000D01*
X369761Y891244D01*
X370756Y889756D01*
X372244Y888761D01*
X374000Y888412D01*
X375756Y888761D01*
X377244Y889756D01*
X378239Y891244D01*
X378588Y893000D01*
X378239Y894756D01*
X377244Y896244D01*
X375756Y897239D01*
X374000Y897588D01*
D02*
G37*
G36*
X515000Y881373D02*
X512561Y880887D01*
X510494Y879506D01*
X510485Y879492D01*
X510000Y879588D01*
X508244Y879239D01*
X506756Y878244D01*
X505761Y876756D01*
X505412Y875000D01*
X505761Y873244D01*
X506756Y871756D01*
X508244Y870761D01*
X510000Y870412D01*
X510485Y870508D01*
X510494Y870494D01*
X512561Y869113D01*
X515000Y868627D01*
X517439Y869113D01*
X519506Y870494D01*
X520887Y872561D01*
X521372Y875000D01*
X520887Y877439D01*
X519506Y879506D01*
X517439Y880887D01*
X515000Y881373D01*
D02*
G37*
G36*
X173000Y514588D02*
X171244Y514239D01*
X170212Y513549D01*
X109000D01*
X108025Y513355D01*
X107198Y512802D01*
X100640Y506245D01*
X100000Y506372D01*
X97561Y505887D01*
X95494Y504506D01*
X94113Y502439D01*
X93628Y500000D01*
X94113Y497561D01*
X95494Y495494D01*
X97561Y494113D01*
X100000Y493628D01*
X102439Y494113D01*
X104506Y495494D01*
X105887Y497561D01*
X106372Y500000D01*
X105887Y502439D01*
X105149Y503544D01*
X110056Y508451D01*
X168720D01*
X168761Y508244D01*
X169756Y506756D01*
X171244Y505761D01*
X173000Y505412D01*
X174756Y505761D01*
X176244Y506756D01*
X177239Y508244D01*
X177588Y510000D01*
X177239Y511756D01*
X176244Y513244D01*
X174756Y514239D01*
X173000Y514588D01*
D02*
G37*
G36*
X60000Y486372D02*
X57561Y485887D01*
X55494Y484506D01*
X54113Y482439D01*
X53628Y480000D01*
X54113Y477561D01*
X55494Y475494D01*
X57561Y474113D01*
X60000Y473628D01*
X62439Y474113D01*
X64506Y475494D01*
X65887Y477561D01*
X66372Y480000D01*
X65887Y482439D01*
X64506Y484506D01*
X62439Y485887D01*
X60000Y486372D01*
D02*
G37*
G36*
X564000Y522078D02*
X562439Y521768D01*
X561349Y521039D01*
X463000D01*
X462220Y520884D01*
X461558Y520442D01*
X461558Y520442D01*
X452558Y511442D01*
X452116Y510780D01*
X451961Y510000D01*
Y507448D01*
X451116Y506884D01*
X450232Y505561D01*
X449922Y504000D01*
X450232Y502439D01*
X451116Y501116D01*
X452439Y500232D01*
X454000Y499922D01*
X455561Y500232D01*
X456884Y501116D01*
X457768Y502439D01*
X458078Y504000D01*
X457768Y505561D01*
X456884Y506884D01*
X456039Y507448D01*
Y509155D01*
X463845Y516961D01*
X560128D01*
X560232Y516439D01*
X561116Y515116D01*
X562439Y514232D01*
X564000Y513922D01*
X565561Y514232D01*
X566884Y515116D01*
X567768Y516439D01*
X568078Y518000D01*
X567768Y519561D01*
X566884Y520884D01*
X565561Y521768D01*
X564000Y522078D01*
D02*
G37*
G36*
X300000Y562373D02*
X297561Y561887D01*
X295494Y560506D01*
X294113Y558439D01*
X293628Y556000D01*
X294113Y553561D01*
X295494Y551494D01*
X297561Y550113D01*
X300000Y549628D01*
X302439Y550113D01*
X304506Y551494D01*
X305887Y553561D01*
X306373Y556000D01*
X305887Y558439D01*
X304506Y560506D01*
X302439Y561887D01*
X300000Y562373D01*
D02*
G37*
G36*
X356000Y554078D02*
X354439Y553768D01*
X353116Y552884D01*
X352232Y551561D01*
X351922Y550000D01*
X352232Y548439D01*
X352547Y547968D01*
X351631Y547053D01*
X350561Y547768D01*
X349000Y548078D01*
X347439Y547768D01*
X346116Y546884D01*
X345232Y545561D01*
X344922Y544000D01*
X345232Y542439D01*
X346116Y541116D01*
X347439Y540232D01*
X349000Y539922D01*
X350561Y540232D01*
X351884Y541116D01*
X352768Y542439D01*
X353078Y544000D01*
X352768Y545561D01*
X352453Y546032D01*
X353369Y546947D01*
X354439Y546232D01*
X356000Y545922D01*
X357561Y546232D01*
X358884Y547116D01*
X359768Y548439D01*
X360078Y550000D01*
X359768Y551561D01*
X358884Y552884D01*
X357561Y553768D01*
X356000Y554078D01*
D02*
G37*
G36*
X198000Y479588D02*
X196244Y479239D01*
X195593Y478804D01*
X153000D01*
X151927Y478590D01*
X151017Y477983D01*
X142520Y469485D01*
X141250Y470011D01*
Y471190D01*
X131750D01*
Y462190D01*
X141250D01*
Y462946D01*
X142750D01*
X143823Y463160D01*
X144733Y463767D01*
X154161Y473196D01*
X193793D01*
X194756Y471756D01*
X196244Y470761D01*
X198000Y470412D01*
X199756Y470761D01*
X201244Y471756D01*
X202239Y473244D01*
X202253Y473315D01*
X203548D01*
X203761Y472244D01*
X204756Y470756D01*
X206244Y469761D01*
X208000Y469412D01*
X208519Y469515D01*
X218017Y460017D01*
X218017Y460017D01*
X218927Y459409D01*
X220000Y459196D01*
X267000D01*
X268073Y459409D01*
X268983Y460017D01*
X273161Y464196D01*
X278750D01*
Y462190D01*
X288250D01*
Y471190D01*
X278750D01*
Y469804D01*
X272000D01*
X270927Y469590D01*
X270017Y468983D01*
X265839Y464804D01*
X221161D01*
X212485Y473480D01*
X212588Y474000D01*
X212239Y475756D01*
X211244Y477244D01*
X209756Y478239D01*
X208000Y478588D01*
X206244Y478239D01*
X204756Y477244D01*
X203761Y475756D01*
X203747Y475685D01*
X202452D01*
X202239Y476756D01*
X201244Y478244D01*
X199756Y479239D01*
X198000Y479588D01*
D02*
G37*
G36*
X108250Y471190D02*
X98750D01*
Y462190D01*
X108250D01*
Y471190D01*
D02*
G37*
G36*
X321250Y471190D02*
X311750D01*
Y462190D01*
X321250D01*
Y471190D01*
D02*
G37*
G36*
X501250D02*
X491750D01*
Y462190D01*
X501250D01*
Y471190D01*
D02*
G37*
G36*
X468250D02*
X458750D01*
Y469994D01*
X454680D01*
X453412Y469742D01*
X452337Y469023D01*
X448657Y465343D01*
X447939Y464268D01*
X447686Y463000D01*
Y456314D01*
X443141D01*
X441756Y457239D01*
X440000Y457588D01*
X438244Y457239D01*
X436756Y456244D01*
X435761Y454756D01*
X435412Y453000D01*
X435761Y451244D01*
X436756Y449756D01*
X438244Y448761D01*
X440000Y448412D01*
X441756Y448761D01*
X443141Y449686D01*
X450000D01*
X451268Y449939D01*
X452343Y450657D01*
X453343Y451657D01*
X454061Y452732D01*
X454314Y454000D01*
Y461627D01*
X456053Y463366D01*
X458750D01*
Y462190D01*
X468250D01*
Y471190D01*
D02*
G37*
G36*
X552200Y648353D02*
X550152Y647945D01*
X548415Y646785D01*
X547255Y645048D01*
X546847Y643000D01*
X547255Y640952D01*
X548415Y639215D01*
X550152Y638055D01*
X552200Y637647D01*
X554248Y638055D01*
X555985Y639215D01*
X557145Y640952D01*
X557553Y643000D01*
X557145Y645048D01*
X555985Y646785D01*
X554248Y647945D01*
X552200Y648353D01*
D02*
G37*
G36*
X420000Y616060D02*
X420000Y616060D01*
X418030Y616060D01*
X417735Y616001D01*
X417433D01*
X413569Y615232D01*
X413291Y615117D01*
X412996Y615058D01*
X409356Y613551D01*
X409105Y613383D01*
X408827Y613268D01*
X405551Y611079D01*
X405338Y610866D01*
X405088Y610699D01*
X402302Y607913D01*
X402135Y607663D01*
X401922Y607450D01*
X399733Y604174D01*
X399618Y603896D01*
X399450Y603645D01*
X397943Y600005D01*
X397884Y599710D01*
X397769Y599432D01*
X397000Y595568D01*
Y595266D01*
X396941Y594971D01*
Y591031D01*
X397000Y590736D01*
Y590434D01*
X397769Y586571D01*
X397884Y586292D01*
X397943Y585997D01*
X399450Y582357D01*
X399618Y582107D01*
X399733Y581828D01*
X401922Y578553D01*
X402135Y578339D01*
X402302Y578089D01*
X405088Y575303D01*
X405338Y575136D01*
X405551Y574923D01*
X408827Y572734D01*
X409105Y572619D01*
X409356Y572451D01*
X412996Y570944D01*
X413291Y570885D01*
X413569Y570770D01*
X417433Y570001D01*
X417735D01*
X418030Y569942D01*
X420000Y569942D01*
X508000D01*
X508000Y569942D01*
X509970Y569942D01*
X510265Y570001D01*
X510566D01*
X514431Y570770D01*
X514709Y570885D01*
X515004Y570944D01*
X518644Y572451D01*
X518895Y572619D01*
X519173Y572734D01*
X522449Y574923D01*
X522662Y575136D01*
X522912Y575303D01*
X525698Y578089D01*
X525865Y578340D01*
X526078Y578553D01*
X528267Y581828D01*
X528382Y582107D01*
X528550Y582357D01*
X530057Y585997D01*
X530116Y586292D01*
X530231Y586571D01*
X531000Y590434D01*
Y590736D01*
X531059Y591031D01*
X531059Y594971D01*
X531000Y595266D01*
Y595568D01*
X530231Y599432D01*
X530116Y599710D01*
X530057Y600005D01*
X528550Y603645D01*
X528382Y603896D01*
X528267Y604174D01*
X526078Y607450D01*
X525865Y607663D01*
X525698Y607913D01*
X522912Y610699D01*
X522662Y610866D01*
X522449Y611079D01*
X519173Y613268D01*
X518895Y613383D01*
X518644Y613551D01*
X515004Y615058D01*
X514709Y615117D01*
X514431Y615232D01*
X510567Y616001D01*
X510265D01*
X509970Y616060D01*
X508000D01*
X420000Y616060D01*
D02*
G37*
G36*
X515000Y801373D02*
X512561Y800887D01*
X510494Y799506D01*
X509113Y797439D01*
X508628Y795000D01*
X509113Y792561D01*
X510494Y790494D01*
X512561Y789113D01*
X515000Y788628D01*
X517439Y789113D01*
X519506Y790494D01*
X520887Y792561D01*
X520967Y792961D01*
X527155D01*
X544961Y775155D01*
Y702000D01*
X545116Y701220D01*
X545558Y700558D01*
X555529Y690587D01*
X555412Y690000D01*
X555761Y688244D01*
X556756Y686756D01*
X558244Y685761D01*
X560000Y685412D01*
X561756Y685761D01*
X563244Y686756D01*
X564239Y688244D01*
X564588Y690000D01*
X564239Y691756D01*
X563244Y693244D01*
X561756Y694239D01*
X560000Y694588D01*
X558244Y694239D01*
X557885Y693999D01*
X549039Y702845D01*
Y707372D01*
X550309Y707515D01*
X550319Y707472D01*
X550549Y706734D01*
X550698Y706317D01*
X551034Y705578D01*
X551268Y705121D01*
X551526Y704689D01*
X551830Y704223D01*
X552076Y703894D01*
X552571Y703290D01*
X552987Y702873D01*
X553376Y702516D01*
X553924Y702046D01*
X554197Y701856D01*
X554628Y701556D01*
X555034Y701317D01*
X555592Y701019D01*
X556020Y700822D01*
X556320Y700706D01*
X556993Y700447D01*
X557394Y700337D01*
X557662Y700278D01*
X558320Y700133D01*
X558945Y700054D01*
X560093Y699992D01*
X560656Y700014D01*
X561003Y700054D01*
X562153Y700235D01*
X562648Y700357D01*
X563248Y700539D01*
X563840Y700765D01*
X564322Y700978D01*
X564965Y701317D01*
X565369Y701556D01*
X565752Y701818D01*
X566299Y702220D01*
X566909Y702775D01*
X567313Y703180D01*
X567720Y703641D01*
X568048Y704051D01*
X568352Y704491D01*
X568612Y704901D01*
X568837Y705296D01*
X569236Y706161D01*
X569406Y706573D01*
X569570Y707106D01*
X569703Y707538D01*
X569828Y708149D01*
X569906Y708618D01*
X569976Y709390D01*
X569999Y710339D01*
X569947Y711056D01*
X569874Y711572D01*
X569786Y712068D01*
X569678Y712562D01*
X569399Y713407D01*
X569200Y713914D01*
X569025Y714318D01*
X568858Y714652D01*
X568639Y715038D01*
X568447Y715375D01*
X568166Y715777D01*
X567758Y716308D01*
X567313Y716812D01*
X566703Y717422D01*
X566108Y717926D01*
X565603Y718280D01*
X565020Y718657D01*
X564483Y718934D01*
X563908Y719206D01*
X563314Y719428D01*
X562889Y719570D01*
X562318Y719724D01*
X561821Y719837D01*
X560931Y719953D01*
X560022Y719999D01*
X559301Y719976D01*
X558533Y719902D01*
X557662Y719724D01*
X557201Y719603D01*
X556582Y719397D01*
X555995Y719167D01*
X555520Y718934D01*
X555143Y718761D01*
X554423Y718301D01*
X554010Y718010D01*
X553674Y717752D01*
X552987Y717126D01*
X552430Y716540D01*
X551830Y715777D01*
X551598Y715407D01*
X551404Y715116D01*
X551152Y714652D01*
X550909Y714170D01*
X550672Y713618D01*
X550521Y713195D01*
X550309Y712458D01*
X549039Y712637D01*
Y776000D01*
X548884Y776780D01*
X548442Y777442D01*
X529442Y796442D01*
X528780Y796884D01*
X528000Y797039D01*
X520967D01*
X520887Y797439D01*
X519506Y799506D01*
X517439Y800887D01*
X515000Y801373D01*
D02*
G37*
G36*
X387000Y707588D02*
X385244Y707239D01*
X383756Y706244D01*
X382761Y704756D01*
X382412Y703000D01*
X382761Y701244D01*
X383756Y699756D01*
X385244Y698761D01*
X387000Y698412D01*
X388756Y698761D01*
X390244Y699756D01*
X391239Y701244D01*
X391588Y703000D01*
X391239Y704756D01*
X390244Y706244D01*
X388756Y707239D01*
X387000Y707588D01*
D02*
G37*
G36*
X271000Y620078D02*
X269439Y619768D01*
X268116Y618884D01*
X267232Y617561D01*
X266922Y616000D01*
X267232Y614439D01*
X268116Y613116D01*
X269439Y612232D01*
X271000Y611922D01*
X272561Y612232D01*
X273884Y613116D01*
X274768Y614439D01*
X275070Y615961D01*
X357929D01*
X358232Y614439D01*
X359116Y613116D01*
X360439Y612232D01*
X362000Y611922D01*
X363561Y612232D01*
X364884Y613116D01*
X365768Y614439D01*
X366078Y616000D01*
X365768Y617561D01*
X364884Y618884D01*
X363561Y619768D01*
X362000Y620078D01*
X360439Y619768D01*
X360197Y619606D01*
X359780Y619884D01*
X359000Y620039D01*
X274000D01*
X273220Y619884D01*
X272803Y619606D01*
X272561Y619768D01*
X271000Y620078D01*
D02*
G37*
G36*
X511000Y559588D02*
X509244Y559239D01*
X507756Y558244D01*
X506761Y556756D01*
X506527Y555579D01*
X505310Y554527D01*
X505000Y554588D01*
X503244Y554239D01*
X501756Y553244D01*
X500761Y551756D01*
X500412Y550000D01*
X500761Y548244D01*
X501756Y546756D01*
X503244Y545761D01*
X505000Y545412D01*
X506471Y545704D01*
X506761Y544244D01*
X507756Y542756D01*
X509244Y541761D01*
X511000Y541412D01*
X512756Y541761D01*
X514244Y542756D01*
X515239Y544244D01*
X515588Y546000D01*
X515239Y547756D01*
X514244Y549244D01*
X513508Y549736D01*
Y551264D01*
X514244Y551756D01*
X515239Y553244D01*
X515588Y555000D01*
X515239Y556756D01*
X514244Y558244D01*
X512756Y559239D01*
X511000Y559588D01*
D02*
G37*
G36*
X195000Y567588D02*
X193244Y567239D01*
X191756Y566244D01*
X190761Y564756D01*
X190412Y563000D01*
X190761Y561244D01*
X191756Y559756D01*
X193244Y558761D01*
X195000Y558412D01*
X196756Y558761D01*
X198244Y559756D01*
X199239Y561244D01*
X199588Y563000D01*
X199239Y564756D01*
X198244Y566244D01*
X196756Y567239D01*
X195000Y567588D01*
D02*
G37*
G36*
X380000Y623078D02*
X378439Y622768D01*
X377116Y621884D01*
X376232Y620561D01*
X375922Y619000D01*
X376232Y617439D01*
X377116Y616116D01*
X377441Y615899D01*
X377553Y614437D01*
X372155Y609039D01*
X285867D01*
X285078Y610000D01*
X284768Y611561D01*
X283884Y612884D01*
X282561Y613768D01*
X281000Y614078D01*
X279439Y613768D01*
X278116Y612884D01*
X277232Y611561D01*
X277121Y611000D01*
X277000D01*
X272039Y606039D01*
X269845D01*
X265880Y610004D01*
X266078Y611000D01*
X265768Y612561D01*
X264884Y613884D01*
X263561Y614768D01*
X262000Y615078D01*
X260439Y614768D01*
X259116Y613884D01*
X258232Y612561D01*
X257922Y611000D01*
X258232Y609439D01*
X259116Y608116D01*
X260439Y607232D01*
X262000Y606922D01*
X262996Y607120D01*
X267558Y602558D01*
X268220Y602116D01*
X269000Y601961D01*
X351929D01*
X352232Y600439D01*
X353116Y599116D01*
X354439Y598232D01*
X356000Y597922D01*
X357561Y598232D01*
X358884Y599116D01*
X359768Y600439D01*
X360078Y602000D01*
X359768Y603561D01*
X359681Y603691D01*
X360360Y604961D01*
X373000D01*
X373780Y605116D01*
X374442Y605558D01*
X381442Y612558D01*
X381884Y613220D01*
X382039Y614000D01*
Y615552D01*
X382884Y616116D01*
X383768Y617439D01*
X384078Y619000D01*
X383768Y620561D01*
X382884Y621884D01*
X381561Y622768D01*
X380000Y623078D01*
D02*
G37*
G36*
X340000Y583588D02*
X338244Y583239D01*
X336756Y582244D01*
X335761Y580756D01*
X335412Y579000D01*
X335515Y578480D01*
X332839Y575804D01*
X281539D01*
X281244Y576244D01*
X279756Y577239D01*
X278000Y577588D01*
X276244Y577239D01*
X274756Y576244D01*
X273761Y574756D01*
X273412Y573000D01*
X273761Y571244D01*
X274756Y569756D01*
X276244Y568761D01*
X278000Y568412D01*
X279756Y568761D01*
X281244Y569756D01*
X281539Y570196D01*
X334000D01*
X335073Y570410D01*
X335983Y571017D01*
X339481Y574515D01*
X340000Y574412D01*
X341756Y574761D01*
X343244Y575756D01*
X344239Y577244D01*
X344588Y579000D01*
X344239Y580756D01*
X343244Y582244D01*
X341756Y583239D01*
X340000Y583588D01*
D02*
G37*
%LPD*%
G36*
X249720Y722291D02*
X249232Y721561D01*
X248922Y720000D01*
X249232Y718439D01*
X250116Y717116D01*
X250326Y716976D01*
X250636Y715250D01*
X250486Y715039D01*
X243000D01*
X242220Y714884D01*
X241558Y714442D01*
X218463Y691346D01*
X217289Y691832D01*
Y722338D01*
X218000Y722922D01*
X219561Y723232D01*
X220884Y724116D01*
X221768Y725439D01*
X222078Y727000D01*
X221768Y728561D01*
X221284Y729284D01*
X226961Y734961D01*
X244793D01*
X249720Y722291D01*
D02*
G37*
D45*
X300000Y556000D02*
D03*
X80000Y500000D02*
D03*
X100000D02*
D03*
X60000Y480000D02*
D03*
Y500000D02*
D03*
X515000Y815000D02*
D03*
X60000Y320000D02*
D03*
X515000Y795000D02*
D03*
X60000Y300000D02*
D03*
Y400000D02*
D03*
Y380000D02*
D03*
Y440000D02*
D03*
Y420000D02*
D03*
Y360000D02*
D03*
Y340000D02*
D03*
Y460000D02*
D03*
X515000Y835000D02*
D03*
X60000Y280000D02*
D03*
X515000Y895000D02*
D03*
Y855000D02*
D03*
Y875000D02*
D03*
X560000Y710000D02*
D03*
X49998Y30000D02*
D03*
Y920000D02*
D03*
X540000Y30000D02*
D03*
D48*
X204000Y576000D02*
X207000Y579000D01*
X203000Y575000D02*
X204000Y576000D01*
X178350Y400000D02*
X179000D01*
X178000D02*
X178350D01*
X177975Y399975D02*
X178000Y400000D01*
X171600Y393600D02*
X177975Y399975D01*
X223250Y747250D02*
Y772000D01*
X221499Y571499D02*
X223250Y573250D01*
X221000Y571000D02*
X221499Y571499D01*
X559500Y689500D02*
X560000Y689000D01*
X547000Y702000D02*
X559500Y689500D01*
X560500Y533500D02*
X561000Y534000D01*
X560000Y533000D02*
X560500Y533500D01*
X462000Y910750D02*
X528250D01*
X60500Y640000D02*
X105000D01*
X57002D02*
X60500D01*
X282500Y866500D02*
X287000Y862000D01*
X439000Y737000D02*
X442000Y734000D01*
X361500Y615500D02*
X362000Y615000D01*
X359000Y618000D02*
X361500Y615500D01*
X442000Y728000D02*
X447000D01*
X458500Y736500D02*
X459000Y736000D01*
X452250Y742750D02*
X458500Y736500D01*
X60500Y670501D02*
X99501D01*
X56501D02*
X60500D01*
X534000Y353000D02*
X537000D01*
X541000Y357000D01*
X378000Y533000D02*
X560000D01*
X371250Y526250D02*
X378000Y533000D01*
X288750Y526250D02*
X371250D01*
X560250Y532250D02*
X561000Y533000D01*
X281000Y546000D02*
X285000Y542000D01*
Y530000D02*
Y542000D01*
Y530000D02*
X288750Y526250D01*
X564000Y518000D02*
X565000Y519000D01*
X562000D02*
X563000Y518000D01*
X463000Y519000D02*
X562000D01*
X454000Y510000D02*
X463000Y519000D01*
X219000Y560000D02*
X223001D01*
X226000Y562999D01*
X226000Y562999D02*
X226000Y562999D01*
X223250Y573250D02*
Y581750D01*
X226000Y562999D02*
X226750Y563750D01*
X229000Y591556D02*
X237250Y583307D01*
X226250Y590417D02*
X234500Y582168D01*
X223500Y589278D02*
X231750Y581029D01*
Y561031D02*
Y581029D01*
X234500Y559892D02*
Y582168D01*
X237250Y558753D02*
Y583307D01*
X223000Y549000D02*
X229499Y555499D01*
X231245Y552749D02*
X237250Y558753D01*
X230749Y552749D02*
X231245D01*
X224000Y546000D02*
X230749Y552749D01*
X230106Y555499D02*
X234500Y559892D01*
X229499Y555499D02*
X230106D01*
X228967Y558249D02*
X231750Y561031D01*
X228360Y558249D02*
X228967D01*
X225111Y555000D02*
X228360Y558249D01*
X226750Y563750D02*
Y582139D01*
X220750Y588139D02*
X226750Y582139D01*
X214000Y569000D02*
Y572716D01*
X210000Y565000D02*
X214000Y569000D01*
X209750Y573750D02*
Y786750D01*
X212500Y574216D02*
X214000Y572716D01*
X212500Y574216D02*
Y782500D01*
X541000Y357000D02*
Y454000D01*
Y494000D01*
X502000Y503000D02*
X532000D01*
X541000Y494000D01*
X281000Y903000D02*
Y907000D01*
X217000Y549000D02*
X223000D01*
X213000Y555000D02*
X225111D01*
X224000Y544000D02*
Y546000D01*
X218000Y587000D02*
X223250Y581750D01*
X203000Y575000D02*
Y577000D01*
X326000Y750000D02*
Y801000D01*
X314750Y816750D02*
X381250D01*
X402750D02*
X434750D01*
X390750D02*
X394250D01*
X401000Y811000D02*
Y815000D01*
X389000Y810000D02*
Y815000D01*
X388000Y809000D02*
X389000Y810000D01*
Y815000D02*
X390750Y816750D01*
X394250D02*
X396000Y815000D01*
X401000Y815000D02*
X402750Y816750D01*
X428000Y869000D02*
Y880000D01*
X422000Y869000D02*
Y880000D01*
X417000Y869000D02*
Y880000D01*
X422000Y869000D02*
X423000Y868000D01*
X428000Y880000D02*
X429000Y881000D01*
X428000Y880000D02*
X428000Y880000D01*
X417000D02*
X418000Y881000D01*
X417000Y880000D02*
X417000Y880000D01*
X445000Y870000D02*
X445000Y870000D01*
X339000Y874000D02*
Y878000D01*
X374000Y872000D02*
Y879000D01*
X369000Y872000D02*
Y879000D01*
X358000Y872000D02*
Y878000D01*
X363000Y872000D02*
Y878000D01*
X348000Y872000D02*
Y878000D01*
X344000Y872000D02*
Y878000D01*
X353000Y872000D02*
Y878000D01*
X339000D02*
X340000Y879000D01*
X406000Y872000D02*
Y879000D01*
X401000Y872000D02*
Y879000D01*
X385000Y872000D02*
Y879000D01*
X380000Y872000D02*
Y879000D01*
X257000Y875000D02*
Y879000D01*
X257000Y868000D02*
X258000Y869000D01*
X257000Y868000D02*
X257000Y868000D01*
Y860000D02*
Y868000D01*
X257000Y875000D02*
X258000Y874000D01*
X262000D01*
X263000Y873000D01*
Y870000D02*
Y873000D01*
X262000Y869000D02*
X263000Y870000D01*
X258000Y869000D02*
X262000D01*
X257000Y860000D02*
X258000Y859000D01*
X261000D01*
X262000Y860000D01*
Y864000D01*
X263000Y865000D01*
X266000D01*
X267000Y864000D01*
Y860000D02*
Y864000D01*
Y860000D02*
X268000Y859000D01*
X271000D01*
X272000Y860000D01*
Y864000D01*
X273000Y865000D01*
X276000D01*
X277000Y864000D01*
Y860000D02*
Y864000D01*
Y860000D02*
X278000Y859000D01*
X285000Y886000D02*
X298000D01*
X285000D02*
X285000D01*
Y881000D02*
X298000D01*
X285000D02*
X285000D01*
X275000Y889000D02*
X277000Y891000D01*
X275000Y881000D02*
Y889000D01*
Y881000D02*
X277000Y879000D01*
Y891000D02*
X298000D01*
X277000Y879000D02*
X278000D01*
X284000Y882000D02*
Y885000D01*
X285000Y886000D01*
X298000D02*
X299000Y887000D01*
Y890000D01*
X298000Y891000D02*
X299000Y890000D01*
X289250Y864750D02*
X450250D01*
X284000Y882000D02*
X285000Y881000D01*
X298000D02*
X299000Y880000D01*
Y877000D02*
Y880000D01*
X298000Y876000D02*
X299000Y877000D01*
X289000Y876000D02*
X298000D01*
X423000Y868000D02*
X427000D01*
X432000Y881000D02*
X433000Y880000D01*
X427000Y868000D02*
X428000Y869000D01*
X429000Y881000D02*
X432000D01*
X295000Y870000D02*
X297000Y868000D01*
X416000D01*
X421000Y881000D02*
X422000Y880000D01*
X416000Y868000D02*
X417000Y869000D01*
X418000Y881000D02*
X421000D01*
X395000Y844000D02*
X396000Y843000D01*
Y834000D02*
Y843000D01*
X395000Y833000D02*
X396000Y834000D01*
X391000Y844000D02*
X395000D01*
X376000Y833000D02*
X395000D01*
X383000Y844000D02*
X384000Y843000D01*
Y840000D02*
X385000Y839000D01*
X384000Y840000D02*
Y843000D01*
X390000D02*
X391000Y844000D01*
X390000Y840000D02*
Y843000D01*
X389000Y839000D02*
X390000Y840000D01*
X385000Y839000D02*
X389000D01*
X362000Y844000D02*
X363000Y843000D01*
X362000Y844000D02*
X362000Y844000D01*
Y848000D01*
X363000Y840000D02*
X364000Y839000D01*
X363000Y840000D02*
Y843000D01*
X373000Y844000D02*
X374000Y843000D01*
Y840000D02*
X375000Y839000D01*
X374000Y840000D02*
Y843000D01*
X369000D02*
X370000Y844000D01*
X369000Y840000D02*
Y843000D01*
X368000Y839000D02*
X369000Y840000D01*
X370000Y844000D02*
X373000D01*
X364000Y839000D02*
X368000D01*
X379000Y843000D02*
X380000Y844000D01*
X379000Y840000D02*
Y843000D01*
X378000Y839000D02*
X379000Y840000D01*
X380000Y844000D02*
X383000D01*
X375000Y839000D02*
X378000D01*
X409000Y849000D02*
X412000Y852000D01*
X406000Y849000D02*
X409000D01*
X362000Y848000D02*
X363000Y849000D01*
X372000Y854000D02*
X373000Y853000D01*
Y850000D02*
X374000Y849000D01*
X373000Y850000D02*
Y853000D01*
X368000D02*
X369000Y854000D01*
X368000Y850000D02*
Y853000D01*
X367000Y849000D02*
X368000Y850000D01*
X369000Y854000D02*
X372000D01*
X363000Y849000D02*
X367000D01*
X383000Y854000D02*
X384000Y853000D01*
Y850000D02*
X385000Y849000D01*
X384000Y850000D02*
Y853000D01*
X379000D02*
X380000Y854000D01*
X379000Y850000D02*
Y853000D01*
X378000Y849000D02*
X379000Y850000D01*
X380000Y854000D02*
X383000D01*
X374000Y849000D02*
X378000D01*
X394000Y854000D02*
X395000Y853000D01*
Y850000D02*
X396000Y849000D01*
X395000Y850000D02*
Y853000D01*
X390000D02*
X391000Y854000D01*
X390000Y850000D02*
Y853000D01*
X389000Y849000D02*
X390000Y850000D01*
X391000Y854000D02*
X394000D01*
X385000Y849000D02*
X389000D01*
X404000Y854000D02*
X405000Y853000D01*
Y850000D02*
X406000Y849000D01*
X405000Y850000D02*
Y853000D01*
X400000D02*
X401000Y854000D01*
X400000Y850000D02*
Y853000D01*
X399000Y849000D02*
X400000Y850000D01*
X401000Y854000D02*
X404000D01*
X396000Y849000D02*
X399000D01*
X334000Y874000D02*
X335000Y873000D01*
X338000D01*
X339000Y874000D01*
X345000Y871000D02*
X347000D01*
X340000Y879000D02*
X343000D01*
X344000Y872000D02*
X345000Y871000D01*
X343000Y879000D02*
X344000Y878000D01*
X407000Y871000D02*
X410000D01*
X397000D02*
X400000D01*
X402000Y880000D02*
X405000D01*
X400000Y871000D02*
X401000Y872000D01*
Y879000D02*
X402000Y880000D01*
X406000Y872000D02*
X407000Y871000D01*
X405000Y880000D02*
X406000Y879000D01*
X386000Y871000D02*
X390000D01*
X391000Y872000D01*
X396000D02*
X397000Y871000D01*
X375000D02*
X379000D01*
X381000Y880000D02*
X384000D01*
X379000Y871000D02*
X380000Y872000D01*
Y879000D02*
X381000Y880000D01*
X385000Y872000D02*
X386000Y871000D01*
X384000Y880000D02*
X385000Y879000D01*
X364000Y871000D02*
X368000D01*
X370000Y880000D02*
X373000D01*
X368000Y871000D02*
X369000Y872000D01*
Y879000D02*
X370000Y880000D01*
X374000Y872000D02*
X375000Y871000D01*
X373000Y880000D02*
X374000Y879000D01*
X354000Y871000D02*
X357000D01*
X349000Y879000D02*
X352000D01*
X347000Y871000D02*
X348000Y872000D01*
Y878000D02*
X349000Y879000D01*
X353000Y872000D02*
X354000Y871000D01*
X352000Y879000D02*
X353000Y878000D01*
X362000Y879000D02*
X363000Y878000D01*
Y872000D02*
X364000Y871000D01*
X358000Y878000D02*
X359000Y879000D01*
X357000Y871000D02*
X358000Y872000D01*
X359000Y879000D02*
X362000D01*
X444000Y870000D02*
X445000D01*
X450250Y864750D02*
X451000Y864000D01*
X411000Y872000D02*
Y873000D01*
X410000Y871000D02*
X411000Y872000D01*
X464000Y860000D02*
Y865000D01*
X426250Y822250D02*
X464000Y860000D01*
X312472Y822250D02*
X426250D01*
X278000Y859000D02*
X412000D01*
X527000Y724000D02*
X530000Y721000D01*
X440000Y724000D02*
X527000D01*
X432500Y731500D02*
X440000Y724000D01*
X538000Y896000D02*
Y901000D01*
X452000Y834000D02*
Y836000D01*
X473000Y864000D02*
Y866000D01*
X446000Y740000D02*
X456000Y730000D01*
X463000D01*
X435750Y734250D02*
X442000Y728000D01*
X429000Y852000D02*
Y853000D01*
X412000Y859000D02*
X422000Y849000D01*
X420000Y862000D02*
X429000Y853000D01*
X434750Y816750D02*
X452000Y834000D01*
X430000Y821000D02*
X473000Y864000D01*
X428500Y819500D02*
X430000Y821000D01*
Y821000D01*
X352000Y757000D02*
X409000Y814000D01*
X333250Y742750D02*
X452250D01*
X378000Y753000D02*
X436250Y811250D01*
X337000Y757000D02*
X352000D01*
X425000Y825000D02*
X457000Y857000D01*
X313611Y819500D02*
X428500D01*
X311333Y825000D02*
X425000D01*
X251333Y765000D02*
X311333Y825000D01*
X239000Y760000D02*
X250222D01*
X312472Y822250D01*
X228000Y763000D02*
X230000Y765000D01*
X251333D01*
X247000Y753000D02*
X247111D01*
X313611Y819500D01*
X326000Y750000D02*
X333250Y742750D01*
X287000Y862000D02*
X420000D01*
X457000Y870000D02*
X474000Y887000D01*
X457000Y857000D02*
Y870000D01*
X454000Y504000D02*
Y510000D01*
X223000Y747000D02*
X230000Y740000D01*
X223000Y747000D02*
Y772000D01*
X230000Y740000D02*
X446000D01*
X218000Y738000D02*
X219000Y737000D01*
X439000D01*
X259000Y752000D02*
Y761000D01*
X314750Y816750D01*
X215250Y724250D02*
X218000Y727000D01*
X273500Y731500D02*
X432500D01*
X276251Y698250D02*
X276999Y698999D01*
X538000Y862000D02*
X539000Y861000D01*
X538000Y862000D02*
Y896000D01*
X391000Y872000D02*
Y879000D01*
X392000Y880000D01*
X395000D01*
X396000Y879000D01*
Y872000D02*
Y879000D01*
X212500Y782500D02*
X223000Y793000D01*
X209750Y786750D02*
X223000Y800000D01*
X224000D01*
X207000Y790000D02*
X223000Y806000D01*
X207000Y579000D02*
Y790000D01*
X223000Y806000D02*
X228000D01*
X262000Y611000D02*
X269000Y604000D01*
X281000Y610000D02*
X284000Y607000D01*
X373000D01*
X354000Y604000D02*
X356000Y602000D01*
X269000Y604000D02*
X354000D01*
X373000Y607000D02*
X380000Y614000D01*
Y619000D01*
X479000Y898000D02*
Y899000D01*
X437857Y811250D02*
X484000Y857393D01*
X409000Y814000D02*
X436717D01*
X479000Y856283D01*
Y898000D01*
X436250Y811250D02*
X437857D01*
X484000Y857393D02*
Y906000D01*
X422000Y848000D02*
Y849000D01*
X257000Y879000D02*
X259000Y881000D01*
X265000D01*
X267000Y879000D01*
X287000Y867000D02*
X289250Y864750D01*
X287000Y867000D02*
Y874000D01*
X289000Y876000D01*
X396000Y811000D02*
Y815000D01*
Y811000D02*
X397000Y810000D01*
X400000D01*
X401000Y811000D01*
X381250Y816750D02*
X382000Y816000D01*
Y810000D02*
Y816000D01*
Y810000D02*
X383000Y809000D01*
X388000D01*
X438000Y871000D02*
X439000Y872000D01*
X433000Y872000D02*
Y880000D01*
Y872000D02*
X434000Y871000D01*
X438000D01*
X439000Y872000D02*
Y879000D01*
X440000Y880000D01*
X444000D01*
X445000Y879000D01*
Y870000D02*
Y879000D01*
X330000Y903000D02*
Y904000D01*
X74250Y863750D02*
X76000Y862000D01*
X277000Y911000D02*
X281000Y907000D01*
X320250Y913750D02*
X330000Y904000D01*
X333500Y916500D02*
X347500Y902500D01*
X390750Y919250D02*
X410000Y900000D01*
X203000Y840000D02*
X223000D01*
X148000Y895000D02*
X203000Y840000D01*
X206111Y833000D02*
X222000D01*
X146861Y892250D02*
X206111Y833000D01*
X74250Y872524D02*
X120976Y919250D01*
X79000Y873385D02*
X122115Y916500D01*
X86000Y876496D02*
X123254Y913750D01*
X91000Y877607D02*
X124393Y911000D01*
X96000Y874000D02*
Y878717D01*
X112282Y895000D01*
X148000D01*
X91000Y868000D02*
Y877607D01*
X124393Y911000D02*
X277000D01*
X86000Y873000D02*
Y876496D01*
X123254Y913750D02*
X320250D01*
X79000Y870000D02*
Y873385D01*
X122115Y916500D02*
X333500D01*
X74250Y863750D02*
Y872524D01*
X120976Y919250D02*
X390750D01*
X104000Y882000D02*
X114250Y892250D01*
X146861D01*
X104000Y877000D02*
Y878000D01*
Y882000D01*
X547000Y702000D02*
Y776000D01*
X516000Y795000D02*
X528000D01*
X547000Y776000D01*
X215250Y580750D02*
Y724250D01*
Y580750D02*
X218000Y578000D01*
X528250Y910750D02*
X538000Y901000D01*
X258000Y725000D02*
X260000D01*
X269250Y734250D01*
X435750D01*
X253000Y720000D02*
X262000D01*
X273500Y731500D01*
X218000Y587000D02*
Y688000D01*
X243000Y713000D01*
X261000D01*
X220750Y588139D02*
Y686861D01*
X241889Y708000D01*
X266000D01*
X223500Y589278D02*
Y685722D01*
X240778Y703000D01*
X271000D01*
X226250Y590417D02*
Y684583D01*
X239917Y698250D01*
X276251D01*
X229000Y591556D02*
Y683444D01*
X239556Y694000D01*
X282000D01*
X272000Y616000D02*
X274000Y618000D01*
X359000D01*
X347000Y849000D02*
Y851000D01*
X351071Y848000D02*
X355000D01*
X284007Y845250D02*
X343250D01*
X347000Y849000D01*
X261007Y822250D02*
X284007Y845250D01*
X211250Y822250D02*
X261007D01*
X181750Y792750D02*
X211250Y822250D01*
X181750Y668250D02*
X183000Y667000D01*
X181750Y668250D02*
Y792750D01*
X188500Y651500D02*
Y668571D01*
X183000Y646000D02*
X188500Y651500D01*
X60000Y440000D02*
X94000Y406000D01*
X159000D01*
X165000Y412000D01*
X60000Y420000D02*
X76111D01*
X92861Y403250D01*
X161750D01*
X165000Y400000D01*
X60000Y360000D02*
Y369000D01*
X91250Y400250D01*
X156515D01*
X163165Y393600D01*
X171600D01*
X105000Y640000D02*
X112000Y633000D01*
X316499Y49191D02*
X318000D01*
X344071Y841000D02*
X351071Y848000D01*
X286000Y841000D02*
X344071D01*
X263000Y818000D02*
X286000Y841000D01*
X213000Y818000D02*
X263000D01*
X185750Y671321D02*
Y790750D01*
Y671321D02*
X188500Y668571D01*
X185750Y790750D02*
X213000Y818000D01*
X99501Y670501D02*
X110000Y681000D01*
X112000D01*
D49*
X189500Y531500D02*
X198000Y523000D01*
X177000Y544000D02*
X189500Y531500D01*
X173000Y510000D02*
X174000Y509000D01*
X172000Y511000D02*
X173000Y510000D01*
X510000Y900000D02*
X515000Y895000D01*
X510000Y901000D02*
Y902000D01*
Y900000D02*
Y901000D01*
X458000Y492000D02*
X460000Y490000D01*
X403142Y492000D02*
X458000D01*
X372142Y523000D02*
X403142Y492000D01*
X125000Y678000D02*
X129000D01*
X113500Y689500D02*
X125000Y678000D01*
X146000Y880000D02*
X164000Y862000D01*
X51000Y743000D02*
Y762000D01*
X100000Y500000D02*
Y502000D01*
X109000Y511000D01*
X164000Y787000D02*
X177000Y774000D01*
X164000Y787000D02*
Y862000D01*
X103000Y691000D02*
X113000D01*
X51000Y743000D02*
X103000Y691000D01*
X109000Y511000D02*
X172000D01*
X198000Y523000D02*
X372142D01*
X177000Y544000D02*
Y774000D01*
X401002Y14000D02*
Y23997D01*
X406000Y18998D01*
X399336D01*
D50*
X515000Y815000D02*
X543000D01*
X547000Y819000D01*
X44000Y500000D02*
X60000D01*
D51*
X60500Y646000D02*
X71000D01*
X57002D02*
X60500D01*
X72000Y647000D02*
X124000D01*
X71000Y646000D02*
X72000Y647000D01*
X61501Y655499D02*
X70499D01*
X71000Y656000D01*
X69000Y662000D02*
X74000D01*
X61501Y660501D02*
X67501D01*
X69000Y662000D01*
X80000Y650250D02*
X111000D01*
X65750D02*
X80000D01*
X61501Y650501D02*
X65499D01*
X129500Y642500D02*
X130000Y642000D01*
X125500Y645500D02*
X129000Y642000D01*
X124000Y647000D02*
X125500Y645500D01*
X80000Y500000D02*
Y535000D01*
X125000Y661000D02*
X130000D01*
X124000Y660000D02*
X125000Y661000D01*
X122250Y650250D02*
X124000Y652000D01*
X119750Y650250D02*
X122250D01*
X119000Y651000D02*
Y660000D01*
X118000Y661000D02*
X119000Y660000D01*
X114000Y661000D02*
X118000D01*
X113000Y660000D02*
X114000Y661000D01*
X113000Y652250D02*
Y660000D01*
X124000Y652000D02*
Y660000D01*
X119000Y651000D02*
X119750Y650250D01*
X111000D02*
X113000Y652250D01*
X65499Y650501D02*
X65750Y650250D01*
X77000Y653250D02*
Y659000D01*
Y653250D02*
X80000Y650250D01*
X74000Y662000D02*
X77000Y659000D01*
X51997Y690100D02*
G03*
X51000Y700000I-997J4900D01*
G01*
Y606000D02*
G03*
X52039Y615891I0J5000D01*
G01*
X2001Y743001D02*
G03*
X22001Y763001I0J20000D01*
G01*
X52000Y946000D02*
G03*
X22001Y916000I0J-30000D01*
G01*
X577999Y893000D02*
G03*
X524999Y946000I-53000J0D01*
G01*
Y-10000D02*
G03*
X577999Y43000I0J53000D01*
G01*
X22001D02*
G03*
X75000Y-10000I53000J0D01*
G01*
X22001Y503001D02*
G03*
X2001Y523001I-20000J0D01*
G01*
X75000Y-10000D02*
X524999D01*
X22001Y43000D02*
Y503001D01*
X-5000Y523001D02*
X2001D01*
X-5000Y743001D02*
X2000D01*
X22001Y763001D02*
Y916000D01*
X52000Y946000D02*
X524999D01*
X577999Y43000D02*
Y893000D01*
X-5001Y700001D02*
Y743001D01*
X-5000Y700000D02*
X51000D01*
X52000Y615900D02*
Y690100D01*
X-5001Y523001D02*
Y605801D01*
X51000D01*
D52*
X142000Y597000D02*
Y732000D01*
Y595000D02*
Y597000D01*
X104000Y759000D02*
X115000D01*
X100000D02*
X104000D01*
X500000Y376000D02*
X506000D01*
X450000D02*
X500000D01*
X427000Y399000D02*
X450000Y376000D01*
X411500Y414500D02*
X427000Y399000D01*
X408000Y418000D02*
X411500Y414500D01*
X113000Y782000D02*
X128000D01*
X110000D02*
X113000D01*
X408000Y418000D02*
Y473000D01*
X161000Y537000D02*
X166000Y542000D01*
X115000Y759000D02*
X142000Y732000D01*
X128000Y782000D02*
X167000Y743000D01*
X368000Y513000D02*
X408000Y473000D01*
X66000Y537000D02*
X161000D01*
X193858Y513000D02*
X368000D01*
X167000Y539858D02*
X193858Y513000D01*
X167000Y539858D02*
Y743000D01*
D54*
X454680Y466680D02*
X463500D01*
X150000Y453194D02*
X260000D01*
X136500Y438250D02*
X145250D01*
X260000Y453000D02*
Y453194D01*
X145250Y438250D02*
X148000Y441000D01*
Y450000D01*
X151000Y453000D01*
X273000Y440000D02*
X282000D01*
X284000Y429000D02*
X327000D01*
X331000Y433000D01*
Y448000D01*
X260000Y453000D02*
X273000Y440000D01*
X284000Y429000D01*
X332000Y449000D02*
X336194Y453194D01*
X380806D01*
X331000Y448000D02*
X332000Y449000D01*
X451000Y463000D02*
X454680Y466680D01*
X451000Y454000D02*
Y463000D01*
X450000Y453000D02*
X451000Y454000D01*
X440000Y453000D02*
X450000D01*
D55*
X332000Y270000D02*
X341000Y279000D01*
X316500Y309250D02*
X333750D01*
X136500Y465750D02*
X142750D01*
X136000Y336690D02*
Y343000D01*
Y336000D02*
Y336690D01*
X457180Y439180D02*
X463500D01*
X458250Y309250D02*
X462500D01*
X463499Y77000D02*
X464000D01*
X455000D02*
X463499D01*
X337500Y350500D02*
X351250Y336750D01*
X337000Y351000D02*
X337500Y350500D01*
X351250Y336750D02*
X462500D01*
X316500Y336750D02*
X322750D01*
X136500Y309250D02*
X143250D01*
X351000Y62194D02*
X439000D01*
X333194D02*
X351000D01*
X463499Y49000D02*
X465000D01*
X341999Y192180D02*
X449000Y192000D01*
X333210Y192194D02*
X341999Y192180D01*
X525000Y287000D02*
Y389000D01*
X508000Y270000D02*
X525000Y287000D01*
X278000Y573000D02*
X334000D01*
X340000Y579000D01*
X136000Y343000D02*
X143000Y350000D01*
X200000D01*
X143250Y309250D02*
X146000Y312000D01*
Y319000D01*
X151000Y324000D01*
X332000Y229000D02*
Y270000D01*
X340000Y280000D02*
X341000Y279000D01*
X455000Y306000D02*
X458250Y309250D01*
X455000Y277000D02*
Y306000D01*
X448000Y270000D02*
X455000Y277000D01*
X343000Y270000D02*
X448000D01*
X508000D01*
X452000Y111000D02*
X525000Y184000D01*
X331000Y213000D02*
Y227000D01*
X318000Y208000D02*
X319000Y207000D01*
X325000D01*
X331000Y213000D01*
X328000Y193000D02*
X342000D01*
X324000Y189000D02*
X328000Y193000D01*
X323000Y180000D02*
X324000Y181000D01*
X318000Y180000D02*
X323000D01*
X137000Y218000D02*
X141000Y222000D01*
X200000D01*
X137000Y207000D02*
Y218000D01*
Y179000D02*
X143000D01*
X324000Y173000D02*
Y181000D01*
Y189000D01*
X136500Y76691D02*
Y85500D01*
X141000Y90000D01*
X200000D01*
X316499Y76691D02*
X322691D01*
X331000Y85000D01*
Y100000D01*
X328000Y57000D02*
X333194Y62194D01*
X137000Y49000D02*
X161000D01*
X318000D02*
X324000D01*
X328000Y46000D02*
Y53000D01*
Y57000D01*
X324000Y49000D02*
X328000Y53000D01*
X456809Y49191D02*
X463499D01*
X444000Y62000D02*
X456809Y49191D01*
X439000Y62000D02*
X444000D01*
X452000Y80000D02*
Y111000D01*
Y80000D02*
X455000Y77000D01*
X337000Y351000D02*
X338000D01*
X151000Y324000D02*
X271000D01*
X275000Y328000D01*
Y344000D01*
X282000Y351000D01*
X333750Y309250D02*
X340000Y303000D01*
Y280000D02*
Y303000D01*
X326000Y340000D02*
Y348000D01*
X322750Y336750D02*
X326000Y340000D01*
X329000Y351000D02*
X337000D01*
X282000D02*
X329000D01*
X326000Y348000D02*
X329000Y351000D01*
X142750Y465750D02*
X153000Y476000D01*
X196000D01*
X197000Y475000D01*
X208000Y474000D02*
X220000Y462000D01*
X267000D01*
X272000Y467000D01*
X283000D01*
X455000Y437000D02*
X457180Y439180D01*
X455000Y414000D02*
Y437000D01*
Y414000D02*
X461000Y408000D01*
X455810Y179190D02*
X463701D01*
X453000Y182000D02*
X455810Y179190D01*
X453000Y182000D02*
Y188000D01*
X449000Y192000D02*
X453000Y188000D01*
X496701Y206690D02*
X516690D01*
X525000Y215000D01*
Y184000D02*
Y215000D01*
Y287000D01*
X506000Y408000D02*
X525000Y389000D01*
X461000Y408000D02*
X506000D01*
X143000Y179000D02*
X158000Y164000D01*
X315000D01*
X324000Y173000D01*
X161000Y49000D02*
X178000Y32000D01*
X314000D01*
X328000Y46000D01*
D75*
X15999Y593800D02*
G03*
X18999Y596800I0J3000D01*
G01*
D02*
G03*
X15999Y599800I-3000J0D01*
G01*
X4001D02*
G03*
X1001Y596800I0J-3000D01*
G01*
D02*
G03*
X4001Y593800I3000J0D01*
G01*
X54000Y706200D02*
G03*
X57000Y709200I0J3000D01*
G01*
D02*
G03*
X54000Y712200I-3000J0D01*
G01*
X45999D02*
G03*
X43000Y709200I0J-3000D01*
G01*
D02*
G03*
X45999Y706200I3000J0D01*
G01*
X54000Y593800D02*
G03*
X57000Y596800I0J3000D01*
G01*
D02*
G03*
X54000Y599800I-3000J0D01*
G01*
X45999D02*
G03*
X43000Y596800I0J-3000D01*
G01*
D02*
G03*
X45999Y593800I3000J0D01*
G01*
X15999Y706200D02*
G03*
X18999Y709200I0J3000D01*
G01*
D02*
G03*
X15999Y712200I-3000J0D01*
G01*
X4001D02*
G03*
X1001Y709200I0J-3000D01*
G01*
D02*
G03*
X4001Y706200I3000J0D01*
G01*
Y599800D02*
X15999D01*
X4001Y593800D02*
X15999D01*
X45999Y712200D02*
X54000D01*
X45999Y706200D02*
X54000D01*
X45999Y599800D02*
X54000D01*
X45999Y593800D02*
X54000D01*
X4001Y712200D02*
X15999D01*
X4001Y706200D02*
X15999D01*
D76*
X10000Y596800D02*
D03*
Y709200D02*
D03*
D77*
X50000D02*
D03*
Y596800D02*
D03*
D78*
X389970Y128600D02*
D03*
X174970D02*
D03*
D79*
X22000Y492000D02*
D03*
Y484000D02*
D03*
Y476000D02*
D03*
Y468000D02*
D03*
X577000D02*
D03*
Y476000D02*
D03*
Y484000D02*
D03*
Y492000D02*
D03*
D80*
X182160Y374200D02*
D03*
X161840D02*
D03*
X172000Y425000D02*
D03*
D81*
X456000Y706000D02*
D03*
X467000Y416000D02*
D03*
X145000Y483000D02*
D03*
X143000Y357000D02*
D03*
X519000Y335000D02*
D03*
X333000Y284000D02*
D03*
X339000Y216000D02*
D03*
X318000Y230000D02*
D03*
X141000Y101000D02*
D03*
X534000Y353000D02*
D03*
X311000Y365000D02*
D03*
X192000Y409000D02*
D03*
X208000Y378000D02*
D03*
X284000Y579000D02*
D03*
X497000Y100000D02*
D03*
X398000Y232000D02*
D03*
X384000Y373000D02*
D03*
X440000Y453000D02*
D03*
X385000Y520000D02*
D03*
X550000Y527000D02*
D03*
X243000Y559000D02*
D03*
X343000Y270000D02*
D03*
X338000Y351000D02*
D03*
X198000Y475000D02*
D03*
X331000Y227000D02*
D03*
Y100000D02*
D03*
X158000Y469000D02*
D03*
X359000Y345000D02*
D03*
X100000Y488000D02*
D03*
X541000Y454000D02*
D03*
X75000Y394000D02*
D03*
X106000Y374000D02*
D03*
X512000Y765000D02*
D03*
X340000Y380000D02*
D03*
X439000Y140000D02*
D03*
X403000Y105000D02*
D03*
X372000Y74000D02*
D03*
X337000Y81000D02*
D03*
X340000Y50000D02*
D03*
X415000D02*
D03*
X436000Y72000D02*
D03*
X535000Y180000D02*
D03*
X570000Y350000D02*
D03*
X534000Y334000D02*
D03*
X535000Y275000D02*
D03*
Y225000D02*
D03*
X521000Y84000D02*
D03*
X512000Y128000D02*
D03*
X515000Y160000D02*
D03*
X516000Y218000D02*
D03*
X517000Y267000D02*
D03*
X498000Y229000D02*
D03*
X436000Y183000D02*
D03*
Y200000D02*
D03*
X362000Y181000D02*
D03*
X339000Y180000D02*
D03*
X363000Y199000D02*
D03*
X341000Y260000D02*
D03*
X365000Y258000D02*
D03*
X400000Y295000D02*
D03*
X260000Y453000D02*
D03*
X218000Y578000D02*
D03*
X302000Y274000D02*
D03*
X240000Y260000D02*
D03*
X260000Y210000D02*
D03*
Y180000D02*
D03*
X240000Y130000D02*
D03*
X317000Y155000D02*
D03*
X319000Y99000D02*
D03*
X210000Y50000D02*
D03*
X260000Y75000D02*
D03*
X158000Y82000D02*
D03*
X140000Y140000D02*
D03*
X189000Y100000D02*
D03*
X80000Y50000D02*
D03*
Y111000D02*
D03*
Y160000D02*
D03*
X190000Y180000D02*
D03*
X165000Y205000D02*
D03*
X190000Y230000D02*
D03*
X120000Y240000D02*
D03*
X80000Y210000D02*
D03*
Y270000D02*
D03*
Y320000D02*
D03*
X118000Y503000D02*
D03*
X184000Y442000D02*
D03*
X190000Y310000D02*
D03*
X210000D02*
D03*
X260000D02*
D03*
X265000Y340000D02*
D03*
X147000Y342000D02*
D03*
X210000Y334000D02*
D03*
X240000Y415000D02*
D03*
X212000Y432000D02*
D03*
X270000Y400000D02*
D03*
X502000Y503000D02*
D03*
X549000Y486000D02*
D03*
X550000Y424000D02*
D03*
X517000Y348000D02*
D03*
X508000Y283000D02*
D03*
X465000Y278000D02*
D03*
X436000Y257000D02*
D03*
X439000Y314000D02*
D03*
X360000Y279000D02*
D03*
X359000Y328000D02*
D03*
X439000Y330000D02*
D03*
X426000Y360000D02*
D03*
X411000Y392000D02*
D03*
X310000Y410000D02*
D03*
X341000Y445000D02*
D03*
X394000Y423000D02*
D03*
X436000Y444000D02*
D03*
X356000Y440000D02*
D03*
X410000Y560000D02*
D03*
X445000Y500000D02*
D03*
X407000D02*
D03*
X418000Y485000D02*
D03*
X435000Y465000D02*
D03*
X446000Y485000D02*
D03*
X393000Y462000D02*
D03*
X357000Y500000D02*
D03*
X340000D02*
D03*
X290000D02*
D03*
X260000Y470000D02*
D03*
X241000Y500000D02*
D03*
X201000Y590000D02*
D03*
X241000Y531000D02*
D03*
X277000Y530000D02*
D03*
X323000Y537000D02*
D03*
X365000Y532000D02*
D03*
X371000Y640000D02*
D03*
X527000Y632000D02*
D03*
X460000Y630000D02*
D03*
X387000Y655000D02*
D03*
X386000Y693000D02*
D03*
X414000Y644000D02*
D03*
X470000Y670000D02*
D03*
X530000Y680000D02*
D03*
X570000Y730000D02*
D03*
Y830000D02*
D03*
Y780000D02*
D03*
Y880000D02*
D03*
Y550000D02*
D03*
Y600000D02*
D03*
Y680000D02*
D03*
X522000Y452000D02*
D03*
X570000Y450000D02*
D03*
Y400000D02*
D03*
Y505000D02*
D03*
Y150000D02*
D03*
Y250000D02*
D03*
Y200000D02*
D03*
Y300000D02*
D03*
X540000Y0D02*
D03*
X570000Y50000D02*
D03*
X560000Y20000D02*
D03*
X570000Y100000D02*
D03*
X340000Y0D02*
D03*
X440000Y4000D02*
D03*
X390000Y0D02*
D03*
X490000D02*
D03*
X290000D02*
D03*
X190000D02*
D03*
X240000D02*
D03*
X140000Y3000D02*
D03*
X90000Y0D02*
D03*
X54000Y4000D02*
D03*
X32000Y40000D02*
D03*
X30000Y90000D02*
D03*
Y140000D02*
D03*
Y190000D02*
D03*
Y240000D02*
D03*
Y290000D02*
D03*
Y330000D02*
D03*
Y405000D02*
D03*
X26000Y522000D02*
D03*
X69000D02*
D03*
Y551000D02*
D03*
X70000Y580000D02*
D03*
X24000Y552000D02*
D03*
X40000Y470000D02*
D03*
X114000Y520000D02*
D03*
X145000D02*
D03*
X166000D02*
D03*
X130000Y566000D02*
D03*
X154000D02*
D03*
X111000D02*
D03*
X112000Y607000D02*
D03*
X137000Y826000D02*
D03*
X70000Y846000D02*
D03*
X136000Y866000D02*
D03*
X4000Y730000D02*
D03*
X24000Y744000D02*
D03*
X33000Y810000D02*
D03*
Y860000D02*
D03*
Y910000D02*
D03*
X60000Y937000D02*
D03*
X94000Y939000D02*
D03*
X145000Y938000D02*
D03*
X210000Y937000D02*
D03*
X260000D02*
D03*
X305000D02*
D03*
X360000D02*
D03*
X530000Y917000D02*
D03*
X434000Y916000D02*
D03*
X403000Y917000D02*
D03*
X435000Y938000D02*
D03*
X454000Y880000D02*
D03*
X414000Y888000D02*
D03*
X394000Y887000D02*
D03*
X313000Y874000D02*
D03*
X267000Y904000D02*
D03*
X246000Y877000D02*
D03*
X259000Y851000D02*
D03*
X294000Y852000D02*
D03*
X320000D02*
D03*
X339000Y833000D02*
D03*
X317000D02*
D03*
X283000Y806000D02*
D03*
X249000Y774000D02*
D03*
X231000Y771000D02*
D03*
X296000Y788000D02*
D03*
X317000Y810000D02*
D03*
X274000Y760000D02*
D03*
X267000Y748000D02*
D03*
X434000Y774000D02*
D03*
X396000Y752000D02*
D03*
X534000Y370000D02*
D03*
Y361000D02*
D03*
Y379000D02*
D03*
X508000D02*
D03*
X546000Y874000D02*
D03*
X482000Y916000D02*
D03*
X511000Y917000D02*
D03*
X530000Y889000D02*
D03*
X522000Y865000D02*
D03*
X508000Y859000D02*
D03*
Y842000D02*
D03*
Y851000D02*
D03*
X559000Y844000D02*
D03*
X567000Y900000D02*
D03*
X548000Y819000D02*
D03*
X66000Y537000D02*
D03*
X152000Y778000D02*
D03*
X67000Y827000D02*
D03*
X107000Y781000D02*
D03*
X113000Y787000D02*
D03*
Y776000D02*
D03*
X95000Y756000D02*
D03*
X110000Y720000D02*
D03*
X105000Y733000D02*
D03*
X100000Y746000D02*
D03*
X110000D02*
D03*
X232000Y723000D02*
D03*
X237000Y748000D02*
D03*
X360000Y725000D02*
D03*
Y708000D02*
D03*
X341000Y720000D02*
D03*
X360000Y680000D02*
D03*
X314000D02*
D03*
X337000Y671000D02*
D03*
X345000Y625000D02*
D03*
X367000Y655000D02*
D03*
X221000Y699000D02*
D03*
X200000Y693000D02*
D03*
X547000Y912000D02*
D03*
X510000Y937000D02*
D03*
X540000Y935000D02*
D03*
X468000Y754000D02*
D03*
X457000D02*
D03*
X430000Y718000D02*
D03*
X492000Y706000D02*
D03*
X500000Y717000D02*
D03*
X502000Y745000D02*
D03*
X515000Y754000D02*
D03*
X516000Y776000D02*
D03*
X383000Y766000D02*
D03*
X434000Y748000D02*
D03*
X526000Y736000D02*
D03*
X66000Y677000D02*
D03*
Y629000D02*
D03*
X74000D02*
D03*
X148000Y745000D02*
D03*
X105000Y703000D02*
D03*
X122000Y631000D02*
D03*
X33000Y780000D02*
D03*
X51000Y779000D02*
D03*
Y762000D02*
D03*
X430000Y402000D02*
D03*
X409000Y412000D02*
D03*
X451000Y398000D02*
D03*
X469000D02*
D03*
X453000Y356000D02*
D03*
X496000Y362000D02*
D03*
X504000Y390000D02*
D03*
X533000Y408000D02*
D03*
X500000Y379000D02*
D03*
X548000Y365000D02*
D03*
X501000Y415000D02*
D03*
X522000Y472000D02*
D03*
X491000Y502000D02*
D03*
X468000Y506000D02*
D03*
X469000Y527000D02*
D03*
X468000Y545000D02*
D03*
X528000Y565000D02*
D03*
X510000Y564000D02*
D03*
X490000D02*
D03*
X550000Y550000D02*
D03*
X511000Y555000D02*
D03*
Y546000D02*
D03*
X505000Y550000D02*
D03*
X537000Y513000D02*
D03*
X511000D02*
D03*
X177000Y851000D02*
D03*
X185000Y839000D02*
D03*
X197000Y830000D02*
D03*
X196000Y816000D02*
D03*
X178000Y808000D02*
D03*
X199000Y781000D02*
D03*
X193000Y752000D02*
D03*
X175000Y789000D02*
D03*
X197000Y793000D02*
D03*
X460000Y490000D02*
D03*
X211000Y890000D02*
D03*
X224000Y903000D02*
D03*
X342000Y749000D02*
D03*
X348000Y710000D02*
D03*
X296000Y718000D02*
D03*
X233000Y877000D02*
D03*
X257000Y688000D02*
D03*
X200000Y674000D02*
D03*
X300000Y580000D02*
D03*
X359000Y588000D02*
D03*
X326000Y635000D02*
D03*
X316000Y594000D02*
D03*
X241000Y591000D02*
D03*
X295000Y626000D02*
D03*
X250000Y620000D02*
D03*
X186000Y590000D02*
D03*
X154000Y621000D02*
D03*
X155000Y580000D02*
D03*
X184000Y636000D02*
D03*
X155000Y668000D02*
D03*
Y652000D02*
D03*
X183000Y658000D02*
D03*
X155000Y693000D02*
D03*
X191000Y714000D02*
D03*
X106000Y795000D02*
D03*
X139000Y809000D02*
D03*
X70000Y785000D02*
D03*
X129000Y678000D02*
D03*
X79000Y745000D02*
D03*
X98000Y821000D02*
D03*
X152000Y845000D02*
D03*
X100000Y720000D02*
D03*
X244000Y688000D02*
D03*
X245000Y722000D02*
D03*
X236000Y676000D02*
D03*
X200000Y350000D02*
D03*
Y222000D02*
D03*
Y90000D02*
D03*
X428000Y426000D02*
D03*
X381000Y453000D02*
D03*
X351000Y63000D02*
D03*
X146000Y880000D02*
D03*
X171000Y930000D02*
D03*
X193000Y858000D02*
D03*
X256000Y828000D02*
D03*
X387000Y703000D02*
D03*
X183000Y900000D02*
D03*
X410000D02*
D03*
X374000Y893000D02*
D03*
X74000Y677000D02*
D03*
X113000Y691000D02*
D03*
X100000Y763000D02*
D03*
X104000Y755000D02*
D03*
X470000Y902000D02*
D03*
X428000Y901000D02*
D03*
X60000Y440000D02*
D03*
Y420000D02*
D03*
Y400000D02*
D03*
Y380000D02*
D03*
Y360000D02*
D03*
Y460000D02*
D03*
X74000Y448000D02*
D03*
X70000Y495000D02*
D03*
X355000Y907000D02*
D03*
X292000Y533000D02*
D03*
X371000Y616000D02*
D03*
X340000Y579000D02*
D03*
X278000Y573000D02*
D03*
X404000Y620000D02*
D03*
X504000Y895000D02*
D03*
X510000Y875000D02*
D03*
X30000Y370000D02*
D03*
X182000Y822000D02*
D03*
X60000Y340000D02*
D03*
Y480000D02*
D03*
X76000Y466000D02*
D03*
X119000Y412000D02*
D03*
X60000Y500000D02*
D03*
Y320000D02*
D03*
Y300000D02*
D03*
X101000Y807000D02*
D03*
X103000Y859000D02*
D03*
X120000Y885000D02*
D03*
X126000Y903000D02*
D03*
X223000Y812000D02*
D03*
X240000Y800000D02*
D03*
X332000Y767000D02*
D03*
X320000Y749000D02*
D03*
X195000Y563000D02*
D03*
X560000Y690000D02*
D03*
X60000Y280000D02*
D03*
X523000Y617000D02*
D03*
X30000Y435000D02*
D03*
X387000Y907000D02*
D03*
X511000Y901000D02*
D03*
X165000Y775000D02*
D03*
X407000Y937000D02*
D03*
X178000Y412000D02*
D03*
X81000Y407000D02*
D03*
X62000Y430000D02*
D03*
X89000Y420000D02*
D03*
X120000Y710000D02*
D03*
X146000Y597000D02*
D03*
X136000D02*
D03*
X144000Y587000D02*
D03*
X173000Y510000D02*
D03*
X183000Y558000D02*
D03*
X191000Y533000D02*
D03*
Y542000D02*
D03*
X340000Y280000D02*
D03*
X208000Y474000D02*
D03*
X285000Y345000D02*
D03*
X319000D02*
D03*
X321000Y197000D02*
D03*
X312000Y171000D02*
D03*
X313000Y41000D02*
D03*
X507000Y31000D02*
D03*
X519000Y200000D02*
D03*
X138000Y324000D02*
D03*
D82*
X561000Y533000D02*
D03*
X281000Y547000D02*
D03*
X564000Y518000D02*
D03*
X219000Y560000D02*
D03*
X222000Y570999D02*
D03*
X208000Y571999D02*
D03*
X210000Y565000D02*
D03*
X342000Y193000D02*
D03*
X217000Y549000D02*
D03*
X213000Y555000D02*
D03*
X224000Y544000D02*
D03*
X203000Y577000D02*
D03*
X326000Y801000D02*
D03*
X412000Y852000D02*
D03*
X445000Y870000D02*
D03*
X451000Y864000D02*
D03*
X411000Y873000D02*
D03*
X376000Y833000D02*
D03*
X538000Y896000D02*
D03*
X130000Y642000D02*
D03*
Y661000D02*
D03*
X483000Y849000D02*
D03*
X452000Y836000D02*
D03*
X473000Y866000D02*
D03*
X464000Y865000D02*
D03*
X443000Y735000D02*
D03*
X447000Y729000D02*
D03*
X463000Y730000D02*
D03*
X458000Y736000D02*
D03*
X278000Y879000D02*
D03*
X268000Y878000D02*
D03*
X429000Y852000D02*
D03*
X282000Y866000D02*
D03*
X378000Y753000D02*
D03*
X337000Y757000D02*
D03*
X281000Y610000D02*
D03*
X271000Y616000D02*
D03*
X262000Y611000D02*
D03*
X239000Y760000D02*
D03*
X228000Y763000D02*
D03*
X247000Y753000D02*
D03*
X259000Y752000D02*
D03*
X474000Y887000D02*
D03*
X295000Y870000D02*
D03*
X334000Y874000D02*
D03*
X258000Y725000D02*
D03*
X530000Y721000D02*
D03*
X454000Y504000D02*
D03*
X223000Y772000D02*
D03*
Y793000D02*
D03*
X224000Y800000D02*
D03*
X218000Y738000D02*
D03*
Y727000D02*
D03*
X253000Y720000D02*
D03*
X282000Y694000D02*
D03*
X261000Y713000D02*
D03*
X266000Y708000D02*
D03*
X271000Y703000D02*
D03*
X276999Y698999D02*
D03*
X330000Y903000D02*
D03*
X281000D02*
D03*
X227999Y805998D02*
D03*
X539000Y861000D02*
D03*
X484000Y906000D02*
D03*
X462000Y911000D02*
D03*
X348000Y902000D02*
D03*
X356000Y602000D02*
D03*
X380000Y619000D02*
D03*
X479000Y898000D02*
D03*
X422000Y848000D02*
D03*
X79000Y870000D02*
D03*
X86000Y873000D02*
D03*
X76000Y862000D02*
D03*
X91000Y868000D02*
D03*
X356000Y550000D02*
D03*
X349000Y544000D02*
D03*
X147000Y801000D02*
D03*
X223000Y840000D02*
D03*
X222000Y833000D02*
D03*
X96000Y874000D02*
D03*
X104000Y878000D02*
D03*
X362000Y616000D02*
D03*
X355000Y848000D02*
D03*
X347000Y851000D02*
D03*
X183000Y667000D02*
D03*
Y646000D02*
D03*
X71000Y645000D02*
D03*
X72000Y656000D02*
D03*
X300000Y556000D02*
D03*
X112000Y633000D02*
D03*
Y681000D02*
D03*
D86*
X60500Y621001D02*
D03*
Y628999D02*
D03*
Y677000D02*
D03*
Y684999D02*
D03*
D87*
Y635499D02*
D03*
Y640501D02*
D03*
Y645499D02*
D03*
Y650501D02*
D03*
Y655499D02*
D03*
Y660501D02*
D03*
Y665499D02*
D03*
Y670501D02*
D03*
D88*
X42000Y505000D02*
D03*
X41000Y256000D02*
D03*
D89*
X165650Y386900D02*
D03*
X178350Y412300D02*
D03*
X165650D02*
D03*
X178350Y399600D02*
D03*
X178350Y386900D02*
D03*
X165650Y399600D02*
D03*
D90*
X136500Y466690D02*
D03*
X103500D02*
D03*
Y439190D02*
D03*
X136500D02*
D03*
X283500Y439190D02*
D03*
X316500D02*
D03*
Y466690D02*
D03*
X283500D02*
D03*
X463500Y439190D02*
D03*
X496500D02*
D03*
Y466690D02*
D03*
X463500D02*
D03*
X136500Y336690D02*
D03*
X103500D02*
D03*
Y309190D02*
D03*
X136500D02*
D03*
X316500Y336690D02*
D03*
X283500D02*
D03*
Y309190D02*
D03*
X316500D02*
D03*
X462500Y309190D02*
D03*
X495500D02*
D03*
Y336690D02*
D03*
X462500D02*
D03*
X496701Y206690D02*
D03*
X463701D02*
D03*
Y179190D02*
D03*
X496701D02*
D03*
X316500Y206690D02*
D03*
X283500D02*
D03*
Y179190D02*
D03*
X316500D02*
D03*
X136500Y206690D02*
D03*
X103500D02*
D03*
Y179190D02*
D03*
X136500D02*
D03*
X136500Y76691D02*
D03*
X103500D02*
D03*
Y49191D02*
D03*
X136500D02*
D03*
X316499Y76691D02*
D03*
X283499D02*
D03*
Y49191D02*
D03*
X316499D02*
D03*
X463499Y49191D02*
D03*
X496499D02*
D03*
Y76691D02*
D03*
X463499D02*
D03*
D91*
X509000Y370000D02*
D03*
D92*
X68500Y629000D02*
D03*
X67500Y677000D02*
D03*
D93*
X141500Y592500D02*
D03*
M02*
