M48
;Layer_Color=9474304
;FILE_FORMAT=4:4
METRIC,LZ
T8F00S00C2.0000
%
G90
G05
T08
G00X00508985Y00583001
M15
G01X00510917Y00583385
G01X00512737Y00584139
G01X00514374Y00585234
G01X00515767Y00586627
G01X00516862Y00588264
G01X00517616Y00590084
G01X00518Y00592016
G01X00518Y00593986
G01X00517616Y00595918
G01X00516862Y00597738
G01X00515767Y00599376
G01X00514374Y00600769
G01X00512737Y00601863
G01X00510917Y00602617
G01X00508985Y00603001
G01X00419015Y00603001
G01X00417083Y00602617
G01X00415263Y00601863
G01X00413625Y00600769
G01X00412232Y00599376
G01X00411138Y00597738
G01X00410384Y00595918
G01X0041Y00593986
G01X0041Y00592016
G01X00410384Y00590084
G01X00411138Y00588264
G01X00412232Y00586626
G01X00413625Y00585234
G01X00415263Y00584139
G01X00417083Y00583385
G01X00419015Y00583001
G01X00508985Y00583001
M16
G00X00533883Y-00019467
M15
G01X0054196Y-00017773
G01X00549748Y-00015039
G01X00557112Y-00011313
G01X00563926Y-00006656
G01X00570074Y-00001151
G01X00575452Y00005111
G01X00579966Y0001202
G01X00583539Y0001946
G01X00586111Y00027302
G01X00587637Y00035413
G01X00588091Y00042346
G01X00587999Y00043323
G01X00588091Y00893654
G01X00587466Y00901884
G01X00585772Y00909962
G01X00583038Y00917749
G01X00579312Y00925113
G01X00574655Y00931927
G01X0056915Y00938076
G01X00562888Y00943453
G01X00555979Y00947967
G01X00548539Y0095154
G01X00540697Y00954112
G01X00532586Y00955638
G01X00525653Y00956092
G01X00524676Y00956
G01X00051216Y00956062
G01X00044958Y00955446
G01X00038874Y00953859
G01X00033114Y00951339
G01X00027818Y0094795
G01X00023118Y00943773
G01X00019129Y00938913
G01X00015949Y00933489
G01X00013657Y00927634
G01X00012309Y00921492
G01X00011939Y00916785
G01X00012003Y00915994
G01X00012001Y00915994
G01X00012097Y00763489
G01X00011856Y0076104
G01X00011284Y00759155
G01X00010355Y00757418
G01X00009106Y00755895
G01X00007583Y00754646
G01X00005846Y00753717
G01X00003961Y00753145
G01X00002197Y00752972
G01X00002001Y00753001
G01X-00005001Y00753001
G01X-00008138Y00752496
G01X-00010958Y00751033
G01X-00013177Y00748758
G01X-00014571Y00745903
G01X-00015001Y00743001
G01X-00015Y007
G01X-00014495Y00696863
G01X-00013032Y00694042
G01X-00010757Y00691824
G01X-00007902Y0069043
G01X-00004983Y0069
G01X00042Y00690082
G01X00042Y006159
G01X00042016Y00615801
G01X-00005001Y00615801
G01X-00008138Y00615296
G01X-00010958Y00613833
G01X-00013177Y00611559
G01X-00014571Y00608703
G01X-00015001Y00605801
G01X-00015Y00523001
G01X-00014495Y00519864
G01X-00013032Y00517044
G01X-00010758Y00514825
G01X-00007902Y00513432
G01X-00004862Y00513002
G01X00001578Y00513091
G01X00003961Y00512857
G01X00005846Y00512285
G01X00007583Y00511356
G01X00009106Y00510106
G01X00010355Y00508584
G01X00011284Y00506847
G01X00011856Y00504962
G01X00012029Y00503199
G01X00012001Y00503004
G01X00011908Y00042346
G01X00012533Y00034116
G01X00014227Y00026038
G01X00016961Y00018251
G01X00020688Y00010887
G01X00025344Y00004073
G01X0003085Y-00002076
G01X00037111Y-00007453
G01X00044021Y-00011967
G01X0005146Y-0001554
G01X00059302Y-00018112
G01X00067413Y-00019638
G01X00074346Y-00020092
G01X00075323Y-0002
G01X00525653Y-00020092
G01X00533883Y-00019467
M16
M17
M30
