G04 Layer_Color=8421504*
%FSLAX44Y44*%
%MOMM*%
G71*
G01*
G75*
%ADD45C,1.0000*%
%ADD46R,0.1001X0.1001*%
%ADD51C,0.2000*%
%ADD75C,0.0000*%
%ADD102R,0.5000X0.4900*%
%ADD103R,0.7000X0.5000*%
%ADD104R,0.5000X1.0500*%
%ADD105R,0.7000X0.2000*%
%ADD106R,0.7000X0.3000*%
%ADD107R,2.5000X2.9000*%
%ADD108R,0.5000X1.7000*%
%ADD109R,0.7500X2.1000*%
%ADD110R,1.1600X0.5400*%
%ADD111R,0.5400X1.1600*%
%ADD112R,0.7001X0.6000*%
%ADD113R,0.5000X1.3000*%
%ADD114R,0.8000X0.8500*%
%ADD115R,1.7001X2.0999*%
%ADD116R,0.2000X1.2000*%
%ADD117R,0.9800X1.3200*%
%ADD118R,1.3200X0.9800*%
%ADD119R,0.8300X0.7900*%
%ADD120R,0.7900X0.8300*%
%ADD121R,0.4900X0.5000*%
%ADD122R,0.0801X0.1301*%
G04:AMPARAMS|DCode=123|XSize=1.7001mm|YSize=0.9399mm|CornerRadius=0mm|HoleSize=0mm|Usage=FLASHONLY|Rotation=270.000|XOffset=0mm|YOffset=0mm|HoleType=Round|Shape=RoundedRectangle|*
%AMROUNDEDRECTD123*
21,1,1.7001,0.9399,0,0,270.0*
21,1,1.7001,0.9399,0,0,270.0*
1,1,0.0000,-0.4699,-0.8500*
1,1,0.0000,-0.4699,0.8500*
1,1,0.0000,0.4699,0.8500*
1,1,0.0000,0.4699,-0.8500*
%
%ADD123ROUNDEDRECTD123*%
%ADD124R,0.6000X0.1499*%
%ADD125R,1.6000X3.2000*%
%ADD126R,1.2500X0.5400*%
%ADD127R,0.5400X1.2500*%
%ADD128R,1.6501X1.9800*%
%ADD129R,2.3501X1.0999*%
%ADD130R,0.9000X1.4001*%
%ADD131R,0.5000X0.2600*%
%ADD132R,0.2600X0.5000*%
%ADD133R,0.1794X1.3732*%
%ADD134R,1.3732X0.1794*%
%ADD135R,0.4001X0.5000*%
%ADD136R,0.3000X0.5000*%
%ADD137P,0.5939X4X90.0*%
G36*
X544049Y908901D02*
X541579D01*
X540051Y910429D01*
Y911599D01*
X544049D01*
Y908901D01*
D02*
G37*
G36*
X535949Y910429D02*
X534421Y908901D01*
X531951D01*
Y911599D01*
X535949D01*
Y910429D01*
D02*
G37*
G36*
X544049Y902401D02*
X540051D01*
Y903571D01*
X541579Y905099D01*
X544049D01*
Y902401D01*
D02*
G37*
G36*
X535949Y903571D02*
Y902401D01*
X531951D01*
Y905099D01*
X534421D01*
X535949Y903571D01*
D02*
G37*
G36*
X543049Y871901D02*
X540579D01*
X539051Y873429D01*
Y874599D01*
X543049D01*
Y871901D01*
D02*
G37*
G36*
X534949Y873429D02*
X533421Y871901D01*
X530951D01*
Y874599D01*
X534949D01*
Y873429D01*
D02*
G37*
G36*
X543049Y865401D02*
X539051D01*
Y866571D01*
X540579Y868099D01*
X543049D01*
Y865401D01*
D02*
G37*
G36*
X534949Y866571D02*
Y865401D01*
X530951D01*
Y868099D01*
X533421D01*
X534949Y866571D01*
D02*
G37*
G36*
X527049Y814901D02*
X524579D01*
X523051Y816429D01*
Y817599D01*
X527049D01*
Y814901D01*
D02*
G37*
G36*
X518949Y816429D02*
X517421Y814901D01*
X514951D01*
Y817599D01*
X518949D01*
Y816429D01*
D02*
G37*
G36*
X527049Y808401D02*
X523051D01*
Y809571D01*
X524579Y811099D01*
X527049D01*
Y808401D01*
D02*
G37*
G36*
X518949Y809571D02*
Y808401D01*
X514951D01*
Y811099D01*
X517421D01*
X518949Y809571D01*
D02*
G37*
D45*
X560000Y710000D02*
D03*
X50000Y30000D02*
D03*
X120000Y921000D02*
D03*
X540000Y30000D02*
D03*
X39000Y841000D02*
D03*
D46*
X541049Y873251D02*
D03*
Y866749D02*
D03*
X532951D02*
D03*
Y873251D02*
D03*
X516951Y816251D02*
D03*
Y809749D02*
D03*
X525049D02*
D03*
Y816251D02*
D03*
X542049Y910251D02*
D03*
Y903749D02*
D03*
X533951D02*
D03*
Y910251D02*
D03*
D51*
X51997Y690100D02*
G03*
X51000Y700000I-997J4900D01*
G01*
Y606000D02*
G03*
X52039Y615891I0J5000D01*
G01*
X2001Y743001D02*
G03*
X22001Y763001I0J20000D01*
G01*
X52000Y946000D02*
G03*
X22001Y916000I0J-30000D01*
G01*
X577999Y893000D02*
G03*
X524999Y946000I-53000J0D01*
G01*
Y-10000D02*
G03*
X577999Y43000I0J53000D01*
G01*
X22001D02*
G03*
X75000Y-10000I53000J0D01*
G01*
X22001Y503001D02*
G03*
X2001Y523001I-20000J0D01*
G01*
X75000Y-10000D02*
X524999D01*
X22001Y43000D02*
Y503001D01*
X-5000Y523001D02*
X2001D01*
X-5000Y743001D02*
X2000D01*
X22001Y763001D02*
Y916000D01*
X52000Y946000D02*
X524999D01*
X577999Y43000D02*
Y893000D01*
X-5001Y700001D02*
Y743001D01*
X-5000Y700000D02*
X51000D01*
X52000Y615900D02*
Y690100D01*
X-5001Y523001D02*
Y605801D01*
X51000D01*
D75*
X15999Y593800D02*
G03*
X18999Y596800I0J3000D01*
G01*
D02*
G03*
X15999Y599800I-3000J0D01*
G01*
X4001D02*
G03*
X1001Y596800I0J-3000D01*
G01*
D02*
G03*
X4001Y593800I3000J0D01*
G01*
X54000Y706200D02*
G03*
X57000Y709200I0J3000D01*
G01*
D02*
G03*
X54000Y712200I-3000J0D01*
G01*
X45999D02*
G03*
X43000Y709200I0J-3000D01*
G01*
D02*
G03*
X45999Y706200I3000J0D01*
G01*
X54000Y593800D02*
G03*
X57000Y596800I0J3000D01*
G01*
D02*
G03*
X54000Y599800I-3000J0D01*
G01*
X45999D02*
G03*
X43000Y596800I0J-3000D01*
G01*
D02*
G03*
X45999Y593800I3000J0D01*
G01*
X15999Y706200D02*
G03*
X18999Y709200I0J3000D01*
G01*
D02*
G03*
X15999Y712200I-3000J0D01*
G01*
X4001D02*
G03*
X1001Y709200I0J-3000D01*
G01*
D02*
G03*
X4001Y706200I3000J0D01*
G01*
Y599800D02*
X15999D01*
X4001Y593800D02*
X15999D01*
X45999Y712200D02*
X54000D01*
X45999Y706200D02*
X54000D01*
X45999Y599800D02*
X54000D01*
X45999Y593800D02*
X54000D01*
X4001Y712200D02*
X15999D01*
X4001Y706200D02*
X15999D01*
D102*
X39000Y800550D02*
D03*
X39000Y791450D02*
D03*
X504000Y878450D02*
D03*
X504000Y887550D02*
D03*
X505000Y903450D02*
D03*
X505000Y912550D02*
D03*
X469000Y488450D02*
D03*
X469000Y497550D02*
D03*
X119000Y649550D02*
D03*
X119000Y640450D02*
D03*
X139000Y737450D02*
D03*
X139000Y746550D02*
D03*
X526000Y491450D02*
D03*
X526000Y500550D02*
D03*
X64000Y778550D02*
D03*
X64000Y769450D02*
D03*
X210000Y899450D02*
D03*
X210000Y908550D02*
D03*
X166000Y800550D02*
D03*
X166000Y791450D02*
D03*
X191000Y772450D02*
D03*
X191000Y781550D02*
D03*
X507000Y815550D02*
D03*
X507000Y806450D02*
D03*
X267000Y574550D02*
D03*
X267000Y565450D02*
D03*
X516000Y380450D02*
D03*
X516000Y389550D02*
D03*
X188000Y821550D02*
D03*
X188000Y812450D02*
D03*
X513000Y500550D02*
D03*
X513000Y491450D02*
D03*
X513000Y472450D02*
D03*
X513000Y481550D02*
D03*
X258000Y921550D02*
D03*
X258000Y912450D02*
D03*
X109000Y617450D02*
D03*
X109000Y626550D02*
D03*
X102000Y694550D02*
D03*
X102000Y685450D02*
D03*
X369000Y588550D02*
D03*
X369000Y579450D02*
D03*
X75000Y769450D02*
D03*
X75000Y778550D02*
D03*
X113000Y706550D02*
D03*
X113000Y697450D02*
D03*
X156000Y808450D02*
D03*
X156000Y817550D02*
D03*
X485000Y362450D02*
D03*
X485000Y371550D02*
D03*
X538000Y428450D02*
D03*
X538000Y437550D02*
D03*
X387000Y720550D02*
D03*
X387000Y711450D02*
D03*
X474000Y371550D02*
D03*
X474000Y362450D02*
D03*
X313000Y929550D02*
D03*
X313000Y920450D02*
D03*
X559000Y821550D02*
D03*
X559000Y812450D02*
D03*
D103*
X485000Y434500D02*
D03*
Y417500D02*
D03*
D104*
X570200Y623250D02*
D03*
X552200D02*
D03*
Y662750D02*
D03*
X570200D02*
D03*
D105*
X492000Y865500D02*
D03*
Y870500D02*
D03*
Y875500D02*
D03*
Y880500D02*
D03*
Y885500D02*
D03*
Y890500D02*
D03*
Y895500D02*
D03*
Y900500D02*
D03*
Y905500D02*
D03*
Y910500D02*
D03*
Y915500D02*
D03*
Y920500D02*
D03*
Y860500D02*
D03*
Y855500D02*
D03*
Y850500D02*
D03*
Y845500D02*
D03*
Y840500D02*
D03*
Y835500D02*
D03*
Y830500D02*
D03*
Y825500D02*
D03*
Y820500D02*
D03*
Y815500D02*
D03*
Y810500D02*
D03*
Y805500D02*
D03*
D106*
X467000Y930500D02*
D03*
Y795500D02*
D03*
D107*
X226500Y614700D02*
D03*
X323500D02*
D03*
D108*
X300001Y593000D02*
D03*
X290001D02*
D03*
X280001D02*
D03*
X270001D02*
D03*
X260001D02*
D03*
X250001D02*
D03*
D109*
X481750Y534000D02*
D03*
X498250D02*
D03*
D110*
X142450Y642500D02*
D03*
Y661500D02*
D03*
X167550D02*
D03*
Y652000D02*
D03*
Y642500D02*
D03*
X142450Y652000D02*
D03*
D111*
X500499Y487452D02*
D03*
X481499D02*
D03*
Y512551D02*
D03*
X490999D02*
D03*
X500499D02*
D03*
D112*
X13122Y536999D02*
D03*
Y566001D02*
D03*
D113*
X380500Y627499D02*
D03*
X371000D02*
D03*
X361500D02*
D03*
Y602501D02*
D03*
X380500D02*
D03*
D114*
X58252Y812002D02*
D03*
X89752D02*
D03*
X271748Y547998D02*
D03*
X240248D02*
D03*
X291252Y567002D02*
D03*
X322752D02*
D03*
D115*
X510000Y685000D02*
D03*
X417000D02*
D03*
D116*
X491001Y717499D02*
D03*
X485999D02*
D03*
X481001D02*
D03*
X475999D02*
D03*
X471001D02*
D03*
X465999D02*
D03*
X461001D02*
D03*
X455999D02*
D03*
X451001D02*
D03*
X445999D02*
D03*
X441001D02*
D03*
X435999D02*
D03*
D117*
X143050Y705000D02*
D03*
X160950Y705000D02*
D03*
X464950Y473000D02*
D03*
X447050Y473000D02*
D03*
X521050Y550000D02*
D03*
X538950Y550000D02*
D03*
X521050Y527000D02*
D03*
X538950Y527000D02*
D03*
X143050Y724000D02*
D03*
X160950Y724000D02*
D03*
X232950Y700000D02*
D03*
X215050Y700000D02*
D03*
X519050Y849000D02*
D03*
X536950Y849000D02*
D03*
X124050Y765000D02*
D03*
X141950Y765000D02*
D03*
X364050Y564000D02*
D03*
X381950Y564000D02*
D03*
X124050Y785000D02*
D03*
X141950Y785000D02*
D03*
X464950Y766000D02*
D03*
X447050Y766000D02*
D03*
D118*
X516000Y433950D02*
D03*
X516000Y416050D02*
D03*
X237000Y912050D02*
D03*
X237000Y929950D02*
D03*
X326000Y698950D02*
D03*
X326000Y681050D02*
D03*
X347000Y698950D02*
D03*
X347000Y681050D02*
D03*
X374000Y904050D02*
D03*
X374000Y921950D02*
D03*
X194000Y902050D02*
D03*
X194000Y919950D02*
D03*
X90000Y774050D02*
D03*
X90000Y791950D02*
D03*
X503000Y768050D02*
D03*
X503000Y785950D02*
D03*
X171000Y821050D02*
D03*
X171000Y838950D02*
D03*
D119*
X159000Y894300D02*
D03*
X159000Y909700D02*
D03*
X179000Y768700D02*
D03*
X179000Y753300D02*
D03*
X485000Y399700D02*
D03*
X485000Y384300D02*
D03*
X555000Y870700D02*
D03*
X555000Y855300D02*
D03*
X518000Y875300D02*
D03*
X518000Y890700D02*
D03*
X537000Y812700D02*
D03*
X537000Y797300D02*
D03*
X555000Y906700D02*
D03*
X555000Y891300D02*
D03*
X518000Y908300D02*
D03*
X518000Y923700D02*
D03*
D120*
X519300Y831000D02*
D03*
X534700Y831000D02*
D03*
D121*
X493550Y554000D02*
D03*
X484450Y554000D02*
D03*
X237550Y715000D02*
D03*
X228450Y715000D02*
D03*
X349450Y717000D02*
D03*
X358550Y717000D02*
D03*
X375450Y885000D02*
D03*
X384550Y885000D02*
D03*
X485450Y746000D02*
D03*
X494550Y746000D02*
D03*
X363450Y548000D02*
D03*
X372550Y548000D02*
D03*
X467550Y746000D02*
D03*
X458450Y746000D02*
D03*
X189550Y548000D02*
D03*
X180450Y548000D02*
D03*
X544450Y463000D02*
D03*
X553550Y463000D02*
D03*
X145550Y895000D02*
D03*
X136450Y895000D02*
D03*
X128450Y882000D02*
D03*
X137550Y882000D02*
D03*
X347550Y552000D02*
D03*
X338450Y552000D02*
D03*
X54550Y537000D02*
D03*
X45450Y537000D02*
D03*
X69450Y708000D02*
D03*
X78550Y708000D02*
D03*
X36450Y771000D02*
D03*
X45550Y771000D02*
D03*
X509450Y736000D02*
D03*
X518550Y736000D02*
D03*
X543450Y786000D02*
D03*
X552550Y786000D02*
D03*
X463450Y408000D02*
D03*
X472550Y408000D02*
D03*
X516550Y367000D02*
D03*
X507450Y367000D02*
D03*
X425550Y412000D02*
D03*
X416450Y412000D02*
D03*
X192550Y875000D02*
D03*
X183450Y875000D02*
D03*
X312550Y718000D02*
D03*
X303450Y718000D02*
D03*
D122*
X525501Y377501D02*
D03*
Y372499D02*
D03*
Y367501D02*
D03*
Y362499D02*
D03*
X542499D02*
D03*
Y367501D02*
D03*
Y372499D02*
D03*
Y377501D02*
D03*
D123*
X534000Y370000D02*
D03*
D124*
X90499Y733000D02*
D03*
Y738001D02*
D03*
Y743000D02*
D03*
Y748001D02*
D03*
Y727999D02*
D03*
Y723000D02*
D03*
Y717999D02*
D03*
X119501D02*
D03*
Y723000D02*
D03*
Y727999D02*
D03*
Y733000D02*
D03*
Y738001D02*
D03*
Y743000D02*
D03*
Y748001D02*
D03*
D125*
X105000Y733000D02*
D03*
D126*
X38750Y729500D02*
D03*
Y748500D02*
D03*
X59250Y739000D02*
D03*
D127*
X168500Y857750D02*
D03*
X149500D02*
D03*
X159000Y878250D02*
D03*
X538500Y767250D02*
D03*
X557500D02*
D03*
X548000Y746750D02*
D03*
D128*
X155999Y535000D02*
D03*
X125999D02*
D03*
X95999D02*
D03*
D129*
X155999Y551398D02*
D03*
X125999D02*
D03*
X95999D02*
D03*
D130*
X104001Y652000D02*
D03*
X81999D02*
D03*
X135001Y584000D02*
D03*
X112999D02*
D03*
D131*
X450500Y387000D02*
D03*
X437500Y381999D02*
D03*
Y392001D02*
D03*
X450500Y408000D02*
D03*
X437500Y402999D02*
D03*
Y413001D02*
D03*
X450500Y366000D02*
D03*
X437500Y360999D02*
D03*
Y371001D02*
D03*
X450500Y428000D02*
D03*
X437500Y422999D02*
D03*
Y433001D02*
D03*
D132*
X479000Y335500D02*
D03*
X473999Y348500D02*
D03*
X484001D02*
D03*
D133*
X228001Y890217D02*
D03*
X232999D02*
D03*
X238001D02*
D03*
X242999D02*
D03*
X248001D02*
D03*
X252999D02*
D03*
X258001D02*
D03*
X262999D02*
D03*
X268001D02*
D03*
X272999D02*
D03*
X278000D02*
D03*
X282999D02*
D03*
X288000D02*
D03*
X293002D02*
D03*
X298000D02*
D03*
X303002D02*
D03*
X308000D02*
D03*
X313002D02*
D03*
X318000D02*
D03*
X323002D02*
D03*
X328000D02*
D03*
X333002D02*
D03*
X338000D02*
D03*
X343002D02*
D03*
X348000D02*
D03*
Y735785D02*
D03*
X343002D02*
D03*
X338000D02*
D03*
X333002D02*
D03*
X328000D02*
D03*
X323002D02*
D03*
X318000D02*
D03*
X313002D02*
D03*
X308000D02*
D03*
X303002D02*
D03*
X298000D02*
D03*
X293002D02*
D03*
X288000D02*
D03*
X282999D02*
D03*
X278000D02*
D03*
X272999D02*
D03*
X268001D02*
D03*
X262999D02*
D03*
X258001D02*
D03*
X252999D02*
D03*
X248001D02*
D03*
X242999D02*
D03*
X238001D02*
D03*
X232999D02*
D03*
X228001D02*
D03*
D134*
X365216Y873000D02*
D03*
Y868002D02*
D03*
Y863000D02*
D03*
Y858002D02*
D03*
Y853001D02*
D03*
Y848002D02*
D03*
Y843001D02*
D03*
Y838002D02*
D03*
Y833001D02*
D03*
Y828002D02*
D03*
Y823001D02*
D03*
Y818002D02*
D03*
Y813001D02*
D03*
Y807999D02*
D03*
Y803001D02*
D03*
Y797999D02*
D03*
Y793001D02*
D03*
Y787999D02*
D03*
Y783001D02*
D03*
Y777999D02*
D03*
Y773001D02*
D03*
Y767999D02*
D03*
Y763001D02*
D03*
Y757999D02*
D03*
Y753001D02*
D03*
X210784D02*
D03*
Y757999D02*
D03*
Y763001D02*
D03*
Y767999D02*
D03*
Y773001D02*
D03*
Y777999D02*
D03*
Y783001D02*
D03*
Y787999D02*
D03*
Y793001D02*
D03*
Y797999D02*
D03*
Y803001D02*
D03*
Y807999D02*
D03*
Y813001D02*
D03*
Y818002D02*
D03*
Y823001D02*
D03*
Y828002D02*
D03*
Y833001D02*
D03*
Y838002D02*
D03*
Y843001D02*
D03*
Y848002D02*
D03*
Y853001D02*
D03*
Y858002D02*
D03*
Y863000D02*
D03*
Y868002D02*
D03*
Y873000D02*
D03*
D135*
X341000Y572001D02*
D03*
D136*
X345000Y563999D02*
D03*
X337000D02*
D03*
D137*
X537000Y870000D02*
D03*
X521000Y813000D02*
D03*
X538000Y907000D02*
D03*
M02*
