G04 Layer_Physical_Order=1*
G04 Layer_Color=255*
%FSLAX44Y44*%
%MOMM*%
G71*
G01*
G75*
%ADD10C,0.2000*%
%ADD11R,1.5999X1.8001*%
%ADD12R,1.4001X1.8001*%
%ADD13C,1.0000*%
%ADD14R,0.7000X3.0000*%
%ADD15C,0.4000*%
%ADD16C,0.1999*%
%ADD17C,0.8000*%
%ADD18C,0.2500*%
%ADD19C,0.5000*%
%ADD20C,0.6500*%
G36*
X-21502Y763000D02*
X-23501Y761001D01*
Y738001D01*
X-26501D01*
Y743000D01*
X-33001D01*
Y756002D01*
X-26501D01*
Y761001D01*
X-28500Y763000D01*
Y793002D01*
X-21502D01*
Y763000D01*
D02*
G37*
G36*
X-11502D02*
X-13501Y761001D01*
Y738001D01*
X-16501D01*
Y761001D01*
X-18500Y763000D01*
Y793002D01*
X-11502D01*
Y763000D01*
D02*
G37*
G36*
X-29588Y356401D02*
X-58244Y327745D01*
X-59239Y326256D01*
X-59588Y324500D01*
Y230500D01*
X-59239Y228744D01*
X-58244Y227256D01*
X8012Y161000D01*
Y23500D01*
X3200D01*
Y23000D01*
X-3200D01*
Y23500D01*
X-22200D01*
Y3000D01*
X-80500D01*
X-82000Y4500D01*
Y51445D01*
X-78694Y53925D01*
X-78510Y54129D01*
X-78282Y54282D01*
X-78014Y54683D01*
X-77692Y55042D01*
X-77601Y55301D01*
X-77449Y55529D01*
X-77355Y56002D01*
X-77195Y56456D01*
X-77210Y56731D01*
X-77156Y57000D01*
Y73000D01*
X-77210Y73269D01*
X-77195Y73544D01*
X-77355Y73998D01*
X-77449Y74471D01*
X-77601Y74699D01*
X-77692Y74958D01*
X-78014Y75317D01*
X-78282Y75718D01*
X-78510Y75871D01*
X-78694Y76075D01*
X-82000Y78555D01*
X-82000Y276373D01*
X-69005D01*
X-68706Y276496D01*
X-68383D01*
X-66544Y277258D01*
X-66316Y277486D01*
X-66017Y277610D01*
X-64610Y279018D01*
X-64486Y279316D01*
X-64258Y279544D01*
X-63496Y281383D01*
Y281706D01*
X-63373Y282005D01*
Y303995D01*
X-63496Y304294D01*
Y304617D01*
X-64258Y306456D01*
X-64486Y306684D01*
X-64610Y306982D01*
X-66017Y308390D01*
X-66316Y308514D01*
X-66544Y308742D01*
X-68383Y309504D01*
X-68706D01*
X-68749Y309521D01*
X-68864Y309583D01*
X-68909Y309588D01*
X-69005Y309627D01*
X-69313D01*
X-69840Y309679D01*
X-69924Y309654D01*
X-70006Y309687D01*
X-81100Y309640D01*
X-82000Y310536D01*
X-82000Y346445D01*
X-78694Y348925D01*
X-78510Y349129D01*
X-78282Y349282D01*
X-78014Y349683D01*
X-77692Y350042D01*
X-77601Y350301D01*
X-77449Y350529D01*
X-77355Y351002D01*
X-77195Y351456D01*
X-77210Y351731D01*
X-77156Y352000D01*
Y368000D01*
X-77210Y368269D01*
X-77195Y368544D01*
X-77355Y368998D01*
X-77449Y369471D01*
X-77601Y369699D01*
X-77692Y369958D01*
X-78014Y370317D01*
X-78282Y370718D01*
X-78510Y370871D01*
X-78694Y371075D01*
X-82000Y373555D01*
Y381000D01*
X-78000Y385000D01*
X-29588D01*
Y356401D01*
D02*
G37*
G36*
X146000Y381000D02*
Y372805D01*
X143694Y371075D01*
X143510Y370871D01*
X143282Y370718D01*
X143014Y370317D01*
X142692Y369958D01*
X142601Y369699D01*
X142449Y369471D01*
X142355Y368998D01*
X142195Y368544D01*
X142210Y368269D01*
X142156Y368000D01*
Y352000D01*
X142210Y351731D01*
X142195Y351456D01*
X142355Y351002D01*
X142449Y350529D01*
X142601Y350301D01*
X142692Y350042D01*
X143014Y349683D01*
X143282Y349282D01*
X143510Y349129D01*
X143694Y348925D01*
X146000Y347195D01*
Y309627D01*
X133003D01*
X132704Y309504D01*
X132380Y309503D01*
X130538Y308738D01*
X130309Y308510D01*
X130010Y308385D01*
X128602Y306972D01*
X128479Y306673D01*
X128251Y306444D01*
X127492Y304599D01*
X127492Y304276D01*
X127369Y303976D01*
X127373Y302979D01*
Y283021D01*
X127371Y282526D01*
X127420Y282407D01*
X127427Y282335D01*
X127402Y282208D01*
X127478Y281820D01*
X127479Y281802D01*
X127482Y281796D01*
X127592Y281237D01*
X127685Y281098D01*
X127684Y280931D01*
X128062Y280016D01*
X128180Y279898D01*
X128212Y279734D01*
X128339Y279543D01*
X128342Y279537D01*
X128346Y279533D01*
X128692Y279014D01*
X128694Y279011D01*
X128696Y279008D01*
X128761Y278911D01*
X128859Y278845D01*
X128910Y278795D01*
X128964Y278664D01*
X129314Y278314D01*
X129314Y278314D01*
X129664Y277964D01*
X129795Y277910D01*
X129845Y277859D01*
X129911Y277761D01*
X130008Y277696D01*
X130073Y277631D01*
X130159Y277595D01*
X130533Y277346D01*
X130600Y277279D01*
X130688Y277243D01*
X130734Y277212D01*
X130788Y277201D01*
X130939Y277139D01*
X131016Y277062D01*
X131931Y276684D01*
X132035Y276684D01*
X132202Y276616D01*
X132237Y276592D01*
X132277Y276584D01*
X132402Y276532D01*
X132541D01*
X132710Y276499D01*
X132865Y276417D01*
X133840Y276321D01*
X133924Y276346D01*
X134006Y276313D01*
X145100Y276360D01*
X146000Y275464D01*
X146000Y155500D01*
X144000Y153500D01*
X94500Y153500D01*
X81000Y140000D01*
Y78555D01*
X77694Y76075D01*
X77510Y75871D01*
X77282Y75718D01*
X77014Y75317D01*
X76693Y74958D01*
X76601Y74699D01*
X76449Y74471D01*
X76355Y73998D01*
X76195Y73544D01*
X76210Y73269D01*
X76156Y73000D01*
Y57000D01*
X76210Y56731D01*
X76195Y56456D01*
X76355Y56002D01*
X76449Y55529D01*
X76601Y55301D01*
X76693Y55042D01*
X77014Y54683D01*
X77282Y54282D01*
X77510Y54129D01*
X77694Y53925D01*
X81000Y51445D01*
Y4500D01*
X79500Y3000D01*
X47600D01*
Y23500D01*
X28600D01*
Y23000D01*
X22200D01*
Y23500D01*
X17188D01*
Y162900D01*
X16839Y164656D01*
X15844Y166145D01*
X-50412Y232400D01*
Y322600D01*
X-46511Y326500D01*
X-42788D01*
Y265501D01*
X-47600D01*
Y242500D01*
X-28600D01*
Y265501D01*
X-33612D01*
Y324898D01*
X-20010Y338500D01*
X-18131D01*
X-17325Y337518D01*
X-17388Y337200D01*
Y265501D01*
X-22200D01*
Y242500D01*
X-3200D01*
Y265501D01*
X-8212D01*
Y335300D01*
X-1755Y341756D01*
X-761Y343245D01*
X-710Y343500D01*
X711D01*
X761Y343245D01*
X1756Y341756D01*
X8012Y335500D01*
Y265501D01*
X3200D01*
Y242500D01*
X22200D01*
Y265501D01*
X17188D01*
Y337401D01*
X17680Y338000D01*
X19512D01*
X71512Y285998D01*
Y201300D01*
X65700D01*
Y178299D01*
X86700D01*
Y201300D01*
X80688D01*
Y287899D01*
X80339Y289655D01*
X79344Y291143D01*
X21000Y349490D01*
Y371500D01*
X19588D01*
Y385000D01*
X142000D01*
X146000Y381000D01*
D02*
G37*
G36*
X18498Y763000D02*
X16499Y761001D01*
Y738001D01*
X13499D01*
Y761001D01*
X11500Y763000D01*
Y793002D01*
X18498D01*
Y763000D01*
D02*
G37*
G36*
X28498D02*
X26499Y761001D01*
Y756002D01*
X32999D01*
Y743000D01*
X26499D01*
Y738001D01*
X23499D01*
Y761001D01*
X21500Y763000D01*
Y793002D01*
X28498D01*
Y763000D01*
D02*
G37*
G36*
X-1502D02*
X-3501Y761001D01*
Y738001D01*
X-6501D01*
Y761001D01*
X-8500Y763000D01*
Y793002D01*
X-1502D01*
Y763000D01*
D02*
G37*
G36*
X8498D02*
X6499Y761001D01*
Y738001D01*
X3499D01*
Y761001D01*
X1500Y763000D01*
Y793002D01*
X8498D01*
Y763000D01*
D02*
G37*
%LPC*%
G36*
X-69022Y26000D02*
X-69931Y25953D01*
X-70821Y25837D01*
X-71318Y25724D01*
X-71889Y25570D01*
X-72314Y25429D01*
X-72908Y25206D01*
X-73483Y24934D01*
X-74020Y24657D01*
X-74604Y24280D01*
X-75108Y23926D01*
X-75703Y23422D01*
X-76313Y22812D01*
X-76758Y22308D01*
X-77166Y21777D01*
X-77447Y21375D01*
X-77639Y21038D01*
X-77858Y20652D01*
X-78025Y20318D01*
X-78200Y19914D01*
X-78399Y19407D01*
X-78678Y18563D01*
X-78786Y18068D01*
X-78875Y17572D01*
X-78947Y17055D01*
X-78999Y16339D01*
X-78976Y15390D01*
X-78906Y14618D01*
X-78828Y14149D01*
X-78703Y13537D01*
X-78570Y13106D01*
X-78406Y12573D01*
X-78236Y12161D01*
X-77837Y11296D01*
X-77612Y10901D01*
X-77352Y10490D01*
X-77048Y10051D01*
X-76720Y9641D01*
X-76313Y9180D01*
X-75909Y8775D01*
X-75299Y8220D01*
X-74752Y7818D01*
X-74369Y7556D01*
X-73965Y7317D01*
X-73321Y6978D01*
X-72840Y6765D01*
X-72248Y6539D01*
X-71648Y6357D01*
X-71153Y6234D01*
X-70003Y6054D01*
X-69656Y6015D01*
X-69092Y5992D01*
X-67945Y6054D01*
X-67320Y6133D01*
X-67051Y6192D01*
X-66394Y6337D01*
X-65993Y6447D01*
X-65320Y6706D01*
X-65020Y6822D01*
X-64592Y7019D01*
X-64034Y7317D01*
X-63628Y7556D01*
X-63197Y7856D01*
X-62924Y8046D01*
X-62376Y8516D01*
X-61987Y8873D01*
X-61571Y9290D01*
X-61076Y9894D01*
X-60830Y10223D01*
X-60526Y10689D01*
X-60268Y11121D01*
X-60033Y11578D01*
X-59698Y12317D01*
X-59549Y12734D01*
X-59319Y13472D01*
X-59237Y13832D01*
X-59167Y14247D01*
X-59095Y14637D01*
X-59017Y15307D01*
X-59003Y16086D01*
X-59072Y17256D01*
X-59150Y17745D01*
X-59237Y18206D01*
X-59521Y19195D01*
X-59672Y19618D01*
X-59909Y20170D01*
X-60152Y20652D01*
X-60404Y21116D01*
X-60598Y21407D01*
X-60830Y21777D01*
X-61430Y22540D01*
X-61987Y23126D01*
X-62674Y23752D01*
X-63010Y24010D01*
X-63423Y24302D01*
X-64143Y24761D01*
X-64520Y24934D01*
X-64995Y25167D01*
X-65582Y25397D01*
X-66201Y25603D01*
X-66662Y25724D01*
X-67533Y25902D01*
X-68301Y25976D01*
X-69022Y26000D01*
D02*
G37*
G36*
X129978Y360000D02*
X129069Y359953D01*
X128179Y359837D01*
X127682Y359724D01*
X127111Y359570D01*
X126686Y359428D01*
X126092Y359207D01*
X125517Y358934D01*
X124980Y358657D01*
X124396Y358280D01*
X123892Y357926D01*
X123297Y357422D01*
X122687Y356812D01*
X122242Y356308D01*
X121834Y355777D01*
X121553Y355375D01*
X121361Y355038D01*
X121142Y354652D01*
X120975Y354318D01*
X120800Y353914D01*
X120601Y353407D01*
X120322Y352562D01*
X120214Y352068D01*
X120126Y351572D01*
X120053Y351055D01*
X120001Y350339D01*
X120024Y349390D01*
X120094Y348618D01*
X120172Y348149D01*
X120297Y347537D01*
X120430Y347106D01*
X120594Y346573D01*
X120764Y346161D01*
X121163Y345296D01*
X121388Y344901D01*
X121648Y344491D01*
X121952Y344051D01*
X122280Y343641D01*
X122687Y343180D01*
X123091Y342775D01*
X123701Y342220D01*
X124248Y341818D01*
X124631Y341556D01*
X125035Y341317D01*
X125678Y340978D01*
X126160Y340765D01*
X126752Y340539D01*
X127352Y340357D01*
X127847Y340234D01*
X128997Y340054D01*
X129344Y340014D01*
X129908Y339992D01*
X131055Y340054D01*
X131680Y340133D01*
X131949Y340192D01*
X132606Y340337D01*
X133007Y340447D01*
X133680Y340706D01*
X133980Y340822D01*
X134408Y341019D01*
X134966Y341317D01*
X135372Y341556D01*
X135803Y341856D01*
X136076Y342046D01*
X136624Y342516D01*
X137013Y342873D01*
X137429Y343290D01*
X137924Y343894D01*
X138170Y344223D01*
X138474Y344689D01*
X138732Y345121D01*
X138967Y345578D01*
X139302Y346317D01*
X139451Y346734D01*
X139681Y347472D01*
X139763Y347832D01*
X139833Y348247D01*
X139905Y348637D01*
X139983Y349307D01*
X139997Y350086D01*
X139928Y351256D01*
X139850Y351745D01*
X139763Y352206D01*
X139479Y353195D01*
X139328Y353618D01*
X139091Y354170D01*
X138848Y354652D01*
X138596Y355116D01*
X138402Y355407D01*
X138170Y355777D01*
X137570Y356540D01*
X137013Y357126D01*
X136326Y357752D01*
X135990Y358010D01*
X135577Y358302D01*
X134857Y358761D01*
X134480Y358934D01*
X134005Y359167D01*
X133418Y359397D01*
X132799Y359603D01*
X132338Y359724D01*
X131467Y359902D01*
X130699Y359976D01*
X129978Y360000D01*
D02*
G37*
G36*
X95000Y355000D02*
X60000D01*
Y335000D01*
X95000D01*
Y355000D01*
D02*
G37*
G36*
X47600Y265501D02*
X28600D01*
Y242500D01*
X47600D01*
Y265501D01*
D02*
G37*
%LPD*%
D10*
X86402Y778000D02*
G03*
X86402Y778000I-11402J0D01*
G01*
X-63598D02*
G03*
X-63598Y778000I-11402J0D01*
G01*
X195402Y322000D02*
G03*
X195402Y322000I-11402J0D01*
G01*
X135402Y5000D02*
G03*
X135402Y5000I-11402J0D01*
G01*
X195402Y193000D02*
G03*
X195402Y193000I-11402J0D01*
G01*
X-70598Y-40000D02*
G03*
X-70598Y-40000I-11402J0D01*
G01*
X-64999Y303064D02*
G03*
X-69999Y308064I-5000J0D01*
G01*
Y278064D02*
G03*
X-64999Y283064I0J5000D01*
G01*
X133999Y307936D02*
G03*
X128999Y302936I0J-5000D01*
G01*
Y282936D02*
G03*
X133999Y277936I5000J0D01*
G01*
X35000Y395500D02*
G03*
X40000Y390500I5000J0D01*
G01*
X-30000Y795000D02*
G03*
X-35000Y790000I0J-5000D01*
G01*
X-40000Y390500D02*
G03*
X-35000Y395500I0J5000D01*
G01*
X104000Y150500D02*
G03*
X84000Y130500I0J-20000D01*
G01*
X35000Y790000D02*
G03*
X30000Y795000I-5000J0D01*
G01*
X-85000Y308000D02*
Y390500D01*
X-84999Y278064D02*
X-69999D01*
X-84999Y308064D02*
X-69999D01*
X-64999Y283064D02*
Y303064D01*
X128999Y282936D02*
Y302936D01*
X133999Y277936D02*
X148999D01*
X133999Y307936D02*
X148999D01*
X149000Y308000D02*
Y390500D01*
X84000Y0D02*
Y130500D01*
X84000Y-0D02*
X84000Y0D01*
X-85000Y-0D02*
X84000D01*
X-85000Y390500D02*
X-40000D01*
X-85000Y-0D02*
Y278000D01*
X104000Y150500D02*
X149000D01*
Y278000D01*
X40000Y390500D02*
X149000D01*
X35000Y395500D02*
Y790000D01*
X-30000Y795000D02*
X30000D01*
X-35000Y395500D02*
Y790000D01*
D11*
X76200Y189799D02*
D03*
X101600D02*
D03*
D12*
X-38100Y11999D02*
D03*
X-12700D02*
D03*
X12700D02*
D03*
X38100D02*
D03*
X-38100Y254000D02*
D03*
X-12700D02*
D03*
X38100D02*
D03*
X12700D02*
D03*
D13*
X130000Y350000D02*
D03*
X-69000Y16000D02*
D03*
X75000Y778000D02*
D03*
X-75000D02*
D03*
X184000Y322000D02*
D03*
X124000Y5000D02*
D03*
X184000Y193000D02*
D03*
X-82000Y-40000D02*
D03*
D14*
X-25002Y778001D02*
D03*
X-15002D02*
D03*
X-5002D02*
D03*
X5000D02*
D03*
X15000D02*
D03*
X25000D02*
D03*
D15*
X12600Y18349D02*
Y162900D01*
X-38200Y260350D02*
Y326799D01*
X12600Y260350D02*
Y337401D01*
X76100Y196149D02*
Y287899D01*
X-12800Y260350D02*
Y337200D01*
X-5000Y345001D02*
Y770000D01*
X-15000Y349999D02*
Y770000D01*
X-25000Y354500D02*
Y770000D01*
X-38200Y326799D02*
X-15000Y349999D01*
X-12800Y337200D02*
X-5000Y345001D01*
X5000D02*
X12600Y337401D01*
X-55000Y230500D02*
Y324500D01*
X-25000Y354500D01*
X-55000Y230500D02*
X12600Y162900D01*
X15000Y349001D02*
X76100Y287899D01*
X5000Y345001D02*
Y770000D01*
X15000Y349001D02*
Y770000D01*
D16*
X101500Y196149D02*
Y291000D01*
D17*
X25000Y380500D02*
X25000Y770000D01*
X25000Y364499D02*
Y380500D01*
D18*
X70000Y340000D02*
X73332D01*
X71666D01*
Y349997D01*
X70000Y348331D01*
D19*
X84000Y65000D02*
D03*
Y59000D02*
D03*
Y71000D02*
D03*
X-85000Y65000D02*
D03*
Y71000D02*
D03*
Y59000D02*
D03*
X150000Y360000D02*
D03*
Y354000D02*
D03*
Y366000D02*
D03*
X-85000Y360000D02*
D03*
Y366000D02*
D03*
Y354000D02*
D03*
D20*
X48000Y359000D02*
D03*
X109000Y354000D02*
D03*
X-61000Y348000D02*
D03*
X61000Y379500D02*
D03*
X115000Y235000D02*
D03*
Y180000D02*
D03*
X77500Y126500D02*
D03*
Y6500D02*
D03*
X-78500Y50000D02*
D03*
X-26000Y6500D02*
D03*
X77500Y88000D02*
D03*
X-78500Y100000D02*
D03*
Y150000D02*
D03*
Y200000D02*
D03*
Y250000D02*
D03*
X-77000Y315000D02*
D03*
X-1Y296499D02*
D03*
Y195499D02*
D03*
X0Y150000D02*
D03*
X-50500Y31000D02*
D03*
X142500Y212000D02*
D03*
X141500Y380000D02*
D03*
X25000Y380500D02*
D03*
X92499Y380000D02*
D03*
X142500Y260000D02*
D03*
Y314000D02*
D03*
X-78000Y380000D02*
D03*
X-78500Y7000D02*
D03*
X52000D02*
D03*
X99000Y157000D02*
D03*
X142500D02*
D03*
X-35000Y381000D02*
D03*
X-50999Y6500D02*
D03*
X77000Y50000D02*
D03*
X-46000Y322000D02*
D03*
X-21000Y332500D02*
D03*
X0Y338500D02*
D03*
X20500Y332000D02*
D03*
X21000Y34000D02*
D03*
X3500Y34500D02*
D03*
X-30000Y75000D02*
D03*
X0Y100000D02*
D03*
X-30000Y125000D02*
D03*
Y185000D02*
D03*
X-25000Y242000D02*
D03*
X0D02*
D03*
X25000D02*
D03*
X65000Y215000D02*
D03*
Y280000D02*
D03*
X85000Y300000D02*
D03*
X115000Y335000D02*
D03*
Y280000D02*
D03*
M02*
