G04 Layer_Color=128*
%FSLAX44Y44*%
%MOMM*%
G71*
G01*
G75*
%ADD10C,0.2000*%
%ADD45C,0.0508*%
D10*
X-64999Y303064D02*
G03*
X-69999Y308064I-5000J0D01*
G01*
Y278064D02*
G03*
X-64999Y283064I0J5000D01*
G01*
X133999Y307936D02*
G03*
X128999Y302936I0J-5000D01*
G01*
Y282936D02*
G03*
X133999Y277936I5000J0D01*
G01*
X35000Y395500D02*
G03*
X40000Y390500I5000J0D01*
G01*
X-30000Y795000D02*
G03*
X-35000Y790000I0J-5000D01*
G01*
X-40000Y390500D02*
G03*
X-35000Y395500I0J5000D01*
G01*
X104000Y150500D02*
G03*
X84000Y130500I0J-20000D01*
G01*
X35000Y790000D02*
G03*
X30000Y795000I-5000J0D01*
G01*
X-85000Y308000D02*
Y390500D01*
X-84999Y278064D02*
X-69999D01*
X-84999Y308064D02*
X-69999D01*
X-64999Y283064D02*
Y303064D01*
X128999Y282936D02*
Y302936D01*
X133999Y277936D02*
X148999D01*
X133999Y307936D02*
X148999D01*
X149000Y308000D02*
Y390500D01*
X84000Y0D02*
Y130500D01*
X84000Y-0D02*
X84000Y0D01*
X-85000Y-0D02*
X84000D01*
X-85000Y390500D02*
X-40000D01*
X-85000Y-0D02*
Y278000D01*
X104000Y150500D02*
X149000D01*
Y278000D01*
X40000Y390500D02*
X149000D01*
X35000Y395500D02*
Y790000D01*
X-30000Y795000D02*
X30000D01*
X-35000Y395500D02*
Y790000D01*
D45*
X81500Y65000D02*
X86500D01*
X84000Y62500D02*
Y67500D01*
X81500Y59000D02*
X86500D01*
X84000Y56500D02*
Y61500D01*
X81500Y71000D02*
X86500D01*
X84000Y68500D02*
Y73500D01*
X-87500Y65000D02*
X-82500D01*
X-85000Y62500D02*
Y67500D01*
X-87500Y71000D02*
X-82500D01*
X-85000Y68500D02*
Y73500D01*
X-87500Y59000D02*
X-82500D01*
X-85000Y56500D02*
Y61500D01*
X147500Y360000D02*
X152500D01*
X150000Y357500D02*
Y362500D01*
X147500Y354000D02*
X152500D01*
X150000Y351500D02*
Y356500D01*
X147500Y366000D02*
X152500D01*
X150000Y363500D02*
Y368500D01*
X-87500Y360000D02*
X-82500D01*
X-85000Y357500D02*
Y362500D01*
X-87500Y366000D02*
X-82500D01*
X-85000Y363500D02*
Y368500D01*
X-87500Y354000D02*
X-82500D01*
X-85000Y351500D02*
Y356500D01*
X46500Y359000D02*
X49500D01*
X48000Y357500D02*
Y360500D01*
X107500Y354000D02*
X110500D01*
X109000Y352500D02*
Y355500D01*
X-62500Y348000D02*
X-59500D01*
X-61000Y346500D02*
Y349500D01*
X59500Y379500D02*
X62500D01*
X61000Y378000D02*
Y381000D01*
X113500Y235000D02*
X116500D01*
X115000Y233500D02*
Y236500D01*
X113500Y180000D02*
X116500D01*
X115000Y178500D02*
Y181500D01*
X76000Y126500D02*
X79000D01*
X77500Y125000D02*
Y128000D01*
X76000Y6500D02*
X79000D01*
X77500Y5000D02*
Y8000D01*
X-80000Y50000D02*
X-77000D01*
X-78500Y48500D02*
Y51500D01*
X-27500Y6500D02*
X-24500D01*
X-26000Y5000D02*
Y8000D01*
X76000Y88000D02*
X79000D01*
X77500Y86500D02*
Y89500D01*
X-80000Y100000D02*
X-77000D01*
X-78500Y98500D02*
Y101500D01*
X-80000Y150000D02*
X-77000D01*
X-78500Y148500D02*
Y151500D01*
X-80000Y200000D02*
X-77000D01*
X-78500Y198500D02*
Y201500D01*
X-80000Y250000D02*
X-77000D01*
X-78500Y248500D02*
Y251500D01*
Y315000D02*
X-75500D01*
X-77000Y313500D02*
Y316500D01*
X-1501Y296499D02*
X1499D01*
X-1Y294999D02*
Y297999D01*
X-1501Y195499D02*
X1499D01*
X-1Y193999D02*
Y196999D01*
X-1500Y150000D02*
X1500D01*
X0Y148500D02*
Y151500D01*
X-52000Y31000D02*
X-49000D01*
X-50500Y29500D02*
Y32500D01*
X141000Y212000D02*
X144000D01*
X142500Y210500D02*
Y213500D01*
X140000Y380000D02*
X143000D01*
X141500Y378500D02*
Y381500D01*
X23500Y380500D02*
X26500D01*
X25000Y379000D02*
Y382000D01*
X90999Y380000D02*
X93999D01*
X92499Y378500D02*
Y381500D01*
X141000Y260000D02*
X144000D01*
X142500Y258500D02*
Y261500D01*
X141000Y314000D02*
X144000D01*
X142500Y312500D02*
Y315500D01*
X-79500Y380000D02*
X-76500D01*
X-78000Y378500D02*
Y381500D01*
X-80000Y7000D02*
X-77000D01*
X-78500Y5500D02*
Y8500D01*
X50500Y7000D02*
X53500D01*
X52000Y5500D02*
Y8500D01*
X97500Y157000D02*
X100500D01*
X99000Y155500D02*
Y158500D01*
X141000Y157000D02*
X144000D01*
X142500Y155500D02*
Y158500D01*
X-36500Y381000D02*
X-33500D01*
X-35000Y379500D02*
Y382500D01*
X-52499Y6500D02*
X-49499D01*
X-50999Y5000D02*
Y8000D01*
X75500Y50000D02*
X78500D01*
X77000Y48500D02*
Y51500D01*
X-47500Y322000D02*
X-44500D01*
X-46000Y320500D02*
Y323500D01*
X-22500Y332500D02*
X-19500D01*
X-21000Y331000D02*
Y334000D01*
X-1500Y338500D02*
X1500D01*
X0Y337000D02*
Y340000D01*
X19000Y332000D02*
X22000D01*
X20500Y330500D02*
Y333500D01*
X19500Y34000D02*
X22500D01*
X21000Y32500D02*
Y35500D01*
X2000Y34500D02*
X5000D01*
X3500Y33000D02*
Y36000D01*
X-31500Y75000D02*
X-28500D01*
X-30000Y73500D02*
Y76500D01*
X-1500Y100000D02*
X1500D01*
X0Y98500D02*
Y101500D01*
X-31500Y125000D02*
X-28500D01*
X-30000Y123500D02*
Y126500D01*
X-31500Y185000D02*
X-28500D01*
X-30000Y183500D02*
Y186500D01*
X-26500Y242000D02*
X-23500D01*
X-25000Y240500D02*
Y243500D01*
X-1500Y242000D02*
X1500D01*
X0Y240500D02*
Y243500D01*
X23500Y242000D02*
X26500D01*
X25000Y240500D02*
Y243500D01*
X63500Y215000D02*
X66500D01*
X65000Y213500D02*
Y216500D01*
X63500Y280000D02*
X66500D01*
X65000Y278500D02*
Y281500D01*
X83500Y300000D02*
X86500D01*
X85000Y298500D02*
Y301500D01*
X113500Y335000D02*
X116500D01*
X115000Y333500D02*
Y336500D01*
X113500Y280000D02*
X116500D01*
X115000Y278500D02*
Y281500D01*
M02*
