G04 Layer_Physical_Order=2*
G04 Layer_Color=16711680*
%FSLAX44Y44*%
%MOMM*%
G71*
G01*
G75*
%ADD10C,0.2000*%
%ADD18C,0.2500*%
%ADD19C,0.5000*%
%ADD20C,0.6500*%
G36*
X146000Y381000D02*
Y372805D01*
X143694Y371075D01*
X143510Y370871D01*
X143282Y370718D01*
X143014Y370317D01*
X142692Y369958D01*
X142601Y369699D01*
X142449Y369471D01*
X142355Y368998D01*
X142195Y368544D01*
X142210Y368269D01*
X142156Y368000D01*
Y352000D01*
X142210Y351731D01*
X142195Y351456D01*
X142355Y351002D01*
X142449Y350529D01*
X142601Y350301D01*
X142692Y350042D01*
X143014Y349683D01*
X143282Y349282D01*
X143510Y349129D01*
X143694Y348925D01*
X146000Y347195D01*
Y309627D01*
X133003D01*
X132704Y309504D01*
X132380Y309503D01*
X130538Y308738D01*
X130309Y308510D01*
X130010Y308385D01*
X128602Y306972D01*
X128479Y306673D01*
X128251Y306444D01*
X127492Y304599D01*
X127492Y304276D01*
X127369Y303976D01*
X127373Y302979D01*
Y283021D01*
X127371Y282526D01*
X127420Y282407D01*
X127427Y282335D01*
X127402Y282208D01*
X127478Y281820D01*
X127479Y281802D01*
X127482Y281796D01*
X127592Y281237D01*
X127685Y281098D01*
X127684Y280931D01*
X128062Y280016D01*
X128180Y279898D01*
X128212Y279734D01*
X128339Y279543D01*
X128342Y279537D01*
X128346Y279533D01*
X128692Y279014D01*
X128694Y279011D01*
X128696Y279008D01*
X128761Y278911D01*
X128859Y278845D01*
X128910Y278795D01*
X128964Y278664D01*
X129314Y278314D01*
X129314Y278314D01*
X129664Y277964D01*
X129795Y277910D01*
X129845Y277859D01*
X129911Y277761D01*
X130008Y277696D01*
X130073Y277631D01*
X130159Y277595D01*
X130533Y277346D01*
X130600Y277279D01*
X130688Y277243D01*
X130734Y277212D01*
X130788Y277201D01*
X130939Y277139D01*
X131016Y277062D01*
X131931Y276684D01*
X132035Y276684D01*
X132202Y276616D01*
X132237Y276592D01*
X132277Y276584D01*
X132402Y276532D01*
X132541D01*
X132710Y276499D01*
X132865Y276417D01*
X133840Y276321D01*
X133924Y276346D01*
X134006Y276313D01*
X145100Y276360D01*
X146000Y275464D01*
X146000Y155500D01*
X144000Y153500D01*
X94500D01*
X81000Y140000D01*
Y78555D01*
X77694Y76075D01*
X77510Y75871D01*
X77282Y75718D01*
X77014Y75317D01*
X76693Y74958D01*
X76601Y74699D01*
X76449Y74471D01*
X76355Y73998D01*
X76195Y73544D01*
X76210Y73269D01*
X76156Y73000D01*
Y57000D01*
X76210Y56731D01*
X76195Y56456D01*
X76355Y56002D01*
X76449Y55529D01*
X76601Y55301D01*
X76693Y55042D01*
X77014Y54683D01*
X77282Y54282D01*
X77510Y54129D01*
X77694Y53925D01*
X81000Y51445D01*
Y4500D01*
X79500Y3000D01*
X-80500D01*
X-82000Y4500D01*
Y51445D01*
X-78694Y53925D01*
X-78510Y54129D01*
X-78282Y54282D01*
X-78014Y54683D01*
X-77692Y55042D01*
X-77601Y55301D01*
X-77449Y55529D01*
X-77355Y56002D01*
X-77195Y56456D01*
X-77210Y56731D01*
X-77156Y57000D01*
Y73000D01*
X-77210Y73269D01*
X-77195Y73544D01*
X-77355Y73998D01*
X-77449Y74471D01*
X-77601Y74699D01*
X-77692Y74958D01*
X-78014Y75317D01*
X-78282Y75718D01*
X-78510Y75871D01*
X-78694Y76075D01*
X-82000Y78555D01*
X-82000Y276373D01*
X-69005D01*
X-68706Y276496D01*
X-68383D01*
X-66544Y277258D01*
X-66316Y277486D01*
X-66017Y277610D01*
X-64610Y279018D01*
X-64486Y279316D01*
X-64258Y279544D01*
X-63496Y281383D01*
Y281706D01*
X-63373Y282005D01*
Y303995D01*
X-63496Y304294D01*
Y304617D01*
X-64258Y306456D01*
X-64486Y306684D01*
X-64610Y306982D01*
X-66017Y308390D01*
X-66316Y308514D01*
X-66544Y308742D01*
X-68383Y309504D01*
X-68706D01*
X-68749Y309521D01*
X-68864Y309583D01*
X-68909Y309588D01*
X-69005Y309627D01*
X-69313D01*
X-69840Y309679D01*
X-69924Y309654D01*
X-70006Y309687D01*
X-81100Y309640D01*
X-82000Y310536D01*
X-82000Y346445D01*
X-78694Y348925D01*
X-78510Y349129D01*
X-78282Y349282D01*
X-78014Y349683D01*
X-77692Y350042D01*
X-77601Y350301D01*
X-77449Y350529D01*
X-77355Y351002D01*
X-77195Y351456D01*
X-77210Y351731D01*
X-77156Y352000D01*
Y368000D01*
X-77210Y368269D01*
X-77195Y368544D01*
X-77355Y368998D01*
X-77449Y369471D01*
X-77601Y369699D01*
X-77692Y369958D01*
X-78014Y370317D01*
X-78282Y370718D01*
X-78510Y370871D01*
X-78694Y371075D01*
X-82000Y373555D01*
Y381000D01*
X-78000Y385000D01*
X142000Y385000D01*
X146000Y381000D01*
D02*
G37*
%LPC*%
G36*
X95000Y355000D02*
X60000D01*
Y335000D01*
X95000D01*
Y355000D01*
D02*
G37*
%LPD*%
D10*
X-64999Y303064D02*
G03*
X-69999Y308064I-5000J0D01*
G01*
Y278064D02*
G03*
X-64999Y283064I0J5000D01*
G01*
X133999Y307936D02*
G03*
X128999Y302936I0J-5000D01*
G01*
Y282936D02*
G03*
X133999Y277936I5000J0D01*
G01*
X35000Y395500D02*
G03*
X40000Y390500I5000J0D01*
G01*
X-30000Y795000D02*
G03*
X-35000Y790000I0J-5000D01*
G01*
X-40000Y390500D02*
G03*
X-35000Y395500I0J5000D01*
G01*
X104000Y150500D02*
G03*
X84000Y130500I0J-20000D01*
G01*
X35000Y790000D02*
G03*
X30000Y795000I-5000J0D01*
G01*
X-85000Y308000D02*
Y390500D01*
X-84999Y278064D02*
X-69999D01*
X-84999Y308064D02*
X-69999D01*
X-64999Y283064D02*
Y303064D01*
X128999Y282936D02*
Y302936D01*
X133999Y277936D02*
X148999D01*
X133999Y307936D02*
X148999D01*
X149000Y308000D02*
Y390500D01*
X84000Y0D02*
Y130500D01*
X84000Y-0D02*
X84000Y0D01*
X-85000Y-0D02*
X84000D01*
X-85000Y390500D02*
X-40000D01*
X-85000Y-0D02*
Y278000D01*
X104000Y150500D02*
X149000D01*
Y278000D01*
X40000Y390500D02*
X149000D01*
X35000Y395500D02*
Y790000D01*
X-30000Y795000D02*
X30000D01*
X-35000Y395500D02*
Y790000D01*
D18*
X80336Y340000D02*
X87000D01*
X80336Y346665D01*
Y348331D01*
X82002Y349997D01*
X85334D01*
X87000Y348331D01*
D19*
X84000Y65000D02*
D03*
Y59000D02*
D03*
Y71000D02*
D03*
X-85000Y65000D02*
D03*
Y71000D02*
D03*
Y59000D02*
D03*
X150000Y360000D02*
D03*
Y354000D02*
D03*
Y366000D02*
D03*
X-85000Y360000D02*
D03*
Y366000D02*
D03*
Y354000D02*
D03*
D20*
X48000Y359000D02*
D03*
X109000Y354000D02*
D03*
X-61000Y348000D02*
D03*
X61000Y379500D02*
D03*
X115000Y235000D02*
D03*
Y180000D02*
D03*
X77500Y126500D02*
D03*
Y6500D02*
D03*
X-78500Y50000D02*
D03*
X-26000Y6500D02*
D03*
X77500Y88000D02*
D03*
X-78500Y100000D02*
D03*
Y150000D02*
D03*
Y200000D02*
D03*
Y250000D02*
D03*
X-77000Y315000D02*
D03*
X-1Y296499D02*
D03*
Y195499D02*
D03*
X0Y150000D02*
D03*
X-50500Y31000D02*
D03*
X142500Y212000D02*
D03*
X141500Y380000D02*
D03*
X25000Y380500D02*
D03*
X92499Y380000D02*
D03*
X142500Y260000D02*
D03*
Y314000D02*
D03*
X-78000Y380000D02*
D03*
X-78500Y7000D02*
D03*
X52000D02*
D03*
X99000Y157000D02*
D03*
X142500D02*
D03*
X-35000Y381000D02*
D03*
X-50999Y6500D02*
D03*
X77000Y50000D02*
D03*
X-46000Y322000D02*
D03*
X-21000Y332500D02*
D03*
X0Y338500D02*
D03*
X20500Y332000D02*
D03*
X21000Y34000D02*
D03*
X3500Y34500D02*
D03*
X-30000Y75000D02*
D03*
X0Y100000D02*
D03*
X-30000Y125000D02*
D03*
Y185000D02*
D03*
X-25000Y242000D02*
D03*
X0D02*
D03*
X25000D02*
D03*
X65000Y215000D02*
D03*
Y280000D02*
D03*
X85000Y300000D02*
D03*
X115000Y335000D02*
D03*
Y280000D02*
D03*
M02*
