G04 Layer_Color=61183*
%FSLAX44Y44*%
%MOMM*%
G71*
G01*
G75*
%ADD10C,0.2000*%
%ADD16C,0.1999*%
D10*
X-64999Y303064D02*
G03*
X-69999Y308064I-5000J0D01*
G01*
Y278064D02*
G03*
X-64999Y283064I0J5000D01*
G01*
X133999Y307936D02*
G03*
X128999Y302936I0J-5000D01*
G01*
Y282936D02*
G03*
X133999Y277936I5000J0D01*
G01*
X35000Y395500D02*
G03*
X40000Y390500I5000J0D01*
G01*
X-30000Y795000D02*
G03*
X-35000Y790000I0J-5000D01*
G01*
X-40000Y390500D02*
G03*
X-35000Y395500I0J5000D01*
G01*
X104000Y150500D02*
G03*
X84000Y130500I0J-20000D01*
G01*
X35000Y790000D02*
G03*
X30000Y795000I-5000J0D01*
G01*
X-85000Y308000D02*
Y390500D01*
X-84999Y278064D02*
X-69999D01*
X-84999Y308064D02*
X-69999D01*
X-64999Y283064D02*
Y303064D01*
X128999Y282936D02*
Y302936D01*
X133999Y277936D02*
X148999D01*
X133999Y307936D02*
X148999D01*
X149000Y308000D02*
Y390500D01*
X84000Y0D02*
Y130500D01*
X84000Y-0D02*
X84000Y0D01*
X-85000Y-0D02*
X84000D01*
X-85000Y390500D02*
X-40000D01*
X-85000Y-0D02*
Y278000D01*
X104000Y150500D02*
X149000D01*
Y278000D01*
X40000Y390500D02*
X149000D01*
X35000Y395500D02*
Y790000D01*
X-30000Y795000D02*
X30000D01*
X-35000Y395500D02*
Y790000D01*
D16*
X61999Y24001D02*
Y49000D01*
X55001D02*
X61999D01*
X55001D02*
Y201801D01*
X-61999Y24001D02*
Y49000D01*
X-55001D01*
Y217000D01*
X-61999D02*
X-55001D01*
X-61999D02*
Y241999D01*
X55001D02*
Y318501D01*
X119499D01*
Y226800D02*
Y318501D01*
Y226800D02*
X126500D01*
Y201801D02*
Y226800D01*
X55001Y201801D02*
X126500D01*
X-61999Y24001D02*
X61999D01*
X-61999Y241999D02*
X55001D01*
M02*
