M48
;Layer_Color=9474304
;FILE_FORMAT=4:4
METRIC,LZ
;TYPE=PLATED
T1F00S00C0.3000
%
T01
X0271718Y01845692
X02744681Y01845191
X0274518Y01869692
X0271718Y01888692
Y01938692
Y01988692
Y02038692
Y02088692
X0277068Y02080692
X0279568
X0282068
X0286068Y02053692
Y02118692
X0288068Y02138692
X0291068Y02118692
Y02073692
X0293818Y02050692
Y02098692
Y02152692
X0291068Y02173692
X0281618Y02170692
X0279568Y02177192
X0277468Y02171192
X0274968Y02160692
X0271868Y02153692
X0273468Y02186692
X02795679Y02135191
Y0203419
X0276568Y02023692
Y01963692
Y01913692
X0279568Y01938692
Y01988692
X0287318Y01965192
Y01926692
X0287268Y01888692
X0287318Y01845192
X0284768Y01845692
X0281668Y01872692
X0279918Y01873192
X0276968Y01845192
X0289468Y01995692
X0291068Y02018692
X0293818Y01995692
X0293718Y02218692
X02888179Y02218692
X0285668Y02218192
X0284368Y02197692
X0282068Y02219192
X0276068Y02219692
X0271768Y02218692
X0290468Y02192692
M30
