M48
;Layer_Color=9474304
;FILE_FORMAT=4:4
METRIC,LZ
T3F00S00C2.0000
%
G90
G05
T03
G00X00087137Y-00009495
M15
G01X00089957Y-00008032
G01X00092176Y-00005758
G01X0009357Y-00002902
G01X00094Y0
G01X00094Y001305
G01X0009397Y00130687
G01X00094145Y0013246
G01X00094716Y00134345
G01X00095645Y00136083
G01X00096895Y00137605
G01X00098417Y00138855
G01X00100155Y00139783
G01X0010204Y00140355
G01X00104481Y00140596
G01X00148978Y001405
G01X00152117Y00140998
G01X0015494Y00142455
G01X00157164Y00144725
G01X00158563Y00147577
G01X00159Y001505
G01X00158999Y00277936
G01X00158494Y00281073
G01X00157031Y00283894
G01X00154757Y00286113
G01X00151901Y00287506
G01X00148999Y00287936
G01X00138999Y00287936
G01X00138999Y00297936
G01X00148999Y00297936
G01X00152136Y00298441
G01X00154956Y00299904
G01X00157175Y00302179
G01X00158569Y00305034
G01X00158999Y00307936
G01X00159Y003905
G01X00158495Y00393637
G01X00157032Y00396457
G01X00154758Y00398676
G01X00151902Y0040007
G01X00149Y004005
G01X00044903Y004005
G01X00045Y00789546
G01X00045095Y00790246
G01X00044906Y00791951
G01X00044518Y00793902
G01X00043025Y00797507
G01X0004192Y00799161
G01X00039161Y0080192
G01X00037507Y00803025
G01X00033902Y00804518
G01X00031951Y00804906
G01X00029984Y00805098
G01X-00029552Y00805001
G01X-00030246Y00805095
G01X-00031951Y00804906
G01X-00033902Y00804518
G01X-00037507Y00803025
G01X-00039161Y0080192
G01X-00041919Y00799161
G01X-00043025Y00797507
G01X-00044518Y00793902
G01X-00044906Y00791951
G01X-00045098Y00789998
G01X-00045001Y004005
G01X-00085Y004005
G01X-00088137Y00399995
G01X-00090957Y00398531
G01X-00093176Y00396257
G01X-0009457Y00393402
G01X-00095Y003905
G01X-00094999Y00308064
G01X-00094494Y00304927
G01X-00093031Y00302106
G01X-00090757Y00299887
G01X-00087901Y00298494
G01X-00084999Y00298064
G01X-00074999Y00298064
G01X-00074999Y00288064
G01X-00084999Y00288064
G01X-00088136Y00287559
G01X-00090956Y00286096
G01X-00093175Y00283821
G01X-00094569Y00280966
G01X-00094999Y00278064
G01X-00095Y0
G01X-00094495Y-00003137
G01X-00093032Y-00005957
G01X-00090758Y-00008176
G01X-00087902Y-0000957
G01X-00085Y-0001
G01X00084Y-0001
G01X00087137Y-00009495
M16
M17
M30
