G04 Layer_Color=128*
%FSLAX25Y25*%
%MOIN*%
G70*
G01*
G75*
%ADD200C,0.00200*%
D200*
X53937Y11811D02*
X64173D01*
X59055Y6693D02*
Y16929D01*
X644488Y417323D02*
X654724D01*
X649606Y412205D02*
Y422441D01*
X53937Y417323D02*
X64173D01*
X59055Y412205D02*
Y422441D01*
X644488Y11811D02*
X654724D01*
X649606Y6693D02*
Y16929D01*
X217796Y284646D02*
X220945D01*
X219370Y283071D02*
Y286221D01*
X224882Y284646D02*
X228032D01*
X226457Y283071D02*
Y286221D01*
X176772Y264961D02*
X192520D01*
X184646Y257087D02*
Y272835D01*
X9646Y225197D02*
X11614D01*
X10630Y224213D02*
Y226181D01*
X9646Y222047D02*
X11614D01*
X10630Y221063D02*
Y223031D01*
X9646Y218898D02*
X11614D01*
X10630Y217913D02*
Y219882D01*
X9646Y215748D02*
X11614D01*
X10630Y214764D02*
Y216732D01*
X228150Y215748D02*
X230118D01*
X229134Y214764D02*
Y216732D01*
X228150Y218898D02*
X230118D01*
X229134Y217913D02*
Y219882D01*
X228150Y222047D02*
X230118D01*
X229134Y221063D02*
Y223031D01*
X228150Y225197D02*
X230118D01*
X229134Y224213D02*
Y226181D01*
X4725Y310709D02*
X7087D01*
X5906Y309528D02*
Y311890D01*
X20473Y266457D02*
X22835D01*
X21654Y265276D02*
Y267638D01*
X20473Y310709D02*
X22835D01*
X21654Y309528D02*
Y311890D01*
X4725Y266457D02*
X7087D01*
X5906Y265276D02*
Y267638D01*
X40945Y360709D02*
X53544D01*
X47245Y354410D02*
Y367008D01*
X204319Y75276D02*
X216918D01*
X210618Y68976D02*
Y81575D01*
X71935Y178819D02*
X75435D01*
X73685Y177069D02*
Y180569D01*
X63935Y178819D02*
X67435D01*
X65685Y177069D02*
Y180569D01*
X67935Y198819D02*
X71435D01*
X69685Y197069D02*
Y200569D01*
X180906Y309449D02*
X182087D01*
X181496Y308858D02*
Y310039D01*
X185237Y195276D02*
X186418D01*
X185827Y194685D02*
Y195866D01*
X58465Y221654D02*
X59646D01*
X59056Y221063D02*
Y222244D01*
X57678Y172047D02*
X58859D01*
X58268Y171457D02*
Y172638D01*
X205709Y163386D02*
X206890D01*
X206300Y162795D02*
Y163976D01*
X132481Y143307D02*
X133662D01*
X133071Y142717D02*
Y143898D01*
X134843Y116535D02*
X136024D01*
X135433Y115945D02*
Y117126D01*
X126575Y122047D02*
X127756D01*
X127166Y121457D02*
Y122638D01*
X56890Y71260D02*
X58071D01*
X57481Y70669D02*
Y71850D01*
X211615Y170473D02*
X212796D01*
X212205Y169882D02*
Y171063D01*
X123819Y175197D02*
X125000D01*
X124410Y174606D02*
Y175787D01*
X76969Y192520D02*
X78150D01*
X77559Y191929D02*
Y193110D01*
X83268Y180315D02*
X84449D01*
X83859Y179724D02*
Y180905D01*
X113189Y259449D02*
X114371D01*
X113780Y258858D02*
Y260039D01*
X197048Y70866D02*
X198229D01*
X197638Y70276D02*
Y71457D01*
X158071Y122835D02*
X159252D01*
X158662Y122244D02*
Y123425D01*
X152559Y178347D02*
X153741D01*
X153150Y177756D02*
Y178937D01*
X174607Y209842D02*
X175788D01*
X175197Y209252D02*
Y210433D01*
X222441Y241339D02*
X223229D01*
X222835Y240945D02*
Y241732D01*
X152953Y236221D02*
X154134D01*
X153544Y235630D02*
Y236811D01*
X112205Y246850D02*
X112993D01*
X112599Y246457D02*
Y247244D01*
X223622Y235433D02*
X224410D01*
X224016Y235039D02*
Y235827D01*
X217914Y238976D02*
X219095D01*
X218504Y238386D02*
Y239567D01*
X87796Y251969D02*
X88583D01*
X88189Y251575D02*
Y252362D01*
X88977Y256299D02*
X89764D01*
X89370Y255905D02*
Y256693D01*
X97048Y251575D02*
X98229D01*
X97638Y250984D02*
Y252165D01*
X136418Y137795D02*
X137599D01*
X137008Y137205D02*
Y138386D01*
X134449Y169685D02*
X135630D01*
X135040Y169095D02*
Y170276D01*
X83465Y256693D02*
X84252D01*
X83859Y256299D02*
Y257086D01*
X84252Y253937D02*
X85040D01*
X84646Y253543D02*
Y254331D01*
X79331Y218504D02*
X80512D01*
X79922Y217913D02*
Y219094D01*
X131693Y120866D02*
X132874D01*
X132284Y120276D02*
Y121457D01*
X131693Y70866D02*
X132874D01*
X132284Y70276D02*
Y71457D01*
X63583Y216142D02*
X64764D01*
X64174Y215551D02*
Y216732D01*
X142717Y167323D02*
X143898D01*
X143307Y166732D02*
Y167913D01*
X40748Y223622D02*
X41930D01*
X41339Y223031D02*
Y224213D01*
X214370Y210236D02*
X215552D01*
X214961Y209646D02*
Y210827D01*
X30906Y186614D02*
X32087D01*
X31496Y186024D02*
Y187205D01*
X43111Y178740D02*
X44292D01*
X43701Y178150D02*
Y179331D01*
X202953Y332677D02*
X204134D01*
X203544Y332087D02*
Y333268D01*
X135237Y181102D02*
X136418D01*
X135827Y180512D02*
Y181693D01*
X174213Y86614D02*
X175394D01*
X174803Y86024D02*
Y87205D01*
X148229Y82284D02*
X149410D01*
X148819Y81693D02*
Y82874D01*
X160040Y72835D02*
X161221D01*
X160630Y72244D02*
Y73425D01*
X147835Y60630D02*
X149016D01*
X148426Y60039D02*
Y61221D01*
X134055Y63386D02*
X135237D01*
X134646Y62795D02*
Y63976D01*
X135237Y51181D02*
X136418D01*
X135827Y50591D02*
Y51772D01*
X164764Y51181D02*
X165945D01*
X165355Y50591D02*
Y51772D01*
X173032Y59842D02*
X174213D01*
X173622Y59252D02*
Y60433D01*
X212008Y102362D02*
X213189D01*
X212599Y101772D02*
Y102953D01*
X225788Y169291D02*
X226969D01*
X226378Y168701D02*
Y169882D01*
X211615Y162992D02*
X212796D01*
X212205Y162402D02*
Y163583D01*
X212008Y139764D02*
X213189D01*
X212599Y139173D02*
Y140354D01*
X212008Y120079D02*
X213189D01*
X212599Y119488D02*
Y120669D01*
X206496Y64567D02*
X207678D01*
X207087Y63976D02*
Y65158D01*
X202953Y81890D02*
X204134D01*
X203544Y81299D02*
Y82480D01*
X204134Y94488D02*
X205315D01*
X204725Y93898D02*
Y95079D01*
X204528Y117323D02*
X205709D01*
X205118Y116732D02*
Y117913D01*
X204922Y136614D02*
X206103D01*
X205512Y136024D02*
Y137205D01*
X197441Y121653D02*
X198622D01*
X198032Y121063D02*
Y122244D01*
X173032Y103543D02*
X174213D01*
X173622Y102953D02*
Y104134D01*
X173032Y110236D02*
X174213D01*
X173622Y109646D02*
Y110827D01*
X143898Y102756D02*
X145079D01*
X144489Y102165D02*
Y103347D01*
X134843Y102362D02*
X136024D01*
X135433Y101772D02*
Y102953D01*
X144292Y109843D02*
X145473D01*
X144882Y109252D02*
Y110433D01*
X136221Y107480D02*
X137008D01*
X136615Y107087D02*
Y107874D01*
X135630Y133858D02*
X136811D01*
X136221Y133268D02*
Y134449D01*
X145079Y133071D02*
X146260D01*
X145670Y132480D02*
Y133661D01*
X158859Y147638D02*
X160040D01*
X159449Y147047D02*
Y148228D01*
X103741Y209842D02*
X104922D01*
X104331Y209252D02*
Y210433D01*
X87008Y247638D02*
X87796D01*
X87402Y247244D02*
Y248031D01*
X85434Y250000D02*
X86221D01*
X85827Y249606D02*
Y250394D01*
X89764Y245669D02*
X90552D01*
X90158Y245276D02*
Y246063D01*
X87205Y259055D02*
X88386D01*
X87796Y258465D02*
Y259646D01*
X81496Y258661D02*
X82284D01*
X81890Y258268D02*
Y259055D01*
X120276Y139370D02*
X121457D01*
X120867Y138779D02*
Y139961D01*
X95867Y133858D02*
X97048D01*
X96457Y133268D02*
Y134449D01*
X103741Y114173D02*
X104922D01*
X104331Y113583D02*
Y114764D01*
X103741Y102362D02*
X104922D01*
X104331Y101772D02*
Y102953D01*
X95867Y82677D02*
X97048D01*
X96457Y82087D02*
Y83268D01*
X126181Y92520D02*
X127363D01*
X126772Y91929D02*
Y93110D01*
X126969Y70473D02*
X128150D01*
X127559Y69882D02*
Y71063D01*
X84056Y51181D02*
X85237D01*
X84646Y50591D02*
Y51772D01*
X103741Y61024D02*
X104922D01*
X104331Y60433D02*
Y61614D01*
X63583Y63779D02*
X64764D01*
X64174Y63189D02*
Y64370D01*
X56496Y86614D02*
X57678D01*
X57087Y86024D02*
Y87205D01*
X75788Y70866D02*
X76969D01*
X76378Y70276D02*
Y71457D01*
X32874Y51181D02*
X34056D01*
X33465Y50591D02*
Y51772D01*
X32874Y75197D02*
X34056D01*
X33465Y74606D02*
Y75787D01*
X32874Y94488D02*
X34056D01*
X33465Y93898D02*
Y95079D01*
X76182Y102362D02*
X77363D01*
X76772Y101772D02*
Y102953D01*
X66339Y112205D02*
X67520D01*
X66930Y111614D02*
Y112795D01*
X76182Y122047D02*
X77363D01*
X76772Y121457D02*
Y122638D01*
X48622Y125984D02*
X49804D01*
X49213Y125394D02*
Y126575D01*
X32874Y114173D02*
X34056D01*
X33465Y113583D02*
Y114764D01*
X32874Y137795D02*
X34056D01*
X33465Y137205D02*
Y138386D01*
X32874Y157480D02*
X34056D01*
X33465Y156890D02*
Y158071D01*
X47835Y229528D02*
X49016D01*
X48426Y228937D02*
Y230118D01*
X73819Y205512D02*
X75000D01*
X74410Y204921D02*
Y206102D01*
X76182Y153543D02*
X77363D01*
X76772Y152953D02*
Y154134D01*
X84056Y153543D02*
X85237D01*
X84646Y152953D02*
Y154134D01*
X103741Y153543D02*
X104922D01*
X104331Y152953D02*
Y154134D01*
X105709Y165354D02*
X106890D01*
X106300Y164764D02*
Y165945D01*
X59252Y166142D02*
X60434D01*
X59843Y165551D02*
Y166732D01*
X84056Y162992D02*
X85237D01*
X84646Y162402D02*
Y163583D01*
X95867Y194882D02*
X97048D01*
X96457Y194291D02*
Y195473D01*
X84843Y201575D02*
X86024D01*
X85434Y200984D02*
Y202165D01*
X107677Y188976D02*
X108859D01*
X108268Y188386D02*
Y189567D01*
X199016Y229528D02*
X200197D01*
X199607Y228937D02*
Y230118D01*
X217520Y222835D02*
X218701D01*
X218111Y222244D02*
Y223425D01*
X217914Y198425D02*
X219095D01*
X218504Y197835D02*
Y199016D01*
X204922Y168504D02*
X206103D01*
X205512Y167913D02*
Y169095D01*
X201378Y142913D02*
X202559D01*
X201969Y142323D02*
Y143504D01*
X184449Y140945D02*
X185630D01*
X185040Y140354D02*
Y141535D01*
X173032Y132677D02*
X174213D01*
X173622Y132087D02*
Y133268D01*
X174213Y155118D02*
X175394D01*
X174803Y154528D02*
Y155709D01*
X143111Y141339D02*
X144292D01*
X143701Y140748D02*
Y141929D01*
X142717Y160630D02*
X143898D01*
X143307Y160039D02*
Y161221D01*
X174213Y161417D02*
X175394D01*
X174803Y160827D02*
Y162008D01*
X169095Y173228D02*
X170276D01*
X169685Y172638D02*
Y173819D01*
X163189Y185827D02*
X164371D01*
X163780Y185236D02*
Y186417D01*
X123426Y192913D02*
X124607D01*
X124016Y192323D02*
Y193504D01*
X135630Y206693D02*
X136811D01*
X136221Y206102D02*
Y207283D01*
X156496Y198031D02*
X157677D01*
X157087Y197441D02*
Y198622D01*
X173032Y206299D02*
X174213D01*
X173622Y205709D02*
Y206890D01*
X141536Y204724D02*
X142717D01*
X142126Y204134D02*
Y205315D01*
X162796Y251969D02*
X163977D01*
X163386Y251378D02*
Y252559D01*
X176575Y228346D02*
X177756D01*
X177166Y227756D02*
Y228937D01*
X161615Y228346D02*
X162796D01*
X162205Y227756D02*
Y228937D01*
X165945Y222441D02*
X167126D01*
X166536Y221850D02*
Y223031D01*
X172638Y214567D02*
X173819D01*
X173229Y213976D02*
Y215158D01*
X176969Y222441D02*
X178150D01*
X177559Y221850D02*
Y223031D01*
X156103Y213386D02*
X157284D01*
X156693Y212795D02*
Y213976D01*
X141929Y228346D02*
X143111D01*
X142520Y227756D02*
Y228937D01*
X135237Y228346D02*
X136418D01*
X135827Y227756D02*
Y228937D01*
X115552Y228346D02*
X116733D01*
X116142Y227756D02*
Y228937D01*
X103741Y216535D02*
X104922D01*
X104331Y215945D02*
Y217126D01*
X96260Y228346D02*
X97441D01*
X96851Y227756D02*
Y228937D01*
X80512Y263779D02*
X81693D01*
X81103Y263189D02*
Y264370D01*
X96260Y240551D02*
X97441D01*
X96851Y239961D02*
Y241142D01*
X110433Y240158D02*
X111615D01*
X111024Y239567D02*
Y240748D01*
X128544Y242913D02*
X129725D01*
X129134Y242323D02*
Y243504D01*
X145079Y240945D02*
X146260D01*
X145670Y240354D02*
Y241535D01*
X147441Y283465D02*
X148622D01*
X148032Y282874D02*
Y284055D01*
X208859Y280315D02*
X210040D01*
X209449Y279724D02*
Y280906D01*
X182481Y279528D02*
X183662D01*
X183071Y278937D02*
Y280118D01*
X153741Y289370D02*
X154922D01*
X154331Y288779D02*
Y289961D01*
X153347Y304331D02*
X154528D01*
X153937Y303740D02*
Y304921D01*
X164371Y285039D02*
X165552D01*
X164961Y284449D02*
Y285630D01*
X186418Y295276D02*
X187599D01*
X187008Y294685D02*
Y295866D01*
X210040Y299213D02*
X211221D01*
X210630Y298622D02*
Y299803D01*
X225788Y318898D02*
X226969D01*
X226378Y318307D02*
Y319488D01*
X225788Y358268D02*
X226969D01*
X226378Y357677D02*
Y358858D01*
X225788Y338583D02*
X226969D01*
X226378Y337992D02*
Y339173D01*
X225788Y377953D02*
X226969D01*
X226378Y377362D02*
Y378543D01*
X225788Y248031D02*
X226969D01*
X226378Y247441D02*
Y248622D01*
X225788Y267717D02*
X226969D01*
X226378Y267126D02*
Y268307D01*
X225788Y299213D02*
X226969D01*
X226378Y298622D02*
Y299803D01*
X206890Y209449D02*
X208071D01*
X207481Y208858D02*
Y210039D01*
X225788Y208661D02*
X226969D01*
X226378Y208071D02*
Y209252D01*
X225788Y188976D02*
X226969D01*
X226378Y188386D02*
Y189567D01*
X225788Y230315D02*
X226969D01*
X226378Y229724D02*
Y230906D01*
X225788Y90551D02*
X226969D01*
X226378Y89961D02*
Y91142D01*
X225788Y129921D02*
X226969D01*
X226378Y129331D02*
Y130512D01*
X225788Y110236D02*
X226969D01*
X226378Y109646D02*
Y110827D01*
X225788Y149606D02*
X226969D01*
X226378Y149016D02*
Y150197D01*
X213977Y31496D02*
X215158D01*
X214567Y30906D02*
Y32087D01*
X225788Y51181D02*
X226969D01*
X226378Y50591D02*
Y51772D01*
X221851Y39370D02*
X223032D01*
X222441Y38780D02*
Y39961D01*
X225788Y70866D02*
X226969D01*
X226378Y70276D02*
Y71457D01*
X135237Y31496D02*
X136418D01*
X135827Y30906D02*
Y32087D01*
X174607Y33071D02*
X175788D01*
X175197Y32480D02*
Y33661D01*
X154922Y31496D02*
X156103D01*
X155512Y30906D02*
Y32087D01*
X194292Y31496D02*
X195473D01*
X194882Y30906D02*
Y32087D01*
X115552Y31496D02*
X116733D01*
X116142Y30906D02*
Y32087D01*
X76182Y31496D02*
X77363D01*
X76772Y30906D02*
Y32087D01*
X95867Y31496D02*
X97048D01*
X96457Y30906D02*
Y32087D01*
X56496Y32677D02*
X57678D01*
X57087Y32087D02*
Y33268D01*
X36811Y31496D02*
X37993D01*
X37402Y30906D02*
Y32087D01*
X22638Y33071D02*
X23819D01*
X23229Y32480D02*
Y33661D01*
X13977Y47244D02*
X15158D01*
X14567Y46654D02*
Y47835D01*
X13189Y66929D02*
X14370D01*
X13780Y66339D02*
Y67520D01*
X13189Y86614D02*
X14370D01*
X13780Y86024D02*
Y87205D01*
X13189Y106299D02*
X14370D01*
X13780Y105709D02*
Y106890D01*
X13189Y125984D02*
X14370D01*
X13780Y125394D02*
Y126575D01*
X13189Y145669D02*
X14370D01*
X13780Y145079D02*
Y146260D01*
X13189Y161417D02*
X14370D01*
X13780Y160827D02*
Y162008D01*
X13189Y190945D02*
X14370D01*
X13780Y190354D02*
Y191535D01*
X11614Y237008D02*
X12796D01*
X12205Y236417D02*
Y237598D01*
X28544Y237008D02*
X29725D01*
X29134Y236417D02*
Y237598D01*
X28544Y248425D02*
X29725D01*
X29134Y247835D02*
Y249016D01*
X28937Y259842D02*
X30119D01*
X29528Y259252D02*
Y260433D01*
X10827Y248819D02*
X12008D01*
X11418Y248228D02*
Y249410D01*
X17126Y216535D02*
X18307D01*
X17717Y215945D02*
Y217126D01*
X46260Y236221D02*
X47441D01*
X46851Y235630D02*
Y236811D01*
X58465Y236221D02*
X59646D01*
X59056Y235630D02*
Y236811D01*
X66733Y236221D02*
X67914D01*
X67323Y235630D02*
Y236811D01*
X52559Y254331D02*
X53741D01*
X53150Y253740D02*
Y254921D01*
X62008Y254331D02*
X63189D01*
X62599Y253740D02*
Y254921D01*
X45079Y254331D02*
X46260D01*
X45670Y253740D02*
Y254921D01*
X45473Y270472D02*
X46654D01*
X46063Y269882D02*
Y271063D01*
X55315Y356693D02*
X56496D01*
X55906Y356102D02*
Y357283D01*
X28937Y364567D02*
X30119D01*
X29528Y363976D02*
Y365158D01*
X54922Y372441D02*
X56103D01*
X55512Y371850D02*
Y373031D01*
X2953Y318898D02*
X4134D01*
X3544Y318307D02*
Y319488D01*
X10827Y324410D02*
X12008D01*
X11418Y323819D02*
Y325000D01*
X14370Y350394D02*
X15552D01*
X14961Y349803D02*
Y350984D01*
X14370Y370079D02*
X15552D01*
X14961Y369488D02*
Y370669D01*
X14370Y389764D02*
X15552D01*
X14961Y389173D02*
Y390354D01*
X25000Y400394D02*
X26182D01*
X25591Y399803D02*
Y400984D01*
X38386Y401181D02*
X39567D01*
X38977Y400591D02*
Y401772D01*
X58465Y400787D02*
X59646D01*
X59056Y400197D02*
Y401378D01*
X84056Y400394D02*
X85237D01*
X84646Y399803D02*
Y400984D01*
X103741Y400394D02*
X104922D01*
X104331Y399803D02*
Y400984D01*
X121457Y400394D02*
X122638D01*
X122048Y399803D02*
Y400984D01*
X143111Y400394D02*
X144292D01*
X143701Y399803D02*
Y400984D01*
X210040Y392520D02*
X211221D01*
X210630Y391929D02*
Y393110D01*
X172245Y392126D02*
X173426D01*
X172835Y391535D02*
Y392717D01*
X160040Y392520D02*
X161221D01*
X160630Y391929D02*
Y393110D01*
X172638Y400787D02*
X173819D01*
X173229Y400197D02*
Y401378D01*
X180119Y377953D02*
X181300D01*
X180709Y377362D02*
Y378543D01*
X164371Y381102D02*
X165552D01*
X164961Y380512D02*
Y381693D01*
X156496Y380709D02*
X157677D01*
X157087Y380118D02*
Y381299D01*
X124607Y375591D02*
X125788D01*
X125197Y375000D02*
Y376181D01*
X106496Y387402D02*
X107677D01*
X107087Y386811D02*
Y387992D01*
X98229Y376772D02*
X99410D01*
X98819Y376181D02*
Y377362D01*
X103347Y366535D02*
X104528D01*
X103937Y365945D02*
Y367126D01*
X117126Y366929D02*
X118307D01*
X117717Y366339D02*
Y367520D01*
X127363Y366929D02*
X128544D01*
X127953Y366339D02*
Y367520D01*
X134843Y359449D02*
X136024D01*
X135433Y358858D02*
Y360039D01*
X126181Y359449D02*
X127363D01*
X126772Y358858D02*
Y360039D01*
X112796Y348819D02*
X113977D01*
X113386Y348228D02*
Y349410D01*
X99410Y336221D02*
X100591D01*
X100000Y335630D02*
Y336811D01*
X92323Y335039D02*
X93504D01*
X92914Y334449D02*
Y335630D01*
X117914Y341732D02*
X119095D01*
X118504Y341142D02*
Y342323D01*
X126181Y350394D02*
X127363D01*
X126772Y349803D02*
Y350984D01*
X109252Y330709D02*
X110433D01*
X109843Y330118D02*
Y331299D01*
X106496Y325984D02*
X107677D01*
X107087Y325394D02*
Y326575D01*
X129922Y346850D02*
X130709D01*
X130315Y346457D02*
Y347244D01*
X172245Y336221D02*
X173426D01*
X172835Y335630D02*
Y336811D01*
X157284Y327559D02*
X158465D01*
X157874Y326969D02*
Y328150D01*
X163780Y366929D02*
X164567D01*
X164174Y366535D02*
Y367323D01*
X176772Y374016D02*
X177559D01*
X177166Y373622D02*
Y374410D01*
X179134Y371654D02*
X179922D01*
X179528Y371260D02*
Y372047D01*
X163386Y375197D02*
X164174D01*
X163780Y374803D02*
Y375591D01*
X149607Y359449D02*
X150394D01*
X150000Y359055D02*
Y359842D01*
X211615Y177165D02*
X212796D01*
X212205Y176575D02*
Y177756D01*
X211615Y173622D02*
X212796D01*
X212205Y173031D02*
Y174213D01*
X211615Y180709D02*
X212796D01*
X212205Y180118D02*
Y181299D01*
X201378Y180709D02*
X202559D01*
X201969Y180118D02*
Y181299D01*
X216339Y375591D02*
X217520D01*
X216930Y375000D02*
Y376181D01*
X191142Y392126D02*
X192323D01*
X191733Y391535D02*
Y392717D01*
X202559Y392520D02*
X203741D01*
X203150Y391929D02*
Y393110D01*
X210040Y381496D02*
X211221D01*
X210630Y380906D02*
Y382087D01*
X206890Y372047D02*
X208071D01*
X207481Y371457D02*
Y372638D01*
X201378Y369685D02*
X202559D01*
X201969Y369094D02*
Y370276D01*
X201378Y362992D02*
X202559D01*
X201969Y362402D02*
Y363583D01*
X201378Y366535D02*
X202559D01*
X201969Y365945D02*
Y367126D01*
X221457Y363779D02*
X222638D01*
X222048Y363189D02*
Y364370D01*
X224607Y385827D02*
X225788D01*
X225197Y385236D02*
Y386417D01*
X217126Y353937D02*
X218307D01*
X217717Y353346D02*
Y354528D01*
X213386Y384252D02*
X214174D01*
X213780Y383858D02*
Y384646D01*
X27363Y242913D02*
X28544D01*
X27953Y242323D02*
Y243504D01*
X61221Y337795D02*
X62402D01*
X61811Y337205D02*
Y338386D01*
X52756Y284252D02*
X53544D01*
X53150Y283858D02*
Y284646D01*
X52756Y291732D02*
X53544D01*
X53150Y291339D02*
Y292126D01*
X27756Y357087D02*
X28937D01*
X28347Y356496D02*
Y357677D01*
X43504Y338976D02*
X44685D01*
X44095Y338386D02*
Y339567D01*
X45867Y341339D02*
X47048D01*
X46457Y340748D02*
Y341929D01*
X45867Y337008D02*
X47048D01*
X46457Y336417D02*
Y337598D01*
X38780Y329134D02*
X39961D01*
X39370Y328543D02*
Y329724D01*
X44685Y314961D02*
X45867D01*
X45276Y314370D02*
Y315551D01*
X42717Y320079D02*
X43898D01*
X43308Y319488D02*
Y320669D01*
X40748Y325197D02*
X41930D01*
X41339Y324606D02*
Y325787D01*
X44685Y325197D02*
X45867D01*
X45276Y324606D02*
Y325787D01*
X191733Y365748D02*
X192520D01*
X192126Y365354D02*
Y366142D01*
X179528Y360630D02*
X180315D01*
X179922Y360236D02*
Y361024D01*
X187796Y372441D02*
X188583D01*
X188189Y372047D02*
Y372835D01*
X184252Y372047D02*
X185040D01*
X184646Y371654D02*
Y372441D01*
X92717Y316142D02*
X93898D01*
X93308Y315551D02*
Y316732D01*
X94685Y325984D02*
X95867D01*
X95276Y325394D02*
Y326575D01*
X175985Y320866D02*
X176772D01*
X176378Y320472D02*
Y321260D01*
X177559Y318504D02*
X178347D01*
X177953Y318110D02*
Y318898D01*
X183859D02*
X184646D01*
X184252Y318504D02*
Y319291D01*
X181890Y321260D02*
X182677D01*
X182284Y320866D02*
Y321654D01*
X111024Y377559D02*
X111811D01*
X111418Y377165D02*
Y377953D01*
X107087Y377165D02*
X107874D01*
X107481Y376772D02*
Y377559D01*
X170473Y366929D02*
X171260D01*
X170867Y366535D02*
Y367323D01*
X112599Y372441D02*
X113386D01*
X112993Y372047D02*
Y372835D01*
X150394Y327953D02*
X151181D01*
X150788Y327559D02*
Y328346D01*
X134252Y329528D02*
X135040D01*
X134646Y329134D02*
Y329921D01*
X143111Y316929D02*
X144292D01*
X143701Y316339D02*
Y317520D01*
X143111Y310236D02*
X144292D01*
X143701Y309646D02*
Y310827D01*
X135630Y314961D02*
X136811D01*
X136221Y314370D02*
Y315551D01*
X143111Y299213D02*
X144292D01*
X143701Y298622D02*
Y299803D01*
X125000Y299213D02*
X126181D01*
X125591Y298622D02*
Y299803D01*
X134055Y295669D02*
X135237D01*
X134646Y295079D02*
Y296260D01*
X137205Y277559D02*
X138386D01*
X137796Y276969D02*
Y278150D01*
X145867Y289370D02*
X147048D01*
X146457Y288779D02*
Y289961D01*
X112205Y271654D02*
X112993D01*
X112599Y271260D02*
Y272047D01*
X108268Y274016D02*
X109055D01*
X108662Y273622D02*
Y274410D01*
X104725Y272047D02*
X105512D01*
X105119Y271654D02*
Y272441D01*
X95670Y330709D02*
X96457D01*
X96063Y330315D02*
Y331102D01*
X91339Y331890D02*
X92126D01*
X91733Y331496D02*
Y332283D01*
X98819Y327953D02*
X99607D01*
X99213Y327559D02*
Y328346D01*
X103544Y327559D02*
X104331D01*
X103937Y327165D02*
Y327953D01*
X88386Y306693D02*
X89567D01*
X88977Y306102D02*
Y307283D01*
X80119Y304331D02*
X81300D01*
X80709Y303740D02*
Y304921D01*
X216733Y390551D02*
X217914D01*
X217323Y389961D02*
Y391142D01*
X202166Y400394D02*
X203347D01*
X202756Y399803D02*
Y400984D01*
X213977Y399606D02*
X215158D01*
X214567Y399016D02*
Y400197D01*
X188189Y380709D02*
X188977D01*
X188583Y380315D02*
Y381102D01*
X117717Y374016D02*
X118504D01*
X118111Y373622D02*
Y374410D01*
X133071Y375591D02*
X133859D01*
X133465Y375197D02*
Y375984D01*
X103150Y316929D02*
X103937D01*
X103544Y316535D02*
Y317323D01*
X210237Y315354D02*
X211024D01*
X210630Y314961D02*
Y315748D01*
X185630Y328346D02*
X186811D01*
X186221Y327756D02*
Y328937D01*
X181300Y328346D02*
X182481D01*
X181890Y327756D02*
Y328937D01*
X170670Y314173D02*
X171851D01*
X171260Y313583D02*
Y314764D01*
X195079Y309449D02*
X196260D01*
X195670Y308858D02*
Y310039D01*
X198229Y313779D02*
X199410D01*
X198819Y313189D02*
Y314370D01*
X199016Y324803D02*
X200197D01*
X199607Y324213D02*
Y325394D01*
X204134Y328346D02*
X205315D01*
X204725Y327756D02*
Y328937D01*
X204528Y337008D02*
X205709D01*
X205118Y336417D02*
Y337598D01*
X152166Y333071D02*
X153347D01*
X152756Y332480D02*
Y333661D01*
X172245Y325984D02*
X173426D01*
X172835Y325394D02*
Y326575D01*
X208465Y321260D02*
X209646D01*
X209055Y320669D02*
Y321850D01*
X27559Y298031D02*
X28347D01*
X27953Y297638D02*
Y298425D01*
X27559Y279134D02*
X28347D01*
X27953Y278740D02*
Y279528D01*
X30709Y279134D02*
X31496D01*
X31103Y278740D02*
Y279528D01*
X59646Y324803D02*
X60827D01*
X60237Y324213D02*
Y325394D01*
X42717Y308268D02*
X43898D01*
X43308Y307677D02*
Y308858D01*
X49410Y279921D02*
X50591D01*
X50000Y279331D02*
Y280512D01*
X14370Y338583D02*
X15552D01*
X14961Y337992D02*
Y339173D01*
X21457Y338189D02*
X22638D01*
X22048Y337598D02*
Y338779D01*
X21457Y331496D02*
X22638D01*
X22048Y330906D02*
Y332087D01*
X170670Y189764D02*
X171851D01*
X171260Y189173D02*
Y190354D01*
X162402Y193701D02*
X163583D01*
X162993Y193110D02*
Y194291D01*
X178937Y188189D02*
X180119D01*
X179528Y187598D02*
Y188779D01*
X186024Y188189D02*
X187205D01*
X186615Y187598D02*
Y188779D01*
X179725Y171653D02*
X180906D01*
X180315Y171063D02*
Y172244D01*
X196654Y174016D02*
X197835D01*
X197245Y173425D02*
Y174606D01*
X199803Y185039D02*
X200985D01*
X200394Y184449D02*
Y185630D01*
X211221Y192126D02*
X212402D01*
X211811Y191535D02*
Y192717D01*
X198229Y180709D02*
X199410D01*
X198819Y180118D02*
Y181299D01*
X217126Y175197D02*
X218307D01*
X217717Y174606D02*
Y175787D01*
X198622Y194882D02*
X199803D01*
X199213Y194291D02*
Y195473D01*
X206890Y217323D02*
X208071D01*
X207481Y216732D02*
Y217913D01*
X194685Y229134D02*
X195867D01*
X195276Y228543D02*
Y229724D01*
X185630Y230709D02*
X186811D01*
X186221Y230118D02*
Y231299D01*
X186024Y238976D02*
X187205D01*
X186615Y238386D02*
Y239567D01*
X185630Y246063D02*
X186811D01*
X186221Y245472D02*
Y246654D01*
X209252Y253937D02*
X210433D01*
X209843Y253346D02*
Y254528D01*
X202166Y253543D02*
X203347D01*
X202756Y252953D02*
Y254134D01*
X194292Y253543D02*
X195473D01*
X194882Y252953D02*
Y254134D01*
X217914Y248031D02*
X219095D01*
X218504Y247441D02*
Y248622D01*
X202559Y250000D02*
X203741D01*
X203150Y249410D02*
Y250591D01*
X202559Y246457D02*
X203741D01*
X203150Y245866D02*
Y247047D01*
X200197Y248031D02*
X201378D01*
X200788Y247441D02*
Y248622D01*
X212796Y233465D02*
X213977D01*
X213386Y232874D02*
Y234055D01*
X202559Y233465D02*
X203741D01*
X203150Y232874D02*
Y234055D01*
X71063Y366535D02*
X72245D01*
X71654Y365945D02*
Y367126D01*
X74213Y361811D02*
X75394D01*
X74804Y361221D02*
Y362402D01*
X78937Y358268D02*
X80119D01*
X79528Y357677D02*
Y358858D01*
X78544Y352756D02*
X79725D01*
X79134Y352165D02*
Y353346D01*
X71457Y349606D02*
X72638D01*
X72048Y349016D02*
Y350197D01*
X79725Y338976D02*
X80906D01*
X80315Y338386D02*
Y339567D01*
X77363Y327559D02*
X78544D01*
X77953Y326969D02*
Y328150D01*
X70276Y342126D02*
X71457D01*
X70867Y341535D02*
Y342717D01*
X78937Y343701D02*
X80119D01*
X79528Y343110D02*
Y344291D01*
X180315Y229921D02*
X181103D01*
X180709Y229528D02*
Y230315D01*
X182481Y224410D02*
X183662D01*
X183071Y223819D02*
Y225000D01*
X84449Y381890D02*
X85630D01*
X85040Y381299D02*
Y382480D01*
X89567Y387008D02*
X90748D01*
X90158Y386417D02*
Y387598D01*
X136024Y326378D02*
X137205D01*
X136615Y325787D02*
Y326969D01*
X138386Y311024D02*
X139567D01*
X138977Y310433D02*
Y311614D01*
X117914Y314173D02*
X119095D01*
X118504Y313583D02*
Y314764D01*
X93111Y376772D02*
X94292D01*
X93701Y376181D02*
Y377362D01*
X102559Y302362D02*
X103741D01*
X103150Y301772D02*
Y302953D01*
X80119Y296850D02*
X81300D01*
X80709Y296260D02*
Y297441D01*
X119489Y259842D02*
X120670D01*
X120079Y259252D02*
Y260433D01*
X142717Y262992D02*
X143898D01*
X143307Y262402D02*
Y263583D01*
X129725Y281496D02*
X130906D01*
X130315Y280906D02*
Y282087D01*
X125788Y265354D02*
X126969D01*
X126378Y264764D02*
Y265945D01*
X96260Y264173D02*
X97441D01*
X96851Y263583D02*
Y264764D01*
X117520Y277953D02*
X118701D01*
X118111Y277362D02*
Y278543D01*
X99804Y275591D02*
X100985D01*
X100394Y275000D02*
Y276181D01*
X74607Y263779D02*
X75788D01*
X75197Y263189D02*
Y264370D01*
X62008Y275984D02*
X63189D01*
X62599Y275394D02*
Y276575D01*
X62402Y259842D02*
X63583D01*
X62993Y259252D02*
Y260433D01*
X73819Y281890D02*
X75000D01*
X74410Y281299D02*
Y282480D01*
X62402Y294488D02*
X63583D01*
X62993Y293898D02*
Y295079D01*
X62402Y288189D02*
X63583D01*
X62993Y287598D02*
Y288779D01*
X73426Y290551D02*
X74607D01*
X74016Y289961D02*
Y291142D01*
X62402Y304331D02*
X63583D01*
X62993Y303740D02*
Y304921D01*
X76575Y312598D02*
X77756D01*
X77166Y312008D02*
Y313189D01*
X43111Y344488D02*
X44292D01*
X43701Y343898D02*
Y345079D01*
X56103Y350000D02*
X57284D01*
X56693Y349410D02*
Y350591D01*
X28937Y340551D02*
X30119D01*
X29528Y339961D02*
Y341142D01*
X52166Y298425D02*
X53347D01*
X52756Y297835D02*
Y299016D01*
X32481Y324803D02*
X33662D01*
X33071Y324213D02*
Y325394D01*
X39961Y354724D02*
X41142D01*
X40552Y354134D02*
Y355315D01*
X61221Y364173D02*
X62402D01*
X61811Y363583D02*
Y364764D01*
X40748Y314961D02*
X41930D01*
X41339Y314370D02*
Y315551D01*
X89371Y335433D02*
X90158D01*
X89764Y335039D02*
Y335827D01*
X89371Y343701D02*
X90158D01*
X89764Y343307D02*
Y344094D01*
Y346457D02*
X90552D01*
X90158Y346063D02*
Y346850D01*
X87402Y322047D02*
X88189D01*
X87796Y321654D02*
Y322441D01*
X87402Y317717D02*
X88189D01*
X87796Y317323D02*
Y318110D01*
X101181Y314961D02*
X101969D01*
X101575Y314567D02*
Y315354D01*
X97441Y302362D02*
X98622D01*
X98032Y301772D02*
Y302953D01*
X112599Y304724D02*
X113386D01*
X112993Y304331D02*
Y305118D01*
X104331Y312205D02*
X105119D01*
X104725Y311811D02*
Y312598D01*
X106300Y310236D02*
X107087D01*
X106693Y309842D02*
Y310630D01*
X108268Y308268D02*
X109055D01*
X108662Y307874D02*
Y308661D01*
X110630Y306692D02*
X111417D01*
X111024Y306299D02*
Y307086D01*
X97835Y315748D02*
X99016D01*
X98426Y315158D02*
Y316339D01*
X94292Y297638D02*
X95473D01*
X94882Y297047D02*
Y298228D01*
X80119Y169291D02*
X81300D01*
X80709Y168701D02*
Y169882D01*
X80119Y118898D02*
X81300D01*
X80709Y118307D02*
Y119488D01*
X80119Y66929D02*
X81300D01*
X80709Y66339D02*
Y67520D01*
X169882Y199213D02*
X171063D01*
X170473Y198622D02*
Y199803D01*
X151378Y209842D02*
X152559D01*
X151969Y209252D02*
Y210433D01*
X139567Y56299D02*
X140748D01*
X140158Y55709D02*
Y56890D01*
X58859Y377953D02*
X60040D01*
X59449Y377362D02*
Y378543D01*
X68701Y397638D02*
X69882D01*
X69292Y397047D02*
Y398228D01*
X77363Y369291D02*
X78544D01*
X77953Y368701D02*
Y369882D01*
X102166Y357480D02*
X103347D01*
X102756Y356890D02*
Y358071D01*
X153741Y308268D02*
X154922D01*
X154331Y307677D02*
Y308858D01*
X73426Y385827D02*
X74607D01*
X74016Y385236D02*
Y386417D01*
X162796Y385827D02*
X163977D01*
X163386Y385236D02*
Y386417D01*
X131496Y387008D02*
X132284D01*
X131890Y386614D02*
Y387402D01*
X112205Y387008D02*
X112993D01*
X112599Y386614D02*
Y387402D01*
X91339Y348818D02*
X92126D01*
X91733Y348425D02*
Y349212D01*
X213780Y370472D02*
X214567D01*
X214174Y370079D02*
Y370866D01*
X148622Y383071D02*
X149803D01*
X149213Y382480D02*
Y383661D01*
X30709Y298031D02*
X31496D01*
X31103Y297638D02*
Y298425D01*
X45867Y303543D02*
X47048D01*
X46457Y302953D02*
Y304134D01*
X40748Y331890D02*
X41930D01*
X41339Y331299D02*
Y332480D01*
X42323Y328740D02*
X43504D01*
X42914Y328150D02*
Y329331D01*
X186418Y386614D02*
X187599D01*
X187008Y386024D02*
Y387205D01*
X192126Y388189D02*
X192914D01*
X192520Y387795D02*
Y388583D01*
X169882Y386221D02*
X171063D01*
X170473Y385630D02*
Y386811D01*
X183465Y390158D02*
X184252D01*
X183859Y389764D02*
Y390551D01*
X25000Y204724D02*
X26182D01*
X25591Y204134D02*
Y205315D01*
X25000Y196850D02*
X26182D01*
X25591Y196260D02*
Y197441D01*
X25000Y188976D02*
X26182D01*
X25591Y188386D02*
Y189567D01*
X25000Y181102D02*
X26182D01*
X25591Y180512D02*
Y181693D01*
X25000Y173228D02*
X26182D01*
X25591Y172638D02*
Y173819D01*
X25000Y212598D02*
X26182D01*
X25591Y212008D02*
Y213189D01*
X30512Y207874D02*
X31693D01*
X31103Y207283D02*
Y208465D01*
X28937Y226378D02*
X30119D01*
X29528Y225787D02*
Y226969D01*
X141142Y388583D02*
X142323D01*
X141733Y387992D02*
Y389173D01*
X138583Y386614D02*
X139371D01*
X138977Y386221D02*
Y387008D01*
X116339Y241339D02*
X117520D01*
X116929Y240748D02*
Y241929D01*
X147441Y274016D02*
X148622D01*
X148032Y273425D02*
Y274606D01*
X141733Y268504D02*
X142520D01*
X142126Y268110D02*
Y268898D01*
X151181Y275197D02*
X151969D01*
X151575Y274803D02*
Y275591D01*
X135237Y259449D02*
X136418D01*
X135827Y258858D02*
Y260039D01*
X110827Y257087D02*
X112008D01*
X111418Y256496D02*
Y257677D01*
X160433Y275591D02*
X161615D01*
X161024Y275000D02*
Y276181D01*
X190158Y385039D02*
X190945D01*
X190552Y384646D02*
Y385433D01*
X199803Y383858D02*
X200985D01*
X200394Y383268D02*
Y384449D01*
X202166Y375984D02*
X203347D01*
X202756Y375394D02*
Y376575D01*
X167717Y365354D02*
X168504D01*
X168111Y364961D02*
Y365748D01*
X13189Y177165D02*
X14370D01*
X13780Y176575D02*
Y177756D01*
X32678Y374016D02*
X33465D01*
X33071Y373622D02*
Y374410D01*
X35433Y375197D02*
X36221D01*
X35827Y374803D02*
Y375591D01*
X31496Y370866D02*
X32284D01*
X31890Y370472D02*
Y371260D01*
X37402Y373228D02*
X38189D01*
X37796Y372835D02*
Y373622D01*
X141733Y248031D02*
X142520D01*
X142126Y247638D02*
Y248425D01*
X138977Y245669D02*
X139764D01*
X139371Y245276D02*
Y246063D01*
X59449Y346850D02*
X60237D01*
X59843Y346457D02*
Y347244D01*
X73032Y355118D02*
X74213D01*
X73622Y354528D02*
Y355709D01*
X25000Y165354D02*
X26182D01*
X25591Y164764D02*
Y165945D01*
X25000Y220472D02*
X26182D01*
X25591Y219882D02*
Y221063D01*
X31300Y214961D02*
X32481D01*
X31890Y214370D02*
Y215551D01*
X48229Y193701D02*
X49410D01*
X48819Y193110D02*
Y194291D01*
X25000Y228346D02*
X26182D01*
X25591Y227756D02*
Y228937D01*
X89371Y362205D02*
X90158D01*
X89764Y361811D02*
Y362598D01*
X88977Y359449D02*
X89764D01*
X89371Y359055D02*
Y359842D01*
X39371Y375591D02*
X40158D01*
X39764Y375197D02*
Y375984D01*
X42520Y377165D02*
X43308D01*
X42914Y376772D02*
Y377559D01*
X25000Y157480D02*
X26182D01*
X25591Y156890D02*
Y158071D01*
X25000Y149606D02*
X26182D01*
X25591Y149016D02*
Y150197D01*
X41142Y349213D02*
X42323D01*
X41733Y348622D02*
Y349803D01*
X41930Y369685D02*
X43111D01*
X42520Y369094D02*
Y370276D01*
X48622Y379921D02*
X49804D01*
X49213Y379331D02*
Y380512D01*
X50985Y387008D02*
X52166D01*
X51575Y386417D02*
Y387598D01*
X89174Y351181D02*
X90355D01*
X89764Y350591D02*
Y351772D01*
X95867Y346457D02*
X97048D01*
X96457Y345866D02*
Y347047D01*
X132087Y333465D02*
X133268D01*
X132677Y332874D02*
Y334055D01*
X127363Y326378D02*
X128544D01*
X127953Y325787D02*
Y326969D01*
X78150Y253150D02*
X79331D01*
X78741Y252559D02*
Y253740D01*
X221851Y303150D02*
X223032D01*
X222441Y302559D02*
Y303740D01*
X25000Y141732D02*
X26182D01*
X25591Y141142D02*
Y142323D01*
X144095Y274016D02*
X144882D01*
X144489Y273622D02*
Y274410D01*
X207284Y274410D02*
X208465D01*
X207874Y273819D02*
Y275000D01*
X13189Y202756D02*
X14370D01*
X13780Y202165D02*
Y203346D01*
X153741Y388583D02*
X154922D01*
X154331Y387992D02*
Y389173D01*
X202559Y386221D02*
X203741D01*
X203150Y385630D02*
Y386811D01*
X66339Y336614D02*
X67520D01*
X66930Y336024D02*
Y337205D01*
X161615Y400394D02*
X162796D01*
X162205Y399803D02*
Y400984D01*
X141339Y365354D02*
X142126D01*
X141733Y364961D02*
Y365748D01*
X138189Y366535D02*
X138977D01*
X138583Y366142D02*
Y366929D01*
X73622Y294094D02*
X74410D01*
X74016Y293701D02*
Y294488D01*
X73622Y285827D02*
X74410D01*
X74016Y285433D02*
Y286221D01*
X29528Y285433D02*
X30315D01*
X29922Y285039D02*
Y285827D01*
Y289764D02*
X30709D01*
X30315Y289370D02*
Y290158D01*
X71457Y193701D02*
X72638D01*
X72048Y193110D02*
Y194291D01*
X33268Y191732D02*
X34449D01*
X33859Y191142D02*
Y192323D01*
X25788Y200787D02*
X26969D01*
X26378Y200197D02*
Y201378D01*
X36418Y196850D02*
X37599D01*
X37008Y196260D02*
Y197441D01*
X119685Y250394D02*
X120473D01*
X120079Y250000D02*
Y250787D01*
X48622Y311024D02*
X49804D01*
X49213Y310433D02*
Y311614D01*
X45670Y280709D02*
X46457D01*
X46063Y280315D02*
Y281102D01*
X58859Y266535D02*
X60040D01*
X59449Y265945D02*
Y267126D01*
X54922Y266535D02*
X56103D01*
X55512Y265945D02*
Y267126D01*
X58071Y262598D02*
X59252D01*
X58662Y262008D02*
Y263189D01*
X69489Y232283D02*
X70670D01*
X70079Y231693D02*
Y232874D01*
X73426Y251181D02*
X74607D01*
X74016Y250591D02*
Y251772D01*
X76575Y241339D02*
X77756D01*
X77166Y240748D02*
Y241929D01*
X76575Y244882D02*
X77756D01*
X77166Y244291D02*
Y245472D01*
X135237Y141732D02*
X136418D01*
X135827Y141142D02*
Y142323D01*
X83268Y218110D02*
X84449D01*
X83859Y217520D02*
Y218701D01*
X113583Y167323D02*
X114764D01*
X114174Y166732D02*
Y167913D01*
X126969Y167323D02*
X128150D01*
X127559Y166732D02*
Y167913D01*
X127756Y109055D02*
X128937D01*
X128347Y108465D02*
Y109646D01*
X124213Y98819D02*
X125394D01*
X124803Y98228D02*
Y99410D01*
X124607Y47638D02*
X125788D01*
X125197Y47047D02*
Y48228D01*
X200985Y43701D02*
X202166D01*
X201575Y43110D02*
Y44291D01*
X205709Y110236D02*
X206890D01*
X206300Y109646D02*
Y110827D01*
X55709Y159055D02*
X56890D01*
X56300Y158465D02*
Y159646D01*
X45670Y299606D02*
X46457D01*
X46063Y299213D02*
Y300000D01*
X455197Y284646D02*
X458347D01*
X456772Y283071D02*
Y286221D01*
X462284Y284646D02*
X465433D01*
X463859Y283071D02*
Y286221D01*
X414174Y264961D02*
X429922D01*
X422048Y257087D02*
Y272835D01*
X247048Y225197D02*
X249016D01*
X248032Y224213D02*
Y226181D01*
X247048Y222047D02*
X249016D01*
X248032Y221063D02*
Y223031D01*
X247048Y218898D02*
X249016D01*
X248032Y217913D02*
Y219882D01*
X247048Y215748D02*
X249016D01*
X248032Y214764D02*
Y216732D01*
X465552Y215748D02*
X467520D01*
X466536Y214764D02*
Y216732D01*
X465552Y218898D02*
X467520D01*
X466536Y217913D02*
Y219882D01*
X465552Y222047D02*
X467520D01*
X466536Y221063D02*
Y223031D01*
X465552Y225197D02*
X467520D01*
X466536Y224213D02*
Y226181D01*
X242126Y310709D02*
X244488D01*
X243307Y309528D02*
Y311890D01*
X257874Y266457D02*
X260236D01*
X259055Y265276D02*
Y267638D01*
X257874Y310709D02*
X260236D01*
X259055Y309528D02*
Y311890D01*
X242126Y266457D02*
X244488D01*
X243307Y265276D02*
Y267638D01*
X278347Y360709D02*
X290945D01*
X284646Y354410D02*
Y367008D01*
X441721Y75276D02*
X454319D01*
X448020Y68976D02*
Y81575D01*
X309337Y178819D02*
X312837D01*
X311087Y177069D02*
Y180569D01*
X301337Y178819D02*
X304837D01*
X303087Y177069D02*
Y180569D01*
X305337Y198819D02*
X308837D01*
X307087Y197069D02*
Y200569D01*
X418307Y309449D02*
X419488D01*
X418898Y308858D02*
Y310039D01*
X422638Y195276D02*
X423819D01*
X423229Y194685D02*
Y195866D01*
X295866Y221654D02*
X297048D01*
X296457Y221063D02*
Y222244D01*
X295079Y172047D02*
X296260D01*
X295670Y171457D02*
Y172638D01*
X443111Y163386D02*
X444292D01*
X443701Y162795D02*
Y163976D01*
X369882Y143307D02*
X371063D01*
X370473Y142717D02*
Y143898D01*
X372244Y116535D02*
X373426D01*
X372835Y115945D02*
Y117126D01*
X363977Y122047D02*
X365158D01*
X364567Y121457D02*
Y122638D01*
X294292Y71260D02*
X295473D01*
X294882Y70669D02*
Y71850D01*
X449016Y170473D02*
X450197D01*
X449607Y169882D02*
Y171063D01*
X361221Y175197D02*
X362402D01*
X361811Y174606D02*
Y175787D01*
X314370Y192520D02*
X315551D01*
X314961Y191929D02*
Y193110D01*
X320670Y180315D02*
X321851D01*
X321260Y179724D02*
Y180905D01*
X350591Y259449D02*
X351772D01*
X351181Y258858D02*
Y260039D01*
X434449Y70866D02*
X435630D01*
X435040Y70276D02*
Y71457D01*
X395473Y122835D02*
X396654D01*
X396063Y122244D02*
Y123425D01*
X389961Y178347D02*
X391142D01*
X390551Y177756D02*
Y178937D01*
X412008Y209842D02*
X413189D01*
X412599Y209252D02*
Y210433D01*
X459843Y241339D02*
X460630D01*
X460237Y240945D02*
Y241732D01*
X390355Y236221D02*
X391536D01*
X390945Y235630D02*
Y236811D01*
X349607Y246850D02*
X350394D01*
X350000Y246457D02*
Y247244D01*
X461024Y235433D02*
X461811D01*
X461418Y235039D02*
Y235827D01*
X455315Y238976D02*
X456496D01*
X455906Y238386D02*
Y239567D01*
X325197Y251969D02*
X325985D01*
X325591Y251575D02*
Y252362D01*
X326378Y256299D02*
X327166D01*
X326772Y255905D02*
Y256693D01*
X334449Y251575D02*
X335630D01*
X335040Y250984D02*
Y252165D01*
X373819Y137795D02*
X375000D01*
X374410Y137205D02*
Y138386D01*
X371851Y169685D02*
X373032D01*
X372441Y169095D02*
Y170276D01*
X320866Y256693D02*
X321654D01*
X321260Y256299D02*
Y257086D01*
X321654Y253937D02*
X322441D01*
X322048Y253543D02*
Y254331D01*
X316733Y218504D02*
X317914D01*
X317323Y217913D02*
Y219094D01*
X369095Y120866D02*
X370276D01*
X369685Y120276D02*
Y121457D01*
X369095Y70866D02*
X370276D01*
X369685Y70276D02*
Y71457D01*
X300985Y216142D02*
X302166D01*
X301575Y215551D02*
Y216732D01*
X380118Y167323D02*
X381299D01*
X380709Y166732D02*
Y167913D01*
X278150Y223622D02*
X279331D01*
X278741Y223031D02*
Y224213D01*
X451772Y210236D02*
X452953D01*
X452362Y209646D02*
Y210827D01*
X268307Y186614D02*
X269489D01*
X268898Y186024D02*
Y187205D01*
X280512Y178740D02*
X281693D01*
X281103Y178150D02*
Y179331D01*
X440355Y332677D02*
X441536D01*
X440945Y332087D02*
Y333268D01*
X372638Y181102D02*
X373819D01*
X373229Y180512D02*
Y181693D01*
X411615Y86614D02*
X412796D01*
X412205Y86024D02*
Y87205D01*
X385630Y82284D02*
X386811D01*
X386221Y81693D02*
Y82874D01*
X397441Y72835D02*
X398622D01*
X398032Y72244D02*
Y73425D01*
X385237Y60630D02*
X386418D01*
X385827Y60039D02*
Y61221D01*
X371457Y63386D02*
X372638D01*
X372048Y62795D02*
Y63976D01*
X372638Y51181D02*
X373819D01*
X373229Y50591D02*
Y51772D01*
X402166Y51181D02*
X403347D01*
X402756Y50591D02*
Y51772D01*
X410433Y59842D02*
X411615D01*
X411024Y59252D02*
Y60433D01*
X449410Y102362D02*
X450591D01*
X450000Y101772D02*
Y102953D01*
X463189Y169291D02*
X464370D01*
X463780Y168701D02*
Y169882D01*
X449016Y162992D02*
X450197D01*
X449607Y162402D02*
Y163583D01*
X449410Y139764D02*
X450591D01*
X450000Y139173D02*
Y140354D01*
X449410Y120079D02*
X450591D01*
X450000Y119488D02*
Y120669D01*
X443898Y64567D02*
X445079D01*
X444488Y63976D02*
Y65158D01*
X440355Y81890D02*
X441536D01*
X440945Y81299D02*
Y82480D01*
X441536Y94488D02*
X442717D01*
X442126Y93898D02*
Y95079D01*
X441929Y117323D02*
X443111D01*
X442520Y116732D02*
Y117913D01*
X442323Y136614D02*
X443504D01*
X442914Y136024D02*
Y137205D01*
X434843Y121653D02*
X436024D01*
X435433Y121063D02*
Y122244D01*
X410433Y103543D02*
X411615D01*
X411024Y102953D02*
Y104134D01*
X410433Y110236D02*
X411615D01*
X411024Y109646D02*
Y110827D01*
X381299Y102756D02*
X382481D01*
X381890Y102165D02*
Y103347D01*
X372244Y102362D02*
X373426D01*
X372835Y101772D02*
Y102953D01*
X381693Y109843D02*
X382874D01*
X382284Y109252D02*
Y110433D01*
X373622Y107480D02*
X374410D01*
X374016Y107087D02*
Y107874D01*
X373032Y133858D02*
X374213D01*
X373622Y133268D02*
Y134449D01*
X382481Y133071D02*
X383662D01*
X383071Y132480D02*
Y133661D01*
X396260Y147638D02*
X397441D01*
X396851Y147047D02*
Y148228D01*
X341142Y209842D02*
X342323D01*
X341733Y209252D02*
Y210433D01*
X324410Y247638D02*
X325197D01*
X324803Y247244D02*
Y248031D01*
X322835Y250000D02*
X323622D01*
X323229Y249606D02*
Y250394D01*
X327166Y245669D02*
X327953D01*
X327559Y245276D02*
Y246063D01*
X324607Y259055D02*
X325788D01*
X325197Y258465D02*
Y259646D01*
X318898Y258661D02*
X319685D01*
X319292Y258268D02*
Y259055D01*
X357678Y139370D02*
X358859D01*
X358268Y138779D02*
Y139961D01*
X333268Y133858D02*
X334449D01*
X333859Y133268D02*
Y134449D01*
X341142Y114173D02*
X342323D01*
X341733Y113583D02*
Y114764D01*
X341142Y102362D02*
X342323D01*
X341733Y101772D02*
Y102953D01*
X333268Y82677D02*
X334449D01*
X333859Y82087D02*
Y83268D01*
X363583Y92520D02*
X364764D01*
X364174Y91929D02*
Y93110D01*
X364370Y70473D02*
X365551D01*
X364961Y69882D02*
Y71063D01*
X321457Y51181D02*
X322638D01*
X322048Y50591D02*
Y51772D01*
X341142Y61024D02*
X342323D01*
X341733Y60433D02*
Y61614D01*
X300985Y63779D02*
X302166D01*
X301575Y63189D02*
Y64370D01*
X293898Y86614D02*
X295079D01*
X294489Y86024D02*
Y87205D01*
X313189Y70866D02*
X314370D01*
X313780Y70276D02*
Y71457D01*
X270276Y51181D02*
X271457D01*
X270866Y50591D02*
Y51772D01*
X270276Y75197D02*
X271457D01*
X270866Y74606D02*
Y75787D01*
X270276Y94488D02*
X271457D01*
X270866Y93898D02*
Y95079D01*
X313583Y102362D02*
X314764D01*
X314174Y101772D02*
Y102953D01*
X303741Y112205D02*
X304922D01*
X304331Y111614D02*
Y112795D01*
X313583Y122047D02*
X314764D01*
X314174Y121457D02*
Y122638D01*
X286024Y125984D02*
X287205D01*
X286614Y125394D02*
Y126575D01*
X270276Y114173D02*
X271457D01*
X270866Y113583D02*
Y114764D01*
X270276Y137795D02*
X271457D01*
X270866Y137205D02*
Y138386D01*
X270276Y157480D02*
X271457D01*
X270866Y156890D02*
Y158071D01*
X285237Y229528D02*
X286418D01*
X285827Y228937D02*
Y230118D01*
X311221Y205512D02*
X312402D01*
X311811Y204921D02*
Y206102D01*
X313583Y153543D02*
X314764D01*
X314174Y152953D02*
Y154134D01*
X321457Y153543D02*
X322638D01*
X322048Y152953D02*
Y154134D01*
X341142Y153543D02*
X342323D01*
X341733Y152953D02*
Y154134D01*
X343111Y165354D02*
X344292D01*
X343701Y164764D02*
Y165945D01*
X296654Y166142D02*
X297835D01*
X297244Y165551D02*
Y166732D01*
X321457Y162992D02*
X322638D01*
X322048Y162402D02*
Y163583D01*
X333268Y194882D02*
X334449D01*
X333859Y194291D02*
Y195473D01*
X322244Y201575D02*
X323426D01*
X322835Y200984D02*
Y202165D01*
X345079Y188976D02*
X346260D01*
X345670Y188386D02*
Y189567D01*
X436418Y229528D02*
X437599D01*
X437008Y228937D02*
Y230118D01*
X454922Y222835D02*
X456103D01*
X455512Y222244D02*
Y223425D01*
X455315Y198425D02*
X456496D01*
X455906Y197835D02*
Y199016D01*
X442323Y168504D02*
X443504D01*
X442914Y167913D02*
Y169095D01*
X438780Y142913D02*
X439961D01*
X439370Y142323D02*
Y143504D01*
X421851Y140945D02*
X423032D01*
X422441Y140354D02*
Y141535D01*
X410433Y132677D02*
X411615D01*
X411024Y132087D02*
Y133268D01*
X411615Y155118D02*
X412796D01*
X412205Y154528D02*
Y155709D01*
X380512Y141339D02*
X381693D01*
X381103Y140748D02*
Y141929D01*
X380118Y160630D02*
X381299D01*
X380709Y160039D02*
Y161221D01*
X411615Y161417D02*
X412796D01*
X412205Y160827D02*
Y162008D01*
X406496Y173228D02*
X407678D01*
X407087Y172638D02*
Y173819D01*
X400591Y185827D02*
X401772D01*
X401181Y185236D02*
Y186417D01*
X360827Y192913D02*
X362008D01*
X361418Y192323D02*
Y193504D01*
X373032Y206693D02*
X374213D01*
X373622Y206102D02*
Y207283D01*
X393898Y198031D02*
X395079D01*
X394489Y197441D02*
Y198622D01*
X410433Y206299D02*
X411615D01*
X411024Y205709D02*
Y206890D01*
X378937Y204724D02*
X380118D01*
X379528Y204134D02*
Y205315D01*
X400197Y251969D02*
X401378D01*
X400788Y251378D02*
Y252559D01*
X413977Y228346D02*
X415158D01*
X414567Y227756D02*
Y228937D01*
X399016Y228346D02*
X400197D01*
X399607Y227756D02*
Y228937D01*
X403347Y222441D02*
X404528D01*
X403937Y221850D02*
Y223031D01*
X410040Y214567D02*
X411221D01*
X410630Y213976D02*
Y215158D01*
X414370Y222441D02*
X415552D01*
X414961Y221850D02*
Y223031D01*
X393504Y213386D02*
X394685D01*
X394095Y212795D02*
Y213976D01*
X379331Y228346D02*
X380512D01*
X379922Y227756D02*
Y228937D01*
X372638Y228346D02*
X373819D01*
X373229Y227756D02*
Y228937D01*
X352953Y228346D02*
X354134D01*
X353544Y227756D02*
Y228937D01*
X341142Y216535D02*
X342323D01*
X341733Y215945D02*
Y217126D01*
X333662Y228346D02*
X334843D01*
X334252Y227756D02*
Y228937D01*
X317914Y263779D02*
X319095D01*
X318504Y263189D02*
Y264370D01*
X333662Y240551D02*
X334843D01*
X334252Y239961D02*
Y241142D01*
X347835Y240158D02*
X349016D01*
X348426Y239567D02*
Y240748D01*
X365945Y242913D02*
X367126D01*
X366536Y242323D02*
Y243504D01*
X382481Y240945D02*
X383662D01*
X383071Y240354D02*
Y241535D01*
X384843Y283465D02*
X386024D01*
X385433Y282874D02*
Y284055D01*
X446260Y280315D02*
X447441D01*
X446851Y279724D02*
Y280906D01*
X419882Y279528D02*
X421063D01*
X420473Y278937D02*
Y280118D01*
X391142Y289370D02*
X392323D01*
X391733Y288779D02*
Y289961D01*
X390748Y304331D02*
X391929D01*
X391339Y303740D02*
Y304921D01*
X401772Y285039D02*
X402953D01*
X402362Y284449D02*
Y285630D01*
X423819Y295276D02*
X425000D01*
X424410Y294685D02*
Y295866D01*
X447441Y299213D02*
X448622D01*
X448032Y298622D02*
Y299803D01*
X463189Y318898D02*
X464370D01*
X463780Y318307D02*
Y319488D01*
X463189Y358268D02*
X464370D01*
X463780Y357677D02*
Y358858D01*
X463189Y338583D02*
X464370D01*
X463780Y337992D02*
Y339173D01*
X463189Y377953D02*
X464370D01*
X463780Y377362D02*
Y378543D01*
X463189Y248031D02*
X464370D01*
X463780Y247441D02*
Y248622D01*
X463189Y267717D02*
X464370D01*
X463780Y267126D02*
Y268307D01*
X463189Y299213D02*
X464370D01*
X463780Y298622D02*
Y299803D01*
X444292Y209449D02*
X445473D01*
X444882Y208858D02*
Y210039D01*
X463189Y208661D02*
X464370D01*
X463780Y208071D02*
Y209252D01*
X463189Y188976D02*
X464370D01*
X463780Y188386D02*
Y189567D01*
X463189Y230315D02*
X464370D01*
X463780Y229724D02*
Y230906D01*
X463189Y90551D02*
X464370D01*
X463780Y89961D02*
Y91142D01*
X463189Y129921D02*
X464370D01*
X463780Y129331D02*
Y130512D01*
X463189Y110236D02*
X464370D01*
X463780Y109646D02*
Y110827D01*
X463189Y149606D02*
X464370D01*
X463780Y149016D02*
Y150197D01*
X451378Y31496D02*
X452559D01*
X451969Y30906D02*
Y32087D01*
X463189Y51181D02*
X464370D01*
X463780Y50591D02*
Y51772D01*
X459252Y39370D02*
X460433D01*
X459843Y38780D02*
Y39961D01*
X463189Y70866D02*
X464370D01*
X463780Y70276D02*
Y71457D01*
X372638Y31496D02*
X373819D01*
X373229Y30906D02*
Y32087D01*
X412008Y33071D02*
X413189D01*
X412599Y32480D02*
Y33661D01*
X392323Y31496D02*
X393504D01*
X392914Y30906D02*
Y32087D01*
X431693Y31496D02*
X432874D01*
X432284Y30906D02*
Y32087D01*
X352953Y31496D02*
X354134D01*
X353544Y30906D02*
Y32087D01*
X313583Y31496D02*
X314764D01*
X314174Y30906D02*
Y32087D01*
X333268Y31496D02*
X334449D01*
X333859Y30906D02*
Y32087D01*
X293898Y32677D02*
X295079D01*
X294489Y32087D02*
Y33268D01*
X274213Y31496D02*
X275394D01*
X274803Y30906D02*
Y32087D01*
X260040Y33071D02*
X261221D01*
X260630Y32480D02*
Y33661D01*
X251378Y47244D02*
X252559D01*
X251969Y46654D02*
Y47835D01*
X250591Y66929D02*
X251772D01*
X251181Y66339D02*
Y67520D01*
X250591Y86614D02*
X251772D01*
X251181Y86024D02*
Y87205D01*
X250591Y106299D02*
X251772D01*
X251181Y105709D02*
Y106890D01*
X250591Y125984D02*
X251772D01*
X251181Y125394D02*
Y126575D01*
X250591Y145669D02*
X251772D01*
X251181Y145079D02*
Y146260D01*
X250591Y161417D02*
X251772D01*
X251181Y160827D02*
Y162008D01*
X250591Y190945D02*
X251772D01*
X251181Y190354D02*
Y191535D01*
X249016Y237008D02*
X250197D01*
X249607Y236417D02*
Y237598D01*
X265945Y237008D02*
X267126D01*
X266536Y236417D02*
Y237598D01*
X265945Y248425D02*
X267126D01*
X266536Y247835D02*
Y249016D01*
X266339Y259842D02*
X267520D01*
X266930Y259252D02*
Y260433D01*
X248229Y248819D02*
X249410D01*
X248819Y248228D02*
Y249410D01*
X254528Y216535D02*
X255709D01*
X255118Y215945D02*
Y217126D01*
X283662Y236221D02*
X284843D01*
X284252Y235630D02*
Y236811D01*
X295866Y236221D02*
X297048D01*
X296457Y235630D02*
Y236811D01*
X304134Y236221D02*
X305315D01*
X304725Y235630D02*
Y236811D01*
X289961Y254331D02*
X291142D01*
X290551Y253740D02*
Y254921D01*
X299410Y254331D02*
X300591D01*
X300000Y253740D02*
Y254921D01*
X282481Y254331D02*
X283662D01*
X283071Y253740D02*
Y254921D01*
X282874Y270472D02*
X284055D01*
X283465Y269882D02*
Y271063D01*
X292717Y356693D02*
X293898D01*
X293307Y356102D02*
Y357283D01*
X266339Y364567D02*
X267520D01*
X266930Y363976D02*
Y365158D01*
X292323Y372441D02*
X293504D01*
X292914Y371850D02*
Y373031D01*
X240355Y318898D02*
X241536D01*
X240945Y318307D02*
Y319488D01*
X248229Y324410D02*
X249410D01*
X248819Y323819D02*
Y325000D01*
X251772Y350394D02*
X252953D01*
X252362Y349803D02*
Y350984D01*
X251772Y370079D02*
X252953D01*
X252362Y369488D02*
Y370669D01*
X251772Y389764D02*
X252953D01*
X252362Y389173D02*
Y390354D01*
X262402Y400394D02*
X263583D01*
X262993Y399803D02*
Y400984D01*
X275788Y401181D02*
X276969D01*
X276378Y400591D02*
Y401772D01*
X295866Y400787D02*
X297048D01*
X296457Y400197D02*
Y401378D01*
X321457Y400394D02*
X322638D01*
X322048Y399803D02*
Y400984D01*
X341142Y400394D02*
X342323D01*
X341733Y399803D02*
Y400984D01*
X358859Y400394D02*
X360040D01*
X359449Y399803D02*
Y400984D01*
X380512Y400394D02*
X381693D01*
X381103Y399803D02*
Y400984D01*
X447441Y392520D02*
X448622D01*
X448032Y391929D02*
Y393110D01*
X409646Y392126D02*
X410827D01*
X410237Y391535D02*
Y392717D01*
X397441Y392520D02*
X398622D01*
X398032Y391929D02*
Y393110D01*
X410040Y400787D02*
X411221D01*
X410630Y400197D02*
Y401378D01*
X417520Y377953D02*
X418701D01*
X418111Y377362D02*
Y378543D01*
X401772Y381102D02*
X402953D01*
X402362Y380512D02*
Y381693D01*
X393898Y380709D02*
X395079D01*
X394489Y380118D02*
Y381299D01*
X362008Y375591D02*
X363189D01*
X362599Y375000D02*
Y376181D01*
X343898Y387402D02*
X345079D01*
X344489Y386811D02*
Y387992D01*
X335630Y376772D02*
X336811D01*
X336221Y376181D02*
Y377362D01*
X340748Y366535D02*
X341929D01*
X341339Y365945D02*
Y367126D01*
X354528Y366929D02*
X355709D01*
X355118Y366339D02*
Y367520D01*
X364764Y366929D02*
X365945D01*
X365355Y366339D02*
Y367520D01*
X372244Y359449D02*
X373426D01*
X372835Y358858D02*
Y360039D01*
X363583Y359449D02*
X364764D01*
X364174Y358858D02*
Y360039D01*
X350197Y348819D02*
X351378D01*
X350788Y348228D02*
Y349410D01*
X336811Y336221D02*
X337993D01*
X337402Y335630D02*
Y336811D01*
X329725Y335039D02*
X330906D01*
X330315Y334449D02*
Y335630D01*
X355315Y341732D02*
X356496D01*
X355906Y341142D02*
Y342323D01*
X363583Y350394D02*
X364764D01*
X364174Y349803D02*
Y350984D01*
X346654Y330709D02*
X347835D01*
X347244Y330118D02*
Y331299D01*
X343898Y325984D02*
X345079D01*
X344489Y325394D02*
Y326575D01*
X367323Y346850D02*
X368111D01*
X367717Y346457D02*
Y347244D01*
X409646Y336221D02*
X410827D01*
X410237Y335630D02*
Y336811D01*
X394685Y327559D02*
X395866D01*
X395276Y326969D02*
Y328150D01*
X401181Y366929D02*
X401969D01*
X401575Y366535D02*
Y367323D01*
X414174Y374016D02*
X414961D01*
X414567Y373622D02*
Y374410D01*
X416536Y371654D02*
X417323D01*
X416929Y371260D02*
Y372047D01*
X400788Y375197D02*
X401575D01*
X401181Y374803D02*
Y375591D01*
X387008Y359449D02*
X387796D01*
X387402Y359055D02*
Y359842D01*
X449016Y177165D02*
X450197D01*
X449607Y176575D02*
Y177756D01*
X449016Y173622D02*
X450197D01*
X449607Y173031D02*
Y174213D01*
X449016Y180709D02*
X450197D01*
X449607Y180118D02*
Y181299D01*
X438780Y180709D02*
X439961D01*
X439370Y180118D02*
Y181299D01*
X453741Y375591D02*
X454922D01*
X454331Y375000D02*
Y376181D01*
X428544Y392126D02*
X429725D01*
X429134Y391535D02*
Y392717D01*
X439961Y392520D02*
X441142D01*
X440552Y391929D02*
Y393110D01*
X447441Y381496D02*
X448622D01*
X448032Y380906D02*
Y382087D01*
X444292Y372047D02*
X445473D01*
X444882Y371457D02*
Y372638D01*
X438780Y369685D02*
X439961D01*
X439370Y369094D02*
Y370276D01*
X438780Y362992D02*
X439961D01*
X439370Y362402D02*
Y363583D01*
X438780Y366535D02*
X439961D01*
X439370Y365945D02*
Y367126D01*
X458859Y363779D02*
X460040D01*
X459449Y363189D02*
Y364370D01*
X462008Y385827D02*
X463189D01*
X462599Y385236D02*
Y386417D01*
X454528Y353937D02*
X455709D01*
X455118Y353346D02*
Y354528D01*
X450788Y384252D02*
X451575D01*
X451181Y383858D02*
Y384646D01*
X264764Y242913D02*
X265945D01*
X265355Y242323D02*
Y243504D01*
X298622Y337795D02*
X299803D01*
X299213Y337205D02*
Y338386D01*
X290158Y284252D02*
X290945D01*
X290551Y283858D02*
Y284646D01*
X290158Y291732D02*
X290945D01*
X290551Y291339D02*
Y292126D01*
X265158Y357087D02*
X266339D01*
X265748Y356496D02*
Y357677D01*
X280906Y338976D02*
X282087D01*
X281496Y338386D02*
Y339567D01*
X283268Y341339D02*
X284449D01*
X283859Y340748D02*
Y341929D01*
X283268Y337008D02*
X284449D01*
X283859Y336417D02*
Y337598D01*
X276181Y329134D02*
X277362D01*
X276772Y328543D02*
Y329724D01*
X282087Y314961D02*
X283268D01*
X282678Y314370D02*
Y315551D01*
X280118Y320079D02*
X281299D01*
X280709Y319488D02*
Y320669D01*
X278150Y325197D02*
X279331D01*
X278741Y324606D02*
Y325787D01*
X282087Y325197D02*
X283268D01*
X282678Y324606D02*
Y325787D01*
X429134Y365748D02*
X429922D01*
X429528Y365354D02*
Y366142D01*
X416929Y360630D02*
X417717D01*
X417323Y360236D02*
Y361024D01*
X425197Y372441D02*
X425985D01*
X425591Y372047D02*
Y372835D01*
X421654Y372047D02*
X422441D01*
X422048Y371654D02*
Y372441D01*
X330118Y316142D02*
X331299D01*
X330709Y315551D02*
Y316732D01*
X332087Y325984D02*
X333268D01*
X332678Y325394D02*
Y326575D01*
X413386Y320866D02*
X414174D01*
X413780Y320472D02*
Y321260D01*
X414961Y318504D02*
X415748D01*
X415355Y318110D02*
Y318898D01*
X421260D02*
X422048D01*
X421654Y318504D02*
Y319291D01*
X419292Y321260D02*
X420079D01*
X419685Y320866D02*
Y321654D01*
X348426Y377559D02*
X349213D01*
X348819Y377165D02*
Y377953D01*
X344489Y377165D02*
X345276D01*
X344882Y376772D02*
Y377559D01*
X407874Y366929D02*
X408662D01*
X408268Y366535D02*
Y367323D01*
X350000Y372441D02*
X350788D01*
X350394Y372047D02*
Y372835D01*
X387796Y327953D02*
X388583D01*
X388189Y327559D02*
Y328346D01*
X371654Y329528D02*
X372441D01*
X372048Y329134D02*
Y329921D01*
X380512Y316929D02*
X381693D01*
X381103Y316339D02*
Y317520D01*
X380512Y310236D02*
X381693D01*
X381103Y309646D02*
Y310827D01*
X373032Y314961D02*
X374213D01*
X373622Y314370D02*
Y315551D01*
X380512Y299213D02*
X381693D01*
X381103Y298622D02*
Y299803D01*
X362402Y299213D02*
X363583D01*
X362993Y298622D02*
Y299803D01*
X371457Y295669D02*
X372638D01*
X372048Y295079D02*
Y296260D01*
X374607Y277559D02*
X375788D01*
X375197Y276969D02*
Y278150D01*
X383268Y289370D02*
X384449D01*
X383859Y288779D02*
Y289961D01*
X349607Y271654D02*
X350394D01*
X350000Y271260D02*
Y272047D01*
X345670Y274016D02*
X346457D01*
X346063Y273622D02*
Y274410D01*
X342126Y272047D02*
X342914D01*
X342520Y271654D02*
Y272441D01*
X333071Y330709D02*
X333859D01*
X333465Y330315D02*
Y331102D01*
X328741Y331890D02*
X329528D01*
X329134Y331496D02*
Y332283D01*
X336221Y327953D02*
X337008D01*
X336614Y327559D02*
Y328346D01*
X340945Y327559D02*
X341733D01*
X341339Y327165D02*
Y327953D01*
X325788Y306693D02*
X326969D01*
X326378Y306102D02*
Y307283D01*
X317520Y304331D02*
X318701D01*
X318111Y303740D02*
Y304921D01*
X454134Y390551D02*
X455315D01*
X454725Y389961D02*
Y391142D01*
X439567Y400394D02*
X440748D01*
X440158Y399803D02*
Y400984D01*
X451378Y399606D02*
X452559D01*
X451969Y399016D02*
Y400197D01*
X425591Y380709D02*
X426378D01*
X425985Y380315D02*
Y381102D01*
X355118Y374016D02*
X355906D01*
X355512Y373622D02*
Y374410D01*
X370473Y375591D02*
X371260D01*
X370866Y375197D02*
Y375984D01*
X340551Y316929D02*
X341339D01*
X340945Y316535D02*
Y317323D01*
X447638Y315354D02*
X448425D01*
X448032Y314961D02*
Y315748D01*
X423032Y328346D02*
X424213D01*
X423622Y327756D02*
Y328937D01*
X418701Y328346D02*
X419882D01*
X419292Y327756D02*
Y328937D01*
X408071Y314173D02*
X409252D01*
X408662Y313583D02*
Y314764D01*
X432481Y309449D02*
X433662D01*
X433071Y308858D02*
Y310039D01*
X435630Y313779D02*
X436811D01*
X436221Y313189D02*
Y314370D01*
X436418Y324803D02*
X437599D01*
X437008Y324213D02*
Y325394D01*
X441536Y328346D02*
X442717D01*
X442126Y327756D02*
Y328937D01*
X441929Y337008D02*
X443111D01*
X442520Y336417D02*
Y337598D01*
X389567Y333071D02*
X390748D01*
X390158Y332480D02*
Y333661D01*
X409646Y325984D02*
X410827D01*
X410237Y325394D02*
Y326575D01*
X445866Y321260D02*
X447048D01*
X446457Y320669D02*
Y321850D01*
X264961Y298031D02*
X265748D01*
X265355Y297638D02*
Y298425D01*
X264961Y279134D02*
X265748D01*
X265355Y278740D02*
Y279528D01*
X268111Y279134D02*
X268898D01*
X268504Y278740D02*
Y279528D01*
X297048Y324803D02*
X298229D01*
X297638Y324213D02*
Y325394D01*
X280118Y308268D02*
X281299D01*
X280709Y307677D02*
Y308858D01*
X286811Y279921D02*
X287993D01*
X287402Y279331D02*
Y280512D01*
X251772Y338583D02*
X252953D01*
X252362Y337992D02*
Y339173D01*
X258859Y338189D02*
X260040D01*
X259449Y337598D02*
Y338779D01*
X258859Y331496D02*
X260040D01*
X259449Y330906D02*
Y332087D01*
X408071Y189764D02*
X409252D01*
X408662Y189173D02*
Y190354D01*
X399803Y193701D02*
X400985D01*
X400394Y193110D02*
Y194291D01*
X416339Y188189D02*
X417520D01*
X416929Y187598D02*
Y188779D01*
X423425Y188189D02*
X424607D01*
X424016Y187598D02*
Y188779D01*
X417126Y171653D02*
X418307D01*
X417717Y171063D02*
Y172244D01*
X434055Y174016D02*
X435237D01*
X434646Y173425D02*
Y174606D01*
X437205Y185039D02*
X438386D01*
X437796Y184449D02*
Y185630D01*
X448622Y192126D02*
X449803D01*
X449213Y191535D02*
Y192717D01*
X435630Y180709D02*
X436811D01*
X436221Y180118D02*
Y181299D01*
X454528Y175197D02*
X455709D01*
X455118Y174606D02*
Y175787D01*
X436024Y194882D02*
X437205D01*
X436615Y194291D02*
Y195473D01*
X444292Y217323D02*
X445473D01*
X444882Y216732D02*
Y217913D01*
X432087Y229134D02*
X433268D01*
X432678Y228543D02*
Y229724D01*
X423032Y230709D02*
X424213D01*
X423622Y230118D02*
Y231299D01*
X423425Y238976D02*
X424607D01*
X424016Y238386D02*
Y239567D01*
X423032Y246063D02*
X424213D01*
X423622Y245472D02*
Y246654D01*
X446654Y253937D02*
X447835D01*
X447244Y253346D02*
Y254528D01*
X439567Y253543D02*
X440748D01*
X440158Y252953D02*
Y254134D01*
X431693Y253543D02*
X432874D01*
X432284Y252953D02*
Y254134D01*
X455315Y248031D02*
X456496D01*
X455906Y247441D02*
Y248622D01*
X439961Y250000D02*
X441142D01*
X440552Y249410D02*
Y250591D01*
X439961Y246457D02*
X441142D01*
X440552Y245866D02*
Y247047D01*
X437599Y248031D02*
X438780D01*
X438189Y247441D02*
Y248622D01*
X450197Y233465D02*
X451378D01*
X450788Y232874D02*
Y234055D01*
X439961Y233465D02*
X441142D01*
X440552Y232874D02*
Y234055D01*
X308465Y366535D02*
X309646D01*
X309055Y365945D02*
Y367126D01*
X311614Y361811D02*
X312796D01*
X312205Y361221D02*
Y362402D01*
X316339Y358268D02*
X317520D01*
X316930Y357677D02*
Y358858D01*
X315945Y352756D02*
X317126D01*
X316536Y352165D02*
Y353346D01*
X308859Y349606D02*
X310040D01*
X309449Y349016D02*
Y350197D01*
X317126Y338976D02*
X318307D01*
X317717Y338386D02*
Y339567D01*
X314764Y327559D02*
X315945D01*
X315355Y326969D02*
Y328150D01*
X307678Y342126D02*
X308859D01*
X308268Y341535D02*
Y342717D01*
X316339Y343701D02*
X317520D01*
X316930Y343110D02*
Y344291D01*
X417717Y229921D02*
X418504D01*
X418111Y229528D02*
Y230315D01*
X419882Y224410D02*
X421063D01*
X420473Y223819D02*
Y225000D01*
X321851Y381890D02*
X323032D01*
X322441Y381299D02*
Y382480D01*
X326969Y387008D02*
X328150D01*
X327559Y386417D02*
Y387598D01*
X373426Y326378D02*
X374607D01*
X374016Y325787D02*
Y326969D01*
X375788Y311024D02*
X376969D01*
X376378Y310433D02*
Y311614D01*
X355315Y314173D02*
X356496D01*
X355906Y313583D02*
Y314764D01*
X330512Y376772D02*
X331693D01*
X331103Y376181D02*
Y377362D01*
X339961Y302362D02*
X341142D01*
X340551Y301772D02*
Y302953D01*
X317520Y296850D02*
X318701D01*
X318111Y296260D02*
Y297441D01*
X356890Y259842D02*
X358071D01*
X357481Y259252D02*
Y260433D01*
X380118Y262992D02*
X381299D01*
X380709Y262402D02*
Y263583D01*
X367126Y281496D02*
X368307D01*
X367717Y280906D02*
Y282087D01*
X363189Y265354D02*
X364370D01*
X363780Y264764D02*
Y265945D01*
X333662Y264173D02*
X334843D01*
X334252Y263583D02*
Y264764D01*
X354922Y277953D02*
X356103D01*
X355512Y277362D02*
Y278543D01*
X337205Y275591D02*
X338386D01*
X337796Y275000D02*
Y276181D01*
X312008Y263779D02*
X313189D01*
X312599Y263189D02*
Y264370D01*
X299410Y275984D02*
X300591D01*
X300000Y275394D02*
Y276575D01*
X299803Y259842D02*
X300985D01*
X300394Y259252D02*
Y260433D01*
X311221Y281890D02*
X312402D01*
X311811Y281299D02*
Y282480D01*
X299803Y294488D02*
X300985D01*
X300394Y293898D02*
Y295079D01*
X299803Y288189D02*
X300985D01*
X300394Y287598D02*
Y288779D01*
X310827Y290551D02*
X312008D01*
X311418Y289961D02*
Y291142D01*
X299803Y304331D02*
X300985D01*
X300394Y303740D02*
Y304921D01*
X313977Y312598D02*
X315158D01*
X314567Y312008D02*
Y313189D01*
X280512Y344488D02*
X281693D01*
X281103Y343898D02*
Y345079D01*
X293504Y350000D02*
X294685D01*
X294095Y349410D02*
Y350591D01*
X266339Y340551D02*
X267520D01*
X266930Y339961D02*
Y341142D01*
X289567Y298425D02*
X290748D01*
X290158Y297835D02*
Y299016D01*
X269882Y324803D02*
X271063D01*
X270473Y324213D02*
Y325394D01*
X277362Y354724D02*
X278544D01*
X277953Y354134D02*
Y355315D01*
X298622Y364173D02*
X299803D01*
X299213Y363583D02*
Y364764D01*
X278150Y314961D02*
X279331D01*
X278741Y314370D02*
Y315551D01*
X326772Y335433D02*
X327559D01*
X327166Y335039D02*
Y335827D01*
X326772Y343701D02*
X327559D01*
X327166Y343307D02*
Y344094D01*
Y346457D02*
X327953D01*
X327559Y346063D02*
Y346850D01*
X324803Y322047D02*
X325591D01*
X325197Y321654D02*
Y322441D01*
X324803Y317717D02*
X325591D01*
X325197Y317323D02*
Y318110D01*
X338583Y314961D02*
X339370D01*
X338977Y314567D02*
Y315354D01*
X334843Y302362D02*
X336024D01*
X335433Y301772D02*
Y302953D01*
X350000Y304724D02*
X350788D01*
X350394Y304331D02*
Y305118D01*
X341733Y312205D02*
X342520D01*
X342126Y311811D02*
Y312598D01*
X343701Y310236D02*
X344489D01*
X344095Y309842D02*
Y310630D01*
X345670Y308268D02*
X346457D01*
X346063Y307874D02*
Y308661D01*
X348032Y306692D02*
X348819D01*
X348425Y306299D02*
Y307086D01*
X335237Y315748D02*
X336418D01*
X335827Y315158D02*
Y316339D01*
X331693Y297638D02*
X332874D01*
X332284Y297047D02*
Y298228D01*
X317520Y169291D02*
X318701D01*
X318111Y168701D02*
Y169882D01*
X317520Y118898D02*
X318701D01*
X318111Y118307D02*
Y119488D01*
X317520Y66929D02*
X318701D01*
X318111Y66339D02*
Y67520D01*
X407284Y199213D02*
X408465D01*
X407874Y198622D02*
Y199803D01*
X388780Y209842D02*
X389961D01*
X389370Y209252D02*
Y210433D01*
X376969Y56299D02*
X378150D01*
X377559Y55709D02*
Y56890D01*
X296260Y377953D02*
X297441D01*
X296851Y377362D02*
Y378543D01*
X306103Y397638D02*
X307284D01*
X306693Y397047D02*
Y398228D01*
X314764Y369291D02*
X315945D01*
X315355Y368701D02*
Y369882D01*
X339567Y357480D02*
X340748D01*
X340158Y356890D02*
Y358071D01*
X391142Y308268D02*
X392323D01*
X391733Y307677D02*
Y308858D01*
X310827Y385827D02*
X312008D01*
X311418Y385236D02*
Y386417D01*
X400197Y385827D02*
X401378D01*
X400788Y385236D02*
Y386417D01*
X368898Y387008D02*
X369685D01*
X369292Y386614D02*
Y387402D01*
X349607Y387008D02*
X350394D01*
X350000Y386614D02*
Y387402D01*
X328740Y348818D02*
X329528D01*
X329134Y348425D02*
Y349212D01*
X451181Y370472D02*
X451969D01*
X451575Y370079D02*
Y370866D01*
X386024Y383071D02*
X387205D01*
X386614Y382480D02*
Y383661D01*
X268111Y298031D02*
X268898D01*
X268504Y297638D02*
Y298425D01*
X283268Y303543D02*
X284449D01*
X283859Y302953D02*
Y304134D01*
X278150Y331890D02*
X279331D01*
X278741Y331299D02*
Y332480D01*
X279725Y328740D02*
X280906D01*
X280315Y328150D02*
Y329331D01*
X423819Y386614D02*
X425000D01*
X424410Y386024D02*
Y387205D01*
X429528Y388189D02*
X430315D01*
X429922Y387795D02*
Y388583D01*
X407284Y386221D02*
X408465D01*
X407874Y385630D02*
Y386811D01*
X420866Y390158D02*
X421654D01*
X421260Y389764D02*
Y390551D01*
X262402Y204724D02*
X263583D01*
X262993Y204134D02*
Y205315D01*
X262402Y196850D02*
X263583D01*
X262993Y196260D02*
Y197441D01*
X262402Y188976D02*
X263583D01*
X262993Y188386D02*
Y189567D01*
X262402Y181102D02*
X263583D01*
X262993Y180512D02*
Y181693D01*
X262402Y173228D02*
X263583D01*
X262993Y172638D02*
Y173819D01*
X262402Y212598D02*
X263583D01*
X262993Y212008D02*
Y213189D01*
X267914Y207874D02*
X269095D01*
X268504Y207283D02*
Y208465D01*
X266339Y226378D02*
X267520D01*
X266930Y225787D02*
Y226969D01*
X378544Y388583D02*
X379725D01*
X379134Y387992D02*
Y389173D01*
X375985Y386614D02*
X376772D01*
X376378Y386221D02*
Y387008D01*
X353741Y241339D02*
X354922D01*
X354331Y240748D02*
Y241929D01*
X384843Y274016D02*
X386024D01*
X385433Y273425D02*
Y274606D01*
X379134Y268504D02*
X379922D01*
X379528Y268110D02*
Y268898D01*
X388583Y275197D02*
X389370D01*
X388977Y274803D02*
Y275591D01*
X372638Y259449D02*
X373819D01*
X373229Y258858D02*
Y260039D01*
X348229Y257087D02*
X349410D01*
X348819Y256496D02*
Y257677D01*
X397835Y275591D02*
X399016D01*
X398426Y275000D02*
Y276181D01*
X427559Y385039D02*
X428347D01*
X427953Y384646D02*
Y385433D01*
X437205Y383858D02*
X438386D01*
X437796Y383268D02*
Y384449D01*
X439567Y375984D02*
X440748D01*
X440158Y375394D02*
Y376575D01*
X405118Y365354D02*
X405906D01*
X405512Y364961D02*
Y365748D01*
X250591Y177165D02*
X251772D01*
X251181Y176575D02*
Y177756D01*
X270079Y374016D02*
X270866D01*
X270473Y373622D02*
Y374410D01*
X272835Y375197D02*
X273622D01*
X273229Y374803D02*
Y375591D01*
X268898Y370866D02*
X269685D01*
X269292Y370472D02*
Y371260D01*
X274803Y373228D02*
X275591D01*
X275197Y372835D02*
Y373622D01*
X379134Y248031D02*
X379922D01*
X379528Y247638D02*
Y248425D01*
X376378Y245669D02*
X377166D01*
X376772Y245276D02*
Y246063D01*
X296851Y346850D02*
X297638D01*
X297244Y346457D02*
Y347244D01*
X310433Y355118D02*
X311614D01*
X311024Y354528D02*
Y355709D01*
X262402Y165354D02*
X263583D01*
X262993Y164764D02*
Y165945D01*
X262402Y220472D02*
X263583D01*
X262993Y219882D02*
Y221063D01*
X268701Y214961D02*
X269882D01*
X269292Y214370D02*
Y215551D01*
X285630Y193701D02*
X286811D01*
X286221Y193110D02*
Y194291D01*
X262402Y228346D02*
X263583D01*
X262993Y227756D02*
Y228937D01*
X326772Y362205D02*
X327559D01*
X327166Y361811D02*
Y362598D01*
X326378Y359449D02*
X327166D01*
X326772Y359055D02*
Y359842D01*
X276772Y375591D02*
X277559D01*
X277166Y375197D02*
Y375984D01*
X279922Y377165D02*
X280709D01*
X280315Y376772D02*
Y377559D01*
X262402Y157480D02*
X263583D01*
X262993Y156890D02*
Y158071D01*
X262402Y149606D02*
X263583D01*
X262993Y149016D02*
Y150197D01*
X278544Y349213D02*
X279725D01*
X279134Y348622D02*
Y349803D01*
X279331Y369685D02*
X280512D01*
X279922Y369094D02*
Y370276D01*
X286024Y379921D02*
X287205D01*
X286614Y379331D02*
Y380512D01*
X288386Y387008D02*
X289567D01*
X288977Y386417D02*
Y387598D01*
X326575Y351181D02*
X327756D01*
X327166Y350591D02*
Y351772D01*
X333268Y346457D02*
X334449D01*
X333859Y345866D02*
Y347047D01*
X369489Y333465D02*
X370670D01*
X370079Y332874D02*
Y334055D01*
X364764Y326378D02*
X365945D01*
X365355Y325787D02*
Y326969D01*
X315551Y253150D02*
X316733D01*
X316142Y252559D02*
Y253740D01*
X459252Y303150D02*
X460433D01*
X459843Y302559D02*
Y303740D01*
X262402Y141732D02*
X263583D01*
X262993Y141142D02*
Y142323D01*
X381496Y274016D02*
X382284D01*
X381890Y273622D02*
Y274410D01*
X444685Y274410D02*
X445866D01*
X445276Y273819D02*
Y275000D01*
X250591Y202756D02*
X251772D01*
X251181Y202165D02*
Y203346D01*
X391142Y388583D02*
X392323D01*
X391733Y387992D02*
Y389173D01*
X439961Y386221D02*
X441142D01*
X440552Y385630D02*
Y386811D01*
X303741Y336614D02*
X304922D01*
X304331Y336024D02*
Y337205D01*
X399016Y400394D02*
X400197D01*
X399607Y399803D02*
Y400984D01*
X378741Y365354D02*
X379528D01*
X379134Y364961D02*
Y365748D01*
X375591Y366535D02*
X376378D01*
X375985Y366142D02*
Y366929D01*
X311024Y294094D02*
X311811D01*
X311418Y293701D02*
Y294488D01*
X311024Y285827D02*
X311811D01*
X311418Y285433D02*
Y286221D01*
X266930Y285433D02*
X267717D01*
X267323Y285039D02*
Y285827D01*
Y289764D02*
X268111D01*
X267717Y289370D02*
Y290158D01*
X308859Y193701D02*
X310040D01*
X309449Y193110D02*
Y194291D01*
X270670Y191732D02*
X271851D01*
X271260Y191142D02*
Y192323D01*
X263189Y200787D02*
X264370D01*
X263780Y200197D02*
Y201378D01*
X273819Y196850D02*
X275000D01*
X274410Y196260D02*
Y197441D01*
X357087Y250394D02*
X357874D01*
X357481Y250000D02*
Y250787D01*
X286024Y311024D02*
X287205D01*
X286614Y310433D02*
Y311614D01*
X283071Y280709D02*
X283859D01*
X283465Y280315D02*
Y281102D01*
X296260Y266535D02*
X297441D01*
X296851Y265945D02*
Y267126D01*
X292323Y266535D02*
X293504D01*
X292914Y265945D02*
Y267126D01*
X295473Y262598D02*
X296654D01*
X296063Y262008D02*
Y263189D01*
X306890Y232283D02*
X308071D01*
X307481Y231693D02*
Y232874D01*
X310827Y251181D02*
X312008D01*
X311418Y250591D02*
Y251772D01*
X313977Y241339D02*
X315158D01*
X314567Y240748D02*
Y241929D01*
X313977Y244882D02*
X315158D01*
X314567Y244291D02*
Y245472D01*
X372638Y141732D02*
X373819D01*
X373229Y141142D02*
Y142323D01*
X320670Y218110D02*
X321851D01*
X321260Y217520D02*
Y218701D01*
X350985Y167323D02*
X352166D01*
X351575Y166732D02*
Y167913D01*
X364370Y167323D02*
X365551D01*
X364961Y166732D02*
Y167913D01*
X365158Y109055D02*
X366339D01*
X365748Y108465D02*
Y109646D01*
X361614Y98819D02*
X362796D01*
X362205Y98228D02*
Y99410D01*
X362008Y47638D02*
X363189D01*
X362599Y47047D02*
Y48228D01*
X438386Y43701D02*
X439567D01*
X438977Y43110D02*
Y44291D01*
X443111Y110236D02*
X444292D01*
X443701Y109646D02*
Y110827D01*
X293111Y159055D02*
X294292D01*
X293701Y158465D02*
Y159646D01*
X283071Y299606D02*
X283859D01*
X283465Y299213D02*
Y300000D01*
X692599Y284646D02*
X695748D01*
X694173Y283071D02*
Y286221D01*
X699685Y284646D02*
X702835D01*
X701260Y283071D02*
Y286221D01*
X651575Y264961D02*
X667323D01*
X659449Y257087D02*
Y272835D01*
X484449Y225197D02*
X486418D01*
X485433Y224213D02*
Y226181D01*
X484449Y222047D02*
X486418D01*
X485433Y221063D02*
Y223031D01*
X484449Y218898D02*
X486418D01*
X485433Y217913D02*
Y219882D01*
X484449Y215748D02*
X486418D01*
X485433Y214764D02*
Y216732D01*
X702953Y215748D02*
X704921D01*
X703937Y214764D02*
Y216732D01*
X702953Y218898D02*
X704921D01*
X703937Y217913D02*
Y219882D01*
X702953Y222047D02*
X704921D01*
X703937Y221063D02*
Y223031D01*
X702953Y225197D02*
X704921D01*
X703937Y224213D02*
Y226181D01*
X479528Y310709D02*
X481890D01*
X480709Y309528D02*
Y311890D01*
X495276Y266457D02*
X497638D01*
X496457Y265276D02*
Y267638D01*
X495276Y310709D02*
X497638D01*
X496457Y309528D02*
Y311890D01*
X479528Y266457D02*
X481890D01*
X480709Y265276D02*
Y267638D01*
X515748Y360709D02*
X528347D01*
X522048Y354410D02*
Y367008D01*
X679122Y75276D02*
X691721D01*
X685422Y68976D02*
Y81575D01*
X546738Y178819D02*
X550239D01*
X548489Y177069D02*
Y180569D01*
X538738Y178819D02*
X542239D01*
X540488Y177069D02*
Y180569D01*
X542738Y198819D02*
X546239D01*
X544488Y197069D02*
Y200569D01*
X655709Y309449D02*
X656890D01*
X656299Y308858D02*
Y310039D01*
X660040Y195276D02*
X661221D01*
X660630Y194685D02*
Y195866D01*
X533268Y221654D02*
X534449D01*
X533858Y221063D02*
Y222244D01*
X532481Y172047D02*
X533662D01*
X533071Y171457D02*
Y172638D01*
X680512Y163386D02*
X681693D01*
X681103Y162795D02*
Y163976D01*
X607284Y143307D02*
X608465D01*
X607874Y142717D02*
Y143898D01*
X609646Y116535D02*
X610827D01*
X610237Y115945D02*
Y117126D01*
X601378Y122047D02*
X602559D01*
X601969Y121457D02*
Y122638D01*
X531693Y71260D02*
X532874D01*
X532284Y70669D02*
Y71850D01*
X686418Y170473D02*
X687599D01*
X687008Y169882D02*
Y171063D01*
X598622Y175197D02*
X599803D01*
X599213Y174606D02*
Y175787D01*
X551772Y192520D02*
X552953D01*
X552362Y191929D02*
Y193110D01*
X558071Y180315D02*
X559252D01*
X558662Y179724D02*
Y180905D01*
X587992Y259449D02*
X589174D01*
X588583Y258858D02*
Y260039D01*
X671851Y70866D02*
X673032D01*
X672441Y70276D02*
Y71457D01*
X632874Y122835D02*
X634055D01*
X633465Y122244D02*
Y123425D01*
X627362Y178347D02*
X628544D01*
X627953Y177756D02*
Y178937D01*
X649410Y209842D02*
X650591D01*
X650000Y209252D02*
Y210433D01*
X697244Y241339D02*
X698032D01*
X697638Y240945D02*
Y241732D01*
X627756Y236221D02*
X628937D01*
X628347Y235630D02*
Y236811D01*
X587008Y246850D02*
X587795D01*
X587402Y246457D02*
Y247244D01*
X698425Y235433D02*
X699213D01*
X698819Y235039D02*
Y235827D01*
X692717Y238976D02*
X693898D01*
X693307Y238386D02*
Y239567D01*
X562599Y251969D02*
X563386D01*
X562992Y251575D02*
Y252362D01*
X563780Y256299D02*
X564567D01*
X564173Y255905D02*
Y256693D01*
X571851Y251575D02*
X573032D01*
X572441Y250984D02*
Y252165D01*
X611221Y137795D02*
X612402D01*
X611811Y137205D02*
Y138386D01*
X609252Y169685D02*
X610433D01*
X609843Y169095D02*
Y170276D01*
X558268Y256693D02*
X559055D01*
X558662Y256299D02*
Y257086D01*
X559055Y253937D02*
X559843D01*
X559449Y253543D02*
Y254331D01*
X554134Y218504D02*
X555315D01*
X554725Y217913D02*
Y219094D01*
X606496Y120866D02*
X607677D01*
X607087Y120276D02*
Y121457D01*
X606496Y70866D02*
X607677D01*
X607087Y70276D02*
Y71457D01*
X538386Y216142D02*
X539567D01*
X538977Y215551D02*
Y216732D01*
X617520Y167323D02*
X618701D01*
X618111Y166732D02*
Y167913D01*
X515552Y223622D02*
X516733D01*
X516142Y223031D02*
Y224213D01*
X689174Y210236D02*
X690355D01*
X689764Y209646D02*
Y210827D01*
X505709Y186614D02*
X506890D01*
X506299Y186024D02*
Y187205D01*
X517914Y178740D02*
X519095D01*
X518504Y178150D02*
Y179331D01*
X677756Y332677D02*
X678937D01*
X678347Y332087D02*
Y333268D01*
X610040Y181102D02*
X611221D01*
X610630Y180512D02*
Y181693D01*
X649016Y86614D02*
X650197D01*
X649607Y86024D02*
Y87205D01*
X623032Y82284D02*
X624213D01*
X623622Y81693D02*
Y82874D01*
X634843Y72835D02*
X636024D01*
X635433Y72244D02*
Y73425D01*
X622638Y60630D02*
X623819D01*
X623229Y60039D02*
Y61221D01*
X608858Y63386D02*
X610040D01*
X609449Y62795D02*
Y63976D01*
X610040Y51181D02*
X611221D01*
X610630Y50591D02*
Y51772D01*
X639567Y51181D02*
X640748D01*
X640158Y50591D02*
Y51772D01*
X647835Y59842D02*
X649016D01*
X648425Y59252D02*
Y60433D01*
X686811Y102362D02*
X687992D01*
X687402Y101772D02*
Y102953D01*
X700591Y169291D02*
X701772D01*
X701181Y168701D02*
Y169882D01*
X686418Y162992D02*
X687599D01*
X687008Y162402D02*
Y163583D01*
X686811Y139764D02*
X687992D01*
X687402Y139173D02*
Y140354D01*
X686811Y120079D02*
X687992D01*
X687402Y119488D02*
Y120669D01*
X681299Y64567D02*
X682481D01*
X681890Y63976D02*
Y65158D01*
X677756Y81890D02*
X678937D01*
X678347Y81299D02*
Y82480D01*
X678937Y94488D02*
X680118D01*
X679528Y93898D02*
Y95079D01*
X679331Y117323D02*
X680512D01*
X679921Y116732D02*
Y117913D01*
X679725Y136614D02*
X680906D01*
X680315Y136024D02*
Y137205D01*
X672244Y121653D02*
X673425D01*
X672835Y121063D02*
Y122244D01*
X647835Y103543D02*
X649016D01*
X648425Y102953D02*
Y104134D01*
X647835Y110236D02*
X649016D01*
X648425Y109646D02*
Y110827D01*
X618701Y102756D02*
X619882D01*
X619292Y102165D02*
Y103347D01*
X609646Y102362D02*
X610827D01*
X610237Y101772D02*
Y102953D01*
X619095Y109843D02*
X620276D01*
X619685Y109252D02*
Y110433D01*
X611024Y107480D02*
X611811D01*
X611418Y107087D02*
Y107874D01*
X610433Y133858D02*
X611614D01*
X611024Y133268D02*
Y134449D01*
X619882Y133071D02*
X621063D01*
X620473Y132480D02*
Y133661D01*
X633662Y147638D02*
X634843D01*
X634252Y147047D02*
Y148228D01*
X578544Y209842D02*
X579725D01*
X579134Y209252D02*
Y210433D01*
X561811Y247638D02*
X562599D01*
X562205Y247244D02*
Y248031D01*
X560237Y250000D02*
X561024D01*
X560630Y249606D02*
Y250394D01*
X564567Y245669D02*
X565355D01*
X564961Y245276D02*
Y246063D01*
X562008Y259055D02*
X563189D01*
X562599Y258465D02*
Y259646D01*
X556299Y258661D02*
X557087D01*
X556693Y258268D02*
Y259055D01*
X595079Y139370D02*
X596260D01*
X595670Y138779D02*
Y139961D01*
X570670Y133858D02*
X571851D01*
X571260Y133268D02*
Y134449D01*
X578544Y114173D02*
X579725D01*
X579134Y113583D02*
Y114764D01*
X578544Y102362D02*
X579725D01*
X579134Y101772D02*
Y102953D01*
X570670Y82677D02*
X571851D01*
X571260Y82087D02*
Y83268D01*
X600984Y92520D02*
X602166D01*
X601575Y91929D02*
Y93110D01*
X601772Y70473D02*
X602953D01*
X602362Y69882D02*
Y71063D01*
X558858Y51181D02*
X560040D01*
X559449Y50591D02*
Y51772D01*
X578544Y61024D02*
X579725D01*
X579134Y60433D02*
Y61614D01*
X538386Y63779D02*
X539567D01*
X538977Y63189D02*
Y64370D01*
X531299Y86614D02*
X532481D01*
X531890Y86024D02*
Y87205D01*
X550591Y70866D02*
X551772D01*
X551181Y70276D02*
Y71457D01*
X507677Y51181D02*
X508858D01*
X508268Y50591D02*
Y51772D01*
X507677Y75197D02*
X508858D01*
X508268Y74606D02*
Y75787D01*
X507677Y94488D02*
X508858D01*
X508268Y93898D02*
Y95079D01*
X550984Y102362D02*
X552166D01*
X551575Y101772D02*
Y102953D01*
X541142Y112205D02*
X542323D01*
X541733Y111614D02*
Y112795D01*
X550984Y122047D02*
X552166D01*
X551575Y121457D02*
Y122638D01*
X523425Y125984D02*
X524607D01*
X524016Y125394D02*
Y126575D01*
X507677Y114173D02*
X508858D01*
X508268Y113583D02*
Y114764D01*
X507677Y137795D02*
X508858D01*
X508268Y137205D02*
Y138386D01*
X507677Y157480D02*
X508858D01*
X508268Y156890D02*
Y158071D01*
X522638Y229528D02*
X523819D01*
X523229Y228937D02*
Y230118D01*
X548622Y205512D02*
X549803D01*
X549213Y204921D02*
Y206102D01*
X550984Y153543D02*
X552166D01*
X551575Y152953D02*
Y154134D01*
X558858Y153543D02*
X560040D01*
X559449Y152953D02*
Y154134D01*
X578544Y153543D02*
X579725D01*
X579134Y152953D02*
Y154134D01*
X580512Y165354D02*
X581693D01*
X581103Y164764D02*
Y165945D01*
X534055Y166142D02*
X535237D01*
X534646Y165551D02*
Y166732D01*
X558858Y162992D02*
X560040D01*
X559449Y162402D02*
Y163583D01*
X570670Y194882D02*
X571851D01*
X571260Y194291D02*
Y195473D01*
X559646Y201575D02*
X560827D01*
X560237Y200984D02*
Y202165D01*
X582481Y188976D02*
X583662D01*
X583071Y188386D02*
Y189567D01*
X673819Y229528D02*
X675000D01*
X674410Y228937D02*
Y230118D01*
X692323Y222835D02*
X693504D01*
X692914Y222244D02*
Y223425D01*
X692717Y198425D02*
X693898D01*
X693307Y197835D02*
Y199016D01*
X679725Y168504D02*
X680906D01*
X680315Y167913D02*
Y169095D01*
X676181Y142913D02*
X677362D01*
X676772Y142323D02*
Y143504D01*
X659252Y140945D02*
X660433D01*
X659843Y140354D02*
Y141535D01*
X647835Y132677D02*
X649016D01*
X648425Y132087D02*
Y133268D01*
X649016Y155118D02*
X650197D01*
X649607Y154528D02*
Y155709D01*
X617914Y141339D02*
X619095D01*
X618504Y140748D02*
Y141929D01*
X617520Y160630D02*
X618701D01*
X618111Y160039D02*
Y161221D01*
X649016Y161417D02*
X650197D01*
X649607Y160827D02*
Y162008D01*
X643898Y173228D02*
X645079D01*
X644488Y172638D02*
Y173819D01*
X637992Y185827D02*
X639174D01*
X638583Y185236D02*
Y186417D01*
X598229Y192913D02*
X599410D01*
X598819Y192323D02*
Y193504D01*
X610433Y206693D02*
X611614D01*
X611024Y206102D02*
Y207283D01*
X631299Y198031D02*
X632481D01*
X631890Y197441D02*
Y198622D01*
X647835Y206299D02*
X649016D01*
X648425Y205709D02*
Y206890D01*
X616339Y204724D02*
X617520D01*
X616929Y204134D02*
Y205315D01*
X637599Y251969D02*
X638780D01*
X638189Y251378D02*
Y252559D01*
X651378Y228346D02*
X652559D01*
X651969Y227756D02*
Y228937D01*
X636418Y228346D02*
X637599D01*
X637008Y227756D02*
Y228937D01*
X640748Y222441D02*
X641929D01*
X641339Y221850D02*
Y223031D01*
X647441Y214567D02*
X648622D01*
X648032Y213976D02*
Y215158D01*
X651772Y222441D02*
X652953D01*
X652362Y221850D02*
Y223031D01*
X630906Y213386D02*
X632087D01*
X631496Y212795D02*
Y213976D01*
X616733Y228346D02*
X617914D01*
X617323Y227756D02*
Y228937D01*
X610040Y228346D02*
X611221D01*
X610630Y227756D02*
Y228937D01*
X590355Y228346D02*
X591536D01*
X590945Y227756D02*
Y228937D01*
X578544Y216535D02*
X579725D01*
X579134Y215945D02*
Y217126D01*
X571063Y228346D02*
X572244D01*
X571654Y227756D02*
Y228937D01*
X555315Y263779D02*
X556496D01*
X555906Y263189D02*
Y264370D01*
X571063Y240551D02*
X572244D01*
X571654Y239961D02*
Y241142D01*
X585237Y240158D02*
X586418D01*
X585827Y239567D02*
Y240748D01*
X603347Y242913D02*
X604528D01*
X603937Y242323D02*
Y243504D01*
X619882Y240945D02*
X621063D01*
X620473Y240354D02*
Y241535D01*
X622244Y283465D02*
X623425D01*
X622835Y282874D02*
Y284055D01*
X683662Y280315D02*
X684843D01*
X684252Y279724D02*
Y280906D01*
X657284Y279528D02*
X658465D01*
X657874Y278937D02*
Y280118D01*
X628544Y289370D02*
X629725D01*
X629134Y288779D02*
Y289961D01*
X628150Y304331D02*
X629331D01*
X628740Y303740D02*
Y304921D01*
X639174Y285039D02*
X640355D01*
X639764Y284449D02*
Y285630D01*
X661221Y295276D02*
X662402D01*
X661811Y294685D02*
Y295866D01*
X684843Y299213D02*
X686024D01*
X685433Y298622D02*
Y299803D01*
X700591Y318898D02*
X701772D01*
X701181Y318307D02*
Y319488D01*
X700591Y358268D02*
X701772D01*
X701181Y357677D02*
Y358858D01*
X700591Y338583D02*
X701772D01*
X701181Y337992D02*
Y339173D01*
X700591Y377953D02*
X701772D01*
X701181Y377362D02*
Y378543D01*
X700591Y248031D02*
X701772D01*
X701181Y247441D02*
Y248622D01*
X700591Y267717D02*
X701772D01*
X701181Y267126D02*
Y268307D01*
X700591Y299213D02*
X701772D01*
X701181Y298622D02*
Y299803D01*
X681693Y209449D02*
X682874D01*
X682284Y208858D02*
Y210039D01*
X700591Y208661D02*
X701772D01*
X701181Y208071D02*
Y209252D01*
X700591Y188976D02*
X701772D01*
X701181Y188386D02*
Y189567D01*
X700591Y230315D02*
X701772D01*
X701181Y229724D02*
Y230906D01*
X700591Y90551D02*
X701772D01*
X701181Y89961D02*
Y91142D01*
X700591Y129921D02*
X701772D01*
X701181Y129331D02*
Y130512D01*
X700591Y110236D02*
X701772D01*
X701181Y109646D02*
Y110827D01*
X700591Y149606D02*
X701772D01*
X701181Y149016D02*
Y150197D01*
X688780Y31496D02*
X689961D01*
X689370Y30906D02*
Y32087D01*
X700591Y51181D02*
X701772D01*
X701181Y50591D02*
Y51772D01*
X696654Y39370D02*
X697835D01*
X697244Y38780D02*
Y39961D01*
X700591Y70866D02*
X701772D01*
X701181Y70276D02*
Y71457D01*
X610040Y31496D02*
X611221D01*
X610630Y30906D02*
Y32087D01*
X649410Y33071D02*
X650591D01*
X650000Y32480D02*
Y33661D01*
X629725Y31496D02*
X630906D01*
X630315Y30906D02*
Y32087D01*
X669095Y31496D02*
X670276D01*
X669685Y30906D02*
Y32087D01*
X590355Y31496D02*
X591536D01*
X590945Y30906D02*
Y32087D01*
X550984Y31496D02*
X552166D01*
X551575Y30906D02*
Y32087D01*
X570670Y31496D02*
X571851D01*
X571260Y30906D02*
Y32087D01*
X531299Y32677D02*
X532481D01*
X531890Y32087D02*
Y33268D01*
X511614Y31496D02*
X512795D01*
X512205Y30906D02*
Y32087D01*
X497441Y33071D02*
X498622D01*
X498032Y32480D02*
Y33661D01*
X488780Y47244D02*
X489961D01*
X489370Y46654D02*
Y47835D01*
X487992Y66929D02*
X489174D01*
X488583Y66339D02*
Y67520D01*
X487992Y86614D02*
X489174D01*
X488583Y86024D02*
Y87205D01*
X487992Y106299D02*
X489174D01*
X488583Y105709D02*
Y106890D01*
X487992Y125984D02*
X489174D01*
X488583Y125394D02*
Y126575D01*
X487992Y145669D02*
X489174D01*
X488583Y145079D02*
Y146260D01*
X487992Y161417D02*
X489174D01*
X488583Y160827D02*
Y162008D01*
X487992Y190945D02*
X489174D01*
X488583Y190354D02*
Y191535D01*
X486418Y237008D02*
X487599D01*
X487008Y236417D02*
Y237598D01*
X503347Y237008D02*
X504528D01*
X503937Y236417D02*
Y237598D01*
X503347Y248425D02*
X504528D01*
X503937Y247835D02*
Y249016D01*
X503740Y259842D02*
X504921D01*
X504331Y259252D02*
Y260433D01*
X485630Y248819D02*
X486811D01*
X486221Y248228D02*
Y249410D01*
X491929Y216535D02*
X493111D01*
X492520Y215945D02*
Y217126D01*
X521063Y236221D02*
X522244D01*
X521654Y235630D02*
Y236811D01*
X533268Y236221D02*
X534449D01*
X533858Y235630D02*
Y236811D01*
X541536Y236221D02*
X542717D01*
X542126Y235630D02*
Y236811D01*
X527362Y254331D02*
X528544D01*
X527953Y253740D02*
Y254921D01*
X536811Y254331D02*
X537992D01*
X537402Y253740D02*
Y254921D01*
X519882Y254331D02*
X521063D01*
X520473Y253740D02*
Y254921D01*
X520276Y270472D02*
X521457D01*
X520866Y269882D02*
Y271063D01*
X530118Y356693D02*
X531299D01*
X530709Y356102D02*
Y357283D01*
X503740Y364567D02*
X504921D01*
X504331Y363976D02*
Y365158D01*
X529725Y372441D02*
X530906D01*
X530315Y371850D02*
Y373031D01*
X477756Y318898D02*
X478937D01*
X478347Y318307D02*
Y319488D01*
X485630Y324410D02*
X486811D01*
X486221Y323819D02*
Y325000D01*
X489174Y350394D02*
X490355D01*
X489764Y349803D02*
Y350984D01*
X489174Y370079D02*
X490355D01*
X489764Y369488D02*
Y370669D01*
X489174Y389764D02*
X490355D01*
X489764Y389173D02*
Y390354D01*
X499803Y400394D02*
X500984D01*
X500394Y399803D02*
Y400984D01*
X513189Y401181D02*
X514370D01*
X513780Y400591D02*
Y401772D01*
X533268Y400787D02*
X534449D01*
X533858Y400197D02*
Y401378D01*
X558858Y400394D02*
X560040D01*
X559449Y399803D02*
Y400984D01*
X578544Y400394D02*
X579725D01*
X579134Y399803D02*
Y400984D01*
X596260Y400394D02*
X597441D01*
X596851Y399803D02*
Y400984D01*
X617914Y400394D02*
X619095D01*
X618504Y399803D02*
Y400984D01*
X684843Y392520D02*
X686024D01*
X685433Y391929D02*
Y393110D01*
X647048Y392126D02*
X648229D01*
X647638Y391535D02*
Y392717D01*
X634843Y392520D02*
X636024D01*
X635433Y391929D02*
Y393110D01*
X647441Y400787D02*
X648622D01*
X648032Y400197D02*
Y401378D01*
X654921Y377953D02*
X656103D01*
X655512Y377362D02*
Y378543D01*
X639174Y381102D02*
X640355D01*
X639764Y380512D02*
Y381693D01*
X631299Y380709D02*
X632481D01*
X631890Y380118D02*
Y381299D01*
X599410Y375591D02*
X600591D01*
X600000Y375000D02*
Y376181D01*
X581299Y387402D02*
X582481D01*
X581890Y386811D02*
Y387992D01*
X573032Y376772D02*
X574213D01*
X573622Y376181D02*
Y377362D01*
X578150Y366535D02*
X579331D01*
X578740Y365945D02*
Y367126D01*
X591929Y366929D02*
X593111D01*
X592520Y366339D02*
Y367520D01*
X602166Y366929D02*
X603347D01*
X602756Y366339D02*
Y367520D01*
X609646Y359449D02*
X610827D01*
X610237Y358858D02*
Y360039D01*
X600984Y359449D02*
X602166D01*
X601575Y358858D02*
Y360039D01*
X587599Y348819D02*
X588780D01*
X588189Y348228D02*
Y349410D01*
X574213Y336221D02*
X575394D01*
X574803Y335630D02*
Y336811D01*
X567126Y335039D02*
X568307D01*
X567717Y334449D02*
Y335630D01*
X592717Y341732D02*
X593898D01*
X593307Y341142D02*
Y342323D01*
X600984Y350394D02*
X602166D01*
X601575Y349803D02*
Y350984D01*
X584055Y330709D02*
X585237D01*
X584646Y330118D02*
Y331299D01*
X581299Y325984D02*
X582481D01*
X581890Y325394D02*
Y326575D01*
X604725Y346850D02*
X605512D01*
X605118Y346457D02*
Y347244D01*
X647048Y336221D02*
X648229D01*
X647638Y335630D02*
Y336811D01*
X632087Y327559D02*
X633268D01*
X632677Y326969D02*
Y328150D01*
X638583Y366929D02*
X639370D01*
X638977Y366535D02*
Y367323D01*
X651575Y374016D02*
X652362D01*
X651969Y373622D02*
Y374410D01*
X653937Y371654D02*
X654725D01*
X654331Y371260D02*
Y372047D01*
X638189Y375197D02*
X638977D01*
X638583Y374803D02*
Y375591D01*
X624410Y359449D02*
X625197D01*
X624803Y359055D02*
Y359842D01*
X686418Y177165D02*
X687599D01*
X687008Y176575D02*
Y177756D01*
X686418Y173622D02*
X687599D01*
X687008Y173031D02*
Y174213D01*
X686418Y180709D02*
X687599D01*
X687008Y180118D02*
Y181299D01*
X676181Y180709D02*
X677362D01*
X676772Y180118D02*
Y181299D01*
X691142Y375591D02*
X692323D01*
X691733Y375000D02*
Y376181D01*
X665945Y392126D02*
X667126D01*
X666536Y391535D02*
Y392717D01*
X677362Y392520D02*
X678544D01*
X677953Y391929D02*
Y393110D01*
X684843Y381496D02*
X686024D01*
X685433Y380906D02*
Y382087D01*
X681693Y372047D02*
X682874D01*
X682284Y371457D02*
Y372638D01*
X676181Y369685D02*
X677362D01*
X676772Y369094D02*
Y370276D01*
X676181Y362992D02*
X677362D01*
X676772Y362402D02*
Y363583D01*
X676181Y366535D02*
X677362D01*
X676772Y365945D02*
Y367126D01*
X696260Y363779D02*
X697441D01*
X696851Y363189D02*
Y364370D01*
X699410Y385827D02*
X700591D01*
X700000Y385236D02*
Y386417D01*
X691929Y353937D02*
X693111D01*
X692520Y353346D02*
Y354528D01*
X688189Y384252D02*
X688977D01*
X688583Y383858D02*
Y384646D01*
X502166Y242913D02*
X503347D01*
X502756Y242323D02*
Y243504D01*
X536024Y337795D02*
X537205D01*
X536614Y337205D02*
Y338386D01*
X527559Y284252D02*
X528347D01*
X527953Y283858D02*
Y284646D01*
X527559Y291732D02*
X528347D01*
X527953Y291339D02*
Y292126D01*
X502559Y357087D02*
X503740D01*
X503150Y356496D02*
Y357677D01*
X518307Y338976D02*
X519488D01*
X518898Y338386D02*
Y339567D01*
X520670Y341339D02*
X521851D01*
X521260Y340748D02*
Y341929D01*
X520670Y337008D02*
X521851D01*
X521260Y336417D02*
Y337598D01*
X513583Y329134D02*
X514764D01*
X514174Y328543D02*
Y329724D01*
X519488Y314961D02*
X520670D01*
X520079Y314370D02*
Y315551D01*
X517520Y320079D02*
X518701D01*
X518111Y319488D02*
Y320669D01*
X515552Y325197D02*
X516733D01*
X516142Y324606D02*
Y325787D01*
X519488Y325197D02*
X520670D01*
X520079Y324606D02*
Y325787D01*
X666536Y365748D02*
X667323D01*
X666929Y365354D02*
Y366142D01*
X654331Y360630D02*
X655118D01*
X654725Y360236D02*
Y361024D01*
X662599Y372441D02*
X663386D01*
X662992Y372047D02*
Y372835D01*
X659055Y372047D02*
X659843D01*
X659449Y371654D02*
Y372441D01*
X567520Y316142D02*
X568701D01*
X568111Y315551D02*
Y316732D01*
X569488Y325984D02*
X570670D01*
X570079Y325394D02*
Y326575D01*
X650788Y320866D02*
X651575D01*
X651181Y320472D02*
Y321260D01*
X652362Y318504D02*
X653150D01*
X652756Y318110D02*
Y318898D01*
X658662D02*
X659449D01*
X659055Y318504D02*
Y319291D01*
X656693Y321260D02*
X657481D01*
X657087Y320866D02*
Y321654D01*
X585827Y377559D02*
X586614D01*
X586221Y377165D02*
Y377953D01*
X581890Y377165D02*
X582677D01*
X582284Y376772D02*
Y377559D01*
X645276Y366929D02*
X646063D01*
X645670Y366535D02*
Y367323D01*
X587402Y372441D02*
X588189D01*
X587795Y372047D02*
Y372835D01*
X625197Y327953D02*
X625984D01*
X625591Y327559D02*
Y328346D01*
X609055Y329528D02*
X609843D01*
X609449Y329134D02*
Y329921D01*
X617914Y316929D02*
X619095D01*
X618504Y316339D02*
Y317520D01*
X617914Y310236D02*
X619095D01*
X618504Y309646D02*
Y310827D01*
X610433Y314961D02*
X611614D01*
X611024Y314370D02*
Y315551D01*
X617914Y299213D02*
X619095D01*
X618504Y298622D02*
Y299803D01*
X599803Y299213D02*
X600984D01*
X600394Y298622D02*
Y299803D01*
X608858Y295669D02*
X610040D01*
X609449Y295079D02*
Y296260D01*
X612008Y277559D02*
X613189D01*
X612599Y276969D02*
Y278150D01*
X620670Y289370D02*
X621851D01*
X621260Y288779D02*
Y289961D01*
X587008Y271654D02*
X587795D01*
X587402Y271260D02*
Y272047D01*
X583071Y274016D02*
X583858D01*
X583465Y273622D02*
Y274410D01*
X579528Y272047D02*
X580315D01*
X579921Y271654D02*
Y272441D01*
X570473Y330709D02*
X571260D01*
X570866Y330315D02*
Y331102D01*
X566142Y331890D02*
X566929D01*
X566536Y331496D02*
Y332283D01*
X573622Y327953D02*
X574410D01*
X574016Y327559D02*
Y328346D01*
X578347Y327559D02*
X579134D01*
X578740Y327165D02*
Y327953D01*
X563189Y306693D02*
X564370D01*
X563780Y306102D02*
Y307283D01*
X554921Y304331D02*
X556103D01*
X555512Y303740D02*
Y304921D01*
X691536Y390551D02*
X692717D01*
X692126Y389961D02*
Y391142D01*
X676969Y400394D02*
X678150D01*
X677559Y399803D02*
Y400984D01*
X688780Y399606D02*
X689961D01*
X689370Y399016D02*
Y400197D01*
X662992Y380709D02*
X663780D01*
X663386Y380315D02*
Y381102D01*
X592520Y374016D02*
X593307D01*
X592914Y373622D02*
Y374410D01*
X607874Y375591D02*
X608662D01*
X608268Y375197D02*
Y375984D01*
X577953Y316929D02*
X578740D01*
X578347Y316535D02*
Y317323D01*
X685040Y315354D02*
X685827D01*
X685433Y314961D02*
Y315748D01*
X660433Y328346D02*
X661614D01*
X661024Y327756D02*
Y328937D01*
X656103Y328346D02*
X657284D01*
X656693Y327756D02*
Y328937D01*
X645473Y314173D02*
X646654D01*
X646063Y313583D02*
Y314764D01*
X669882Y309449D02*
X671063D01*
X670473Y308858D02*
Y310039D01*
X673032Y313779D02*
X674213D01*
X673622Y313189D02*
Y314370D01*
X673819Y324803D02*
X675000D01*
X674410Y324213D02*
Y325394D01*
X678937Y328346D02*
X680118D01*
X679528Y327756D02*
Y328937D01*
X679331Y337008D02*
X680512D01*
X679921Y336417D02*
Y337598D01*
X626969Y333071D02*
X628150D01*
X627559Y332480D02*
Y333661D01*
X647048Y325984D02*
X648229D01*
X647638Y325394D02*
Y326575D01*
X683268Y321260D02*
X684449D01*
X683858Y320669D02*
Y321850D01*
X502362Y298031D02*
X503150D01*
X502756Y297638D02*
Y298425D01*
X502362Y279134D02*
X503150D01*
X502756Y278740D02*
Y279528D01*
X505512Y279134D02*
X506299D01*
X505906Y278740D02*
Y279528D01*
X534449Y324803D02*
X535630D01*
X535040Y324213D02*
Y325394D01*
X517520Y308268D02*
X518701D01*
X518111Y307677D02*
Y308858D01*
X524213Y279921D02*
X525394D01*
X524803Y279331D02*
Y280512D01*
X489174Y338583D02*
X490355D01*
X489764Y337992D02*
Y339173D01*
X496260Y338189D02*
X497441D01*
X496851Y337598D02*
Y338779D01*
X496260Y331496D02*
X497441D01*
X496851Y330906D02*
Y332087D01*
X645473Y189764D02*
X646654D01*
X646063Y189173D02*
Y190354D01*
X637205Y193701D02*
X638386D01*
X637795Y193110D02*
Y194291D01*
X653740Y188189D02*
X654921D01*
X654331Y187598D02*
Y188779D01*
X660827Y188189D02*
X662008D01*
X661418Y187598D02*
Y188779D01*
X654528Y171653D02*
X655709D01*
X655118Y171063D02*
Y172244D01*
X671457Y174016D02*
X672638D01*
X672048Y173425D02*
Y174606D01*
X674607Y185039D02*
X675788D01*
X675197Y184449D02*
Y185630D01*
X686024Y192126D02*
X687205D01*
X686614Y191535D02*
Y192717D01*
X673032Y180709D02*
X674213D01*
X673622Y180118D02*
Y181299D01*
X691929Y175197D02*
X693111D01*
X692520Y174606D02*
Y175787D01*
X673425Y194882D02*
X674607D01*
X674016Y194291D02*
Y195473D01*
X681693Y217323D02*
X682874D01*
X682284Y216732D02*
Y217913D01*
X669488Y229134D02*
X670670D01*
X670079Y228543D02*
Y229724D01*
X660433Y230709D02*
X661614D01*
X661024Y230118D02*
Y231299D01*
X660827Y238976D02*
X662008D01*
X661418Y238386D02*
Y239567D01*
X660433Y246063D02*
X661614D01*
X661024Y245472D02*
Y246654D01*
X684055Y253937D02*
X685237D01*
X684646Y253346D02*
Y254528D01*
X676969Y253543D02*
X678150D01*
X677559Y252953D02*
Y254134D01*
X669095Y253543D02*
X670276D01*
X669685Y252953D02*
Y254134D01*
X692717Y248031D02*
X693898D01*
X693307Y247441D02*
Y248622D01*
X677362Y250000D02*
X678544D01*
X677953Y249410D02*
Y250591D01*
X677362Y246457D02*
X678544D01*
X677953Y245866D02*
Y247047D01*
X675000Y248031D02*
X676181D01*
X675591Y247441D02*
Y248622D01*
X687599Y233465D02*
X688780D01*
X688189Y232874D02*
Y234055D01*
X677362Y233465D02*
X678544D01*
X677953Y232874D02*
Y234055D01*
X545866Y366535D02*
X547048D01*
X546457Y365945D02*
Y367126D01*
X549016Y361811D02*
X550197D01*
X549607Y361221D02*
Y362402D01*
X553740Y358268D02*
X554921D01*
X554331Y357677D02*
Y358858D01*
X553347Y352756D02*
X554528D01*
X553937Y352165D02*
Y353346D01*
X546260Y349606D02*
X547441D01*
X546851Y349016D02*
Y350197D01*
X554528Y338976D02*
X555709D01*
X555118Y338386D02*
Y339567D01*
X552166Y327559D02*
X553347D01*
X552756Y326969D02*
Y328150D01*
X545079Y342126D02*
X546260D01*
X545670Y341535D02*
Y342717D01*
X553740Y343701D02*
X554921D01*
X554331Y343110D02*
Y344291D01*
X655118Y229921D02*
X655906D01*
X655512Y229528D02*
Y230315D01*
X657284Y224410D02*
X658465D01*
X657874Y223819D02*
Y225000D01*
X559252Y381890D02*
X560433D01*
X559843Y381299D02*
Y382480D01*
X564370Y387008D02*
X565552D01*
X564961Y386417D02*
Y387598D01*
X610827Y326378D02*
X612008D01*
X611418Y325787D02*
Y326969D01*
X613189Y311024D02*
X614370D01*
X613780Y310433D02*
Y311614D01*
X592717Y314173D02*
X593898D01*
X593307Y313583D02*
Y314764D01*
X567914Y376772D02*
X569095D01*
X568504Y376181D02*
Y377362D01*
X577362Y302362D02*
X578544D01*
X577953Y301772D02*
Y302953D01*
X554921Y296850D02*
X556103D01*
X555512Y296260D02*
Y297441D01*
X594292Y259842D02*
X595473D01*
X594882Y259252D02*
Y260433D01*
X617520Y262992D02*
X618701D01*
X618111Y262402D02*
Y263583D01*
X604528Y281496D02*
X605709D01*
X605118Y280906D02*
Y282087D01*
X600591Y265354D02*
X601772D01*
X601181Y264764D02*
Y265945D01*
X571063Y264173D02*
X572244D01*
X571654Y263583D02*
Y264764D01*
X592323Y277953D02*
X593504D01*
X592914Y277362D02*
Y278543D01*
X574607Y275591D02*
X575788D01*
X575197Y275000D02*
Y276181D01*
X549410Y263779D02*
X550591D01*
X550000Y263189D02*
Y264370D01*
X536811Y275984D02*
X537992D01*
X537402Y275394D02*
Y276575D01*
X537205Y259842D02*
X538386D01*
X537795Y259252D02*
Y260433D01*
X548622Y281890D02*
X549803D01*
X549213Y281299D02*
Y282480D01*
X537205Y294488D02*
X538386D01*
X537795Y293898D02*
Y295079D01*
X537205Y288189D02*
X538386D01*
X537795Y287598D02*
Y288779D01*
X548229Y290551D02*
X549410D01*
X548819Y289961D02*
Y291142D01*
X537205Y304331D02*
X538386D01*
X537795Y303740D02*
Y304921D01*
X551378Y312598D02*
X552559D01*
X551969Y312008D02*
Y313189D01*
X517914Y344488D02*
X519095D01*
X518504Y343898D02*
Y345079D01*
X530906Y350000D02*
X532087D01*
X531496Y349410D02*
Y350591D01*
X503740Y340551D02*
X504921D01*
X504331Y339961D02*
Y341142D01*
X526969Y298425D02*
X528150D01*
X527559Y297835D02*
Y299016D01*
X507284Y324803D02*
X508465D01*
X507874Y324213D02*
Y325394D01*
X514764Y354724D02*
X515945D01*
X515355Y354134D02*
Y355315D01*
X536024Y364173D02*
X537205D01*
X536614Y363583D02*
Y364764D01*
X515552Y314961D02*
X516733D01*
X516142Y314370D02*
Y315551D01*
X564174Y335433D02*
X564961D01*
X564567Y335039D02*
Y335827D01*
X564174Y343701D02*
X564961D01*
X564567Y343307D02*
Y344094D01*
Y346457D02*
X565355D01*
X564961Y346063D02*
Y346850D01*
X562205Y322047D02*
X562992D01*
X562599Y321654D02*
Y322441D01*
X562205Y317717D02*
X562992D01*
X562599Y317323D02*
Y318110D01*
X575984Y314961D02*
X576772D01*
X576378Y314567D02*
Y315354D01*
X572244Y302362D02*
X573425D01*
X572835Y301772D02*
Y302953D01*
X587402Y304724D02*
X588189D01*
X587795Y304331D02*
Y305118D01*
X579134Y312205D02*
X579921D01*
X579528Y311811D02*
Y312598D01*
X581103Y310236D02*
X581890D01*
X581496Y309842D02*
Y310630D01*
X583071Y308268D02*
X583858D01*
X583465Y307874D02*
Y308661D01*
X585433Y306692D02*
X586221D01*
X585827Y306299D02*
Y307086D01*
X572638Y315748D02*
X573819D01*
X573229Y315158D02*
Y316339D01*
X569095Y297638D02*
X570276D01*
X569685Y297047D02*
Y298228D01*
X554921Y169291D02*
X556103D01*
X555512Y168701D02*
Y169882D01*
X554921Y118898D02*
X556103D01*
X555512Y118307D02*
Y119488D01*
X554921Y66929D02*
X556103D01*
X555512Y66339D02*
Y67520D01*
X644685Y199213D02*
X645866D01*
X645276Y198622D02*
Y199803D01*
X626181Y209842D02*
X627362D01*
X626772Y209252D02*
Y210433D01*
X614370Y56299D02*
X615552D01*
X614961Y55709D02*
Y56890D01*
X533662Y377953D02*
X534843D01*
X534252Y377362D02*
Y378543D01*
X543504Y397638D02*
X544685D01*
X544095Y397047D02*
Y398228D01*
X552166Y369291D02*
X553347D01*
X552756Y368701D02*
Y369882D01*
X576969Y357480D02*
X578150D01*
X577559Y356890D02*
Y358071D01*
X628544Y308268D02*
X629725D01*
X629134Y307677D02*
Y308858D01*
X548229Y385827D02*
X549410D01*
X548819Y385236D02*
Y386417D01*
X637599Y385827D02*
X638780D01*
X638189Y385236D02*
Y386417D01*
X606299Y387008D02*
X607087D01*
X606693Y386614D02*
Y387402D01*
X587008Y387008D02*
X587795D01*
X587402Y386614D02*
Y387402D01*
X566142Y348818D02*
X566929D01*
X566536Y348425D02*
Y349212D01*
X688583Y370472D02*
X689370D01*
X688977Y370079D02*
Y370866D01*
X623425Y383071D02*
X624607D01*
X624016Y382480D02*
Y383661D01*
X505512Y298031D02*
X506299D01*
X505906Y297638D02*
Y298425D01*
X520670Y303543D02*
X521851D01*
X521260Y302953D02*
Y304134D01*
X515552Y331890D02*
X516733D01*
X516142Y331299D02*
Y332480D01*
X517126Y328740D02*
X518307D01*
X517717Y328150D02*
Y329331D01*
X661221Y386614D02*
X662402D01*
X661811Y386024D02*
Y387205D01*
X666929Y388189D02*
X667717D01*
X667323Y387795D02*
Y388583D01*
X644685Y386221D02*
X645866D01*
X645276Y385630D02*
Y386811D01*
X658268Y390158D02*
X659055D01*
X658662Y389764D02*
Y390551D01*
X499803Y204724D02*
X500984D01*
X500394Y204134D02*
Y205315D01*
X499803Y196850D02*
X500984D01*
X500394Y196260D02*
Y197441D01*
X499803Y188976D02*
X500984D01*
X500394Y188386D02*
Y189567D01*
X499803Y181102D02*
X500984D01*
X500394Y180512D02*
Y181693D01*
X499803Y173228D02*
X500984D01*
X500394Y172638D02*
Y173819D01*
X499803Y212598D02*
X500984D01*
X500394Y212008D02*
Y213189D01*
X505315Y207874D02*
X506496D01*
X505906Y207283D02*
Y208465D01*
X503740Y226378D02*
X504921D01*
X504331Y225787D02*
Y226969D01*
X615945Y388583D02*
X617126D01*
X616536Y387992D02*
Y389173D01*
X613386Y386614D02*
X614174D01*
X613780Y386221D02*
Y387008D01*
X591142Y241339D02*
X592323D01*
X591733Y240748D02*
Y241929D01*
X622244Y274016D02*
X623425D01*
X622835Y273425D02*
Y274606D01*
X616536Y268504D02*
X617323D01*
X616929Y268110D02*
Y268898D01*
X625984Y275197D02*
X626772D01*
X626378Y274803D02*
Y275591D01*
X610040Y259449D02*
X611221D01*
X610630Y258858D02*
Y260039D01*
X585630Y257087D02*
X586811D01*
X586221Y256496D02*
Y257677D01*
X635237Y275591D02*
X636418D01*
X635827Y275000D02*
Y276181D01*
X664961Y385039D02*
X665748D01*
X665355Y384646D02*
Y385433D01*
X674607Y383858D02*
X675788D01*
X675197Y383268D02*
Y384449D01*
X676969Y375984D02*
X678150D01*
X677559Y375394D02*
Y376575D01*
X642520Y365354D02*
X643307D01*
X642914Y364961D02*
Y365748D01*
X487992Y177165D02*
X489174D01*
X488583Y176575D02*
Y177756D01*
X507481Y374016D02*
X508268D01*
X507874Y373622D02*
Y374410D01*
X510237Y375197D02*
X511024D01*
X510630Y374803D02*
Y375591D01*
X506299Y370866D02*
X507087D01*
X506693Y370472D02*
Y371260D01*
X512205Y373228D02*
X512992D01*
X512599Y372835D02*
Y373622D01*
X616536Y248031D02*
X617323D01*
X616929Y247638D02*
Y248425D01*
X613780Y245669D02*
X614567D01*
X614174Y245276D02*
Y246063D01*
X534252Y346850D02*
X535040D01*
X534646Y346457D02*
Y347244D01*
X547835Y355118D02*
X549016D01*
X548425Y354528D02*
Y355709D01*
X499803Y165354D02*
X500984D01*
X500394Y164764D02*
Y165945D01*
X499803Y220472D02*
X500984D01*
X500394Y219882D02*
Y221063D01*
X506103Y214961D02*
X507284D01*
X506693Y214370D02*
Y215551D01*
X523032Y193701D02*
X524213D01*
X523622Y193110D02*
Y194291D01*
X499803Y228346D02*
X500984D01*
X500394Y227756D02*
Y228937D01*
X564174Y362205D02*
X564961D01*
X564567Y361811D02*
Y362598D01*
X563780Y359449D02*
X564567D01*
X564174Y359055D02*
Y359842D01*
X514174Y375591D02*
X514961D01*
X514567Y375197D02*
Y375984D01*
X517323Y377165D02*
X518111D01*
X517717Y376772D02*
Y377559D01*
X499803Y157480D02*
X500984D01*
X500394Y156890D02*
Y158071D01*
X499803Y149606D02*
X500984D01*
X500394Y149016D02*
Y150197D01*
X515945Y349213D02*
X517126D01*
X516536Y348622D02*
Y349803D01*
X516733Y369685D02*
X517914D01*
X517323Y369094D02*
Y370276D01*
X523425Y379921D02*
X524607D01*
X524016Y379331D02*
Y380512D01*
X525788Y387008D02*
X526969D01*
X526378Y386417D02*
Y387598D01*
X563977Y351181D02*
X565158D01*
X564567Y350591D02*
Y351772D01*
X570670Y346457D02*
X571851D01*
X571260Y345866D02*
Y347047D01*
X606890Y333465D02*
X608071D01*
X607481Y332874D02*
Y334055D01*
X602166Y326378D02*
X603347D01*
X602756Y325787D02*
Y326969D01*
X552953Y253150D02*
X554134D01*
X553544Y252559D02*
Y253740D01*
X696654Y303150D02*
X697835D01*
X697244Y302559D02*
Y303740D01*
X499803Y141732D02*
X500984D01*
X500394Y141142D02*
Y142323D01*
X618898Y274016D02*
X619685D01*
X619292Y273622D02*
Y274410D01*
X682087Y274410D02*
X683268D01*
X682677Y273819D02*
Y275000D01*
X487992Y202756D02*
X489174D01*
X488583Y202165D02*
Y203346D01*
X628544Y388583D02*
X629725D01*
X629134Y387992D02*
Y389173D01*
X677362Y386221D02*
X678544D01*
X677953Y385630D02*
Y386811D01*
X541142Y336614D02*
X542323D01*
X541733Y336024D02*
Y337205D01*
X636418Y400394D02*
X637599D01*
X637008Y399803D02*
Y400984D01*
X616142Y365354D02*
X616929D01*
X616536Y364961D02*
Y365748D01*
X612992Y366535D02*
X613780D01*
X613386Y366142D02*
Y366929D01*
X548425Y294094D02*
X549213D01*
X548819Y293701D02*
Y294488D01*
X548425Y285827D02*
X549213D01*
X548819Y285433D02*
Y286221D01*
X504331Y285433D02*
X505118D01*
X504725Y285039D02*
Y285827D01*
Y289764D02*
X505512D01*
X505118Y289370D02*
Y290158D01*
X546260Y193701D02*
X547441D01*
X546851Y193110D02*
Y194291D01*
X508071Y191732D02*
X509252D01*
X508662Y191142D02*
Y192323D01*
X500591Y200787D02*
X501772D01*
X501181Y200197D02*
Y201378D01*
X511221Y196850D02*
X512402D01*
X511811Y196260D02*
Y197441D01*
X594488Y250394D02*
X595276D01*
X594882Y250000D02*
Y250787D01*
X523425Y311024D02*
X524607D01*
X524016Y310433D02*
Y311614D01*
X520473Y280709D02*
X521260D01*
X520866Y280315D02*
Y281102D01*
X533662Y266535D02*
X534843D01*
X534252Y265945D02*
Y267126D01*
X529725Y266535D02*
X530906D01*
X530315Y265945D02*
Y267126D01*
X532874Y262598D02*
X534055D01*
X533465Y262008D02*
Y263189D01*
X544292Y232283D02*
X545473D01*
X544882Y231693D02*
Y232874D01*
X548229Y251181D02*
X549410D01*
X548819Y250591D02*
Y251772D01*
X551378Y241339D02*
X552559D01*
X551969Y240748D02*
Y241929D01*
X551378Y244882D02*
X552559D01*
X551969Y244291D02*
Y245472D01*
X610040Y141732D02*
X611221D01*
X610630Y141142D02*
Y142323D01*
X558071Y218110D02*
X559252D01*
X558662Y217520D02*
Y218701D01*
X588386Y167323D02*
X589567D01*
X588977Y166732D02*
Y167913D01*
X601772Y167323D02*
X602953D01*
X602362Y166732D02*
Y167913D01*
X602559Y109055D02*
X603740D01*
X603150Y108465D02*
Y109646D01*
X599016Y98819D02*
X600197D01*
X599607Y98228D02*
Y99410D01*
X599410Y47638D02*
X600591D01*
X600000Y47047D02*
Y48228D01*
X675788Y43701D02*
X676969D01*
X676378Y43110D02*
Y44291D01*
X680512Y110236D02*
X681693D01*
X681103Y109646D02*
Y110827D01*
X530512Y159055D02*
X531693D01*
X531103Y158465D02*
Y159646D01*
X520473Y299606D02*
X521260D01*
X520866Y299213D02*
Y300000D01*
M02*
