M48
;Layer_Color=9474304
;FILE_FORMAT=4:4
METRIC,LZ
;TYPE=PLATED
T3F00S00C0.5999
;TYPE=NON_PLATED
T10F00S00C4.0000
%
G90
G05
T03
G00X01227001Y006768
M15
G01X01215
M16
G00X01265001Y006768
M15
G01X01257
M16
G00X01265001Y007892
M15
G01X01257
M16
G00X01227001Y007892
M15
G01X01215
M16
G00X00662001Y007892
M15
G01X00654
M16
G00X00624001Y007892
M15
G01X00612001
M16
G00X00624001Y006768
M15
G01X00612001
M16
G00X00662001Y006768
M15
G01X00654
M16
G00X00059001Y006768
M15
G01X00051001
M16
G00X00021001Y006768
M15
G01X00009001
M16
G00X00021001Y007892
M15
G01X00009001
M16
G00X00059001Y007892
M15
G01X00051001
M16
T10
G00X01631001Y00673
M15
G01X01719001
M16
G00X01028001Y00673
M15
G01X01116001
M16
G00X00425001Y00673
M15
G01X00513001
M16
M17
M30
