G04 Layer_Color=6759642*
%FSLAX25Y25*%
%MOIN*%
G70*
G01*
G75*
%ADD10C,0.00787*%
%ADD50C,0.01181*%
%ADD82C,0.01969*%
%ADD92C,0.02362*%
%ADD93C,0.01000*%
%ADD95C,0.00394*%
%ADD195C,0.00600*%
%ADD196C,0.03150*%
%ADD197C,0.01378*%
%ADD198C,0.04134*%
%ADD199C,0.00039*%
G36*
X1073167Y-124091D02*
X1075759Y-125038D01*
X1078085Y-126522D01*
X1080036Y-128473D01*
X1080962Y-129925D01*
X1081188Y-130279D01*
X1081520Y-130799D01*
X1081658Y-131175D01*
X1082155Y-132535D01*
X1082468Y-133391D01*
X1082581Y-134236D01*
X1082834Y-136126D01*
Y-143567D01*
X1082581Y-145457D01*
X1082468Y-146302D01*
X1082155Y-147158D01*
X1081658Y-148517D01*
X1081520Y-148893D01*
X1081188Y-149414D01*
X1080962Y-149768D01*
X1080036Y-151219D01*
X1078085Y-153171D01*
X1075759Y-154655D01*
X1073167Y-155602D01*
X1070432Y-155968D01*
X1046869D01*
Y-155602D01*
Y-154655D01*
Y-153171D01*
Y-151219D01*
Y-149768D01*
X1070432D01*
X1072322Y-149414D01*
X1073310Y-148893D01*
X1074023Y-148517D01*
X1075383Y-147158D01*
X1075834Y-146302D01*
X1076280Y-145457D01*
X1076633Y-143567D01*
Y-136126D01*
X1076280Y-134236D01*
X1075834Y-133391D01*
X1075383Y-132535D01*
X1074023Y-131175D01*
X1073310Y-130799D01*
X1072322Y-130279D01*
X1070432Y-129925D01*
X1053070D01*
Y-130279D01*
Y-130799D01*
Y-131175D01*
Y-132535D01*
Y-133391D01*
Y-134236D01*
Y-136126D01*
X1046869D01*
Y-134236D01*
Y-133391D01*
Y-132535D01*
Y-131175D01*
Y-130799D01*
Y-130279D01*
Y-129925D01*
Y-128473D01*
Y-126522D01*
Y-125038D01*
Y-124091D01*
Y-123724D01*
X1070432D01*
X1073167Y-124091D01*
D02*
G37*
G36*
X1113838D02*
Y-125038D01*
Y-126522D01*
Y-128473D01*
Y-129925D01*
X1098956D01*
X1097066Y-130279D01*
X1096078Y-130799D01*
X1095365Y-131175D01*
X1094006Y-132535D01*
X1093554Y-133391D01*
X1093109Y-134236D01*
X1092755Y-136126D01*
Y-143567D01*
X1093109Y-145457D01*
X1093554Y-146302D01*
X1094006Y-147158D01*
X1095365Y-148517D01*
X1096078Y-148893D01*
X1097066Y-149414D01*
X1098956Y-149768D01*
X1122519D01*
Y-151219D01*
Y-153171D01*
Y-154655D01*
Y-155602D01*
Y-155968D01*
X1098956D01*
X1096221Y-155602D01*
X1093630Y-154655D01*
X1091304Y-153171D01*
X1089353Y-151219D01*
X1088426Y-149768D01*
X1088201Y-149414D01*
X1087868Y-148893D01*
X1087731Y-148517D01*
X1087234Y-147158D01*
X1086921Y-146302D01*
X1086808Y-145457D01*
X1086555Y-143567D01*
Y-136126D01*
X1086808Y-134236D01*
X1086921Y-133391D01*
X1087234Y-132535D01*
X1087731Y-131175D01*
X1087868Y-130799D01*
X1088201Y-130279D01*
X1088426Y-129925D01*
X1089353Y-128473D01*
X1091304Y-126522D01*
X1093630Y-125038D01*
X1096221Y-124091D01*
X1098956Y-123724D01*
X1113838D01*
Y-124091D01*
D02*
G37*
G36*
X1559820Y-86817D02*
X1153324D01*
Y-121266D01*
X1559820D01*
Y-124711D01*
X1153324D01*
Y-155715D01*
X1559820D01*
Y-159160D01*
X1466808D01*
Y-210833D01*
X1463363D01*
Y-159160D01*
X1394466D01*
Y-210833D01*
X1391021D01*
Y-183274D01*
X1153324D01*
Y-210833D01*
X1149879D01*
Y-86817D01*
X1001749D01*
Y-210833D01*
X998304D01*
Y-86817D01*
Y-83372D01*
X1559820D01*
Y-86817D01*
D02*
G37*
G36*
X1047393Y-167240D02*
X1013165D01*
Y-166496D01*
X1047393D01*
Y-167240D01*
D02*
G37*
G36*
X1018346Y-98921D02*
X1043149D01*
X1046066Y-99313D01*
X1048857Y-100249D01*
X1051422Y-101695D01*
X1053666Y-103599D01*
X1055511Y-105893D01*
X1055759Y-106362D01*
X1056149Y-107097D01*
X1056416Y-107602D01*
X1056821Y-108365D01*
X1056889Y-108494D01*
X1057372Y-110070D01*
X1057751Y-111309D01*
X1057834Y-112081D01*
X1058066Y-114236D01*
X1058065Y-114244D01*
X1057886Y-116393D01*
X1057822Y-117169D01*
X1057487Y-118363D01*
X1057028Y-120004D01*
X1046701D01*
X1048132Y-118363D01*
X1048693Y-117169D01*
X1049058Y-116393D01*
X1049409Y-114244D01*
X1049408Y-114236D01*
X1049157Y-112081D01*
X1048837Y-111309D01*
X1048322Y-110070D01*
X1047071Y-108494D01*
X1046968Y-108365D01*
X1045904Y-107602D01*
X1045199Y-107097D01*
X1043149Y-106362D01*
X1028267D01*
Y-107097D01*
Y-107602D01*
Y-108365D01*
Y-108494D01*
Y-110070D01*
Y-111309D01*
Y-112081D01*
Y-114236D01*
Y-114244D01*
Y-116393D01*
Y-117169D01*
Y-118363D01*
Y-120004D01*
Y-148528D01*
X1029507D01*
Y-157209D01*
X1019586D01*
Y-148528D01*
X1020826D01*
Y-120004D01*
Y-118363D01*
Y-117169D01*
Y-116393D01*
Y-114244D01*
Y-114236D01*
Y-112081D01*
Y-111309D01*
Y-110070D01*
Y-108494D01*
Y-108365D01*
Y-107602D01*
Y-107097D01*
Y-106362D01*
X1018346D01*
Y-107097D01*
Y-107602D01*
X1009665D01*
Y-107097D01*
Y-106362D01*
Y-105893D01*
Y-103599D01*
Y-101695D01*
Y-100249D01*
Y-99313D01*
Y-98921D01*
Y-97681D01*
X1018346D01*
Y-98921D01*
D02*
G37*
G36*
X1122607Y-99259D02*
X1124999Y-100250D01*
X1127054Y-101827D01*
X1128631Y-103882D01*
X1129622Y-106275D01*
X1129960Y-108843D01*
X1129622Y-111410D01*
X1128631Y-113803D01*
X1127054Y-115858D01*
X1124999Y-117435D01*
X1122607Y-118426D01*
X1120039Y-118764D01*
X1117471Y-118426D01*
X1115078Y-117435D01*
X1113023Y-115858D01*
X1111447Y-113803D01*
X1110456Y-111410D01*
X1110118Y-108843D01*
X1110456Y-106275D01*
X1111447Y-103882D01*
X1113023Y-101827D01*
X1115078Y-100250D01*
X1117471Y-99259D01*
X1120039Y-98921D01*
X1122607Y-99259D01*
D02*
G37*
G36*
X1122519Y-147287D02*
X1116318D01*
Y-123724D01*
X1122519D01*
Y-147287D01*
D02*
G37*
G36*
X1045154Y-130223D02*
X1038609D01*
Y-123678D01*
X1045154D01*
Y-130223D01*
D02*
G37*
%LPC*%
G36*
X1391021Y-159160D02*
X1153324D01*
Y-179829D01*
X1391021D01*
Y-159160D01*
D02*
G37*
%LPD*%
D10*
X1480315Y-169291D02*
Y-163781D01*
X1483070D01*
X1483988Y-164700D01*
Y-166536D01*
X1483070Y-167455D01*
X1480315D01*
X1482152D02*
X1483988Y-169291D01*
X1489498Y-163781D02*
X1485825D01*
Y-169291D01*
X1489498D01*
X1485825Y-166536D02*
X1487662D01*
X1491335Y-163781D02*
Y-167455D01*
X1493172Y-169291D01*
X1495008Y-167455D01*
Y-163781D01*
X1496845D02*
X1498682D01*
X1497763D01*
Y-169291D01*
X1496845D01*
X1498682D01*
X1505110Y-164700D02*
X1504192Y-163781D01*
X1502355D01*
X1501437Y-164700D01*
Y-165618D01*
X1502355Y-166536D01*
X1504192D01*
X1505110Y-167455D01*
Y-168373D01*
X1504192Y-169291D01*
X1502355D01*
X1501437Y-168373D01*
X1506947Y-163781D02*
X1508784D01*
X1507865D01*
Y-169291D01*
X1506947D01*
X1508784D01*
X1514293Y-163781D02*
X1512457D01*
X1511539Y-164700D01*
Y-168373D01*
X1512457Y-169291D01*
X1514293D01*
X1515212Y-168373D01*
Y-164700D01*
X1514293Y-163781D01*
X1517048Y-169291D02*
Y-163781D01*
X1520722Y-169291D01*
Y-163781D01*
X1017655Y-194703D02*
Y-189193D01*
X1014900Y-191948D01*
X1018574D01*
X1024084Y-189193D02*
X1020411D01*
Y-191948D01*
X1022247Y-191030D01*
X1023166D01*
X1024084Y-191948D01*
Y-193785D01*
X1023166Y-194703D01*
X1021329D01*
X1020411Y-193785D01*
X1029594Y-189193D02*
X1025920D01*
Y-191948D01*
X1027757Y-191030D01*
X1028675D01*
X1029594Y-191948D01*
Y-193785D01*
X1028675Y-194703D01*
X1026839D01*
X1025920Y-193785D01*
X1031431D02*
X1032349Y-194703D01*
X1034186D01*
X1035104Y-193785D01*
Y-190111D01*
X1034186Y-189193D01*
X1032349D01*
X1031431Y-190111D01*
Y-191030D01*
X1032349Y-191948D01*
X1035104D01*
X1036941Y-190111D02*
X1037859Y-189193D01*
X1039696D01*
X1040614Y-190111D01*
Y-193785D01*
X1039696Y-194703D01*
X1037859D01*
X1036941Y-193785D01*
Y-190111D01*
X1051634D02*
X1050716Y-189193D01*
X1048879D01*
X1047961Y-190111D01*
Y-191030D01*
X1048879Y-191948D01*
X1050716D01*
X1051634Y-192866D01*
Y-193785D01*
X1050716Y-194703D01*
X1048879D01*
X1047961Y-193785D01*
X1053471Y-194703D02*
Y-191030D01*
X1055307Y-189193D01*
X1057144Y-191030D01*
Y-194703D01*
Y-191948D01*
X1053471D01*
X1058981Y-189193D02*
X1060817D01*
X1059899D01*
Y-194703D01*
X1058981D01*
X1060817D01*
X1063572D02*
Y-189193D01*
X1067246Y-194703D01*
Y-189193D01*
X1069082D02*
X1072756D01*
X1070919D01*
Y-194703D01*
X1083776Y-190111D02*
X1082858Y-189193D01*
X1081021D01*
X1080103Y-190111D01*
Y-193785D01*
X1081021Y-194703D01*
X1082858D01*
X1083776Y-193785D01*
X1085612Y-189193D02*
Y-190111D01*
X1087449Y-191948D01*
X1089286Y-190111D01*
Y-189193D01*
X1087449Y-191948D02*
Y-194703D01*
X1091123D02*
Y-189193D01*
X1093878D01*
X1094796Y-190111D01*
Y-191948D01*
X1093878Y-192866D01*
X1091123D01*
X1092959D02*
X1094796Y-194703D01*
X1105816Y-189193D02*
X1102143D01*
Y-194703D01*
X1105816D01*
X1102143Y-191948D02*
X1103979D01*
X1107653Y-194703D02*
Y-189193D01*
X1111326Y-194703D01*
Y-189193D01*
X1118673D02*
Y-192866D01*
X1120509Y-194703D01*
X1122346Y-192866D01*
Y-189193D01*
X1124183Y-194703D02*
Y-191030D01*
X1126019Y-189193D01*
X1127856Y-191030D01*
Y-194703D01*
Y-191948D01*
X1124183D01*
X1129693Y-189193D02*
Y-194703D01*
X1133366D01*
X1014900Y-200743D02*
Y-203498D01*
X1015819Y-204416D01*
X1016737Y-203498D01*
X1017655Y-204416D01*
X1018574Y-203498D01*
Y-200743D01*
X1020411D02*
Y-203498D01*
X1021329Y-204416D01*
X1022247Y-203498D01*
X1023166Y-204416D01*
X1024084Y-203498D01*
Y-200743D01*
X1025920D02*
Y-203498D01*
X1026839Y-204416D01*
X1027757Y-203498D01*
X1028675Y-204416D01*
X1029594Y-203498D01*
Y-200743D01*
X1031431Y-204416D02*
Y-203498D01*
X1032349D01*
Y-204416D01*
X1031431D01*
X1036022Y-206253D02*
Y-200743D01*
X1038777D01*
X1039696Y-201661D01*
Y-203498D01*
X1038777Y-204416D01*
X1036022D01*
X1045206Y-198906D02*
Y-204416D01*
X1042451D01*
X1041532Y-203498D01*
Y-201661D01*
X1042451Y-200743D01*
X1045206D01*
X1050716D02*
X1047961D01*
X1047042Y-201661D01*
Y-203498D01*
X1047961Y-204416D01*
X1050716D01*
X1052552D02*
X1054389D01*
X1053471D01*
Y-200743D01*
X1052552D01*
X1057144Y-204416D02*
Y-203498D01*
X1058062D01*
Y-204416D01*
X1057144D01*
X1062654D02*
Y-199824D01*
Y-201661D01*
X1061736D01*
X1063572D01*
X1062654D01*
Y-199824D01*
X1063572Y-198906D01*
X1066327Y-200743D02*
Y-204416D01*
Y-202579D01*
X1067246Y-201661D01*
X1068164Y-200743D01*
X1069082D01*
X1014727Y-182785D02*
X1016564D01*
X1015645D01*
Y-177275D01*
X1014727Y-178194D01*
X1022992Y-182785D02*
X1019318D01*
X1022992Y-179112D01*
Y-178194D01*
X1022074Y-177275D01*
X1020237D01*
X1019318Y-178194D01*
X1024829Y-182785D02*
X1026665D01*
X1025747D01*
Y-177275D01*
X1024829Y-178194D01*
X1034930Y-182785D02*
Y-177275D01*
X1037685D01*
X1038604Y-178194D01*
Y-180030D01*
X1037685Y-180949D01*
X1034930D01*
X1036767D02*
X1038604Y-182785D01*
X1040440Y-179112D02*
Y-181867D01*
X1041359Y-182785D01*
X1044114D01*
Y-179112D01*
X1048705Y-182785D02*
X1046869D01*
X1045950Y-181867D01*
Y-180030D01*
X1046869Y-179112D01*
X1048705D01*
X1049624Y-180030D01*
Y-180949D01*
X1045950D01*
X1060644Y-177275D02*
Y-182785D01*
X1057889D01*
X1056970Y-181867D01*
Y-180030D01*
X1057889Y-179112D01*
X1060644D01*
X1065235Y-182785D02*
X1063399D01*
X1062480Y-181867D01*
Y-180030D01*
X1063399Y-179112D01*
X1065235D01*
X1066154Y-180030D01*
Y-180949D01*
X1062480D01*
X1067990Y-182785D02*
X1070745D01*
X1071664Y-181867D01*
X1070745Y-180949D01*
X1068909D01*
X1067990Y-180030D01*
X1068909Y-179112D01*
X1071664D01*
X1079010Y-177275D02*
Y-182785D01*
Y-180030D01*
X1082684D01*
Y-177275D01*
Y-182785D01*
X1084521D02*
X1085439D01*
Y-180949D01*
X1084521Y-180030D01*
Y-178194D01*
X1085439Y-177275D01*
X1087276D01*
X1088194Y-178194D01*
Y-180030D01*
X1087276Y-180949D01*
Y-182785D01*
X1088194D01*
X1090949Y-178194D02*
Y-179112D01*
X1090031D01*
X1091867D01*
X1090949D01*
Y-181867D01*
X1091867Y-182785D01*
X1094622Y-179112D02*
Y-182785D01*
Y-180949D01*
X1095541Y-180030D01*
X1096459Y-179112D01*
X1097377D01*
X1102887Y-182785D02*
X1101051D01*
X1100132Y-181867D01*
Y-180030D01*
X1101051Y-179112D01*
X1102887D01*
X1103806Y-180030D01*
Y-180949D01*
X1100132D01*
X1105642Y-182785D02*
X1108397D01*
X1109316Y-181867D01*
X1108397Y-180949D01*
X1106561D01*
X1105642Y-180030D01*
X1106561Y-179112D01*
X1109316D01*
X1067876Y-173077D02*
X1070172D01*
X1069024D01*
Y-166189D01*
X1067876D01*
X1074764Y-167337D02*
Y-168485D01*
X1073616D01*
X1075912D01*
X1074764D01*
Y-171929D01*
X1075912Y-173077D01*
X1079356Y-168485D02*
Y-171929D01*
X1080503Y-173077D01*
X1083947D01*
Y-174225D01*
X1082799Y-175373D01*
X1081651D01*
X1083947Y-173077D02*
Y-168485D01*
X1087391Y-173077D02*
X1089687D01*
X1090835Y-171929D01*
Y-169633D01*
X1089687Y-168485D01*
X1087391D01*
X1086243Y-169633D01*
Y-171929D01*
X1087391Y-173077D01*
X1093131Y-168485D02*
Y-173077D01*
Y-170781D01*
X1094279Y-169633D01*
X1095426Y-168485D01*
X1096574D01*
X1111497Y-167337D02*
X1110349Y-166189D01*
X1108054D01*
X1106906Y-167337D01*
Y-171929D01*
X1108054Y-173077D01*
X1110349D01*
X1111497Y-171929D01*
Y-169633D01*
X1109202D01*
X1113793Y-168485D02*
Y-173077D01*
Y-170781D01*
X1114941Y-169633D01*
X1116089Y-168485D01*
X1117237D01*
X1121829Y-173077D02*
X1124125D01*
X1125273Y-171929D01*
Y-169633D01*
X1124125Y-168485D01*
X1121829D01*
X1120681Y-169633D01*
Y-171929D01*
X1121829Y-173077D01*
X1127568Y-168485D02*
Y-171929D01*
X1128716Y-173077D01*
X1132160D01*
Y-168485D01*
X1134456Y-175373D02*
Y-168485D01*
X1137900D01*
X1139048Y-169633D01*
Y-171929D01*
X1137900Y-173077D01*
X1134456D01*
X1054394Y-159562D02*
X1061282D01*
X1064725Y-163006D01*
Y-173337D01*
X1054394D01*
X1050950Y-169893D01*
X1054394Y-166450D01*
X1064725D01*
X1401575Y-163781D02*
X1405248D01*
X1403411D01*
Y-169291D01*
X1409840Y-163781D02*
X1408003D01*
X1407085Y-164700D01*
Y-168373D01*
X1408003Y-169291D01*
X1409840D01*
X1410758Y-168373D01*
Y-164700D01*
X1409840Y-163781D01*
X1412595D02*
Y-169291D01*
X1416268D01*
X1421778Y-163781D02*
X1418105D01*
Y-169291D01*
X1421778D01*
X1418105Y-166536D02*
X1419942D01*
X1423615Y-169291D02*
Y-163781D01*
X1426370D01*
X1427288Y-164700D01*
Y-166536D01*
X1426370Y-167455D01*
X1423615D01*
X1425452D02*
X1427288Y-169291D01*
X1429125D02*
Y-165618D01*
X1430962Y-163781D01*
X1432798Y-165618D01*
Y-169291D01*
Y-166536D01*
X1429125D01*
X1434635Y-169291D02*
Y-163781D01*
X1438308Y-169291D01*
Y-163781D01*
X1443818Y-164700D02*
X1442900Y-163781D01*
X1441063D01*
X1440145Y-164700D01*
Y-168373D01*
X1441063Y-169291D01*
X1442900D01*
X1443818Y-168373D01*
X1449328Y-163781D02*
X1445655D01*
Y-169291D01*
X1449328D01*
X1445655Y-166536D02*
X1447492D01*
D50*
X1165544Y-192640D02*
Y-200512D01*
X1169480D01*
X1170792Y-199200D01*
Y-193952D01*
X1169480Y-192640D01*
X1165544D01*
X1178664D02*
X1173416D01*
Y-200512D01*
X1178664D01*
X1173416Y-196576D02*
X1176040D01*
X1186535Y-193952D02*
X1185223Y-192640D01*
X1182599D01*
X1181287Y-193952D01*
Y-195264D01*
X1182599Y-196576D01*
X1185223D01*
X1186535Y-197888D01*
Y-199200D01*
X1185223Y-200512D01*
X1182599D01*
X1181287Y-199200D01*
X1194407Y-193952D02*
X1193095Y-192640D01*
X1190471D01*
X1189159Y-193952D01*
Y-195264D01*
X1190471Y-196576D01*
X1193095D01*
X1194407Y-197888D01*
Y-199200D01*
X1193095Y-200512D01*
X1190471D01*
X1189159Y-199200D01*
X1197030Y-192640D02*
X1199654D01*
X1198342D01*
Y-200512D01*
X1197030D01*
X1199654D01*
X1203590D02*
Y-192640D01*
X1208838Y-200512D01*
Y-192640D01*
X1211461Y-200512D02*
Y-195264D01*
X1214085Y-192640D01*
X1216709Y-195264D01*
Y-200512D01*
Y-196576D01*
X1211461D01*
X1219333Y-192640D02*
X1224580D01*
X1221957D01*
Y-200512D01*
X1232452Y-192640D02*
X1227204D01*
Y-200512D01*
X1232452D01*
X1227204Y-196576D02*
X1229828D01*
X1235076Y-192640D02*
Y-199200D01*
X1236388Y-200512D01*
X1239011D01*
X1240323Y-199200D01*
Y-192640D01*
X1242947Y-200512D02*
Y-192640D01*
X1246883D01*
X1248195Y-193952D01*
Y-196576D01*
X1246883Y-197888D01*
X1242947D01*
X1245571D02*
X1248195Y-200512D01*
X1271653Y-166669D02*
X1272966Y-165357D01*
X1275589D01*
X1276901Y-166669D01*
Y-171916D01*
X1275589Y-173228D01*
X1272966D01*
X1271653Y-171916D01*
Y-166669D01*
X1279525Y-171916D02*
X1280837Y-173228D01*
X1283461D01*
X1284773Y-171916D01*
Y-166669D01*
X1283461Y-165357D01*
X1280837D01*
X1279525Y-166669D01*
Y-167981D01*
X1280837Y-169293D01*
X1284773D01*
X1287397Y-173228D02*
X1292644Y-167981D01*
X1295268Y-166669D02*
X1296580Y-165357D01*
X1299204D01*
X1300516Y-166669D01*
Y-171916D01*
X1299204Y-173228D01*
X1296580D01*
X1295268Y-171916D01*
Y-166669D01*
X1308387Y-165357D02*
X1303139D01*
Y-169293D01*
X1305763Y-167981D01*
X1307075D01*
X1308387Y-169293D01*
Y-171916D01*
X1307075Y-173228D01*
X1304451D01*
X1303139Y-171916D01*
X1311011Y-173228D02*
X1316259Y-167981D01*
X1324130Y-173228D02*
X1318882D01*
X1324130Y-167981D01*
Y-166669D01*
X1322818Y-165357D01*
X1320194D01*
X1318882Y-166669D01*
X1326754D02*
X1328066Y-165357D01*
X1330690D01*
X1332002Y-166669D01*
Y-171916D01*
X1330690Y-173228D01*
X1328066D01*
X1326754Y-171916D01*
Y-166669D01*
X1339873Y-173228D02*
X1334625D01*
X1339873Y-167981D01*
Y-166669D01*
X1338561Y-165357D01*
X1335937D01*
X1334625Y-166669D01*
X1347744Y-165357D02*
X1342497D01*
Y-169293D01*
X1345121Y-167981D01*
X1346433D01*
X1347744Y-169293D01*
Y-171916D01*
X1346433Y-173228D01*
X1343809D01*
X1342497Y-171916D01*
X1167091Y-164647D02*
Y-172518D01*
X1171026D01*
X1172338Y-171206D01*
Y-165959D01*
X1171026Y-164647D01*
X1167091D01*
X1174962Y-172518D02*
Y-167271D01*
X1177586Y-164647D01*
X1180210Y-167271D01*
Y-172518D01*
Y-168583D01*
X1174962D01*
X1182833Y-164647D02*
X1188081D01*
X1185457D01*
Y-172518D01*
X1195953Y-164647D02*
X1190705D01*
Y-172518D01*
X1195953D01*
X1190705Y-168583D02*
X1193329D01*
X1206448Y-167271D02*
X1207760D01*
Y-168583D01*
X1206448D01*
Y-167271D01*
Y-171206D02*
X1207760D01*
Y-172518D01*
X1206448D01*
Y-171206D01*
X1270450Y-192627D02*
Y-200498D01*
X1274386D01*
X1275698Y-199187D01*
Y-193939D01*
X1274386Y-192627D01*
X1270450D01*
X1278321Y-200498D02*
Y-199187D01*
X1279633D01*
Y-200498D01*
X1278321D01*
X1284881Y-192627D02*
Y-200498D01*
X1290129D01*
X1298000Y-192627D02*
X1292752D01*
Y-200498D01*
X1298000D01*
X1292752Y-196563D02*
X1295376D01*
X1300624Y-192627D02*
Y-200498D01*
X1304560D01*
X1305871Y-199187D01*
Y-197875D01*
X1304560Y-196563D01*
X1300624D01*
X1304560D01*
X1305871Y-195251D01*
Y-193939D01*
X1304560Y-192627D01*
X1300624D01*
X1308495Y-200498D02*
Y-192627D01*
X1312431D01*
X1313743Y-193939D01*
Y-196563D01*
X1312431Y-197875D01*
X1308495D01*
X1311119D02*
X1313743Y-200498D01*
X1316367Y-192627D02*
Y-199187D01*
X1317679Y-200498D01*
X1320302D01*
X1321614Y-199187D01*
Y-192627D01*
X1324238Y-200498D02*
Y-192627D01*
X1329486Y-200498D01*
Y-192627D01*
D82*
X1405512Y-93706D02*
Y-110236D01*
Y-104726D01*
X1416532Y-93706D01*
X1408267Y-101971D01*
X1416532Y-110236D01*
X1433062Y-96461D02*
X1430307Y-93706D01*
X1424797D01*
X1422042Y-96461D01*
Y-107481D01*
X1424797Y-110236D01*
X1430307D01*
X1433062Y-107481D01*
X1438572Y-110236D02*
Y-93706D01*
X1446837D01*
X1449592Y-96461D01*
Y-101971D01*
X1446837Y-104726D01*
X1438572D01*
X1277953Y-104333D02*
X1288973D01*
X1173993Y-148825D02*
Y-132295D01*
X1182258D01*
X1185013Y-135050D01*
Y-140560D01*
X1182258Y-143315D01*
X1173993D01*
X1190523Y-148825D02*
Y-137805D01*
X1196033Y-132295D01*
X1201543Y-137805D01*
Y-148825D01*
Y-140560D01*
X1190523D01*
X1207053Y-148825D02*
Y-132295D01*
X1218073Y-148825D01*
Y-132295D01*
X1234603D02*
X1223583D01*
Y-148825D01*
X1234603D01*
X1223583Y-140560D02*
X1229093D01*
X1240113Y-132295D02*
Y-148825D01*
X1251134D01*
X1256643Y-132295D02*
X1262154D01*
X1259398D01*
Y-148825D01*
X1256643D01*
X1262154D01*
X1281439Y-135050D02*
X1278684Y-132295D01*
X1273174D01*
X1270419Y-135050D01*
Y-137805D01*
X1273174Y-140560D01*
X1278684D01*
X1281439Y-143315D01*
Y-146070D01*
X1278684Y-148825D01*
X1273174D01*
X1270419Y-146070D01*
X1286949Y-148825D02*
Y-137805D01*
X1292459Y-132295D01*
X1297969Y-137805D01*
Y-148825D01*
Y-140560D01*
X1286949D01*
X1303479Y-132295D02*
X1314499D01*
X1308989D01*
Y-148825D01*
X1320009Y-132295D02*
X1325519D01*
X1322764D01*
Y-148825D01*
X1320009D01*
X1325519D01*
X1342049Y-132295D02*
X1336539D01*
X1333784Y-135050D01*
Y-146070D01*
X1336539Y-148825D01*
X1342049D01*
X1344804Y-146070D01*
Y-135050D01*
X1342049Y-132295D01*
X1350314Y-148825D02*
Y-132295D01*
X1361334Y-148825D01*
Y-132295D01*
X1383374Y-140560D02*
X1394394D01*
X1416434Y-148825D02*
X1421944D01*
X1419189D01*
Y-132295D01*
X1416434Y-135050D01*
X1441229Y-132295D02*
X1435719Y-135050D01*
X1430209Y-140560D01*
Y-146070D01*
X1432964Y-148825D01*
X1438474D01*
X1441229Y-146070D01*
Y-143315D01*
X1438474Y-140560D01*
X1430209D01*
X1201178Y-111811D02*
X1190158D01*
X1201178Y-100791D01*
Y-98036D01*
X1198423Y-95281D01*
X1192912D01*
X1190158Y-98036D01*
X1217708Y-111811D02*
X1206688D01*
X1217708Y-100791D01*
Y-98036D01*
X1214953Y-95281D01*
X1209443D01*
X1206688Y-98036D01*
X1223218D02*
X1225973Y-95281D01*
X1231483D01*
X1234238Y-98036D01*
Y-100791D01*
X1231483Y-103546D01*
X1234238Y-106301D01*
Y-109056D01*
X1231483Y-111811D01*
X1225973D01*
X1223218Y-109056D01*
Y-106301D01*
X1225973Y-103546D01*
X1223218Y-100791D01*
Y-98036D01*
X1225973Y-103546D02*
X1231483D01*
X1250768Y-111811D02*
X1239748D01*
X1250768Y-100791D01*
Y-98036D01*
X1248013Y-95281D01*
X1242503D01*
X1239748Y-98036D01*
X1476378Y-181893D02*
Y-189240D01*
X1480051Y-192913D01*
X1483725Y-189240D01*
Y-181893D01*
X1487398Y-183730D02*
X1489235Y-181893D01*
X1492908D01*
X1494745Y-183730D01*
Y-185567D01*
X1492908Y-187403D01*
X1491071D01*
X1492908D01*
X1494745Y-189240D01*
Y-191077D01*
X1492908Y-192913D01*
X1489235D01*
X1487398Y-191077D01*
X1498418Y-192913D02*
Y-191077D01*
X1500255D01*
Y-192913D01*
X1498418D01*
X1507602Y-181893D02*
X1514948D01*
Y-183730D01*
X1507602Y-191077D01*
Y-192913D01*
X1401575Y-183730D02*
X1403411Y-181893D01*
X1407085D01*
X1408922Y-183730D01*
Y-191077D01*
X1407085Y-192913D01*
X1403411D01*
X1401575Y-191077D01*
Y-183730D01*
X1412595Y-192913D02*
Y-191077D01*
X1414432D01*
Y-192913D01*
X1412595D01*
X1429125D02*
X1421778D01*
X1429125Y-185567D01*
Y-183730D01*
X1427288Y-181893D01*
X1423615D01*
X1421778Y-183730D01*
X1432798Y-192913D02*
Y-185567D01*
X1434635D01*
X1436472Y-187403D01*
Y-192913D01*
Y-187403D01*
X1438308Y-185567D01*
X1440145Y-187403D01*
Y-192913D01*
X1443818D02*
Y-185567D01*
X1445655D01*
X1447492Y-187403D01*
Y-192913D01*
Y-187403D01*
X1449328Y-185567D01*
X1451165Y-187403D01*
Y-192913D01*
X1324406Y-94494D02*
X1318896Y-97249D01*
X1313386Y-102759D01*
Y-108269D01*
X1316141Y-111024D01*
X1321651D01*
X1324406Y-108269D01*
Y-105514D01*
X1321651Y-102759D01*
X1313386D01*
X1329916Y-97249D02*
X1332671Y-94494D01*
X1338181D01*
X1340936Y-97249D01*
Y-108269D01*
X1338181Y-111024D01*
X1332671D01*
X1329916Y-108269D01*
Y-97249D01*
X1357466Y-111024D02*
X1346446D01*
X1357466Y-100004D01*
Y-97249D01*
X1354711Y-94494D01*
X1349201D01*
X1346446Y-97249D01*
D92*
X1393701Y-122047D02*
Y-84646D01*
X1016927Y-66539D02*
X1014959Y-64571D01*
X1011023D01*
X1009055Y-66539D01*
Y-68506D01*
X1011023Y-70474D01*
X1014959D01*
X1016927Y-72442D01*
Y-74410D01*
X1014959Y-76378D01*
X1011023D01*
X1009055Y-74410D01*
X1020862Y-64571D02*
X1028734D01*
X1024798D01*
Y-76378D01*
X1032670D02*
Y-68506D01*
X1036605Y-64571D01*
X1040541Y-68506D01*
Y-76378D01*
Y-70474D01*
X1032670D01*
X1044477Y-64571D02*
X1052348D01*
X1048412D01*
Y-76378D01*
X1056284Y-64571D02*
Y-74410D01*
X1058252Y-76378D01*
X1062187D01*
X1064155Y-74410D01*
Y-64571D01*
X1075963Y-66539D02*
X1073995Y-64571D01*
X1070059D01*
X1068091Y-66539D01*
Y-68506D01*
X1070059Y-70474D01*
X1073995D01*
X1075963Y-72442D01*
Y-74410D01*
X1073995Y-76378D01*
X1070059D01*
X1068091Y-74410D01*
X1091706Y-64571D02*
Y-76378D01*
Y-72442D01*
X1099577Y-64571D01*
X1093673Y-70474D01*
X1099577Y-76378D01*
X1129528Y-75984D02*
X1133463D01*
X1131495D01*
Y-64177D01*
X1129528Y-66145D01*
X1139367Y-64177D02*
X1147238D01*
Y-66145D01*
X1139367Y-74016D01*
Y-75984D01*
X1162981Y-70081D02*
X1170853D01*
X1186596Y-75984D02*
Y-64177D01*
X1192499D01*
X1194467Y-66145D01*
Y-70081D01*
X1192499Y-72048D01*
X1186596D01*
X1200371Y-68113D02*
X1204307D01*
X1206274Y-70081D01*
Y-75984D01*
X1200371D01*
X1198403Y-74016D01*
X1200371Y-72048D01*
X1206274D01*
X1210210Y-75984D02*
Y-68113D01*
X1216114D01*
X1218082Y-70081D01*
Y-75984D01*
X1227921D02*
X1223985D01*
X1222017Y-74016D01*
Y-70081D01*
X1223985Y-68113D01*
X1227921D01*
X1229889Y-70081D01*
Y-72048D01*
X1222017D01*
X1233825Y-75984D02*
X1237760D01*
X1235792D01*
Y-64177D01*
X1233825D01*
X1263342Y-66145D02*
X1261375Y-64177D01*
X1257439D01*
X1255471Y-66145D01*
Y-74016D01*
X1257439Y-75984D01*
X1261375D01*
X1263342Y-74016D01*
X1269246Y-68113D02*
X1273182D01*
X1275150Y-70081D01*
Y-75984D01*
X1269246D01*
X1267278Y-74016D01*
X1269246Y-72048D01*
X1275150D01*
X1279085Y-68113D02*
Y-75984D01*
Y-72048D01*
X1281053Y-70081D01*
X1283021Y-68113D01*
X1284989D01*
X1292861Y-66145D02*
Y-68113D01*
X1290893D01*
X1294828D01*
X1292861D01*
Y-74016D01*
X1294828Y-75984D01*
D93*
X705831Y431496D02*
X757299D01*
X705831Y0D02*
X757299D01*
X756299Y232243D02*
Y431496D01*
Y0D02*
Y196053D01*
X754299Y425496D02*
X756299Y431496D01*
X758299Y425496D01*
X756299Y0D02*
X758299Y6000D01*
X754299D02*
X756299Y0D01*
X704331Y-47850D02*
Y-1500D01*
X0Y-47850D02*
Y-1000D01*
X368660Y-46850D02*
X704331D01*
X0D02*
X332471D01*
X698331Y-44850D02*
X704331Y-46850D01*
X698331Y-48850D02*
X704331Y-46850D01*
X0D02*
X6000Y-48850D01*
X0Y-46850D02*
X6000Y-44850D01*
X229526Y-14386D02*
Y48459D01*
X0Y-14386D02*
Y-1500D01*
X128759Y-13386D02*
X229526D01*
X0D02*
X97568D01*
X223526Y-11386D02*
X229526Y-13386D01*
X223526Y-15386D02*
X229526Y-13386D01*
X0D02*
X6000Y-15386D01*
X0Y-13386D02*
X6000Y-11386D01*
X466928Y-14386D02*
Y48459D01*
X237403Y-14386D02*
Y270000D01*
X366161Y-13386D02*
X466928D01*
X237403D02*
X334970D01*
X460928Y-11386D02*
X466928Y-13386D01*
X460928Y-15386D02*
X466928Y-13386D01*
X237403D02*
X243403Y-15386D01*
X237403Y-13386D02*
X243403Y-11386D01*
X474805Y-13992D02*
Y270000D01*
X466928Y-13992D02*
Y48459D01*
X456928Y-12992D02*
X466928D01*
X474805D02*
X484805D01*
X460928Y-10992D02*
X466928Y-12992D01*
X460928Y-14992D02*
X466928Y-12992D01*
X474805D02*
X480805Y-14992D01*
X474805Y-12992D02*
X480805Y-10992D01*
X704331Y-13992D02*
Y-1500D01*
X474805Y-13992D02*
Y237403D01*
X603563Y-12992D02*
X704331D01*
X474805D02*
X572372D01*
X698331Y-10992D02*
X704331Y-12992D01*
X698331Y-14992D02*
X704331Y-12992D01*
X474805D02*
X480805Y-14992D01*
X474805Y-12992D02*
X480805Y-10992D01*
X237403Y-14386D02*
Y270000D01*
X229526Y-14386D02*
Y48459D01*
X219526Y-13386D02*
X229526D01*
X237403D02*
X247403D01*
X223526Y-11386D02*
X229526Y-13386D01*
X223526Y-15386D02*
X229526Y-13386D01*
X237403D02*
X243403Y-15386D01*
X237403Y-13386D02*
X243403Y-11386D01*
X-82677Y-195276D02*
X999213D01*
D95*
X-62992Y-198821D02*
X-59056D01*
X-61024D01*
Y-204724D01*
X-57089Y-198821D02*
Y-204724D01*
Y-201773D01*
X-53153D01*
Y-198821D01*
Y-204724D01*
X-51185Y-198821D02*
X-49217D01*
X-50201D01*
Y-204724D01*
X-51185D01*
X-49217D01*
X-42329Y-199805D02*
X-43314Y-198821D01*
X-45281D01*
X-46265Y-199805D01*
Y-200789D01*
X-45281Y-201773D01*
X-43314D01*
X-42329Y-202757D01*
Y-203741D01*
X-43314Y-204724D01*
X-45281D01*
X-46265Y-203741D01*
X-34458Y-198821D02*
Y-204724D01*
X-31506D01*
X-30522Y-203741D01*
Y-199805D01*
X-31506Y-198821D01*
X-34458D01*
X-28554Y-204724D02*
Y-198821D01*
X-25603D01*
X-24619Y-199805D01*
Y-201773D01*
X-25603Y-202757D01*
X-28554D01*
X-26587D02*
X-24619Y-204724D01*
X-22651D02*
Y-200789D01*
X-20683Y-198821D01*
X-18715Y-200789D01*
Y-204724D01*
Y-201773D01*
X-22651D01*
X-16747Y-198821D02*
Y-204724D01*
X-14779Y-202757D01*
X-12811Y-204724D01*
Y-198821D01*
X-10844D02*
X-8876D01*
X-9860D01*
Y-204724D01*
X-10844D01*
X-8876D01*
X-5924D02*
Y-198821D01*
X-1988Y-204724D01*
Y-198821D01*
X3915Y-199805D02*
X2931Y-198821D01*
X964D01*
X-20Y-199805D01*
Y-203741D01*
X964Y-204724D01*
X2931D01*
X3915Y-203741D01*
Y-201773D01*
X1947D01*
X11787Y-204724D02*
Y-198821D01*
X14739D01*
X15723Y-199805D01*
Y-201773D01*
X14739Y-202757D01*
X11787D01*
X13755D02*
X15723Y-204724D01*
X21626Y-198821D02*
X17690D01*
Y-204724D01*
X21626D01*
X17690Y-201773D02*
X19658D01*
X23594Y-204724D02*
Y-198821D01*
X25562Y-200789D01*
X27530Y-198821D01*
Y-204724D01*
X29498D02*
Y-200789D01*
X31466Y-198821D01*
X33433Y-200789D01*
Y-204724D01*
Y-201773D01*
X29498D01*
X35401Y-198821D02*
X37369D01*
X36385D01*
Y-204724D01*
X35401D01*
X37369D01*
X40321D02*
Y-198821D01*
X44257Y-204724D01*
Y-198821D01*
X50160Y-199805D02*
X49176Y-198821D01*
X47208D01*
X46224Y-199805D01*
Y-200789D01*
X47208Y-201773D01*
X49176D01*
X50160Y-202757D01*
Y-203741D01*
X49176Y-204724D01*
X47208D01*
X46224Y-203741D01*
X58032Y-204724D02*
Y-198821D01*
X60984D01*
X61967Y-199805D01*
Y-201773D01*
X60984Y-202757D01*
X58032D01*
X63935Y-204724D02*
Y-198821D01*
X66887D01*
X67871Y-199805D01*
Y-201773D01*
X66887Y-202757D01*
X63935D01*
X65903D02*
X67871Y-204724D01*
X72791Y-198821D02*
X70823D01*
X69839Y-199805D01*
Y-203741D01*
X70823Y-204724D01*
X72791D01*
X73775Y-203741D01*
Y-199805D01*
X72791Y-198821D01*
X75743Y-204724D02*
Y-198821D01*
X78694D01*
X79678Y-199805D01*
Y-201773D01*
X78694Y-202757D01*
X75743D01*
X85582Y-198821D02*
X81646D01*
Y-204724D01*
X85582D01*
X81646Y-201773D02*
X83614D01*
X87550Y-204724D02*
Y-198821D01*
X90501D01*
X91485Y-199805D01*
Y-201773D01*
X90501Y-202757D01*
X87550D01*
X89518D02*
X91485Y-204724D01*
X93453Y-198821D02*
X97389D01*
X95421D01*
Y-204724D01*
X99357Y-198821D02*
Y-199805D01*
X101325Y-201773D01*
X103293Y-199805D01*
Y-198821D01*
X101325Y-201773D02*
Y-204724D01*
X114116Y-198821D02*
X112148D01*
X111164Y-199805D01*
Y-203741D01*
X112148Y-204724D01*
X114116D01*
X115100Y-203741D01*
Y-199805D01*
X114116Y-198821D01*
X121003D02*
X117068D01*
Y-201773D01*
X119036D01*
X117068D01*
Y-204724D01*
X128875D02*
Y-198821D01*
X131827D01*
X132811Y-199805D01*
Y-201773D01*
X131827Y-202757D01*
X128875D01*
X134778Y-198821D02*
Y-204724D01*
X137730D01*
X138714Y-203741D01*
Y-199805D01*
X137730Y-198821D01*
X134778D01*
X144618Y-199805D02*
X143634Y-198821D01*
X141666D01*
X140682Y-199805D01*
Y-203741D01*
X141666Y-204724D01*
X143634D01*
X144618Y-203741D01*
X146586Y-198821D02*
X148554D01*
X147570D01*
Y-204724D01*
X146586D01*
X148554D01*
X151505Y-201773D02*
X155441D01*
X157409Y-204724D02*
Y-200789D01*
X159377Y-198821D01*
X161345Y-200789D01*
Y-204724D01*
Y-201773D01*
X157409D01*
X163313Y-198821D02*
Y-204724D01*
X167248D01*
X169216Y-198821D02*
X173152D01*
X171184D01*
Y-204724D01*
X175120Y-198821D02*
Y-199805D01*
X177088Y-201773D01*
X179056Y-199805D01*
Y-198821D01*
X177088Y-201773D02*
Y-204724D01*
X183975Y-198821D02*
X182007D01*
X181023Y-199805D01*
Y-203741D01*
X182007Y-204724D01*
X183975D01*
X184959Y-203741D01*
Y-199805D01*
X183975Y-198821D01*
X186927Y-204724D02*
Y-198821D01*
X189879D01*
X190863Y-199805D01*
Y-201773D01*
X189879Y-202757D01*
X186927D01*
X188895D02*
X190863Y-204724D01*
X202670Y-199805D02*
X201686Y-198821D01*
X199718D01*
X198734Y-199805D01*
Y-203741D01*
X199718Y-204724D01*
X201686D01*
X202670Y-203741D01*
Y-201773D01*
X200702D01*
X204638Y-204724D02*
Y-198821D01*
X207590D01*
X208574Y-199805D01*
Y-201773D01*
X207590Y-202757D01*
X204638D01*
X206606D02*
X208574Y-204724D01*
X213493Y-198821D02*
X211525D01*
X210541Y-199805D01*
Y-203741D01*
X211525Y-204724D01*
X213493D01*
X214477Y-203741D01*
Y-199805D01*
X213493Y-198821D01*
X216445D02*
Y-203741D01*
X217429Y-204724D01*
X219397D01*
X220381Y-203741D01*
Y-198821D01*
X222349Y-204724D02*
Y-198821D01*
X225300D01*
X226284Y-199805D01*
Y-201773D01*
X225300Y-202757D01*
X222349D01*
X228252Y-204724D02*
Y-203741D01*
X229236D01*
Y-204724D01*
X228252D01*
X239075Y-198821D02*
X241043D01*
X240059D01*
Y-204724D01*
X239075D01*
X241043D01*
X243995Y-198821D02*
X247931D01*
X245963D01*
Y-204724D01*
X255802D02*
Y-198821D01*
X257770Y-200789D01*
X259738Y-198821D01*
Y-204724D01*
X261706D02*
Y-200789D01*
X263674Y-198821D01*
X265642Y-200789D01*
Y-204724D01*
Y-201773D01*
X261706D01*
X267610Y-198821D02*
Y-199805D01*
X269577Y-201773D01*
X271545Y-199805D01*
Y-198821D01*
X269577Y-201773D02*
Y-204724D01*
X279417Y-198821D02*
Y-204724D01*
X282368D01*
X283352Y-203741D01*
Y-202757D01*
X282368Y-201773D01*
X279417D01*
X282368D01*
X283352Y-200789D01*
Y-199805D01*
X282368Y-198821D01*
X279417D01*
X289256D02*
X285320D01*
Y-204724D01*
X289256D01*
X285320Y-201773D02*
X287288D01*
X297128Y-204724D02*
Y-198821D01*
X301063Y-204724D01*
Y-198821D01*
X306967D02*
X303031D01*
Y-204724D01*
X306967D01*
X303031Y-201773D02*
X304999D01*
X308935Y-198821D02*
X310903D01*
X309919D01*
Y-204724D01*
X308935D01*
X310903D01*
X313854Y-198821D02*
X317790D01*
X315822D01*
Y-204724D01*
X319758Y-198821D02*
Y-204724D01*
Y-201773D01*
X323694D01*
Y-198821D01*
Y-204724D01*
X329597Y-198821D02*
X325662D01*
Y-204724D01*
X329597D01*
X325662Y-201773D02*
X327629D01*
X331565Y-204724D02*
Y-198821D01*
X334517D01*
X335501Y-199805D01*
Y-201773D01*
X334517Y-202757D01*
X331565D01*
X333533D02*
X335501Y-204724D01*
X347308Y-199805D02*
X346324Y-198821D01*
X344356D01*
X343372Y-199805D01*
Y-203741D01*
X344356Y-204724D01*
X346324D01*
X347308Y-203741D01*
X352228Y-198821D02*
X350260D01*
X349276Y-199805D01*
Y-203741D01*
X350260Y-204724D01*
X352228D01*
X353212Y-203741D01*
Y-199805D01*
X352228Y-198821D01*
X355180Y-204724D02*
Y-198821D01*
X358131D01*
X359115Y-199805D01*
Y-201773D01*
X358131Y-202757D01*
X355180D01*
X361083Y-198821D02*
X363051D01*
X362067D01*
Y-204724D01*
X361083D01*
X363051D01*
X369939Y-198821D02*
X366003D01*
Y-204724D01*
X369939D01*
X366003Y-201773D02*
X367971D01*
X371906Y-198821D02*
Y-204724D01*
X374858D01*
X375842Y-203741D01*
Y-199805D01*
X374858Y-198821D01*
X371906D01*
X383714Y-204724D02*
Y-198821D01*
X387649Y-204724D01*
Y-198821D01*
X392569D02*
X390601D01*
X389617Y-199805D01*
Y-203741D01*
X390601Y-204724D01*
X392569D01*
X393553Y-203741D01*
Y-199805D01*
X392569Y-198821D01*
X395521Y-204724D02*
Y-198821D01*
X398473D01*
X399457Y-199805D01*
Y-201773D01*
X398473Y-202757D01*
X395521D01*
X397489D02*
X399457Y-204724D01*
X407328Y-198821D02*
X409296D01*
X408312D01*
Y-204724D01*
X407328D01*
X409296D01*
X412248D02*
Y-198821D01*
X416183Y-204724D01*
Y-198821D01*
X422087D02*
X418151D01*
Y-201773D01*
X420119D01*
X418151D01*
Y-204724D01*
X427007Y-198821D02*
X425039D01*
X424055Y-199805D01*
Y-203741D01*
X425039Y-204724D01*
X427007D01*
X427991Y-203741D01*
Y-199805D01*
X427007Y-198821D01*
X429958Y-204724D02*
Y-198821D01*
X432910D01*
X433894Y-199805D01*
Y-201773D01*
X432910Y-202757D01*
X429958D01*
X431926D02*
X433894Y-204724D01*
X435862D02*
Y-198821D01*
X437830Y-200789D01*
X439798Y-198821D01*
Y-204724D01*
X445701Y-198821D02*
X441766D01*
Y-204724D01*
X445701D01*
X441766Y-201773D02*
X443734D01*
X447669Y-198821D02*
Y-204724D01*
X450621D01*
X451605Y-203741D01*
Y-199805D01*
X450621Y-198821D01*
X447669D01*
X459477D02*
X463412D01*
X461444D01*
Y-204724D01*
X468332Y-198821D02*
X466364D01*
X465380Y-199805D01*
Y-203741D01*
X466364Y-204724D01*
X468332D01*
X469316Y-203741D01*
Y-199805D01*
X468332Y-198821D01*
X477187D02*
X481123D01*
X479155D01*
Y-204724D01*
X483091Y-198821D02*
Y-204724D01*
Y-201773D01*
X487027D01*
Y-198821D01*
Y-204724D01*
X488995Y-198821D02*
X490962D01*
X489978D01*
Y-204724D01*
X488995D01*
X490962D01*
X493914D02*
Y-198821D01*
X496866D01*
X497850Y-199805D01*
Y-201773D01*
X496866Y-202757D01*
X493914D01*
X495882D02*
X497850Y-204724D01*
X499818Y-198821D02*
Y-204724D01*
X502770D01*
X503754Y-203741D01*
Y-199805D01*
X502770Y-198821D01*
X499818D01*
X511625Y-204724D02*
Y-198821D01*
X514577D01*
X515561Y-199805D01*
Y-201773D01*
X514577Y-202757D01*
X511625D01*
X521464Y-198821D02*
X517529D01*
Y-204724D01*
X521464D01*
X517529Y-201773D02*
X519496D01*
X523432Y-204724D02*
Y-198821D01*
X526384D01*
X527368Y-199805D01*
Y-201773D01*
X526384Y-202757D01*
X523432D01*
X525400D02*
X527368Y-204724D01*
X533272Y-199805D02*
X532288Y-198821D01*
X530320D01*
X529336Y-199805D01*
Y-200789D01*
X530320Y-201773D01*
X532288D01*
X533272Y-202757D01*
Y-203741D01*
X532288Y-204724D01*
X530320D01*
X529336Y-203741D01*
X538191Y-198821D02*
X536223D01*
X535239Y-199805D01*
Y-203741D01*
X536223Y-204724D01*
X538191D01*
X539175Y-203741D01*
Y-199805D01*
X538191Y-198821D01*
X541143Y-204724D02*
Y-198821D01*
X545079Y-204724D01*
Y-198821D01*
X550982Y-199805D02*
X549998Y-198821D01*
X548031D01*
X547047Y-199805D01*
Y-200789D01*
X548031Y-201773D01*
X549998D01*
X550982Y-202757D01*
Y-203741D01*
X549998Y-204724D01*
X548031D01*
X547047Y-203741D01*
X561806Y-198821D02*
X559838D01*
X558854Y-199805D01*
Y-203741D01*
X559838Y-204724D01*
X561806D01*
X562789Y-203741D01*
Y-199805D01*
X561806Y-198821D01*
X564757Y-204724D02*
Y-198821D01*
X567709D01*
X568693Y-199805D01*
Y-201773D01*
X567709Y-202757D01*
X564757D01*
X566725D02*
X568693Y-204724D01*
X580500Y-199805D02*
X579516Y-198821D01*
X577549D01*
X576565Y-199805D01*
Y-203741D01*
X577549Y-204724D01*
X579516D01*
X580500Y-203741D01*
X585420Y-198821D02*
X583452D01*
X582468Y-199805D01*
Y-203741D01*
X583452Y-204724D01*
X585420D01*
X586404Y-203741D01*
Y-199805D01*
X585420Y-198821D01*
X588372Y-204724D02*
Y-198821D01*
X590340Y-200789D01*
X592308Y-198821D01*
Y-204724D01*
X594275D02*
Y-198821D01*
X597227D01*
X598211Y-199805D01*
Y-201773D01*
X597227Y-202757D01*
X594275D01*
X604115Y-198821D02*
X600179D01*
Y-204724D01*
X604115D01*
X600179Y-201773D02*
X602147D01*
X606083Y-198821D02*
X610018D01*
X608050D01*
Y-204724D01*
X611986Y-198821D02*
X613954D01*
X612970D01*
Y-204724D01*
X611986D01*
X613954D01*
X616906Y-198821D02*
X620842D01*
X618874D01*
Y-204724D01*
X625761Y-198821D02*
X623793D01*
X622810Y-199805D01*
Y-203741D01*
X623793Y-204724D01*
X625761D01*
X626745Y-203741D01*
Y-199805D01*
X625761Y-198821D01*
X628713Y-204724D02*
Y-198821D01*
X631665D01*
X632649Y-199805D01*
Y-201773D01*
X631665Y-202757D01*
X628713D01*
X630681D02*
X632649Y-204724D01*
X638552Y-199805D02*
X637569Y-198821D01*
X635601D01*
X634617Y-199805D01*
Y-200789D01*
X635601Y-201773D01*
X637569D01*
X638552Y-202757D01*
Y-203741D01*
X637569Y-204724D01*
X635601D01*
X634617Y-203741D01*
X646424Y-198821D02*
Y-204724D01*
X648392Y-202757D01*
X650360Y-204724D01*
Y-198821D01*
X652327D02*
X654295D01*
X653311D01*
Y-204724D01*
X652327D01*
X654295D01*
X657247Y-198821D02*
X661183D01*
X659215D01*
Y-204724D01*
X663151Y-198821D02*
Y-204724D01*
Y-201773D01*
X667086D01*
Y-198821D01*
Y-204724D01*
X672006Y-198821D02*
X670038D01*
X669054Y-199805D01*
Y-203741D01*
X670038Y-204724D01*
X672006D01*
X672990Y-203741D01*
Y-199805D01*
X672006Y-198821D01*
X674958D02*
Y-203741D01*
X675942Y-204724D01*
X677910D01*
X678894Y-203741D01*
Y-198821D01*
X680862D02*
X684797D01*
X682829D01*
Y-204724D01*
X695620Y-198821D02*
X693653D01*
X692669Y-199805D01*
Y-203741D01*
X693653Y-204724D01*
X695620D01*
X696604Y-203741D01*
Y-199805D01*
X695620Y-198821D01*
X698572D02*
Y-203741D01*
X699556Y-204724D01*
X701524D01*
X702508Y-203741D01*
Y-198821D01*
X704476Y-204724D02*
Y-198821D01*
X707428D01*
X708412Y-199805D01*
Y-201773D01*
X707428Y-202757D01*
X704476D01*
X706444D02*
X708412Y-204724D01*
X716283D02*
Y-200789D01*
X718251Y-198821D01*
X720219Y-200789D01*
Y-204724D01*
Y-201773D01*
X716283D01*
X722187Y-204724D02*
Y-198821D01*
X725139D01*
X726123Y-199805D01*
Y-201773D01*
X725139Y-202757D01*
X722187D01*
X728090Y-204724D02*
Y-198821D01*
X731042D01*
X732026Y-199805D01*
Y-201773D01*
X731042Y-202757D01*
X728090D01*
X733994Y-204724D02*
Y-198821D01*
X736946D01*
X737930Y-199805D01*
Y-201773D01*
X736946Y-202757D01*
X733994D01*
X735962D02*
X737930Y-204724D01*
X742849Y-198821D02*
X740881D01*
X739897Y-199805D01*
Y-203741D01*
X740881Y-204724D01*
X742849D01*
X743833Y-203741D01*
Y-199805D01*
X742849Y-198821D01*
X745801D02*
Y-202757D01*
X747769Y-204724D01*
X749737Y-202757D01*
Y-198821D01*
X751705Y-204724D02*
Y-200789D01*
X753673Y-198821D01*
X755640Y-200789D01*
Y-204724D01*
Y-201773D01*
X751705D01*
X757608Y-198821D02*
Y-204724D01*
X761544D01*
X763512D02*
Y-203741D01*
X764496D01*
Y-204724D01*
X763512D01*
D195*
X760898Y197653D02*
Y199653D01*
Y198653D01*
X754900D01*
X755899Y197653D01*
Y202652D02*
X754900Y203651D01*
Y205651D01*
X755899Y206650D01*
X759898D01*
X760898Y205651D01*
Y203651D01*
X759898Y202652D01*
X755899D01*
X759898Y208650D02*
X760898Y209649D01*
Y211649D01*
X759898Y212649D01*
X755899D01*
X754900Y211649D01*
Y209649D01*
X755899Y208650D01*
X756899D01*
X757899Y209649D01*
Y212649D01*
X761898Y215648D02*
X760898Y216647D01*
X759898D01*
Y215648D01*
X760898D01*
Y216647D01*
X761898Y215648D01*
X762897Y214648D01*
X754900Y224645D02*
X755899Y222645D01*
X757899Y220646D01*
X759898D01*
X760898Y221646D01*
Y223645D01*
X759898Y224645D01*
X758899D01*
X757899Y223645D01*
Y220646D01*
X755899Y226644D02*
X754900Y227644D01*
Y229643D01*
X755899Y230643D01*
X759898D01*
X760898Y229643D01*
Y227644D01*
X759898Y226644D01*
X755899D01*
X334071Y-51449D02*
X336070D01*
X335070D01*
Y-45451D01*
X334071Y-46451D01*
X339069Y-45451D02*
X343068D01*
Y-46451D01*
X339069Y-50449D01*
Y-51449D01*
X345067Y-46451D02*
X346067Y-45451D01*
X348066D01*
X349066Y-46451D01*
Y-47450D01*
X348066Y-48450D01*
X349066Y-49450D01*
Y-50449D01*
X348066Y-51449D01*
X346067D01*
X345067Y-50449D01*
Y-49450D01*
X346067Y-48450D01*
X345067Y-47450D01*
Y-46451D01*
X346067Y-48450D02*
X348066D01*
X352065Y-52449D02*
X353064Y-51449D01*
Y-50449D01*
X352065D01*
Y-51449D01*
X353064D01*
X352065Y-52449D01*
X351065Y-53448D01*
X357063Y-50449D02*
X358063Y-51449D01*
X360062D01*
X361062Y-50449D01*
Y-46451D01*
X360062Y-45451D01*
X358063D01*
X357063Y-46451D01*
Y-47450D01*
X358063Y-48450D01*
X361062D01*
X363061Y-46451D02*
X364061Y-45451D01*
X366060D01*
X367060Y-46451D01*
Y-50449D01*
X366060Y-51449D01*
X364061D01*
X363061Y-50449D01*
Y-46451D01*
X103166Y-11987D02*
X99168D01*
Y-14986D01*
X101167Y-13986D01*
X102167D01*
X103166Y-14986D01*
Y-16985D01*
X102167Y-17985D01*
X100167D01*
X99168Y-16985D01*
X105166Y-12986D02*
X106166Y-11987D01*
X108165D01*
X109165Y-12986D01*
Y-13986D01*
X108165Y-14986D01*
X109165Y-15985D01*
Y-16985D01*
X108165Y-17985D01*
X106166D01*
X105166Y-16985D01*
Y-15985D01*
X106166Y-14986D01*
X105166Y-13986D01*
Y-12986D01*
X106166Y-14986D02*
X108165D01*
X112163Y-18984D02*
X113163Y-17985D01*
Y-16985D01*
X112163D01*
Y-17985D01*
X113163D01*
X112163Y-18984D01*
X111164Y-19984D01*
X117162Y-12986D02*
X118162Y-11987D01*
X120161D01*
X121161Y-12986D01*
Y-13986D01*
X120161Y-14986D01*
X119161D01*
X120161D01*
X121161Y-15985D01*
Y-16985D01*
X120161Y-17985D01*
X118162D01*
X117162Y-16985D01*
X123160Y-12986D02*
X124160Y-11987D01*
X126159D01*
X127159Y-12986D01*
Y-16985D01*
X126159Y-17985D01*
X124160D01*
X123160Y-16985D01*
Y-12986D01*
X340569Y-11987D02*
X336570D01*
Y-14986D01*
X338569Y-13986D01*
X339569D01*
X340569Y-14986D01*
Y-16985D01*
X339569Y-17985D01*
X337570D01*
X336570Y-16985D01*
X342568Y-12986D02*
X343568Y-11987D01*
X345567D01*
X346567Y-12986D01*
Y-13986D01*
X345567Y-14986D01*
X346567Y-15985D01*
Y-16985D01*
X345567Y-17985D01*
X343568D01*
X342568Y-16985D01*
Y-15985D01*
X343568Y-14986D01*
X342568Y-13986D01*
Y-12986D01*
X343568Y-14986D02*
X345567D01*
X349566Y-18984D02*
X350566Y-17985D01*
Y-16985D01*
X349566D01*
Y-17985D01*
X350566D01*
X349566Y-18984D01*
X348566Y-19984D01*
X354564Y-12986D02*
X355564Y-11987D01*
X357563D01*
X358563Y-12986D01*
Y-13986D01*
X357563Y-14986D01*
X356564D01*
X357563D01*
X358563Y-15985D01*
Y-16985D01*
X357563Y-17985D01*
X355564D01*
X354564Y-16985D01*
X360562Y-12986D02*
X361562Y-11987D01*
X363562D01*
X364561Y-12986D01*
Y-16985D01*
X363562Y-17985D01*
X361562D01*
X360562Y-16985D01*
Y-12986D01*
X462269Y-31387D02*
X458270D01*
X462269Y-27388D01*
Y-26389D01*
X461269Y-25389D01*
X459270D01*
X458270Y-26389D01*
X465268Y-32387D02*
X466267Y-31387D01*
Y-30387D01*
X465268D01*
Y-31387D01*
X466267D01*
X465268Y-32387D01*
X464268Y-33386D01*
X470266Y-26389D02*
X471266Y-25389D01*
X473265D01*
X474265Y-26389D01*
Y-30387D01*
X473265Y-31387D01*
X471266D01*
X470266Y-30387D01*
Y-26389D01*
X476264D02*
X477264Y-25389D01*
X479263D01*
X480263Y-26389D01*
Y-30387D01*
X479263Y-31387D01*
X477264D01*
X476264Y-30387D01*
Y-26389D01*
X577971Y-11593D02*
X573972D01*
Y-14592D01*
X575972Y-13592D01*
X576971D01*
X577971Y-14592D01*
Y-16591D01*
X576971Y-17591D01*
X574972D01*
X573972Y-16591D01*
X579970Y-12592D02*
X580970Y-11593D01*
X582969D01*
X583969Y-12592D01*
Y-13592D01*
X582969Y-14592D01*
X583969Y-15592D01*
Y-16591D01*
X582969Y-17591D01*
X580970D01*
X579970Y-16591D01*
Y-15592D01*
X580970Y-14592D01*
X579970Y-13592D01*
Y-12592D01*
X580970Y-14592D02*
X582969D01*
X586968Y-18590D02*
X587968Y-17591D01*
Y-16591D01*
X586968D01*
Y-17591D01*
X587968D01*
X586968Y-18590D01*
X585968Y-19590D01*
X591966Y-12592D02*
X592966Y-11593D01*
X594966D01*
X595965Y-12592D01*
Y-13592D01*
X594966Y-14592D01*
X593966D01*
X594966D01*
X595965Y-15592D01*
Y-16591D01*
X594966Y-17591D01*
X592966D01*
X591966Y-16591D01*
X597965Y-12592D02*
X598964Y-11593D01*
X600964D01*
X601963Y-12592D01*
Y-16591D01*
X600964Y-17591D01*
X598964D01*
X597965Y-16591D01*
Y-12592D01*
X224867Y-31781D02*
X220868D01*
X224867Y-27782D01*
Y-26782D01*
X223868Y-25783D01*
X221868D01*
X220868Y-26782D01*
X227866Y-32780D02*
X228866Y-31781D01*
Y-30781D01*
X227866D01*
Y-31781D01*
X228866D01*
X227866Y-32780D01*
X226867Y-33780D01*
X232865Y-26782D02*
X233864Y-25783D01*
X235864D01*
X236863Y-26782D01*
Y-30781D01*
X235864Y-31781D01*
X233864D01*
X232865Y-30781D01*
Y-26782D01*
X238863D02*
X239862Y-25783D01*
X241862D01*
X242861Y-26782D01*
Y-30781D01*
X241862Y-31781D01*
X239862D01*
X238863Y-30781D01*
Y-26782D01*
D196*
X1000000Y-55905D02*
X1559842D01*
X1000000Y-85827D02*
Y-55905D01*
D197*
X-111426Y91846D02*
X-84301D01*
X-110236Y-238459D02*
X1588153D01*
X353963D02*
Y-211334D01*
X595376Y-238459D02*
Y-211334D01*
X836789Y-238459D02*
Y-211334D01*
X1078202Y-238459D02*
Y-211334D01*
X1319615Y-238459D02*
Y-211334D01*
X1588153Y-238228D02*
Y914134D01*
X1561028Y91846D02*
X1588153D01*
X1561028Y335972D02*
X1588153D01*
X1561028Y580097D02*
X1588153D01*
X1319615Y887215D02*
Y914340D01*
X1078202Y887215D02*
Y914340D01*
X836789Y887215D02*
Y914340D01*
X595376Y887215D02*
Y914340D01*
X353963Y887215D02*
Y914340D01*
X-111426Y580097D02*
X-84301D01*
X-111426Y335972D02*
X-84301D01*
X-111426Y-237638D02*
Y914340D01*
X-110236D02*
X1588153D01*
D198*
X-82677Y-211334D02*
X1560751D01*
Y-210866D02*
Y886535D01*
X-82677Y887215D02*
X1560751D01*
X-84626Y-210433D02*
Y887008D01*
D199*
X1009665Y-97681D02*
X1018346D01*
X1009665Y-98921D02*
Y-97681D01*
X1018346Y-98921D02*
Y-97681D01*
Y-98921D02*
X1043149D01*
X1009665Y-99313D02*
Y-98921D01*
X1043149D02*
X1046066Y-99313D01*
X1009665Y-100249D02*
Y-99313D01*
X1046066D02*
X1048857Y-100249D01*
X1009665Y-101695D02*
Y-100249D01*
X1048857D02*
X1051422Y-101695D01*
X1009665Y-103599D02*
Y-101695D01*
X1051422D02*
X1053666Y-103599D01*
X1009665Y-105893D02*
Y-103599D01*
X1053666D02*
X1055511Y-105893D01*
X1009665Y-106362D02*
Y-105893D01*
X1055511D02*
X1055759Y-106362D01*
X1018346D02*
X1020826D01*
X1028267D02*
X1043149D01*
X1009665Y-107097D02*
Y-106362D01*
X1018346Y-107097D02*
Y-106362D01*
X1020826Y-107097D02*
Y-106362D01*
X1028267Y-107097D02*
Y-106362D01*
X1043149D02*
X1045199Y-107097D01*
X1055759Y-106362D02*
X1056149Y-107097D01*
X1009665Y-107602D02*
Y-107097D01*
X1018346Y-107602D02*
Y-107097D01*
X1020826Y-107602D02*
Y-107097D01*
X1028267Y-107602D02*
Y-107097D01*
X1045199D02*
X1045904Y-107602D01*
X1056149Y-107097D02*
X1056416Y-107602D01*
X1009665D02*
X1018346D01*
X1020826Y-108365D02*
Y-107602D01*
X1028267Y-108365D02*
Y-107602D01*
X1045904D02*
X1046968Y-108365D01*
X1056416Y-107602D02*
X1056821Y-108365D01*
X1020826Y-108494D02*
Y-108365D01*
X1028267Y-108494D02*
Y-108365D01*
X1046968D02*
X1047071Y-108494D01*
X1056821Y-108365D02*
X1056889Y-108494D01*
X1020826Y-110070D02*
Y-108494D01*
X1028267Y-110070D02*
Y-108494D01*
X1047071D02*
X1048322Y-110070D01*
X1056889Y-108494D02*
X1057372Y-110070D01*
X1020826Y-111309D02*
Y-110070D01*
X1028267Y-111309D02*
Y-110070D01*
X1048322D02*
X1048837Y-111309D01*
X1057372Y-110070D02*
X1057751Y-111309D01*
X1020826Y-112081D02*
Y-111309D01*
X1028267Y-112081D02*
Y-111309D01*
X1048837D02*
X1049157Y-112081D01*
X1057751Y-111309D02*
X1057834Y-112081D01*
X1020826Y-114236D02*
Y-112081D01*
X1028267Y-114236D02*
Y-112081D01*
X1049157D02*
X1049408Y-114236D01*
X1057834Y-112081D02*
X1058066Y-114236D01*
X1020826Y-114244D02*
Y-114236D01*
X1028267Y-114244D02*
Y-114236D01*
X1049408D02*
X1049409Y-114244D01*
X1058065D02*
X1058066Y-114236D01*
X1020826Y-116393D02*
Y-114244D01*
X1028267Y-116393D02*
Y-114244D01*
X1049058Y-116393D02*
X1049409Y-114244D01*
X1057886Y-116393D02*
X1058065Y-114244D01*
X1020826Y-117169D02*
Y-116393D01*
X1028267Y-117169D02*
Y-116393D01*
X1048693Y-117169D02*
X1049058Y-116393D01*
X1057822Y-117169D02*
X1057886Y-116393D01*
X1020826Y-118363D02*
Y-117169D01*
X1028267Y-118363D02*
Y-117169D01*
X1048132Y-118363D02*
X1048693Y-117169D01*
X1057487Y-118363D02*
X1057822Y-117169D01*
X1020826Y-120004D02*
Y-118363D01*
X1028267Y-120004D02*
Y-118363D01*
X1046701Y-120004D02*
X1048132Y-118363D01*
X1057028Y-120004D02*
X1057487Y-118363D01*
X1046701Y-120004D02*
X1057028D01*
X1020826Y-148528D02*
Y-120004D01*
X1028267Y-148528D02*
Y-120004D01*
X1019586Y-148528D02*
X1020826D01*
X1028267D02*
X1029507D01*
X1019586Y-157209D02*
Y-148528D01*
X1029507Y-157209D02*
Y-148528D01*
X1019586Y-157209D02*
X1029507D01*
X1046869Y-123724D02*
X1070432D01*
X1046869Y-124091D02*
Y-123724D01*
X1070432D02*
X1073167Y-124091D01*
X1046869Y-125038D02*
Y-124091D01*
X1073167D02*
X1075759Y-125038D01*
X1046869Y-126522D02*
Y-125038D01*
X1075759D02*
X1078085Y-126522D01*
X1046869Y-128473D02*
Y-126522D01*
X1078085D02*
X1080036Y-128473D01*
X1046869Y-129925D02*
Y-128473D01*
X1080036D02*
X1080962Y-129925D01*
X1053070D02*
X1070432D01*
X1046869Y-130279D02*
Y-129925D01*
X1053070Y-130279D02*
Y-129925D01*
X1070432D02*
X1072322Y-130279D01*
X1080962Y-129925D02*
X1081188Y-130279D01*
X1046869Y-130799D02*
Y-130279D01*
X1053070Y-130799D02*
Y-130279D01*
X1072322D02*
X1073310Y-130799D01*
X1081188Y-130279D02*
X1081520Y-130799D01*
X1046869Y-131175D02*
Y-130799D01*
X1053070Y-131175D02*
Y-130799D01*
X1073310D02*
X1074023Y-131175D01*
X1081520Y-130799D02*
X1081658Y-131175D01*
X1046869Y-132535D02*
Y-131175D01*
X1053070Y-132535D02*
Y-131175D01*
X1074023D02*
X1075383Y-132535D01*
X1081658Y-131175D02*
X1082155Y-132535D01*
X1046869Y-133391D02*
Y-132535D01*
X1053070Y-133391D02*
Y-132535D01*
X1075383D02*
X1075834Y-133391D01*
X1082155Y-132535D02*
X1082468Y-133391D01*
X1046869Y-134236D02*
Y-133391D01*
X1053070Y-134236D02*
Y-133391D01*
X1075834D02*
X1076280Y-134236D01*
X1082468Y-133391D02*
X1082581Y-134236D01*
X1046869Y-136126D02*
Y-134236D01*
X1053070Y-136126D02*
Y-134236D01*
X1076280D02*
X1076633Y-136126D01*
X1082581Y-134236D02*
X1082834Y-136126D01*
X1046869D02*
X1053070D01*
X1076633Y-143567D02*
Y-136126D01*
X1082834Y-143567D02*
Y-136126D01*
X1076280Y-145457D02*
X1076633Y-143567D01*
X1082581Y-145457D02*
X1082834Y-143567D01*
X1075834Y-146302D02*
X1076280Y-145457D01*
X1082468Y-146302D02*
X1082581Y-145457D01*
X1075383Y-147158D02*
X1075834Y-146302D01*
X1082155Y-147158D02*
X1082468Y-146302D01*
X1074023Y-148517D02*
X1075383Y-147158D01*
X1081658Y-148517D02*
X1082155Y-147158D01*
X1073310Y-148893D02*
X1074023Y-148517D01*
X1081520Y-148893D02*
X1081658Y-148517D01*
X1072322Y-149414D02*
X1073310Y-148893D01*
X1081188Y-149414D02*
X1081520Y-148893D01*
X1070432Y-149768D02*
X1072322Y-149414D01*
X1080962Y-149768D02*
X1081188Y-149414D01*
X1046869Y-149768D02*
X1070432D01*
X1046869Y-151219D02*
Y-149768D01*
X1080036Y-151219D02*
X1080962Y-149768D01*
X1046869Y-153171D02*
Y-151219D01*
X1078085Y-153171D02*
X1080036Y-151219D01*
X1046869Y-154655D02*
Y-153171D01*
X1075759Y-154655D02*
X1078085Y-153171D01*
X1046869Y-155602D02*
Y-154655D01*
X1073167Y-155602D02*
X1075759Y-154655D01*
X1046869Y-155968D02*
Y-155602D01*
X1070432Y-155968D02*
X1073167Y-155602D01*
X1046869Y-155968D02*
X1070432D01*
X1116318Y-123724D02*
X1122519D01*
X1116318Y-147287D02*
Y-123724D01*
X1122519Y-147287D02*
Y-123724D01*
X1116318Y-147287D02*
X1122519D01*
X1098956Y-123724D02*
X1113838D01*
X1096221Y-124091D02*
X1098956Y-123724D01*
X1113838Y-124091D02*
Y-123724D01*
X1093630Y-125038D02*
X1096221Y-124091D01*
X1113838Y-125038D02*
Y-124091D01*
X1091304Y-126522D02*
X1093630Y-125038D01*
X1113838Y-126522D02*
Y-125038D01*
X1089353Y-128473D02*
X1091304Y-126522D01*
X1113838Y-128473D02*
Y-126522D01*
X1088426Y-129925D02*
X1089353Y-128473D01*
X1113838Y-129925D02*
Y-128473D01*
X1098956Y-129925D02*
X1113838D01*
X1088201Y-130279D02*
X1088426Y-129925D01*
X1097066Y-130279D02*
X1098956Y-129925D01*
X1087868Y-130799D02*
X1088201Y-130279D01*
X1096078Y-130799D02*
X1097066Y-130279D01*
X1087731Y-131175D02*
X1087868Y-130799D01*
X1095365Y-131175D02*
X1096078Y-130799D01*
X1087234Y-132535D02*
X1087731Y-131175D01*
X1094006Y-132535D02*
X1095365Y-131175D01*
X1086921Y-133391D02*
X1087234Y-132535D01*
X1093554Y-133391D02*
X1094006Y-132535D01*
X1086808Y-134236D02*
X1086921Y-133391D01*
X1093109Y-134236D02*
X1093554Y-133391D01*
X1086555Y-136126D02*
X1086808Y-134236D01*
X1092755Y-136126D02*
X1093109Y-134236D01*
X1086555Y-143567D02*
Y-136126D01*
X1092755Y-143567D02*
Y-136126D01*
X1086555Y-143567D02*
X1086808Y-145457D01*
X1092755Y-143567D02*
X1093109Y-145457D01*
X1086808D02*
X1086921Y-146302D01*
X1093109Y-145457D02*
X1093554Y-146302D01*
X1086921D02*
X1087234Y-147158D01*
X1093554Y-146302D02*
X1094006Y-147158D01*
X1087234D02*
X1087731Y-148517D01*
X1094006Y-147158D02*
X1095365Y-148517D01*
X1087731D02*
X1087868Y-148893D01*
X1095365Y-148517D02*
X1096078Y-148893D01*
X1087868D02*
X1088201Y-149414D01*
X1096078Y-148893D02*
X1097066Y-149414D01*
X1088201D02*
X1088426Y-149768D01*
X1097066Y-149414D02*
X1098956Y-149768D01*
X1122519D01*
X1088426D02*
X1089353Y-151219D01*
X1122519D02*
Y-149768D01*
X1089353Y-151219D02*
X1091304Y-153171D01*
X1122519D02*
Y-151219D01*
X1091304Y-153171D02*
X1093630Y-154655D01*
X1122519D02*
Y-153171D01*
X1093630Y-154655D02*
X1096221Y-155602D01*
X1122519D02*
Y-154655D01*
X1096221Y-155602D02*
X1098956Y-155968D01*
X1122519D02*
Y-155602D01*
X1098956Y-155968D02*
X1122519D01*
X1117471Y-99259D02*
X1120039Y-98921D01*
X1122607Y-99259D01*
X1115078Y-100250D02*
X1117471Y-99259D01*
X1122607D02*
X1124999Y-100250D01*
X1113023Y-101827D02*
X1115078Y-100250D01*
X1124999D02*
X1127054Y-101827D01*
X1111447Y-103882D02*
X1113023Y-101827D01*
X1127054D02*
X1128631Y-103882D01*
X1110456Y-106275D02*
X1111447Y-103882D01*
X1128631D02*
X1129622Y-106275D01*
X1110118Y-108843D02*
X1110456Y-106275D01*
X1129622D02*
X1129960Y-108843D01*
X1110118D02*
X1110456Y-111410D01*
X1129622D02*
X1129960Y-108843D01*
X1110456Y-111410D02*
X1111447Y-113803D01*
X1128631D02*
X1129622Y-111410D01*
X1111447Y-113803D02*
X1113023Y-115858D01*
X1127054D02*
X1128631Y-113803D01*
X1113023Y-115858D02*
X1115078Y-117435D01*
X1124999D02*
X1127054Y-115858D01*
X1115078Y-117435D02*
X1117471Y-118426D01*
X1122607D02*
X1124999Y-117435D01*
X1120039Y-118764D02*
X1122607Y-118426D01*
X1117471D02*
X1120039Y-118764D01*
X1013165Y-166496D02*
X1047393D01*
X1013165Y-167240D02*
Y-166496D01*
X1047393Y-167240D02*
Y-166496D01*
X1013165Y-167240D02*
X1047393D01*
X1013661Y-168646D02*
X1046732D01*
X1153324Y-121266D02*
X1559820D01*
X1153324Y-124711D02*
Y-121266D01*
X1559820Y-124711D02*
Y-121266D01*
X1153324Y-124711D02*
X1559820D01*
X1153324Y-155715D02*
X1559820D01*
X1153324Y-159160D02*
Y-155715D01*
X1559820Y-159160D02*
Y-155715D01*
X1153324Y-159160D02*
X1559820D01*
X998304Y-83372D02*
X1559820D01*
X998304Y-86817D02*
Y-83372D01*
X1559820Y-86817D02*
Y-83372D01*
X998304Y-86817D02*
X1559820D01*
X1149879D02*
X1153324D01*
X1149879Y-210833D02*
Y-86817D01*
X1153324Y-210833D02*
Y-86817D01*
X1149879Y-210833D02*
X1153324D01*
X998304Y-86817D02*
X1001749D01*
X998304Y-210833D02*
Y-86817D01*
X1001749Y-210833D02*
Y-86817D01*
X998304Y-210833D02*
X1001749D01*
Y-128156D02*
Y-86817D01*
X1038609Y-123678D02*
X1045154D01*
X1038609Y-130223D02*
Y-123678D01*
X1045154Y-130223D02*
Y-123678D01*
X1038609Y-130223D02*
X1045154D01*
X1391021Y-155715D02*
X1394466D01*
X1391021Y-210833D02*
Y-155715D01*
X1394466Y-210833D02*
Y-155715D01*
X1391021Y-210833D02*
X1394466D01*
X1463363Y-155715D02*
X1466808D01*
X1463363Y-210833D02*
Y-155715D01*
X1466808Y-210833D02*
Y-155715D01*
X1463363Y-210833D02*
X1466808D01*
X1153324Y-179829D02*
X1391021D01*
X1153324Y-183274D02*
Y-179829D01*
X1391021Y-183274D02*
Y-179829D01*
X1153324Y-183274D02*
X1391021D01*
X953425Y895352D02*
Y906199D01*
X948001Y900776D01*
X955232D01*
X1579109Y222948D02*
X1577301Y224756D01*
X1573685D01*
X1571878Y222948D01*
Y215717D01*
X1573685Y213909D01*
X1577301D01*
X1579109Y215717D01*
X1571878Y471594D02*
Y460747D01*
X1577301D01*
X1579109Y462555D01*
Y464363D01*
X1577301Y466170D01*
X1571878D01*
X1577301D01*
X1579109Y467978D01*
Y469786D01*
X1577301Y471594D01*
X1571878D01*
Y696735D02*
Y703966D01*
X1575493Y707582D01*
X1579109Y703966D01*
Y696735D01*
Y702158D01*
X1571878D01*
X1438058Y906199D02*
X1434443Y904391D01*
X1430828Y900776D01*
Y897160D01*
X1432635Y895352D01*
X1436251D01*
X1438058Y897160D01*
Y898968D01*
X1436251Y900776D01*
X1430828D01*
X1196646Y906199D02*
X1189414D01*
Y900776D01*
X1193030Y902584D01*
X1194838D01*
X1196646Y900776D01*
Y897160D01*
X1194838Y895352D01*
X1191222D01*
X1189414Y897160D01*
X953425Y895352D02*
Y906199D01*
X948001Y900776D01*
X955232D01*
X706588Y904391D02*
X708396Y906199D01*
X712012D01*
X713819Y904391D01*
Y902584D01*
X712012Y900776D01*
X710204D01*
X712012D01*
X713819Y898968D01*
Y897160D01*
X712012Y895352D01*
X708396D01*
X706588Y897160D01*
X472406Y895352D02*
X465175D01*
X472406Y902584D01*
Y904391D01*
X470599Y906199D01*
X466983D01*
X465175Y904391D01*
X231900Y895352D02*
X235515D01*
X233708D01*
Y906199D01*
X231900Y904391D01*
X-100576Y707585D02*
Y714816D01*
X-96960Y718432D01*
X-93345Y714816D01*
Y707585D01*
Y713008D01*
X-100576D01*
Y471594D02*
Y460747D01*
X-95153D01*
X-93345Y462555D01*
Y464363D01*
X-95153Y466170D01*
X-100576D01*
X-95153D01*
X-93345Y467978D01*
Y469786D01*
X-95153Y471594D01*
X-100576D01*
X-93345Y228373D02*
X-95153Y230181D01*
X-98768D01*
X-100576Y228373D01*
Y221142D01*
X-98768Y219334D01*
X-95153D01*
X-93345Y221142D01*
X-100576Y-75713D02*
Y-86559D01*
X-95153D01*
X-93345Y-84751D01*
Y-77520D01*
X-95153Y-75713D01*
X-100576D01*
X223762Y-230322D02*
X227378D01*
X225570D01*
Y-219475D01*
X223762Y-221283D01*
X472406Y-230322D02*
X465175D01*
X472406Y-223091D01*
Y-221283D01*
X470599Y-219475D01*
X466983D01*
X465175Y-221283D01*
X706588D02*
X708396Y-219475D01*
X712012D01*
X713819Y-221283D01*
Y-223091D01*
X712012Y-224899D01*
X710204D01*
X712012D01*
X713819Y-226706D01*
Y-228514D01*
X712012Y-230322D01*
X708396D01*
X706588Y-228514D01*
X953425Y-230322D02*
Y-219475D01*
X948001Y-224899D01*
X955232D01*
X1196646Y-219475D02*
X1189414D01*
Y-224899D01*
X1193030Y-223091D01*
X1194838D01*
X1196646Y-224899D01*
Y-228514D01*
X1194838Y-230322D01*
X1191222D01*
X1189414Y-228514D01*
X1446196Y-222188D02*
X1442581Y-223996D01*
X1438965Y-227611D01*
Y-231227D01*
X1440773Y-233034D01*
X1444388D01*
X1446196Y-231227D01*
Y-229419D01*
X1444388Y-227611D01*
X1438965D01*
X1571878Y-83850D02*
Y-94697D01*
X1577301D01*
X1579109Y-92889D01*
Y-85658D01*
X1577301Y-83850D01*
X1571878D01*
M02*
