M48
;Layer_Color=9474304
;FILE_FORMAT=4:4
METRIC,LZ
T7F00S00C2.0000
%
G90
G05
T07
G00X00513986Y00663001
M15
G01X00515918Y00663385
G01X00517738Y00664139
G01X00519375Y00665234
G01X00520768Y00666627
G01X00521863Y00668264
G01X00522617Y00670084
G01X00523001Y00672016
G01X00523001Y00673986
G01X00522617Y00675918
G01X00521863Y00677738
G01X00520768Y00679376
G01X00519375Y00680769
G01X00517738Y00681863
G01X00515918Y00682617
G01X00513986Y00683001
G01X00424016Y00683001
G01X00422084Y00682617
G01X00420264Y00681863
G01X00418626Y00680769
G01X00417233Y00679376
G01X00416139Y00677738
G01X00415385Y00675918
G01X00415001Y00673986
G01X00415001Y00672016
G01X00415385Y00670084
G01X00416139Y00668264
G01X00417233Y00666626
G01X00418626Y00665234
G01X00420264Y00664139
G01X00422084Y00663385
G01X00424016Y00663001
G01X00513986Y00663001
M16
G00X01116986Y00663001
M15
G01X01118918Y00663385
G01X01120738Y00664139
G01X01122375Y00665234
G01X01123768Y00666627
G01X01124863Y00668264
G01X01125616Y00670084
G01X01126001Y00672016
G01X01126001Y00673986
G01X01125616Y00675918
G01X01124863Y00677738
G01X01123768Y00679376
G01X01122375Y00680769
G01X01120738Y00681863
G01X01118918Y00682617
G01X01116986Y00683001
G01X01027016Y00683001
G01X01025084Y00682617
G01X01023264Y00681863
G01X01021626Y00680769
G01X01020233Y00679376
G01X01019139Y00677738
G01X01018385Y00675918
G01X01018001Y00673986
G01X01018001Y00672016
G01X01018385Y00670084
G01X01019139Y00668264
G01X01020233Y00666626
G01X01021626Y00665234
G01X01023264Y00664139
G01X01025084Y00663385
G01X01027016Y00663001
G01X01116986Y00663001
M16
G00X01719986Y00663001
M15
G01X01721918Y00663385
G01X01723738Y00664139
G01X01725375Y00665234
G01X01726768Y00666627
G01X01727862Y00668264
G01X01728616Y00670084
G01X01729Y00672016
G01X01729Y00673986
G01X01728616Y00675918
G01X01727862Y00677738
G01X01726768Y00679376
G01X01725375Y00680769
G01X01723737Y00681863
G01X01721918Y00682617
G01X01719986Y00683001
G01X01630016Y00683001
G01X01628084Y00682617
G01X01626264Y00681863
G01X01624626Y00680769
G01X01623233Y00679376
G01X01622139Y00677738
G01X01621385Y00675918
G01X01621001Y00673986
G01X01621001Y00672016
G01X01621385Y00670084
G01X01622139Y00668264
G01X01623233Y00666626
G01X01624626Y00665234
G01X01626264Y00664139
G01X01628084Y00663385
G01X01630016Y00663001
G01X01719986Y00663001
M16
G00X01792137Y-00009495
M15
G01X01794957Y-00008032
G01X01797176Y-00005758
G01X0179857Y-00002902
G01X01799Y0
G01X01799Y01096
G01X01798495Y01099137
G01X01797032Y01101957
G01X01794758Y01104176
G01X01791902Y0110557
G01X01789Y01106
G01X0Y01106
G01X-00003137Y01105495
G01X-00005957Y01104032
G01X-00008176Y01101758
G01X-0000957Y01098902
G01X-0001Y01096
G01X-0001Y0
G01X-00009495Y-00003137
G01X-00008032Y-00005957
G01X-00005758Y-00008176
G01X-00002902Y-0000957
G01X0Y-0001
G01X01789Y-0001
G01X01792137Y-00009495
M16
G00X00538884Y00060533
M15
G01X00546961Y00062227
G01X00554749Y00064961
G01X00562113Y00068687
G01X00568927Y00073344
G01X00575075Y00078849
G01X00580453Y00085111
G01X00584966Y0009202
G01X0058854Y0009946
G01X00591112Y00107302
G01X00592638Y00115413
G01X00593092Y00122346
G01X00593Y00123323
G01X00593092Y00973654
G01X00592467Y00981884
G01X00590773Y00989962
G01X00588039Y00997749
G01X00584312Y01005113
G01X00579656Y01011927
G01X0057415Y01018076
G01X00567889Y01023453
G01X0056098Y01027967
G01X0055354Y0103154
G01X00545698Y01034112
G01X00537587Y01035638
G01X00530654Y01036092
G01X00529677Y01036
G01X00056217Y01036062
G01X00049959Y01035446
G01X00043875Y01033859
G01X00038115Y01031339
G01X00032819Y0102795
G01X00028119Y01023774
G01X00024129Y01018913
G01X0002095Y01013489
G01X00018658Y01007634
G01X0001731Y01001492
G01X0001694Y00996785
G01X00017004Y00995994
G01X00017001Y00995994
G01X00017098Y00843489
G01X00016857Y0084104
G01X00016285Y00839155
G01X00015356Y00837418
G01X00014107Y00835896
G01X00012584Y00834646
G01X00010847Y00833717
G01X00008962Y00833145
G01X00007198Y00832972
G01X00007002Y00833001
G01X0Y00833001
G01X-00003137Y00832496
G01X-00005957Y00831033
G01X-00008176Y00828758
G01X-0000957Y00825903
G01X-0001Y00823001
G01X-00009999Y0078
G01X-00009494Y00776863
G01X-00008031Y00774042
G01X-00005757Y00771824
G01X-00002901Y0077043
G01X00000018Y0077
G01X00047001Y00770082
G01X00047001Y006959
G01X00047017Y00695801
G01X0Y00695801
G01X-00003137Y00695296
G01X-00005957Y00693833
G01X-00008176Y00691559
G01X-0000957Y00688703
G01X-0001Y00685801
G01X-00009999Y00603001
G01X-00009494Y00599864
G01X-00008031Y00597044
G01X-00005757Y00594825
G01X-00002901Y00593432
G01X00000139Y00593002
G01X00006579Y00593091
G01X00008962Y00592857
G01X00010847Y00592285
G01X00012584Y00591356
G01X00014107Y00590106
G01X00015356Y00588584
G01X00016285Y00586847
G01X00016857Y00584962
G01X0001703Y00583199
G01X00017001Y00583004
G01X00016909Y00122346
G01X00017534Y00114116
G01X00019228Y00106038
G01X00021962Y00098251
G01X00025689Y00090887
G01X00030345Y00084073
G01X00035851Y00077924
G01X00042112Y00072547
G01X00049022Y00068033
G01X00056461Y0006446
G01X00064303Y00061888
G01X00072414Y00060362
G01X00079347Y00059908
G01X00080324Y0006
G01X00530654Y00059908
G01X00538884Y00060533
M16
G00X01141884Y00060533
M15
G01X01149961Y00062227
G01X01157749Y00064961
G01X01165112Y00068687
G01X01171927Y00073344
G01X01178075Y00078849
G01X01183452Y00085111
G01X01187966Y0009202
G01X0119154Y0009946
G01X01194112Y00107302
G01X01195638Y00115413
G01X01196092Y00122346
G01X01196Y00123323
G01X01196092Y00973654
G01X01195467Y00981884
G01X01193773Y00989962
G01X01191039Y00997749
G01X01187312Y01005113
G01X01182656Y01011927
G01X0117715Y01018076
G01X01170889Y01023453
G01X0116398Y01027967
G01X0115654Y0103154
G01X01148698Y01034112
G01X01140587Y01035638
G01X01133654Y01036092
G01X01132676Y01036
G01X00659217Y01036062
G01X00652959Y01035446
G01X00646875Y01033859
G01X00641114Y01031339
G01X00635819Y0102795
G01X00631118Y01023774
G01X00627129Y01018913
G01X0062395Y01013489
G01X00621658Y01007634
G01X0062031Y01001492
G01X00619939Y00996785
G01X00620004Y00995994
G01X00620001Y00995994
G01X00620098Y00843489
G01X00619857Y0084104
G01X00619285Y00839155
G01X00618356Y00837418
G01X00617107Y00835896
G01X00615584Y00834646
G01X00613847Y00833717
G01X00611962Y00833145
G01X00610197Y00832972
G01X00610001Y00833001
G01X00603Y00833001
G01X00599863Y00832496
G01X00597043Y00831033
G01X00594824Y00828758
G01X0059343Y00825903
G01X00593Y00823001
G01X00593001Y0078
G01X00593506Y00776863
G01X00594969Y00774042
G01X00597243Y00771824
G01X00600099Y0077043
G01X00603018Y0077
G01X00650001Y00770082
G01X00650001Y006959
G01X00650017Y00695801
G01X00603Y00695801
G01X00599863Y00695296
G01X00597043Y00693833
G01X00594824Y00691559
G01X0059343Y00688703
G01X00593Y00685801
G01X00593001Y00603001
G01X00593506Y00599864
G01X00594969Y00597044
G01X00597243Y00594825
G01X00600099Y00593432
G01X00603139Y00593002
G01X00609579Y00593091
G01X00611962Y00592857
G01X00613847Y00592285
G01X00615584Y00591356
G01X00617107Y00590106
G01X00618356Y00588584
G01X00619285Y00586847
G01X00619857Y00584962
G01X0062003Y00583199
G01X00620001Y00583004
G01X00619909Y00122346
G01X00620534Y00114116
G01X00622228Y00106038
G01X00624962Y00098251
G01X00628689Y00090887
G01X00633345Y00084073
G01X00638851Y00077924
G01X00645112Y00072547
G01X00652021Y00068033
G01X00659461Y0006446
G01X00667303Y00061888
G01X00675414Y00060362
G01X00682347Y00059908
G01X00683324Y0006
G01X01133654Y00059908
G01X01141884Y00060533
M16
G00X01744884Y00060533
M15
G01X01752961Y00062227
G01X01760748Y00064961
G01X01768112Y00068687
G01X01774927Y00073344
G01X01781075Y00078849
G01X01786452Y00085111
G01X01790966Y0009202
G01X0179454Y0009946
G01X01797111Y00107302
G01X01798638Y00115413
G01X01799092Y00122346
G01X01799Y00123323
G01X01799092Y00973654
G01X01798467Y00981884
G01X01796773Y00989962
G01X01794039Y00997749
G01X01790312Y01005113
G01X01785656Y01011927
G01X0178015Y01018076
G01X01773889Y01023453
G01X0176698Y01027967
G01X0175954Y0103154
G01X01751698Y01034112
G01X01743587Y01035638
G01X01736654Y01036092
G01X01735676Y01036
G01X01262217Y01036062
G01X01255959Y01035446
G01X01249875Y01033859
G01X01244114Y01031339
G01X01238819Y0102795
G01X01234118Y01023774
G01X01230129Y01018913
G01X0122695Y01013489
G01X01224658Y01007634
G01X0122331Y01001492
G01X01222939Y00996785
G01X01223004Y00995994
G01X01223001Y00995994
G01X01223098Y00843489
G01X01222856Y0084104
G01X01222285Y00839155
G01X01221356Y00837418
G01X01220106Y00835896
G01X01218584Y00834646
G01X01216847Y00833717
G01X01214962Y00833145
G01X01213197Y00832972
G01X01213001Y00833001
G01X01206Y00833001
G01X01202863Y00832496
G01X01200042Y00831033
G01X01197824Y00828758
G01X0119643Y00825903
G01X01196Y00823001
G01X01196001Y0078
G01X01196506Y00776863
G01X01197969Y00774042
G01X01200243Y00771824
G01X01203099Y0077043
G01X01206018Y0077
G01X01253001Y00770082
G01X01253001Y006959
G01X01253017Y00695801
G01X01206Y00695801
G01X01202863Y00695296
G01X01200042Y00693833
G01X01197824Y00691559
G01X0119643Y00688703
G01X01196Y00685801
G01X01196001Y00603001
G01X01196506Y00599864
G01X01197969Y00597044
G01X01200243Y00594825
G01X01203099Y00593432
G01X01206139Y00593002
G01X01212579Y00593091
G01X01214962Y00592857
G01X01216847Y00592285
G01X01218584Y00591356
G01X01220106Y00590106
G01X01221356Y00588584
G01X01222285Y00586847
G01X01222856Y00584962
G01X0122303Y00583199
G01X01223001Y00583004
G01X01222909Y00122346
G01X01223534Y00114116
G01X01225228Y00106038
G01X01227962Y00098251
G01X01231689Y00090887
G01X01236345Y00084073
G01X01241851Y00077924
G01X01248112Y00072547
G01X01255021Y00068033
G01X01262461Y0006446
G01X01270303Y00061888
G01X01278414Y00060362
G01X01285347Y00059908
G01X01286324Y0006
G01X01736654Y00059908
G01X01744884Y00060533
M16
M17
M30
