M48
;Layer_Color=9474304
;FILE_FORMAT=4:4
METRIC,LZ
;TYPE=PLATED
T1F00S00C0.2000
T2F00S00C0.3000
;TYPE=NON_PLATED
T4F00S00C0.5000
T5F00S00C0.8000
T6F00S00C0.8890
T8F00S00C2.6000
T9F00S00C3.2000
%
T01
X00347001Y00273
X00950001
X01553001
X01775001Y00598
X01772001Y00613
X01665001Y00584
X01567001Y0063
X01560001Y00624
X01511001Y00636
X01492001Y00627
X01435001Y00624
X01428001Y00629
X01424001Y00635
X01430001Y0064
X01433Y00650999
X01419Y00651999
X01421001Y00645
X01414001Y00657
X01394001Y00726
Y00747
X01429001Y00807
Y00818
X01469001Y00805
X01464001Y008
X01472001Y00793
X01477001Y00788
X01482001Y00783
X01488Y00778999
X01493001Y00774
X01492001Y0069
X01482001Y00696
X01473001Y00691
X01567001Y00682
X01573001Y00696
X01591001Y00699
X01658001Y00809
X01654001Y00815
X01669001Y00816
X01674001Y0081
X01741001Y00801
X01323001Y00761
X01341001Y00741
Y00722
X01323001Y00713
X01285001Y00709
X01277001
X01282001Y00725
X01283001Y00736
X01285001Y00757
X01277001
X01138001Y00801
X01071001Y0081
X01066001Y00816
X01051001Y00815
X01055001Y00809
X00988001Y00699
X00970001Y00696
X00964001Y00682
Y0063
X00957001Y00624
X01062001Y00584
X01172001Y00598
X01169001Y00613
X00908001Y00636
X00889001Y00627
X00832001Y00624
X00825001Y00629
X00821001Y00635
X00827001Y0064
X0083Y00650999
X00816Y00651999
X00818001Y00645
X00811001Y00657
X00791001Y00726
Y00747
X00738001Y00741
Y00722
X00720001Y00713
X00682001Y00709
X00674001
X00679001Y00725
X00680001Y00736
X00682001Y00757
X00674001
X00720001Y00761
X00826001Y00807
Y00818
X00866001Y00805
X00861001Y008
X00869001Y00793
X00874001Y00788
X00879001Y00783
X00885Y00778999
X00890001Y00774
X00889001Y0069
X00879001Y00696
X00870001Y00691
X00566001Y00613
X00569001Y00598
X00459001Y00584
X00361001Y0063
X00354001Y00624
X00305001Y00636
X00286001Y00627
X00229001Y00624
X00222001Y00629
X00218001Y00635
X00224001Y0064
X00227001Y00650999
X00213001Y00651999
X00215001Y00645
X00208001Y00657
X00188001Y00726
Y00747
X00223001Y00807
Y00818
X00263001Y00805
X00258001Y008
X00266001Y00793
X00271001Y00788
X00276001Y00783
X00282Y00778999
X00287001Y00774
X00286001Y0069
X00276001Y00696
X00267001Y00691
X00361001Y00682
X00367001Y00696
X00385001Y00699
X00452001Y00809
X00448001Y00815
X00463001Y00816
X00468001Y0081
X00535001Y00801
X00117001Y00761
X00135001Y00741
Y00722
X00117001Y00713
X00079001Y00709
X00071001
X00076001Y00725
X00077001Y00736
X00079001Y00757
X00071001
X00081001Y00942
X00084001Y0095
X00091001Y00953
X00096001Y00948
X00101001Y00954
X00109001Y00958
X00152001Y00881
X00229001Y0088
X00228001Y00873
X00233001Y00885998
X00227001Y00913
X00228001Y0092
Y00852
X00233001Y00843
X00244001Y0084
X00252001Y00833
X00264001Y00832
X00342001Y00837
X00383001Y00833
X00381001Y00913
X00360001Y00928
X00352001Y00931
X00339001Y00954
X00335001Y00983
X00353001Y00982
X00286001Y00983
X00283001Y00959
X00273001Y00958
X00287001Y00946
X00300001Y0095
X00331001Y00881
X00417001Y00932
X00427001Y00928
X00434001Y00932
X00450001Y0095
X00456001Y00944
X00469001Y00945
X00478001Y00946
X00479001Y00967
X00484001Y00978
X00489001Y00986
X00467001Y00991
X00488001Y00929
X00457001Y00916
X00416001Y00953
X00544001Y00941
X00543001Y00976
X00687001Y0095
X00694001Y00953
X00699001Y00948
X00704001Y00954
X00712001Y00958
X00684001Y00942
X00755001Y00881
X00832001Y0088
X00831001Y00873
X00836Y00885998
X00830001Y00913
X00831001Y0092
Y00852
X00836001Y00843
X00847001Y0084
X00855001Y00833
X00867001Y00832
X00945001Y00837
X00934001Y00881
X00942001Y00954
X00938001Y00983
X00889001
X00886001Y00959
X00876001Y00958
X00890001Y00946
X00903001Y0095
X00955001Y00931
X00963001Y00928
X00984001Y00913
X01020001Y00932
X01030001Y00928
X01037001Y00932
X01053001Y0095
X01059001Y00944
X01072001Y00945
X01081001Y00946
X01082001Y00967
X01087001Y00978
X01092001Y00986
X01070001Y00991
X01091001Y00929
X01060001Y00916
X01019001Y00953
X00956001Y00982
X00986001Y00833
X01147001Y00941
X01146001Y00976
X01290001Y0095
X01297001Y00953
X01302001Y00948
X01307001Y00954
X01315001Y00958
X01287001Y00942
X01358001Y00881
X01435001Y0088
X01434001Y00873
X01439Y00885998
X01433001Y00913
X01434001Y0092
Y00852
X01439001Y00843
X01450001Y0084
X01458001Y00833
X01470001Y00832
X01548001Y00837
X01589001Y00833
X01587001Y00913
X01566001Y00928
X01558001Y00931
X01545001Y00954
X01541001Y00983
X01559001Y00982
X01492001Y00983
X01489001Y00959
X01479001Y00958
X01493001Y00946
X01506001Y0095
X01537001Y00881
X01623001Y00932
X01633001Y00928
X01640001Y00932
X01656001Y0095
X01662001Y00944
X01675001Y00945
X01684001Y00946
X01685001Y00967
X01690001Y00978
X01695001Y00986
X01673001Y00991
X01694001Y00929
X01663001Y00916
X01622001Y00953
X01750001Y00941
X01749001Y00976
T02
X00059001Y00084
X00095001Y0008
X00145001Y00083
X00146001Y00181
X00145001Y0022
X00085001Y0024
Y00191
Y0013
X00037001Y0012
X00035001Y0017
Y0022
Y0027
Y0032
Y0037
Y0041
X00065001Y0042
Y004
X00085001
X00065001Y0038
Y0036
X00085001Y0035
Y0029
X00125001Y0032
X00143001Y00404
X00152001Y00422
X00215001Y00414
Y0039
X00195001
X00265001
X00270001Y0042
X00307001Y00354
X00338001Y00364
X00345001Y0036
X00348001Y0035
X00346001Y0034
X00370001Y00338
X00365001Y00359
X00364001Y00408
X00405001Y00375
X00444001Y00394
Y0041
X00441001Y00337
X00470001Y00358
X00513001Y00363
X00522001Y00347
X00540001Y00355
Y00305
X00521001Y00298
X00524001Y0028
X00540001Y0026
X00520001Y0024
X00517001Y00208
X00502001Y0018
X00526001Y00164
X00512001Y00111
X00495001Y0008
X00545001
X00445001Y00084
X00395001Y0008
X00345001
Y0013
X00356001Y00143
X00377001Y00154
X00342001Y00161
X00336001Y0018
X00324001Y00179
X00322001Y00235
X00317001Y00251
X00326001Y00277
X00344001Y0026
X00367001Y00261
X00368001Y00279
X00344001Y00296
X00336001Y00307
X00323001Y0031
X00265001Y0029
Y0026
X00245001Y0021
X00265001Y00155
X00215001Y0013
X00205001Y0017
X00194001Y0018
X00163001Y00162
X00195001Y0008
X00245001
X00295001
X00318001Y00121
X00420001Y0013
X00441001Y00152
X00408001Y00185
X00378001Y00209
X00444001Y0022
X00441001Y00263
Y0028
X00403001Y00312
X00503001Y00309
X00524001Y00415
X00539001Y00414
X00245001Y0034
X00205001Y00302
X00195001Y0031
Y0026
X00170001Y00285
X00575001Y0028
Y0023
Y0018
Y0013
X00565001Y001
X00640001Y0012
X00638001Y0017
Y0022
Y0027
Y0032
Y0037
Y0041
X00668001Y0042
Y004
X00688001
X00668001Y0038
Y0036
X00688001Y0035
Y0029
Y0024
Y00191
Y0013
X00698001Y0008
X00662001Y00084
X00748001Y00083
X00798001Y0008
X00848001
X00898001
X00948001
Y0013
X00945001Y00161
X00939001Y0018
X00927001Y00179
X00925001Y00235
X00920001Y00251
X00929001Y00277
X00947001Y0026
Y00296
X00939001Y00307
X00926001Y0031
X00949001Y0034
X00951001Y0035
X00948001Y0036
X00941001Y00364
X00910001Y00354
X00848001Y0034
X00868001Y0029
Y0026
X00848001Y0021
X00868001Y00155
X00818001Y0013
X00808001Y0017
X00797001Y0018
X00749001Y00181
X00766001Y00162
X00748001Y0022
X00798001Y0026
X00773001Y00285
X00798001Y0031
X00808001Y00302
X00798001Y0039
X00818001
Y00414
X00873001Y0042
X00868001Y0039
X00746001Y00404
X00755001Y00422
X00728001Y0032
X00575001Y0033
Y0038
X00921001Y00121
X00959001Y00143
X00980001Y00154
X00981001Y00209
X01011001Y00185
X01044001Y00152
X01023001Y0013
X01048001Y00084
X00998001Y0008
X01098001
X01115001Y00111
X01168001Y001
X01148001Y0008
X01178001Y0013
Y0018
Y0023
Y0028
Y0033
Y0038
X01143001Y00355
X01125001Y00347
X01116001Y00363
X01073001Y00358
X01044001Y00337
Y0028
Y00263
X01047001Y0022
X01120001Y00208
X01123001Y0024
X01143001Y0026
X01127001Y0028
X01124001Y00298
X01143001Y00305
X01106001Y00309
X01006001Y00312
X00973001Y00338
X00968001Y00359
X00967001Y00408
X01008001Y00375
X01047001Y00394
Y0041
X01127001Y00415
X01142001Y00414
X01241001Y0041
Y0037
X01271001Y0038
Y004
X01291001
X01271001Y0042
Y0036
X01291001Y0035
Y0029
Y0024
Y00191
Y0013
X01243001Y0012
X01241001Y0017
Y0022
Y0027
Y0032
X01331001
X01349001Y00404
X01301001Y0008
X01265001Y00084
X01129001Y00164
X01105001Y0018
X00970001Y00261
X00971001Y00279
X01376001Y00285
X01401001Y0026
Y0031
X01411001Y00302
X01471001Y0029
Y0026
X01523001Y00251
X01528001Y00235
X01532001Y00277
X01550001Y0026
X01573001Y00261
X01574001Y00279
X01550001Y00296
X01542001Y00307
X01529001Y0031
X01552001Y0034
X01554001Y0035
X01551001Y0036
X01544001Y00364
X01571001Y00359
X01576001Y00338
X01609001Y00312
X01647001Y00337
X01676001Y00358
X01719001Y00363
X01728001Y00347
X01746001Y00355
Y00305
X01727001Y00298
X01730001Y0028
X01746001Y0026
X01726001Y0024
X01723001Y00208
X01708001Y0018
X01732001Y00164
X01718001Y00111
X01701001Y0008
X01651001Y00084
X01601001Y0008
X01551001
Y0013
X01562001Y00143
X01583001Y00154
X01548001Y00161
X01542001Y0018
X01530001Y00179
X01524001Y00121
X01501001Y0008
X01451001
X01401001
X01351001Y00083
X01369001Y00162
X01352001Y00181
X01351001Y0022
X01400001Y0018
X01411001Y0017
X01421001Y0013
X01471001Y00155
X01451001Y0021
Y0034
X01471001Y0039
X01476001Y0042
X01421001Y00414
Y0039
X01401001
X01358001Y00422
X01513001Y00354
X01570001Y00408
X01611001Y00375
X01650001Y00394
Y0041
X01730001Y00415
X01745001Y00414
X01709001Y00309
X01647001Y0028
Y00263
X01650001Y0022
X01614001Y00185
X01584001Y00209
X01647001Y00152
X01626001Y0013
X01781001
X01771001Y001
X01751001Y0008
X01781001Y0018
Y0023
Y0028
Y0033
Y0038
Y0043
X01759001Y00445
X01781001Y0048
X01761001Y00504
X01752001Y00534
X01781001Y0053
Y00585
X01760001Y00566
X01748001Y00593
X01761001Y00607
Y0063
X01781001
Y0068
Y0076
X01771001Y0077
X01781001Y0081
X01737001Y00816
X01711001Y00797
X01703001Y00786
X01667001
X01641001Y00798
X01598001Y00783
X01597001Y00773
X01598001Y00735
X01578001
X01582001Y0072
Y00696
X01556001Y00705
X01537001Y00715
X01506001Y00706
X01461001Y007
X01452001Y00671
X01454001Y00639
X01452001Y00611
Y0058
X01471001Y0055
Y00533
X01451001Y00495
X01423001Y00512
X01395001Y00522
X01389001Y00492
X01403001Y00489
X01419001Y00458
X01411001Y0043
X01354001Y00437
X01369001Y00549
X01356001Y00563
Y006
X01377001
X01384001Y0059
X01402001Y00613
Y00622
X01394001Y00638
X01406001Y00643
X01412001Y0067
X01397001
X01366001Y0066
X01365001Y00646
X01355001Y00667
X01357001Y00677
X01365001Y00701
X01366001Y00732
Y00748
Y00773
X01411001
Y00754
X01394001Y00738
X01395001Y00716
X01402001Y00794
X01432001Y00779
X01455001Y00768
X01468001
X01447001Y00756
X01443001Y00803
X01456001Y00802
X01507001Y00798
X01552001Y008
X01559001Y0079
X01571001Y00788
Y00805
Y0076
X01548001Y00751
X01525001Y0076
X01527001Y00674
X01511001Y0066
X01495001Y00659
X01489001Y00653
X01488001Y0061
X01503001Y00613
X01534001Y00617
X01576001Y00612
X01596001Y006
X01618001Y0058
X01629001Y00565
X01657001
X01656001Y0058
X01671001Y0057
X01679001Y00586
X01680001Y00607
X01679001Y00625
X01701001Y00644
X01721001
X01722001Y00635
Y00626
X01716001Y0063
X01739001Y00645
X01734001Y00697
X01738001Y00712
X01741001Y0076
X01681001Y0075
X01671001Y0071
X01625001Y00724
X01615001Y007
X01621001Y0064
X01570001Y00668
X01551001Y00659
Y0058
X01568001
X01567001Y0052
X01552001Y00525
X01592001Y00533
X01604001Y00542
X01605001Y00503
X01620001Y00492
X01622001Y00472
X01641001Y00482
X01662001Y00478
X01680001
X01678001Y00496
X01712001Y00495
X01715001Y0047
X01719001Y00459
X01711001Y00459
X01707001Y00442
X01728001Y00428
X01745001Y00433
Y00441
Y0045
Y00459
X01744001Y00488
X01733001Y00532
Y00552
X01713001Y00583
X01702001Y00582
X01722001Y00593
X01646001Y00545
X01651001Y00533
X01647001Y00524
X01639001Y00506
X01637001Y0044
X01664001Y00436
X01595001Y00453
X01551001Y0046
X01549001Y00431
X01530001Y00425
X01522001Y00445
X01521001Y0049
X01481001Y0048
X01496001Y00425
X01570001
X01501001Y0058
X01419001Y00554
X01409001Y00555
X01429001Y00658
X01341001Y00646
X01322001
X01323001Y00687
X01333001Y00711
X01347001Y00677
X01281001Y0066
X01280001Y00631
X01277001Y00617
X01280001Y00602
X01281001Y00575
X01271001Y0058
Y0056
Y0054
Y0052
X01273001Y0051
X01271001Y005
Y0048
Y0046
Y0044
X01241001Y0045
Y00485
Y00515
X01251001Y0055
X01287001Y00546
X01285001Y00528
X01300001Y005
X01292001Y00487
X01286001Y00474
X01317001Y00454
X01330001Y00492
X01329001Y00583
X01325001Y006
X01311001Y00568
X01237001Y00602
X01235001Y00632
X01178001Y0063
X01158001
Y00607
X01145001Y00593
X01119001
X01110001Y00583
X01099001Y00582
X01076001Y00586
X01077001Y00607
X01076001Y00625
X01098001Y00644
X01118001
X01119001Y00635
Y00626
X01113001Y0063
X01136001Y00645
X01131001Y00697
X01135001Y00712
X01138001Y0076
X01168001Y0077
X01178001Y0076
Y0081
X01215001Y0081
X01134001Y00816
X01108001Y00797
X01100001Y00786
X01064001
X01038001Y00798
X00995001Y00783
X00994001Y00773
X00995001Y00735
X00975001
X00979001Y0072
Y00696
X01012001Y007
X01022001Y00724
X01068001Y0071
X01078001Y0075
X00968001Y0076
Y00788
X00956001Y0079
X00968001Y00805
X00967001Y00668
X00973001Y00612
X00993001Y006
X01015001Y0058
X01026001Y00565
X01054001
X01053001Y0058
X01068001Y0057
X01043001Y00545
X01048001Y00533
X01044001Y00524
X01036001Y00506
X01038001Y00482
X01059001Y00478
X01077001
X01075001Y00496
X01109001Y00495
X01112001Y0047
X01116001Y00459
X01108001Y00459
X01104001Y00442
X01125001Y00428
X01142001Y00433
Y00441
Y0045
Y00459
X01156001Y00445
X01178001Y0043
Y0048
X01158001Y00504
X01141001Y00488
X01149001Y00534
X01130001Y00532
Y00552
X01157001Y00566
X01178001Y00585
Y0053
Y0068
X01018001Y0064
X00965001Y0058
X00964001Y0052
X00989001Y00533
X01001001Y00542
X01002001Y00503
X01017001Y00492
X01019001Y00472
X00992001Y00453
X00967001Y00425
X01034001Y0044
X01061001Y00436
X01324001Y00771
X01316001Y00783
X01311001Y008
X01321001
X01316001Y00813
X01331001Y0079
X01340001Y00758
X00945001Y00751
X00922001Y0076
X00904001Y00798
X00949001Y008
X00853001Y00802
X00840001Y00803
X00829001Y00779
X00808001Y00773
Y00754
X00791001Y00738
X00792001Y00716
X00762001Y00701
X00763001Y00732
Y00748
Y00773
X00737001Y00758
X00721001Y00771
X00713001Y00783
X00708001Y008
X00718001
X00713001Y00813
X00728001Y0079
X00799001Y00794
X00852001Y00768
X00865001
X00844001Y00756
X00858001Y007
X00849001Y00671
X00851001Y00639
X00849001Y00611
Y0058
X00868001Y0055
Y00533
X00848001Y00495
X00820001Y00512
X00792001Y00522
X00786001Y00492
X00800001Y00489
X00816001Y00458
X00808001Y0043
X00751001Y00437
X00714001Y00454
X00683001Y00474
X00689001Y00487
X00697001Y005
X00668001
X00670001Y0051
X00668001Y0052
Y0054
Y0056
Y0058
X00678001Y00575
X00677001Y00602
X00674001Y00617
X00677001Y00631
X00678001Y0066
X00719001Y00646
X00738001
X00762001
X00763001Y0066
X00752001Y00667
X00754001Y00677
X00744001
X00720001Y00687
X00730001Y00711
X00794001Y0067
X00809001
X00826001Y00658
X00803001Y00643
X00791001Y00638
X00799001Y00622
Y00613
X00774001Y006
X00781001Y0059
X00753001Y006
X00722001
X00726001Y00583
X00708001Y00568
X00684001Y00546
X00682001Y00528
X00648001Y0055
X00638001Y00515
Y00485
Y0045
X00668001Y0046
Y0044
Y0048
X00727001Y00492
X00766001Y00549
X00753001Y00563
X00806001Y00555
X00816001Y00554
X00898001Y0058
X00900001Y00613
X00885001Y0061
X00886001Y00653
X00892001Y00659
X00908001Y0066
X00924001Y00674
X00948001Y00659
X00953001Y00705
X00934001Y00715
X00903001Y00706
X00931001Y00617
X00948001Y0058
X00949001Y00525
X00948001Y0046
X00946001Y00431
X00927001Y00425
X00919001Y00445
X00918001Y0049
X00878001Y0048
X00893001Y00425
X00575001Y0043
Y0048
Y0053
Y00585
Y0063
Y0068
Y0076
X00565001Y0077
X00575001Y0081
X00612001Y0081
X00632001Y00632
X00634001Y00602
X00555001Y00607
Y0063
X00533001Y00645
X00515001Y00644
X00516001Y00635
Y00626
X00510001Y0063
X00495001Y00644
X00473001Y00625
X00474001Y00607
X00473001Y00586
X00465001Y0057
X00451001Y00565
X00450001Y0058
X00412001
X00423001Y00565
X00440001Y00545
X00445001Y00533
X00441001Y00524
X00433001Y00506
X00435001Y00482
X00456001Y00478
X00474001
X00472001Y00496
X00506001Y00495
X00509001Y0047
X00513001Y00459
X00505001Y00459
X00501001Y00442
X00522001Y00428
X00539001Y00433
Y00441
Y0045
Y00459
X00553001Y00445
X00538001Y00488
X00555001Y00504
X00546001Y00534
X00527001Y00532
Y00552
X00554001Y00566
X00542001Y00593
X00516001
X00507001Y00583
X00496001Y00582
X00390001Y006
X00370001Y00612
X00362001Y0058
X00345001
X00295001
X00297001Y00613
X00282001Y0061
X00246001Y00611
X00248001Y00639
X00246001Y00671
X00223001Y00658
X00206001Y0067
X00191001
X00188001Y00638
X00200001Y00643
X00196001Y00622
Y00613
X00171001Y006
X00178001Y0059
X00163001Y00549
X00203001Y00555
X00213001Y00554
X00217001Y00512
X00189001Y00522
X00183001Y00492
X00197001Y00489
X00213001Y00458
X00205001Y0043
X00290001Y00425
X00324001
X00343001Y00431
X00364001Y00425
X00389001Y00453
X00416001Y00472
X00414001Y00492
X00399001Y00503
X00398001Y00542
X00386001Y00533
X00361001Y0052
X00346001Y00525
X00345001Y0046
X00316001Y00445
X00315001Y0049
X00275001Y0048
X00245001Y00495
X00265001Y00533
Y0055
X00246001Y0058
X00283001Y00653
X00289001Y00659
X00305001Y0066
X00321001Y00674
X00345001Y00659
X00364001Y00668
X00376001Y00696
Y0072
X00372001Y00735
X00392001
X00419001Y00724
X00409001Y007
X00350001Y00705
X00331001Y00715
X00300001Y00706
X00255001Y007
X00241001Y00756
X00249001Y00768
X00262001
X00250001Y00802
X00237001Y00803
X00226001Y00779
X00205001Y00773
Y00754
X00188001Y00738
X00189001Y00716
X00196001Y00794
X00301001Y00798
X00346001Y008
X00353001Y0079
X00365001Y00788
Y00805
Y0076
X00342001Y00751
X00319001Y0076
X00391001Y00773
X00392001Y00783
X00435001Y00798
X00461001Y00786
X00497001
X00505001Y00797
X00531001Y00816
X00535001Y0076
X00532001Y00712
X00528001Y00697
X00465001Y0071
X00475001Y0075
X00415001Y0064
X00328001Y00617
X00431001Y0044
X00458001Y00436
X00148001Y00437
X00111001Y00454
X00080001Y00474
X00086001Y00487
X00094001Y005
X00065001
X00067001Y0051
X00065001Y0052
Y0054
Y0056
Y0058
X00075001Y00575
X00074001Y00602
X00071001Y00617
X00074001Y00631
X00075001Y0066
X00116001Y00646
X00135001
X00159001
X00160001Y0066
X00149001Y00667
X00151001Y00677
X00141001
X00117001Y00687
X00127001Y00711
X00159001Y00701
X00160001Y00732
Y00748
Y00773
X00134001Y00758
X00118001Y00771
X00110001Y00783
X00105001Y008
X00115001
X00110001Y00813
X00125001Y0079
X00009001Y0081
X00029001Y00632
X00031001Y00602
X00045001Y0055
X00081001Y00546
X00079001Y00528
X00035001Y00515
Y00485
Y0045
X00065001Y0046
Y0044
Y0048
X00124001Y00492
X00123001Y00583
X00119001Y006
X00150001
Y00563
X00105001Y00568
Y00826
X00115001
X00109001Y00835
X00100001Y00836
X00105001Y00843
X00112001Y00861
X00118001Y00856
Y00867
X00111001Y00875
X00106001Y00887
X00103001Y00901
X00072001Y00907
X00075001Y00926
X00108001Y00939
X00141001Y00946
X00151001Y0096
X00125001Y00965
X00131001Y00983
X00150001Y01018
X00099001Y01019
X00065001Y01017
X00038001Y0099
Y0094
Y0089
Y0086
X00056001Y00859
Y00842
X00075001Y00865
X00084001Y00825
X00029001Y00824
X00153001Y00825
X00157001Y00858
X00144001Y00889
X00142001Y00906
X00157001Y00925
X00182001Y00931
X00190001Y00919
X00187001Y00902
X00183001Y00888
X00180001Y00869
X00170001Y00855
X00204001Y00861
X00202001Y00873
X00201001Y00896
X00202001Y0091
X00198001Y00938
X00216001Y0097
X00229001Y00983
X00238001Y00957
X00251001
X00264001Y00931
X00261001Y00908
X00245001Y0088
X00228001Y00892
X00236001Y00851
X00254001Y00854
X00242001Y00828
X00272001
X00279001Y0084
X00301001Y00868
X00288001Y00886
X00322001Y0089
Y00913
X00325001Y00932
X00299001
X00318001Y00954
X00344001Y00913
X00337001Y00847
X00347001Y00829
X00325001
X00401001Y00832
X00388001Y00846
X00439001Y00854
Y00828
X00462001Y00834
X00473001
X00507001Y00825
X00520001Y00834
X00517001Y00845
X00521001Y00856
X00513001Y00922
Y00931
Y00939
X00515001Y00955
X00527001Y00945
X00535001Y00969
Y00997
X00516001
Y00981
X00509001Y00975
X00475001Y00982
X00487001Y00996
X00439001
X00433001Y00981
X00415001Y0098
X00419001Y00968
X00399001Y00967
X00379001Y00973
X00392001Y00987
X00408001Y00997
X00412001Y01017
X00440001Y01018
X00365001Y01017
X00360001Y00987
X00310001Y01017
X00265001
X00272001Y00984
X00188001Y0098
X00176001Y0101
X00215001Y01017
X00198001Y00832
X00459001Y0096
X00551001Y00954
X00552001Y00992
X00545001Y01015
X00515001Y01017
X00553001Y00899
X00575001Y0091
X00564001Y00924
X00575001Y0096
X00572001Y0098
X00641001Y0099
Y0094
Y0089
Y0086
X00659001Y00859
Y00842
X00678001Y00865
X00715001Y00861
X00721001Y00856
Y00867
X00714001Y00875
X00709001Y00887
X00706001Y00901
X00675001Y00907
X00678001Y00926
X00711001Y00939
X00744001Y00946
X00754001Y0096
X00728001Y00965
X00734001Y00983
X00753001Y01018
X00779001Y0101
X00791001Y0098
X00819001Y0097
X00832001Y00983
X00841001Y00957
X00854001
X00867001Y00931
X00864001Y00908
X00848001Y0088
X00831001Y00892
X00804001Y00896
X00805001Y0091
X00793001Y00919
X00785001Y00931
X00801001Y00938
X00790001Y00902
X00786001Y00888
X00783001Y00869
X00773001Y00855
X00760001Y00858
X00756001Y00825
X00718001Y00826
X00708001
X00712001Y00835
X00703001Y00836
X00708001Y00843
X00687001Y00825
X00632001Y00824
X00575001Y0086
X00747001Y00889
X00745001Y00906
X00760001Y00925
X00805001Y00873
X00807001Y00861
X00801001Y00832
X00845001Y00828
X00839001Y00851
X00857001Y00854
X00882001Y0084
X00875001Y00828
X00928001Y00829
X00950001
X00940001Y00847
X00904001Y00868
X00891001Y00886
X00925001Y0089
Y00913
X00928001Y00932
X00902001
X00921001Y00954
X00947001Y00913
X00913001Y01017
X00868001
X00875001Y00984
X00818001Y01017
X00702001Y01019
X00668001Y01017
X00968001
X00963001Y00987
X00995001
X01011001Y00997
X01018001Y0098
X01022001Y00968
X01002001Y00967
X00982001Y00973
X01036001Y00981
X01042001Y00996
X01043001Y01018
X01015001Y01017
X01090001Y00996
X01078001Y00982
X01062001Y0096
X01118001Y00955
X01116001Y00939
Y00931
Y00922
X01130001Y00945
X01138001Y00969
Y00997
X01119001
Y00981
X01112001Y00975
X01118001Y01017
X01148001Y01015
X01155001Y00992
X01175001Y0098
X01178001Y0096
X01154001Y00954
X01167001Y00924
X01178001Y0091
X01156001Y00899
X01178001Y0086
X01124001Y00856
X01120001Y00845
X01123001Y00834
X01110001Y00825
X01076001Y00834
X01065001
X01042001Y00828
Y00854
X00991001Y00846
X01004001Y00832
X01235001Y00824
X01244001Y0086
X01262001Y00859
Y00842
X01281001Y00865
X01318001Y00861
X01324001Y00856
Y00867
X01317001Y00875
X01312001Y00887
X01309001Y00901
X01278001Y00907
X01281001Y00926
X01314001Y00939
X01347001Y00946
X01331001Y00965
X01337001Y00983
X01305001Y01019
X01271001Y01017
X01244001Y0099
Y0094
Y0089
X01350001Y00889
X01348001Y00906
X01311001Y00843
X01306001Y00836
X01315001Y00835
X01311001Y00826
X01321001
X01290001Y00825
X01359001
X01363001Y00858
X01376001Y00855
X01386001Y00869
X01389001Y00888
X01393001Y00902
X01396001Y00919
X01388001Y00931
X01404001Y00938
X01408001Y0091
X01407001Y00896
X01408001Y00873
X01410001Y00861
X01404001Y00832
X01448001Y00828
X01442001Y00851
X01460001Y00854
X01451001Y0088
X01434001Y00892
X01467001Y00908
X01470001Y00931
X01505001Y00932
X01531001
X01528001Y00913
X01550001
X01528001Y0089
X01494001Y00886
X01507001Y00868
X01485001Y0084
X01478001Y00828
X01531001Y00829
X01553001
X01543001Y00847
X01594001Y00846
X01607001Y00832
X01645001Y00828
Y00854
X01668001Y00834
X01679001
X01713001Y00825
X01726001Y00834
X01723001Y00845
X01727001Y00856
X01719001Y00922
Y00931
Y00939
X01721001Y00955
X01733001Y00945
X01741001Y00969
Y00997
X01722001
Y00981
X01715001Y00975
X01681001Y00982
X01693001Y00996
X01645001
X01639001Y00981
X01621001Y0098
X01625001Y00968
X01605001Y00967
X01585001Y00973
X01598001Y00987
X01614001Y00997
X01618001Y01017
X01646001Y01018
X01571001Y01017
X01566001Y00987
X01524001Y00954
X01457001Y00957
X01444001
X01422001Y0097
X01435001Y00983
X01478001Y00984
X01471001Y01017
X01516001
X01421001
X01382001Y0101
X01356001Y01018
X01357001Y0096
X01363001Y00925
X01394001Y0098
X01665001Y0096
X01721001Y01017
X01751001Y01015
X01758001Y00992
X01778001Y0098
X01781001Y0096
X01757001Y00954
X01770001Y00924
X01781001Y0091
X01759001Y00899
X01781001Y0086
T04
X01788001Y00548
Y00556
Y00564
Y00572
X01233001
Y00564
Y00556
Y00548
X01185001
Y00556
Y00564
Y00572
X00630001
Y00564
Y00556
Y00548
X00582001
Y00556
Y00564
Y00572
X00027001
Y00564
Y00556
Y00548
T05
X01763201Y00723
X01781201
X01178201
X01160201
X00575201
X00557201
T06
X01372841Y004542
X01393161
X01383001Y00505
X00780001
X00790161Y004542
X00769841
X00187161
X00166841
X00177001Y00505
T08
X0015Y0003
X0165
X0015Y0106
X0165
T09
X00534971Y001912
X01137971
X01740971
X00120001Y009162
X00723001
X01326001
M30
