G04 Layer_Color=16776960*
%FSLAX25Y25*%
%MOIN*%
G70*
G01*
G75*
%ADD10C,0.00787*%
%ADD49C,0.00591*%
%ADD52C,0.00984*%
%ADD93C,0.01000*%
D10*
X64961Y200787D02*
X67126D01*
X67717Y175197D02*
X71654D01*
X72245Y200787D02*
X74410D01*
X302362D02*
X304528D01*
X305118Y175197D02*
X309055D01*
X309646Y200787D02*
X311811D01*
X539764D02*
X541929D01*
X542520Y175197D02*
X546457D01*
X547048Y200787D02*
X549213D01*
D49*
X15224Y317716D02*
X16274D01*
X15749D01*
Y315092D01*
X16274Y314567D01*
X16798D01*
X17323Y315092D01*
X14175Y317191D02*
X13650Y317716D01*
X12600D01*
X12076Y317191D01*
Y316666D01*
X12600Y316141D01*
X12076Y315616D01*
Y315092D01*
X12600Y314567D01*
X13650D01*
X14175Y315092D01*
Y315616D01*
X13650Y316141D01*
X14175Y316666D01*
Y317191D01*
X13650Y316141D02*
X12600D01*
X216930Y374410D02*
X215880D01*
X216405D01*
Y377558D01*
X216930Y377033D01*
X214306Y377558D02*
Y375459D01*
X213256Y374410D01*
X212207Y375459D01*
Y377558D01*
X209058D02*
X211157D01*
Y375984D01*
X210108Y376508D01*
X209583D01*
X209058Y375984D01*
Y374934D01*
X209583Y374410D01*
X210632D01*
X211157Y374934D01*
X216930Y366535D02*
X215880D01*
X216405D01*
Y369684D01*
X216930Y369159D01*
X214306Y369684D02*
Y367585D01*
X213256Y366535D01*
X212207Y367585D01*
Y369684D01*
X211157Y369159D02*
X210632Y369684D01*
X209583D01*
X209058Y369159D01*
Y368635D01*
X209583Y368110D01*
X209058Y367585D01*
Y367060D01*
X209583Y366535D01*
X210632D01*
X211157Y367060D01*
Y367585D01*
X210632Y368110D01*
X211157Y368635D01*
Y369159D01*
X210632Y368110D02*
X209583D01*
X215224Y382283D02*
X217323D01*
X215224Y384383D01*
Y384907D01*
X215749Y385432D01*
X216798D01*
X217323Y384907D01*
X214175Y385432D02*
Y383333D01*
X213125Y382283D01*
X212076Y383333D01*
Y385432D01*
X211026Y384907D02*
X210501Y385432D01*
X209452D01*
X208927Y384907D01*
Y384383D01*
X209452Y383858D01*
X208927Y383333D01*
Y382808D01*
X209452Y382283D01*
X210501D01*
X211026Y382808D01*
Y383333D01*
X210501Y383858D01*
X211026Y384383D01*
Y384907D01*
X210501Y383858D02*
X209452D01*
X20736Y142781D02*
X21261Y143306D01*
X22310D01*
X22835Y142781D01*
Y140682D01*
X22310Y140157D01*
X21261D01*
X20736Y140682D01*
Y141732D01*
X21786D01*
X19686Y140157D02*
Y143306D01*
X17587Y140157D01*
Y143306D01*
X16538D02*
Y140157D01*
X14964D01*
X14439Y140682D01*
Y142781D01*
X14964Y143306D01*
X16538D01*
X11815Y140157D02*
Y143306D01*
X13389Y141732D01*
X11290D01*
X215224Y361285D02*
X215749Y361810D01*
X216798D01*
X217323Y361285D01*
Y359186D01*
X216798Y358661D01*
X215749D01*
X215224Y359186D01*
Y360236D01*
X216274D01*
X214175Y358661D02*
Y361810D01*
X212076Y358661D01*
Y361810D01*
X211026D02*
Y358661D01*
X209452D01*
X208927Y359186D01*
Y361285D01*
X209452Y361810D01*
X211026D01*
X21130Y213778D02*
X22179D01*
X21654D01*
Y211155D01*
X22179Y210630D01*
X22704D01*
X23229Y211155D01*
X20080Y210630D02*
X19031D01*
X19555D01*
Y213778D01*
X20080Y213254D01*
X17456Y213778D02*
Y211679D01*
X16407Y210630D01*
X15357Y211679D01*
Y213778D01*
X14308Y213254D02*
X13783Y213778D01*
X12733D01*
X12209Y213254D01*
Y212729D01*
X12733Y212204D01*
X12209Y211679D01*
Y211155D01*
X12733Y210630D01*
X13783D01*
X14308Y211155D01*
Y211679D01*
X13783Y212204D01*
X14308Y212729D01*
Y213254D01*
X13783Y212204D02*
X12733D01*
X20736Y166928D02*
X21786D01*
X21261D01*
Y164304D01*
X21786Y163779D01*
X22310D01*
X22835Y164304D01*
X17587Y166403D02*
X18112Y166928D01*
X19162D01*
X19686Y166403D01*
Y164304D01*
X19162Y163779D01*
X18112D01*
X17587Y164304D01*
Y165354D01*
X18637D01*
X16538Y163779D02*
Y166928D01*
X14439Y163779D01*
Y166928D01*
X13389D02*
Y163779D01*
X11815D01*
X11290Y164304D01*
Y166403D01*
X11815Y166928D01*
X13389D01*
X21130Y174408D02*
X22179D01*
X21654D01*
Y171785D01*
X22179Y171260D01*
X22704D01*
X23229Y171785D01*
X20080Y171260D02*
Y174408D01*
X18506D01*
X17981Y173884D01*
Y172834D01*
X18506Y172309D01*
X20080D01*
X19031D02*
X17981Y171260D01*
X14832Y173884D02*
X15357Y174408D01*
X16407D01*
X16931Y173884D01*
Y173359D01*
X16407Y172834D01*
X15357D01*
X14832Y172309D01*
Y171785D01*
X15357Y171260D01*
X16407D01*
X16931Y171785D01*
X13783Y174408D02*
X11684D01*
X12733D01*
Y171260D01*
X21130Y198424D02*
X22179D01*
X21654D01*
Y195800D01*
X22179Y195276D01*
X22704D01*
X23229Y195800D01*
X17981Y197899D02*
X18506Y198424D01*
X19555D01*
X20080Y197899D01*
Y197375D01*
X19555Y196850D01*
X18506D01*
X17981Y196325D01*
Y195800D01*
X18506Y195276D01*
X19555D01*
X20080Y195800D01*
X16931Y198424D02*
Y195276D01*
X15882Y196325D01*
X14832Y195276D01*
Y198424D01*
X11684Y197899D02*
X12209Y198424D01*
X13258D01*
X13783Y197899D01*
Y195800D01*
X13258Y195276D01*
X12209D01*
X11684Y195800D01*
X21130Y206298D02*
X22179D01*
X21654D01*
Y203674D01*
X22179Y203150D01*
X22704D01*
X23229Y203674D01*
X17981Y205773D02*
X18506Y206298D01*
X19555D01*
X20080Y205773D01*
Y205249D01*
X19555Y204724D01*
X18506D01*
X17981Y204199D01*
Y203674D01*
X18506Y203150D01*
X19555D01*
X20080Y203674D01*
X16931Y206298D02*
Y203150D01*
X15882Y204199D01*
X14832Y203150D01*
Y206298D01*
X13783D02*
Y203150D01*
X12209D01*
X11684Y203674D01*
Y205773D01*
X12209Y206298D01*
X13783D01*
X21130Y182676D02*
X22179D01*
X21654D01*
Y180052D01*
X22179Y179528D01*
X22704D01*
X23229Y180052D01*
X20080Y182676D02*
X17981D01*
X19031D01*
Y179528D01*
X16931Y182676D02*
Y179528D01*
X15357D01*
X14832Y180052D01*
Y182151D01*
X15357Y182676D01*
X16931D01*
X13783D02*
X12733D01*
X13258D01*
Y179528D01*
X13783D01*
X12733D01*
X21130Y190156D02*
X22179D01*
X21654D01*
Y187533D01*
X22179Y187008D01*
X22704D01*
X23229Y187533D01*
X20080Y190156D02*
X17981D01*
X19031D01*
Y187008D01*
X16931Y190156D02*
Y187008D01*
X15357D01*
X14832Y187533D01*
Y189632D01*
X15357Y190156D01*
X16931D01*
X12209D02*
X13258D01*
X13783Y189632D01*
Y187533D01*
X13258Y187008D01*
X12209D01*
X11684Y187533D01*
Y189632D01*
X12209Y190156D01*
X22048Y148031D02*
Y151180D01*
X20473D01*
X19949Y150655D01*
Y149606D01*
X20473Y149081D01*
X22048D01*
X20998D02*
X19949Y148031D01*
X18899Y150131D02*
X16800Y148031D01*
X17850Y149081D01*
X16800Y150131D01*
X18899Y148031D01*
X14176D02*
Y151180D01*
X15750Y149606D01*
X13651D01*
X212862Y345537D02*
X213387Y346062D01*
X214436D01*
X214961Y345537D01*
Y345012D01*
X214436Y344488D01*
X213387D01*
X212862Y343963D01*
Y343438D01*
X213387Y342913D01*
X214436D01*
X214961Y343438D01*
X211812Y346062D02*
Y342913D01*
X210763Y343963D01*
X209713Y342913D01*
Y346062D01*
X22441Y159054D02*
X20342D01*
X21392D01*
Y155905D01*
X19293Y158005D02*
X17194Y155905D01*
X18243Y156955D01*
X17194Y158005D01*
X19293Y155905D01*
X14570D02*
Y159054D01*
X16144Y157480D01*
X14045D01*
X220473Y353936D02*
Y351837D01*
X219423Y350787D01*
X218374Y351837D01*
Y353936D01*
X217324Y353411D02*
X216799Y353936D01*
X215750D01*
X215225Y353411D01*
Y352887D01*
X215750Y352362D01*
X216275D01*
X215750D01*
X215225Y351837D01*
Y351312D01*
X215750Y350787D01*
X216799D01*
X217324Y351312D01*
X214176Y350787D02*
Y353936D01*
X212601D01*
X212077Y353411D01*
Y352362D01*
X212601Y351837D01*
X214176D01*
X211027Y353411D02*
X210502Y353936D01*
X209453D01*
X208928Y353411D01*
Y351312D01*
X209453Y350787D01*
X210502D01*
X211027Y351312D01*
Y353411D01*
X27165Y233071D02*
X25066D01*
X24016Y234120D01*
X25066Y235170D01*
X27165D01*
Y236220D02*
X24016D01*
Y237794D01*
X24541Y238318D01*
X25066D01*
X25590Y237794D01*
Y236220D01*
Y237794D01*
X26115Y238318D01*
X26640D01*
X27165Y237794D01*
Y236220D01*
X24016Y239368D02*
X26115D01*
X27165Y240418D01*
X26115Y241467D01*
X24016D01*
X25590D01*
Y239368D01*
X27165Y242517D02*
Y244616D01*
Y243566D01*
X24016D01*
X21654Y222046D02*
Y219947D01*
X20604Y218898D01*
X19555Y219947D01*
Y222046D01*
X18505D02*
X17456D01*
X17981D01*
Y218898D01*
X18505D01*
X17456D01*
X15881D02*
Y222046D01*
X13782Y218898D01*
Y222046D01*
X42913Y233071D02*
X40814D01*
X39764Y234120D01*
X40814Y235170D01*
X42913D01*
X42388Y238318D02*
X42913Y237794D01*
Y236744D01*
X42388Y236220D01*
X41863D01*
X41339Y236744D01*
Y237794D01*
X40814Y238318D01*
X40289D01*
X39764Y237794D01*
Y236744D01*
X40289Y236220D01*
X42913Y239368D02*
X39764D01*
X40814Y240418D01*
X39764Y241467D01*
X42913D01*
X35039Y233071D02*
X32940D01*
X31890Y234120D01*
X32940Y235170D01*
X35039D01*
X34514Y238318D02*
X35039Y237794D01*
Y236744D01*
X34514Y236220D01*
X33989D01*
X33464Y236744D01*
Y237794D01*
X32940Y238318D01*
X32415D01*
X31890Y237794D01*
Y236744D01*
X32415Y236220D01*
X35039Y239368D02*
X34514D01*
X33464Y240418D01*
X34514Y241467D01*
X35039D01*
X33464Y240418D02*
X31890D01*
X34514Y244616D02*
X35039Y244091D01*
Y243041D01*
X34514Y242517D01*
X33989D01*
X33464Y243041D01*
Y244091D01*
X32940Y244616D01*
X32415D01*
X31890Y244091D01*
Y243041D01*
X32415Y242517D01*
X252626Y317716D02*
X253675D01*
X253150D01*
Y315092D01*
X253675Y314567D01*
X254200D01*
X254725Y315092D01*
X251576Y317191D02*
X251051Y317716D01*
X250002D01*
X249477Y317191D01*
Y316666D01*
X250002Y316141D01*
X249477Y315616D01*
Y315092D01*
X250002Y314567D01*
X251051D01*
X251576Y315092D01*
Y315616D01*
X251051Y316141D01*
X251576Y316666D01*
Y317191D01*
X251051Y316141D02*
X250002D01*
X454331Y374410D02*
X453281D01*
X453806D01*
Y377558D01*
X454331Y377033D01*
X451707Y377558D02*
Y375459D01*
X450658Y374410D01*
X449608Y375459D01*
Y377558D01*
X446460D02*
X448559D01*
Y375984D01*
X447509Y376508D01*
X446984D01*
X446460Y375984D01*
Y374934D01*
X446984Y374410D01*
X448034D01*
X448559Y374934D01*
X454331Y366535D02*
X453281D01*
X453806D01*
Y369684D01*
X454331Y369159D01*
X451707Y369684D02*
Y367585D01*
X450658Y366535D01*
X449608Y367585D01*
Y369684D01*
X448559Y369159D02*
X448034Y369684D01*
X446984D01*
X446460Y369159D01*
Y368635D01*
X446984Y368110D01*
X446460Y367585D01*
Y367060D01*
X446984Y366535D01*
X448034D01*
X448559Y367060D01*
Y367585D01*
X448034Y368110D01*
X448559Y368635D01*
Y369159D01*
X448034Y368110D02*
X446984D01*
X452626Y382283D02*
X454725D01*
X452626Y384383D01*
Y384907D01*
X453150Y385432D01*
X454200D01*
X454725Y384907D01*
X451576Y385432D02*
Y383333D01*
X450527Y382283D01*
X449477Y383333D01*
Y385432D01*
X448428Y384907D02*
X447903Y385432D01*
X446853D01*
X446328Y384907D01*
Y384383D01*
X446853Y383858D01*
X446328Y383333D01*
Y382808D01*
X446853Y382283D01*
X447903D01*
X448428Y382808D01*
Y383333D01*
X447903Y383858D01*
X448428Y384383D01*
Y384907D01*
X447903Y383858D02*
X446853D01*
X258137Y142781D02*
X258662Y143306D01*
X259712D01*
X260237Y142781D01*
Y140682D01*
X259712Y140157D01*
X258662D01*
X258137Y140682D01*
Y141732D01*
X259187D01*
X257088Y140157D02*
Y143306D01*
X254989Y140157D01*
Y143306D01*
X253939D02*
Y140157D01*
X252365D01*
X251840Y140682D01*
Y142781D01*
X252365Y143306D01*
X253939D01*
X249217Y140157D02*
Y143306D01*
X250791Y141732D01*
X248692D01*
X452626Y361285D02*
X453150Y361810D01*
X454200D01*
X454725Y361285D01*
Y359186D01*
X454200Y358661D01*
X453150D01*
X452626Y359186D01*
Y360236D01*
X453675D01*
X451576Y358661D02*
Y361810D01*
X449477Y358661D01*
Y361810D01*
X448427D02*
Y358661D01*
X446853D01*
X446328Y359186D01*
Y361285D01*
X446853Y361810D01*
X448427D01*
X258531Y213778D02*
X259581D01*
X259056D01*
Y211155D01*
X259581Y210630D01*
X260105D01*
X260630Y211155D01*
X257482Y210630D02*
X256432D01*
X256957D01*
Y213778D01*
X257482Y213254D01*
X254858Y213778D02*
Y211679D01*
X253808Y210630D01*
X252759Y211679D01*
Y213778D01*
X251709Y213254D02*
X251185Y213778D01*
X250135D01*
X249610Y213254D01*
Y212729D01*
X250135Y212204D01*
X249610Y211679D01*
Y211155D01*
X250135Y210630D01*
X251185D01*
X251709Y211155D01*
Y211679D01*
X251185Y212204D01*
X251709Y212729D01*
Y213254D01*
X251185Y212204D02*
X250135D01*
X258137Y166928D02*
X259187D01*
X258662D01*
Y164304D01*
X259187Y163779D01*
X259712D01*
X260237Y164304D01*
X254989Y166403D02*
X255514Y166928D01*
X256563D01*
X257088Y166403D01*
Y164304D01*
X256563Y163779D01*
X255514D01*
X254989Y164304D01*
Y165354D01*
X256038D01*
X253939Y163779D02*
Y166928D01*
X251840Y163779D01*
Y166928D01*
X250791D02*
Y163779D01*
X249217D01*
X248692Y164304D01*
Y166403D01*
X249217Y166928D01*
X250791D01*
X258531Y174408D02*
X259581D01*
X259056D01*
Y171785D01*
X259581Y171260D01*
X260105D01*
X260630Y171785D01*
X257482Y171260D02*
Y174408D01*
X255907D01*
X255383Y173884D01*
Y172834D01*
X255907Y172309D01*
X257482D01*
X256432D02*
X255383Y171260D01*
X252234Y173884D02*
X252759Y174408D01*
X253808D01*
X254333Y173884D01*
Y173359D01*
X253808Y172834D01*
X252759D01*
X252234Y172309D01*
Y171785D01*
X252759Y171260D01*
X253808D01*
X254333Y171785D01*
X251185Y174408D02*
X249085D01*
X250135D01*
Y171260D01*
X258531Y198424D02*
X259581D01*
X259056D01*
Y195800D01*
X259581Y195276D01*
X260105D01*
X260630Y195800D01*
X255383Y197899D02*
X255907Y198424D01*
X256957D01*
X257482Y197899D01*
Y197375D01*
X256957Y196850D01*
X255907D01*
X255383Y196325D01*
Y195800D01*
X255907Y195276D01*
X256957D01*
X257482Y195800D01*
X254333Y198424D02*
Y195276D01*
X253284Y196325D01*
X252234Y195276D01*
Y198424D01*
X249085Y197899D02*
X249610Y198424D01*
X250660D01*
X251185Y197899D01*
Y195800D01*
X250660Y195276D01*
X249610D01*
X249085Y195800D01*
X258531Y206298D02*
X259581D01*
X259056D01*
Y203674D01*
X259581Y203150D01*
X260105D01*
X260630Y203674D01*
X255383Y205773D02*
X255907Y206298D01*
X256957D01*
X257482Y205773D01*
Y205249D01*
X256957Y204724D01*
X255907D01*
X255383Y204199D01*
Y203674D01*
X255907Y203150D01*
X256957D01*
X257482Y203674D01*
X254333Y206298D02*
Y203150D01*
X253284Y204199D01*
X252234Y203150D01*
Y206298D01*
X251185D02*
Y203150D01*
X249610D01*
X249085Y203674D01*
Y205773D01*
X249610Y206298D01*
X251185D01*
X258531Y182676D02*
X259581D01*
X259056D01*
Y180052D01*
X259581Y179528D01*
X260105D01*
X260630Y180052D01*
X257482Y182676D02*
X255383D01*
X256432D01*
Y179528D01*
X254333Y182676D02*
Y179528D01*
X252759D01*
X252234Y180052D01*
Y182151D01*
X252759Y182676D01*
X254333D01*
X251185D02*
X250135D01*
X250660D01*
Y179528D01*
X251185D01*
X250135D01*
X258531Y190156D02*
X259581D01*
X259056D01*
Y187533D01*
X259581Y187008D01*
X260105D01*
X260630Y187533D01*
X257482Y190156D02*
X255383D01*
X256432D01*
Y187008D01*
X254333Y190156D02*
Y187008D01*
X252759D01*
X252234Y187533D01*
Y189632D01*
X252759Y190156D01*
X254333D01*
X249610D02*
X250660D01*
X251185Y189632D01*
Y187533D01*
X250660Y187008D01*
X249610D01*
X249085Y187533D01*
Y189632D01*
X249610Y190156D01*
X259449Y148031D02*
Y151180D01*
X257875D01*
X257350Y150655D01*
Y149606D01*
X257875Y149081D01*
X259449D01*
X258400D02*
X257350Y148031D01*
X256301Y150131D02*
X254202Y148031D01*
X255251Y149081D01*
X254202Y150131D01*
X256301Y148031D01*
X251578D02*
Y151180D01*
X253152Y149606D01*
X251053D01*
X450264Y345537D02*
X450788Y346062D01*
X451838D01*
X452362Y345537D01*
Y345012D01*
X451838Y344488D01*
X450788D01*
X450264Y343963D01*
Y343438D01*
X450788Y342913D01*
X451838D01*
X452362Y343438D01*
X449214Y346062D02*
Y342913D01*
X448164Y343963D01*
X447115Y342913D01*
Y346062D01*
X259843Y159054D02*
X257744D01*
X258793D01*
Y155905D01*
X256694Y158005D02*
X254595Y155905D01*
X255645Y156955D01*
X254595Y158005D01*
X256694Y155905D01*
X251971D02*
Y159054D01*
X253546Y157480D01*
X251447D01*
X457874Y353936D02*
Y351837D01*
X456825Y350787D01*
X455775Y351837D01*
Y353936D01*
X454726Y353411D02*
X454201Y353936D01*
X453152D01*
X452627Y353411D01*
Y352887D01*
X453152Y352362D01*
X453676D01*
X453152D01*
X452627Y351837D01*
Y351312D01*
X453152Y350787D01*
X454201D01*
X454726Y351312D01*
X451577Y350787D02*
Y353936D01*
X450003D01*
X449478Y353411D01*
Y352362D01*
X450003Y351837D01*
X451577D01*
X448429Y353411D02*
X447904Y353936D01*
X446854D01*
X446329Y353411D01*
Y351312D01*
X446854Y350787D01*
X447904D01*
X448429Y351312D01*
Y353411D01*
X264566Y233071D02*
X262467D01*
X261418Y234120D01*
X262467Y235170D01*
X264566D01*
Y236220D02*
X261418D01*
Y237794D01*
X261942Y238318D01*
X262467D01*
X262992Y237794D01*
Y236220D01*
Y237794D01*
X263517Y238318D01*
X264041D01*
X264566Y237794D01*
Y236220D01*
X261418Y239368D02*
X263517D01*
X264566Y240418D01*
X263517Y241467D01*
X261418D01*
X262992D01*
Y239368D01*
X264566Y242517D02*
Y244616D01*
Y243566D01*
X261418D01*
X259055Y222046D02*
Y219947D01*
X258006Y218898D01*
X256956Y219947D01*
Y222046D01*
X255907D02*
X254857D01*
X255382D01*
Y218898D01*
X255907D01*
X254857D01*
X253283D02*
Y222046D01*
X251184Y218898D01*
Y222046D01*
X280314Y233071D02*
X278215D01*
X277166Y234120D01*
X278215Y235170D01*
X280314D01*
X279789Y238318D02*
X280314Y237794D01*
Y236744D01*
X279789Y236220D01*
X279265D01*
X278740Y236744D01*
Y237794D01*
X278215Y238318D01*
X277691D01*
X277166Y237794D01*
Y236744D01*
X277691Y236220D01*
X280314Y239368D02*
X277166D01*
X278215Y240418D01*
X277166Y241467D01*
X280314D01*
X272440Y233071D02*
X270341D01*
X269292Y234120D01*
X270341Y235170D01*
X272440D01*
X271916Y238318D02*
X272440Y237794D01*
Y236744D01*
X271916Y236220D01*
X271391D01*
X270866Y236744D01*
Y237794D01*
X270341Y238318D01*
X269816D01*
X269292Y237794D01*
Y236744D01*
X269816Y236220D01*
X272440Y239368D02*
X271916D01*
X270866Y240418D01*
X271916Y241467D01*
X272440D01*
X270866Y240418D02*
X269292D01*
X271916Y244616D02*
X272440Y244091D01*
Y243041D01*
X271916Y242517D01*
X271391D01*
X270866Y243041D01*
Y244091D01*
X270341Y244616D01*
X269816D01*
X269292Y244091D01*
Y243041D01*
X269816Y242517D01*
X490027Y317716D02*
X491077D01*
X490552D01*
Y315092D01*
X491077Y314567D01*
X491602D01*
X492126Y315092D01*
X488978Y317191D02*
X488453Y317716D01*
X487403D01*
X486879Y317191D01*
Y316666D01*
X487403Y316141D01*
X486879Y315616D01*
Y315092D01*
X487403Y314567D01*
X488453D01*
X488978Y315092D01*
Y315616D01*
X488453Y316141D01*
X488978Y316666D01*
Y317191D01*
X488453Y316141D02*
X487403D01*
X691733Y374410D02*
X690683D01*
X691208D01*
Y377558D01*
X691733Y377033D01*
X689109Y377558D02*
Y375459D01*
X688059Y374410D01*
X687010Y375459D01*
Y377558D01*
X683861D02*
X685960D01*
Y375984D01*
X684911Y376508D01*
X684386D01*
X683861Y375984D01*
Y374934D01*
X684386Y374410D01*
X685435D01*
X685960Y374934D01*
X691733Y366535D02*
X690683D01*
X691208D01*
Y369684D01*
X691733Y369159D01*
X689109Y369684D02*
Y367585D01*
X688059Y366535D01*
X687010Y367585D01*
Y369684D01*
X685960Y369159D02*
X685435Y369684D01*
X684386D01*
X683861Y369159D01*
Y368635D01*
X684386Y368110D01*
X683861Y367585D01*
Y367060D01*
X684386Y366535D01*
X685435D01*
X685960Y367060D01*
Y367585D01*
X685435Y368110D01*
X685960Y368635D01*
Y369159D01*
X685435Y368110D02*
X684386D01*
X690027Y382283D02*
X692126D01*
X690027Y384383D01*
Y384907D01*
X690552Y385432D01*
X691602D01*
X692126Y384907D01*
X688978Y385432D02*
Y383333D01*
X687928Y382283D01*
X686879Y383333D01*
Y385432D01*
X685829Y384907D02*
X685304Y385432D01*
X684255D01*
X683730Y384907D01*
Y384383D01*
X684255Y383858D01*
X683730Y383333D01*
Y382808D01*
X684255Y382283D01*
X685304D01*
X685829Y382808D01*
Y383333D01*
X685304Y383858D01*
X685829Y384383D01*
Y384907D01*
X685304Y383858D02*
X684255D01*
X495539Y142781D02*
X496064Y143306D01*
X497113D01*
X497638Y142781D01*
Y140682D01*
X497113Y140157D01*
X496064D01*
X495539Y140682D01*
Y141732D01*
X496589D01*
X494489Y140157D02*
Y143306D01*
X492390Y140157D01*
Y143306D01*
X491341D02*
Y140157D01*
X489767D01*
X489242Y140682D01*
Y142781D01*
X489767Y143306D01*
X491341D01*
X486618Y140157D02*
Y143306D01*
X488192Y141732D01*
X486093D01*
X690027Y361285D02*
X690552Y361810D01*
X691602D01*
X692126Y361285D01*
Y359186D01*
X691602Y358661D01*
X690552D01*
X690027Y359186D01*
Y360236D01*
X691077D01*
X688978Y358661D02*
Y361810D01*
X686879Y358661D01*
Y361810D01*
X685829D02*
Y358661D01*
X684255D01*
X683730Y359186D01*
Y361285D01*
X684255Y361810D01*
X685829D01*
X495933Y213778D02*
X496982D01*
X496457D01*
Y211155D01*
X496982Y210630D01*
X497507D01*
X498032Y211155D01*
X494883Y210630D02*
X493834D01*
X494358D01*
Y213778D01*
X494883Y213254D01*
X492259Y213778D02*
Y211679D01*
X491210Y210630D01*
X490160Y211679D01*
Y213778D01*
X489111Y213254D02*
X488586Y213778D01*
X487536D01*
X487012Y213254D01*
Y212729D01*
X487536Y212204D01*
X487012Y211679D01*
Y211155D01*
X487536Y210630D01*
X488586D01*
X489111Y211155D01*
Y211679D01*
X488586Y212204D01*
X489111Y212729D01*
Y213254D01*
X488586Y212204D02*
X487536D01*
X495539Y166928D02*
X496589D01*
X496064D01*
Y164304D01*
X496589Y163779D01*
X497113D01*
X497638Y164304D01*
X492390Y166403D02*
X492915Y166928D01*
X493965D01*
X494489Y166403D01*
Y164304D01*
X493965Y163779D01*
X492915D01*
X492390Y164304D01*
Y165354D01*
X493440D01*
X491341Y163779D02*
Y166928D01*
X489242Y163779D01*
Y166928D01*
X488192D02*
Y163779D01*
X486618D01*
X486093Y164304D01*
Y166403D01*
X486618Y166928D01*
X488192D01*
X495933Y174408D02*
X496982D01*
X496457D01*
Y171785D01*
X496982Y171260D01*
X497507D01*
X498032Y171785D01*
X494883Y171260D02*
Y174408D01*
X493309D01*
X492784Y173884D01*
Y172834D01*
X493309Y172309D01*
X494883D01*
X493834D02*
X492784Y171260D01*
X489636Y173884D02*
X490160Y174408D01*
X491210D01*
X491735Y173884D01*
Y173359D01*
X491210Y172834D01*
X490160D01*
X489636Y172309D01*
Y171785D01*
X490160Y171260D01*
X491210D01*
X491735Y171785D01*
X488586Y174408D02*
X486487D01*
X487536D01*
Y171260D01*
X495933Y198424D02*
X496982D01*
X496457D01*
Y195800D01*
X496982Y195276D01*
X497507D01*
X498032Y195800D01*
X492784Y197899D02*
X493309Y198424D01*
X494358D01*
X494883Y197899D01*
Y197375D01*
X494358Y196850D01*
X493309D01*
X492784Y196325D01*
Y195800D01*
X493309Y195276D01*
X494358D01*
X494883Y195800D01*
X491735Y198424D02*
Y195276D01*
X490685Y196325D01*
X489636Y195276D01*
Y198424D01*
X486487Y197899D02*
X487012Y198424D01*
X488061D01*
X488586Y197899D01*
Y195800D01*
X488061Y195276D01*
X487012D01*
X486487Y195800D01*
X495933Y206298D02*
X496982D01*
X496457D01*
Y203674D01*
X496982Y203150D01*
X497507D01*
X498032Y203674D01*
X492784Y205773D02*
X493309Y206298D01*
X494358D01*
X494883Y205773D01*
Y205249D01*
X494358Y204724D01*
X493309D01*
X492784Y204199D01*
Y203674D01*
X493309Y203150D01*
X494358D01*
X494883Y203674D01*
X491735Y206298D02*
Y203150D01*
X490685Y204199D01*
X489636Y203150D01*
Y206298D01*
X488586D02*
Y203150D01*
X487012D01*
X486487Y203674D01*
Y205773D01*
X487012Y206298D01*
X488586D01*
X495933Y182676D02*
X496982D01*
X496457D01*
Y180052D01*
X496982Y179528D01*
X497507D01*
X498032Y180052D01*
X494883Y182676D02*
X492784D01*
X493834D01*
Y179528D01*
X491735Y182676D02*
Y179528D01*
X490160D01*
X489636Y180052D01*
Y182151D01*
X490160Y182676D01*
X491735D01*
X488586D02*
X487536D01*
X488061D01*
Y179528D01*
X488586D01*
X487536D01*
X495933Y190156D02*
X496982D01*
X496457D01*
Y187533D01*
X496982Y187008D01*
X497507D01*
X498032Y187533D01*
X494883Y190156D02*
X492784D01*
X493834D01*
Y187008D01*
X491735Y190156D02*
Y187008D01*
X490160D01*
X489636Y187533D01*
Y189632D01*
X490160Y190156D01*
X491735D01*
X487012D02*
X488061D01*
X488586Y189632D01*
Y187533D01*
X488061Y187008D01*
X487012D01*
X486487Y187533D01*
Y189632D01*
X487012Y190156D01*
X496851Y148031D02*
Y151180D01*
X495276D01*
X494752Y150655D01*
Y149606D01*
X495276Y149081D01*
X496851D01*
X495801D02*
X494752Y148031D01*
X493702Y150131D02*
X491603Y148031D01*
X492653Y149081D01*
X491603Y150131D01*
X493702Y148031D01*
X488979D02*
Y151180D01*
X490554Y149606D01*
X488454D01*
X687665Y345537D02*
X688190Y346062D01*
X689239D01*
X689764Y345537D01*
Y345012D01*
X689239Y344488D01*
X688190D01*
X687665Y343963D01*
Y343438D01*
X688190Y342913D01*
X689239D01*
X689764Y343438D01*
X686616Y346062D02*
Y342913D01*
X685566Y343963D01*
X684516Y342913D01*
Y346062D01*
X497244Y159054D02*
X495145D01*
X496195D01*
Y155905D01*
X494096Y158005D02*
X491997Y155905D01*
X493046Y156955D01*
X491997Y158005D01*
X494096Y155905D01*
X489373D02*
Y159054D01*
X490947Y157480D01*
X488848D01*
X695276Y353936D02*
Y351837D01*
X694226Y350787D01*
X693177Y351837D01*
Y353936D01*
X692127Y353411D02*
X691603Y353936D01*
X690553D01*
X690028Y353411D01*
Y352887D01*
X690553Y352362D01*
X691078D01*
X690553D01*
X690028Y351837D01*
Y351312D01*
X690553Y350787D01*
X691603D01*
X692127Y351312D01*
X688979Y350787D02*
Y353936D01*
X687404D01*
X686880Y353411D01*
Y352362D01*
X687404Y351837D01*
X688979D01*
X685830Y353411D02*
X685305Y353936D01*
X684256D01*
X683731Y353411D01*
Y351312D01*
X684256Y350787D01*
X685305D01*
X685830Y351312D01*
Y353411D01*
X501968Y233071D02*
X499869D01*
X498819Y234120D01*
X499869Y235170D01*
X501968D01*
Y236220D02*
X498819D01*
Y237794D01*
X499344Y238318D01*
X499869D01*
X500393Y237794D01*
Y236220D01*
Y237794D01*
X500918Y238318D01*
X501443D01*
X501968Y237794D01*
Y236220D01*
X498819Y239368D02*
X500918D01*
X501968Y240418D01*
X500918Y241467D01*
X498819D01*
X500393D01*
Y239368D01*
X501968Y242517D02*
Y244616D01*
Y243566D01*
X498819D01*
X496457Y222046D02*
Y219947D01*
X495407Y218898D01*
X494358Y219947D01*
Y222046D01*
X493308D02*
X492259D01*
X492784D01*
Y218898D01*
X493308D01*
X492259D01*
X490685D02*
Y222046D01*
X488586Y218898D01*
Y222046D01*
X517716Y233071D02*
X515617D01*
X514567Y234120D01*
X515617Y235170D01*
X517716D01*
X517191Y238318D02*
X517716Y237794D01*
Y236744D01*
X517191Y236220D01*
X516666D01*
X516142Y236744D01*
Y237794D01*
X515617Y238318D01*
X515092D01*
X514567Y237794D01*
Y236744D01*
X515092Y236220D01*
X517716Y239368D02*
X514567D01*
X515617Y240418D01*
X514567Y241467D01*
X517716D01*
X509842Y233071D02*
X507743D01*
X506693Y234120D01*
X507743Y235170D01*
X509842D01*
X509317Y238318D02*
X509842Y237794D01*
Y236744D01*
X509317Y236220D01*
X508792D01*
X508267Y236744D01*
Y237794D01*
X507743Y238318D01*
X507218D01*
X506693Y237794D01*
Y236744D01*
X507218Y236220D01*
X509842Y239368D02*
X509317D01*
X508267Y240418D01*
X509317Y241467D01*
X509842D01*
X508267Y240418D02*
X506693D01*
X509317Y244616D02*
X509842Y244091D01*
Y243041D01*
X509317Y242517D01*
X508792D01*
X508267Y243041D01*
Y244091D01*
X507743Y244616D01*
X507218D01*
X506693Y244091D01*
Y243041D01*
X507218Y242517D01*
D52*
X19685Y247637D02*
Y245013D01*
X18373Y243701D01*
X17062Y245013D01*
Y247637D01*
X15750D02*
Y243701D01*
X13782D01*
X13126Y244357D01*
Y245013D01*
X13782Y245669D01*
X15750D01*
X13782D01*
X13126Y246325D01*
Y246981D01*
X13782Y247637D01*
X15750D01*
X11814Y243701D02*
Y246325D01*
X10502Y247637D01*
X9190Y246325D01*
Y243701D01*
Y245669D01*
X11814D01*
X7878Y247637D02*
X5254D01*
X6566D01*
Y243701D01*
X257087Y247637D02*
Y245013D01*
X255775Y243701D01*
X254463Y245013D01*
Y247637D01*
X253151D02*
Y243701D01*
X251183D01*
X250527Y244357D01*
Y245013D01*
X251183Y245669D01*
X253151D01*
X251183D01*
X250527Y246325D01*
Y246981D01*
X251183Y247637D01*
X253151D01*
X249216Y243701D02*
Y246325D01*
X247903Y247637D01*
X246592Y246325D01*
Y243701D01*
Y245669D01*
X249216D01*
X245280Y247637D02*
X242656D01*
X243968D01*
Y243701D01*
X494488Y247637D02*
Y245013D01*
X493177Y243701D01*
X491865Y245013D01*
Y247637D01*
X490553D02*
Y243701D01*
X488585D01*
X487929Y244357D01*
Y245013D01*
X488585Y245669D01*
X490553D01*
X488585D01*
X487929Y246325D01*
Y246981D01*
X488585Y247637D01*
X490553D01*
X486617Y243701D02*
Y246325D01*
X485305Y247637D01*
X483993Y246325D01*
Y243701D01*
Y245669D01*
X486617D01*
X482681Y247637D02*
X480057D01*
X481369D01*
Y243701D01*
D93*
X28347Y133858D02*
G03*
X28347Y133858I-2362J0D01*
G01*
X394Y307480D02*
Y308661D01*
X1575D01*
X394Y268504D02*
Y269685D01*
Y268504D02*
X1575D01*
X10630Y308661D02*
X17717D01*
X10630Y268504D02*
X17717D01*
X25197Y268898D02*
Y273622D01*
Y303543D02*
Y308268D01*
Y303543D02*
X27953D01*
X25197Y273622D02*
X27953D01*
X24803Y133858D02*
X27166D01*
X18504Y237795D02*
Y240551D01*
X16929Y242126D02*
X18504Y240551D01*
X41733Y201551D02*
X56693D01*
X57874Y207063D02*
Y212575D01*
X40551Y206669D02*
Y212181D01*
X41733Y218087D02*
X56693D01*
X112599Y218087D02*
X127559D01*
X111418Y207063D02*
Y212575D01*
X128741Y207457D02*
Y212968D01*
X112599Y201551D02*
X127559D01*
X183465Y218087D02*
X198426D01*
X182284Y207063D02*
X182284Y212575D01*
X199607Y212968D02*
X199607Y207457D01*
X183465Y201551D02*
X198426D01*
X41733Y150370D02*
X56693D01*
X57874Y155882D02*
Y161394D01*
X40551Y155488D02*
Y161000D01*
X41733Y166905D02*
X56693D01*
X112599Y150370D02*
X127559D01*
X128741Y155882D02*
Y161394D01*
X111418Y155488D02*
Y161000D01*
X112599Y166905D02*
X127559D01*
X183071Y166905D02*
X198032D01*
X181890Y155882D02*
Y161394D01*
X199213Y156276D02*
Y161787D01*
X183071Y150370D02*
X198032D01*
X183544Y99189D02*
X198505D01*
X199686Y104701D02*
Y110213D01*
X182363Y104307D02*
Y109819D01*
X183544Y115724D02*
X198505D01*
X112599Y99189D02*
X127559D01*
X128741Y104701D02*
Y110213D01*
X111418Y104307D02*
Y109819D01*
X112599Y115724D02*
X127559D01*
X41733Y99189D02*
X56693D01*
X57874Y104701D02*
Y110213D01*
X40551Y104307D02*
Y109819D01*
X41733Y115724D02*
X56693D01*
X41733Y48008D02*
X56693D01*
X57874Y53520D02*
Y59032D01*
X40551Y53126D02*
Y58638D01*
X41733Y64544D02*
X56693D01*
X112599Y48008D02*
X127559D01*
X128740Y53520D02*
Y59032D01*
X111417Y53126D02*
Y58638D01*
X112599Y64544D02*
X127559D01*
X183465Y64544D02*
X198425D01*
X182283Y53520D02*
Y59032D01*
X199606Y53914D02*
Y59426D01*
X183465Y48008D02*
X198425D01*
X194821Y227439D02*
X195820Y228439D01*
X197820D01*
X198819Y227439D01*
Y226440D01*
X197820Y225440D01*
X195820D01*
X194821Y224440D01*
Y223441D01*
X195820Y222441D01*
X197820D01*
X198819Y223441D01*
X192821Y222441D02*
X190822D01*
X191822D01*
Y228439D01*
X192821Y227439D01*
X187823Y222441D02*
X185824D01*
X186823D01*
Y228439D01*
X187823Y227439D01*
X123954Y176258D02*
X124954Y177258D01*
X126953D01*
X127953Y176258D01*
Y175259D01*
X126953Y174259D01*
X124954D01*
X123954Y173259D01*
Y172259D01*
X124954Y171260D01*
X126953D01*
X127953Y172259D01*
X121955Y176258D02*
X120955Y177258D01*
X118956D01*
X117956Y176258D01*
Y175259D01*
X118956Y174259D01*
X117956Y173259D01*
Y172259D01*
X118956Y171260D01*
X120955D01*
X121955Y172259D01*
Y173259D01*
X120955Y174259D01*
X121955Y175259D01*
Y176258D01*
X120955Y174259D02*
X118956D01*
X53088Y176258D02*
X54088Y177258D01*
X56087D01*
X57087Y176258D01*
Y175259D01*
X56087Y174259D01*
X54088D01*
X53088Y173259D01*
Y172259D01*
X54088Y171260D01*
X56087D01*
X57087Y172259D01*
X47090Y171260D02*
X51089D01*
X47090Y175259D01*
Y176258D01*
X48090Y177258D01*
X50089D01*
X51089Y176258D01*
X194821Y125077D02*
X195820Y126077D01*
X197820D01*
X198819Y125077D01*
Y124077D01*
X197820Y123078D01*
X195820D01*
X194821Y122078D01*
Y121078D01*
X195820Y120079D01*
X197820D01*
X198819Y121078D01*
X192821Y120079D02*
X190822D01*
X191822D01*
Y126077D01*
X192821Y125077D01*
X187823D02*
X186823Y126077D01*
X184824D01*
X183824Y125077D01*
Y124077D01*
X184824Y123078D01*
X185824D01*
X184824D01*
X183824Y122078D01*
Y121078D01*
X184824Y120079D01*
X186823D01*
X187823Y121078D01*
X123954Y125077D02*
X124954Y126077D01*
X126953D01*
X127953Y125077D01*
Y124077D01*
X126953Y123078D01*
X124954D01*
X123954Y122078D01*
Y121078D01*
X124954Y120079D01*
X126953D01*
X127953Y121078D01*
X121955D02*
X120955Y120079D01*
X118956D01*
X117956Y121078D01*
Y125077D01*
X118956Y126077D01*
X120955D01*
X121955Y125077D01*
Y124077D01*
X120955Y123078D01*
X117956D01*
X53088Y125077D02*
X54088Y126077D01*
X56087D01*
X57087Y125077D01*
Y124077D01*
X56087Y123078D01*
X54088D01*
X53088Y122078D01*
Y121078D01*
X54088Y120079D01*
X56087D01*
X57087Y121078D01*
X47090Y126077D02*
X51089D01*
Y123078D01*
X49090Y124077D01*
X48090D01*
X47090Y123078D01*
Y121078D01*
X48090Y120079D01*
X50089D01*
X51089Y121078D01*
X124017Y227361D02*
X125001Y228344D01*
X126969D01*
X127953Y227361D01*
Y226377D01*
X126969Y225393D01*
X125001D01*
X124017Y224409D01*
Y223425D01*
X125001Y222441D01*
X126969D01*
X127953Y223425D01*
X122049Y228344D02*
X118114D01*
Y227361D01*
X122049Y223425D01*
Y222441D01*
X53151Y73817D02*
X54135Y74801D01*
X56103D01*
X57087Y73817D01*
Y72833D01*
X56103Y71849D01*
X54135D01*
X53151Y70865D01*
Y69882D01*
X54135Y68898D01*
X56103D01*
X57087Y69882D01*
X47248Y74801D02*
X49215Y73817D01*
X51183Y71849D01*
Y69882D01*
X50200Y68898D01*
X48232D01*
X47248Y69882D01*
Y70865D01*
X48232Y71849D01*
X51183D01*
X195277Y73817D02*
X196261Y74801D01*
X198229D01*
X199213Y73817D01*
Y72833D01*
X198229Y71849D01*
X196261D01*
X195277Y70865D01*
Y69882D01*
X196261Y68898D01*
X198229D01*
X199213Y69882D01*
X193309Y68898D02*
X191341D01*
X192325D01*
Y74801D01*
X193309Y73817D01*
X185438Y68898D02*
Y74801D01*
X188390Y71849D01*
X184454D01*
X194884Y176180D02*
X195868Y177163D01*
X197835D01*
X198819Y176180D01*
Y175196D01*
X197835Y174212D01*
X195868D01*
X194884Y173228D01*
Y172244D01*
X195868Y171260D01*
X197835D01*
X198819Y172244D01*
X192916Y171260D02*
X190948D01*
X191932D01*
Y177163D01*
X192916Y176180D01*
X184060Y171260D02*
X187996D01*
X184060Y175196D01*
Y176180D01*
X185044Y177163D01*
X187012D01*
X187996Y176180D01*
X124017Y73817D02*
X125001Y74801D01*
X126969D01*
X127953Y73817D01*
Y72833D01*
X126969Y71849D01*
X125001D01*
X124017Y70865D01*
Y69882D01*
X125001Y68898D01*
X126969D01*
X127953Y69882D01*
X122049Y68898D02*
X120082D01*
X121066D01*
Y74801D01*
X122049Y73817D01*
X117130D02*
X116146Y74801D01*
X114178D01*
X113194Y73817D01*
Y69882D01*
X114178Y68898D01*
X116146D01*
X117130Y69882D01*
Y73817D01*
X119217Y263536D02*
X120217Y264536D01*
X122216D01*
X123216Y263536D01*
Y262536D01*
X122216Y261537D01*
X120217D01*
X119217Y260537D01*
Y259537D01*
X120217Y258538D01*
X122216D01*
X123216Y259537D01*
X113219Y263536D02*
X114219Y264536D01*
X116218D01*
X117218Y263536D01*
Y259537D01*
X116218Y258538D01*
X114219D01*
X113219Y259537D01*
X111220Y257538D02*
X107221D01*
X101223Y263536D02*
X102223Y264536D01*
X104222D01*
X105222Y263536D01*
Y262536D01*
X104222Y261537D01*
X102223D01*
X101223Y260537D01*
Y259537D01*
X102223Y258538D01*
X104222D01*
X105222Y259537D01*
X99224Y264536D02*
Y258538D01*
X97224Y260537D01*
X95225Y258538D01*
Y264536D01*
X53088Y227439D02*
X54088Y228439D01*
X56087D01*
X57087Y227439D01*
Y226440D01*
X56087Y225440D01*
X54088D01*
X53088Y224440D01*
Y223441D01*
X54088Y222441D01*
X56087D01*
X57087Y223441D01*
X51089Y222441D02*
X49090D01*
X50089D01*
Y228439D01*
X51089Y227439D01*
X265748Y133858D02*
G03*
X265748Y133858I-2362J0D01*
G01*
X237796Y307480D02*
Y308661D01*
X238977D01*
X237796Y268504D02*
Y269685D01*
Y268504D02*
X238977D01*
X248032Y308661D02*
X255118D01*
X248032Y268504D02*
X255118D01*
X262599Y268898D02*
Y273622D01*
Y303543D02*
Y308268D01*
Y303543D02*
X265355D01*
X262599Y273622D02*
X265355D01*
X262205Y133858D02*
X264567D01*
X255906Y237795D02*
Y240551D01*
X254331Y242126D02*
X255906Y240551D01*
X279134Y201551D02*
X294095D01*
X295276Y207063D02*
Y212575D01*
X277953Y206669D02*
Y212181D01*
X279134Y218087D02*
X294095D01*
X350000Y218087D02*
X364961D01*
X348819Y207063D02*
Y212575D01*
X366142Y207457D02*
Y212968D01*
X350000Y201551D02*
X364961D01*
X420866Y218087D02*
X435827D01*
X419685Y207063D02*
X419685Y212575D01*
X437008Y212968D02*
X437008Y207457D01*
X420866Y201551D02*
X435827D01*
X279134Y150370D02*
X294095D01*
X295276Y155882D02*
Y161394D01*
X277953Y155488D02*
Y161000D01*
X279134Y166905D02*
X294095D01*
X350000Y150370D02*
X364961D01*
X366142Y155882D02*
Y161394D01*
X348819Y155488D02*
Y161000D01*
X350000Y166905D02*
X364961D01*
X420473Y166905D02*
X435433D01*
X419292Y155882D02*
Y161394D01*
X436615Y156276D02*
Y161787D01*
X420473Y150370D02*
X435433D01*
X420946Y99189D02*
X435906D01*
X437087Y104701D02*
Y110213D01*
X419765Y104307D02*
Y109819D01*
X420946Y115724D02*
X435906D01*
X350000Y99189D02*
X364961D01*
X366142Y104701D02*
Y110213D01*
X348819Y104307D02*
Y109819D01*
X350000Y115724D02*
X364961D01*
X279134Y99189D02*
X294095D01*
X295276Y104701D02*
Y110213D01*
X277953Y104307D02*
Y109819D01*
X279134Y115724D02*
X294095D01*
X279134Y48008D02*
X294095D01*
X295276Y53520D02*
Y59032D01*
X277953Y53126D02*
Y58638D01*
X279134Y64544D02*
X294095D01*
X350000Y48008D02*
X364961D01*
X366142Y53520D02*
Y59032D01*
X348819Y53126D02*
Y58638D01*
X350000Y64544D02*
X364961D01*
X420866Y64544D02*
X435827D01*
X419685Y53520D02*
Y59032D01*
X437008Y53914D02*
Y59426D01*
X420866Y48008D02*
X435827D01*
X432222Y227439D02*
X433222Y228439D01*
X435221D01*
X436221Y227439D01*
Y226440D01*
X435221Y225440D01*
X433222D01*
X432222Y224440D01*
Y223441D01*
X433222Y222441D01*
X435221D01*
X436221Y223441D01*
X430223Y222441D02*
X428223D01*
X429223D01*
Y228439D01*
X430223Y227439D01*
X425224Y222441D02*
X423225D01*
X424225D01*
Y228439D01*
X425224Y227439D01*
X361356Y176258D02*
X362356Y177258D01*
X364355D01*
X365355Y176258D01*
Y175259D01*
X364355Y174259D01*
X362356D01*
X361356Y173259D01*
Y172259D01*
X362356Y171260D01*
X364355D01*
X365355Y172259D01*
X359357Y176258D02*
X358357Y177258D01*
X356358D01*
X355358Y176258D01*
Y175259D01*
X356358Y174259D01*
X355358Y173259D01*
Y172259D01*
X356358Y171260D01*
X358357D01*
X359357Y172259D01*
Y173259D01*
X358357Y174259D01*
X359357Y175259D01*
Y176258D01*
X358357Y174259D02*
X356358D01*
X290490Y176258D02*
X291490Y177258D01*
X293489D01*
X294489Y176258D01*
Y175259D01*
X293489Y174259D01*
X291490D01*
X290490Y173259D01*
Y172259D01*
X291490Y171260D01*
X293489D01*
X294489Y172259D01*
X284492Y171260D02*
X288491D01*
X284492Y175259D01*
Y176258D01*
X285491Y177258D01*
X287491D01*
X288491Y176258D01*
X432222Y125077D02*
X433222Y126077D01*
X435221D01*
X436221Y125077D01*
Y124077D01*
X435221Y123078D01*
X433222D01*
X432222Y122078D01*
Y121078D01*
X433222Y120079D01*
X435221D01*
X436221Y121078D01*
X430223Y120079D02*
X428223D01*
X429223D01*
Y126077D01*
X430223Y125077D01*
X425224D02*
X424225Y126077D01*
X422225D01*
X421226Y125077D01*
Y124077D01*
X422225Y123078D01*
X423225D01*
X422225D01*
X421226Y122078D01*
Y121078D01*
X422225Y120079D01*
X424225D01*
X425224Y121078D01*
X361356Y125077D02*
X362356Y126077D01*
X364355D01*
X365355Y125077D01*
Y124077D01*
X364355Y123078D01*
X362356D01*
X361356Y122078D01*
Y121078D01*
X362356Y120079D01*
X364355D01*
X365355Y121078D01*
X359357D02*
X358357Y120079D01*
X356358D01*
X355358Y121078D01*
Y125077D01*
X356358Y126077D01*
X358357D01*
X359357Y125077D01*
Y124077D01*
X358357Y123078D01*
X355358D01*
X290490Y125077D02*
X291490Y126077D01*
X293489D01*
X294489Y125077D01*
Y124077D01*
X293489Y123078D01*
X291490D01*
X290490Y122078D01*
Y121078D01*
X291490Y120079D01*
X293489D01*
X294489Y121078D01*
X284492Y126077D02*
X288491D01*
Y123078D01*
X286491Y124077D01*
X285491D01*
X284492Y123078D01*
Y121078D01*
X285491Y120079D01*
X287491D01*
X288491Y121078D01*
X361419Y227361D02*
X362403Y228344D01*
X364371D01*
X365355Y227361D01*
Y226377D01*
X364371Y225393D01*
X362403D01*
X361419Y224409D01*
Y223425D01*
X362403Y222441D01*
X364371D01*
X365355Y223425D01*
X359451Y228344D02*
X355515D01*
Y227361D01*
X359451Y223425D01*
Y222441D01*
X290553Y73817D02*
X291537Y74801D01*
X293505D01*
X294489Y73817D01*
Y72833D01*
X293505Y71849D01*
X291537D01*
X290553Y70865D01*
Y69882D01*
X291537Y68898D01*
X293505D01*
X294489Y69882D01*
X284649Y74801D02*
X286617Y73817D01*
X288585Y71849D01*
Y69882D01*
X287601Y68898D01*
X285633D01*
X284649Y69882D01*
Y70865D01*
X285633Y71849D01*
X288585D01*
X432679Y73817D02*
X433663Y74801D01*
X435631D01*
X436615Y73817D01*
Y72833D01*
X435631Y71849D01*
X433663D01*
X432679Y70865D01*
Y69882D01*
X433663Y68898D01*
X435631D01*
X436615Y69882D01*
X430711Y68898D02*
X428743D01*
X429727D01*
Y74801D01*
X430711Y73817D01*
X422839Y68898D02*
Y74801D01*
X425791Y71849D01*
X421855D01*
X432285Y176180D02*
X433269Y177163D01*
X435237D01*
X436221Y176180D01*
Y175196D01*
X435237Y174212D01*
X433269D01*
X432285Y173228D01*
Y172244D01*
X433269Y171260D01*
X435237D01*
X436221Y172244D01*
X430317Y171260D02*
X428349D01*
X429333D01*
Y177163D01*
X430317Y176180D01*
X421462Y171260D02*
X425397D01*
X421462Y175196D01*
Y176180D01*
X422446Y177163D01*
X424414D01*
X425397Y176180D01*
X361419Y73817D02*
X362403Y74801D01*
X364371D01*
X365355Y73817D01*
Y72833D01*
X364371Y71849D01*
X362403D01*
X361419Y70865D01*
Y69882D01*
X362403Y68898D01*
X364371D01*
X365355Y69882D01*
X359451Y68898D02*
X357483D01*
X358467D01*
Y74801D01*
X359451Y73817D01*
X354531D02*
X353547Y74801D01*
X351580D01*
X350596Y73817D01*
Y69882D01*
X351580Y68898D01*
X353547D01*
X354531Y69882D01*
Y73817D01*
X356619Y263536D02*
X357618Y264536D01*
X359618D01*
X360618Y263536D01*
Y262536D01*
X359618Y261537D01*
X357618D01*
X356619Y260537D01*
Y259537D01*
X357618Y258538D01*
X359618D01*
X360618Y259537D01*
X350621Y263536D02*
X351621Y264536D01*
X353620D01*
X354620Y263536D01*
Y259537D01*
X353620Y258538D01*
X351621D01*
X350621Y259537D01*
X348622Y257538D02*
X344623D01*
X338625Y263536D02*
X339624Y264536D01*
X341624D01*
X342623Y263536D01*
Y262536D01*
X341624Y261537D01*
X339624D01*
X338625Y260537D01*
Y259537D01*
X339624Y258538D01*
X341624D01*
X342623Y259537D01*
X336625Y264536D02*
Y258538D01*
X334626Y260537D01*
X332627Y258538D01*
Y264536D01*
X290490Y227439D02*
X291490Y228439D01*
X293489D01*
X294489Y227439D01*
Y226440D01*
X293489Y225440D01*
X291490D01*
X290490Y224440D01*
Y223441D01*
X291490Y222441D01*
X293489D01*
X294489Y223441D01*
X288491Y222441D02*
X286491D01*
X287491D01*
Y228439D01*
X288491Y227439D01*
X503150Y133858D02*
G03*
X503150Y133858I-2362J0D01*
G01*
X475197Y307480D02*
Y308661D01*
X476378D01*
X475197Y268504D02*
Y269685D01*
Y268504D02*
X476378D01*
X485433Y308661D02*
X492520D01*
X485433Y268504D02*
X492520D01*
X500000Y268898D02*
Y273622D01*
Y303543D02*
Y308268D01*
Y303543D02*
X502756D01*
X500000Y273622D02*
X502756D01*
X499607Y133858D02*
X501969D01*
X493307Y237795D02*
Y240551D01*
X491733Y242126D02*
X493307Y240551D01*
X516536Y201551D02*
X531496D01*
X532677Y207063D02*
Y212575D01*
X515355Y206669D02*
Y212181D01*
X516536Y218087D02*
X531496D01*
X587402Y218087D02*
X602362D01*
X586221Y207063D02*
Y212575D01*
X603544Y207457D02*
Y212968D01*
X587402Y201551D02*
X602362D01*
X658268Y218087D02*
X673229D01*
X657087Y207063D02*
X657087Y212575D01*
X674410Y212968D02*
X674410Y207457D01*
X658268Y201551D02*
X673229D01*
X516536Y150370D02*
X531496D01*
X532677Y155882D02*
Y161394D01*
X515355Y155488D02*
Y161000D01*
X516536Y166905D02*
X531496D01*
X587402Y150370D02*
X602362D01*
X603544Y155882D02*
Y161394D01*
X586221Y155488D02*
Y161000D01*
X587402Y166905D02*
X602362D01*
X657874Y166905D02*
X672835D01*
X656693Y155882D02*
Y161394D01*
X674016Y156276D02*
Y161787D01*
X657874Y150370D02*
X672835D01*
X658347Y99189D02*
X673308D01*
X674489Y104701D02*
Y110213D01*
X657166Y104307D02*
Y109819D01*
X658347Y115724D02*
X673308D01*
X587402Y99189D02*
X602362D01*
X603544Y104701D02*
Y110213D01*
X586221Y104307D02*
Y109819D01*
X587402Y115724D02*
X602362D01*
X516536Y99189D02*
X531496D01*
X532677Y104701D02*
Y110213D01*
X515355Y104307D02*
Y109819D01*
X516536Y115724D02*
X531496D01*
X516536Y48008D02*
X531496D01*
X532677Y53520D02*
Y59032D01*
X515354Y53126D02*
Y58638D01*
X516536Y64544D02*
X531496D01*
X587402Y48008D02*
X602362D01*
X603543Y53520D02*
Y59032D01*
X586221Y53126D02*
Y58638D01*
X587402Y64544D02*
X602362D01*
X658268Y64544D02*
X673228D01*
X657087Y53520D02*
Y59032D01*
X674409Y53914D02*
Y59426D01*
X658268Y48008D02*
X673228D01*
X669624Y227439D02*
X670623Y228439D01*
X672623D01*
X673622Y227439D01*
Y226440D01*
X672623Y225440D01*
X670623D01*
X669624Y224440D01*
Y223441D01*
X670623Y222441D01*
X672623D01*
X673622Y223441D01*
X667624Y222441D02*
X665625D01*
X666625D01*
Y228439D01*
X667624Y227439D01*
X662626Y222441D02*
X660627D01*
X661626D01*
Y228439D01*
X662626Y227439D01*
X598758Y176258D02*
X599757Y177258D01*
X601756D01*
X602756Y176258D01*
Y175259D01*
X601756Y174259D01*
X599757D01*
X598758Y173259D01*
Y172259D01*
X599757Y171260D01*
X601756D01*
X602756Y172259D01*
X596758Y176258D02*
X595758Y177258D01*
X593759D01*
X592759Y176258D01*
Y175259D01*
X593759Y174259D01*
X592759Y173259D01*
Y172259D01*
X593759Y171260D01*
X595758D01*
X596758Y172259D01*
Y173259D01*
X595758Y174259D01*
X596758Y175259D01*
Y176258D01*
X595758Y174259D02*
X593759D01*
X527891Y176258D02*
X528891Y177258D01*
X530890D01*
X531890Y176258D01*
Y175259D01*
X530890Y174259D01*
X528891D01*
X527891Y173259D01*
Y172259D01*
X528891Y171260D01*
X530890D01*
X531890Y172259D01*
X521893Y171260D02*
X525892D01*
X521893Y175259D01*
Y176258D01*
X522893Y177258D01*
X524892D01*
X525892Y176258D01*
X669624Y125077D02*
X670623Y126077D01*
X672623D01*
X673622Y125077D01*
Y124077D01*
X672623Y123078D01*
X670623D01*
X669624Y122078D01*
Y121078D01*
X670623Y120079D01*
X672623D01*
X673622Y121078D01*
X667624Y120079D02*
X665625D01*
X666625D01*
Y126077D01*
X667624Y125077D01*
X662626D02*
X661626Y126077D01*
X659627D01*
X658627Y125077D01*
Y124077D01*
X659627Y123078D01*
X660627D01*
X659627D01*
X658627Y122078D01*
Y121078D01*
X659627Y120079D01*
X661626D01*
X662626Y121078D01*
X598758Y125077D02*
X599757Y126077D01*
X601756D01*
X602756Y125077D01*
Y124077D01*
X601756Y123078D01*
X599757D01*
X598758Y122078D01*
Y121078D01*
X599757Y120079D01*
X601756D01*
X602756Y121078D01*
X596758D02*
X595758Y120079D01*
X593759D01*
X592759Y121078D01*
Y125077D01*
X593759Y126077D01*
X595758D01*
X596758Y125077D01*
Y124077D01*
X595758Y123078D01*
X592759D01*
X527891Y125077D02*
X528891Y126077D01*
X530890D01*
X531890Y125077D01*
Y124077D01*
X530890Y123078D01*
X528891D01*
X527891Y122078D01*
Y121078D01*
X528891Y120079D01*
X530890D01*
X531890Y121078D01*
X521893Y126077D02*
X525892D01*
Y123078D01*
X523893Y124077D01*
X522893D01*
X521893Y123078D01*
Y121078D01*
X522893Y120079D01*
X524892D01*
X525892Y121078D01*
X598820Y227361D02*
X599804Y228344D01*
X601772D01*
X602756Y227361D01*
Y226377D01*
X601772Y225393D01*
X599804D01*
X598820Y224409D01*
Y223425D01*
X599804Y222441D01*
X601772D01*
X602756Y223425D01*
X596853Y228344D02*
X592917D01*
Y227361D01*
X596853Y223425D01*
Y222441D01*
X527954Y73817D02*
X528938Y74801D01*
X530906D01*
X531890Y73817D01*
Y72833D01*
X530906Y71849D01*
X528938D01*
X527954Y70865D01*
Y69882D01*
X528938Y68898D01*
X530906D01*
X531890Y69882D01*
X522051Y74801D02*
X524019Y73817D01*
X525986Y71849D01*
Y69882D01*
X525002Y68898D01*
X523035D01*
X522051Y69882D01*
Y70865D01*
X523035Y71849D01*
X525986D01*
X670080Y73817D02*
X671064Y74801D01*
X673032D01*
X674016Y73817D01*
Y72833D01*
X673032Y71849D01*
X671064D01*
X670080Y70865D01*
Y69882D01*
X671064Y68898D01*
X673032D01*
X674016Y69882D01*
X668112Y68898D02*
X666145D01*
X667129D01*
Y74801D01*
X668112Y73817D01*
X660241Y68898D02*
Y74801D01*
X663193Y71849D01*
X659257D01*
X669687Y176180D02*
X670671Y177163D01*
X672638D01*
X673622Y176180D01*
Y175196D01*
X672638Y174212D01*
X670671D01*
X669687Y173228D01*
Y172244D01*
X670671Y171260D01*
X672638D01*
X673622Y172244D01*
X667719Y171260D02*
X665751D01*
X666735D01*
Y177163D01*
X667719Y176180D01*
X658863Y171260D02*
X662799D01*
X658863Y175196D01*
Y176180D01*
X659847Y177163D01*
X661815D01*
X662799Y176180D01*
X598820Y73817D02*
X599804Y74801D01*
X601772D01*
X602756Y73817D01*
Y72833D01*
X601772Y71849D01*
X599804D01*
X598820Y70865D01*
Y69882D01*
X599804Y68898D01*
X601772D01*
X602756Y69882D01*
X596853Y68898D02*
X594885D01*
X595869D01*
Y74801D01*
X596853Y73817D01*
X591933D02*
X590949Y74801D01*
X588981D01*
X587997Y73817D01*
Y69882D01*
X588981Y68898D01*
X590949D01*
X591933Y69882D01*
Y73817D01*
X594020Y263536D02*
X595020Y264536D01*
X597019D01*
X598019Y263536D01*
Y262536D01*
X597019Y261537D01*
X595020D01*
X594020Y260537D01*
Y259537D01*
X595020Y258538D01*
X597019D01*
X598019Y259537D01*
X588022Y263536D02*
X589022Y264536D01*
X591021D01*
X592021Y263536D01*
Y259537D01*
X591021Y258538D01*
X589022D01*
X588022Y259537D01*
X586023Y257538D02*
X582024D01*
X576026Y263536D02*
X577026Y264536D01*
X579025D01*
X580025Y263536D01*
Y262536D01*
X579025Y261537D01*
X577026D01*
X576026Y260537D01*
Y259537D01*
X577026Y258538D01*
X579025D01*
X580025Y259537D01*
X574027Y264536D02*
Y258538D01*
X572027Y260537D01*
X570028Y258538D01*
Y264536D01*
X527891Y227439D02*
X528891Y228439D01*
X530890D01*
X531890Y227439D01*
Y226440D01*
X530890Y225440D01*
X528891D01*
X527891Y224440D01*
Y223441D01*
X528891Y222441D01*
X530890D01*
X531890Y223441D01*
X525892Y222441D02*
X523893D01*
X524892D01*
Y228439D01*
X525892Y227439D01*
M02*
