M48
;GenerationSoftware,Autodesk,EAGLE,9.6.2*%
;CreationDate,2025-06-12T14:11:52Z*%
FMAT,2
ICI,OFF
METRIC,TZ,000.000
T6C0.150
T5C0.600
T4C1.000
T3C1.016
T2C2.150
T1C2.800
%
G90
M71
T1
X43750Y126250
X-43750Y3750
X-43750Y126250
X43750Y3750
T2
X23148Y95164
X-21302Y115484
T3
X-30000Y48730
X-30000Y51270
X-30000Y57460
X-30000Y60000
X-30000Y62540
X42750Y55800
X42750Y58340
X32790Y68610
X39040Y32250
X36500Y32250
X33960Y4750
X36500Y4750
X39040Y4750
X-30000Y86290
X-30000Y83750
X-30000Y77540
X-30000Y75000
X32790Y66070
X-30000Y72460
X-30000Y81210
X33960Y32250
X42750Y53260
T4
X-31270Y36430
X-28730Y36430
X-31270Y33890
X-28730Y33890
X-31270Y31350
X-28730Y31350
X-31270Y28810
X-28730Y28810
X-31270Y26270
X-28730Y26270
X-31270Y23730
X-28730Y23730
X-28730Y21190
X-31270Y18650
X-28730Y13570
X-31270Y21190
X-31270Y13570
X-28730Y16110
X-31270Y16110
X-28730Y18650
T5
X42000Y67930
X42000Y76570
X46000Y67930
X46000Y76570
T6
X33200Y44400
X27100Y44800
X29700Y51200
X30700Y50200
X30900Y53300
X29600Y53300
X26700Y52300
X28800Y52400
X22600Y44400
X37900Y51400
X40100Y51300
X39000Y50400
X39800Y56200
X39800Y58700
X33900Y59500
X35600Y57800
X35500Y56700
X34000Y56700
X34000Y52800
X36100Y54250
X44400Y62000
X29700Y49100
X35700Y68800
X43600Y69600
X43600Y68800
X40800Y69200
X40800Y75300
X43600Y75700
X43600Y74900
X39100Y72300
X35900Y76900
X38100Y76900
X37000Y77900
X39900Y76000
X38600Y76000
X35700Y78300
X41000Y79900
X41000Y81600
X41700Y83200
X45400Y85200
X43800Y85300
X39500Y91400
X44100Y93400
X44100Y94900
X37500Y94900
X33500Y94900
X32500Y96700
X31500Y96700
X46000Y96700
X45000Y96700
X15700Y80500
X17800Y81100
X12300Y80700
X13700Y67500
X10700Y67500
X10800Y70325
X13400Y70100
X14700Y68600
X2500Y67300
X2075Y69500
X4100Y70700
X700Y75800
X-2400Y76300
X4300Y84300
X4000Y87700
X5200Y87800
X6200Y88800
X-2700Y85200
X-11900Y75900
X-18400Y76000
X-17700Y74700
X-18100Y71200
X-19100Y72300
X-10500Y71600
X-8700Y64800
X-8700Y63200
X-4900Y64800
X-4900Y63200
X40950Y88050
X9050Y93850
X9100Y91100
X-6900Y111000
X-6150Y109500
X24450Y45150
X25200Y46050
X38100Y83700
X40050Y84300
X39900Y83550
X44400Y89850
X44400Y88200
X43800Y87750
X43650Y86250
X7150Y82200
X9400Y81600
X11050Y81600
X11200Y79950
X12100Y77850
X10300Y77850
X4600Y82200
X5650Y80850
X8350Y80100
X4750Y78750
X3400Y79050
X3850Y73350
X11950Y74400
X5050Y75000
X5650Y76950
X8800Y76950
X8500Y75450
X10750Y75450
X18550Y76500
X19000Y79650
X20200Y79950
X17800Y79050
X16000Y79500
X14800Y83700
X14200Y85800
X17800Y84900
X15700Y85050
X16750Y86850
X19000Y82500
X20200Y82800
X22450Y80250
X24700Y80250
X29050Y85200
X23650Y83100
X23950Y86250
X25450Y85050
X30100Y86400
X31750Y88050
X33250Y89400
X33050Y85950
X36550Y89550
X35050Y86250
X32950Y84150
X30550Y81750
X28900Y80100
X25300Y78450
X27550Y80550
X29950Y82800
X26950Y78300
X24850Y76050
X25750Y75450
X32650Y82350
X35050Y84750
X35800Y82950
X37600Y84600
X33400Y80100
X31000Y77700
X27250Y75150
X30400Y73200
X34900Y73950
X39850Y73650
X39850Y71100
X37900Y70350
X37900Y68700
X30250Y71100
X25150Y72600
X24100Y73800
X20800Y71700
X22150Y73350
X22000Y76650
X24850Y87900
X29800Y87750
X23650Y89250
X17050Y90750
X15400Y91500
X13750Y91350
X32350Y94800
X25000Y94650
X21250Y93150
X12100Y91350
X9250Y85050
X9100Y87750
X8200Y89700
X6250Y84300
X2200Y84300
X-800Y87900
X-2450Y87300
X-2600Y89400
X-500Y84900
X-6350Y85200
X-6950Y83250
X-2000Y81900
X550Y79800
X-3050Y79950
X-2350Y78150
X400Y89100
X4600Y89100
X100Y90750
X5200Y90750
X5500Y93900
X7900Y93900
X7600Y96300
X7150Y97500
X-1400Y97650
X-1400Y96300
X-1250Y95100
X-2600Y97650
X-4250Y97650
X-4250Y96300
X-2750Y96300
X-2750Y95100
X-4250Y95100
X-4250Y93450
X-2750Y93750
X-5750Y94650
X-12050Y96300
X-12050Y97650
X-5750Y99300
X-5600Y97500
X-5750Y96300
X-2750Y99000
X-4250Y99150
X-1400Y99150
X-2900Y91200
X-4250Y89400
X-17600Y87750
X-23450Y81750
X-26000Y82200
X-23600Y74850
X-25850Y74400
X-23150Y72450
X-19400Y74400
X-26600Y77850
X-22100Y80550
X-19850Y81450
X-15800Y79950
X-14450Y81450
X-12650Y78900
X-8000Y76050
X-26450Y71100
X-29750Y70650
X-26300Y69000
X-24800Y68850
X-32450Y39000
X-26300Y47100
X-32750Y30150
X-27050Y21900
X-26450Y33600
X-33350Y14850
X-15050Y7650
X-15050Y14250
X-15950Y22650
X-16100Y27300
X-16100Y33000
X-15950Y38550
X-15950Y42600
X-15950Y47850
X-15950Y52500
X-16100Y57150
X-16100Y62250
X-13850Y61500
X-13850Y54450
X-13850Y47700
X-13850Y42300
X-13850Y37500
X-13850Y33150
X-13850Y27300
X-13850Y22650
X-12650Y17700
X-11450Y12300
X-11000Y5100
X-200Y4800
X-200Y12000
X-50Y17700
X100Y22350
X-50Y28050
X-1100Y32850
X-1100Y38550
X-950Y42750
X-800Y48000
X-1100Y53100
X-1100Y57750
X700Y59550
X850Y56250
X850Y50400
X1150Y46350
X1150Y42150
X1000Y37500
X1000Y33000
X1000Y30750
X3700Y6900
X3850Y14100
X3850Y20550
X3700Y28500
X3700Y34350
X3700Y43800
X4000Y46200
X3700Y49950
X3400Y58500
X3400Y61200
X7150Y62250
X6400Y63900
X8650Y65100
X10600Y62250
X11950Y61950
X16000Y61050
X18100Y61800
X18700Y57750
X18850Y50250
X15100Y57900
X15100Y50250
X10750Y58950
X7300Y60000
X16150Y46050
X15250Y43800
X15100Y37800
X15100Y31800
X15850Y28500
X14950Y22500
X15250Y17700
X15250Y14100
X15250Y8550
X15250Y4050
X8500Y3300
X10600Y5400
X10750Y11400
X10750Y17400
X10900Y23850
X11200Y28500
X11200Y31350
X11200Y38700
X11200Y45300
X11500Y47850
X7900Y49500
X10300Y54900
X7150Y51750
X11650Y64500
X15100Y64800
X19300Y64350
X20800Y68400
X18550Y70200
X12800Y71450
X18250Y71700
X23050Y70350
X29350Y64650
X30250Y67800
X21700Y61350
X24850Y55200
X22000Y58200
X24550Y60900
X28600Y60300
X26050Y56250
X25150Y50550
X23650Y53250
X20500Y57150
X25200Y48100
X20500Y44850
X20500Y54000
X21100Y48750
X28000Y50100
X24400Y42150
X26350Y42000
X30100Y41850
X27700Y39750
X24100Y39600
X22450Y39750
X20350Y36450
X27550Y37350
X34150Y47700
X36550Y45750
X36850Y47850
X40150Y45450
X41650Y48900
X37000Y49950
X34150Y50250
X43000Y51300
X44200Y47850
X43750Y40050
X40450Y39900
X35950Y40350
X32650Y39000
X37600Y34350
X40150Y36750
X43000Y32450
X35200Y30600
X37750Y29850
X33700Y27000
X38350Y24300
X39100Y21600
X36550Y27750
X35800Y24600
X32500Y26100
X33250Y23100
X31150Y21300
X34000Y18450
X36700Y16350
X26950Y23850
X26800Y21000
X24700Y25800
X18850Y25350
X20050Y34500
X21400Y29100
X18250Y38700
X18100Y46350
X18400Y31350
X19750Y18300
X25300Y18450
X19150Y11550
X19000Y5400
X28900Y9900
X24550Y13350
X35600Y7050
X39250Y17250
X43450Y25950
X38500Y61650
X35200Y66000
X40000Y67650
X44650Y65550
X39700Y64950
X27250Y69000
X24550Y66300
X21550Y64500
X26500Y63900
X33400Y74550
X34150Y78750
X39250Y77700
X41800Y78000
X44050Y78450
X39550Y80550
X35200Y81450
X34300Y87450
X-12200Y94650
X-12050Y91050
X-6950Y91050
X-9050Y93150
X-15200Y92100
X-17600Y89400
X-20300Y85200
X-11600Y86850
X-9800Y85050
X-15050Y86850
X-17750Y83550
X-21800Y69000
X-18950Y68100
X-20000Y70800
X-22700Y66000
X-18050Y66600
X-22550Y60900
X-18650Y58350
X-22850Y54900
X-18950Y52500
X-22700Y48750
X-18800Y45600
X-25100Y43950
X-19250Y39300
X-24650Y36000
X-19700Y32850
X-24650Y28050
X-19550Y24150
X-24900Y19300
X-19800Y17650
X-27000Y14500
X-19500Y10150
X-5000Y75550
X-5400Y72550
X-6800Y72650
X-8400Y71050
X-7000Y71050
X-5500Y70750
X-4800Y70150
X-3600Y69050
X-4300Y69650
X-4500Y71750
X-3900Y71050
X-3200Y70350
X-2500Y69650
X-1800Y69050
X-8900Y72450
X-9700Y71550
X-12200Y69050
X-11500Y69850
X-10500Y69050
X-9400Y69950
X-11300Y64950
X-12300Y66050
X-10600Y65950
X-9700Y65050
X-3400Y66050
X-3900Y65050
X-1700Y66050
X-2400Y65050
X0Y69050
X-2200Y71150
X-300Y71750
X1000Y73150
X-3300Y76350
X-10400Y81500
X-10900Y83900
X-6900Y88000
X-12900Y88000
X-24700Y82600
X-27500Y82600
X-32050Y73250
X-32050Y76350
X-31950Y78350
X-31850Y79950
X-35550Y76750
X-35850Y80050
X-31750Y85150
X-34850Y85150
X-32050Y82350
X-37950Y84250
X-37950Y82050
X-37950Y79750
X-36250Y74350
X-21200Y75400
X-24100Y50200
X-25000Y51300
X-24700Y59100
X-25000Y55600
X-31600Y54600
X-32600Y64500
X-33200Y65400
X-33200Y31200
X-32500Y32500
X-32400Y27600
X-34600Y27900
X-32700Y22900
X-10900Y60000
X-4000Y59800
X-11300Y51500
X-4300Y50900
X-7300Y58200
X-7800Y53700
X-7500Y48100
X-10300Y44100
X-4500Y44700
X-10700Y39000
X-4100Y38300
X-7200Y42600
X-7600Y36700
X-10700Y32900
X-3400Y32800
X-10900Y30500
X-4100Y30600
X-7100Y33100
X-11000Y28500
X-4100Y28200
X-11300Y25200
X-4100Y24000
X-10700Y19800
X-4000Y18800
X-7100Y22000
X-7400Y26400
X-11100Y15600
X-4200Y15700
X-4100Y10400
X-11100Y8900
X-7400Y14000
X-7300Y17700
X-7600Y10500
X-3900Y6900
X-7200Y7500
X-7500Y5000
X-3800Y4100
X-15200Y5000
X4300Y3500
X7900Y10000
X7800Y13800
X7800Y18200
X7300Y22300
X7900Y27400
X8200Y31800
X8000Y35600
X8200Y40100
X7900Y45200
X-14350Y70600
X-15450Y67200
X-13850Y65600
X-16550Y64700
X-8650Y79900
X-5650Y77900
X22500Y78650
X-47000Y500
X-45000Y500
X-43000Y500
X-41000Y500
X-39000Y500
X-37000Y500
X-35000Y500
X-33000Y500
X-31000Y500
X-29000Y500
X-27000Y500
X-25000Y500
X-23000Y500
X-21000Y500
X-19000Y500
X-17000Y500
X-15000Y500
X-13000Y500
X-11000Y500
X-9000Y500
X-7000Y500
X-5000Y500
X-3000Y500
X-1000Y500
X1000Y500
X3000Y500
X5000Y500
X7000Y500
X9000Y500
X11000Y500
X13000Y500
X15000Y500
X17000Y500
X19000Y500
X21000Y500
X23000Y500
X25000Y500
X27400Y500
X29000Y500
X31000Y500
X33000Y500
X35000Y500
X37000Y500
X39000Y500
X41000Y500
X43000Y500
X45000Y500
X47000Y500
X47000Y35500
X47000Y37500
X47000Y39500
X47000Y41500
X47000Y43500
X47000Y45500
X47000Y47500
X47000Y49500
X47000Y51500
X47000Y53500
X47000Y55500
X47000Y57500
X47000Y59500
X47000Y61500
X47000Y63500
X47000Y65500
X47000Y67500
X47000Y69500
X47000Y71500
X47000Y73500
X47000Y75500
X47000Y77500
X47000Y79500
X47000Y81500
X47000Y83500
X47000Y85500
X47000Y87500
X47000Y89500
X47000Y91500
X47000Y93500
X47000Y95500
X47000Y97500
X47000Y99500
X47000Y101500
X47000Y103500
X47000Y105500
X47000Y107500
X47000Y109500
X47000Y111500
X47000Y113500
X47000Y115500
X47000Y117500
X47000Y119500
X47000Y121500
X47000Y123500
X47000Y125500
X47000Y127500
X47000Y129500
X-47000Y129500
X-45000Y129500
X-43000Y129500
X-41000Y129500
X-39000Y129500
X-37000Y129500
X-35000Y129500
X-33000Y129500
X-31000Y129500
X-29000Y129500
X-27000Y129500
X-25000Y129500
X-23000Y129500
X-21000Y129500
X-19000Y129500
X-17000Y129500
X-15000Y129500
X-13000Y129500
X-11000Y129500
X-9000Y129500
X-7000Y129500
X-5000Y129500
X-3000Y129500
X-1000Y129500
X1000Y129500
X3000Y129500
X5000Y129500
X7000Y129500
X9000Y129500
X11000Y129500
X13000Y129500
X15000Y129500
X17000Y129500
X19000Y129500
X21000Y129500
X23000Y129500
X25000Y129500
X27000Y129500
X29000Y129500
X31000Y129500
X33000Y129500
X35000Y129500
X37000Y129500
X39000Y129500
X41000Y129500
X43000Y129500
X45000Y129500
X-47000Y2500
X-47000Y4500
X-47000Y6500
X-47000Y8500
X-47000Y10500
X-47000Y12500
X-47000Y14500
X-47000Y16500
X-47000Y18500
X-47000Y20500
X-47000Y22500
X-47000Y24500
X-47000Y26500
X-47000Y28500
X-47000Y30500
X-47000Y32500
X-47000Y34500
X-47000Y36500
X-47000Y38500
X-47000Y40500
X-47000Y42500
X-47000Y44500
X-47000Y46500
X-47000Y48500
X-47000Y50500
X-47000Y52500
X-47000Y54500
X-47000Y56500
X-47000Y58500
X-47000Y60500
X-47000Y62500
X-47000Y64500
X-47000Y66500
X-47000Y68500
X-47000Y70500
X-47000Y72500
X-47000Y74500
X-47000Y76500
X-47000Y78500
X-47000Y80500
X-47000Y82500
X-47000Y84500
X-47000Y86500
X-47000Y88500
X-47000Y90500
X-47000Y92500
X-47000Y94500
X-47000Y96500
X-47000Y98500
X-47000Y100500
X-47000Y102500
X-47000Y104500
X-47000Y106500
X-47000Y108500
X-47000Y110500
X-47000Y112500
X-47000Y114500
X-47000Y116500
X-47000Y118500
X-47000Y120500
X-47000Y122500
X-47000Y124500
X-47000Y126500
X-47000Y128000
X47000Y33500
X47000Y31500
X47000Y29500
X47000Y27500
X47000Y25500
X47000Y23500
X47000Y21500
X47000Y19500
X47000Y17500
X47000Y15500
X47000Y13500
X47000Y11500
X47000Y9500
X47000Y7500
X47000Y5500
X47000Y3500
X47000Y2000
X-37200Y9200
X-43300Y16200
X-37700Y20500
X-40300Y12400
X-43200Y9000
X-44400Y22100
X-37600Y27200
X-44300Y32200
X-38500Y33400
X-44000Y40400
X-37500Y44000
X-43800Y49900
X-43800Y56100
X-38400Y55400
X-41200Y44900
X-41000Y37400
X-44200Y63700
X-37500Y66100
X-44700Y71600
X-38500Y75400
X-44400Y76300
X-41600Y73400
X-41200Y67700
X-44900Y84800
X-41000Y88500
X-44800Y92600
X-38000Y98100
X-44700Y98800
X-38000Y104300
X-44600Y105600
X-41300Y101900
X-37800Y109700
X-42700Y116000
X-41700Y109000
X-43800Y120500
X-40700Y113900
X-31300Y112500
X-24900Y111500
X-29200Y117200
X-36800Y122100
X-38100Y127800
X-27900Y127600
X-31300Y123600
X-24000Y120000
X-19500Y127100
X-15600Y115000
X-7300Y127000
X-4200Y115600
X-12400Y121700
X2600Y126900
X-800Y121800
X2000Y116400
X-1200Y111000
X5500Y116100
X7800Y126400
X7900Y119800
X7500Y111800
X15400Y126600
X19900Y119600
X26800Y126800
X34400Y118600
X39200Y127400
X44600Y118600
X36100Y124100
X27200Y119600
X21200Y126000
X14000Y120200
X12900Y112200
X18600Y115900
X24200Y110800
X29800Y115900
X35000Y110900
X-35250Y107850
X43800Y110400
X40700Y103800
X36200Y105900
X31600Y101900
X26000Y106300
X22100Y102200
X18100Y107200
X14100Y104500
X8200Y104500
X0Y106000
X4000Y100100
X11100Y99100
X16600Y93700
X18800Y93600
X29800Y96900
X-19700Y110900
X-13100Y111000
X-8200Y105900
X-13300Y100700
X-14100Y106700
X-24300Y106500
X-20200Y99900
X-18100Y104500
X-6400Y102100
X-16500Y95600
X-31900Y107900
X-18400Y94400
X-25900Y101700
X-30900Y101200
X-20400Y92400
X-30700Y89100
X-24900Y88300
X-25600Y95100
X-35000Y98100
X-37500Y2500
X-33500Y6400
X-30000Y2600
X-21800Y4000
X-29600Y8400
X-23300Y12200
X-26000Y4300
X44900Y8500
X43000Y14100
X44900Y21500
X32400Y33800
X25800Y31300
X28600Y35300
X-600Y102200
X14500Y71850
X11800Y83000
X11650Y87400
X-26800Y103700
X-21400Y88700
X-1400Y72350
X42500Y106400
X42750Y20930
X42750Y22130
X40350Y22130
X40350Y20930
X26700Y54300
X27750Y55200
X29550Y54300
X30900Y54450
X31800Y54750
X31600Y53950
X31500Y57000
X31650Y58500
X31500Y60750
X31650Y62100
X21150Y69450
X4050Y75000
X34050Y58500
X44400Y63000
X30000Y47400
X42450Y45450
X27000Y43800
X24650Y49000
X19500Y74400
X15150Y74400
X14250Y63925
X7025Y66750
X28800Y48600
X37950Y48150
X20875Y62100
X-3600Y112050
X40000Y94900
X39150Y86250
X40650Y85950
X43000Y94900
X41850Y88950
X42900Y89850
X42750Y83400
X-34500Y81900
X-34500Y80550
X-35100Y81300
X-33100Y106400
X-35000Y103900
X-35000Y102100
X-31300Y97100
X-31200Y94900
X-31200Y93200
X-30600Y92500
X-31200Y91800
X-35100Y36400
X42700Y79900
X42700Y81600
X43400Y82500
X37900Y90800
X39500Y93400
X17800Y83000
X15700Y82900
X15000Y82100
X13200Y81800
X11800Y67500
X11800Y71800
X10800Y68500
X5275Y68500
X4700Y72700
X5000Y70600
X700Y75150
X0Y74400
X-2400Y74700
X3200Y83200
X3500Y84400
X2000Y85500
X2100Y87700
X-15700Y77014
X-16499Y74999
X-16000Y74300
X-16200Y71200
X-14000Y71600
X-16100Y73300
X38250Y87900
X41600Y11000
X-34200Y106200
X25800Y19350
X33450Y17400
X-22200Y75600
X750Y78250
X-24300Y72000
X-3000Y88500
X-1950Y93300
X9900Y78750
X12186Y78786
X19050Y77250
X16500Y77250
X-4950Y92550
X10250Y76800
X12325Y76800
X9450Y80100
X3950Y93900
X-900Y82650
X39800Y116600
X-8400Y73200
X-2850Y71850
X-23550Y73800
X-3000Y72900
X-3750Y75000
X-7500Y75000
X-14700Y74400
X-1500Y73500
X-11700Y44550
X1200Y44550
X3300Y44550
X16200Y44550
X8100Y61950
X8100Y60450
X-11700Y29550
X1200Y29550
X3300Y29550
X16200Y29550
X-150Y62550
X-150Y60750
X3325Y77550
X9450Y64050
X9450Y62375
X11550Y59550
X750Y77350
X-1200Y59550
X-4500Y72600
X-10950Y70500
X-28050Y71550
X-6900Y98250
X-450Y98250
X13950Y84900
X-25200Y73200
X-6900Y95700
X0Y95700
X11250Y84925
X-21550Y74400
X-2100Y88500
X8250Y87300
X8250Y82350
X41250Y92550
X13200Y85800
X15450Y71775
X10800Y73200
X42000Y93300
X10200Y74275
X35586Y91464
X15900Y90750
X34200Y90450
X13950Y90150
X23400Y87750
X17300Y87750
X17250Y76350
X15750Y76350
X20550Y78450
X16350Y78300
X41700Y91050
X9750Y70800
X44100Y92400
X14350Y74225
X24600Y77700
X33850Y81400
X40300Y92050
X12150Y73350
X34500Y88950
X12900Y88650
X-27450Y70500
X-6900Y96900
X-600Y96900
X12336Y85014
X5700Y79350
X10200Y82350
X9150Y116700
X-29400Y103400
X-35700Y105200
X41700Y84150
X43950Y84170
X31500Y84300
X8889Y84261
X43650Y73500
X40800Y73800
X43650Y70950
X40800Y70650
X39900Y75000
X38550Y75000
X35850Y75000
X37050Y73950
X34800Y72300
X23736Y78714
X17250Y77875
X-38850Y84750
X12900Y62850
X750Y81300
X40500Y72750
X39150Y71400
X21050Y75000
X14300Y79050
X43650Y72450
X40500Y71850
X21050Y75650
X14950Y79050
X-34000Y103900
X-33100Y102100
X-29600Y97100
X-30200Y94900
X-32100Y87300
X-33600Y87300
X-39700Y86300
X-34500Y78200
X-37900Y72400
X-35800Y71500
X-34200Y71500
X-25300Y49500
X-36800Y37100
X-36800Y24400
X-36800Y16800
X-36800Y14200
X35900Y10400
X35900Y13200
X36000Y12600
X36000Y15300
X34500Y17200
X34500Y15800
X30500Y19300
X30000Y20300
X28500Y20300
X29000Y22700
X25700Y23100
X27500Y25300
X31000Y25300
X25100Y29300
X25000Y27200
X24100Y28200
X32000Y29300
X32000Y27200
X33000Y28300
X42900Y16800
X42500Y18400
X35300Y21300
X37400Y21300
X36300Y22300
X38000Y20400
X39300Y20400
X41500Y26900
X41600Y25600
X42500Y27400
X42400Y29600
X43400Y28500
X29000Y43600
X30000Y43100
X31500Y44500
X29000Y44500
X7050Y81450
M30